<svg width="352" height="116" viewBox="0 0 352 116" fill="none" xmlns="http://www.w3.org/2000/svg">
<path d="M274.237 68.174C278.991 68.174 281.083 65.4663 282.514 62.8155L280.223 61.1908C278.877 63.6991 277.445 65.1527 274.066 65.0672C269.74 64.9817 268.221 61.2763 268.165 61.1338L265.701 62.3879C265.787 62.616 267.934 68.06 274.036 68.174C274.066 68.174 274.151 68.174 274.237 68.174ZM281.884 70.1691H281.827H281.454V70.1976C280.652 70.3686 279.621 71.2808 274.036 76.7533C271.487 79.233 267.448 83.1663 264.67 85.5891L265.643 76.4682C265.672 76.1547 265.9 73.1904 264.04 71.1383C263.294 70.3117 261.891 69.3141 259.542 69.3141V72.9624C260.745 72.9624 261.174 73.4184 261.319 73.561C262.006 74.302 262.063 75.6702 262.006 76.0977L260.286 91.8312H263.982L264.126 90.5486C266.074 89.3229 269.424 86.2447 276.528 79.3185C278.075 77.8078 279.736 76.1832 280.968 75.0432L279.307 91.8312H283.059L285.064 70.1976L281.884 70.1691ZM134.195 69.2855C125.143 69.2855 122.737 73.3615 122.737 75.7842H126.318C126.346 75.2142 127.779 72.8769 134.195 72.8769C141.872 72.8769 141.872 75.7842 141.872 77.1809C141.872 77.9788 141.843 78.8055 141.757 79.575H129.669L129.326 83.1379H141.098L141.012 83.3089C140.955 83.4229 140.898 83.5939 140.812 83.7934C140.239 85.2756 138.864 88.6959 131.187 88.6959C125.086 88.6959 123.224 87.4133 123.167 87.3847L120.56 89.836C120.961 90.235 123.282 92.2587 131.187 92.2587C141.327 92.2587 143.476 86.8716 144.163 85.0761L144.278 84.8194C145.223 82.8813 145.452 78.9195 145.452 77.1238C145.452 71.9363 141.642 69.2855 134.195 69.2855ZM252.581 88.4678C252.954 88.8954 253.585 89.0949 254.414 89.0949V92.7148C252.037 92.7148 250.633 91.7172 249.889 90.8621C249.431 90.349 249.087 89.8074 248.859 89.2945C245.507 91.8027 240.609 92.9427 238.231 92.9998H237.974C235.997 92.9998 232.674 92.6577 230.525 90.52C229.293 89.2945 228.664 87.6697 228.664 85.7885C228.664 83.9644 229.266 82.4253 230.497 81.2281C233.705 78.0644 240.35 78.1783 245.679 78.2924C247.053 78.3209 248.371 78.3495 249.402 78.2924C249.431 78.0928 249.46 77.9219 249.487 77.7794C249.745 75.9837 249.688 75.0716 249.23 74.587C247.541 72.7058 239.377 72.991 233.418 73.3615L233.189 69.7416C244.734 69.029 249.632 69.6562 251.894 72.1358C253.47 73.8744 253.384 76.1261 253.04 78.3495C252.696 80.4586 251.951 86.6721 251.923 86.7292C251.894 87.0712 251.951 87.7552 252.581 88.4678ZM238.202 89.3514C241.382 89.2945 247.799 87.0428 248.658 83.9644C248.743 83.3374 248.829 82.6248 248.915 81.9122C247.941 81.9408 246.825 81.9122 245.62 81.8837C241.21 81.8267 235.165 81.6843 233.018 83.7934C232.502 84.3065 232.272 84.9335 232.272 85.7601C232.272 86.6721 232.531 87.3562 233.074 87.8978C234.021 88.8669 235.854 89.4084 238.202 89.3514ZM185.898 92.4296C194.205 92.4296 198.759 87.5842 198.759 78.7769C198.759 75.2142 197.326 69.2286 187.702 69.2286C181.286 69.2286 173.609 71.7083 173.609 83.5084C173.581 91.3751 179.797 92.4296 185.898 92.4296ZM187.673 72.8484C192.858 72.8484 195.15 74.6725 195.15 78.7769C195.15 85.6461 192.2 88.8383 185.869 88.8383C178.508 88.8383 177.161 87.0428 177.161 83.537C177.19 78.948 178.278 72.8484 187.673 72.8484ZM173.065 70.1691H168.568L159.488 79.746H155.048L155.42 76.2402C155.449 75.9266 155.678 73.1049 153.874 71.1098C153.129 70.2831 151.725 69.2855 149.348 69.2855V72.8484C150.207 72.8484 150.809 73.0479 151.181 73.4755C151.84 74.188 151.869 75.4421 151.84 75.8411L150.15 91.8027H153.759L154.704 82.9668H159.087L166.105 91.8027H170.258L162.152 81.6272L173.065 70.1691ZM312.42 69.9981L311.473 79.4895H295.777L296.093 76.4397C296.12 76.0977 296.35 73.162 294.488 71.0812C293.743 70.2547 292.339 69.2571 289.991 69.2571V72.9053C291.193 72.9053 291.624 73.3615 291.767 73.5039C292.454 74.2451 292.511 75.6132 292.454 76.0407L290.793 91.8312H294.459L295.406 83.0808H311.13L310.243 91.8312H313.823L315.971 69.9981H312.42ZM225.885 70.1976L223.507 91.8312H219.87L221.846 73.7889H210.532C210.188 83.1094 207.123 92.4582 199.389 92.4582V88.8669C204.832 88.8669 206.636 80.0881 206.923 73.7889H205.347V70.1976H225.885Z" fill="#3A3C42"/>
<path d="M93.1763 51.6709C83.7238 51.6709 79.6276 57.9699 75.9897 63.4995C72.7817 68.4304 70.0031 72.6774 63.9591 72.6774H63.2718V76.6108H93.1763C101.34 76.6108 105.15 70.7962 108.53 65.6372C111.91 60.4783 115.089 55.6043 122.393 55.6043H169.828V51.6709H93.1763ZM105.207 63.4995C101.999 68.4304 99.1916 72.6774 93.1763 72.6774H73.8415C76.0184 70.6252 77.7085 68.0599 79.3125 65.6372C82.6925 60.4783 85.8721 55.6043 93.1763 55.6043H111.509C108.902 57.8561 106.983 60.7633 105.207 63.4995Z" fill="#1069A9"/>
<path d="M150.866 43.0064C143.562 43.0064 140.382 38.1325 137.002 32.9735C133.651 27.8145 129.841 22 121.677 22H91.601V25.9334H92.489C98.5329 25.9334 101.312 30.1802 104.52 35.1112C106.296 37.8475 108.215 40.7547 110.821 43.0064H94.1504C86.8461 43.0064 83.6666 38.1325 80.2866 32.9735C76.9066 27.8145 73.0969 22 64.9045 22H35V25.9334H35.7161C41.76 25.9334 44.5385 30.1802 47.7467 35.1112C51.3845 40.6692 55.4807 46.9398 64.9045 46.9398H183.091V43.0064H150.866ZM64.9045 43.0064C57.6003 43.0064 54.4207 38.1325 51.0407 32.9735C49.4653 30.5508 47.7753 27.9855 45.5984 25.9334H64.9332C70.9772 25.9334 73.7557 30.1802 76.9638 35.1112C78.7398 37.8475 80.6589 40.7547 83.2656 43.0064H64.9045ZM121.677 43.0064C114.373 43.0064 111.194 38.1325 107.814 32.9735C106.238 30.5508 104.548 27.9855 102.343 25.9334H121.677C127.721 25.9334 130.5 30.1802 133.708 35.1112C135.484 37.8475 137.403 40.7547 140.01 43.0064H121.677Z" fill="#1696CD"/>
</svg>
