<svg width="422" height="425" viewBox="0 0 422 425" fill="none" xmlns="http://www.w3.org/2000/svg">
<g clip-path="url(#clip0_134_179)">
<path d="M6.8742 345.035C7.56149 344.105 8.93609 342.478 10.998 340.386C13.0599 338.294 14.8927 336.202 16.7254 334.11C18.5582 332.018 19.9328 330.623 20.8492 329.693C21.5365 328.996 22.4529 328.066 23.8275 326.904C25.2021 325.741 26.5767 324.579 27.9513 323.417C29.3259 322.254 30.7005 321.092 32.0751 320.395C33.4497 319.465 34.3661 319 34.5951 319C34.8242 319 35.2824 319.232 35.5115 319.697C35.7406 320.162 36.1988 320.627 36.4279 321.325C36.657 322.022 36.8861 322.487 36.8861 323.184C36.8861 323.649 36.657 324.114 36.4279 324.579C36.1988 325.044 35.2824 326.206 33.9079 328.298C30.2423 333.877 27.7222 338.061 26.3476 340.851C24.973 343.64 24.2857 345.732 24.2857 346.895C24.2857 348.289 24.7439 349.219 25.6603 349.452C25.8894 349.452 26.1185 349.684 26.3476 349.684C26.5767 349.684 27.0349 349.684 27.264 349.452C27.9513 349.219 28.4095 348.987 29.0968 348.754C29.555 348.289 30.4714 347.825 31.6169 346.895C32.0751 346.43 32.5333 346.197 32.9915 345.732C33.2206 345.5 33.4497 345.5 33.6788 345.5H33.9079C34.137 345.5 34.137 345.5 34.3661 345.732V345.965C34.3661 346.43 33.4497 347.127 32.0751 348.522C30.0132 350.382 28.4095 351.776 27.0349 352.706C25.6603 353.636 24.5148 354.333 23.8275 354.566C23.1402 354.798 22.2238 355.031 21.7656 355.031C21.0783 355.031 20.391 354.798 19.7037 354.101C19.0164 353.404 18.3291 352.706 18.3291 351.544C18.3291 350.382 18.5582 348.987 19.2455 347.592C19.7037 345.965 20.6201 344.338 21.5365 342.478C22.4529 340.618 23.5984 338.526 24.973 336.434C26.1185 334.342 27.7222 331.785 29.3259 328.763C29.7841 328.066 30.0132 327.833 30.0132 327.601C30.0132 327.368 30.0132 327.368 29.7841 327.368C29.555 327.368 29.3259 327.136 29.3259 327.136C28.6386 327.136 27.264 328.066 25.2021 329.693C22.9111 330.855 21.3074 332.25 20.1619 333.412C16.2672 337.364 11.9144 342.478 7.1033 349.219C6.1869 350.382 5.7287 351.079 5.27051 351.311C4.81231 351.544 4.58321 351.776 4.12501 351.776C4.12501 351.776 3.89591 351.776 3.66682 351.776C3.43772 351.776 3.20862 351.776 2.97952 351.776C2.29222 351.776 2.06312 351.776 1.83402 351.776C1.60493 351.776 1.37583 351.544 1.37583 351.079C1.37583 350.614 1.14673 349.917 1.14673 348.754C1.14673 344.338 2.29222 340.851 4.58321 338.061C5.27051 337.364 6.1869 336.667 7.56149 336.202C8.93609 335.737 10.0816 335.504 10.998 335.504C11.2271 335.504 11.4562 335.504 11.4562 335.504C11.4562 335.504 11.2271 335.969 10.7689 336.434C10.3107 336.899 9.62338 337.829 9.16519 338.759C7.79059 340.851 7.1033 342.943 6.8742 345.035Z" fill="white"/>
<path d="M48.1108 336.434C49.0272 336.667 49.7145 337.596 49.7145 338.991C49.7145 339.456 49.7145 340.153 49.4854 340.618C49.2563 342.013 48.569 343.408 47.6526 344.803C47.6526 345.035 47.4235 345.035 47.4235 345.268C47.4235 345.5 47.4235 345.732 47.6526 345.965C47.8817 346.197 48.1108 346.197 48.3399 346.197C48.7981 346.197 49.0272 345.965 49.4854 345.732C49.9436 345.5 50.1727 345.268 50.4018 345.268C50.86 345.268 50.86 345.268 50.86 345.5C50.86 345.732 50.6309 346.197 50.1727 346.662C49.7145 347.127 49.0272 347.592 48.1108 347.825C47.1944 348.289 46.278 348.289 45.3617 348.289C43.5289 350.614 41.467 351.776 39.176 351.776C38.0305 351.776 37.1141 351.311 36.1977 350.614C35.5104 349.917 34.8231 348.987 34.3649 347.825C33.9067 346.662 33.6776 345.732 33.6776 344.57C33.6776 342.943 34.3649 341.083 35.7395 339.456C37.1141 337.596 38.7178 336.202 40.7797 335.039C42.6125 333.877 44.2162 333.18 45.5908 333.18C46.278 333.18 46.7362 333.412 47.4235 333.645C47.8817 333.877 48.3399 334.342 48.3399 334.575C48.3399 334.807 48.3399 335.039 48.3399 335.272C48.1108 335.969 48.1108 336.202 48.1108 336.434ZM43.758 347.127C43.2998 346.43 43.2998 345.732 43.2998 345.035C43.2998 344.105 43.5289 343.408 43.758 342.478C44.2162 341.548 44.4453 340.618 44.6744 339.921C44.9035 339.224 45.1326 338.759 45.1326 338.759C45.1326 338.526 45.1326 338.526 44.9035 338.526C44.6744 338.526 44.6744 338.294 44.4453 338.294C43.9871 338.294 43.2998 338.526 42.3834 339.224C41.467 339.921 40.5506 340.618 40.0924 341.083C39.176 342.013 38.2596 343.175 37.8014 343.873C37.3432 344.803 37.1141 345.732 37.1141 346.895C37.1141 348.289 37.8014 348.987 39.4051 348.987C40.7797 349.219 42.1543 348.522 43.758 347.127Z" fill="white"/>
<path d="M63.4602 334.807L64.1475 336.202C64.1475 336.434 64.1475 336.667 64.1475 336.899C64.1475 337.597 63.4602 338.759 61.8565 340.618C59.7946 342.943 58.8782 344.803 58.8782 346.197C58.8782 346.895 59.1073 347.127 59.3364 347.36C59.5655 347.592 60.2528 347.592 60.711 347.592C61.3983 347.592 62.5438 346.895 64.3766 345.5C64.8348 345.035 65.0639 344.803 65.293 344.803C65.5221 344.803 65.5221 344.803 65.5221 345.035C65.5221 345.268 65.0639 345.965 64.1475 347.127C63.2311 348.289 62.3147 348.987 61.6274 349.684C60.4819 350.614 59.5655 351.311 58.6491 352.009C57.7327 352.706 56.5872 352.939 55.4417 352.939C54.7544 352.939 54.0671 352.706 53.6089 352.009C53.1507 351.311 52.9216 350.847 52.9216 349.917C52.9216 348.987 53.3798 347.592 54.2962 346.197C55.2126 344.803 56.5872 342.943 58.6491 340.851C59.5655 339.921 60.0237 338.991 60.0237 338.526C60.0237 338.294 59.7946 338.061 59.3364 338.061C58.1909 338.061 56.5872 338.759 54.7544 339.921C54.2962 340.386 53.838 340.618 53.3798 340.851C53.1507 341.083 52.6925 341.548 52.4634 341.781C52.2343 342.013 52.0052 342.246 51.7761 342.478C51.547 342.478 51.547 342.711 51.3179 342.711C51.0888 342.711 50.8597 342.478 50.8597 342.246C50.8597 341.781 51.547 340.851 52.6925 339.456C53.838 338.061 55.2126 337.132 56.129 336.434C58.6491 334.807 60.711 333.877 61.8565 333.877C62.7729 334.342 63.2311 334.575 63.4602 334.807Z" fill="white"/>
<path d="M76.2901 345.268C75.3737 346.197 74.6864 347.36 73.77 348.289C72.8537 349.219 71.9373 349.917 71.0209 350.847C70.1045 351.544 69.1881 352.009 68.7299 352.009C67.8135 352.009 67.1262 351.311 66.668 349.917C66.2098 348.522 65.7516 346.895 65.7516 345.268C65.7516 344.105 66.2098 342.711 67.1262 341.083C68.0426 339.224 69.1881 337.829 70.5627 336.434C71.9373 335.039 73.0827 334.575 73.9991 334.575C74.4573 334.575 74.9155 334.575 75.3737 334.807C75.6028 334.807 75.8319 335.039 75.8319 335.272C75.8319 335.737 75.6028 336.434 74.9155 337.132C74.2282 337.829 73.5409 338.759 72.6246 339.689C71.7082 340.618 71.0209 341.083 70.1045 341.548C69.6463 341.781 69.1881 342.013 68.959 342.246C68.7299 342.711 68.7299 343.175 68.7299 343.873C68.7299 344.57 68.959 345.268 69.1881 345.5C69.4172 345.732 69.8754 346.197 70.1045 346.197C70.5627 346.197 71.25 345.965 72.1664 345.268C73.0827 344.57 73.9991 343.873 75.1446 342.943L83.6213 334.342C84.0795 333.877 84.3086 333.877 84.5377 333.877C85.225 333.877 85.6832 334.807 85.6832 336.434V336.899C85.6832 337.132 85.6832 337.364 85.4541 337.597L81.1012 342.246C79.9557 343.408 79.4975 344.57 79.4975 345.965C79.4975 347.36 79.9557 348.057 80.643 348.057C81.1012 348.057 81.5594 347.825 82.2467 347.592C82.934 347.36 83.6213 346.895 84.0795 346.43C84.0795 346.43 84.3086 346.197 84.7668 345.965C84.9959 345.732 85.225 345.5 85.4541 345.5C85.6832 345.5 85.9123 345.732 85.9123 345.965C85.9123 346.197 85.225 346.895 84.0795 348.057C82.934 349.219 81.5594 350.382 80.1848 351.311C78.8102 352.241 77.6647 352.706 76.9774 352.706C76.5192 352.706 76.061 352.474 75.6028 352.009C75.1446 351.544 75.1446 350.847 75.1446 349.917C75.3737 348.754 75.8319 347.127 76.2901 345.268Z" fill="white"/>
<path d="M86.3704 345.5C86.3704 344.338 86.8286 343.175 87.5159 341.781C88.2032 340.386 89.3486 338.991 90.7232 337.596C92.0978 336.202 93.4724 335.272 95.0761 334.342C96.6798 333.412 98.0544 333.18 99.429 333.18C100.804 333.18 101.262 333.645 101.262 334.575C101.262 335.272 101.033 335.969 100.345 337.132C99.6581 338.294 98.9708 339.224 98.2835 340.153C97.5962 341.083 96.9089 341.548 96.6798 341.548C96.4507 341.548 96.2216 341.316 95.9925 340.618C95.9925 340.153 95.7634 339.921 95.3052 339.689H94.6179C94.1597 339.921 93.2433 340.153 92.3269 341.083C91.4105 342.013 90.7232 342.711 90.0359 343.64C89.3486 344.57 89.3486 345.5 89.3486 346.197C89.3486 346.895 89.5777 347.592 90.265 348.289C90.9523 348.987 91.8687 349.219 93.2433 349.219C94.1597 349.219 95.0761 348.987 95.9925 348.754C96.6798 348.522 97.5962 348.057 98.5126 347.36C99.429 346.662 100.345 346.197 100.804 345.732C101.262 345.268 101.72 345.035 101.949 345.035C102.178 345.035 102.407 345.268 102.407 345.5C102.407 346.197 101.033 347.592 98.2835 349.917C97.138 350.846 95.9925 351.776 94.847 352.474C93.7015 353.171 92.7851 353.404 91.6396 353.404C90.265 353.404 89.3486 352.939 88.4322 352.009C87.5158 351.079 87.0577 349.917 86.5995 348.754C86.5995 347.36 86.3704 346.43 86.3704 345.5Z" fill="white"/>
<path d="M106.302 346.197C107.905 344.57 110.196 342.246 113.404 339.689C117.069 336.667 119.589 335.039 120.506 335.039C121.193 335.039 121.422 335.272 121.651 335.504C121.88 335.737 121.88 336.202 121.88 336.899C121.88 337.364 121.651 338.061 121.193 338.991C120.735 339.689 120.506 340.386 120.048 340.851C119.818 341.316 119.36 341.781 119.131 342.246C118.673 342.711 118.444 343.175 118.444 343.175C118.215 343.408 118.215 343.64 118.215 343.64C118.215 343.873 118.215 344.105 118.444 344.105C118.673 344.105 118.673 344.105 118.902 343.873C118.902 343.873 119.36 343.64 119.818 343.175C120.277 342.711 120.735 342.246 121.422 341.781C121.88 341.548 122.568 340.851 123.713 339.921C124.63 339.224 125.317 338.759 126.004 338.294C126.691 337.829 127.379 337.364 127.837 337.132C128.295 336.899 128.753 336.667 129.212 336.434C129.67 336.202 130.128 336.202 130.357 336.202C130.815 336.202 131.044 336.667 131.503 337.364C131.961 338.061 131.961 338.759 131.961 339.224C131.961 339.456 131.732 339.921 131.273 340.386C129.67 341.781 128.753 342.943 128.066 344.105C127.379 345.268 127.15 346.197 127.15 346.895C127.15 347.825 127.608 348.289 128.524 348.289C129.67 348.289 131.044 347.592 132.648 345.965C133.106 345.732 133.335 345.5 133.564 345.5C133.794 345.5 133.794 345.5 133.794 345.732V346.197C133.564 346.895 132.877 347.825 131.503 348.987C130.128 350.149 128.753 351.311 127.379 352.241C126.004 353.171 124.859 353.636 124.4 353.636C123.942 353.636 123.255 353.404 122.797 353.171C122.339 352.939 122.109 352.241 122.109 351.776C122.109 350.382 122.568 348.987 123.255 347.36C123.713 346.662 123.942 345.965 124.4 345.268C124.859 344.57 125.088 344.105 125.088 343.873C125.088 343.64 124.859 343.64 124.63 343.64C124.4 343.64 123.484 344.105 122.339 345.268C121.193 346.197 120.277 347.127 119.589 347.592C118.444 348.754 117.528 349.684 116.611 350.382C115.924 351.079 115.237 351.544 114.778 352.009C114.32 352.474 113.862 352.474 113.404 352.474C113.175 352.474 112.946 352.241 112.716 352.009C112.487 351.776 112.258 351.311 112.258 350.847C112.258 350.149 112.716 348.987 113.633 347.36C114.091 346.662 114.32 346.197 114.778 345.5C115.237 344.803 115.466 344.57 115.695 344.338C115.924 344.105 115.924 343.873 115.924 343.64C115.924 343.175 115.466 342.943 114.778 342.943C114.091 342.943 113.404 343.175 112.487 343.873C111.571 344.57 110.425 345.732 109.051 347.127C108.364 347.825 107.676 348.754 106.989 349.917C106.302 351.079 105.614 351.776 105.385 352.009C105.156 352.241 104.927 352.474 104.469 352.474C104.011 352.474 103.552 352.241 103.094 351.544C102.636 350.847 102.407 349.684 102.407 348.057C102.407 346.895 102.407 345.965 102.636 345.5C102.865 344.803 103.094 344.338 103.323 343.64C104.011 342.013 104.698 341.083 105.385 339.921C106.531 338.526 107.218 337.597 107.905 336.899C108.593 336.202 109.28 335.969 110.425 335.969C110.884 335.969 111.113 335.969 111.342 336.202C111.571 336.434 111.571 336.667 111.571 336.899C111.571 337.132 111.342 337.829 110.655 338.526C109.967 339.224 109.051 340.386 107.676 341.781C106.302 343.175 105.843 344.105 105.843 344.57C106.073 345.268 106.073 345.732 106.302 346.197ZM115.924 334.342C115.695 334.11 115.466 333.412 115.466 332.25C115.466 331.32 115.924 330.39 117.069 329.693C118.215 328.763 119.589 328.066 121.193 327.601C122.797 326.904 124.4 326.439 126.004 326.206C127.608 325.741 128.753 325.741 129.67 325.741C130.586 325.741 131.503 325.974 131.961 326.206C132.419 326.671 132.648 326.904 132.648 327.368V327.601L131.273 329.925C130.357 329.461 129.212 329.228 127.379 329.228C126.462 329.228 125.088 329.461 123.713 329.925C122.339 330.39 120.964 330.855 119.589 331.785C117.757 332.482 116.611 333.412 115.924 334.342Z" fill="white"/>
<path d="M144.103 345.268C143.187 346.197 142.5 347.36 141.583 348.289C140.667 349.219 139.75 349.917 138.834 350.846C137.918 351.544 137.001 352.009 136.543 352.009C135.627 352.009 134.939 351.311 134.481 349.917C134.023 348.522 133.565 346.895 133.565 345.268C133.565 344.105 134.023 342.711 134.939 341.083C135.856 339.224 137.001 337.829 138.376 336.434C139.75 335.039 140.896 334.575 141.812 334.575C142.27 334.575 142.729 334.575 143.187 334.807C143.645 335.039 143.874 335.272 143.874 335.504C143.874 335.969 143.645 336.667 142.958 337.364C142.27 338.061 141.583 338.991 140.667 339.921C139.75 340.851 139.063 341.316 138.147 341.781C137.688 342.013 137.23 342.246 137.001 342.478C136.772 342.943 136.772 343.408 136.772 344.105C136.772 344.803 137.001 345.5 137.23 345.732C137.459 345.965 137.918 346.43 138.147 346.43C138.605 346.43 139.292 346.197 140.209 345.5C141.125 344.803 142.041 344.105 143.187 343.175L151.664 334.575C152.122 334.11 152.351 334.11 152.58 334.11C153.267 334.11 153.725 335.039 153.725 336.667V337.132C153.725 337.364 153.725 337.596 153.496 337.829L149.143 342.478C147.998 343.64 147.54 344.803 147.54 346.197C147.54 347.592 147.998 348.289 148.685 348.289C149.143 348.289 149.602 348.057 150.289 347.825C150.976 347.592 151.664 347.127 152.122 346.662C152.122 346.662 152.351 346.43 152.809 346.197C153.038 345.965 153.267 345.732 153.496 345.732C153.725 345.732 153.955 345.965 153.955 346.197C153.955 346.43 153.267 347.127 152.122 348.289C150.976 349.452 149.602 350.614 148.227 351.544C146.852 352.474 145.707 352.939 145.02 352.939C144.561 352.939 144.103 352.706 143.645 352.241C143.187 351.776 143.187 351.079 143.187 350.149C143.416 348.754 143.645 347.127 144.103 345.268Z" fill="white"/>
<path d="M155.1 343.175C155.1 342.943 155.329 342.246 155.787 341.548C156.474 340.153 156.933 339.224 156.933 338.759C156.933 338.759 156.933 338.526 156.704 338.294C156.474 338.061 156.474 337.829 156.474 337.596C156.474 336.899 156.704 336.202 157.391 335.272C158.078 334.342 158.765 333.645 159.682 332.947C160.598 332.25 161.286 332.018 161.744 332.018C161.973 332.018 162.202 332.25 162.202 332.482C162.202 332.715 162.202 332.715 162.202 332.947C162.202 333.18 162.202 333.18 162.202 333.412C162.202 334.11 162.66 334.342 163.347 334.342C163.806 334.342 164.264 334.342 165.409 334.11C167.7 333.645 168.846 333.645 168.846 333.645C169.304 333.645 169.533 333.877 169.762 334.11C169.304 334.575 169.533 335.039 169.533 335.504C169.533 336.202 169.075 337.132 168.159 338.061C167.013 338.991 166.097 340.386 165.18 341.781C164.264 343.408 163.577 344.57 163.577 345.5C163.577 346.197 163.806 346.662 164.035 346.895C164.264 347.127 164.722 347.36 165.409 347.36C166.326 347.36 167.7 346.662 169.533 345.035C169.762 344.803 170.22 344.57 170.449 344.57C170.679 344.57 170.908 344.803 170.908 345.035C170.908 345.5 169.533 346.895 166.784 349.219C164.722 350.846 162.889 351.544 161.056 351.544C160.369 351.544 159.682 351.311 159.224 350.614C158.765 349.917 158.536 349.219 158.536 348.289C158.536 347.36 158.765 346.43 159.453 345.5C160.14 344.57 160.827 343.408 161.973 342.013C162.431 341.316 162.889 340.851 163.347 340.386C163.806 339.921 164.035 339.456 164.264 339.224C164.493 338.991 164.722 338.526 164.722 338.294C164.722 337.829 164.035 337.596 162.889 337.596C161.515 337.596 160.598 337.596 160.14 337.829C159.682 338.061 159.224 338.061 158.995 338.294C158.765 338.759 158.536 339.224 158.078 339.921C157.62 341.083 157.162 341.781 156.474 342.478C155.787 343.175 155.558 343.408 155.1 343.175C155.1 343.408 155.1 343.408 155.1 343.175Z" fill="white"/>
<path d="M175.032 344.803C175.032 347.36 175.948 348.522 177.781 348.522C178.926 348.522 180.53 347.825 182.592 346.43C183.508 345.965 184.196 345.268 184.654 345.035C185.112 344.803 185.57 344.57 185.57 344.57C185.799 344.57 185.799 344.803 185.799 345.268C185.799 345.5 185.341 346.197 184.196 347.36C182.821 348.754 181.446 349.917 179.843 351.311C178.239 352.474 176.635 353.171 175.032 353.171C173.657 353.171 172.741 352.706 171.824 351.776C170.908 350.847 170.45 349.452 170.45 347.592C170.45 346.197 170.908 344.57 171.595 342.943C172.282 341.316 173.428 339.689 174.573 338.294C175.719 336.899 177.094 335.737 178.697 334.807C180.072 333.877 181.676 333.412 183.05 333.412C184.196 333.412 184.883 333.645 185.341 334.11C185.799 334.575 186.028 335.039 186.028 335.737C186.028 336.667 185.57 338.061 184.425 339.224C183.279 340.618 181.905 341.781 180.301 342.943C178.239 343.873 176.635 344.57 175.032 344.803ZM175.032 342.943C175.948 342.711 176.864 342.246 178.01 341.548C179.155 340.851 180.072 340.154 180.759 339.224C181.446 338.294 181.905 337.597 181.905 337.132C181.905 336.202 181.676 335.969 180.988 335.969C179.843 335.969 178.697 336.667 177.552 338.294C176.177 339.921 175.49 341.548 175.032 342.943Z" fill="white"/>
<path d="M186.028 345.5C186.028 344.338 186.486 343.175 187.174 341.781C187.861 340.386 189.006 338.991 190.381 337.596C191.756 336.202 193.13 335.272 194.734 334.342C196.338 333.412 197.712 333.18 199.087 333.18C200.461 333.18 200.92 333.645 200.92 334.575C200.92 335.272 200.691 335.969 200.003 337.132C199.316 338.294 198.629 339.224 197.941 340.153C197.254 341.083 196.567 341.548 196.338 341.548C196.109 341.548 195.879 341.316 195.65 340.618C195.65 340.153 195.421 339.921 194.963 339.689H194.276C193.818 339.921 192.901 340.153 191.985 341.083C191.068 342.013 190.381 342.711 189.694 343.64C189.006 344.57 188.777 345.5 188.777 346.197C188.777 346.895 189.006 347.592 189.694 348.289C190.381 348.987 191.297 349.219 192.672 349.219C193.588 349.219 194.505 348.987 195.421 348.754C196.109 348.522 197.025 348.057 197.941 347.36C198.858 346.662 199.774 346.197 200.232 345.732C200.691 345.268 201.149 345.035 201.378 345.035C201.607 345.035 201.836 345.268 201.836 345.5C201.836 346.197 200.461 347.592 197.712 349.917C196.567 350.846 195.421 351.776 194.276 352.474C193.13 353.171 192.214 353.404 191.068 353.404C189.694 353.404 188.777 352.939 187.861 352.009C186.945 351.079 186.486 349.917 186.028 348.754C186.028 347.36 186.028 346.43 186.028 345.5Z" fill="white"/>
<path d="M207.563 346.43L203.669 351.079C203.669 351.544 203.44 351.544 203.44 351.544C203.211 351.544 202.981 351.079 202.752 350.149C202.523 349.219 202.294 348.057 202.294 346.43C202.294 345.732 202.294 345.035 202.294 344.57C202.523 343.408 202.981 341.781 204.127 339.921C205.043 338.061 206.189 336.202 207.334 334.807C208.48 333.412 209.167 332.482 209.625 332.482C209.854 332.482 210.084 332.947 210.542 333.645C211 334.342 210.771 335.272 210.771 335.969C210.771 336.434 210.771 336.899 210.542 337.132C210.313 337.364 210.084 337.829 209.396 338.294C208.48 339.224 207.334 340.386 206.647 341.781C205.731 342.943 205.272 344.105 205.272 345.268C205.272 345.5 205.272 345.732 205.272 345.965C207.105 343.64 208.938 341.548 211 339.689C213.062 337.829 214.895 336.434 216.498 335.272C218.102 334.11 219.477 333.645 220.164 333.645C220.622 333.645 220.851 333.877 221.309 334.342C221.768 334.807 221.768 335.272 221.768 336.202C221.768 339.224 221.08 341.083 219.706 342.246C219.018 342.246 218.331 342.013 217.644 341.781C216.956 341.548 216.727 341.083 216.727 340.618V340.386C216.727 340.386 216.727 340.154 216.956 340.154C217.186 340.154 217.186 340.154 217.186 339.921C217.644 340.154 217.873 339.921 218.102 339.456V338.759C218.102 338.526 217.644 338.294 217.415 338.294C216.727 338.294 215.582 338.991 213.978 340.154C212.604 341.316 211.458 342.478 210.542 343.64C211.229 343.873 211.916 344.338 212.375 344.803C212.833 345.268 213.52 345.965 213.978 346.662C214.666 347.592 215.124 348.057 215.353 348.289C215.582 348.522 216.04 348.754 216.498 348.754C217.415 348.754 219.018 347.825 221.538 345.965C222.455 345.268 222.913 345.035 222.913 345.035C222.913 345.035 223.142 345.035 223.142 345.268L223.371 345.5C223.371 345.965 222.913 346.662 221.768 347.825C220.851 348.987 219.935 349.684 219.247 350.382C217.186 352.009 215.353 352.706 213.978 352.706C212.833 352.706 211.916 352.241 211.458 351.544C210.771 350.847 210.313 349.917 209.625 348.754C209.167 347.825 208.938 347.36 208.709 346.895C208.251 346.895 208.022 346.662 207.563 346.43Z" fill="white"/>
<path d="M233.681 345.268C232.764 346.197 232.077 347.36 231.161 348.289C230.244 349.219 229.328 349.917 228.411 350.846C227.495 351.544 226.579 352.009 226.12 352.009C225.204 352.009 224.517 351.311 224.058 349.917C223.6 348.522 223.142 346.895 223.142 345.268C223.142 344.105 223.6 342.711 224.517 341.083C225.433 339.224 226.579 337.829 227.953 336.434C229.328 335.039 230.473 334.575 231.39 334.575C231.848 334.575 232.306 334.575 232.764 334.807C233.222 335.039 233.452 335.272 233.452 335.504C233.452 335.969 233.222 336.667 232.535 337.364C231.848 338.061 231.161 338.991 230.244 339.921C229.328 340.851 228.64 341.316 227.724 341.781C227.266 342.013 226.808 342.246 226.579 342.478C226.349 342.943 226.349 343.408 226.349 344.105C226.349 344.803 226.579 345.5 226.808 345.732C227.037 345.965 227.495 346.43 227.724 346.43C228.182 346.43 228.87 346.197 229.786 345.5C230.702 344.803 231.619 344.105 232.764 343.175L241.241 334.575C241.699 334.11 241.928 334.11 242.157 334.11C242.845 334.11 243.303 335.039 243.303 336.667V337.132C243.303 337.364 243.303 337.596 243.074 337.829L238.721 342.478C237.575 343.64 237.117 344.803 237.117 346.197C237.117 347.592 237.575 348.289 238.263 348.289C238.721 348.289 239.179 348.057 239.866 347.825C240.554 347.592 241.241 347.127 241.699 346.662C241.699 346.662 241.928 346.43 242.386 346.197C242.616 345.965 242.845 345.732 243.074 345.732C243.303 345.732 243.532 345.965 243.532 346.197C243.532 346.43 242.845 347.127 241.699 348.289C240.554 349.452 239.179 350.614 237.804 351.544C236.43 352.474 235.284 352.939 234.597 352.939C234.139 352.939 233.681 352.706 233.222 352.241C232.764 351.776 232.764 351.079 232.764 350.149C232.993 348.754 233.222 347.127 233.681 345.268Z" fill="white"/>
<path d="M248.114 344.803C248.114 347.36 249.03 348.522 250.863 348.522C252.009 348.522 253.612 347.825 255.674 346.43C256.591 345.965 257.278 345.268 257.736 345.035C258.194 344.57 258.653 344.338 258.653 344.338C258.882 344.338 258.882 344.57 258.882 345.035C258.882 345.268 258.423 345.965 257.278 347.127C255.903 348.522 254.529 349.684 252.925 351.079C251.321 352.241 249.718 352.939 248.114 352.939C246.739 352.939 245.823 352.474 244.907 351.544C243.99 350.614 243.532 349.219 243.532 347.36C243.532 345.965 243.99 344.338 244.677 342.711C245.365 341.083 246.51 339.456 247.656 338.061C248.801 336.667 250.176 335.504 251.78 334.575C253.154 333.645 254.758 333.18 256.132 333.18C257.278 333.18 257.965 333.412 258.423 333.877C258.882 334.342 259.111 334.807 259.111 335.504C259.111 336.434 258.653 337.829 257.507 338.991C256.362 340.386 254.987 341.548 253.383 342.711C251.321 343.873 249.718 344.57 248.114 344.803ZM248.114 342.943C249.03 342.711 249.947 342.246 251.092 341.548C252.238 340.851 253.154 340.153 253.841 339.224C254.529 338.294 254.987 337.596 254.987 337.132C254.987 336.202 254.758 335.969 254.071 335.969C252.925 335.969 251.78 336.667 250.634 338.294C249.489 339.921 248.572 341.548 248.114 342.943Z" fill="white"/>
<path d="M284.083 338.294L276.752 344.803C276.293 345.268 275.835 345.5 275.835 345.5C275.606 345.5 275.377 345.5 275.377 345.268V344.803C275.377 344.57 275.835 344.105 276.752 343.175C277.668 342.246 279.501 340.386 282.479 337.364C284.312 335.504 285.916 333.877 287.29 331.785C288.665 329.925 289.581 328.763 289.81 328.298C290.039 327.833 290.727 327.833 291.643 327.833C291.872 327.833 292.33 327.833 292.559 328.066C292.788 328.298 293.018 328.298 293.018 328.531C293.018 328.531 293.018 328.531 293.018 328.763C290.039 332.715 287.748 335.969 286.374 338.526C285.916 339.224 285.457 340.154 284.999 340.851C285.686 340.154 286.603 339.456 287.748 338.294C288.894 337.364 290.268 336.434 291.414 335.737C292.559 335.039 293.476 334.575 294.163 334.575C294.85 334.575 295.309 334.807 295.767 335.272C296.225 335.737 296.454 336.434 296.454 337.364C296.454 338.526 295.996 339.689 295.079 341.083C294.163 342.478 293.247 343.64 291.872 344.803C290.727 345.965 289.581 346.895 288.207 347.825C289.123 348.289 290.039 348.522 291.185 348.522C292.559 348.522 293.705 348.289 294.621 347.592C295.538 346.895 296.454 346.197 296.912 345.732C297.141 345.5 297.37 345.268 297.6 345.268C297.829 345.268 298.058 345.268 298.058 345.5C298.058 345.965 297.37 346.895 295.996 348.289C295.079 349.219 293.934 350.149 292.559 350.847C291.185 351.544 289.81 352.009 288.436 352.474C287.061 352.939 285.916 352.939 284.77 352.939C283.166 352.939 281.334 352.241 279.501 351.079C278.584 353.404 277.668 355.263 276.981 356.658C276.293 358.285 275.835 359.447 275.377 360.377C274.919 361.307 274.69 362.004 274.461 362.237C274.231 362.469 274.002 362.702 273.544 362.702C273.086 362.702 272.857 362.469 272.628 362.004C272.399 361.54 272.399 361.075 272.399 360.61C272.399 360.145 272.857 358.053 273.773 354.333C274.919 352.241 276.293 350.382 278.355 348.754L284.083 338.294ZM281.792 347.36C282.479 347.127 283.166 346.895 283.854 346.895C284.541 346.895 285.457 347.127 286.374 347.592C287.519 346.662 288.665 345.5 289.81 344.338C290.727 343.175 291.414 342.013 291.643 341.316V340.618C291.185 340.154 290.956 339.921 290.268 339.921C289.352 339.921 287.977 340.618 286.374 342.246C284.77 343.64 283.166 345.268 281.792 347.36Z" fill="white"/>
<path d="M302.41 344.803C302.41 347.36 303.327 348.522 305.16 348.522C306.305 348.522 307.909 347.825 309.971 346.43C310.887 345.965 311.574 345.268 312.033 345.035C312.491 344.57 312.949 344.338 312.949 344.338C313.178 344.338 313.178 344.57 313.178 345.035C313.178 345.268 312.72 345.965 311.574 347.127C310.2 348.522 308.825 349.684 307.222 351.079C305.618 352.241 304.014 352.939 302.41 352.939C301.036 352.939 300.119 352.474 299.203 351.544C298.287 350.614 297.828 349.219 297.828 347.36C297.828 345.965 298.287 344.338 298.974 342.711C299.661 341.083 300.807 339.456 301.952 338.061C303.098 336.667 304.472 335.504 306.076 334.575C307.451 333.645 309.054 333.18 310.429 333.18C311.574 333.18 312.262 333.412 312.72 333.877C313.178 334.342 313.407 334.807 313.407 335.504C313.407 336.434 312.949 337.829 311.803 338.991C310.658 340.386 309.283 341.548 307.68 342.711C305.847 343.873 304.243 344.57 302.41 344.803ZM302.41 342.943C303.327 342.711 304.243 342.246 305.389 341.548C306.534 340.851 307.451 340.153 308.138 339.224C308.825 338.294 309.283 337.596 309.283 337.132C309.283 336.202 309.054 335.969 308.367 335.969C307.222 335.969 306.076 336.667 304.931 338.294C303.785 339.921 302.869 341.548 302.41 342.943Z" fill="white"/>
<path d="M322.571 346.43C320.051 349.684 317.989 351.544 316.615 351.544C316.156 351.544 315.698 351.311 315.24 350.614C314.782 350.149 314.324 349.219 314.095 348.522C313.865 347.592 313.636 346.662 313.636 345.732C313.636 344.105 314.095 342.478 315.011 340.851C315.927 339.224 317.073 337.597 318.218 336.434C319.364 335.272 320.509 334.342 321.197 334.342H322.342C323.259 334.342 323.717 334.807 323.717 335.272C323.717 335.969 323.259 336.667 322.571 337.829C321.884 338.991 320.738 339.689 319.822 340.618C318.677 341.316 317.76 341.781 317.302 342.013C317.073 342.943 316.844 343.873 316.844 344.57C316.844 344.803 316.844 345.268 317.073 345.5C317.302 345.732 317.531 345.965 317.76 345.965C318.218 345.965 319.135 345.268 320.738 344.105C322.342 342.711 323.717 341.316 325.32 339.921C326.924 338.294 327.841 337.364 328.299 336.899C328.757 336.202 329.215 335.969 329.444 335.737C329.673 335.504 329.902 335.272 330.361 334.807C330.361 334.807 330.59 334.575 330.819 334.342C331.048 334.11 331.277 333.877 331.506 333.645C331.735 333.412 331.964 333.412 332.193 333.412C332.423 333.412 332.881 333.645 333.11 334.11C333.339 334.575 333.568 334.807 333.568 335.272C333.568 335.969 333.339 336.434 333.11 336.899C332.881 337.364 332.423 337.829 331.735 338.526C328.07 341.781 326.466 344.105 326.466 345.5C326.466 345.732 326.466 345.965 326.695 346.197C326.924 346.43 326.924 346.662 327.153 346.662C327.841 346.662 329.673 345.5 332.652 342.943C335.172 340.851 337.692 338.061 339.983 335.039C340.441 334.575 340.67 334.575 340.899 334.575C341.357 334.575 341.816 334.807 342.045 335.272C342.274 335.737 342.503 336.202 342.503 336.667C342.503 337.132 342.045 337.597 341.357 338.294C340.899 338.759 340.441 339.224 339.754 339.921C339.066 340.618 338.608 341.316 337.921 342.013C337.234 342.711 336.775 343.408 336.546 344.105C336.088 344.803 335.859 345.5 335.859 345.965C335.859 346.895 336.088 347.36 336.546 347.592C337.004 347.825 337.463 348.057 337.921 348.057C338.608 348.057 339.983 347.36 341.586 345.965C342.274 345.5 342.503 345.268 342.503 345.268C342.961 345.268 343.19 345.268 343.19 345.5C343.19 345.965 342.732 346.895 341.586 348.057C340.441 349.219 339.295 350.382 337.921 351.311C336.546 352.241 335.401 352.706 334.714 352.706C332.652 352.706 331.735 351.544 331.735 349.452C331.735 348.522 331.964 347.36 332.423 345.965C331.506 347.127 330.59 348.522 329.215 349.684C327.841 351.079 326.695 351.544 325.779 351.544C325.091 351.544 324.404 351.079 323.946 350.149C323.029 349.219 322.571 348.057 322.571 346.43Z" fill="white"/>
<path d="M347.314 344.803C347.314 347.36 348.23 348.522 350.063 348.522C351.208 348.522 352.812 347.825 354.874 346.43C355.79 345.965 356.478 345.268 356.936 345.035C357.394 344.57 357.852 344.338 357.852 344.338C358.081 344.338 358.081 344.57 358.081 345.035C358.081 345.268 357.623 345.965 356.478 347.127C355.103 348.522 353.728 349.684 352.125 351.079C350.521 352.241 348.917 352.939 347.314 352.939C345.939 352.939 345.023 352.474 344.106 351.544C343.19 350.614 342.732 349.219 342.732 347.36C342.732 345.965 343.19 344.338 343.877 342.711C344.564 341.083 345.71 339.456 346.855 338.061C348.001 336.667 349.376 335.504 350.979 334.575C352.354 333.645 353.958 333.18 355.332 333.18C356.478 333.18 357.165 333.412 357.623 333.877C358.081 334.342 358.31 334.807 358.31 335.504C358.31 336.434 357.852 337.829 356.707 338.991C355.561 340.386 354.187 341.548 352.583 342.711C350.521 343.873 348.917 344.57 347.314 344.803ZM347.314 342.943C348.23 342.711 349.146 342.246 350.292 341.548C351.437 340.851 352.354 340.153 353.041 339.224C353.728 338.294 354.187 337.596 354.187 337.132C354.187 336.202 353.957 335.969 353.27 335.969C352.125 335.969 350.979 336.667 349.834 338.294C348.459 339.921 347.772 341.548 347.314 342.943Z" fill="white"/>
<path d="M364.725 341.548L368.162 334.807C367.474 335.272 366.558 335.969 365.412 336.899C364.725 337.364 363.809 337.829 362.892 338.526C361.747 339.224 361.06 339.456 360.83 339.689H360.601L360.372 339.456C360.372 339.224 360.83 338.991 361.518 338.294C362.434 337.596 363.121 337.132 363.809 336.434C364.496 335.737 365.642 334.807 367.245 333.18C367.703 332.715 368.162 332.25 368.62 331.553C369.078 331.088 369.536 330.623 369.536 330.39C370.224 329.461 370.682 329.228 370.682 328.996C370.682 328.763 371.14 328.996 371.598 328.996C372.744 328.996 373.431 329.461 373.431 330.158C373.431 330.39 373.431 330.855 373.202 331.088C372.973 331.32 372.744 331.785 372.285 332.482C371.827 333.18 371.369 333.877 370.682 335.272C369.994 336.667 369.307 338.061 368.391 339.921C369.078 339.689 369.994 339.689 370.911 339.689C371.598 339.689 372.285 339.689 372.744 339.921C375.264 335.504 377.096 333.18 378.242 333.18C378.929 333.18 379.158 334.11 379.158 335.737C379.158 336.434 379.158 336.667 378.929 336.899C378.929 337.132 378.471 337.364 378.013 337.829C377.096 338.526 376.18 339.689 375.264 341.083C374.347 342.478 373.889 343.408 373.66 344.338V345.035C373.889 345.732 374.347 346.197 375.035 346.197C376.18 346.197 377.326 345.732 378.471 344.57C378.7 344.338 379.158 344.105 379.617 343.873C380.075 343.64 380.304 343.408 380.304 343.408C380.533 343.408 380.533 343.64 380.533 343.873C380.533 344.338 379.846 345.035 378.7 346.43C377.555 347.592 376.18 348.754 374.576 349.917C372.973 351.079 372.056 351.544 371.14 351.544C370.224 351.544 369.765 351.311 369.307 350.846C368.849 350.382 368.62 349.917 368.62 349.452C368.62 347.825 369.536 345.268 371.369 341.781C369.078 341.781 367.474 342.246 366.1 343.175C365.642 343.873 365.412 344.57 365.183 344.803C364.954 345.035 364.725 345.5 364.496 346.197C363.121 348.754 361.976 350.846 361.06 352.009C360.143 353.403 359.227 353.868 358.539 353.868C357.852 353.868 357.623 353.403 357.623 352.241C357.623 351.079 357.852 349.684 358.539 348.289C359.227 346.895 359.914 345.5 361.06 344.338C362.663 343.175 363.58 342.246 364.725 341.548Z" fill="white"/>
<path d="M391.53 345.268C390.613 346.197 389.926 347.36 389.01 348.289C388.093 349.219 387.177 349.917 386.261 350.846C385.344 351.544 384.428 352.009 383.97 352.009C383.053 352.009 382.366 351.311 381.908 349.917C381.45 348.522 380.991 346.895 380.991 345.268C380.991 344.105 381.45 342.711 382.366 341.083C383.282 339.224 384.428 337.829 385.802 336.434C387.177 335.039 388.322 334.575 389.239 334.575C389.697 334.575 390.155 334.575 390.613 334.807C391.072 335.039 391.301 335.272 391.301 335.504C391.301 335.969 391.072 336.667 390.384 337.364C389.697 338.061 389.01 338.991 388.093 339.921C387.177 340.851 386.49 341.316 385.573 341.781C385.115 342.013 384.657 342.246 384.428 342.478C384.199 342.943 384.199 343.408 384.199 344.105C384.199 344.803 384.428 345.5 384.657 345.732C384.886 345.965 385.344 346.43 385.573 346.43C386.032 346.43 386.719 346.197 387.635 345.5C388.552 344.803 389.468 344.105 390.613 343.175L399.09 334.575C399.548 334.11 399.777 334.11 400.007 334.11C400.694 334.11 401.152 335.039 401.152 336.667V337.132C401.152 337.364 401.152 337.596 400.923 337.829L396.57 342.478C395.425 343.64 394.966 344.803 394.966 346.197C394.966 347.592 395.425 348.289 396.112 348.289C396.57 348.289 397.028 348.057 397.716 347.825C398.403 347.592 399.09 347.127 399.548 346.662C399.548 346.662 399.777 346.43 400.236 346.197C400.465 345.965 400.694 345.732 400.923 345.732C401.152 345.732 401.381 345.965 401.381 346.197C401.381 346.43 400.694 347.127 399.548 348.289C398.403 349.452 397.028 350.614 395.654 351.544C394.279 352.474 393.134 352.939 392.446 352.939C391.988 352.939 391.53 352.706 391.072 352.241C390.613 351.776 390.613 351.079 390.613 350.149C390.843 348.754 391.072 347.127 391.53 345.268Z" fill="white"/>
<path d="M414.898 341.781C416.043 341.548 416.96 341.083 417.647 340.618C418.334 340.153 418.793 339.921 419.251 339.456C419.709 338.991 419.938 338.991 420.167 338.991C420.167 338.991 420.396 339.224 420.396 339.689V340.618C420.396 341.548 420.396 342.013 420.167 342.246C419.938 342.478 419.709 342.711 419.022 343.175C416.96 344.338 416.043 345.732 416.043 347.127C416.043 347.825 416.502 348.057 417.189 348.057C417.647 348.057 418.564 347.592 420.167 346.662C420.855 346.197 421.313 345.965 421.542 345.965C421.771 345.965 422 345.965 422 346.197C422 346.43 422 346.43 422 346.662C422 347.127 421.542 347.592 420.396 348.522C419.251 349.219 418.105 350.149 416.731 350.846C415.356 351.544 414.669 352.009 414.211 352.009C413.065 352.009 412.149 351.544 411.92 350.382V348.987C412.149 347.36 412.836 345.965 414.211 344.338C413.523 344.803 412.836 345.268 412.149 345.5C409.629 349.452 407.338 352.241 405.505 353.868C403.672 355.496 402.068 356.193 400.465 356.193C400.007 356.193 399.548 356.193 399.09 355.961C398.632 355.728 398.403 355.728 398.403 355.496C398.403 355.031 398.632 354.101 399.319 352.939C400.007 352.009 400.694 351.079 401.381 350.382C401.839 350.846 402.298 351.079 402.985 351.079C403.901 351.079 404.589 350.614 405.505 349.684C406.421 348.754 407.567 347.592 408.941 345.965C407.567 346.662 406.192 346.895 405.047 346.895C404.359 346.895 403.901 346.895 403.672 346.662C403.443 346.43 403.214 346.197 402.985 345.5C402.756 344.803 402.756 343.873 402.756 342.478C402.756 340.851 404.359 338.759 407.338 335.969C408.941 334.575 410.545 333.412 412.378 332.482C413.982 331.553 415.356 331.088 416.273 331.088C417.189 331.088 417.876 331.553 418.105 332.25C418.334 333.18 418.564 334.342 418.564 335.737C418.564 336.434 418.334 337.364 417.876 338.061C416.96 339.456 416.043 340.386 414.898 341.781ZM411.691 342.478C413.982 339.921 415.127 338.061 415.127 337.132C415.127 336.667 414.669 336.434 413.982 336.434C412.836 336.434 411.691 336.667 410.316 337.364C408.941 338.061 407.796 338.759 406.88 339.689C405.963 340.618 405.505 341.316 405.505 341.781C405.505 342.478 406.192 342.943 407.338 342.943C409.4 342.943 410.774 342.711 411.691 342.478Z" fill="white"/>
<path d="M11.2258 412.447L10.0803 414.539C8.70575 417.329 7.56026 419.189 6.87296 420.351C6.18567 421.513 5.49837 422.443 4.58198 423.14C3.89468 424.07 2.97828 424.535 2.29099 424.535C1.60369 424.535 1.14549 424.07 0.916395 423.14C0.687296 422.211 0.458198 421.281 0.458198 420.351C0.458198 418.259 0.687296 416.632 1.37459 415.469C2.06189 414.307 2.74919 413.377 3.66558 412.912C4.58198 412.447 5.49837 411.982 6.87296 411.518C7.56026 411.285 8.24756 411.053 8.93485 410.588C10.0803 408.263 11.4549 406.171 12.8295 403.846C10.7676 405.706 9.39305 406.868 8.70575 407.333C8.01846 407.798 7.10206 408.496 6.41477 408.961C5.72747 409.425 4.81107 409.658 4.35288 409.658C3.89468 409.658 3.20738 409.193 2.52009 408.496C1.83279 407.798 1.37459 406.868 0.687296 405.706C0.229099 404.776 0 403.846 0 403.149C0 401.754 0.916395 400.127 2.97828 398.268C5.04017 396.408 7.33116 394.781 10.0803 393.618C12.8295 392.224 15.3496 391.759 17.4115 391.759C18.0988 391.759 18.7861 392.224 19.2443 392.921C19.7025 393.618 19.9316 395.013 19.9316 396.64C19.9316 397.105 19.7025 397.803 19.4734 398.5L12.6004 409.658L20.6189 405.939C20.848 405.939 21.0771 405.706 21.3062 405.706C21.7644 405.706 21.7644 405.939 21.7644 406.171C21.7644 406.404 21.5353 406.868 21.3062 406.868L11.2258 412.447ZM8.01846 413.145C6.18567 413.842 4.81107 414.772 3.89468 416.167C2.97828 417.561 2.29099 419.189 2.29099 421.048C2.74919 421.048 3.20738 420.816 3.43648 420.583C3.89468 420.351 4.12378 420.118 4.35288 419.654C4.58198 419.189 4.81107 418.956 5.04017 418.491C5.26927 418.026 5.72747 417.096 6.41477 415.702L8.01846 413.145ZM3.89468 405.474C4.12378 405.706 4.12378 405.706 4.58198 405.706C5.04017 405.706 6.41477 405.009 8.47666 403.614C10.5385 402.219 12.6004 400.825 14.2041 399.197C16.0369 397.57 16.9533 396.64 16.9533 395.711C16.9533 395.711 16.9533 395.478 16.7242 395.478C16.7242 395.478 16.4951 395.246 16.266 395.246C15.5787 395.246 14.2041 395.711 12.1422 396.64C10.0803 397.57 8.70575 398.268 7.56026 398.965C6.18567 399.895 5.04017 400.825 4.35288 401.522C3.66558 402.219 3.20738 403.382 3.20738 404.544C3.66558 405.241 3.66558 405.474 3.89468 405.474Z" fill="white"/>
<path d="M35.2813 399.895C34.3649 400.36 33.2194 401.057 32.0739 401.987C30.9284 402.917 29.0956 404.776 26.8046 407.101C25.8882 408.031 25.2009 408.728 24.9718 409.193C24.7427 409.658 24.0554 409.89 23.5972 409.89C23.139 409.89 22.6808 409.658 22.4517 408.961C21.9935 408.263 21.9935 407.798 21.9935 406.868C21.9935 406.171 22.2226 405.241 22.6808 404.079C23.139 402.917 23.5972 402.219 24.0554 401.289C24.5136 400.592 25.2009 400.127 25.6591 400.127C26.1173 400.127 26.1173 400.127 26.1173 400.36C26.1173 400.36 26.1173 400.592 25.8882 401.057C25.43 401.987 25.43 403.149 25.43 404.544C25.43 405.241 25.43 405.706 25.6591 405.706C25.8882 405.706 26.1173 405.474 26.3464 405.241C26.5755 405.009 27.2628 404.311 28.1792 403.382C29.0956 402.452 29.7829 401.522 30.4702 400.825C31.1575 400.127 31.8448 399.43 32.7612 398.5C33.6776 397.57 35.0522 396.408 36.6559 395.478C38.2595 394.316 39.1759 393.851 39.8632 393.851C40.0923 393.851 40.5505 394.083 40.7796 394.781C41.0087 395.478 41.2378 395.943 41.2378 396.408C41.2378 396.64 41.0087 396.873 40.7796 397.338C40.5505 397.57 40.0923 398.035 39.8632 398.5C39.405 398.965 39.1759 399.43 38.9468 399.43C38.0304 400.825 37.3432 401.754 36.885 402.452C36.4268 403.149 36.4268 403.614 36.4268 404.311C36.4268 405.009 36.885 405.474 37.8013 405.474C38.7177 405.474 40.0923 404.544 41.696 402.917C41.9251 402.452 42.3833 402.452 42.6124 402.452C42.8415 402.452 43.0706 402.684 43.0706 402.917C43.0706 403.149 43.0706 403.149 42.8415 403.382C42.6124 403.614 42.3833 403.846 42.1542 404.311C41.696 404.776 41.4669 405.241 41.0087 405.706C40.3214 406.636 39.1759 407.566 37.8013 408.728C36.4268 409.89 35.2813 410.588 34.3649 410.588C33.6776 410.588 32.9903 410.355 32.5321 409.658C32.0739 408.961 31.8448 408.031 31.8448 406.868C31.8448 406.404 31.8448 405.939 32.0739 405.706C32.303 405.474 32.303 405.009 32.5321 404.544C32.7612 404.079 32.9903 403.846 33.2194 403.614C33.4485 403.382 33.6776 402.917 33.9067 402.684C34.1358 401.522 34.8231 400.592 35.2813 399.895Z" fill="white"/>
<path d="M55.9001 399.895C57.0456 399.662 57.962 399.197 58.6493 398.732C59.3366 398.268 59.7948 398.035 60.253 397.57C60.7112 397.105 60.9403 397.105 61.1694 397.105C61.1694 397.105 61.3985 397.338 61.3985 397.803V398.732C61.3985 399.662 61.3985 400.127 61.1694 400.36C60.9403 400.592 60.7112 400.825 60.0239 401.289C57.962 402.452 57.0456 403.846 57.0456 405.241C57.0456 405.939 57.5038 406.171 58.1911 406.171C58.6493 406.171 59.5657 405.706 61.1694 404.776C61.8567 404.311 62.3149 404.079 62.544 404.079C62.7731 404.079 63.0022 404.079 63.0022 404.311C63.0022 404.544 63.0022 404.544 63.0022 404.776C63.0022 405.241 62.544 405.706 61.3985 406.636C60.253 407.333 59.1075 408.263 57.7329 408.961C56.3583 409.658 55.671 410.123 55.2128 410.123C54.0674 410.123 53.151 409.658 52.9219 408.496V407.101C53.151 405.474 53.8383 404.079 55.2128 402.452C54.5256 402.917 53.8383 403.382 53.151 403.614C50.6309 407.566 48.3399 410.355 46.5071 411.982C44.6743 413.61 43.0706 414.307 41.4669 414.307C41.0087 414.307 40.5505 414.307 40.0923 414.075C39.6341 413.842 39.405 413.842 39.405 413.61C39.405 413.145 39.6341 412.215 40.3214 411.053C41.0087 410.123 41.696 409.193 42.3833 408.496C42.8415 408.961 43.2997 409.193 43.987 409.193C44.9034 409.193 45.5907 408.728 46.5071 407.798C47.4235 406.868 48.569 405.706 49.9436 404.079C48.569 404.776 47.1944 405.009 46.0489 405.009C45.3616 405.009 44.9034 405.009 44.6743 404.776C44.4452 404.544 44.2161 404.311 43.987 403.614C43.7579 402.917 43.7579 401.987 43.7579 400.592C43.7579 398.965 45.3616 396.873 48.3399 394.083C49.9436 392.689 51.5473 391.526 53.3801 390.596C54.9837 389.667 56.3583 389.202 57.2747 389.202C58.1911 389.202 58.8784 389.667 59.1075 390.364C59.3366 391.294 59.5657 392.456 59.5657 393.851C59.5657 394.548 59.3366 395.478 58.8784 396.175C58.1911 397.803 57.2747 398.732 55.9001 399.895ZM52.9219 400.592C55.2128 398.035 56.3583 396.175 56.3583 395.246C56.3583 394.781 55.9001 394.548 55.2128 394.548C54.0674 394.548 52.9219 394.781 51.5473 395.478C50.1727 396.175 49.0272 396.873 48.1108 397.803C47.1944 398.732 46.7362 399.43 46.7362 399.895C46.7362 400.592 47.4235 401.057 48.569 401.057C50.4018 401.289 52.0055 401.057 52.9219 400.592Z" fill="white"/>
<path d="M94.8471 382.461V383.855L87.0577 386.18C86.5995 386.412 86.1413 386.412 85.9122 386.412C85.4541 386.412 84.9958 386.18 84.9958 385.482C84.9958 384.785 85.454 383.855 86.1413 382.693C86.8286 381.531 87.745 380.601 88.8905 379.671C90.036 378.741 90.9524 378.044 92.0979 377.579C93.2434 377.114 94.618 376.649 95.9926 376.184C97.3672 375.719 98.9709 375.487 100.575 375.254C102.178 375.022 103.782 374.789 105.157 374.789C106.531 374.789 108.135 374.557 109.509 374.557C112.717 374.557 115.237 375.254 116.611 376.649C117.986 378.044 118.902 379.671 118.902 381.298C118.902 383.39 117.986 385.018 115.924 386.412C114.091 387.807 111.8 388.737 109.509 389.434C107.218 390.132 104.927 390.596 102.636 391.061C101.949 391.294 101.033 391.294 99.8873 391.526C98.7418 391.759 97.8254 391.991 97.1381 391.991V392.224C98.5127 392.456 100.804 393.154 103.553 394.083C105.386 394.781 106.989 395.246 107.906 395.711C109.051 396.175 109.968 396.64 110.655 397.57C111.342 398.5 111.8 399.197 111.8 400.36C111.8 401.289 111.342 402.452 110.197 403.614C109.051 404.776 107.677 405.706 105.844 406.636C104.011 407.566 102.178 408.496 100.116 408.961C98.0545 409.658 96.2217 409.89 94.618 409.89C92.5561 409.89 90.9524 409.658 89.5778 408.961C88.2032 408.263 87.2868 407.566 86.5995 406.636C85.9122 405.706 85.6832 404.776 85.6832 403.846C85.6832 402.684 86.3704 401.057 87.745 399.197C89.1196 397.338 90.4942 395.478 92.0979 393.618C90.7233 393.386 89.5778 393.154 88.8905 392.921C88.2032 392.689 87.745 392.224 87.745 391.759C87.745 391.061 87.9741 390.829 88.6614 390.596C89.3487 390.364 89.8069 390.364 90.4942 390.364C91.1815 390.364 92.7852 390.132 95.5344 389.899C97.5963 387.807 99.2 386.412 100.345 385.482C101.491 384.553 102.407 384.088 102.866 383.855C103.324 383.623 104.011 383.623 104.698 383.39C104.927 383.39 105.157 383.39 105.386 383.39C105.615 383.39 105.844 383.39 105.844 383.39C105.615 383.623 105.157 384.088 104.927 384.32C104.698 384.553 104.469 384.785 104.011 385.018C103.782 385.25 103.553 385.482 103.324 385.715C102.178 386.645 100.804 388.272 99.2 390.132C103.095 389.667 106.073 388.969 108.364 388.272C110.655 387.575 112.259 386.645 113.404 385.947C114.32 385.018 114.779 384.32 114.779 383.39C114.779 381.066 113.175 379.904 109.968 379.904C108.822 379.904 107.218 380.136 105.157 380.368C103.095 380.601 101.033 381.066 98.9709 381.531C97.1381 381.298 95.7635 381.996 94.8471 382.461ZM95.5344 394.316C94.618 395.246 93.9307 396.64 93.0143 398.035C92.327 399.43 91.8688 400.592 91.8688 401.754C91.8688 402.452 92.327 403.149 93.2434 403.846C94.1598 404.544 95.0762 404.776 96.4508 404.776C97.8254 404.776 99.4291 404.544 101.262 404.079C102.866 403.614 104.469 402.917 105.615 402.219C106.76 401.522 107.448 400.825 107.448 400.127C107.448 398.965 106.302 397.803 104.011 397.105C101.72 395.711 98.7418 395.013 95.5344 394.316Z" fill="white"/>
<path d="M132.648 394.083C132.877 394.316 132.877 394.548 133.106 395.013C133.335 395.246 133.335 395.711 133.564 395.943C133.794 396.175 133.794 396.408 133.794 396.64C133.794 396.873 133.106 398.035 131.961 399.895C131.273 401.057 130.586 401.987 130.357 402.452C130.128 402.917 129.899 403.614 129.899 404.079C129.899 404.776 130.128 405.241 130.357 405.474C130.586 405.706 131.044 405.939 131.503 405.939C131.961 405.939 132.19 405.939 132.648 405.706C133.106 405.474 133.335 405.241 133.794 405.009C134.252 404.776 134.71 404.544 135.168 404.079C135.397 403.846 135.855 403.614 136.085 403.382C136.314 403.149 136.543 402.917 136.543 402.917H136.772C137.001 402.917 137.001 402.917 137.001 403.149C137.001 403.382 136.085 404.544 134.023 406.404C132.877 407.566 131.732 408.496 130.815 409.193C129.899 409.89 128.983 410.355 128.066 410.355C127.379 410.355 126.921 410.123 126.233 409.658C125.546 409.193 125.546 408.496 125.546 407.798C125.546 406.404 126.004 405.009 126.692 403.382C126.921 402.917 127.15 402.452 127.608 401.522C122.568 406.636 119.36 409.425 117.986 409.425C117.069 409.425 116.382 408.728 115.924 407.333C115.466 405.939 115.237 404.776 115.237 403.382C115.237 401.522 115.924 399.895 117.298 398.268C118.673 396.64 120.277 395.478 121.651 394.316C123.026 393.386 124.859 392.456 126.692 391.294C128.753 390.364 130.357 389.899 131.503 389.899C132.19 389.899 132.648 390.132 133.106 390.364C133.564 390.829 133.794 391.061 133.794 391.526C133.794 391.759 133.564 392.224 132.877 392.689C132.877 393.851 132.877 393.851 132.648 394.083ZM117.757 404.311C117.757 405.009 117.986 405.474 118.444 405.706H119.131C120.506 405.241 122.339 404.311 124.401 402.452C125.317 401.754 126.462 400.592 127.608 399.43C128.753 398.268 129.441 397.338 129.441 396.64C129.441 396.175 129.212 395.943 128.524 395.943C127.15 395.943 125.546 396.408 123.942 397.338C122.339 398.268 120.964 399.197 119.819 400.592C118.444 401.987 117.757 403.149 117.757 404.311Z" fill="white"/>
<path d="M146.394 404.776C143.874 408.031 141.812 409.89 140.438 409.89C139.979 409.89 139.521 409.658 139.063 408.961C138.605 408.496 138.147 407.566 137.917 406.868C137.688 405.939 137.459 405.009 137.459 404.079C137.459 402.452 137.917 400.825 138.834 399.197C139.75 397.57 140.896 395.943 142.041 394.781C143.187 393.618 144.332 392.689 145.019 392.689H146.165C147.081 392.689 147.54 393.154 147.54 393.618C147.54 394.316 147.081 395.013 146.394 396.175C145.707 397.338 144.561 398.035 143.645 398.965C142.499 399.662 141.583 400.127 141.125 400.36C140.896 401.289 140.667 402.219 140.667 402.917C140.667 403.149 140.667 403.614 140.896 403.846C141.125 404.079 141.354 404.311 141.583 404.311C142.041 404.311 142.958 403.614 144.561 402.452C146.165 401.057 147.54 399.662 149.143 398.268C150.747 396.64 151.663 395.711 152.122 395.246C152.58 394.548 153.038 394.316 153.267 394.083C153.496 393.851 153.725 393.618 154.183 393.154C154.183 393.154 154.413 392.921 154.642 392.689C154.871 392.456 155.1 392.224 155.329 391.991C155.558 391.759 155.787 391.759 156.016 391.759C156.245 391.759 156.704 391.991 156.933 392.456C157.162 392.921 157.391 393.154 157.391 393.618C157.391 394.316 157.162 394.781 156.933 395.246C156.704 395.711 156.245 396.175 155.558 396.873C151.892 400.127 150.289 402.452 150.289 403.846C150.289 404.079 150.289 404.311 150.518 404.544C150.747 404.776 150.747 405.009 150.976 405.009C151.663 405.009 153.496 403.846 156.474 401.289C158.995 399.197 161.515 396.408 163.806 393.386C164.264 392.921 164.493 392.921 164.722 392.921C165.18 392.921 165.638 393.154 165.867 393.618C166.097 394.083 166.326 394.548 166.326 395.013C166.326 395.478 165.867 395.943 165.18 396.64C164.722 397.105 164.264 397.57 163.576 398.268C162.889 398.965 162.431 399.662 161.744 400.36C161.056 401.057 160.598 401.754 160.369 402.452C159.911 403.149 159.682 403.846 159.682 404.311C159.682 405.241 159.911 405.706 160.369 405.939C160.827 406.171 161.285 406.404 161.744 406.404C162.431 406.404 163.806 405.706 165.409 404.311C166.097 403.846 166.326 403.614 166.326 403.614C166.784 403.614 167.013 403.614 167.013 403.846C167.013 404.311 166.555 405.241 165.409 406.404C164.264 407.566 163.118 408.728 161.744 409.658C160.369 410.588 159.224 411.053 158.536 411.053C156.474 411.053 155.558 409.89 155.558 407.798C155.558 406.868 155.787 405.706 156.245 404.311C155.329 405.474 154.413 406.868 153.038 408.031C151.663 409.425 150.518 409.89 149.601 409.89C148.914 409.89 148.227 409.425 147.769 408.496C146.623 407.566 146.394 406.404 146.394 404.776Z" fill="white"/>
<path d="M177.093 403.614C176.177 404.544 175.49 405.706 174.573 406.636C173.657 407.566 172.74 408.263 171.824 409.193C170.908 409.89 169.991 410.355 169.533 410.355C168.617 410.355 167.929 409.658 167.471 408.263C167.013 406.868 166.555 405.241 166.555 403.614C166.555 402.452 167.013 401.057 167.929 399.43C168.846 397.57 169.991 396.175 171.366 394.781C172.74 393.386 173.886 392.921 174.802 392.921C175.261 392.921 175.719 392.921 176.177 393.154C176.635 393.386 176.864 393.618 176.864 393.851C176.864 394.316 176.635 395.013 175.948 395.711C175.261 396.408 174.573 397.338 173.657 398.268C172.74 399.197 172.053 399.662 171.137 400.127C170.679 400.36 170.22 400.592 169.991 400.825C169.762 401.289 169.762 401.754 169.762 402.452C169.762 403.149 169.991 403.846 170.22 404.079C170.45 404.311 170.908 404.776 171.137 404.776C171.595 404.776 172.282 404.544 173.199 403.847C174.115 403.149 175.031 402.452 176.177 401.522L184.654 392.921C185.112 392.456 185.341 392.456 185.57 392.456C186.257 392.456 186.716 393.386 186.716 395.013V395.478C186.716 395.711 186.716 395.943 186.486 396.175L182.134 400.825C180.988 401.987 180.53 403.149 180.53 404.544C180.53 405.939 180.988 406.636 181.675 406.636C182.134 406.636 182.592 406.404 183.279 406.171C183.966 405.939 184.654 405.474 185.112 405.009C185.112 405.009 185.341 404.776 185.799 404.544C186.028 404.311 186.257 404.079 186.486 404.079C186.716 404.079 186.945 404.311 186.945 404.544C186.945 404.776 186.257 405.474 185.112 406.636C183.966 407.798 182.592 408.961 181.217 409.89C179.843 410.82 178.697 411.285 178.01 411.285C177.552 411.285 177.093 411.053 176.635 410.588C176.635 409.658 176.406 409.193 176.406 408.263C176.406 406.868 176.635 405.474 177.093 403.614Z" fill="white"/>
<path d="M199.545 396.873L204.585 393.154C205.272 392.689 205.731 392.456 205.96 392.456C206.189 392.456 206.418 392.689 206.418 392.921C206.418 393.386 205.96 394.083 205.272 394.781L199.316 399.895L199.087 405.009C199.087 406.171 199.316 406.636 200.003 406.636C200.461 406.636 201.378 406.171 202.523 405.241C202.981 404.776 203.44 404.544 203.898 404.544C204.127 404.544 204.356 404.776 204.356 405.009C204.356 405.241 204.356 405.241 204.127 405.474C203.898 405.706 203.669 405.939 203.44 406.171C202.981 406.404 202.752 406.868 202.294 407.333C198.858 410.355 196.796 411.982 195.879 411.982C195.65 411.982 195.421 411.75 195.192 411.518C194.963 411.285 194.734 410.82 194.734 410.355C194.734 409.89 194.734 409.193 194.963 408.031C195.192 406.868 195.192 405.706 195.421 404.079C194.734 405.241 194.047 405.939 193.359 406.404C192.672 406.868 191.985 407.566 191.068 408.031C190.152 408.496 189.694 408.728 189.694 408.961C189.465 409.193 189.236 409.193 188.777 409.425C188.319 409.658 188.09 409.89 187.861 409.89C187.632 409.89 187.632 409.658 187.632 409.193C187.632 408.961 187.632 408.728 187.861 408.263C188.09 407.566 188.319 406.868 189.006 406.171C189.694 405.474 189.694 405.009 190.152 405.009L191.985 404.776L195.192 401.522C195.192 401.057 195.421 400.36 195.421 399.197C195.421 397.105 194.963 395.943 194.047 395.943C193.588 395.943 193.13 396.175 192.443 396.873L189.465 398.965C189.236 399.197 189.006 399.197 188.777 399.197C188.777 399.197 188.548 399.197 188.319 398.965V398.5C188.319 398.268 188.548 398.268 188.548 398.035C188.777 397.803 188.777 397.57 189.236 397.338C189.465 397.105 189.923 396.64 190.381 396.175C193.588 392.921 195.65 391.526 196.796 391.526C197.483 391.526 197.941 391.759 198.629 392.456C199.087 393.154 199.316 394.083 199.316 395.711C199.545 396.175 199.545 396.64 199.545 396.873Z" fill="white"/>
<path d="M225.662 405.939L226.579 402.684C228.641 401.987 230.703 400.825 232.765 399.43C235.056 398.035 235.972 396.873 235.972 395.943C235.972 395.478 235.743 395.246 235.056 395.246C234.368 395.246 233.681 395.478 232.765 395.711C231.161 396.175 230.015 396.64 228.87 397.105C227.724 397.57 227.037 398.035 226.579 398.268C226.121 398.5 225.662 398.965 225.204 399.43C224.746 399.895 224.288 400.127 224.059 400.127C223.83 400.127 223.601 399.43 223.601 397.803C223.601 397.105 223.83 396.408 224.517 395.711C224.975 395.013 226.121 394.548 227.724 393.851C230.932 392.456 233.452 391.759 235.285 391.759C236.43 391.759 237.347 392.224 237.805 393.386C238.263 394.548 238.492 395.478 238.492 396.64C238.492 397.57 237.576 398.965 235.972 400.36C234.368 401.987 232.306 403.149 230.244 404.544C231.619 405.474 232.077 407.101 232.077 408.961C234.826 407.566 236.659 406.403 237.576 405.706C238.263 405.241 238.721 405.009 238.95 405.009C239.179 405.009 239.408 405.241 239.408 405.706C239.408 405.939 238.95 406.404 238.034 407.101C237.117 407.798 235.056 408.961 232.077 411.053C231.619 412.912 230.703 415.004 229.099 417.096C227.495 419.189 226.121 421.281 224.517 422.908C222.913 424.535 221.31 425.232 220.393 425.232C219.935 425.232 219.706 425 219.477 424.535C219.248 424.07 219.248 423.605 219.248 422.908C219.248 421.281 219.706 419.886 220.851 418.259C221.768 416.864 223.83 415.004 226.808 412.912C227.495 412.447 228.183 411.75 229.328 411.053C229.328 410.588 229.328 410.355 229.328 410.123C229.328 409.193 229.099 408.263 228.412 407.333C227.495 406.404 226.808 405.939 225.662 405.939ZM228.183 413.145C226.35 414.539 225.204 415.702 224.288 416.167C223.371 416.632 222.913 417.561 222.226 418.491C221.539 419.421 221.31 420.351 221.31 421.048C221.31 421.513 221.31 421.746 221.539 421.746C221.997 421.746 222.684 421.281 223.601 420.351C224.517 419.421 225.433 418.259 226.35 416.864C227.266 415.469 227.953 414.307 228.183 413.145Z" fill="white"/>
<path d="M257.278 394.083C257.507 394.316 257.507 394.548 257.736 395.013C257.966 395.246 257.965 395.711 258.195 395.943C258.424 396.175 258.424 396.408 258.424 396.64C258.424 396.873 257.736 398.035 256.591 399.895C255.904 401.057 255.216 401.987 254.987 402.452C254.758 402.917 254.529 403.614 254.529 404.079C254.529 404.776 254.758 405.241 254.987 405.474C255.216 405.706 255.675 405.939 256.133 405.939C256.591 405.939 256.82 405.939 257.278 405.706C257.736 405.474 257.966 405.241 258.424 405.009C258.882 404.776 259.34 404.544 259.798 404.079C260.027 403.846 260.486 403.614 260.715 403.382C260.944 403.149 261.173 402.917 261.173 402.917H261.402C261.631 402.917 261.631 402.917 261.631 403.149C261.631 403.382 260.715 404.544 258.653 406.404C257.507 407.566 256.362 408.496 255.445 409.193C254.529 409.89 253.613 410.355 252.696 410.355C252.009 410.355 251.551 410.123 250.863 409.658C250.176 409.193 250.176 408.496 250.176 407.798C250.176 406.404 250.634 405.009 251.322 403.382C251.551 402.917 251.78 402.452 252.238 401.522C247.198 406.636 243.99 409.425 242.616 409.425C241.699 409.425 241.012 408.728 240.554 407.333C240.096 405.939 239.867 404.776 239.867 403.382C239.867 401.522 240.554 399.895 241.929 398.268C243.303 396.64 244.907 395.478 246.281 394.316C247.656 393.386 249.489 392.456 251.322 391.294C253.384 390.364 254.987 389.899 256.133 389.899C256.82 389.899 257.278 390.132 257.736 390.364C258.195 390.829 258.424 391.061 258.424 391.526C258.424 391.759 258.195 392.224 257.507 392.689C257.507 393.851 257.507 393.851 257.278 394.083ZM242.387 404.311C242.387 405.009 242.616 405.474 243.074 405.706H243.761C245.136 405.241 246.969 404.311 249.031 402.452C249.947 401.754 251.093 400.592 252.238 399.43C253.384 398.268 254.071 397.338 254.071 396.64C254.071 396.175 253.842 395.943 253.154 395.943C251.78 395.943 250.176 396.408 248.572 397.338C246.969 398.268 245.594 399.197 244.449 400.592C243.074 401.987 242.387 403.149 242.387 404.311Z" fill="white"/>
<path d="M273.086 412.447L271.94 414.539C270.566 417.329 269.42 419.189 268.733 420.351C268.046 421.513 267.358 422.443 266.671 423.373C265.984 424.303 265.067 424.768 264.38 424.768C263.693 424.768 263.235 424.303 263.006 423.373C262.776 422.443 262.547 421.513 262.547 420.583C262.547 418.491 262.776 416.864 263.464 415.702C264.151 414.539 264.838 413.61 265.755 413.145C266.671 412.68 267.587 412.215 268.962 411.75C269.649 411.518 270.337 411.285 271.024 410.82C272.169 408.496 273.544 406.404 274.919 404.079C272.857 405.939 271.482 407.101 270.795 407.566C270.108 408.031 269.191 408.728 268.504 409.193C267.817 409.658 266.9 409.89 266.442 409.89C265.984 409.89 265.296 409.425 264.609 408.728C263.922 408.031 263.464 407.101 262.776 405.939C262.318 405.009 262.089 404.079 262.089 403.149C262.089 401.754 263.005 400.127 265.067 398.268C267.129 396.408 269.42 394.781 272.169 393.618C274.919 392.224 277.439 391.759 279.501 391.759C280.188 391.759 280.875 392.224 281.333 392.921C281.792 393.618 282.021 395.013 282.021 396.64C282.021 397.105 281.792 397.803 281.562 398.5L274.46 409.89L282.708 405.939C282.937 405.939 283.166 405.706 283.395 405.706C283.853 405.706 283.853 405.939 283.853 406.171C283.853 406.404 283.624 406.868 283.395 406.868L273.086 412.447ZM269.878 413.145C268.046 413.842 266.671 414.772 265.755 416.167C264.838 417.561 264.38 419.189 264.38 421.048C264.838 421.048 265.296 420.816 265.526 420.583C265.984 420.351 266.213 420.118 266.442 419.654C266.671 419.189 266.9 418.956 267.129 418.491C267.358 418.026 267.817 417.096 268.504 415.702L269.878 413.145ZM265.755 405.474C265.984 405.706 265.984 405.706 266.442 405.706C266.9 405.706 268.275 405.009 270.337 403.614C272.399 402.219 274.46 400.825 276.064 399.197C277.897 397.57 278.813 396.64 278.813 395.711C278.813 395.711 278.813 395.478 278.584 395.478C278.584 395.478 278.355 395.246 278.126 395.246C277.439 395.246 276.064 395.711 274.002 396.64C271.94 397.57 270.566 398.268 269.42 398.965C268.046 399.895 266.9 400.825 266.213 401.522C265.526 402.219 265.067 403.382 265.067 404.544C265.526 405.241 265.526 405.474 265.755 405.474Z" fill="white"/>
<path d="M301.265 394.083C301.494 394.316 301.494 394.548 301.723 395.013C301.952 395.246 301.952 395.711 302.181 395.943C302.41 396.175 302.41 396.408 302.41 396.64C302.41 396.873 301.723 398.035 300.577 399.895C299.89 401.057 299.203 401.987 298.974 402.452C298.745 402.917 298.516 403.614 298.516 404.079C298.516 404.776 298.745 405.241 298.974 405.474C299.203 405.706 299.661 405.939 300.119 405.939C300.577 405.939 300.807 405.939 301.265 405.706C301.723 405.474 301.952 405.241 302.41 405.009C302.868 404.776 303.327 404.544 303.785 404.079C304.014 403.846 304.472 403.614 304.701 403.382C304.93 403.149 305.159 402.917 305.159 402.917H305.389C305.618 402.917 305.618 402.917 305.618 403.149C305.618 403.382 304.701 404.544 302.639 406.404C301.494 407.566 300.348 408.496 299.432 409.193C298.516 409.89 297.599 410.355 296.683 410.355C295.996 410.355 295.537 410.123 294.85 409.658C294.163 409.193 294.163 408.496 294.163 407.798C294.163 406.404 294.621 405.009 295.308 403.382C295.537 402.917 295.766 402.452 296.225 401.522C291.184 406.636 287.977 409.425 286.602 409.425C285.686 409.425 284.999 408.728 284.541 407.333C284.082 405.939 283.853 404.776 283.853 403.382C283.853 401.522 284.541 399.895 285.915 398.268C287.29 396.64 288.893 395.478 290.268 394.316C291.643 393.386 293.475 392.456 295.308 391.294C297.37 390.364 298.974 389.899 300.119 389.899C300.807 389.899 301.265 390.132 301.723 390.364C302.181 390.829 302.41 391.061 302.41 391.526C302.41 391.759 302.181 392.224 301.494 392.689C301.723 393.851 301.494 393.851 301.265 394.083ZM286.373 404.311C286.373 405.009 286.602 405.474 287.061 405.706H287.748C289.123 405.241 290.955 404.311 293.017 402.452C293.934 401.754 295.079 400.592 296.225 399.43C297.37 398.268 298.057 397.338 298.057 396.64C298.057 396.175 297.828 395.943 297.141 395.943C295.766 395.943 294.163 396.408 292.559 397.338C290.955 398.268 289.581 399.197 288.435 400.592C287.061 401.987 286.373 403.149 286.373 404.311Z" fill="white"/>
<path d="M306.534 401.522C306.534 401.289 306.763 400.592 307.222 399.895C307.909 398.5 308.367 397.57 308.367 397.105C308.367 397.105 308.367 396.873 308.138 396.64C307.909 396.408 307.909 396.175 307.909 395.943C307.909 395.246 308.138 394.548 308.825 393.618C309.513 392.689 310.2 391.991 311.116 391.294C312.033 390.596 312.72 390.364 313.178 390.364C313.407 390.364 313.636 390.596 313.636 390.829C313.636 391.061 313.636 391.061 313.636 391.294C313.636 391.526 313.636 391.526 313.636 391.759C313.636 392.456 314.095 392.689 314.782 392.689C315.24 392.689 315.698 392.689 316.844 392.456C319.135 391.991 320.28 391.991 320.28 391.991C320.738 391.991 320.968 392.224 321.197 392.456C321.655 392.921 321.655 393.618 321.655 394.083C321.655 394.781 321.197 395.711 320.28 396.64C319.135 397.57 318.218 398.965 317.302 400.36C316.386 401.987 315.698 403.149 315.698 404.079C315.698 404.776 315.927 405.241 316.156 405.474C316.386 405.706 316.844 405.939 317.531 405.939C318.447 405.939 319.822 405.241 321.655 403.614C321.884 403.382 322.342 403.149 322.571 403.149C322.8 403.149 323.029 403.382 323.029 403.614C323.029 404.079 321.655 405.474 318.906 407.798C316.844 409.425 315.011 410.123 313.178 410.123C312.491 410.123 311.804 409.89 311.345 409.193C310.887 408.496 310.658 407.798 310.658 406.868C310.658 405.939 310.887 405.009 311.574 404.079C312.262 403.149 312.949 401.987 314.095 400.592C314.553 399.895 315.011 399.43 315.469 398.965C315.927 398.5 316.156 398.035 316.386 397.803C316.615 397.57 316.844 397.105 316.844 396.873C316.844 396.408 316.156 396.175 315.011 396.175C313.636 396.175 312.72 396.175 312.262 396.408C311.804 396.64 311.345 396.64 311.116 396.873C310.887 397.105 310.658 397.57 310.429 398.268C309.971 399.43 309.513 400.127 308.825 400.825C308.138 401.522 306.992 401.754 306.534 401.522C306.534 401.754 306.534 401.522 306.534 401.522Z" fill="white"/>
<path d="M327.611 411.053C327.153 411.053 326.466 410.82 326.007 410.355C325.32 409.89 325.091 409.425 325.091 408.961C325.091 408.728 325.32 408.031 325.549 407.333C325.778 406.636 326.007 406.171 326.466 405.474C326.924 405.009 327.153 404.776 327.382 404.776C327.84 404.776 328.528 405.009 328.986 405.474C329.673 405.939 329.902 406.404 329.902 406.868C329.902 407.101 329.673 407.566 329.444 408.263C329.215 408.961 328.757 409.425 328.528 410.123C328.069 410.82 327.84 411.053 327.611 411.053ZM338.379 380.368C339.295 379.439 339.983 378.974 340.899 378.974C341.357 378.974 342.044 379.206 342.732 379.671C343.419 380.136 343.648 380.368 343.648 380.833C343.648 381.066 343.419 381.531 343.19 381.996C342.961 382.461 342.274 383.39 341.128 384.553C340.212 385.947 339.295 387.11 338.379 388.272C337.462 389.434 336.317 391.061 335.171 392.921C334.255 394.316 333.568 395.711 332.88 396.64C332.193 397.57 331.735 398.965 331.277 399.895C330.819 400.825 330.589 401.522 330.36 401.754C330.131 401.987 329.902 402.219 329.673 402.219C328.986 402.219 328.528 401.987 328.069 401.289C327.611 400.592 327.382 399.895 327.382 399.197C327.382 398.268 327.84 397.105 328.528 395.478C329.215 393.851 330.36 391.991 331.506 390.132C332.651 388.272 334.026 386.412 335.171 384.553C336.546 382.925 337.692 381.531 338.379 380.368Z" fill="white"/>
</g>
<path d="M144.471 34.1433V1.21942H151.394V28.083H168.449V34.1433H144.471Z" fill="white"/>
<path d="M176.671 5.55103C180.003 2.35575 184.482 0.566071 189.147 0.566071C193.812 0.566071 198.291 2.35575 201.623 5.55103C203.249 7.14024 204.53 9.03507 205.388 11.1215C206.247 13.2079 206.665 15.4426 206.617 17.6913C206.653 19.9385 206.23 22.17 205.372 24.2548C204.515 26.3396 203.24 28.2356 201.623 29.8316C198.286 33.0175 193.809 34.8007 189.147 34.8007C184.485 34.8007 180.008 33.0175 176.671 29.8316C175.052 28.237 173.777 26.3412 172.919 24.2561C172.061 22.1709 171.639 19.9388 171.677 17.6913C171.622 15.4452 172.032 13.2114 172.884 11.1248C173.735 9.03828 175.01 7.1422 176.631 5.55103H176.671ZM189.157 28.3811C190.543 28.414 191.921 28.1582 193.199 27.6307C194.476 27.1032 195.625 26.316 196.568 25.3212C198.566 23.2394 199.639 20.467 199.552 17.6118C199.598 16.1948 199.358 14.7828 198.846 13.4565C198.334 12.1303 197.56 10.9158 196.568 9.88259C195.599 8.91957 194.443 8.15481 193.169 7.6328C191.896 7.11079 190.528 6.84196 189.147 6.84196C187.766 6.84196 186.399 7.11079 185.125 7.6328C183.851 8.15481 182.696 8.91957 181.727 9.88259C180.727 10.9254 179.952 12.1538 179.446 13.495C178.94 14.8363 178.715 16.2632 178.783 17.6913C178.741 19.11 178.989 20.5226 179.512 21.8463C180.035 23.1701 180.822 24.3785 181.828 25.4007C182.772 26.367 183.911 27.1309 185.173 27.6439C186.435 28.157 187.791 28.408 189.157 28.3811Z" fill="white"/>
<path d="M218.535 30.0104C216.842 28.425 215.508 26.5092 214.62 24.387C213.731 22.2648 213.308 19.9837 213.378 17.6913C213.299 15.3949 213.718 13.108 214.606 10.9813C215.495 8.85457 216.834 6.93616 218.535 5.35233C220.275 3.75358 222.32 2.50741 224.553 1.68557C226.787 0.863736 229.164 0.482482 231.549 0.563768C235.101 0.472658 238.61 1.33138 241.7 3.04746V9.7435C238.837 7.93127 235.507 6.95276 232.097 6.92202C230.57 6.85538 229.043 7.08627 227.608 7.6013C226.172 8.11634 224.855 8.90526 223.733 9.92232C222.643 10.9424 221.79 12.1803 221.233 13.5518C220.676 14.9233 220.428 16.3962 220.505 17.8701C220.439 19.3133 220.683 20.7539 221.222 22.0989C221.76 23.444 222.581 24.6635 223.631 25.6789C225.712 27.617 228.494 28.6675 231.366 28.5997C233.813 28.7362 236.219 27.9465 238.087 26.3942V15.0487H245.01V29.5932C243.377 31.2161 241.412 32.4824 239.244 33.3088C236.722 34.3055 234.025 34.8117 231.306 34.799C228.959 34.8683 226.622 34.4807 224.429 33.6586C222.237 32.8366 220.234 31.5965 218.535 30.0104" fill="white"/>
<path d="M260.196 1.21942H253.313V34.1433H260.196V1.21942Z" fill="white"/>
<path d="M267.87 31.2821V24.2284C269.54 25.5618 271.427 26.6097 273.453 27.3281C275.665 28.1544 278.01 28.5852 280.376 28.5997C284.031 28.5997 286.853 27.2883 286.853 24.7848C286.876 24.2143 286.723 23.6503 286.416 23.1652C286.108 22.6801 285.66 22.2961 285.127 22.0626C284.524 21.6983 283.876 21.4111 283.199 21.2082L282.062 20.8307L279.28 20.0359L276.783 19.2412C276.296 19.1021 275.524 18.8239 274.529 18.4464C273.773 18.1882 273.045 17.8553 272.357 17.4529C271.114 16.7104 270.037 15.7306 269.19 14.5718C268.437 13.1466 268.04 11.5667 268.033 9.96208C267.985 8.6336 268.271 7.31395 268.866 6.11881C269.46 4.92368 270.345 3.88955 271.443 3.10709C274.188 1.26567 277.481 0.370861 280.803 0.563788C284.648 0.541033 288.435 1.47791 291.807 3.28591V9.8826C288.547 7.85578 284.767 6.77419 280.904 6.76308C277.108 6.76308 275.179 7.85591 275.179 10.0217C275.179 11.0946 275.849 11.7503 276.966 12.2669C277.842 12.6894 278.76 13.0223 279.707 13.2604C280.62 13.4989 282.346 13.9757 283.341 14.2936C285.962 15.0173 288.435 16.1803 290.65 17.7311C291.764 18.5008 292.658 19.5365 293.248 20.7398C293.838 21.943 294.103 23.2739 294.02 24.6059C294.07 26.0617 293.749 27.5067 293.086 28.8108C292.423 30.115 291.439 31.2374 290.223 32.0769C287.422 33.9762 284.066 34.9317 280.661 34.799C276.129 34.9455 271.661 33.7171 267.87 31.2821" fill="white"/>
<path d="M298.202 1.21942H326.402V7.27963H315.744V34.1433H308.82V7.27963H298.202V1.21942Z" fill="white"/>
<path d="M334.625 5.55103C337.957 2.35575 342.436 0.566071 347.101 0.566071C351.766 0.566071 356.245 2.35575 359.577 5.55103C361.199 7.1419 362.476 9.03748 363.331 11.1238C364.186 13.2101 364.601 15.4441 364.551 17.6913C364.587 19.9385 364.163 22.17 363.306 24.2548C362.448 26.3396 361.173 28.2356 359.556 29.8316C356.219 33.0175 351.742 34.8007 347.08 34.8007C342.419 34.8007 337.942 33.0175 334.605 29.8316C332.993 28.2337 331.725 26.3364 330.874 24.2514C330.023 22.1665 329.607 19.936 329.651 17.6913C329.596 15.4452 330.006 13.2114 330.858 11.1248C331.709 9.03828 332.984 7.1422 334.605 5.55103H334.625ZM347.111 28.3811C348.497 28.414 349.875 28.1582 351.152 27.6307C352.43 27.1032 353.578 26.316 354.521 25.3212C356.52 23.2394 357.593 20.467 357.506 17.6118C357.552 16.1948 357.312 14.7828 356.8 13.4565C356.287 12.1303 355.513 10.9158 354.521 9.88259C353.574 8.89447 352.424 8.11299 351.147 7.58916C349.871 7.06532 348.495 6.81092 347.111 6.84255C345.721 6.81522 344.341 7.07142 343.058 7.59482C341.776 8.11822 340.618 8.89735 339.66 9.88259C338.677 10.9194 337.913 12.1358 337.411 13.4621C336.909 14.7884 336.68 16.1986 336.736 17.6118C336.682 19.0219 336.912 20.4286 337.414 21.7515C337.915 23.0744 338.679 24.2875 339.66 25.3212C340.614 26.313 341.77 27.0978 343.054 27.6249C344.337 28.152 345.719 28.4096 347.111 28.3811Z" fill="white"/>
<path d="M372.489 34.1433V1.21944H388.061C391.133 1.04778 394.158 2.02029 396.527 3.94157C397.542 4.81493 398.348 5.89593 398.888 7.108C399.429 8.32008 399.69 9.63359 399.654 10.9555C399.707 13.0227 399.046 15.0469 397.779 16.7015C396.512 18.3562 394.712 19.5448 392.67 20.0756L403.126 34.1433H395.005L385.199 20.8307H379.392V34.1433H372.489ZM379.412 15.148H387.675C390.802 15.148 392.67 13.7373 392.67 11.1741C392.67 8.61091 390.802 7.20017 387.675 7.20017H379.412V15.148Z" fill="white"/>
<path d="M5.19604 102.554L94.2633 199.517V5.57089L5.19604 102.554Z" fill="white"/>
<path d="M258.429 69.5905C258.429 58.2252 249.659 50.7542 235.792 50.7542H145.283V87.8705H235.853C249.72 87.8705 258.49 80.9559 258.49 69.5905" fill="white"/>
<path d="M216.83 128.603H145.223V200.332H222.799L254.714 178.615L216.83 128.603Z" fill="white"/>
<path d="M309.856 71.6967C308.658 95.4011 294.487 114.317 271.464 123.06L293.492 152.228L362.013 105.614L309.856 71.6967Z" fill="white"/>
<path d="M325.266 56.4966C324.49 55.7383 323.882 54.8318 323.481 53.8336C323.079 52.8354 322.892 51.7668 322.931 50.6947C322.895 49.634 323.079 48.5773 323.473 47.5884C323.866 46.5995 324.46 45.699 325.219 44.9412C325.978 44.1834 326.887 43.5842 327.889 43.1797C328.892 42.7752 329.968 42.5739 331.052 42.5879C332.869 42.521 334.656 43.0527 336.127 44.098V45.767C334.699 44.7004 332.95 44.1274 331.153 44.1377C330.279 44.1175 329.411 44.2728 328.6 44.594C327.79 44.9153 327.056 45.3956 326.443 46.0055C325.815 46.6215 325.323 47.3575 324.998 48.1677C324.673 48.9778 324.522 49.8448 324.555 50.7145C324.527 51.579 324.679 52.44 325 53.2458C325.321 54.0516 325.805 54.7856 326.423 55.4038C327.019 56.0002 327.733 56.4702 328.523 56.7847C329.312 57.0992 330.159 57.2514 331.011 57.2317C331.843 57.279 332.675 57.1587 333.458 56.8785C334.24 56.5982 334.955 56.1639 335.559 55.6024V49.5224H337.224V56.1985C336.422 57.0151 335.456 57.6607 334.387 58.095C333.318 58.5292 332.168 58.7427 331.011 58.722C329.932 58.7499 328.859 58.5617 327.857 58.1687C326.854 57.7758 325.945 57.1864 325.184 56.437" fill="white"/>
<path d="M341.65 58.5033V42.866H348.796C351.923 42.866 353.851 44.535 353.851 47.1181C353.887 48.1564 353.516 49.1688 352.814 49.9481C352.112 50.7275 351.132 51.2148 350.075 51.3105L355.232 58.5033H353.202L348.309 51.4695H343.416V58.5033H341.65ZM343.335 49.9793H348.695C350.887 49.9793 352.146 48.9659 352.146 47.1777C352.146 45.3894 350.867 44.3562 348.695 44.3562H343.335V49.9793Z" fill="white"/>
<path d="M365.607 42.5878C366.678 42.5641 367.744 42.7605 368.733 43.1644C369.723 43.5682 370.615 44.1705 371.352 44.9324C372.827 46.508 373.646 48.5675 373.646 50.7045C373.646 52.8416 372.827 54.901 371.352 56.4766C370.598 57.2156 369.702 57.8018 368.716 58.2018C367.731 58.6017 366.674 58.8076 365.607 58.8076C364.539 58.8076 363.483 58.6017 362.497 58.2018C361.511 57.8018 360.615 57.2156 359.861 56.4766C359.102 55.7126 358.508 54.807 358.114 53.8137C357.72 52.8204 357.534 51.7597 357.567 50.6946C357.536 49.6328 357.724 48.5759 358.118 47.5862C358.512 46.5965 359.105 45.6941 359.861 44.9324C360.598 44.1705 361.49 43.5682 362.48 43.1644C363.47 42.7605 364.535 42.5641 365.607 42.5878V42.5878ZM365.607 57.2317C366.45 57.2498 367.288 57.0927 368.065 56.7707C368.842 56.4488 369.54 55.9693 370.114 55.3639C371.289 54.0808 371.94 52.418 371.94 50.6946C371.94 48.9711 371.289 47.3084 370.114 46.0252C369.537 45.4222 368.839 44.943 368.063 44.618C367.287 44.2931 366.45 44.1295 365.607 44.1376C364.764 44.1211 363.928 44.2809 363.155 44.6065C362.381 44.932 361.687 45.4158 361.12 46.0252C359.944 47.3084 359.294 48.9711 359.294 50.6946C359.294 52.418 359.944 54.0808 361.12 55.3639C361.688 55.9708 362.382 56.4515 363.156 56.7737C363.93 57.0959 364.766 57.252 365.607 57.2317" fill="white"/>
<path d="M379.331 56.9734C378.694 56.2809 378.206 55.4703 377.896 54.5897C377.586 53.7091 377.459 52.7764 377.524 51.847V42.866H379.209V51.8669C379.209 55.2646 381.057 57.2317 384.041 57.2317C387.026 57.2317 388.894 55.2447 388.894 51.8669V42.866H390.579V51.847C390.64 52.7777 390.51 53.7108 390.196 54.5914C389.882 55.4719 389.391 56.2819 388.751 56.9734C387.471 58.1367 385.788 58.7832 384.041 58.7832C382.294 58.7832 380.611 58.1367 379.331 56.9734" fill="white"/>
<path d="M395.005 58.5232V42.866H401.725C404.912 42.866 406.841 44.6145 406.841 47.1976C406.847 47.8306 406.713 48.4574 406.45 49.0355C406.186 49.6136 405.799 50.1294 405.313 50.5479C404.828 50.9664 404.256 51.2777 403.637 51.4607C403.018 51.6437 402.366 51.6942 401.725 51.6086H396.69V58.5232H395.005ZM396.69 50.0985H401.603C403.877 50.0985 405.176 49.0653 405.176 47.2572C405.176 45.449 403.958 44.2767 401.684 44.2767H396.771L396.69 50.0985Z" fill="white"/>
<defs>
<clipPath id="clip0_134_179">
<rect width="422" height="106" fill="white" transform="translate(0 319)"/>
</clipPath>
</defs>
</svg>
