<svg width="28" height="27" viewBox="0 0 28 27" fill="none" xmlns="http://www.w3.org/2000/svg">
<path d="M4.53875 17.447C4.03875 18.047 3.93875 18.847 4.03875 19.547C4.13875 20.247 4.53875 20.947 5.13875 21.347C5.73875 21.747 6.43875 21.947 7.13875 21.747C8.13875 21.547 8.83875 20.947 9.23875 19.947C9.53875 18.947 9.43875 18.047 8.73875 17.247C8.63875 17.047 8.53875 16.847 8.63875 16.747C8.93875 16.247 9.13875 15.747 9.43875 15.247C9.93875 14.247 10.4388 13.247 11.0388 12.347L11.3388 11.747C11.2388 11.647 11.0388 11.547 10.9388 11.447C10.4388 11.147 10.1388 10.847 9.83875 10.547C8.63875 9.14701 8.13875 7.64701 8.43875 5.94701C8.63875 4.54701 9.33875 3.44701 10.3388 2.54701C11.7388 1.44701 13.2388 1.14701 14.9388 1.54701C16.6388 1.94701 17.8388 2.94701 18.6388 4.64701C19.1388 5.74701 19.2388 6.84701 18.9388 8.04701C18.9388 8.14701 18.9388 8.24701 18.8388 8.34701L20.1388 8.84701C20.4388 7.74701 20.5388 6.64701 20.3388 5.64701C20.0388 3.94701 19.2388 2.64701 17.9388 1.54701C16.2388 0.147013 14.3388 -0.252987 12.2388 0.147013C10.5388 0.547013 9.23875 1.44701 8.13875 2.94701C7.53875 3.84701 7.13875 4.94701 6.93875 6.04701C6.93875 6.64701 6.93875 7.34701 7.13875 7.94701C7.33875 9.14701 7.93875 10.247 8.83875 11.247C9.03875 11.447 9.13875 11.647 9.33875 11.747L9.63875 12.047L9.43875 12.347L9.23875 12.647L8.73875 13.647C8.33875 14.447 7.83875 15.347 7.43875 16.147C7.33875 16.247 7.23875 16.347 7.03875 16.347H6.83875C6.73875 16.347 6.63875 16.347 6.53875 16.347C6.43875 16.347 6.33875 16.347 6.33875 16.347C5.63875 16.447 4.93875 16.847 4.53875 17.447Z" fill="white"/>
<path d="M22.0376 25.847C23.2376 25.647 24.3376 25.047 25.2376 24.247C26.5376 23.047 27.3376 21.447 27.5376 19.647C27.6376 18.647 27.5376 17.647 27.1376 16.647C26.5376 15.047 25.5376 13.847 24.0376 13.047C23.2376 12.547 22.3376 12.347 21.3376 12.247C20.9376 12.247 20.5376 12.247 20.2376 12.247C19.8376 12.347 19.4376 12.447 18.9376 12.647L18.1376 12.947L17.9376 12.847C17.9376 12.747 17.8376 12.747 17.8376 12.747C17.1376 11.547 16.4376 10.447 15.6376 9.24701C15.5376 9.14701 15.5376 8.94701 15.6376 8.64701C16.0376 8.14701 16.2376 7.54701 16.3376 6.94701C16.3376 6.14701 16.1376 5.44701 15.5376 4.94701C14.8376 4.24701 14.0376 3.94701 13.1376 4.14701C11.7376 4.34701 10.7376 5.74701 10.9376 7.14701C11.0376 8.14701 11.5376 8.84701 12.5376 9.34701C12.9376 9.54701 13.4376 9.64701 13.9376 9.54701C14.0376 9.54701 14.2376 9.54701 14.4376 9.74701L17.1376 14.047C17.2376 14.247 17.4376 14.447 17.5376 14.647L17.6376 14.547C17.8376 14.447 18.0376 14.247 18.3376 14.147C19.4376 13.547 20.5376 13.447 21.7376 13.647C23.0376 13.847 24.1376 14.547 24.9376 15.547C25.9376 16.747 26.3376 18.147 26.1376 19.647C25.9376 21.147 25.2376 22.447 24.0376 23.347C22.8376 24.247 21.5376 24.547 20.0376 24.347C19.0376 24.147 18.0376 23.747 17.3376 23.047C17.2376 22.947 17.1376 22.947 17.1376 22.847L16.8376 23.147C16.6376 23.347 16.3376 23.547 16.1376 23.847C16.7376 24.447 17.3376 24.947 18.1376 25.247C19.2376 25.947 20.6376 26.147 22.0376 25.847Z" fill="white"/>
<path d="M5.13783 12.4471C3.03783 13.0471 1.53783 14.2471 0.637829 16.2471C0.0378293 17.5471 -0.162171 18.9471 0.137829 20.3471C0.437829 21.8471 1.13783 23.1471 2.23783 24.2471C3.33783 25.3471 4.73783 25.9471 6.33783 26.0471C7.33783 26.1471 8.33783 25.9471 9.33783 25.5471C10.3378 25.1471 11.1378 24.5471 11.8378 23.7471C12.5378 22.8471 13.0378 21.8471 13.2378 20.6471C13.2378 20.5471 13.2378 20.4471 13.2378 20.3471L13.3378 19.9471L13.6378 19.8471H17.9378C18.1378 19.8471 18.2378 19.9471 18.3378 20.1471C18.4378 20.4471 18.6378 20.7471 18.8378 20.9471C19.5378 21.6471 20.3378 21.9471 21.2378 21.8471C21.8378 21.7471 22.3378 21.4471 22.8378 20.9471C23.4378 20.2471 23.6378 19.5471 23.5378 18.6471C23.4378 18.0471 23.1378 17.4471 22.7378 17.0471C22.1378 16.4471 21.3378 16.2471 20.5378 16.3471C19.5378 16.5471 18.8378 17.0471 18.4378 18.0471C18.3378 18.2471 18.2378 18.3471 17.9378 18.3471H12.1378C12.1378 18.5471 12.1378 18.6471 12.1378 18.8471C12.1378 19.3471 12.1378 19.7471 12.0378 20.2471C11.4378 23.0471 8.83783 24.8471 6.03783 24.4471C4.73783 24.2471 3.73783 23.7471 2.83783 22.7471C1.63783 21.4471 1.23783 19.9471 1.43783 18.1471C1.73783 15.9471 3.43783 14.1471 5.53783 13.6471L5.33783 12.2471C5.23783 12.4471 5.13783 12.4471 5.13783 12.4471Z" fill="white"/>
</svg>
