<svg width="352" height="116" viewBox="0 0 352 116" fill="none" xmlns="http://www.w3.org/2000/svg">
<path d="M59.9617 69.7951C64.2305 81.2204 73.9101 89.0293 84.9655 91.3622C85.0906 91.3894 85.2157 91.4112 85.3353 91.4383C85.3353 91.4383 85.6399 91.4383 85.7323 91.1284C85.8791 90.6281 85.5257 90.5248 85.5257 90.5248C75.2043 88.0233 67.2921 81.2258 63.3495 70.6652C62.3217 67.9081 61.6746 65.1293 61.381 62.3886C59.7768 60.4364 58.5858 58.5059 57.7973 56.6787C57.6614 61.0237 58.3466 65.4665 59.9617 69.7951Z" fill="#096000"/>
<path d="M58.0146 53.8238C58.8194 55.3682 59.8961 56.918 61.2121 58.4407C61.2611 55.651 61.6744 52.9211 62.4357 50.3054C61.3807 48.9187 60.5052 47.5212 59.8309 46.1182C58.9336 48.5979 58.3191 51.1864 58.0146 53.8238Z" fill="#096000"/>
<path d="M63.1423 39.3633C63.8656 40.5107 64.7574 41.6581 65.7961 42.7892C66.7749 41.2067 67.8951 39.7004 69.1622 38.2974C68.1562 37.0902 67.3459 35.8775 66.7423 34.6812C65.41 36.144 64.1973 37.7101 63.1423 39.3633Z" fill="#096000"/>
<path d="M117.87 36.1609C108.871 25.2632 93.704 20.6898 79.8045 25.8776C76.0849 27.2698 72.7569 29.2492 69.8802 31.6745C70.5763 32.7948 71.4953 33.915 72.6046 35.0189C75.4596 32.6751 78.7931 30.7338 82.567 29.3253C95.4496 24.5127 108.077 27.4601 117.017 36.5035C117.017 36.5035 117.457 37.069 117.881 36.8569C118.175 36.7156 117.87 36.1609 117.87 36.1609Z" fill="#096000"/>
<path d="M290.82 47.7786H289.988H272.124H262.069C260.248 47.7297 255.593 49.0511 254.309 53.9018L250.557 67.8666L249.605 71.4176C249.045 73.4133 249.551 74.9414 250.557 75.942C251.492 76.8719 252.863 77.3613 254.222 77.3613L272.124 77.4157L282.168 77.4483C284.713 77.4483 289.107 75.2786 289.961 71.3306L294.692 53.8529C295.649 50.3128 294.382 47.7786 290.82 47.7786ZM281.303 54.8535L277.165 70.2484C276.708 72.0865 275.039 73.4514 273.136 73.4025L272.124 73.397L265.327 73.3753C263.336 73.3753 262.488 72.0593 262.934 70.4116L267.023 55.0112C267.35 53.5592 268.818 51.8191 271.069 51.8463H272.124L278.943 51.8354C279.987 51.7973 281.923 52.7 281.303 54.8535Z" fill="#096000"/>
<path d="M206.51 53.8461C207.037 51.8993 206.695 50.257 205.683 49.1748C204.862 48.2939 203.595 47.7827 202.002 47.7827H201.806H185.03H174.649L174.638 47.8208L161.092 47.7936L152.119 47.7827C149.579 47.7827 145.18 49.9525 144.332 53.9005L139.633 71.2368L139.595 71.3836C139.187 72.8954 139.204 74.2331 139.633 75.2609C140.21 76.6258 141.52 77.4524 143.549 77.4524H144.299H161.086H162.353L161.456 80.7369H174.611L175.513 77.4252L185.024 77.4415L193.981 77.4578C196.526 77.4578 200.925 75.2881 201.773 71.3401L205.678 56.924L206.51 53.8461ZM163.474 73.3739L161.097 73.3793H155.311C154.267 73.412 152.331 72.5093 152.956 70.3612L157.089 54.9554C157.546 53.1283 159.205 51.7633 161.097 51.8068H161.113L169.363 51.8123L163.474 73.3739ZM193.323 54.8521L189.179 70.2471C188.728 72.0851 187.058 73.45 185.155 73.4011H185.03L176.617 73.3902L182.507 51.834H185.03L190.968 51.8286C192.012 51.796 193.943 52.6987 193.323 54.8521Z" fill="#096000"/>
<path d="M139.742 54.0861C140.09 52.7864 140.036 51.6281 139.639 50.6764C138.959 49.0342 137.29 48.0173 135.038 48.0173C123.33 48.0173 113.58 47.9629 101.79 47.9629L100.676 52.0142H124.293C125.337 51.9816 127.278 52.9386 126.647 55.0921L125.125 60.753H103.786L102.682 64.8043H124.037L122.509 70.4816C122.156 71.9118 121.073 73.0538 119.714 73.4671C119.312 73.5432 118.893 73.5813 118.463 73.5813H94.7971L93.6606 77.6325L127.218 77.6706C129.753 77.6706 134.152 75.5009 135.006 71.5529L139.633 54.4613L139.742 54.0861Z" fill="#096000"/>
<path d="M250.563 48.5012L251.744 47.8215H250.563H243.059L222.677 59.4153C223.689 55.712 224.472 52.8027 224.57 52.4112C225.119 50.0184 224.499 47.6964 219.371 47.6964C218.501 47.6964 212.699 47.6855 212.699 47.6855L205.684 73.5704L204.629 77.464H205.684H217.756C217.756 77.464 219.349 71.6345 221.041 65.4351L225.87 62.7651L234.217 77.4857H248.225L236.43 56.6745L250.563 48.5012Z" fill="#096000"/>
<path d="M173.469 86.5884L173.306 87.4856H171.365L170.446 92.3255H169.364L170.446 86.5884H173.469Z" fill="#096000"/>
<path d="M177.711 90.3025H177.08L176.694 92.3255H175.596L176.71 86.5884H177.814H178.358C178.619 86.5884 178.858 86.6047 179.081 86.6536C179.761 86.8005 180.191 87.2301 180.191 87.9751C180.18 89.34 179.223 90.3025 177.711 90.3025ZM178.581 87.502C178.456 87.4585 178.304 87.4421 178.146 87.4421H177.635L177.249 89.4488H177.874C178.608 89.4488 179.011 88.8397 179.011 88.1436C179.005 87.8228 178.875 87.589 178.581 87.502Z" fill="#096000"/>
<path d="M188.021 86.5884C187.325 87.9424 186.575 89.2747 185.694 90.6669C184.829 92.0644 184.443 92.4233 183.491 92.4233C183.268 92.4233 183.007 92.3907 182.795 92.3418L182.953 91.4934H183.497C183.926 91.4934 184.106 91.3684 184.41 90.879C183.964 89.563 183.589 88.1165 183.274 86.5884H184.432C184.606 87.5998 184.845 88.6766 185.112 89.5629L185.155 89.8022H185.166L185.291 89.5629C185.824 88.6494 186.384 87.589 186.868 86.5884H188.021Z" fill="#096000"/>
<path d="M193.351 92.3255L194.264 87.5346H192.035L191.132 92.3255H190.05L191.132 86.5884H195.521L194.428 92.3255H193.351Z" fill="#096000"/>
<path d="M201.469 92.3255L202.383 87.5346H200.159L199.256 92.3255H198.174L199.256 86.5884H203.645L202.552 92.3255H201.469Z" fill="#096000"/>
<path d="M209.844 92.3255C209.811 91.9067 209.762 91.4282 209.713 90.9877H207.543C207.315 91.439 207.097 91.9013 206.902 92.3255H205.803C206.766 90.3515 207.761 88.4862 208.87 86.5884H210.137C210.523 88.5134 210.828 90.4602 211.018 92.3255H209.844ZM209.642 90.1394C209.561 89.5793 209.468 88.9974 209.381 88.421C209.349 88.1654 209.316 87.9044 209.283 87.6379H209.273C209.126 87.9098 208.984 88.1871 208.843 88.4427C208.538 89.0028 208.234 89.5793 207.94 90.1339H209.642V90.1394Z" fill="#096000"/>
<path d="M222.02 92.3255L220.938 89.6282L220.454 90.0796L220.024 92.3255H218.937L220.04 86.5884H221.117L220.688 88.8397C221.46 88.1001 222.227 87.3334 222.999 86.5884H224.369L221.824 88.905L223.26 92.3255H222.02Z" fill="#096000"/>
<path d="M229.002 92.4396C227.474 92.4396 226.691 91.7272 226.691 90.3351C226.691 88.6928 227.555 86.4741 230.019 86.4741C231.525 86.4741 232.33 87.2246 232.33 88.5786C232.33 90.21 231.525 92.4396 229.002 92.4396ZM229.872 87.3877C228.382 87.3877 227.86 89.0735 227.86 90.2481C227.86 91.0203 228.186 91.5314 229.149 91.5314C230.47 91.5314 231.161 90.1176 231.161 88.6983C231.161 87.8771 230.829 87.3877 229.872 87.3877Z" fill="#096000"/>
<path d="M240.465 92.3255C240.754 90.7539 240.998 89.1606 241.113 87.7467H241.102L238.774 92.3255H237.746L237.23 87.7467H237.214C236.811 89.1442 236.409 90.7648 236.093 92.3255H235.093C235.462 90.5037 235.995 88.4699 236.588 86.5884H238.143L238.611 90.6995H238.622L240.699 86.5884H242.303C242.146 88.4862 241.89 90.4493 241.548 92.3255H240.465Z" fill="#096000"/>
<path d="M248.513 92.3255L249.427 87.5346H247.197L246.294 92.3255H245.212L246.294 86.5884H250.683L249.59 92.3255H248.513Z" fill="#096000"/>
<path d="M256.888 92.3255C256.856 91.9067 256.807 91.4282 256.758 90.9877H254.588C254.36 91.439 254.142 91.9013 253.946 92.3255H252.848C253.811 90.3515 254.806 88.4862 255.915 86.5884H257.182C257.568 88.5134 257.873 90.4602 258.063 92.3255H256.888ZM256.693 90.1394C256.611 89.5793 256.519 88.9974 256.432 88.421C256.399 88.1654 256.366 87.9044 256.334 87.6379H256.323C256.176 87.9098 256.035 88.1871 255.893 88.4427C255.589 89.0028 255.284 89.5793 254.991 90.1339H256.693V90.1394Z" fill="#096000"/>
<path d="M265.67 92.3255H264.588L265.066 89.8294H262.875L262.396 92.3255H261.298L262.413 86.5884H263.517L263.065 88.8832H265.257L265.708 86.5884H266.79L265.67 92.3255Z" fill="#096000"/>
<path d="M272.87 92.3255L273.452 89.2421L273.626 88.421L272.968 89.2258L270.352 92.3255H269.406L270.488 86.5884H271.554L270.962 89.6717L270.788 90.4929L271.445 89.688L274.067 86.5884H275.002L273.92 92.3255H272.87Z" fill="#096000"/>
<path d="M281.12 92.3262L281.702 89.2429L281.876 88.4217L281.218 89.2265L278.602 92.3262H277.656L278.738 86.5891H279.804L279.211 89.6724L279.037 90.4936L279.695 89.6888L282.316 86.5891H283.252L282.17 92.3262H281.12ZM282.876 84.9033C282.762 85.7027 282.121 86.2846 281.093 86.2846C280.223 86.2846 279.761 85.8713 279.761 85.2514C279.761 85.1372 279.766 85.023 279.804 84.9088H280.69C280.598 85.3547 280.739 85.6048 281.191 85.6048C281.609 85.6048 281.881 85.3492 281.957 84.9088H282.876V84.9033Z" fill="#096000"/>
<path d="M59.608 39.6303C59.9179 50.0114 71.8978 60.1478 86.8577 66.0698C87.3417 66.2601 87.0046 66.135 87.494 66.3199L94.7591 57.853C76.7268 52.9479 60.3693 40.4133 62.539 30.7881C61.1687 33.5778 59.4938 35.8889 59.608 39.6303Z" fill="#096000"/>
<path d="M71.0609 21C70.1582 21.5982 69.0815 22.3758 68.2495 23.4797C66.7377 25.3286 66.0689 27.8573 66.6072 30.5763C67.9885 37.5261 76.8035 45.3187 89.6643 50.5555L94.1724 45.6504C77.4778 40.5115 63.9209 28.102 71.0609 21Z" fill="#A3A3A3"/>
<path d="M79.0381 73.5641C79.9843 72.4384 81.8496 70.323 83.0296 68.9255C70.495 65.0264 55.1436 51.2683 57.917 44.3022C53.7188 54.8683 64.5024 66.6633 78.7118 73.4064L79.0381 73.5641Z" fill="#A3A3A3"/>
</svg>
