<svg width="20" height="27" viewBox="0 0 20 27" fill="none" xmlns="http://www.w3.org/2000/svg">
<path d="M0.3 8.9C6.6 8.9 12.9 8.9 19.2 8.9C19.4 8.9 19.5 8.9 19.5 8.6C19.5 6.5 19.5 4.4 19.5 2.3C19.5 1.9 19.5 1.4 19.5 1C19.5 0.6 19.3 0.3 18.9 0.1C18.9 0.1 18.8 0.1 18.8 0C12.8 0 6.8 0 0.8 0C0.1 0.3 0 0.8 0 1.4C0 3.8 0 6.3 0 8.7C0 8.9 0.1 8.9 0.3 8.9ZM2 2.2C2 2 2.1 1.9 2.3 1.9C7.3 1.9 12.3 1.9 17.2 1.9C17.4 1.9 17.5 1.9 17.5 2.2C17.5 3.6 17.5 5 17.5 6.4C17.5 6.6 17.4 6.7 17.2 6.7C14.7 6.7 12.2 6.7 9.7 6.7C7.2 6.7 4.7 6.7 2.3 6.7C2.1 6.6 2 6.6 2 6.4C2 5 2 3.6 2 2.2Z" fill="white"/>
<path d="M19.5 9.5999C19.5 9.4999 19.5 9.4999 19.5 9.3999C13 9.3999 6.5 9.3999 0 9.3999C0 9.4999 0 9.5999 0 9.6999C0 14.7999 0 19.8999 0 24.9999C0 25.0999 0 25.1999 0 25.2999C0 25.6999 0.2 25.8999 0.6 26.0999C0.7 26.0999 0.7 26.1999 0.8 26.1999C6.8 26.1999 12.8 26.1999 18.8 26.1999C19.3 25.9999 19.6 25.6999 19.6 25.0999C19.5 19.8999 19.5 14.7999 19.5 9.5999ZM1.5 16.7999H11.9V18.1999H1.5V16.7999ZM1.5 19.7999H11.9V21.1999H1.5V19.7999ZM1.5 24.2999V22.8999H11.9V24.2999H1.5ZM18 17.6999V18.0999V19.7999V21.0999V22.8999V23.5999V24.2999H13.6V22.9999V21.1999V19.8999V18.1999V16.8999H18V17.6999ZM18 15.2999H1.5V13.8999H18V15.2999ZM18 12.2999H1.5V10.8999H18V12.2999Z" fill="white"/>
</svg>
