<svg width="87" height="86" viewBox="0 0 87 86" fill="none" xmlns="http://www.w3.org/2000/svg">
<g clip-path="url(#clip0)">
<path d="M48.1636 73.146C49.9436 73.146 51.7186 73.1659 53.4985 73.1411C55.3132 73.1163 57.0733 72.8038 58.7144 71.9903C60.658 71.028 62.0116 69.5301 62.7206 67.4567C62.7652 67.3179 62.8891 67.1839 63.0081 67.0996C68.3976 63.5531 73.792 60.0215 79.1814 56.47C80.292 55.7409 81.4622 55.2002 82.776 54.9671C85.1758 54.5405 87.1689 56.5444 86.8268 58.9352C86.6037 60.5274 85.8104 61.7972 84.7395 62.9331C83.7032 64.0342 82.4686 64.8973 81.2093 65.7157C74.0944 70.3535 66.9895 75.0011 59.8498 79.6041C57.3063 81.2459 54.7033 82.8034 52.0954 84.3411C50.2113 85.4521 48.1487 86.0027 45.9424 85.9184C44.1971 85.849 42.5015 85.472 40.9198 84.7528C38.6688 83.726 36.4526 82.6149 34.2363 81.5039C30.8946 79.8273 27.5677 78.1111 24.2309 76.4247C23.7499 76.1816 23.2492 75.9733 22.7385 75.7898C21.8014 75.4475 20.8792 75.5021 20.0215 76.0179C18.8266 76.7372 17.6515 77.4911 16.4665 78.2351C15.8418 78.6319 15.222 79.0337 14.5923 79.4355C13.5809 80.0753 12.4108 79.7877 11.8951 78.7063C10.8738 76.5636 9.88216 74.4059 8.8955 72.2482C6.94697 67.9825 5.01827 63.7069 3.0747 59.4411C2.73259 58.6971 2.77226 57.9977 3.31269 57.3678C3.48126 57.1744 3.70933 57.0057 3.94237 56.8966C8.29061 54.858 12.6587 52.859 17.1309 51.1031C18.544 50.5476 19.962 50.002 21.4643 49.7391C23.2442 49.4266 25.0341 49.3274 26.8339 49.4564C27.9941 49.5407 29.1592 49.6845 30.3045 49.9127C32.02 50.255 33.4232 51.2172 34.7172 52.3581C35.9617 53.4543 37.0079 54.7439 38.0888 55.9938C38.4259 56.3807 38.773 56.7577 39.12 57.1396C39.9133 58.0176 40.8752 58.5682 42.0453 58.841C44.5144 59.4213 46.9984 59.9421 49.5271 60.1802C50.7815 60.2993 52.0507 60.329 53.3101 60.3737C54.6587 60.4233 55.9776 60.6018 57.1972 61.2367C60.1622 62.7793 59.9192 66.4746 58.2236 67.9776C57.346 68.7563 56.2998 69.1581 55.1694 69.3267C54.4505 69.4358 53.7167 69.4954 52.9878 69.5003C50.0774 69.5202 47.172 69.4904 44.2616 69.5152C41.7677 69.535 39.3134 69.2126 36.879 68.7365C35.3915 68.4438 33.9091 68.0916 32.4217 67.7891C31.44 67.5907 30.5326 68.1958 30.3095 69.1581C30.0864 70.1303 30.6516 71.0975 31.6284 71.3356C33.086 71.6828 34.5487 72.0201 36.0212 72.2978C37.4293 72.5607 38.8473 72.779 40.2703 72.9476C41.3462 73.0766 42.4271 73.1311 43.5129 73.1559C45.0648 73.1758 46.6117 73.151 48.1636 73.146Z" fill="white"/>
<path d="M25.5199 39.0947C25.5149 38.6483 25.6785 38.2614 25.9363 37.9092C26.9131 36.565 27.8799 35.2109 28.8616 33.8667C28.9856 33.698 28.9856 33.574 28.9013 33.3855C28.5939 32.6812 28.3113 31.9669 28.0286 31.2527C27.9642 31.089 27.9047 30.9948 27.7064 30.96C26.0504 30.6674 24.3993 30.3599 22.7483 30.0623C21.7319 29.8787 21.122 29.1694 21.127 28.1377C21.1369 26.3769 21.1468 24.621 21.1666 22.8601C21.1766 21.7987 21.7666 21.1142 22.8177 20.9406C24.4687 20.6727 26.1148 20.3999 27.7659 20.1469C27.9493 20.1172 28.0187 20.0428 28.0782 19.889C28.3757 19.1499 28.6782 18.4158 29.0004 17.6867C29.0748 17.5181 29.0698 17.404 28.9657 17.2552C28.0088 15.8812 27.0618 14.5072 26.1099 13.1283C25.5248 12.2801 25.5942 11.3675 26.3231 10.6433C27.5874 9.38342 28.8616 8.12355 30.1358 6.87359C30.83 6.19405 31.7621 6.13453 32.5504 6.69999C33.9189 7.68209 35.2823 8.6642 36.6409 9.65623C36.7946 9.77031 36.9135 9.78519 37.097 9.70583C37.8308 9.39334 38.5696 9.10069 39.3133 8.81301C39.467 8.75348 39.5364 8.689 39.5661 8.52036C39.8587 6.88351 40.1661 5.25162 40.4586 3.61478C40.6619 2.51859 41.3411 1.92833 42.4517 1.93329C44.192 1.94321 45.9323 1.95313 47.6726 1.96801C48.7436 1.97793 49.4327 2.59795 49.5963 3.6495C49.8591 5.32107 50.1269 6.98767 50.4045 8.65924C50.4194 8.7386 50.5037 8.84277 50.583 8.87253C51.3466 9.20486 52.1151 9.53719 52.8885 9.84968C52.9827 9.88936 53.1414 9.84472 53.2306 9.78519C54.5991 8.82293 55.9576 7.85074 57.326 6.88351C58.2036 6.26349 59.1159 6.34286 59.8695 7.10672C61.109 8.35667 62.3436 9.60663 63.5782 10.8615C64.2673 11.5659 64.3417 12.4934 63.7715 13.3019C62.7849 14.7007 61.7933 16.0945 60.7967 17.4833C60.6975 17.6222 60.6826 17.7264 60.757 17.8901C61.0694 18.6242 61.3718 19.3632 61.6594 20.1023C61.7189 20.261 61.8032 20.3255 61.9569 20.3503C63.6525 20.633 65.3482 20.9257 67.0389 21.2134C67.971 21.3721 68.5958 22.0963 68.5908 23.0387C68.5858 24.7896 68.571 26.5406 68.5611 28.2865C68.5511 29.4869 67.971 30.1416 66.7811 30.3351C65.1598 30.5979 63.5435 30.8807 61.9222 31.1436C61.7189 31.1783 61.6296 31.2676 61.5503 31.461C61.2776 32.1604 60.9851 32.8499 60.6777 33.5294C60.5934 33.7228 60.6033 33.8468 60.7273 34.0105C61.6991 35.3597 62.6609 36.7188 63.6178 38.0778C64.2773 39.0103 64.1979 39.8933 63.3947 40.6918C62.1602 41.917 60.9206 43.1421 59.6861 44.3623C58.9721 45.0667 58.0499 45.146 57.2269 44.5657C55.8386 43.5836 54.4503 42.6015 53.067 41.6095C52.8885 41.4805 52.7596 41.4805 52.5563 41.5648C51.882 41.8624 51.1929 42.1452 50.5037 42.4031C50.3004 42.4824 50.2062 42.5816 50.1715 42.7949C49.8938 44.4814 49.6112 46.1678 49.3187 47.8543C49.16 48.7719 48.4312 49.3969 47.509 49.3919C45.7042 49.3919 43.8945 49.382 42.0898 49.3572C41.0883 49.3473 40.404 48.7421 40.2404 47.76C39.9529 46.0736 39.6653 44.3871 39.3876 42.7007C39.3579 42.5321 39.2885 42.4428 39.1249 42.3783C38.401 42.0906 37.6821 41.7979 36.9681 41.4855C36.7797 41.4061 36.6508 41.4011 36.4822 41.5202C35.1336 42.4626 33.78 43.3902 32.4314 44.3276C31.4349 45.0171 30.587 44.9377 29.7342 44.0697C28.5344 42.8495 27.3296 41.6343 26.1247 40.419C25.743 40.0669 25.5298 39.6304 25.5199 39.0947ZM52.1151 25.7618C52.1101 21.6995 48.8477 18.4258 44.8068 18.4208C40.7462 18.4208 37.449 21.7094 37.4589 25.7568C37.4689 29.8043 40.7511 33.083 44.792 33.083C48.8328 33.0879 52.12 29.8043 52.1151 25.7618Z" fill="white"/>
<path d="M62.8101 62.8586C62.3391 61.2168 61.4466 59.9123 60.1377 58.8657C60.2022 58.8112 60.2567 58.7616 60.3112 58.7219C63.4497 56.7726 66.5733 54.7984 69.7366 52.8937C71.6305 51.7529 73.6534 51.5545 75.7011 52.4969C76.187 52.7201 76.5986 53.112 77.1142 53.4741C72.2949 56.6287 67.5699 59.7338 62.8101 62.8586Z" fill="white"/>
<path d="M47.9258 56.3608C49.0215 55.6763 50.0578 55.0266 51.099 54.3817C52.7897 53.3302 54.4705 52.2538 56.181 51.232C58.2733 49.9771 60.5441 49.3422 62.9984 49.4762C64.2181 49.5456 65.3683 49.8878 66.4393 50.4831C66.4789 50.5029 66.5186 50.5327 66.5583 50.5575C65.5518 51.1775 64.5502 51.7925 63.5537 52.4126C61.1391 53.9056 58.7295 55.4035 56.3198 56.9064C56.1562 57.0106 56.0075 57.0453 55.8141 57.0056C54.8175 56.7874 53.8061 56.7477 52.7847 56.708C51.2675 56.6485 49.7504 56.5245 48.2381 56.4204C48.1539 56.4104 48.0696 56.3856 47.9258 56.3608Z" fill="white"/>
</g>
<path fill-rule="evenodd" clip-rule="evenodd" d="M24.0702 36.0424C23.8124 36.3945 23.6488 36.7814 23.6537 37.2278C23.6636 37.7635 23.8768 38.2 24.2586 38.5522L24.26 38.5536L24.2607 38.5543C25.4648 39.7688 26.6689 40.9833 27.8681 42.2028C28.7209 43.0709 29.5687 43.1502 30.5653 42.4608C31.1338 42.0656 31.7031 41.6722 32.2726 41.2787L32.2729 41.2785L32.2733 41.2782C33.0546 40.7384 33.8361 40.1983 34.6161 39.6533C34.7846 39.5343 34.9135 39.5392 35.1019 39.6186C35.8159 39.9311 36.5348 40.2238 37.2587 40.5114C37.4223 40.5759 37.4918 40.6652 37.5215 40.8339C37.7992 42.5203 38.0867 44.2067 38.3743 45.8932C38.5379 46.8753 39.2221 47.4804 40.2237 47.4904C42.0284 47.5152 43.8381 47.5251 45.6429 47.5251C46.5651 47.53 47.2939 46.9051 47.4526 45.9874C47.7451 44.301 48.0277 42.6145 48.3054 40.9281C48.3401 40.7148 48.4343 40.6156 48.6375 40.5362C49.3267 40.2783 50.0159 39.9956 50.6902 39.698C50.8935 39.6137 51.0224 39.6137 51.2009 39.7426C52.583 40.7338 53.97 41.715 55.357 42.6962L55.3579 42.6968L55.3587 42.6974L55.3607 42.6989C56.1838 43.2792 57.106 43.1998 57.8199 42.4955C59.0545 41.2753 60.294 40.0501 61.5286 38.825C62.3318 38.0264 62.4111 37.1435 61.7517 36.211C60.7948 34.8519 59.8329 33.4928 58.8611 32.1437C58.7372 31.98 58.7273 31.856 58.8115 31.6625C59.1189 30.983 59.4115 30.2935 59.6842 29.5942C59.7635 29.4007 59.8527 29.3114 60.056 29.2767C60.8667 29.1453 61.6761 29.0089 62.4855 28.8725C63.2949 28.7361 64.1043 28.5997 64.915 28.4682C66.1049 28.2748 66.685 27.62 66.6949 26.4197C66.6982 25.8431 66.702 25.266 66.7058 24.6885L66.7059 24.6809L66.7059 24.6765L66.7059 24.6722C66.7136 23.5064 66.7214 22.3391 66.7247 21.1718C66.7296 20.2294 66.1049 19.5052 65.1728 19.3465C64.6774 19.2622 64.1816 19.1775 63.6855 19.0927C62.4884 18.8882 61.2896 18.6833 60.0907 18.4834C59.937 18.4586 59.8527 18.3942 59.7933 18.2354C59.5057 17.4964 59.2032 16.7573 58.8909 16.0232C58.8165 15.8595 58.8314 15.7554 58.9305 15.6165C59.9271 14.2276 60.9187 12.8338 61.9054 11.4351C62.4756 10.6266 62.4012 9.69903 61.712 8.99469C60.4775 7.73978 59.2429 6.48982 58.0034 5.23987C57.2497 4.476 56.3375 4.39664 55.4599 5.01666C54.8928 5.41749 54.3274 5.81917 53.7623 6.22065L53.7609 6.22166L53.7604 6.22198C52.9625 6.78884 52.1652 7.35529 51.3645 7.91834C51.2752 7.97786 51.1166 8.02251 51.0224 7.98282C50.2489 7.67034 49.4804 7.33801 48.7169 7.00568C48.6375 6.97592 48.5533 6.87175 48.5384 6.79239C48.2607 5.12082 47.993 3.45421 47.7302 1.78265C47.5666 0.731096 46.8774 0.111079 45.8065 0.101158C44.0662 0.0862778 42.3259 0.0763575 40.5856 0.0664373C39.475 0.0614771 38.7957 0.651734 38.5924 1.74793C38.4462 2.56635 38.2962 3.38353 38.1462 4.20071C37.9962 5.0179 37.8463 5.83508 37.7 6.65351C37.6702 6.82215 37.6008 6.88663 37.4471 6.94615C36.7034 7.23384 35.9647 7.52649 35.2309 7.83898C35.0474 7.91834 34.9284 7.90346 34.7747 7.78938C33.4162 6.79735 32.0527 5.81524 30.6843 4.83313C29.896 4.26768 28.9638 4.3272 28.2697 5.00674C26.9955 6.25669 25.7212 7.51657 24.4569 8.77645C23.7281 9.50063 23.6587 10.4133 24.2437 11.2615L24.6264 11.8158L24.627 11.8167C25.4502 13.0094 26.2712 14.1988 27.0996 15.3883C27.2037 15.5371 27.2087 15.6512 27.1343 15.8198C26.812 16.549 26.5096 17.2831 26.2121 18.0222C26.1526 18.1759 26.0832 18.2503 25.8997 18.2801C24.6092 18.4778 23.3218 18.6876 22.0326 18.8978C21.6724 18.9565 21.3121 19.0152 20.9516 19.0737C19.9004 19.2473 19.3104 19.9318 19.3005 20.9933C19.2807 22.7541 19.2708 24.51 19.2608 26.2709C19.2559 27.3026 19.8657 28.0119 20.8821 28.1954C21.5194 28.3103 22.1566 28.4266 22.7941 28.543C23.8084 28.7282 24.8234 28.9135 25.8402 29.0932C26.0386 29.1279 26.0981 29.2222 26.1625 29.3858L26.1625 29.3859L26.1626 29.386L26.1626 29.3861C26.4452 30.1003 26.7278 30.8144 27.0351 31.5187C27.1194 31.7072 27.1194 31.8312 26.9955 31.9998C26.4425 32.7569 25.8943 33.5172 25.3464 34.277L25.3458 34.2779L25.3457 34.278L25.3456 34.2782C24.921 34.867 24.4965 35.4556 24.0702 36.0424ZM42.9407 16.554C46.9815 16.5589 50.244 19.8326 50.2489 23.895C50.2539 27.9375 46.9667 31.2211 42.9258 31.2161C38.885 31.2161 35.6027 27.9375 35.5928 23.89C35.5829 19.8425 38.88 16.554 42.9407 16.554ZM47.9396 71.283C47.3925 71.2812 46.8452 71.2793 46.2974 71.2793C45.8228 71.2808 45.3487 71.2842 44.8748 71.2876L44.87 71.2876L44.8652 71.2876C43.7925 71.2953 42.7208 71.3029 41.6467 71.2892C40.5609 71.2644 39.48 71.2098 38.4041 71.0809C36.9811 70.9122 35.5631 70.694 34.155 70.4311C32.6825 70.1533 31.2198 69.816 29.7621 69.4688C28.7854 69.2307 28.2202 68.2635 28.4433 67.2913C28.6664 66.3291 29.5737 65.7239 30.5554 65.9223C31.2329 66.0601 31.9093 66.2082 32.5856 66.3563C33.3942 66.5333 34.2028 66.7103 35.0128 66.8697C37.4472 67.3459 39.9014 67.6683 42.3954 67.6485C43.9199 67.6355 45.4432 67.6374 46.9664 67.6394C48.3511 67.6412 49.7358 67.643 51.1216 67.6336C51.8504 67.6286 52.5842 67.5691 53.3032 67.46C54.4336 67.2913 55.4798 66.8895 56.3573 66.1108C58.053 64.6079 58.296 60.9126 55.331 59.37C54.1113 58.7351 52.7925 58.5565 51.4439 58.5069C51.2614 58.5004 51.0786 58.4943 50.8958 58.4881H50.8956C49.8168 58.4518 48.7334 58.4153 47.6609 58.3135C45.1322 58.0754 42.6482 57.5546 40.1791 56.9742C39.009 56.7014 38.0471 56.1508 37.2538 55.2729L37.0536 55.053C36.7736 54.7456 36.4948 54.4396 36.2225 54.1271C36.0509 53.9287 35.8802 53.7292 35.7095 53.5297C34.8045 52.4726 33.898 51.4135 32.851 50.4913C31.557 49.3505 30.1538 48.3882 28.4383 48.046C27.293 47.8178 26.1279 47.674 24.9677 47.5896C23.1679 47.4607 21.378 47.5599 19.5981 47.8724C18.0957 48.1353 16.6777 48.6809 15.2647 49.2364C10.7925 50.9923 6.4244 52.9912 2.07615 55.0299C1.84312 55.139 1.61505 55.3076 1.44648 55.5011C0.906044 56.131 0.866379 56.8304 1.20849 57.5744C2.07002 59.4653 2.92863 61.3581 3.78735 63.2512L3.78773 63.252C4.86609 65.6293 5.94462 68.0069 7.02929 70.3815C8.01595 72.5392 9.00757 74.6968 10.0289 76.8396C10.5446 77.9209 11.7147 78.2086 12.7261 77.5687C12.9987 77.3948 13.2694 77.2209 13.5395 77.0474L13.5458 77.0434L13.5508 77.0401C13.9008 76.8152 14.2498 76.591 14.6003 76.3684C14.9027 76.1785 15.2045 75.988 15.5061 75.7976C16.3863 75.2418 17.2653 74.6869 18.1552 74.1512C19.013 73.6353 19.9352 73.5808 20.8723 73.923C21.383 74.1066 21.8837 74.3149 22.3647 74.5579C23.7796 75.273 25.1928 75.9935 26.606 76.7141L26.6067 76.7144L26.6074 76.7148L26.6095 76.7158L26.6113 76.7167C28.5291 77.6945 30.4471 78.6724 32.3701 79.6371L32.3706 79.6374L32.3708 79.6375C34.5868 80.7484 36.8029 81.8594 39.0536 82.886C40.6352 83.6052 42.3309 83.9822 44.0761 84.0516C46.2825 84.136 48.3451 83.5854 50.2291 82.4743C52.8371 80.9367 55.4401 79.3792 57.9836 77.7374C63.7251 74.0358 69.4442 70.3053 75.164 66.5743C76.5568 65.6658 77.9498 64.7572 79.3431 63.849C80.6024 63.0306 81.837 62.1675 82.8732 61.0663C83.9442 59.9305 84.7375 58.6607 84.9606 57.0685C85.3027 54.6777 83.3095 52.6738 80.9098 53.1004C79.5959 53.3335 78.4258 53.8741 77.3152 54.6033C74.2965 56.5925 71.2762 58.5755 68.2561 60.5584C65.8843 62.1157 63.5126 63.6728 61.1419 65.2329C61.0229 65.3172 60.899 65.4511 60.8543 65.59C60.1453 67.6633 58.7918 69.1613 56.8482 70.1236C55.2071 70.937 53.4469 71.2495 51.6323 71.2743C50.4001 71.2915 49.1703 71.2873 47.9396 71.283ZM60.9436 60.9917C60.4726 59.3499 59.5801 58.0454 58.2712 56.9988C58.2883 56.9844 58.3047 56.9702 58.3206 56.9565C58.3646 56.9186 58.4046 56.8841 58.4447 56.855C59.2786 56.337 60.1115 55.8173 60.9443 55.2976C63.2459 53.8615 65.5473 52.4254 67.87 51.0268C69.764 49.886 71.7869 49.6876 73.8346 50.63C74.1613 50.7801 74.4544 51.0064 74.7681 51.2486L74.7681 51.2487C74.921 51.3667 75.0787 51.4885 75.2477 51.6072C71.3692 54.146 67.5518 56.6526 63.7282 59.1634L63.7063 59.1778L60.9436 60.9917ZM46.8227 54.0167C46.5709 54.1741 46.3168 54.333 46.0593 54.4938C46.1254 54.5052 46.179 54.5166 46.2257 54.5266C46.2806 54.5383 46.3261 54.548 46.3717 54.5533C46.7226 54.5775 47.0737 54.6027 47.4251 54.628C48.588 54.7116 49.7531 54.7953 50.9182 54.841C51.9396 54.8807 52.951 54.9204 53.9476 55.1386C54.141 55.1783 54.2897 55.1436 54.4534 55.0394C56.863 53.5365 59.2726 52.0385 61.6872 50.5455C62.492 50.0448 63.3 49.5474 64.1112 49.0479C64.3046 48.9289 64.4981 48.8098 64.6918 48.6904C64.6786 48.6822 64.6654 48.6734 64.6522 48.6646C64.6257 48.6469 64.5993 48.6293 64.5728 48.616C63.5019 48.0208 62.3516 47.6786 61.1319 47.6091C58.6776 47.4752 56.4068 48.1101 54.3145 49.365C53.113 50.0828 51.9261 50.8275 50.7401 51.5715C50.2377 51.8867 49.7356 52.2018 49.2325 52.5147C48.4359 53.008 47.6423 53.5042 46.8227 54.0167Z" fill="url(#paint0_linear)"/>
<defs>
<linearGradient id="paint0_linear" x1="42.9936" y1="0.0664062" x2="42.9936" y2="84.06" gradientUnits="userSpaceOnUse">
<stop stop-color="#6573A7"/>
<stop offset="1" stop-color="#384471"/>
</linearGradient>
<clipPath id="clip0">
<rect width="84" height="84" fill="white" transform="translate(2.8667 1.93332)"/>
</clipPath>
</defs>
</svg>
