<svg width="1992" height="480" viewBox="0 0 1992 480" fill="none" xmlns="http://www.w3.org/2000/svg">
<rect width="1992" height="480" rx="20" fill="white" fill-opacity="0.1"/>
<g clip-path="url(#clip0_93_1603)">
<path d="M228.707 54H70.8489C63.6902 54 58 59.6904 58 66.8492V224.711C58 231.87 63.6902 237.56 70.8489 237.56H228.707C235.865 237.56 241.556 231.87 241.556 224.711V66.8492C241.556 59.6904 235.865 54 228.707 54ZM197.319 208.007C197.869 209.292 198.236 210.577 198.971 212.045C197.319 212.045 196.034 212.045 194.565 212.045C194.382 212.045 194.198 211.862 194.015 211.678C193.464 210.393 192.913 209.108 192.363 207.64C193.831 207.64 195.483 207.64 196.952 207.64C197.135 207.64 197.319 207.823 197.319 208.007ZM189.976 200.664C189.793 200.664 189.609 200.481 189.426 200.297C188.875 199.012 188.324 197.727 187.774 196.259C189.426 196.259 190.894 196.259 192.363 196.259C192.546 196.259 192.73 196.443 192.73 196.626C193.28 197.911 193.648 199.196 194.382 200.664C192.73 200.664 191.261 200.664 189.976 200.664ZM106.826 196.443C106.826 196.259 107.193 196.075 107.376 196.075C108.845 196.075 110.13 196.075 111.782 196.075C111.231 197.544 110.68 198.829 110.13 200.114C110.13 200.297 109.763 200.481 109.579 200.481C108.111 200.481 106.642 200.481 104.99 200.481C105.908 199.196 106.275 197.727 106.826 196.443ZM102.42 208.007C102.42 207.823 102.788 207.823 102.788 207.823C104.256 207.823 105.724 207.823 107.376 207.823C106.826 209.292 106.275 210.76 105.724 212.045C105.724 212.229 105.541 212.412 105.357 212.412C103.889 212.412 102.42 212.412 100.768 212.412C101.319 210.577 101.87 209.292 102.42 208.007ZM100.768 223.242C99.3 223.242 97.8316 223.242 96.1796 223.242C96.9138 221.59 97.4644 220.122 98.0151 218.653C98.0151 218.47 98.3822 218.47 98.3822 218.47C99.8507 218.47 101.319 218.47 102.788 218.47C102.237 220.122 101.686 221.407 101.136 222.875C101.136 223.059 100.952 223.242 100.768 223.242ZM114.902 223.242C115.086 222.508 115.269 221.774 115.636 221.223C116.004 220.305 116.004 219.204 116.738 218.653C117.472 218.103 118.573 218.47 119.491 218.47C140.233 218.47 161.158 218.47 181.9 218.47C183.001 218.47 183.368 218.653 183.736 219.755C184.103 220.856 184.47 222.141 184.837 223.426C161.342 223.242 138.214 223.242 114.902 223.242ZM178.229 207.64C179.147 207.64 179.514 207.823 179.881 208.741C180.064 209.842 180.615 210.944 180.982 212.045C160.057 212.045 139.499 212.045 118.573 212.045C119.124 210.577 119.491 209.292 120.042 208.007C120.042 207.823 120.409 207.64 120.592 207.64C120.96 207.64 121.327 207.64 121.51 207.64C140.416 207.64 159.323 207.64 178.229 207.64ZM122.428 200.481C122.979 199.012 123.346 197.727 123.896 196.443C123.896 196.259 124.264 196.259 124.447 196.075C124.631 196.075 124.998 196.075 125.181 196.075C141.518 196.075 157.854 196.075 174.191 196.075C175.292 196.075 175.659 196.443 176.026 197.36C176.21 198.462 176.76 199.38 177.128 200.481C158.956 200.481 140.784 200.481 122.428 200.481ZM196.401 226.546C193.831 226.546 191.445 226.546 188.875 226.546C188.141 226.546 187.957 226.363 187.774 225.629C184.837 217.185 182.084 208.741 179.147 200.297C178.229 197.727 177.311 194.974 176.393 192.404C176.026 191.486 175.659 191.303 174.741 191.303C159.69 191.303 144.638 191.303 129.587 191.303C127.751 191.303 125.916 191.303 124.08 191.303C123.346 191.303 122.979 191.486 122.795 192.221C120.042 200.481 117.288 208.558 114.535 216.818C113.434 219.755 112.516 222.875 111.415 225.812C111.231 226.179 110.864 226.546 110.68 226.546C107.927 226.546 105.174 226.546 102.604 226.546C102.42 226.546 102.42 226.546 102.237 226.363C102.788 224.894 103.338 223.426 103.889 221.957C107.744 212.045 111.782 202.133 115.636 192.221C116.004 191.486 115.82 191.119 115.086 190.752C113.434 190.018 112.332 188.917 111.782 187.081C110.497 182.308 109.212 177.536 107.927 172.763C107.56 171.295 108.111 169.826 109.396 169.092V166.522C108.111 166.155 107.193 165.237 107.193 163.952C107.193 162.668 107.193 161.383 107.193 160.281C107.193 158.629 107.927 157.711 109.396 157.344V154.407C107.927 153.673 107.009 152.205 107.009 150.185C107.009 130.912 107.009 111.638 107.009 92.1805C107.009 88.3257 109.946 85.2052 113.801 85.2052C115.453 85.2052 117.105 85.2052 118.757 85.2052C119.491 85.2052 120.042 85.0216 120.592 84.2874C122.061 82.6354 123.529 80.9833 124.998 79.1477C126.099 77.6792 127.751 76.945 129.587 76.5779C131.055 76.2108 132.707 75.8436 134.176 75.4765C135.46 75.1094 136.195 74.3752 136.562 73.2738C137.48 71.0711 138.581 69.0519 139.499 67.0328C140.233 65.5643 141.334 65.0136 143.17 65.0136C147.759 65.1972 152.348 65.0136 156.936 65.0136C158.405 65.0136 159.323 65.3807 159.873 66.6656C160.975 68.6848 162.26 70.704 162.994 72.9067C163.728 74.7423 164.829 75.4765 166.481 75.8436C168.317 76.2108 170.152 76.5779 171.988 77.1286C172.722 77.3121 173.456 77.8628 174.007 78.597C175.843 80.6162 177.495 82.6354 179.33 84.6545C179.697 85.0216 180.064 85.2052 180.615 85.2052C182.267 85.2052 183.919 85.2052 185.571 85.2052C189.609 85.2052 192.546 88.1422 192.73 92.1805C192.73 92.9147 192.73 93.649 192.73 94.3832C192.73 112.923 192.73 131.462 192.73 149.818C192.73 152.205 191.812 153.857 190.16 154.591V157.344C191.996 157.528 192.913 158.629 192.913 160.832C192.913 161.75 192.913 162.668 192.913 163.585C192.73 165.421 191.812 166.522 190.16 166.706V169.276C191.261 170.01 191.812 171.295 191.445 172.58C190.16 177.536 188.875 182.308 187.59 187.265C187.04 188.917 185.938 190.018 184.286 190.752C183.919 190.936 183.736 190.936 183.185 191.119C187.774 202.867 192.363 214.615 197.135 226.363C196.952 226.363 196.584 226.546 196.401 226.546ZM198.787 223.242C198.604 223.242 198.42 223.059 198.236 222.875C197.686 221.407 197.135 219.938 196.401 218.286C198.053 218.286 199.521 218.286 200.99 218.286C201.173 218.286 201.357 218.47 201.357 218.47C201.908 219.938 202.458 221.407 203.192 223.059C201.724 223.242 200.256 223.426 198.787 223.242Z" fill="white"/>
<path d="M147.575 77.3122C148.309 77.3122 149.044 77.3122 149.778 77.3122C150.512 77.3122 151.43 77.3122 152.164 77.3122C154.917 77.3122 156.569 75.6602 156.569 72.9068C156.569 70.7041 154.734 68.8685 152.531 68.8685C151.063 68.8685 149.411 68.8685 147.942 68.8685C146.29 68.6849 145.005 69.6027 143.904 70.7041C143.17 71.6219 142.803 74.1917 143.537 75.1095C144.455 76.3944 145.556 77.4958 147.575 77.3122Z" fill="white"/>
<path d="M119.308 124.487C128.118 124.487 137.112 124.487 145.923 124.487C146.657 124.487 147.024 124.303 147.024 123.386C147.024 118.43 147.024 113.473 147.024 108.334C147.024 103.378 147.024 98.4215 147.024 93.2818C147.024 92.364 146.841 92.1804 145.923 92.1804C137.112 92.1804 128.302 92.1804 119.491 92.1804C117.105 92.1804 115.636 93.6489 115.636 96.0352C115.636 104.112 115.636 112.188 115.636 120.265C115.453 123.019 116.921 124.487 119.308 124.487Z" fill="white"/>
<path d="M171.07 150.552C172.722 150.552 174.558 150.552 176.21 150.552H176.393C178.229 150.552 179.514 149.451 179.514 147.432C179.514 145.413 179.514 142.843 179.514 140.824C179.33 138.621 178.229 137.703 176.026 137.703C172.539 137.703 169.051 137.703 165.931 137.703C164.095 137.703 162.81 138.988 162.81 140.824C162.81 143.026 162.81 145.413 162.81 147.432C162.81 149.267 164.095 150.552 165.931 150.552C167.583 150.552 169.418 150.552 171.07 150.552Z" fill="white"/>
<path d="M152.715 93.649C152.715 98.6051 152.715 103.561 152.715 108.517C152.715 113.473 152.715 118.43 152.715 123.386C152.715 124.12 152.898 124.487 153.632 124.487C162.443 124.487 171.254 124.487 180.248 124.487C182.818 124.487 184.286 123.019 184.286 120.449C184.286 112.372 184.286 104.295 184.286 96.4024C184.286 94.0161 182.818 92.5476 180.432 92.5476C171.621 92.5476 162.81 92.5476 153.816 92.5476C153.082 92.5476 152.715 92.7312 152.715 93.649Z" fill="white"/>
<path d="M129.036 151.47C130.688 151.47 132.707 151.47 134.359 151.47C136.378 151.47 137.663 150.369 137.663 148.35C137.663 145.78 137.663 143.577 137.663 141.191C137.663 138.621 136.195 137.52 134.359 137.52C130.688 137.52 127.2 137.52 123.529 137.52C121.51 137.52 120.409 138.988 120.409 140.824C120.409 143.394 120.409 145.596 120.409 147.983C120.409 150.002 121.51 151.103 123.713 151.287C125.365 151.47 127.384 151.47 129.036 151.47Z" fill="white"/>
</g>
<g clip-path="url(#clip1_93_1603)">
<path d="M362.985 120.266C362.618 119.898 361.884 119.898 361.333 120.082C359.314 121 357.295 121.55 355.092 121.183C354.542 121.183 353.991 121.367 353.44 121.734C346.649 127.424 340.041 133.298 333.433 139.172C333.066 139.539 332.882 139.906 332.699 140.457C333.249 140.641 333.616 140.824 334.167 140.824C351.238 140.824 368.308 140.824 385.379 140.824C385.746 140.824 386.297 140.641 387.031 140.641C386.664 140.274 386.664 140.09 386.48 139.906C378.587 133.298 370.695 126.874 362.985 120.266Z" fill="white"/>
<path d="M440.262 54H282.404C275.246 54 269.556 59.6904 269.556 66.8492V224.711C269.556 231.87 275.246 237.56 282.404 237.56H440.262C447.421 237.56 453.111 231.87 453.111 224.711V66.8492C453.111 59.6904 447.421 54 440.262 54ZM427.964 206.355C427.964 208.374 427.964 208.374 425.945 208.374C404.285 208.374 382.809 208.374 361.15 208.374C339.49 208.374 318.014 208.374 296.355 208.374C294.519 208.374 294.519 208.374 294.519 206.538C294.519 185.245 294.519 163.952 294.519 142.476C294.519 140.824 294.519 140.824 296.355 140.824C304.798 140.824 313.058 140.824 321.502 140.824C322.236 140.824 322.97 140.64 323.521 140.09C331.414 133.114 339.49 126.323 347.383 119.347C348.117 118.613 348.301 118.246 347.567 117.328C341.876 110.353 345.731 101.358 352.523 99.3393C352.89 99.1558 353.257 98.7886 353.257 98.4215C353.44 97.6873 353.44 96.953 353.257 96.4024C353.073 95.8517 352.89 95.301 352.523 94.9339C347.567 91.0791 347.383 81.7176 352.156 77.6792C354.725 75.4765 358.029 75.4765 360.599 77.6792C365.739 81.9011 365.188 91.6298 359.681 95.301C359.314 95.6681 358.947 96.4024 358.764 96.953C358.764 99.1558 358.764 101.542 358.764 103.745C358.764 104.663 358.396 105.03 357.479 105.03C356.561 105.03 355.46 105.03 354.542 105.213C350.504 106.131 349.035 111.087 351.788 114.024C352.523 114.758 353.073 114.758 353.808 114.208C355.092 112.923 356.561 111.821 357.846 110.72C358.58 109.986 359.131 109.802 360.048 110.536C360.966 111.271 361.333 111.087 361.7 109.802C362.068 108.334 363.169 107.416 364.637 107.416C365.922 107.416 367.391 108.701 367.207 110.169C367.207 111.638 366.84 113.106 366.473 114.391C366.289 115.125 366.289 115.493 366.84 116.043C376.568 124.303 386.297 132.38 396.025 140.64C396.392 141.007 397.127 141.007 397.677 141.191C407.222 141.191 416.767 141.191 426.312 141.191C427.413 141.191 427.78 141.375 427.78 142.659C427.964 163.769 427.964 185.062 427.964 206.355Z" fill="white"/>
<path d="M353.257 152.572C351.054 152.572 349.402 154.04 349.402 156.61C349.402 170.01 349.402 183.226 349.402 196.626C349.402 197.727 349.953 198.829 350.687 199.563C351.788 200.664 353.257 200.848 354.542 200.114C356.01 199.379 356.744 198.278 356.744 196.626C356.744 190.018 356.744 183.226 356.744 176.618C356.744 170.01 356.744 163.402 356.744 156.793C356.928 154.224 355.46 152.572 353.257 152.572Z" fill="white"/>
<path d="M337.655 156.977C337.655 156.243 337.655 155.509 337.288 154.775C336.553 153.122 334.718 152.205 333.066 152.572C331.414 152.939 330.129 154.407 330.129 156.427C330.129 161.199 330.129 165.788 330.129 170.561C330.129 179.188 330.129 187.999 330.129 196.626C330.129 199.012 331.964 200.665 334.167 200.481C336.186 200.297 337.471 198.645 337.471 196.259C337.471 189.651 337.471 183.043 337.471 176.435C337.655 170.01 337.655 163.402 337.655 156.977Z" fill="white"/>
<path d="M375.834 156.794C375.834 154.04 373.999 152.388 371.612 152.572C369.593 152.755 368.308 154.407 368.308 156.794C368.308 162.851 368.308 168.909 368.308 174.966C368.308 182.125 368.308 189.284 368.308 196.443C368.308 199.012 369.96 200.848 372.347 200.664C374.366 200.664 375.834 198.829 375.834 196.626C375.834 190.018 375.834 183.41 375.834 176.802C375.834 170.01 375.834 163.402 375.834 156.794Z" fill="white"/>
<path d="M394.74 155.508C394.373 154.04 393.456 153.122 392.171 152.755C390.886 152.388 389.417 152.572 388.5 153.673C387.949 154.591 387.398 155.692 387.398 156.793C387.398 164.87 387.398 172.763 387.398 180.84C387.398 185.979 387.398 191.303 387.398 196.442C387.398 199.012 389.234 200.848 391.62 200.481C393.639 200.297 394.924 198.645 394.924 196.259C394.924 189.651 394.924 183.226 394.924 176.618C394.924 170.193 394.924 163.585 394.924 157.161C394.924 156.61 394.924 156.059 394.74 155.508Z" fill="white"/>
<path d="M314.894 152.572C312.691 152.572 311.223 154.224 311.223 156.793C311.223 162.484 311.223 168.174 311.223 173.864C311.223 181.39 311.223 188.916 311.223 196.442C311.223 199.012 313.058 200.664 315.444 200.481C317.464 200.297 318.748 198.645 318.748 196.075C318.748 189.467 318.748 183.042 318.748 176.434C318.748 169.826 318.748 163.402 318.748 156.793C318.748 154.224 317.096 152.572 314.894 152.572Z" fill="white"/>
<path d="M413.83 155.325C413.28 153.49 411.628 152.388 409.608 152.572C407.773 152.755 406.488 154.407 406.488 156.427C406.488 163.218 406.488 170.01 406.488 176.802C406.488 183.41 406.488 190.018 406.488 196.443C406.488 198.462 407.589 199.93 409.425 200.297C411.811 200.848 414.014 199.013 414.014 196.443C414.014 189.835 414.014 183.226 414.014 176.618C414.014 170.01 414.014 163.402 414.014 156.977C414.014 156.427 414.014 155.876 413.83 155.325Z" fill="white"/>
</g>
<path d="M651.818 54H493.96C486.801 54 481.111 59.6904 481.111 66.8492V224.711C481.111 231.87 486.801 237.56 493.96 237.56H651.818C658.976 237.56 664.667 231.87 664.667 224.711V66.8492C664.667 59.6904 658.976 54 651.818 54ZM633.462 179.004C632.728 179.004 631.994 179.004 631.443 179.004C622.816 179.004 614.005 179.004 605.378 179.004C605.011 179.004 604.46 178.821 604.093 178.454C600.239 173.681 596.568 169.092 592.713 164.32C592.529 164.136 592.529 163.952 592.346 163.769C605.378 163.769 618.227 163.769 631.26 163.769C631.994 168.541 632.728 173.681 633.462 179.004ZM627.956 142.109C628.69 147.065 629.424 152.205 630.158 157.344C615.841 157.344 601.707 157.344 587.39 157.344C588.491 154.774 589.592 152.388 590.694 150.002C591.795 147.616 592.896 145.229 593.998 142.843C594.181 142.292 594.365 142.109 594.916 142.109C605.745 142.109 616.575 142.109 627.405 142.109C627.588 142.109 627.772 142.109 627.956 142.109ZM548.66 94.7503C552.147 88.3257 557.47 84.1038 564.445 82.0847C573.44 79.5148 581.883 80.6162 589.409 86.3066C598.036 92.7312 601.34 101.542 600.055 112.005C599.504 116.778 597.852 120.999 595.65 125.221C593.08 130.545 590.51 135.868 587.94 141.007C585.738 145.596 583.352 150.369 581.149 154.958C579.313 158.813 577.478 162.668 575.642 166.339C574.724 168.358 573.807 170.377 572.705 172.58C571.604 170.377 570.686 168.358 569.768 166.522C567.382 161.566 564.996 156.426 562.426 151.47C560.04 146.514 557.654 141.558 555.268 136.602C552.881 131.462 550.128 126.506 547.925 121.183C544.438 112.372 544.071 103.378 548.66 94.7503ZM525.532 142.109C533.975 142.109 542.235 142.109 550.679 142.109C551.413 142.109 551.596 142.292 551.964 142.843C554.533 148.166 557.103 153.49 559.673 158.813C559.856 159.363 559.856 159.547 559.489 159.914C554.9 163.769 550.312 167.624 545.906 171.478C545.723 171.478 545.723 171.662 545.539 171.662C537.646 161.933 529.937 152.021 521.86 141.925C523.145 142.109 524.247 142.109 525.532 142.109ZM508.644 203.234C511.398 184.328 514.335 165.237 517.272 146.147C532.507 165.237 547.558 184.144 562.61 203.234C544.438 203.234 526.633 203.234 508.644 203.234ZM612.72 203.418C605.378 203.418 598.036 203.418 590.694 203.418C584.269 203.418 577.661 203.418 571.237 203.418C570.503 203.418 570.136 203.234 569.768 202.684C563.711 194.974 557.47 187.448 551.413 179.739C550.679 178.821 549.761 177.719 549.027 176.618C553.432 172.763 558.021 169.092 562.426 165.237C562.793 165.972 563.16 166.522 563.344 167.073C564.629 169.826 565.914 172.396 567.199 175.15C569.218 179.188 574.541 179.922 577.478 176.618C578.028 176.067 578.396 175.15 578.763 174.415C580.598 170.744 582.25 167.073 584.086 163.218C594.916 176.618 605.378 189.834 616.208 203.418C614.923 203.418 613.822 203.418 612.72 203.418ZM629.24 203.418C627.772 203.418 626.304 203.418 624.835 203.418C624.468 203.418 623.917 203.234 623.55 202.867C618.961 196.993 614.372 191.303 609.6 185.429C609.6 185.429 609.6 185.245 609.416 185.062C617.676 185.062 625.753 185.062 633.829 185.062C633.829 184.695 634.013 184.328 634.013 184.144H634.196C635.114 190.569 636.032 196.993 637.133 203.418C634.38 203.418 631.81 203.418 629.24 203.418Z" fill="white"/>
<path d="M572.889 123.753C581.332 123.753 588.124 116.778 588.124 108.334C588.124 100.074 581.149 93.0986 572.889 93.0986C564.445 93.0986 557.47 100.074 557.654 108.518C557.654 116.961 564.445 123.753 572.889 123.753Z" fill="white"/>
<g clip-path="url(#clip2_93_1603)">
<path d="M863.373 237.56H705.516C698.357 237.56 692.667 231.87 692.667 224.711V66.8492C692.667 59.6904 698.357 54 705.516 54H863.373C870.532 54 876.222 59.6904 876.222 66.8492V224.711C876.222 231.87 870.532 237.56 863.373 237.56Z" fill="#007DB3"/>
<path d="M809.225 149.818C805.553 150.736 804.819 151.287 803.351 155.142C801.699 155.142 800.047 155.142 798.395 155.142C798.211 155.142 797.844 154.774 797.661 154.591C796.926 151.654 795.091 150.185 791.97 149.818C791.97 133.849 791.97 117.879 791.97 101.726C790.869 101.726 789.768 101.726 788.666 101.726C788.666 98.7886 788.666 95.8516 788.666 92.9147C790.135 91.4462 791.603 89.9777 793.255 88.3257H793.439C798.211 88.3257 803.167 88.3257 807.94 88.3257C808.123 88.3257 808.49 88.5092 808.674 88.6928C808.857 88.6928 808.857 88.8764 808.857 88.8764C809.959 90.1613 811.611 91.0791 812.345 92.5476C812.896 94.016 812.529 95.8516 812.529 97.5037C812.529 98.7886 812.529 100.074 812.529 101.542C811.794 101.542 811.244 101.542 810.693 101.542C809.041 101.542 809.041 101.542 809.225 103.378C809.592 103.378 809.959 103.378 810.326 103.378C819.504 103.378 828.865 103.378 838.043 103.378C838.777 103.378 839.328 103.561 839.878 104.112C842.448 106.865 845.201 109.435 847.955 112.188C848.322 112.556 848.505 113.106 848.505 113.657C848.505 134.583 848.505 155.692 848.505 176.618C848.505 177.536 848.138 177.719 847.221 177.719C844.1 177.719 840.98 177.719 837.859 177.719C837.125 177.719 836.758 177.536 836.574 176.802C835.106 168.909 833.821 161.015 832.353 153.122C830.701 144.128 829.049 135.133 827.58 126.139C827.397 125.405 827.029 125.221 826.295 125.221C820.789 125.221 815.465 125.221 809.959 125.221C809.041 125.221 808.857 125.588 808.857 126.323C808.857 133.665 808.857 141.007 808.857 148.35C809.225 148.9 809.225 149.268 809.225 149.818ZM793.622 103.745C797.661 103.745 801.515 103.745 805.553 103.745C805.553 104.112 805.553 104.479 805.553 104.846C805.553 110.904 805.553 116.961 805.553 123.019C805.553 123.569 805.553 124.12 805.37 124.671C805.186 125.038 804.819 125.405 804.636 125.405C803.351 125.405 802.066 125.405 800.781 125.405C798.578 125.405 796.559 125.405 794.357 125.405C793.622 125.405 793.439 125.588 793.439 126.323C793.439 132.013 793.439 137.887 793.439 143.577C793.439 143.761 793.439 143.761 793.622 144.128C794.724 143.027 796.009 142.659 797.477 143.027C798.945 143.394 799.863 144.495 800.414 145.964C802.249 142.659 803.901 142.109 807.389 144.128C807.389 129.994 807.389 116.043 807.389 101.909C806.838 101.909 806.471 101.909 806.104 101.909C802.433 101.909 798.762 101.909 794.907 101.909C793.439 101.909 793.439 101.909 793.622 103.745Z" fill="white"/>
<path d="M756.361 101.909C756.361 98.9722 756.361 96.2188 756.361 93.2819C756.361 92.9148 756.728 92.5476 756.911 92.3641C758.013 91.2627 758.93 90.1614 760.032 89.2436C760.399 88.8764 760.949 88.6929 761.317 88.6929C765.905 88.6929 770.678 88.6929 775.267 88.6929C775.634 88.6929 776.185 88.8764 776.552 89.2436C777.653 90.3449 778.754 91.4463 779.856 92.5476C780.039 92.7312 780.223 93.0983 780.223 93.2819C780.223 96.0353 780.223 98.9722 780.223 101.909C779.121 101.909 778.02 101.909 776.919 101.909C776.919 102.643 776.919 103.194 776.919 103.745C781.141 103.745 785.362 103.745 789.584 103.745C789.584 111.087 789.584 118.062 789.584 125.405C785.362 125.405 781.141 125.405 776.735 125.405C776.735 133.665 776.735 141.742 776.735 150.002C773.431 150.369 771.596 152.205 770.861 155.325C769.209 155.325 767.557 155.325 765.905 155.325C765.722 155.325 765.171 154.958 765.171 154.774C764.437 151.838 762.601 150.369 759.481 150.002C759.481 149.635 759.481 149.451 759.481 149.084C759.481 133.849 759.481 118.797 759.481 103.561C759.481 102.093 759.481 102.093 758.013 101.909C757.645 101.909 757.095 101.909 756.361 101.909ZM761.5 125.405C761.5 131.646 761.5 137.703 761.5 144.128C762.785 143.027 764.07 142.66 765.538 143.027C767.007 143.394 767.741 144.495 768.475 146.147C769.026 144.495 769.944 143.394 771.412 143.027C772.881 142.66 774.165 143.21 775.45 144.128C775.45 143.577 775.45 143.027 775.45 142.66C775.45 137.336 775.45 132.013 775.45 126.69C775.45 118.797 775.45 111.087 775.45 103.194C775.45 102.093 775.083 101.726 773.982 101.726C770.494 101.726 767.007 101.726 763.519 101.726C762.785 101.726 762.234 101.726 761.5 101.726C761.5 102.46 761.5 103.011 761.5 103.561C765.538 103.561 769.393 103.561 773.431 103.561C773.431 110.904 773.431 118.062 773.431 125.221C769.393 125.405 765.355 125.405 761.5 125.405Z" fill="white"/>
<path d="M784.628 157.161C791.603 157.161 798.762 157.161 805.737 157.161C806.288 157.161 806.838 157.161 807.389 157.161C808.857 157.161 809.959 158.078 810.326 159.547C810.693 160.832 810.142 162.117 809.041 162.851C808.307 163.218 808.123 163.769 808.123 164.503C808.123 165.788 808.123 167.256 808.123 168.541C808.123 168.908 808.49 169.276 808.674 169.643C810.142 170.561 810.693 171.845 810.326 173.314C809.959 174.782 808.857 175.7 807.022 175.7C801.515 175.7 795.825 175.7 790.318 175.7C780.957 175.7 771.779 175.7 762.418 175.7C760.766 175.7 759.481 175.333 758.93 173.865C758.196 172.396 758.747 170.744 760.215 170.01C760.766 169.643 760.949 169.276 760.949 168.541C760.949 167.073 760.949 165.788 760.949 164.319C760.949 163.952 760.582 163.402 760.215 163.218C758.93 162.3 758.38 161.015 758.747 159.547C759.114 158.078 760.215 157.344 762.051 157.344C769.393 157.161 777.102 157.161 784.628 157.161ZM786.464 170.377C788.299 170.377 790.135 170.377 791.97 170.377C792.154 170.377 792.521 169.826 792.521 169.643C792.521 168.174 792.521 166.706 792.521 165.421C792.521 164.503 792.521 163.769 792.521 162.851C790.318 162.851 788.483 162.851 786.464 162.851C786.464 165.237 786.464 167.624 786.464 170.377ZM782.609 162.484C780.773 162.484 778.938 162.484 777.102 162.484C776.919 162.484 776.552 162.851 776.552 163.035C776.552 165.421 776.552 167.807 776.552 170.193C778.571 170.193 780.59 170.193 782.609 170.193C782.609 167.624 782.609 165.237 782.609 162.484ZM766.823 170.193C768.842 170.193 770.861 170.193 772.697 170.193C772.697 167.624 772.697 165.054 772.697 162.667C770.678 162.667 768.659 162.667 766.823 162.667C766.823 165.237 766.823 167.624 766.823 170.193ZM802.249 170.193C802.249 167.624 802.249 165.237 802.249 162.484C800.414 162.484 798.578 162.484 796.743 162.484C796.559 162.484 796.192 162.851 796.192 163.035C796.192 165.421 796.192 167.624 796.192 170.193C798.211 170.193 800.047 170.193 802.249 170.193Z" fill="white"/>
<path d="M740.942 198.462C739.29 198.462 737.821 198.462 736.169 198.462C736.169 196.993 736.169 195.525 736.169 194.056C736.169 192.588 735.986 192.404 734.517 192.404C728.644 192.404 722.953 192.404 717.08 192.404C715.795 192.404 715.428 192.588 715.428 194.056C715.428 195.525 715.428 196.993 715.428 198.462C713.776 198.462 712.124 198.462 710.472 198.462C710.472 198.278 710.288 197.911 710.288 197.728C710.288 194.424 710.288 191.119 710.288 187.815C710.288 187.081 710.472 186.53 711.389 186.714C713.959 187.265 715.795 186.163 717.08 184.144C719.099 181.391 721.668 180.289 724.972 180.84C726.624 181.024 728.46 180.84 730.112 180.84C730.479 180.84 731.213 181.024 731.397 181.391C733.049 182.859 734.517 184.511 735.986 185.98C736.353 186.347 736.904 186.53 737.271 186.53C738.188 186.53 739.106 186.53 740.024 186.53C740.575 186.53 740.942 186.714 740.942 187.265C740.942 190.752 740.942 194.24 740.942 197.728C740.942 198.095 740.942 198.278 740.942 198.462Z" fill="white"/>
<path d="M858.601 186.714C858.601 190.752 858.601 194.607 858.601 198.462C856.949 198.462 855.48 198.462 853.645 198.462C853.645 196.993 853.645 195.525 853.645 194.056C853.645 192.588 853.461 192.404 851.993 192.404C846.303 192.404 840.429 192.404 834.739 192.404C833.27 192.404 833.087 192.588 833.087 194.056C833.087 195.525 833.087 196.81 833.087 198.462C831.435 198.462 829.783 198.462 828.314 198.462C828.314 194.607 828.314 190.752 828.314 186.714C829.416 186.714 830.333 186.714 831.435 186.714C831.985 186.714 832.72 186.347 833.087 185.98C834.555 184.511 836.024 183.043 837.492 181.574C837.859 181.207 838.593 180.84 839.144 180.84C841.897 180.84 844.651 180.84 847.588 180.84C848.322 180.84 849.056 181.023 849.607 181.758C851.075 183.41 852.544 184.878 854.196 186.163C854.563 186.347 854.93 186.53 855.297 186.53C856.215 186.714 857.316 186.714 858.601 186.714Z" fill="white"/>
<path d="M725.156 194.423C725.156 197.36 725.156 200.114 725.156 202.867C722.586 202.867 720.016 202.867 717.263 202.867C717.263 200.114 717.263 197.177 717.263 194.423C720.016 194.423 722.586 194.423 725.156 194.423Z" fill="white"/>
<path d="M726.257 202.867C726.257 199.93 726.257 197.177 726.257 194.423C728.827 194.423 731.397 194.423 733.967 194.423C733.967 197.177 733.967 199.93 733.967 202.867C731.397 202.867 729.011 202.867 726.257 202.867Z" fill="white"/>
<path d="M834.922 194.423C837.492 194.423 840.062 194.423 842.632 194.423C842.632 197.177 842.632 200.114 842.632 202.867C840.062 202.867 837.492 202.867 834.922 202.867C834.922 200.114 834.922 197.36 834.922 194.423Z" fill="white"/>
<path d="M843.733 194.423C846.303 194.423 848.873 194.423 851.626 194.423C851.626 195.525 851.626 196.626 851.626 197.544C851.626 199.012 851.626 200.481 851.626 202.133C851.626 202.5 851.259 202.867 851.075 202.867C848.689 202.867 846.119 202.867 843.733 202.867C843.733 200.114 843.733 197.177 843.733 194.423Z" fill="white"/>
<path d="M756.911 103.745C748.1 103.745 739.473 103.745 730.663 103.745C730.112 103.745 729.561 104.112 729.194 104.479C726.808 106.865 724.422 109.251 721.852 111.638C720.934 112.556 720.016 113.29 720.384 114.758H720.2V115.492C720.2 118.797 720.2 122.101 720.2 125.405V126.323C720.2 129.627 720.2 132.747 720.2 136.051V136.969C720.2 140.09 720.2 143.394 720.2 146.698V147.615C720.2 150.736 720.2 154.04 720.2 157.344V158.262C720.2 161.566 720.2 164.87 720.2 168.174V169.092C720.2 169.092 720.2 169.092 720.384 169.092C720.384 171.845 720.384 174.599 720.384 177.352C720.384 178.086 720.567 178.454 721.301 178.454C724.605 178.454 727.726 178.454 731.03 178.454C731.764 178.454 731.948 178.27 732.131 177.536C733.232 170.744 734.517 163.952 735.802 157.161C737.638 147.065 739.473 136.969 741.125 126.69C741.309 125.772 741.676 125.588 742.594 125.588C747.183 125.588 751.955 125.588 756.544 125.588C756.911 125.588 757.462 125.588 757.829 125.588C757.829 118.246 757.829 111.271 757.829 104.112C757.462 103.745 757.095 103.745 756.911 103.745Z" fill="white"/>
</g>
<g clip-path="url(#clip3_93_1603)">
<path d="M1074.93 237.56H917.071C909.912 237.56 904.222 231.87 904.222 224.711V66.8492C904.222 59.6904 909.912 54 917.071 54H1074.93C1082.09 54 1087.78 59.6904 1087.78 66.8492V224.711C1087.78 231.87 1082.09 237.56 1074.93 237.56Z" fill="#007DB3"/>
<path d="M921.66 169.092C922.027 169.092 922.394 168.908 922.761 168.908C924.413 168.908 926.249 168.908 927.901 168.908C928.268 168.908 928.635 168.908 929.002 168.908C929.002 167.44 929.002 166.339 929.002 164.87C926.8 164.87 924.597 164.87 922.211 164.87C922.578 163.218 922.761 161.75 923.128 160.281C923.128 160.098 923.679 159.914 923.863 159.914C925.882 159.914 927.717 159.914 929.736 159.914C930.104 159.914 930.471 159.914 931.021 159.914C931.021 158.629 931.021 157.344 931.021 155.876C928.819 155.876 926.616 155.876 924.23 155.876C925.148 153.857 925.882 151.837 926.8 150.002C928.268 147.432 929.92 144.862 931.572 142.292C931.756 142.109 932.306 141.925 932.673 141.925C937.079 141.925 941.484 141.925 945.889 141.925C946.256 141.925 946.624 141.925 946.991 141.925C947.908 130.912 948.643 119.898 949.56 108.884C948.643 108.884 947.908 108.884 946.991 108.701C946.991 106.682 946.991 104.662 946.991 102.46C947.541 102.46 947.908 102.46 948.276 102.46C958.371 102.46 968.283 102.46 978.379 102.46C984.987 102.46 990.493 105.213 994.715 110.169C997.468 113.29 998.937 116.961 1000.59 120.816C1005.18 132.196 1009.03 143.761 1012.89 155.325C1013.07 156.059 1013.44 156.61 1013.99 157.161C1015.46 158.813 1016.74 160.465 1018.39 162.117C1018.76 162.484 1019.13 162.667 1019.68 162.667C1020.96 162.667 1022.25 162.667 1023.53 162.667C1023.53 162.3 1023.53 161.933 1023.53 161.566C1023.53 146.331 1023.53 130.912 1023.53 115.676C1023.53 114.758 1023.35 114.024 1022.25 113.84C1021.7 113.657 1021.51 113.29 1021.51 112.556C1021.51 107.599 1021.51 102.827 1021.51 97.8707C1021.51 97.1365 1021.33 96.5858 1020.6 96.5858C1019.86 96.4022 1019.68 96.0351 1019.86 95.3009C1019.86 93.6488 1019.86 92.1804 1019.86 90.5283C1024.82 90.5283 1029.59 90.5283 1034.55 90.5283C1034.55 93.8324 1034.55 97.1365 1034.55 100.441C1036.2 100.441 1037.67 100.441 1039.32 100.441C1040.24 100.441 1040.6 100.624 1040.6 101.542C1040.6 109.802 1040.6 118.246 1040.6 126.506C1040.6 128.158 1040.79 129.81 1041.15 131.279C1041.71 133.848 1043.17 135.501 1045.93 136.235C1045.93 135.501 1045.93 134.766 1045.93 134.032C1046.29 134.032 1046.48 133.848 1046.66 133.848C1064.47 133.848 1060.06 133.848 1077.87 133.848C1077.87 137.336 1077.87 140.824 1077.87 144.311C1077.5 144.311 1077.32 144.311 1076.95 144.311C1059.51 144.311 1064.28 144.311 1047.03 144.311C1046.66 144.311 1046.29 144.311 1045.93 144.311C1045.93 143.761 1045.74 143.577 1045.74 143.21C1042.07 143.21 1038.4 143.21 1034.55 143.21C1034.55 150.185 1034.55 157.161 1034.55 164.136C1036.2 164.136 1037.85 164.136 1039.5 164.136C1039.5 172.763 1039.5 181.207 1039.5 189.834C1038.22 189.834 1036.75 189.834 1035.46 189.834C1037.67 178.637 1028.86 168.725 1018.03 168.725C1013.07 168.725 1008.85 170.56 1005.54 174.048C1000.41 179.555 999.304 185.98 1001.87 193.138C999.488 193.138 997.285 193.138 995.082 193.138C995.082 192.037 995.082 190.936 995.082 189.834C983.518 189.834 972.138 189.834 960.757 189.834C962.042 180.289 954.7 172.029 945.522 171.478C941.3 171.295 937.262 172.58 934.142 175.333C929.736 179.188 927.901 183.96 928.452 189.834C927.534 189.834 926.8 189.834 925.882 189.834C925.148 189.834 924.597 189.651 924.413 188.916C923.679 186.897 922.945 185.062 922.394 182.859C921.844 180.473 921.66 178.086 921.476 175.7C921.66 173.681 921.66 171.295 921.66 169.092ZM998.57 172.396C998.019 172.396 997.652 172.396 997.285 172.396C992.88 172.396 988.658 172.396 984.252 172.396C983.702 172.396 983.151 172.213 982.784 172.029C975.442 168.174 968.283 164.319 960.941 160.648C959.105 159.73 958.371 158.629 958.371 156.61C958.188 150.002 957.82 143.21 957.453 136.602C957.453 134.95 958.004 134.399 959.656 134.216C960.39 134.216 961.124 134.216 961.859 134.216C964.796 134.216 966.08 135.133 966.815 137.887C967.549 140.824 968.1 143.761 968.65 146.881C968.834 147.799 969.017 147.983 969.935 147.983C971.771 147.983 973.79 147.983 975.625 147.983C977.644 147.983 979.48 148.533 980.765 150.002C982.05 151.47 982.968 153.122 983.151 154.958C983.702 158.262 984.252 161.382 984.62 164.687C984.803 165.604 984.987 165.971 986.088 165.971C989.943 165.971 993.797 165.971 997.652 165.971C998.57 165.971 999.488 165.971 1000.77 165.971C996.367 158.446 992.145 151.103 987.74 143.577C988.841 142.843 989.759 142.109 990.677 141.558C989.943 140.64 989.392 139.722 988.658 138.621C989.759 137.887 990.677 137.153 991.778 136.418C992.512 137.52 993.063 138.437 993.797 139.355C994.899 138.621 996 137.887 997.101 137.153C999.671 140.09 1002.06 143.026 1004.63 145.963C1004.81 145.78 1004.81 145.596 1004.63 145.596C1001.51 137.52 998.57 129.443 995.266 121.366C994.532 119.347 993.43 117.512 992.145 115.676C988.658 110.903 983.885 108.15 977.828 108.15C970.486 108.15 962.96 108.15 955.618 108.15C955.251 108.15 954.884 108.15 954.333 108.15C954.149 109.802 954.149 111.454 953.966 112.923C953.415 121.366 952.681 129.994 952.13 138.437C951.58 145.229 951.212 152.021 950.662 158.813C950.662 159.363 950.845 159.73 951.396 160.098C961.492 165.421 971.404 170.56 981.499 175.884C981.866 176.067 982.233 176.251 982.6 176.251C987.006 176.251 991.411 176.251 995.816 176.251C996 176.251 996.367 176.067 996.551 175.884C997.285 174.966 997.836 173.865 998.57 172.396Z" fill="white"/>
<path d="M1032.71 186.53C1032.71 194.607 1026.29 201.031 1018.21 201.031C1010.32 201.031 1003.71 194.423 1003.71 186.53C1003.71 178.453 1010.32 172.029 1018.39 172.029C1026.29 172.029 1032.71 178.453 1032.71 186.53ZM1025.92 186.53C1025.92 182.308 1022.62 179.004 1018.39 179.004C1014.17 179.004 1010.87 182.308 1010.87 186.53C1010.87 190.752 1014.17 194.056 1018.39 194.056C1022.43 194.056 1025.92 190.752 1025.92 186.53Z" fill="white"/>
<path d="M957.82 187.999C957.82 195.157 951.947 201.031 944.604 201.031C937.446 201.031 931.572 194.974 931.572 187.815C931.572 180.656 937.446 174.782 944.604 174.782C951.947 174.782 957.82 180.656 957.82 187.999ZM937.629 187.815C937.629 191.67 940.75 194.974 944.604 194.974C948.643 194.974 951.947 191.853 951.947 187.815C951.947 183.96 948.643 180.656 944.788 180.656C940.75 180.656 937.629 183.96 937.629 187.815Z" fill="white"/>
<path d="M992.696 129.81C993.43 130.728 993.981 131.646 994.532 132.747C991.044 135.133 987.556 137.52 983.885 139.906C983.335 138.988 982.6 138.07 981.866 136.969C985.537 134.583 989.025 132.196 992.696 129.81Z" fill="white"/>
</g>
<g clip-path="url(#clip4_93_1603)">
<path d="M1286.48 237.56H1128.63C1121.47 237.56 1115.78 231.87 1115.78 224.711V66.8492C1115.78 59.6904 1121.47 54 1128.63 54H1286.48C1293.64 54 1299.33 59.6904 1299.33 66.8492V224.711C1299.33 231.87 1293.64 237.56 1286.48 237.56Z" fill="#007DB3"/>
<path d="M1227.56 153.306C1226.83 153.306 1226.09 153.489 1225.36 153.489C1206.27 153.489 1187.18 153.489 1168.09 153.489C1166.62 153.489 1166.07 153.122 1166.07 151.47C1166.26 136.785 1166.26 122.101 1166.26 107.416C1166.26 104.479 1166.99 103.745 1169.74 103.01C1176.53 101.358 1183.33 99.1556 1190.3 97.6872C1195.07 96.5858 1199.85 96.5858 1204.8 98.0543C1209.94 99.5228 1215.26 100.808 1220.4 102.093C1222.42 102.643 1224.44 103.01 1226.09 103.928C1226.83 104.295 1227.56 105.397 1227.56 106.314C1227.75 121.734 1227.56 136.969 1227.75 152.388C1227.56 152.572 1227.56 152.939 1227.56 153.306ZM1196.91 130.912C1202.23 130.912 1207.56 130.912 1212.7 130.912C1213.43 130.912 1213.98 130.361 1214.71 129.994C1213.98 129.627 1213.43 129.259 1212.7 129.076C1212.51 129.076 1212.51 129.076 1212.33 129.076C1203.15 129.076 1193.97 129.076 1184.79 129.076C1183.33 129.076 1181.86 129.259 1180.39 129.259C1179.84 129.259 1179.47 129.81 1179.1 129.994C1179.66 130.361 1180.02 130.728 1180.57 130.912C1181.12 131.095 1181.67 130.912 1182.22 130.912C1187 130.912 1191.95 130.912 1196.91 130.912ZM1196.91 135.868C1201.68 135.868 1206.64 135.868 1211.41 135.868C1211.96 135.868 1212.51 135.317 1213.25 134.95C1212.7 134.583 1211.96 134.032 1211.41 134.032C1209.21 133.848 1206.82 134.032 1204.62 134.032C1197.64 134.032 1190.67 133.848 1183.51 134.032C1182.41 134.032 1180.57 133.298 1180.57 135.133C1180.57 136.785 1182.41 136.051 1183.51 136.051C1188.1 136.051 1192.5 135.868 1196.91 135.868ZM1197.09 139.172C1192.5 139.172 1187.92 139.172 1183.51 139.172C1182.96 139.172 1182.41 139.722 1182.04 139.906C1182.59 140.273 1182.96 141.007 1183.51 141.007C1184.61 141.191 1185.71 141.191 1187 141.191C1194.71 141.191 1202.42 141.191 1210.13 141.007C1210.68 141.007 1211.41 140.273 1211.96 139.906C1211.41 139.539 1210.68 139.172 1210.13 139.172C1205.72 138.988 1201.31 139.172 1197.09 139.172ZM1192.5 103.561C1192.5 105.947 1194.34 108.15 1196.73 108.15C1198.93 108.334 1201.13 106.131 1201.13 103.745C1201.13 101.542 1199.3 99.3392 1197.09 99.3392C1194.71 99.3392 1192.69 101.358 1192.5 103.561ZM1196.73 146.147C1200.76 146.147 1204.62 146.331 1208.66 146.147C1209.21 146.147 1209.76 145.596 1210.31 145.229C1209.76 144.862 1209.21 144.128 1208.66 144.128C1200.95 144.128 1193.05 144.128 1185.35 144.128C1184.79 144.128 1184.24 144.862 1183.69 145.229C1184.24 145.596 1184.79 145.963 1185.35 145.963C1189.02 146.147 1192.87 146.147 1196.73 146.147ZM1173.78 151.654C1175.8 151.654 1177.09 150.369 1177.09 148.533C1177.09 146.881 1175.43 145.413 1173.6 145.596C1171.95 145.596 1170.48 147.248 1170.29 148.717C1170.29 150.002 1172.13 151.654 1173.78 151.654ZM1220.04 151.47C1221.87 151.47 1223.34 150.002 1223.34 148.35C1223.34 146.698 1221.69 145.229 1220.04 145.413C1218.2 145.413 1216.92 146.698 1216.92 148.533C1216.92 150.369 1218.2 151.654 1220.04 151.47Z" fill="white"/>
<path d="M1227.56 156.243C1227.56 159.18 1227.93 162.117 1227.56 164.87C1226.83 170.928 1229.22 176.067 1231.6 181.207C1231.78 181.758 1232.7 182.308 1233.44 182.308C1234.72 182.492 1236.19 182.308 1238.03 182.308C1237.84 183.593 1237.84 185.062 1237.29 185.612C1236.56 186.163 1235.09 185.98 1233.62 185.98C1234.72 188.549 1235.64 190.752 1236.56 192.955C1236.74 193.322 1237.66 193.505 1238.03 193.505C1239.49 193.505 1240.96 193.505 1242.61 193.505C1242.61 194.24 1242.61 194.607 1242.8 195.158C1242.98 196.81 1242.43 197.36 1240.78 197.36C1238.21 197.177 1238.21 197.36 1239.31 199.747C1239.31 199.93 1239.49 199.93 1239.49 200.114C1240.23 203.785 1242.25 205.804 1246.29 204.886C1247.39 204.703 1248.12 205.253 1247.75 206.355C1247.57 207.456 1248.49 209.108 1246.1 208.925C1245.18 208.925 1244.27 208.925 1242.98 208.925C1243.72 210.944 1244.45 212.779 1245.18 214.615C1244.08 214.982 1243.35 215.166 1242.61 215.349C1240.23 215.9 1239.68 215.9 1239.13 213.514C1238.03 209.842 1236.01 208.925 1232.15 208.925C1207.74 209.108 1183.33 209.108 1159.1 208.925C1157.63 208.925 1156.71 209.292 1156.16 210.76C1154.51 214.982 1154.51 214.982 1150.1 214.798C1149.74 214.798 1149.55 214.798 1148.82 214.615C1149.55 212.779 1150.29 210.944 1151.02 208.925C1149.37 208.925 1148.08 208.925 1146.25 208.925C1146.25 207.823 1146.25 206.905 1146.25 205.988C1146.25 205.07 1146.62 204.703 1147.53 204.703C1148.63 204.703 1149.74 204.703 1151.02 204.703C1152.12 204.703 1153.04 204.336 1153.41 203.234C1154.14 201.215 1154.88 199.379 1155.79 197.177C1154.88 197.177 1154.32 196.993 1153.77 196.993C1151.39 196.993 1151.39 196.993 1151.39 194.423C1151.39 194.056 1151.39 193.689 1151.57 193.138C1153.04 193.138 1154.69 193.138 1156.16 193.138C1156.71 193.138 1157.63 192.771 1157.81 192.404C1158.91 190.201 1159.83 187.999 1160.75 185.612C1160.01 185.429 1159.46 185.245 1158.91 185.245C1155.98 185.062 1155.98 185.062 1156.53 181.758C1157.81 181.758 1159.28 181.941 1160.57 181.758C1161.3 181.574 1162.4 181.207 1162.58 180.473C1163.87 177.536 1165.15 174.599 1166.26 171.478C1166.44 170.928 1166.44 170.377 1166.44 169.643C1166.44 165.054 1166.44 160.281 1166.44 155.509C1186.63 156.243 1207 156.243 1227.56 156.243ZM1225.91 182.308C1225.54 181.391 1225.36 180.656 1225.18 180.106C1223.52 176.251 1221.87 172.58 1220.4 168.725C1219.49 166.522 1218.94 164.136 1218.02 161.933C1217.65 160.832 1217.28 159.73 1215.45 159.73C1203.15 159.914 1190.85 159.914 1178.55 159.73C1177.27 159.73 1176.53 160.281 1175.98 161.382C1173.6 167.624 1171.03 174.048 1168.46 180.289C1167.72 182.125 1167.91 182.308 1169.93 182.308C1187.92 182.308 1205.72 182.308 1223.71 182.308C1224.26 182.308 1224.99 182.308 1225.91 182.308ZM1158.55 204.886C1159.83 204.886 1160.57 205.07 1161.12 205.07C1176.9 205.07 1192.5 205.07 1208.29 205.07C1216.55 205.07 1224.81 205.07 1233.07 205.07C1234.91 205.07 1235.09 204.703 1234.35 202.867C1233.8 201.582 1233.25 200.114 1232.7 198.829C1232.34 197.727 1231.6 197.177 1230.32 197.177C1207.92 197.177 1185.53 197.177 1163.14 197.177C1162.58 197.177 1161.48 197.36 1161.3 197.727C1160.57 199.93 1159.65 202.316 1158.55 204.886ZM1196.73 193.689C1205.17 193.689 1213.61 193.689 1221.87 193.689C1224.08 193.689 1226.46 193.689 1228.66 193.689C1230.13 193.689 1230.5 193.138 1229.77 191.853C1229.22 190.752 1228.66 189.651 1228.3 188.366C1227.75 186.53 1226.65 185.98 1224.81 185.98C1207.19 185.98 1189.57 186.163 1172.13 185.98C1167.91 185.98 1165.15 186.53 1164.05 191.119C1163.5 193.689 1163.14 193.873 1165.7 193.873C1176.17 193.689 1186.45 193.689 1196.73 193.689Z" fill="white"/>
<path d="M1225.91 98.605C1222.06 98.0543 1218.2 97.3201 1214.35 96.7694C1209.21 95.8516 1204.07 94.9338 1198.93 94.1996C1197.09 94.016 1194.89 94.1996 1193.05 94.5667C1184.98 95.8516 1177.09 97.1365 1169.01 98.4214C1168.64 98.4214 1168.27 98.4214 1167.72 98.4214C1167.72 97.1365 1167.54 95.668 1167.72 94.3831C1168.09 89.7941 1168.64 85.0216 1170.48 80.6161C1171.03 79.3312 1171.58 78.4134 1173.05 78.2298C1182.78 77.312 1192.32 75.1093 1202.23 76.0271C1207.74 76.5778 1213.25 77.4956 1218.94 77.8627C1221.51 78.0463 1222.97 79.1476 1223.71 81.7175C1225.18 86.8572 1226.09 92.1804 1226.09 97.6872C1226.09 98.0543 1226.09 98.2379 1225.91 98.605ZM1224.99 94.7502C1224.26 91.8133 1223.52 88.8763 1223.16 85.9394C1222.79 83.7366 1221.32 83.186 1219.49 82.8188C1216 82.4517 1212.33 81.901 1208.84 81.3504C1205.9 80.9832 1202.78 80.6161 1199.85 80.0654C1198.38 79.8819 1198.01 80.4326 1198.01 81.901C1198.19 84.6544 1198.19 87.2243 1198.19 89.9777C1198.19 92.7311 1198.38 92.7311 1201.13 93.2818C1208.29 94.5667 1215.26 95.668 1222.42 96.9529C1224.63 97.5036 1224.63 97.5036 1224.99 94.7502ZM1195.81 86.3065C1195.99 86.3065 1195.99 86.3065 1195.81 86.3065C1195.99 85.0216 1195.99 83.7366 1195.99 82.2682C1195.99 80.0654 1195.99 79.8819 1193.79 80.249C1186.81 81.1668 1180.02 82.0846 1173.23 83.186C1172.5 83.3695 1171.58 84.1038 1171.21 84.838C1169.74 88.3256 1169.19 92.1804 1169.19 95.8516C1169.19 96.9529 1169.74 97.3201 1170.84 96.9529C1172.5 96.5858 1173.96 96.2187 1175.62 96.0351C1181.49 95.1174 1187.36 94.1995 1193.24 93.0982C1195.81 92.7311 1195.99 92.5475 1195.99 89.9777C1195.81 89.0599 1195.81 87.775 1195.81 86.3065Z" fill="white"/>
<path d="M1229.95 139.906C1229.95 133.849 1229.95 127.975 1229.95 121.917C1232.15 122.284 1234.17 122.468 1236.37 122.651C1239.31 123.019 1242.43 123.569 1245.37 124.12C1246.47 124.304 1246.84 124.671 1246.84 125.956C1246.84 129.26 1247.02 132.564 1246.84 135.868C1246.84 136.418 1246.29 137.153 1245.92 137.336C1240.78 138.254 1235.64 139.172 1230.5 140.09C1230.5 140.09 1230.32 139.906 1229.95 139.906Z" fill="white"/>
<path d="M1269.05 126.506C1269.05 128.892 1269.05 131.095 1269.05 133.114C1269.05 133.481 1268.31 134.216 1267.95 134.216C1262.26 134.766 1256.57 135.317 1250.69 135.868C1249.96 135.868 1249.22 136.051 1249.22 134.766C1249.22 131.646 1249.22 128.342 1249.22 124.854C1255.83 125.588 1262.26 126.139 1269.05 126.506Z" fill="white"/>
<path d="M1216.73 171.845C1211.96 172.763 1207.37 173.497 1202.78 174.599C1195.99 176.251 1189.38 174.048 1182.78 172.947C1181.31 172.763 1179.66 172.212 1178.19 172.029C1177.09 171.845 1176.72 171.295 1177.09 170.193C1177.82 167.807 1178.19 165.237 1179.1 162.667C1179.29 162.3 1180.21 161.749 1180.94 161.749C1188.1 161.749 1195.07 161.749 1202.23 161.566C1205.72 161.566 1209.39 161.566 1212.88 161.566C1213.98 161.566 1214.53 161.933 1214.71 163.034C1215.08 165.971 1215.82 168.725 1216.73 171.845Z" fill="white"/>
</g>
<g clip-path="url(#clip5_93_1603)">
<path d="M1498.04 237.56H1340.18C1333.02 237.56 1327.33 231.87 1327.33 224.711V66.8492C1327.33 59.6904 1333.02 54 1340.18 54H1498.04C1505.2 54 1510.89 59.6904 1510.89 66.8492V224.711C1510.89 231.87 1505.2 237.56 1498.04 237.56Z" fill="#007DB3"/>
<path d="M1393.78 79.6985C1397.45 79.6985 1400.94 79.6985 1404.61 79.6985C1404.61 81.5341 1404.61 83.1861 1404.61 85.2053C1405.53 85.2053 1406.45 85.2053 1407.36 85.2053C1407.36 88.8765 1407.36 92.3641 1407.36 96.0353C1406.45 96.0353 1405.53 96.0353 1404.79 96.0353C1404.79 97.8709 1404.79 99.7065 1404.79 101.542C1405.71 101.542 1406.63 101.542 1407.36 101.542C1407.36 105.213 1407.36 108.701 1407.36 112.372C1406.45 112.372 1405.53 112.372 1404.79 112.372C1404.79 114.208 1404.79 116.043 1404.79 117.879C1405.71 117.879 1406.63 117.879 1407.55 117.879C1407.55 120.449 1407.55 123.019 1407.55 125.588C1408.28 125.038 1408.83 124.487 1409.38 123.936C1410.12 123.386 1410.3 122.835 1410.3 121.917C1410.3 120.632 1410.3 119.164 1410.3 117.695C1411.95 117.695 1413.6 117.695 1415.26 117.695C1415.62 117.695 1415.99 117.512 1416.17 117.328C1417.64 115.86 1419.11 114.391 1420.58 112.739C1420.76 112.556 1420.95 112.005 1420.95 111.821C1420.95 108.701 1420.95 105.58 1420.95 102.46C1420.95 102.093 1420.95 101.909 1420.95 101.542C1421.31 101.542 1421.5 101.542 1421.86 101.542C1424.25 101.542 1426.82 101.542 1429.21 101.542C1429.57 101.542 1429.94 101.359 1430.12 100.991C1430.68 100.074 1431.41 98.9723 1431.96 98.0545C1432.33 97.5038 1432.69 96.7695 1433.06 96.0353C1431.59 96.0353 1430.31 96.0353 1429.21 96.0353C1429.21 92.3641 1429.21 88.8765 1429.21 85.2053C1429.57 85.2053 1429.76 85.2053 1430.12 85.2053C1432.14 85.2053 1434.16 85.2053 1436.18 85.2053C1436.37 85.2053 1436.92 85.0217 1436.92 84.8381C1437.1 83.1861 1437.1 81.5341 1437.28 79.6985C1440.95 79.6985 1444.63 79.6985 1448.3 79.6985C1448.3 83.5532 1447.75 87.408 1446.64 91.0792C1445.36 96.0353 1443.16 100.624 1440.59 105.03C1436.18 112.005 1430.86 118.246 1424.98 123.936C1418.56 130.177 1411.77 136.235 1405.34 142.292C1405.16 142.476 1404.79 143.027 1404.79 143.394C1404.79 154.224 1404.79 164.87 1404.79 175.7C1404.79 175.884 1404.79 176.251 1404.79 176.435C1405.53 175.517 1406.08 174.599 1406.81 173.681C1407.36 172.947 1407.55 172.213 1407.55 171.295C1407.55 169.826 1407.55 168.358 1407.55 166.706C1408.83 166.706 1410.12 166.706 1411.4 166.706C1411.95 166.706 1412.32 166.522 1412.5 166.155C1413.79 164.687 1415.07 163.218 1416.36 161.75C1416.54 161.566 1416.54 161.566 1416.72 161.199C1413.6 161.199 1410.67 161.199 1407.55 161.199C1407.55 157.528 1407.55 154.04 1407.55 150.369C1407.91 150.369 1408.28 150.369 1408.65 150.369C1414.71 150.369 1420.95 150.369 1427 150.369C1427.37 150.369 1427.92 150.186 1428.29 150.002C1429.57 148.901 1430.86 147.616 1432.33 146.514C1432.69 146.147 1433.24 145.78 1433.8 145.046C1424.98 145.046 1416.36 145.046 1407.36 145.046C1407.73 144.495 1407.73 143.944 1408.1 143.761C1411.4 140.64 1414.71 137.703 1418.01 134.766C1418.38 134.399 1418.93 134.216 1419.29 134.216C1427.92 134.216 1436.37 134.216 1444.99 134.216C1445.54 134.216 1445.91 134.032 1446.28 133.665C1447.75 132.197 1449.21 130.728 1450.68 129.26C1450.87 129.076 1450.87 128.893 1451.23 128.709C1442.24 128.709 1433.43 128.709 1424.43 128.709C1424.62 128.525 1424.62 128.525 1424.8 128.342C1428.11 125.038 1431.23 121.55 1434.53 118.246C1434.71 118.062 1435.08 117.879 1435.45 117.879C1438.57 117.879 1441.69 117.879 1444.81 117.879C1449.76 117.879 1454.9 117.879 1459.86 117.879C1460.23 117.879 1460.59 117.879 1460.78 117.695C1461.88 116.043 1462.98 114.391 1463.9 112.739C1463.9 112.739 1463.9 112.739 1463.9 112.556C1455.82 112.556 1447.56 112.556 1439.3 112.556C1439.49 112.189 1439.67 112.005 1439.67 111.821C1441.69 108.701 1443.52 105.58 1445.54 102.46C1445.91 101.909 1446.09 101.726 1446.83 101.726C1453.99 101.726 1461.33 101.726 1468.49 101.726C1469.04 101.726 1469.41 101.542 1469.59 100.991C1469.96 99.7065 1470.51 98.4216 1470.87 97.1367C1470.87 96.9531 1471.06 96.586 1471.06 96.2189C1463.53 96.2189 1456.01 96.2189 1448.48 96.2189C1448.48 96.0353 1448.48 96.0353 1448.48 95.8517C1448.48 95.6682 1448.66 95.4846 1448.66 95.1175C1449.76 92.1805 1450.5 89.06 1450.87 86.1231C1450.87 85.3888 1451.23 85.2053 1451.78 85.2053C1458.58 85.2053 1465.18 85.2053 1471.98 85.2053C1472.34 85.2053 1472.53 85.2053 1472.89 85.2053C1472.89 83.3697 1473.08 81.5341 1473.08 79.6985C1476.75 79.6985 1480.24 79.6985 1483.91 79.6985C1483.91 81.5341 1483.91 83.1861 1483.91 85.2053C1484.82 85.2053 1485.74 85.2053 1486.66 85.2053C1486.66 88.8765 1486.66 92.3641 1486.66 96.0353C1485.37 96.0353 1484.09 96.0353 1482.8 96.0353C1482.62 96.0353 1482.25 96.2189 1482.25 96.4024C1481.89 98.0545 1481.34 99.7065 1480.97 101.542C1482.07 101.542 1482.99 101.542 1483.91 101.542C1483.91 105.213 1483.91 108.701 1483.91 112.372C1483.72 112.372 1483.72 112.372 1483.54 112.372C1482.07 112.372 1480.42 112.556 1478.95 112.372C1477.11 112.189 1476.2 112.739 1475.46 114.391C1475.1 115.493 1474.36 116.594 1473.63 117.695C1474.36 117.695 1474.91 117.695 1475.65 117.695C1475.65 121.367 1475.65 124.854 1475.65 128.525C1475.28 128.525 1474.91 128.525 1474.54 128.525C1471.79 128.525 1469.04 128.525 1466.47 128.525C1466.1 128.525 1465.73 128.709 1465.55 128.893C1464.27 130.545 1462.8 132.013 1461.51 133.665V133.849C1461.7 133.849 1461.88 133.849 1462.06 134.032C1462.06 137.703 1462.06 141.191 1462.06 144.862C1461.7 144.862 1461.51 144.862 1461.33 144.862C1457.84 144.862 1454.35 144.862 1450.87 144.862C1450.5 144.862 1449.95 145.046 1449.76 145.229C1448.66 146.147 1447.56 147.249 1446.28 148.35C1445.54 148.901 1444.99 149.451 1444.26 150.185C1444.81 150.185 1445.36 150.185 1445.73 150.185C1445.73 153.857 1445.73 157.344 1445.73 161.016C1445.36 161.016 1445.18 161.016 1444.81 161.016C1441.87 161.016 1438.94 161.016 1436 161.016C1434.71 161.016 1433.43 160.648 1432.33 161.199C1431.23 161.566 1430.49 162.851 1429.57 163.769C1428.66 164.687 1427.92 165.421 1427 166.339V166.522C1427.74 166.522 1428.66 166.522 1429.39 166.522C1429.39 170.194 1429.39 173.681 1429.39 177.352C1429.02 177.352 1428.84 177.352 1428.47 177.352C1424.98 177.352 1421.68 177.352 1418.19 177.352C1417.64 177.352 1417.46 177.536 1417.09 177.903C1414.34 181.941 1411.77 185.98 1409.93 190.569C1408.83 193.322 1407.91 196.075 1406.81 199.196C1407.73 199.012 1407.73 199.563 1407.73 199.93C1407.73 203.051 1407.73 206.171 1407.73 209.292C1407.73 209.475 1407.73 209.842 1407.73 210.026C1407.36 210.026 1407 210.026 1406.63 210.026C1405.16 210.026 1405.34 209.659 1405.16 211.311C1405.16 212.596 1405.16 214.064 1405.16 215.349C1401.31 215.349 1397.82 215.349 1394.15 215.349C1394.15 213.514 1394.15 211.862 1394.15 209.843C1386.81 209.843 1379.65 209.843 1372.49 209.843C1372.49 206.171 1372.49 202.684 1372.49 199.012C1379.65 199.012 1386.99 199.012 1394.15 199.012C1394.15 197.177 1394.15 195.341 1394.15 193.506C1387.17 193.506 1380.2 193.506 1373.04 193.506C1373.04 193.322 1373.04 193.139 1373.04 193.139C1373.59 189.834 1374.51 186.714 1375.61 183.593C1375.79 183.043 1376.16 182.859 1376.71 182.859C1382.22 182.859 1387.54 182.859 1393.05 182.859C1393.41 182.859 1393.6 182.859 1393.96 182.859C1393.96 181.024 1393.96 179.372 1393.96 177.536C1388.82 177.536 1383.68 177.536 1378.55 177.536C1378.73 177.352 1378.73 177.169 1378.73 176.985C1380.56 173.498 1382.77 170.194 1385.15 167.073C1385.34 166.889 1385.7 166.706 1386.07 166.706C1388.09 166.706 1390.29 166.706 1392.31 166.706C1392.86 166.706 1393.41 166.706 1393.96 166.706C1393.96 164.87 1393.96 163.035 1393.96 161.199C1392.68 161.199 1391.39 161.199 1389.93 161.199C1390.29 160.832 1390.48 160.648 1390.66 160.465C1391.58 159.363 1392.68 158.262 1393.6 157.344C1393.78 157.161 1393.96 156.977 1393.96 156.794C1393.96 155.509 1393.96 154.407 1393.96 153.122C1393.78 153.306 1393.78 153.306 1393.6 153.306C1392.68 154.224 1391.58 155.325 1390.66 156.243C1385.52 161.75 1380.75 167.44 1377.08 173.865C1372.49 181.758 1369.73 190.018 1369.55 199.196C1369.37 204.336 1369.55 209.292 1369.55 214.432C1369.55 214.799 1369.55 214.982 1369.55 215.349C1365.88 215.349 1362.39 215.349 1358.72 215.349C1358.72 213.514 1358.72 211.862 1358.72 209.843C1357.8 209.843 1356.89 209.843 1355.97 209.843C1355.97 206.171 1355.97 202.684 1355.97 199.012C1356.89 199.012 1357.8 199.012 1358.54 199.012C1358.54 197.177 1358.54 195.341 1358.54 193.506C1357.62 193.506 1356.7 193.506 1355.97 193.506C1355.97 189.834 1355.97 186.347 1355.97 182.676C1356.89 182.676 1357.8 182.676 1358.54 182.676C1358.54 180.84 1358.54 179.188 1358.54 177.352C1357.62 177.352 1356.89 177.352 1355.97 177.352C1355.97 173.681 1355.97 170.194 1355.97 166.522C1356.89 166.522 1357.62 166.522 1358.54 166.522C1358.54 164.687 1358.54 162.851 1358.54 161.016C1357.62 161.016 1356.89 161.016 1355.97 161.016C1355.97 157.344 1355.97 153.673 1355.97 150.002C1356.89 150.002 1357.8 150.002 1358.54 150.002C1358.54 148.166 1358.54 146.514 1358.54 144.679C1357.62 144.679 1356.7 144.679 1355.97 144.679C1355.97 141.007 1355.97 137.52 1355.97 133.849C1356.89 133.849 1357.8 133.849 1358.54 133.849C1358.54 132.013 1358.54 130.177 1358.54 128.342C1357.62 128.342 1356.7 128.342 1355.97 128.342C1355.97 124.671 1355.97 121.183 1355.97 117.512C1356.89 117.512 1357.62 117.512 1358.54 117.512C1358.54 115.86 1358.54 114.391 1358.54 112.739C1358.54 112.189 1358.35 112.005 1357.8 112.005C1357.07 112.005 1356.52 112.005 1355.78 112.005C1355.78 108.334 1355.78 104.846 1355.78 101.175C1356.7 101.175 1357.62 101.175 1358.35 101.175C1358.35 99.3394 1358.35 97.5038 1358.35 95.6682C1357.44 95.6682 1356.52 95.6682 1355.78 95.6682C1355.78 91.997 1355.78 88.5093 1355.78 84.8381C1356.7 84.8381 1357.62 84.8381 1358.54 84.8381C1358.54 83.0025 1358.54 81.1669 1358.54 79.5149C1362.21 79.5149 1365.7 79.5149 1369.37 79.5149C1369.37 82.4519 1369.37 85.3888 1369.37 88.3258C1369.37 113.657 1369.37 138.988 1369.37 164.32C1369.37 164.503 1369.37 164.87 1369.37 165.237C1370.1 164.136 1370.84 163.035 1371.57 162.117C1371.94 161.566 1372.12 161.016 1372.12 160.281C1372.12 157.161 1372.12 154.04 1372.12 150.92C1372.12 150.736 1372.12 150.369 1372.12 150.185C1372.49 150.185 1372.67 150.185 1373.04 150.185C1375.61 150.185 1378.18 150.185 1380.56 150.185C1380.93 150.185 1381.3 150.002 1381.67 149.635C1382.4 148.901 1383.32 147.983 1384.05 147.249C1384.79 146.514 1385.52 145.78 1386.44 144.862C1381.48 144.862 1376.89 144.862 1372.12 144.862C1372.12 141.191 1372.12 137.703 1372.12 134.032C1379.28 134.032 1386.62 134.032 1393.78 134.032C1393.78 132.197 1393.78 130.361 1393.78 128.525C1386.62 128.525 1379.28 128.525 1372.12 128.525C1372.12 124.854 1372.12 121.367 1372.12 117.695C1379.28 117.695 1386.62 117.695 1393.78 117.695C1393.78 115.86 1393.78 114.208 1393.78 112.189C1386.62 112.189 1379.28 112.189 1372.12 112.189C1372.12 108.517 1372.12 105.03 1372.12 101.359C1379.46 101.359 1386.62 101.359 1393.78 101.359C1393.78 99.5229 1393.78 97.6873 1393.78 95.8517C1386.44 95.8517 1379.28 95.8517 1372.12 95.8517C1372.12 92.1805 1372.12 88.6929 1372.12 85.0217C1379.28 85.0217 1386.62 85.0217 1393.78 85.0217C1393.78 83.1861 1393.78 81.5341 1393.78 79.6985Z" fill="white"/>
<path d="M1371.02 217.368H1356.7V211.862H1353.95V197.36H1356.52V195.525H1353.95V181.023H1356.52V179.371H1353.95V164.87H1356.52V163.035H1353.95V148.35H1356.52V146.698H1353.95V132.197H1356.52V130.361H1353.95V115.86H1356.7C1356.7 115.309 1356.7 114.758 1356.7 114.208H1356.52H1354.13V99.7064H1356.7V97.8708H1354.13V83.3696H1356.7V77.8628H1371.2V82.4518C1371.2 82.6354 1371.2 83.0025 1371.2 83.186H1391.94V77.8628H1406.45V83.3696H1409.2V97.8708H1406.63V99.7064H1409.2V114.208H1406.63V116.043H1411.59C1412.69 116.043 1413.97 116.043 1415.07 116.043C1416.54 114.575 1417.83 113.29 1419.29 111.821C1419.29 109.435 1419.29 107.049 1419.29 104.663V99.7064H1423.88C1425.54 99.7064 1427.19 99.7064 1429.02 99.7064C1429.21 99.3393 1429.57 98.7886 1429.76 98.4215C1429.94 98.238 1429.94 98.0544 1430.12 97.8708H1427.55V83.3696H1431.59C1432.88 83.3696 1433.98 83.3696 1435.26 83.3696C1435.26 82.4518 1435.45 81.534 1435.45 80.6162L1435.63 77.8628H1450.13V79.6984C1450.13 80.9833 1450.13 82.2682 1449.95 83.7367C1450.32 83.5532 1450.87 83.3696 1451.6 83.3696C1456.92 83.3696 1462.06 83.3696 1467.39 83.3696H1471.06L1471.24 77.8628H1485.19V83.3696H1487.94V97.8708H1485.19C1484.64 97.8708 1483.91 97.8708 1483.36 97.8708C1483.17 98.4215 1482.99 98.9722 1482.99 99.7064H1485.19V114.024L1483.54 114.208C1483.36 114.208 1483.17 114.208 1482.99 114.208C1482.62 114.208 1482.07 114.208 1481.7 114.208C1480.6 114.208 1479.5 114.208 1478.22 114.208C1477.11 114.024 1477.11 114.208 1476.75 115.125C1476.56 115.493 1476.56 115.676 1476.38 116.043H1477.11V130.545H1472.53C1470.51 130.545 1468.49 130.545 1466.47 130.545C1465.55 131.646 1464.63 132.747 1463.72 133.849V146.881H1458.58C1456.01 146.881 1453.25 146.881 1450.68 146.881C1449.95 147.616 1449.03 148.35 1448.3 149.084L1447.38 149.818V163.035H1435.81C1435.45 163.035 1435.08 163.035 1434.53 163.035C1433.8 163.035 1433.06 162.851 1432.69 163.035C1432.33 163.218 1431.78 163.769 1431.23 164.32C1431.04 164.503 1430.86 164.687 1430.68 164.87V179.371H1425.54C1422.97 179.371 1420.4 179.371 1417.83 179.371C1414.89 183.593 1412.69 187.448 1411.03 191.303C1410.3 193.138 1409.57 194.974 1408.83 196.993C1408.65 197.36 1408.46 197.727 1408.46 198.278C1408.83 198.829 1408.83 199.563 1408.83 199.93V209.292C1408.83 209.475 1408.83 209.659 1408.83 209.842L1408.65 211.862H1406.45C1406.26 211.862 1406.26 211.862 1406.08 211.862C1406.08 212.596 1406.08 213.33 1406.08 214.064V217.185H1391.39V211.678H1371.2C1371.2 212.596 1371.2 213.514 1371.2 214.248C1371.2 214.431 1371.2 214.799 1371.2 214.982L1371.02 217.368ZM1360.37 213.697H1367.53C1367.53 212.412 1367.53 211.127 1367.53 209.842C1367.53 206.355 1367.53 202.867 1367.53 199.379C1367.72 190.385 1370.29 181.758 1375.42 173.13C1378.91 167.257 1383.13 161.566 1389.19 155.142C1389.93 154.407 1390.66 153.673 1391.39 152.939L1392.68 151.654L1395.43 149.818L1395.62 154.04C1395.62 154.958 1395.62 155.876 1395.62 156.794C1395.62 157.711 1395.07 158.262 1394.88 158.446L1393.96 159.363H1395.62V168.541H1390.66C1389.19 168.541 1387.72 168.541 1386.07 168.541C1384.24 170.928 1382.77 173.314 1381.3 175.7H1395.62V184.695L1393.6 184.878C1393.41 184.878 1393.05 184.878 1392.86 184.878H1390.11C1385.7 184.878 1381.3 184.878 1376.89 184.878C1375.98 187.265 1375.42 189.651 1374.87 192.037H1395.62V201.215H1373.96V208.19H1395.62V213.697H1402.96C1402.96 212.963 1402.96 212.229 1402.96 211.494V211.127C1402.96 210.393 1402.96 209.842 1403.51 209.292C1404.24 208.374 1405.16 208.374 1405.71 208.374V201.399L1403.88 201.766L1404.98 198.645C1405.34 197.727 1405.71 196.81 1405.9 195.892C1406.63 193.873 1407.36 191.854 1408.1 190.018C1409.75 185.796 1412.14 181.574 1415.44 176.985C1415.99 176.067 1416.91 175.7 1418.01 175.7C1420.58 175.7 1423.33 175.7 1425.9 175.7H1427.37V168.541H1425.72L1424.62 166.339L1425.35 165.237L1426.09 164.503C1426.64 163.952 1427.37 163.218 1427.92 162.668C1428.11 162.484 1428.29 162.117 1428.66 161.933C1429.39 161.199 1430.12 160.281 1431.41 159.731C1432.51 159.18 1433.8 159.363 1434.9 159.363C1435.26 159.363 1435.63 159.363 1435.81 159.363H1443.71V152.021L1439.67 151.837L1445.73 146.331C1446.64 145.596 1447.38 144.679 1448.3 143.944C1448.85 143.394 1449.76 143.027 1450.68 143.027C1453.44 143.027 1456.01 143.027 1458.76 143.027H1460.23V135.684L1459.31 135.501L1459.68 133.665C1459.68 133.665 1459.68 133.114 1460.23 132.564L1460.96 131.829C1462.06 130.545 1463.16 129.26 1464.27 127.791C1464.82 127.24 1465.73 126.69 1466.65 126.69C1468.85 126.69 1470.87 126.69 1473.08 126.69H1473.99V119.531H1470.87L1472.34 116.778C1472.53 116.41 1472.71 116.043 1473.08 115.676C1473.44 114.942 1473.81 114.391 1473.99 113.657C1474.91 111.087 1476.75 109.986 1479.32 110.353C1480.24 110.536 1481.15 110.353 1482.07 110.353V103.194H1478.58L1479.5 99.7064C1479.87 98.2379 1480.24 96.953 1480.6 95.6681C1480.97 94.5668 1482.07 94.0161 1482.99 94.0161C1483.72 94.0161 1484.27 94.0161 1485.01 94.0161V87.0408H1481.52V81.534H1474.36L1474.18 87.0408H1467.02C1462.06 87.0408 1457.11 87.0408 1451.97 87.0408C1451.6 89.4271 1451.05 91.8134 1450.32 94.1996H1472.71L1472.34 96.5859C1472.34 96.953 1472.16 97.1366 1472.16 97.3202L1471.61 98.7886C1471.42 99.5229 1471.06 100.441 1470.87 101.175C1470.69 101.909 1469.96 103.194 1468.12 103.194C1464.63 103.194 1461.15 103.194 1457.47 103.194C1453.8 103.194 1450.32 103.194 1446.64 103.194C1445.18 105.58 1443.71 107.967 1442.24 110.353H1464.82L1465.18 111.638C1465.55 112.556 1465.37 113.106 1465 113.473L1464.45 114.391C1463.53 115.86 1462.8 117.145 1461.88 118.43C1461.33 119.347 1460.04 119.531 1459.49 119.531C1455.46 119.531 1451.23 119.531 1447.2 119.531H1442.61C1440.22 119.531 1437.83 119.531 1435.26 119.531C1433.06 121.917 1430.68 124.303 1428.47 126.69H1454.9L1452.15 129.994C1451.97 130.177 1451.78 130.361 1451.78 130.545L1450.32 131.829C1449.21 132.747 1448.3 133.849 1447.38 134.766C1446.64 135.501 1445.91 135.868 1444.81 135.868C1436.18 135.868 1427.74 135.868 1419.11 135.868C1416.36 138.254 1413.79 140.64 1411.22 143.027H1438.38L1434.35 146.698C1433.98 147.065 1433.61 147.248 1433.43 147.616L1432.51 148.35C1431.41 149.268 1430.49 150.185 1429.39 151.103C1428.66 151.654 1427.92 152.021 1427 152.021C1422.05 152.021 1417.09 152.021 1412.14 152.021H1409.38V159.18H1420.03L1418.01 162.3C1417.83 162.484 1417.83 162.668 1417.64 162.851L1416.36 164.32C1415.44 165.237 1414.71 166.155 1413.79 167.257C1413.05 168.174 1412.32 168.541 1411.22 168.358C1410.48 168.358 1409.93 168.358 1409.2 168.358C1409.2 169.276 1409.2 170.193 1409.2 170.928C1409.2 172.213 1408.83 173.498 1408.1 174.415C1407.91 174.782 1407.55 175.15 1407.36 175.333C1407 175.884 1406.45 176.618 1405.9 177.169L1402.59 180.84V171.845C1402.59 162.117 1402.59 152.572 1402.59 142.843C1402.59 141.925 1402.96 141.007 1403.69 140.457C1405.9 138.438 1408.28 136.235 1410.48 134.216C1414.71 130.361 1419.11 126.323 1423.33 122.101C1429.76 115.86 1434.71 109.986 1438.57 103.561C1441.32 98.9722 1443.34 94.5668 1444.44 90.1613C1445.36 86.8572 1445.73 83.7367 1445.91 80.9833H1438.57C1438.57 82.0847 1438.38 83.186 1438.38 84.471C1438.2 85.7559 1436.92 86.4901 1436 86.4901C1434.35 86.4901 1432.88 86.4901 1431.23 86.4901H1430.86V93.649H1436L1434.16 96.953C1433.98 97.5037 1433.61 97.8708 1433.43 98.4215C1433.06 98.9722 1432.88 99.3393 1432.51 99.89C1432.14 100.441 1431.78 100.991 1431.59 101.358C1431.23 102.093 1430.49 102.827 1429.02 102.827C1427.19 102.827 1425.35 102.827 1423.52 102.827H1422.6V104.112C1422.6 106.498 1422.6 108.884 1422.6 111.454C1422.6 112.372 1422.23 113.106 1421.68 113.657C1420.21 115.125 1418.74 116.778 1417.09 118.246C1416.54 118.797 1415.62 119.164 1414.89 119.164C1413.79 119.164 1412.69 119.164 1411.59 119.164C1411.59 119.898 1411.59 120.632 1411.59 121.367C1411.77 122.835 1411.22 124.12 1409.93 125.038C1409.57 125.221 1409.2 125.588 1408.83 125.956L1405.16 129.26V119.164H1402.41V109.986H1404.98V102.827H1402.41V93.649H1404.98V87.0408H1402.22V81.534H1395.07V86.8572H1373.96V94.0161H1395.62V103.194H1373.96V110.353H1395.62V119.531H1373.96V126.69H1395.62V135.868H1373.96V143.027H1390.66L1384.79 149.268C1384.24 149.818 1383.68 150.553 1382.95 151.103C1382.4 151.654 1381.48 152.021 1380.56 152.021C1378.55 152.021 1376.71 152.021 1374.69 152.021H1373.77V153.306C1373.77 155.692 1373.77 158.079 1373.77 160.281C1373.77 161.383 1373.59 162.3 1372.86 163.218C1372.3 163.952 1371.94 164.503 1371.39 165.237L1367.72 171.111L1367.35 165.054C1367.35 164.87 1367.35 164.503 1367.35 164.32V88.3257C1367.35 86.3066 1367.35 84.2874 1367.35 82.2682V81.3504H1360.37V86.6737H1357.62V93.8325H1360.19V103.011H1357.62V110.169H1357.8C1358.17 110.169 1358.9 110.169 1359.46 110.904C1360.01 111.454 1360.19 112.005 1360.19 112.739C1360.19 113.841 1360.19 114.942 1360.19 116.043V119.347H1357.62V126.506H1360.19V135.684H1357.62V142.843H1360.19V151.837H1357.62V159.18H1360.19V168.358H1357.62V175.517H1360.19V184.511H1357.62V191.67H1360.19V200.848H1357.62V208.19H1360.37V213.697ZM1371.2 197.36H1391.76V195.525H1371.39C1371.39 196.259 1371.39 196.81 1371.2 197.36ZM1376.16 179.371C1375.79 180.106 1375.61 180.656 1375.24 181.391C1375.61 181.207 1375.98 181.207 1376.34 181.207C1380.93 181.207 1385.34 181.207 1389.93 181.207H1391.76V179.371H1376.16ZM1386.99 163.035C1386.44 163.585 1386.07 164.32 1385.52 164.87C1385.7 164.87 1385.7 164.87 1385.89 164.87C1387.54 164.87 1389.19 164.87 1390.66 164.87H1391.94V163.035H1386.99ZM1409.57 164.87C1410.12 164.87 1410.48 164.87 1411.03 164.87C1411.59 164.32 1412.14 163.585 1412.5 163.035H1406.26C1406.26 163.585 1406.26 164.136 1406.26 164.87H1408.28C1408.83 164.87 1409.2 164.87 1409.57 164.87ZM1371.2 148.533H1374.87C1376.71 148.533 1378.73 148.533 1380.56 148.533C1380.93 147.983 1381.48 147.432 1382.03 146.881H1371.2V148.533ZM1406.45 148.533H1411.95C1416.91 148.533 1421.86 148.533 1426.82 148.533C1427.55 147.983 1428.11 147.432 1428.84 146.881H1406.45C1406.45 147.432 1406.45 147.983 1406.45 148.533ZM1420.58 130.361C1419.85 130.912 1419.29 131.646 1418.56 132.197C1418.74 132.197 1418.74 132.197 1418.93 132.197C1427.55 132.197 1436 132.197 1444.63 132.197C1445.18 131.646 1445.73 130.912 1446.46 130.361H1420.58ZM1371.2 132.197H1391.94V130.361H1371.2V132.197ZM1436.37 114.024C1435.81 114.575 1435.45 115.309 1434.9 115.86C1434.9 115.86 1434.9 115.86 1435.08 115.86C1437.65 115.86 1440.04 115.86 1442.61 115.86H1447.2C1451.23 115.86 1455.27 115.86 1459.31 115.86C1459.68 115.309 1460.04 114.575 1460.41 114.024H1436.37ZM1371.2 115.86H1391.94V114.024H1371.2V115.86ZM1446.28 97.6873C1446.09 98.4215 1445.73 98.9722 1445.36 99.7064C1445.73 99.7064 1446.09 99.5229 1446.28 99.5229C1449.95 99.5229 1453.62 99.5229 1457.29 99.5229C1460.59 99.5229 1463.9 99.5229 1467.39 99.5229C1467.57 98.9722 1467.75 98.2379 1467.94 97.6873H1446.28ZM1371.2 99.5229H1391.94V97.6873H1371.2V99.5229Z" fill="#007DB3"/>
</g>
<g clip-path="url(#clip6_93_1603)">
<path d="M1709.6 237.56H1551.74C1544.58 237.56 1538.89 231.87 1538.89 224.711V66.8492C1538.89 59.6904 1544.58 54 1551.74 54H1709.6C1716.75 54 1722.44 59.6904 1722.44 66.8492V224.711C1722.44 231.87 1716.75 237.56 1709.6 237.56Z" fill="#007DB3"/>
<path d="M1660.77 165.972C1660.77 177.903 1660.77 189.651 1660.77 201.582C1600.38 201.582 1618.74 201.582 1558.35 201.582C1558.35 189.834 1558.35 177.903 1558.35 165.972C1618.74 165.972 1600.38 165.972 1660.77 165.972Z" fill="white" stroke="#007DB3" stroke-miterlimit="10"/>
<path d="M1580.74 163.585C1580.74 151.654 1580.74 139.906 1580.74 127.975C1627.36 127.975 1595.24 127.975 1641.86 127.975C1641.86 139.906 1641.86 151.654 1641.86 163.585C1595.24 163.585 1627.36 163.585 1580.74 163.585Z" fill="white" stroke="#007DB3" stroke-miterlimit="10"/>
<path d="M1600.75 89.9778C1634.52 89.9778 1589.55 89.9778 1623.14 89.9778C1623.14 101.909 1623.14 113.657 1623.14 125.588C1589.55 125.588 1634.52 125.588 1600.75 125.588C1600.75 113.657 1600.75 101.909 1600.75 89.9778Z" fill="white" stroke="#007DB3" stroke-miterlimit="10"/>
<path d="M1643.88 155.692C1656.18 151.654 1663.34 142.109 1666.46 127.975C1669.95 127.975 1673.44 127.975 1677.11 127.975C1676 133.114 1674.35 138.07 1672.15 142.476C1667.56 152.021 1660.77 158.813 1652.33 163.402C1652.14 163.585 1651.78 163.769 1651.59 163.769C1649.02 163.769 1646.45 163.769 1643.88 163.769C1643.88 161.015 1643.88 158.446 1643.88 155.692Z" fill="white" stroke="#007DB3" stroke-miterlimit="10"/>
<path d="M1625.16 125.588C1625.16 123.019 1625.16 120.632 1625.16 118.43C1625.16 118.062 1625.89 117.512 1626.44 117.328C1631.4 115.493 1635.81 112.556 1639.48 108.15C1643.33 103.561 1645.9 97.8708 1647.37 91.6298C1647.55 91.0791 1647.55 90.5284 1647.74 89.7942C1651.22 89.7942 1654.9 89.7942 1658.75 89.7942C1657.47 93.4654 1656.55 97.1366 1655.26 100.441C1650.86 111.271 1644.07 119.347 1634.89 124.487C1633.97 125.038 1632.69 125.221 1631.58 125.405C1629.38 125.772 1627.36 125.588 1625.16 125.588Z" fill="white" stroke="#007DB3" stroke-miterlimit="10"/>
<path d="M1685.55 165.972C1689.04 165.972 1692.52 165.972 1696.01 165.972C1696.01 166.339 1696.01 166.706 1695.83 167.073C1691.97 182.492 1684.26 194.423 1671.6 201.215C1671.05 201.582 1670.31 201.766 1669.58 201.766C1667.38 201.766 1665.18 201.766 1662.61 201.766C1662.61 199.196 1662.61 196.81 1662.61 194.24C1662.61 193.873 1662.97 193.506 1663.34 193.506C1675.27 189.467 1682.06 179.922 1685.18 166.339C1685.37 166.155 1685.37 166.155 1685.55 165.972Z" fill="white" stroke="#007DB3" stroke-miterlimit="10"/>
<path d="M1679.68 127.791C1680.96 127.791 1682.25 127.791 1683.35 127.791C1683.53 127.791 1683.71 127.791 1684.08 127.975C1684.08 129.076 1684.08 130.178 1684.08 131.279C1684.08 134.216 1683.9 137.336 1684.08 140.273C1684.45 143.945 1683.35 147.249 1681.7 150.369C1679.13 155.142 1676.37 159.547 1672.7 163.035C1672.33 163.402 1671.78 163.769 1671.23 163.769C1666.64 163.769 1661.87 163.769 1657.1 163.585C1669.4 155.325 1676.19 143.21 1679.68 127.791Z" fill="white" stroke="#007DB3" stroke-miterlimit="10"/>
<path d="M1660.95 89.7942C1662.42 89.7942 1663.52 89.7942 1664.81 89.7942C1664.99 89.7942 1665.18 89.7942 1665.54 89.9778C1665.54 93.0983 1665.54 96.2188 1665.54 99.1557C1665.54 99.7064 1665.54 100.441 1665.54 100.991C1666.28 106.315 1664.44 110.72 1661.87 114.575C1659.67 118.246 1656.92 121.367 1654.35 124.854C1653.98 125.221 1653.61 125.588 1653.24 125.588C1648.47 125.588 1643.88 125.588 1639.11 125.405C1650.67 117.328 1657.65 105.03 1660.95 89.7942Z" fill="white" stroke="#007DB3" stroke-miterlimit="10"/>
<path d="M1698.58 165.972C1700.05 165.972 1701.34 165.972 1702.99 165.972C1702.99 166.522 1702.99 167.073 1702.99 167.624C1702.99 172.396 1702.99 177.352 1702.99 182.125C1702.99 182.859 1702.8 183.593 1702.62 184.328C1700.05 190.752 1696.56 196.443 1691.97 201.032C1691.61 201.399 1690.87 201.766 1690.51 201.766C1685.92 201.766 1681.51 201.766 1676.92 201.766C1676.74 201.766 1676.74 201.766 1676.37 201.582C1688.12 193.322 1695.09 181.207 1698.58 165.972Z" fill="white" stroke="#007DB3" stroke-miterlimit="10"/>
<path d="M1636.91 89.9778C1639.66 89.9778 1642.41 89.9778 1645.35 89.9778C1644.25 100.808 1634.89 112.372 1625.34 114.758C1625.34 111.271 1625.34 107.6 1625.34 103.928C1631.58 102.093 1635.44 97.3202 1636.91 89.9778Z" fill="white" stroke="#007DB3" stroke-miterlimit="10"/>
<path d="M1643.88 152.755C1643.88 149.268 1643.88 145.597 1643.88 141.925C1650.31 140.09 1654.16 135.317 1655.63 127.791C1658.38 127.791 1661.14 127.791 1664.07 127.791C1663.16 138.438 1652.88 150.92 1643.88 152.755Z" fill="white" stroke="#007DB3" stroke-miterlimit="10"/>
<path d="M1682.8 165.788C1680.96 177.352 1671.97 188.55 1662.61 190.752C1662.61 188.55 1662.79 186.347 1662.61 184.328C1662.24 181.391 1662.97 179.739 1665.73 178.637C1670.31 176.802 1672.88 172.58 1673.99 167.257C1674.17 166.155 1674.54 165.788 1675.64 165.788C1678.02 165.972 1680.41 165.788 1682.8 165.788Z" fill="white" stroke="#007DB3" stroke-miterlimit="10"/>
<path d="M1625.34 89.9778C1628.46 89.9778 1631.4 89.9778 1634.52 89.9778C1633.79 95.301 1629.75 100.074 1625.34 100.991C1625.34 97.3202 1625.34 93.649 1625.34 89.9778Z" fill="white" stroke="#007DB3" stroke-miterlimit="10"/>
<path d="M1643.88 139.172C1643.88 135.501 1643.88 131.829 1643.88 127.975C1647 127.975 1649.94 127.975 1653.06 127.975C1652.69 132.747 1648.66 137.887 1643.88 139.172Z" fill="white" stroke="#007DB3" stroke-miterlimit="10"/>
<path d="M1662.79 176.985C1662.79 173.314 1662.79 169.826 1662.79 165.972C1665.91 165.972 1668.85 165.972 1671.97 165.972C1671.23 171.295 1666.83 176.618 1662.79 176.985Z" fill="white" stroke="#007DB3" stroke-miterlimit="10"/>
<path d="M1684.26 163.585C1681.51 163.585 1678.94 163.585 1676.37 163.585C1678.94 159.547 1681.7 155.692 1684.26 151.654C1684.26 155.509 1684.26 159.547 1684.26 163.585Z" fill="white" stroke="#007DB3" stroke-miterlimit="10"/>
<path d="M1665.36 125.588C1662.61 125.588 1660.04 125.588 1657.47 125.588C1660.04 121.734 1662.79 117.695 1665.36 113.841C1665.36 117.512 1665.36 121.367 1665.36 125.588Z" fill="white" stroke="#007DB3" stroke-miterlimit="10"/>
<path d="M1702.8 189.834C1702.8 193.506 1702.8 197.544 1702.8 201.582C1700.05 201.582 1697.48 201.582 1694.91 201.582C1697.66 197.728 1700.23 193.873 1702.8 189.834Z" fill="white" stroke="#007DB3" stroke-miterlimit="10"/>
</g>
<g clip-path="url(#clip7_93_1603)">
<path d="M1921.15 237.56H1763.29C1756.13 237.56 1750.44 231.87 1750.44 224.711V66.8492C1750.44 59.6904 1756.13 54 1763.29 54H1921.15C1928.31 54 1934 59.6904 1934 66.8492V224.711C1934 231.87 1928.31 237.56 1921.15 237.56Z" fill="#007DB3"/>
<path d="M1850.3 90.3447C1850.48 90.3447 1850.48 90.3447 1850.67 90.3447C1850.67 90.5283 1850.67 90.7118 1850.67 90.8954C1850.67 109.802 1850.67 128.892 1850.67 147.799C1850.67 165.421 1850.67 183.043 1850.67 200.664C1850.67 200.848 1850.67 201.215 1850.67 201.399C1850.48 201.399 1850.3 201.399 1850.12 201.399C1838.92 199.012 1827.72 196.993 1816.52 194.79C1807.9 193.138 1799.27 191.486 1790.46 189.834C1789.17 189.651 1787.89 189.467 1786.6 189.1C1786.6 160.281 1786.6 131.462 1786.6 102.46C1787.52 102.276 1788.44 102.093 1789.17 101.909C1802.57 99.3392 1815.97 96.7693 1829.37 94.1995C1835.06 93.0981 1840.75 91.9968 1846.44 90.8954C1847.91 90.8954 1849.01 90.5283 1850.3 90.3447ZM1833.41 167.44C1836.35 152.939 1839.29 138.621 1842.41 124.303C1842.22 124.303 1842.04 124.303 1842.04 124.303C1839.84 124.303 1837.45 124.303 1835.25 124.303C1834.88 124.303 1834.7 124.487 1834.7 124.854C1833.96 129.259 1833.23 133.848 1832.49 138.254C1831.58 143.761 1830.66 149.084 1829.92 154.591C1829.74 155.325 1829.74 156.243 1829.56 156.977C1829.37 155.692 1829.19 154.591 1829.01 153.306C1827.17 143.761 1825.34 134.399 1823.5 124.854C1823.5 124.487 1823.32 124.303 1822.77 124.303C1820.38 124.303 1818.18 124.303 1815.79 124.303C1815.42 124.303 1815.24 124.487 1815.06 124.854C1813.22 133.114 1811.57 141.374 1809.73 149.635C1809.18 152.388 1808.63 155.141 1808.26 157.711C1808.26 157.711 1808.26 157.344 1808.26 157.161C1808.08 155.876 1808.08 154.591 1807.9 153.306C1806.43 143.761 1804.78 134.399 1803.12 124.854C1803.12 124.487 1802.94 124.303 1802.39 124.303C1800 124.303 1797.8 124.303 1795.42 124.303C1795.23 124.303 1795.05 124.303 1794.86 124.303C1797.8 138.805 1800.74 153.122 1803.68 167.44C1806.43 167.44 1809 167.44 1811.57 167.44C1812.12 167.44 1812.3 167.256 1812.49 166.706C1813.95 159.547 1815.42 152.388 1816.89 145.046C1817.63 141.742 1818.36 138.621 1818.54 135.133C1818.54 135.133 1818.54 134.95 1818.73 134.766C1818.73 135.684 1818.91 136.602 1818.91 137.52C1819.46 140.273 1820.01 142.843 1820.38 145.596C1821.85 152.572 1823.13 159.547 1824.6 166.522C1824.78 167.073 1824.97 167.073 1825.34 167.073C1826.8 167.073 1828.27 167.073 1829.74 167.073C1831.21 167.44 1832.31 167.44 1833.41 167.44Z" fill="white"/>
<path d="M1897.84 135.501C1897.84 125.955 1897.84 116.41 1897.84 106.865C1897.84 104.479 1896.19 103.01 1893.98 103.01C1881.32 103.01 1868.65 103.01 1855.99 103.01C1855.81 103.01 1855.44 103.01 1855.25 103.01C1855.25 103.561 1855.25 105.764 1855.25 109.068H1893.8V116.41H1855.07C1855.07 117.512 1855.07 118.797 1855.07 120.082H1893.62V127.424H1855.07C1855.07 128.709 1855.07 129.81 1855.07 131.095H1893.62V138.438H1855.07C1855.07 139.722 1855.07 140.824 1855.07 142.109H1893.62V149.451H1855.07C1855.07 150.736 1855.07 151.837 1855.07 153.122H1893.62V160.465H1855.07C1855.07 161.75 1855.07 162.851 1855.07 164.136H1893.62V171.478H1855.07C1855.07 172.763 1855.07 174.048 1855.07 175.15H1893.62V182.492H1855.07C1855.07 185.796 1855.07 187.815 1855.07 188.549C1855.25 188.549 1855.44 188.549 1855.81 188.549C1868.47 188.549 1881.14 188.549 1893.8 188.549C1896.19 188.549 1897.66 187.081 1897.66 184.695C1897.66 179.188 1897.66 173.681 1897.66 168.174C1897.84 157.344 1897.84 146.331 1897.84 135.501Z" fill="white"/>
</g>
<g clip-path="url(#clip8_93_1603)">
<path d="M612.465 396.362C613.542 394.735 614.349 393.109 615.157 391.482C615.426 391.211 615.696 390.94 615.965 390.669C617.85 389.584 619.465 388.5 621.35 387.416C620.273 386.874 619.196 386.331 618.119 385.789C618.657 384.705 619.196 383.892 619.734 382.807C620.811 383.35 621.888 383.621 623.234 384.163C623.234 371.151 623.234 358.139 623.234 345.127C622.427 345.669 621.35 346.211 620.542 346.753C610.58 352.717 600.349 358.952 590.387 364.916C589.31 365.458 589.31 366.271 589.041 367.084C588.772 368.711 589.579 369.524 591.195 370.337C593.618 371.151 595.772 372.235 598.195 373.319C597.657 374.404 597.118 375.217 596.58 376.301C594.156 375.217 591.733 374.133 589.31 373.048C589.31 373.59 589.31 374.133 589.31 374.404C589.31 377.386 589.31 380.096 589.31 383.078C589.31 383.892 589.041 384.163 588.502 384.163C587.425 384.434 586.348 384.705 585.272 384.976C585.272 380.91 585.272 377.115 585.272 372.777C575.04 377.386 565.079 382.265 554.847 386.874C555.924 387.687 557.001 388.229 558.348 389.042C555.386 389.313 552.963 389.856 550.54 387.687C550.27 387.416 550.001 386.874 550.001 386.331C550.001 378.47 550.001 370.88 550.001 363.018C550.001 357.597 550.27 352.446 550.27 347.024C550.27 345.398 550.001 343.5 550.001 341.874C550.001 341.331 550.27 340.789 550.809 340.518C560.501 335.097 570.463 329.404 580.156 323.982C582.31 322.898 584.195 321.542 586.348 320.458C586.618 320.187 587.425 320.187 587.695 320.458C600.349 327.235 612.734 334.012 625.388 340.789C625.927 341.06 626.196 341.603 626.196 342.145C626.196 357.054 626.196 371.693 626.196 386.603C626.196 387.145 625.927 387.687 625.658 387.958C621.35 390.669 617.311 393.109 613.003 395.819C613.003 396.362 612.734 396.362 612.465 396.362ZM552.963 384.434C553.501 384.163 554.04 384.163 554.309 383.892C563.463 379.554 572.886 375.217 582.31 371.151C584.733 370.066 585.81 368.711 585.541 366C585.541 365.187 585.272 364.916 584.733 364.374C576.117 359.223 567.232 353.801 558.617 348.38C557.001 347.295 555.117 346.211 553.232 345.127C552.963 358.41 552.963 371.422 552.963 384.434ZM589.041 361.663C600.08 355.157 610.849 348.651 621.619 341.874C610.58 336.181 599.81 330.759 589.041 325.066C589.041 337.265 589.041 349.464 589.041 361.663ZM585.272 361.121C585.272 348.922 585.272 337.265 585.272 325.066C575.04 331.03 564.809 336.723 554.578 342.687C565.079 348.922 575.04 354.886 585.272 361.121Z" fill="white"/>
<path d="M610.042 396.904C608.157 395.82 606.541 395.006 604.926 393.922C606.003 392.024 606.811 390.398 607.888 388.5C606.541 389.043 605.464 389.314 604.388 389.856C593.618 393.651 582.579 396.362 571.271 397.988C564.001 399.073 556.732 399.615 549.193 399.073C543.001 398.802 537.077 397.717 531.693 395.006C527.116 392.838 523.615 389.585 522.269 384.434C521.192 379.826 522.538 376.03 524.962 372.235C528.193 366.814 532.77 362.476 537.616 358.681C540.578 356.512 544.078 354.344 547.309 352.175C547.578 351.904 548.116 351.633 548.655 351.362C548.655 353.802 548.655 355.97 548.655 358.139C548.655 358.41 548.116 358.681 547.847 358.952C543.27 361.934 538.962 364.916 535.193 368.711C532.231 371.693 529.808 374.675 528.462 378.741C527.385 381.994 528.462 385.247 531.154 387.416C533.577 389.314 536 390.398 538.962 391.211C546.501 393.109 554.309 393.38 561.848 392.838C576.925 391.753 591.464 388.229 605.464 383.079C605.734 383.079 606.003 382.808 606.541 382.537C604.388 381.181 602.503 380.097 600.349 379.012C601.426 377.386 602.234 375.488 603.311 373.862C608.426 376.573 613.272 379.555 618.388 382.265C615.426 387.145 612.734 392.024 610.042 396.904Z" fill="white"/>
<path d="M647.735 363.831C646.389 362.476 645.312 360.849 643.966 359.494C644.504 358.681 645.312 357.867 646.12 356.783C648.004 354.614 649.351 352.175 649.889 349.193C650.428 345.94 649.351 343.5 646.927 341.602C643.966 339.162 640.735 338.078 637.235 337.536C631.85 336.452 626.465 336.181 621.08 336.181C620.273 336.181 619.465 335.909 618.926 335.638C616.503 334.283 614.08 332.928 611.657 331.572C611.388 331.301 611.118 331.301 610.311 330.759C612.195 330.488 613.542 330.488 615.157 330.217C623.234 329.675 631.042 329.675 639.119 331.572C643.427 332.656 647.466 334.012 650.966 336.723C655.812 340.518 657.428 345.669 655.812 351.632C654.197 356.241 651.235 360.307 647.735 363.831Z" fill="white"/>
<path d="M607.618 399.615C604.926 401.241 602.234 402.868 599.541 404.494C596.041 406.663 592.541 408.831 588.772 411C588.502 411.271 587.695 411.271 587.425 411C582.041 407.747 576.925 404.765 571.809 401.512C571.54 401.241 571.271 401.241 571.002 400.97C573.425 400.699 575.31 399.886 577.463 401.512C579.617 403.139 582.041 404.494 584.464 405.85C584.733 406.121 585.002 406.121 585.541 406.392C585.541 403.952 585.541 401.783 585.541 399.343C585.541 398.53 585.81 398.259 586.618 397.988C587.695 397.717 588.772 397.446 589.849 397.175C589.849 400.157 589.849 403.139 589.849 406.392C590.387 406.121 590.656 405.85 591.195 405.85C595.503 403.41 599.81 400.97 603.849 398.53C604.387 398.259 604.926 398.259 605.464 398.53C605.734 398.53 606.541 399.072 607.618 399.615Z" fill="white"/>
<path d="M604.388 337.536C600.349 338.349 596.31 339.163 592.272 339.976C592.272 338.078 592.272 336.181 592.272 334.283C592.272 334.012 592.541 333.741 592.81 333.741C594.426 333.199 596.041 332.928 597.657 334.012C599.81 335.368 601.964 336.181 604.388 337.536Z" fill="white"/>
<path d="M561.309 344.042C568.309 341.06 575.31 338.35 582.579 336.181C582.579 338.078 582.579 339.976 582.579 341.874C582.579 342.145 582.31 342.416 582.041 342.416C577.463 344.042 572.886 345.669 568.309 347.295C568.04 347.295 567.502 347.566 567.502 347.295C565.348 346.482 563.463 345.398 561.309 344.042Z" fill="white"/>
</g>
<g clip-path="url(#clip9_93_1603)">
<path d="M764.934 410.416C762.571 411 760.503 411 758.14 410.708C754.005 409.831 750.165 407.786 746.915 405.156C742.78 401.942 739.235 398.143 735.986 393.76C729.783 385.87 724.762 377.104 721.217 367.753C719.445 362.494 718.263 357.234 717.672 351.682C717.377 347.299 717.082 342.624 717.082 337.948C717.082 335.026 717.377 331.812 718.854 329.182C720.331 325.675 722.989 323.63 726.534 322.461C726.534 322.461 726.534 322.461 726.829 322.461C729.783 331.52 732.442 340.286 735.395 349.344L735.1 349.637C732.442 350.805 730.965 353.435 731.555 356.357C731.851 358.987 732.442 361.909 733.328 364.539C735.691 372.137 739.531 379.149 744.552 385.286C744.848 385.578 745.143 385.87 745.143 386.162C746.029 387.331 747.211 387.916 748.688 387.331C749.574 387.039 750.46 386.455 751.346 386.162C751.642 386.162 751.642 385.87 751.937 385.87C756.072 394.052 760.503 402.234 764.934 410.416Z" fill="white"/>
<path d="M730.669 321.292C733.918 320.416 736.577 320.708 739.235 322.753C740.122 323.63 741.008 324.507 741.598 325.675C743.666 329.474 745.143 333.273 745.438 337.364C745.734 339.994 745.438 342.624 743.962 344.961C742.78 347.007 741.303 347.883 739.235 348.76C735.986 339.701 733.328 330.643 730.669 321.292Z" fill="white"/>
<path d="M756.368 384.117C758.731 382.948 761.389 382.072 764.048 382.656C765.82 383.24 767.297 384.117 768.183 385.87C769.956 389.377 772.023 393.175 774.091 396.682C775.568 399.312 775.568 401.649 774.091 403.987C772.909 405.74 771.728 407.201 769.956 408.37C764.934 400.481 760.799 392.299 756.368 384.117Z" fill="white"/>
</g>
<g clip-path="url(#clip10_93_1603)">
<path d="M836.434 338.204C838.189 336.735 840.195 336 842.451 336C856.241 336 870.281 336 884.071 336C896.106 336 908.391 336 920.426 336C922.683 336 924.438 336.735 926.193 338.449C925.441 339.184 924.438 339.918 923.685 340.653C910.397 351.673 897.109 362.694 883.821 373.469C881.313 375.673 880.31 375.429 877.803 373.469C864.515 361.959 850.976 350.694 837.687 339.184C837.186 338.939 836.935 338.694 836.434 338.204Z" fill="white"/>
<path d="M869.78 372.98C872.538 375.429 875.296 377.633 878.054 380.082C879.809 381.551 881.063 381.551 882.818 380.326C885.576 378.122 888.333 375.673 891.342 373.469C891.593 373.224 892.094 372.98 892.596 372.49C902.625 380.326 912.403 387.918 922.683 396C895.354 396 868.025 396 840.696 396C850.474 388.408 860.002 380.816 869.78 372.98Z" fill="white"/>
<path d="M896.858 368.816C907.138 360.245 917.167 351.918 927.196 343.592C927.196 360 927.196 375.918 927.196 392.571C917.167 384.735 907.138 376.898 896.858 368.816Z" fill="white"/>
<path d="M835.682 392.571C835.682 376.163 835.682 360.245 835.682 343.837C845.711 352.408 855.489 360.735 865.518 369.306C855.489 376.898 845.711 384.735 835.682 392.571Z" fill="white"/>
</g>
<path d="M1060.15 321C1063.42 322.105 1066.47 323.698 1069.59 325.161C1071.9 326.25 1072.82 328.9 1071.82 331.24C1071.3 332.476 1070.71 333.679 1070.12 334.946C1064.55 332.394 1059.02 329.891 1053.44 327.339C1053.62 326.933 1053.78 326.559 1053.95 326.201C1054.29 325.47 1054.64 324.739 1054.97 323.991C1055.72 322.382 1056.94 321.374 1058.72 321.065C1058.77 321.065 1058.81 321.016 1058.84 321C1059.28 321 1059.73 321 1060.15 321Z" fill="white"/>
<path d="M1049.24 329.37C1048.53 330.882 1047.86 332.312 1047.2 333.759C1042.66 343.528 1038.11 353.297 1033.58 363.082C1033.4 363.472 1033.2 363.602 1032.76 363.602C1023.29 363.586 1013.82 363.602 1004.35 363.586C1002.81 363.586 1001.87 364.626 1001.72 365.666C1001.53 366.966 1002.54 368.283 1003.87 368.381C1004.1 368.397 1004.33 368.397 1004.56 368.397C1013.2 368.397 1021.83 368.397 1030.46 368.397C1030.64 368.397 1030.82 368.397 1031.07 368.397C1029.89 371.16 1028.48 373.777 1027.39 376.622C1027.3 376.622 1027.1 376.622 1026.9 376.622C1019.43 376.622 1011.95 376.622 1004.48 376.622C1003.78 376.622 1003.14 376.719 1002.58 377.191C1001.77 377.873 1001.49 378.881 1001.86 379.84C1002.2 380.799 1003.07 381.433 1004.12 381.433C1010.18 381.433 1016.23 381.433 1022.29 381.433C1024.06 381.433 1025.83 381.433 1027.62 381.433C1027.94 381.433 1028.07 381.498 1028.13 381.84C1028.76 384.879 1029.38 387.902 1030.05 390.942C1030.69 393.868 1033.86 395.314 1036.52 393.9C1040.13 391.982 1043.72 390.015 1047.32 388.048C1048.6 387.35 1049.48 386.309 1050.09 385.009C1051.19 382.62 1052.31 380.247 1053.41 377.857C1053.47 377.727 1053.54 377.581 1053.72 377.451C1053.72 377.63 1053.72 377.808 1053.72 377.987C1053.72 386.813 1053.72 395.64 1053.72 404.466C1053.72 405.311 1053.74 406.156 1053.59 406.985C1053.16 409.245 1051.13 410.903 1048.81 411C1048.68 411 1048.53 411 1048.4 411C1030.18 411 1011.95 411 993.731 411C991.22 411 989.201 409.505 988.61 407.18C988.496 406.693 988.446 406.189 988.446 405.685C988.446 388.179 988.446 370.689 988.446 353.183C988.446 353.036 988.446 352.874 988.446 352.663C989.037 352.663 989.579 352.663 990.137 352.663C995.011 352.679 999.902 352.728 1004.78 352.679C1008.8 352.646 1011.92 349.542 1011.97 345.543C1012.01 340.894 1011.98 336.246 1011.98 331.597C1011.98 330.882 1011.98 330.166 1011.98 329.419C1024.36 329.37 1036.77 329.37 1049.24 329.37ZM1013.08 388.845C1010.14 388.845 1007.22 388.845 1004.28 388.845C1003.5 388.845 1002.82 389.089 1002.32 389.69C1001.66 390.454 1001.51 391.332 1001.94 392.258C1002.36 393.201 1003.15 393.673 1004.19 393.673C1006.4 393.689 1008.63 393.673 1010.85 393.673C1014.54 393.673 1018.24 393.673 1021.93 393.673C1022.86 393.673 1023.62 393.347 1024.13 392.551C1024.64 391.771 1024.67 390.926 1024.23 390.113C1023.77 389.252 1022.99 388.845 1022.03 388.845C1019.04 388.845 1016.05 388.845 1013.08 388.845Z" fill="white"/>
<path d="M1064.47 347.024C1058.87 359.085 1053.28 371.096 1047.7 383.141C1042.16 380.54 1036.65 377.956 1031.09 375.339C1036.65 363.36 1042.2 351.429 1047.78 339.433C1053.34 341.952 1058.87 344.472 1064.47 347.024Z" fill="white"/>
<path d="M997.736 349.738C995.372 349.738 993.009 349.754 990.645 349.738C989.217 349.722 988.216 348.551 988.545 347.202C988.659 346.731 988.988 346.259 989.332 345.902C993.009 342.228 996.702 338.587 1000.39 334.93C1002 333.337 1003.63 331.728 1005.24 330.135C1006.22 329.176 1007.63 329.16 1008.45 330.167C1008.73 330.509 1008.96 331.013 1008.98 331.451C1009.01 336.23 1009.03 340.993 1008.99 345.772C1008.98 347.869 1007.09 349.689 1004.97 349.754C1004.86 349.754 1004.76 349.77 1004.65 349.77C1002.33 349.738 1000.03 349.738 997.736 349.738Z" fill="white"/>
<path d="M1052.21 329.973C1057.79 332.509 1063.32 335.028 1068.9 337.564C1067.87 339.791 1066.85 341.985 1065.8 344.228C1060.24 341.692 1054.69 339.173 1049.11 336.637C1050.14 334.394 1051.16 332.2 1052.21 329.973Z" fill="white"/>
<path d="M1030.35 378.183C1035.57 380.638 1040.69 383.043 1045.89 385.482C1044.77 386.083 1043.72 386.652 1042.67 387.221C1040.23 388.554 1037.78 389.87 1035.34 391.203C1034.09 391.87 1033.09 391.415 1032.81 390.033C1032.02 386.278 1031.23 382.507 1030.43 378.752C1030.4 378.59 1030.38 378.444 1030.35 378.183Z" fill="white"/>
<g clip-path="url(#clip11_93_1603)">
<path d="M1133.22 366C1140.35 358.79 1147.49 351.829 1156.09 346.608C1161.26 343.376 1166.67 341.138 1172.57 340.392C1180.68 339.149 1188.55 340.641 1195.93 343.873C1204.53 347.851 1211.67 353.818 1218.06 360.53C1219.78 362.271 1221.5 364.26 1223.22 366C1223.22 366.249 1222.98 366.249 1222.98 366.497C1217.57 371.967 1212.16 377.188 1206.01 381.912C1200.11 386.138 1193.96 389.619 1187.08 391.111C1176.01 393.597 1165.44 391.608 1155.85 385.89C1149.94 382.409 1145.03 377.685 1140.11 372.961C1137.65 370.475 1135.44 368.238 1133.22 366ZM1178.22 384.398C1187.81 384.398 1196.17 376.193 1196.17 366.249C1196.17 356.055 1188.31 347.602 1178.22 347.602C1168.63 347.602 1160.52 355.807 1160.27 365.751C1160.27 375.945 1168.14 384.398 1178.22 384.398Z" fill="white"/>
<path d="M1179.7 355.309C1177.73 358.293 1177.73 361.525 1180.19 364.26C1182.16 366.497 1184.86 366.497 1188.55 364.757C1189.29 368.983 1186.83 373.707 1182.9 375.696C1178.96 377.934 1174.04 376.939 1170.85 373.707C1167.4 370.227 1166.67 365.006 1169.13 360.779C1171.34 356.801 1175.76 354.315 1179.7 355.309Z" fill="white"/>
</g>
<g clip-path="url(#clip12_93_1603)">
<path d="M1313.78 321C1315.21 321.291 1316.93 321.583 1318.37 321.874C1322.39 322.748 1325.83 324.495 1328.99 327.117C1332.43 329.738 1335.01 333.233 1337.02 337.311C1339.89 344.01 1340.47 350.709 1338.46 357.699C1337.6 360.32 1336.45 362.65 1335.01 365.272C1333.29 368.767 1331.57 371.971 1329.85 375.466C1328.13 378.67 1326.4 382.165 1324.97 385.369C1322.67 389.738 1320.38 394.398 1318.08 398.767C1316.07 402.845 1314.06 406.922 1311.77 411C1311.2 410.126 1310.91 409.252 1310.33 408.379C1307.75 403.427 1305.46 398.476 1302.87 393.524C1300.29 388.282 1297.42 382.748 1294.84 377.505C1293.4 374.01 1291.68 370.515 1289.96 367.019C1288.52 364.398 1287.09 361.777 1285.94 358.864C1284.22 354.786 1283.93 350.417 1284.51 346.049C1284.79 341.097 1286.52 336.728 1289.39 332.65C1291.97 329.155 1295.13 326.243 1298.86 324.204C1302.3 322.456 1305.74 321.291 1309.47 321C1309.76 321 1310.05 321 1310.05 321C1311.48 321 1312.63 321 1313.78 321ZM1311.77 332.359C1302.59 332.359 1295.13 339.932 1295.13 349.252C1295.13 358.573 1302.59 366.146 1311.77 366.146C1320.95 366.146 1328.41 358.573 1328.41 349.252C1328.41 339.641 1320.95 332.068 1311.77 332.359Z" fill="white"/>
</g>
<g clip-path="url(#clip13_93_1603)">
<path d="M1470.61 340.773C1470.61 359.409 1470.61 378.273 1470.61 396.909C1470.61 397.136 1470.61 397.136 1470.61 397.363C1470.16 399.409 1468.38 401 1466.15 401C1445.86 401 1425.8 401 1405.51 401C1405.29 401 1404.84 401 1404.62 401C1402.39 400.545 1400.83 398.727 1400.83 396.454C1400.83 378.273 1400.83 359.863 1400.83 341.682C1400.83 338.954 1402.84 336.909 1405.51 336.909C1407.96 336.909 1410.19 336.909 1412.65 336.909C1412.87 336.909 1412.87 336.909 1413.09 336.909C1413.09 337.136 1413.09 337.363 1413.09 337.363C1413.09 339.863 1413.09 342.363 1413.09 344.863C1413.09 346.454 1413.76 347.591 1415.1 348.5C1416.21 349.863 1418 349.863 1419.78 349.409C1422.01 348.954 1423.57 346.909 1423.57 344.409C1423.57 341.909 1423.57 339.636 1423.57 337.136C1423.57 336.909 1423.57 336.909 1423.57 336.682C1431.6 336.682 1439.84 336.682 1447.87 336.682C1447.87 336.909 1447.87 336.909 1447.87 337.136C1447.87 339.409 1447.87 341.909 1447.87 344.182C1447.87 346.682 1449.43 348.727 1451.66 349.182C1452.77 349.409 1453.89 349.409 1455 349.182C1457.23 348.727 1458.79 347.363 1458.79 344.636C1458.79 342.136 1458.79 339.409 1458.79 336.909C1458.79 336.682 1458.79 336.682 1458.79 336.454C1459.02 336.454 1459.02 336.454 1459.24 336.454C1461.47 336.454 1463.7 336.454 1465.93 336.454C1467.49 336.454 1468.6 337.136 1469.49 338.273C1470.16 339.409 1470.39 340.091 1470.61 340.773ZM1466.15 396.454C1466.15 382.591 1466.15 368.727 1466.15 354.863C1445.86 354.863 1425.58 354.863 1405.29 354.863C1405.29 368.727 1405.29 382.591 1405.29 396.454C1425.35 396.454 1445.64 396.454 1466.15 396.454Z" fill="white"/>
<path d="M1421.34 339.182C1421.34 341 1421.34 342.591 1421.34 344.409C1421.34 346.227 1420.23 347.363 1418.44 347.363C1418 347.363 1417.55 347.363 1416.88 347.363C1415.77 346.909 1414.88 345.772 1414.88 344.636C1414.88 341 1414.88 337.591 1414.88 333.954C1414.88 332.363 1416.21 331.227 1417.55 331C1418.22 331 1418.67 331 1419.33 331C1420.67 331.454 1421.34 332.591 1421.34 333.727C1421.56 335.545 1421.34 337.363 1421.34 339.182Z" fill="white"/>
<path d="M1450.32 339.182C1450.32 337.363 1450.32 335.773 1450.32 333.954C1450.32 332.363 1451.66 330.773 1453.22 331C1453.67 331 1454.11 331 1454.56 331C1455.89 331.227 1456.79 332.363 1456.79 333.727C1456.79 337.363 1456.79 340.773 1456.79 344.409C1456.79 346 1455.67 347.136 1454.11 347.136C1453.67 347.136 1453 347.136 1452.55 347.136C1451.21 346.909 1450.32 345.773 1450.32 344.409C1450.32 342.818 1450.32 341 1450.32 339.182Z" fill="white"/>
<path d="M1441.85 380.318C1440.51 380.318 1439.4 380.318 1438.06 380.318C1437.39 380.318 1437.39 380.091 1437.39 379.636C1437.39 377.364 1437.39 375.091 1437.39 373.045C1437.39 372.364 1437.61 372.136 1438.28 372.136C1440.74 372.136 1443.41 372.136 1445.86 372.136C1446.53 372.136 1446.75 372.364 1446.75 373.045C1446.75 375.318 1446.75 377.591 1446.75 379.636C1446.75 380.318 1446.53 380.545 1445.86 380.545C1444.53 380.318 1443.19 380.318 1441.85 380.318Z" fill="white"/>
<path d="M1441.85 383.727C1443.19 383.727 1444.53 383.727 1445.64 383.727C1446.31 383.727 1446.31 383.954 1446.31 384.409C1446.31 386.682 1446.31 388.954 1446.31 391.227C1446.31 391.682 1446.09 391.909 1445.64 391.909C1442.96 391.909 1440.51 391.909 1437.84 391.909C1437.39 391.909 1437.17 391.682 1437.17 391.227C1437.17 388.954 1437.17 386.682 1437.17 384.409C1437.17 383.954 1437.39 383.727 1437.84 383.727C1439.4 383.727 1440.51 383.727 1441.85 383.727Z" fill="white"/>
<path d="M1455 383.727C1456.34 383.727 1457.46 383.727 1458.79 383.727C1459.24 383.727 1459.46 383.954 1459.46 384.409C1459.46 386.682 1459.46 388.954 1459.46 391.227C1459.46 391.682 1459.24 391.909 1458.79 391.909C1456.12 391.909 1453.67 391.909 1450.99 391.909C1450.54 391.909 1450.32 391.682 1450.32 391.227C1450.32 388.954 1450.32 386.682 1450.32 384.409C1450.32 383.954 1450.54 383.727 1450.99 383.727C1452.55 383.727 1453.67 383.727 1455 383.727Z" fill="white"/>
<path d="M1455 380.318C1453.67 380.318 1452.33 380.318 1451.21 380.318C1450.77 380.318 1450.54 380.091 1450.54 379.636C1450.54 377.364 1450.54 375.091 1450.54 372.818C1450.54 372.364 1450.77 372.136 1451.21 372.136C1453.89 372.136 1456.34 372.136 1459.02 372.136C1459.46 372.136 1459.68 372.364 1459.68 372.818C1459.68 375.091 1459.68 377.364 1459.68 379.636C1459.68 380.318 1459.46 380.318 1458.79 380.318C1457.46 380.318 1456.34 380.318 1455 380.318Z" fill="white"/>
<path d="M1415.77 380.318C1414.43 380.318 1413.32 380.318 1411.98 380.318C1411.31 380.318 1411.31 380.091 1411.31 379.636C1411.31 377.364 1411.31 375.091 1411.31 372.818C1411.31 372.364 1411.53 372.136 1411.98 372.136C1414.65 372.136 1417.1 372.136 1419.78 372.136C1420.23 372.136 1420.45 372.364 1420.45 372.818C1420.45 375.091 1420.45 377.364 1420.45 379.636C1420.45 380.318 1420.23 380.318 1419.78 380.318C1418.22 380.318 1416.88 380.318 1415.77 380.318Z" fill="white"/>
<path d="M1428.7 380.318C1427.36 380.318 1426.24 380.318 1424.91 380.318C1424.24 380.318 1424.24 380.091 1424.24 379.636C1424.24 377.364 1424.24 375.091 1424.24 372.818C1424.24 372.136 1424.46 372.136 1424.91 372.136C1427.36 372.136 1430.03 372.136 1432.49 372.136C1433.16 372.136 1433.16 372.364 1433.16 372.818C1433.16 375.091 1433.16 377.364 1433.16 379.636C1433.16 380.318 1432.93 380.318 1432.49 380.318C1431.37 380.318 1430.03 380.318 1428.7 380.318Z" fill="white"/>
<path d="M1415.77 383.727C1417.1 383.727 1418.44 383.727 1419.56 383.727C1420 383.727 1420.23 383.954 1420.23 384.409C1420.23 386.682 1420.23 388.954 1420.23 391.227C1420.23 391.682 1420 391.909 1419.56 391.909C1416.88 391.909 1414.43 391.909 1411.75 391.909C1411.31 391.909 1411.09 391.682 1411.09 391.227C1411.09 388.954 1411.09 386.682 1411.09 384.409C1411.09 383.954 1411.31 383.727 1411.75 383.727C1413.09 383.727 1414.43 383.727 1415.77 383.727Z" fill="white"/>
<path d="M1428.7 383.727C1430.03 383.727 1431.37 383.727 1432.49 383.727C1432.93 383.727 1433.16 383.954 1433.16 384.409C1433.16 386.682 1433.16 388.954 1433.16 391.227C1433.16 391.682 1432.93 391.909 1432.49 391.909C1429.81 391.909 1427.36 391.909 1424.68 391.909C1424.24 391.909 1424.02 391.682 1424.02 391.227C1424.02 388.954 1424.02 386.682 1424.02 384.409C1424.02 383.727 1424.24 383.727 1424.68 383.727C1426.24 383.727 1427.58 383.727 1428.7 383.727Z" fill="white"/>
<path d="M1455 368.727C1453.67 368.727 1452.55 368.727 1451.21 368.727C1450.77 368.727 1450.54 368.5 1450.54 368.045C1450.54 365.772 1450.54 363.5 1450.54 361.227C1450.54 360.545 1450.77 360.545 1451.21 360.545C1453.89 360.545 1456.34 360.545 1459.02 360.545C1459.68 360.545 1459.68 360.772 1459.68 361.227C1459.68 363.5 1459.68 365.772 1459.68 368.045C1459.68 368.5 1459.46 368.727 1459.02 368.727C1457.68 368.727 1456.34 368.727 1455 368.727Z" fill="white"/>
<path d="M1441.85 360.545C1443.19 360.545 1444.53 360.545 1445.64 360.545C1446.31 360.545 1446.31 360.772 1446.31 361.227C1446.31 363.5 1446.31 365.772 1446.31 367.818C1446.31 368.5 1446.09 368.5 1445.64 368.5C1443.19 368.5 1440.51 368.5 1438.06 368.5C1437.39 368.5 1437.39 368.272 1437.39 367.818C1437.39 365.545 1437.39 363.272 1437.39 361.227C1437.39 360.545 1437.61 360.545 1438.06 360.545C1439.4 360.545 1440.51 360.545 1441.85 360.545Z" fill="white"/>
</g>
<defs>
<clipPath id="clip0_93_1603">
<rect width="183.556" height="183.56" fill="white" transform="translate(58 54)"/>
</clipPath>
<clipPath id="clip1_93_1603">
<rect width="183.556" height="183.56" fill="white" transform="translate(269.556 54)"/>
</clipPath>
<clipPath id="clip2_93_1603">
<rect width="183.556" height="183.56" fill="white" transform="translate(692.667 54)"/>
</clipPath>
<clipPath id="clip3_93_1603">
<rect width="183.556" height="183.56" fill="white" transform="translate(904.222 54)"/>
</clipPath>
<clipPath id="clip4_93_1603">
<rect width="183.556" height="183.56" fill="white" transform="translate(1115.78 54)"/>
</clipPath>
<clipPath id="clip5_93_1603">
<rect width="183.556" height="183.56" fill="white" transform="translate(1327.33 54)"/>
</clipPath>
<clipPath id="clip6_93_1603">
<rect width="183.556" height="183.56" fill="white" transform="translate(1538.89 54)"/>
</clipPath>
<clipPath id="clip7_93_1603">
<rect width="183.556" height="183.56" fill="white" transform="translate(1750.44 54)"/>
</clipPath>
<clipPath id="clip8_93_1603">
<rect width="134.082" height="90" fill="white" transform="translate(522 321)"/>
</clipPath>
<clipPath id="clip9_93_1603">
<rect width="57.6" height="90" fill="white" transform="translate(717.082 321)"/>
</clipPath>
<clipPath id="clip10_93_1603">
<rect width="91.7647" height="60" fill="white" transform="translate(835.682 336)"/>
</clipPath>
<clipPath id="clip11_93_1603">
<rect width="90" height="90" fill="white" transform="translate(1133.22 321)"/>
</clipPath>
<clipPath id="clip12_93_1603">
<rect width="55.3846" height="90" fill="white" transform="translate(1284.22 321)"/>
</clipPath>
<clipPath id="clip13_93_1603">
<rect width="70" height="70" fill="white" transform="translate(1400.61 331)"/>
</clipPath>
</defs>
</svg>
