<svg width="117" height="116" viewBox="0 0 117 116" fill="none" xmlns="http://www.w3.org/2000/svg">
<g clip-path="url(#clip0_11_1383)">
<path d="M90.6286 4.64014C90.6286 4.64014 83.6643 3.24814 75.6786 5.93934C67.6929 8.63054 61.4714 11.9713 59.9857 14.1057C58.5 16.2401 61.5643 17.2609 62.3071 19.0241C62.9571 20.7873 61.5643 20.9729 60.45 25.7985C59.4286 30.7169 58.6857 32.7585 60.2643 37.9553C61.75 43.1521 63.6071 48.5345 63.6071 48.5345C63.6071 48.5345 63.7 52.7105 65.3714 54.0097C67.0429 55.3089 68.3429 56.5153 70.4786 56.2369C72.6143 55.9585 76.05 54.1025 76.05 54.1025C76.05 54.1025 72.2429 58.7425 71.5 60.0417C70.7571 61.4337 69.4571 63.1041 69.4571 63.1041C69.4571 63.1041 66.0214 61.8049 61.5643 58.7425C57.1071 55.6801 49.9571 50.6689 46.8929 48.4417C43.8286 46.2145 40.5786 44.4513 40.0214 42.1313C39.4643 39.8113 38.2571 35.6353 39.7429 30.5313C41.2286 25.3345 45.1286 15.3121 45.1286 15.3121C45.1286 15.3121 41.7857 12.2497 40.5786 10.7649C39.3714 9.28014 37.4214 7.42414 39 4.73294C40.5786 2.04174 41.5071 1.94894 44.0143 2.22734C46.5214 2.50574 51.7214 3.24814 51.7214 3.24814C51.7214 3.24814 53.3929 1.67054 55.8071 1.39214C58.0357 1.11374 66.95 0.835339 74.1929 0.928139C81.4357 1.02094 84.3143 0.464139 86.7286 1.76334C89.05 3.06254 90.6286 4.64014 90.6286 4.64014Z" fill="#F7B655"/>
<path d="M115.607 55.9588H83.2928C83.2928 55.9588 80.5071 58.5572 77.35 60.4132C74.1929 62.2692 74.75 63.5684 71.2214 63.1972C67.6928 62.9188 66.8571 62.0836 62.4 59.578C57.9428 57.0724 56.7357 55.9588 56.7357 55.9588H22.2857C22.2857 55.9588 17.7357 56.4228 15.7857 54.1956C13.8357 51.9684 12.0714 50.5764 12.0714 47.2356C12.0714 43.8948 12.0714 36.0996 12.0714 36.0996H0.371432V47.7924C0.371432 47.7924 0.0928609 55.9588 7.05715 61.5268C14.0214 67.0948 19.4071 68.2084 21.6357 68.2084C23.8643 68.2084 115.607 68.2084 115.607 68.2084V55.9588Z" fill="#F7B655"/>
<path d="M6.59287 22.0868C6.59287 15.5908 11.2357 10.1156 17.4572 9.00203C16.6214 8.81643 15.7857 8.72363 14.95 8.72363C7.52144 8.72363 1.57858 14.6628 1.57858 22.0868C1.57858 29.5108 7.52144 35.45 14.95 35.45C15.7857 35.45 16.6214 35.3572 17.4572 35.1716C11.3286 33.9652 6.59287 28.5828 6.59287 22.0868Z" fill="#F7B655"/>
<path d="M71.3143 64.2178H69.6428C68.1571 64.0322 66.3928 63.197 64.7214 62.269C62.6786 61.1554 43.55 47.7922 41.0428 45.4722C38.35 42.9666 38.0714 40.461 38.1643 35.7282C38.2571 31.5522 38.8143 29.789 39.7428 26.7266C39.9286 26.077 40.2071 25.3346 40.3928 24.4994C41.9714 19.0242 45.9643 10.301 46.8 8.6306C48.8428 4.269 50.7928 2.5986 52.5571 1.5778C54.5071 0.371402 58.3143 0.185802 61.6571 0.0930025C64.4428 0.000202006 67.6928 0.0930025 67.6928 0.0930025H74.5643C74.5643 0.0930025 76.4214 0.000202006 79.2071 0.0930025C82.55 0.185802 86.3571 0.371402 88.3071 1.5778C89.9786 2.5986 92.0214 4.269 94.0643 8.6306C94.8071 10.301 98.8 19.117 100.471 24.4994C100.75 25.3346 100.936 26.077 101.121 26.7266C102.05 29.789 102.7 31.645 102.7 35.7282C102.793 40.461 102.514 42.9666 99.8214 45.4722C97.3143 47.7922 78.1857 61.1554 76.1428 62.269C74.5643 63.197 72.8928 64.0322 71.3143 64.2178ZM70.0143 62.3618H70.85C72.0571 62.3618 73.7286 61.5266 75.3071 60.5986C77.2571 59.485 96.2928 46.2146 98.6143 44.0802C100.657 42.1314 100.936 40.461 100.843 35.7282C100.75 31.8306 100.286 30.253 99.3571 27.2834C99.1714 26.6338 98.8929 25.8914 98.7071 25.0562C97.5 20.973 94.5286 14.013 92.3928 9.37299C90.6286 5.4754 88.8643 3.9906 87.3786 3.1554C85.7071 2.1346 81.25 1.949 79.2071 1.949C76.5143 1.8562 74.6571 1.949 74.6571 1.949H67.6928C67.6 1.949 64.4428 1.8562 61.75 1.949C59.6143 2.0418 55.25 2.1346 53.5786 3.1554C52.0928 4.0834 50.3286 5.4754 48.5643 9.37299C46.4286 14.013 43.55 20.8802 42.25 25.0562C41.9714 25.8914 41.7857 26.6338 41.6 27.2834C40.6714 30.253 40.1143 31.9234 40.1143 35.7282C40.0214 40.461 40.3 42.1314 42.3428 44.0802C44.6643 46.2146 63.7 59.5778 65.65 60.5986C67.1357 61.5266 68.9 62.3618 70.0143 62.3618Z" fill="#00398C"/>
<path d="M64.2112 16.5918C64.3584 15.4221 63.0339 14.2925 61.253 14.0686C59.4721 13.8448 57.9091 14.6114 57.7619 15.7811C57.6146 16.9506 58.939 18.0803 60.7199 18.3041C62.5008 18.5279 64.0639 17.7613 64.2112 16.5918Z" fill="#00398C"/>
<path d="M79.4769 18.3554C81.2578 18.1315 82.5822 17.0019 82.435 15.8323C82.2878 14.6627 80.7247 13.8961 78.9438 14.1199C77.1629 14.3437 75.8385 15.4734 75.9857 16.643C76.1329 17.8126 77.696 18.5793 79.4769 18.3554Z" fill="#00398C"/>
<path d="M69.8286 36.9348C69.8286 36.9348 69.8286 34.8932 68.9928 33.6868C68.4357 32.7588 65.1857 31.5524 65.2786 29.6964C65.3714 27.8404 67.6 27.2836 70.4786 27.3764C73.3571 27.4692 75.6786 27.6548 75.6786 29.6964C75.6786 31.738 72.8928 32.666 72.4286 33.594C71.5 35.45 71.7786 36.9348 71.7786 36.9348H69.8286Z" fill="#00398C"/>
<path d="M62.5857 48.5347C62.4 48.1635 58.5929 38.5123 58.4071 33.0371C58.2214 26.8195 59.5214 23.1075 62.5857 20.9731C65.4643 18.9315 69.1786 19.0243 72.5214 19.3027C76.05 19.5811 78.8357 21.3443 80.8786 24.4067C82.55 26.9123 83.0143 30.9027 82.0857 35.0787C81.3429 38.6979 78.1857 48.2563 78 48.6275L76.2357 48.0707C76.2357 47.9779 79.4857 38.1411 80.2286 34.7075C80.9714 31.0883 80.6 27.5619 79.3 25.4275C77.6286 22.8291 75.4 21.4371 72.4286 21.1587C69.4571 20.8803 66.1143 20.8803 63.7 22.5507C61.1929 24.3139 60.0786 27.5619 60.2643 33.0371C60.45 38.2339 64.2571 47.8851 64.2571 47.9779L62.5857 48.5347Z" fill="#00398C"/>
<path d="M43.9214 16.4257C43.9214 16.4257 41.6928 13.6417 39.7428 11.6001C37.3286 9.09449 37.3286 7.05289 37.5143 5.75369C37.8857 2.78409 40.5786 1.39209 42.9928 1.39209C45.4071 1.39209 51.5357 2.41289 51.7214 2.41289L51.4428 4.26889C51.35 4.26889 45.2214 3.24809 42.9928 3.24809C41.3214 3.24809 39.65 4.08329 39.3714 5.93929C39.2786 6.96009 39.2786 8.35209 41.1357 10.2081C43.1786 12.3425 45.3143 15.0337 45.4071 15.2193L43.9214 16.4257Z" fill="#00398C"/>
<path d="M97.3143 16.4257L95.8286 15.3121C95.9214 15.2193 98.15 12.4353 100.1 10.3009C101.864 8.44486 101.957 7.05286 101.864 6.03206C101.586 4.17606 99.8214 3.34086 98.2429 3.34086C96.0143 3.34086 89.7928 4.36166 89.7928 4.36166L89.5143 2.50566C89.7929 2.50566 95.8286 1.48486 98.2429 1.48486C100.657 1.48486 103.35 2.78406 103.721 5.84646C103.907 7.14566 103.814 9.18726 101.493 11.6929C99.5429 13.5489 97.4071 16.3329 97.3143 16.4257Z" fill="#00398C"/>
<path d="M116.35 74.5187H24.6071V38.2339H39.0929V41.0179H27.3929V71.7347H113.564V41.0179H101.864V38.2339H116.35V74.5187Z" fill="#00398C"/>
<path d="M45.9643 47.3281H44.1071V73.1265H45.9643V47.3281Z" fill="#00398C"/>
<path d="M96.3857 47.3281H94.5286V73.1265H96.3857V47.3281Z" fill="#00398C"/>
<path d="M63.1428 59.5781H61.2857V73.2197H63.1428V59.5781Z" fill="#00398C"/>
<path d="M79.7643 59.5781H77.9071V73.2197H79.7643V59.5781Z" fill="#00398C"/>
<path d="M114.361 58.8438L99.5382 72.485L100.796 73.8503L115.619 60.209L114.361 58.8438Z" fill="#00398C"/>
<path d="M26.6064 58.8989L25.3484 60.2642L40.1707 73.9054L41.4288 72.5402L26.6064 58.8989Z" fill="#00398C"/>
<path d="M27.3929 64.4961H24.6071V76.7457H27.3929V64.4961Z" fill="#00398C"/>
<path d="M116.35 64.4961H113.564V76.7457H116.35V64.4961Z" fill="#00398C"/>
<path d="M29.6214 37.1203H0V7.42432H29.6214V37.1203ZM1.85714 35.2643H27.7643V9.28032H1.85714V35.2643Z" fill="#00398C"/>
<path d="M14.8571 36.3778C7.05714 36.3778 0.742859 30.0673 0.742859 22.2721C0.742859 14.4769 7.05714 8.1665 14.8571 8.1665C22.6571 8.1665 28.8786 14.4769 28.8786 22.2721C28.8786 30.0673 22.5643 36.3778 14.8571 36.3778ZM14.8571 10.0225C8.07857 10.0225 2.6 15.4977 2.6 22.2721C2.6 29.0465 8.07857 34.5218 14.8571 34.5218C21.6357 34.5218 27.1143 29.0465 27.1143 22.2721C27.1143 15.4977 21.5429 10.0225 14.8571 10.0225Z" fill="#00398C"/>
<path d="M1.59437 7.74121L0.24942 9.02111L9.15019 18.3627L10.4952 17.0828L1.59437 7.74121Z" fill="#00398C"/>
<path d="M27.901 7.78906L19.0002 17.1307L20.3451 18.4106L29.2459 9.06896L27.901 7.78906Z" fill="#00398C"/>
<path d="M9.15082 26.3687L0.250061 35.7103L1.595 36.9902L10.4957 27.6485L9.15082 26.3687Z" fill="#00398C"/>
<path d="M20.3443 26.2842L18.9993 27.5641L27.9001 36.9057L29.245 35.6258L20.3443 26.2842Z" fill="#00398C"/>
<path d="M5.75714 0.928223C5.75714 0.928223 5.01429 1.85622 4.45714 3.61942C3.9 5.38262 3.62143 7.05302 5.38572 7.05302C7.52143 7.05302 7.15 5.28982 6.68572 3.71222C6.31429 1.85622 5.75714 0.928223 5.75714 0.928223Z" fill="#00398C"/>
<path d="M10.1214 0.928223C10.1214 0.928223 9.37856 1.85622 8.82142 3.61942C8.26428 5.38262 7.98571 7.05302 9.84285 7.05302C11.9786 7.05302 11.6071 5.28982 11.1428 3.71222C10.6786 1.85622 10.1214 0.928223 10.1214 0.928223Z" fill="#00398C"/>
<path d="M14.5786 0.928223C14.5786 0.928223 13.8357 1.85622 13.2786 3.61942C12.7214 5.38262 12.4429 7.05302 14.3 7.05302C16.4357 7.05302 16.0643 5.28982 15.6 3.71222C15.1357 1.85622 14.5786 0.928223 14.5786 0.928223Z" fill="#00398C"/>
<path d="M18.9429 0.928223C18.9429 0.928223 18.2 1.85622 17.6429 3.61942C17.0857 5.38262 16.8071 7.05302 18.6643 7.05302C20.8 7.05302 20.4286 5.28982 19.9643 3.71222C19.5 1.85622 18.9429 0.928223 18.9429 0.928223Z" fill="#00398C"/>
<path d="M23.4 0.928223C23.4 0.928223 22.6571 1.85622 22.1 3.61942C21.5428 5.38262 21.2643 7.05302 23.1214 7.05302C25.2571 7.05302 24.8857 5.28982 24.4214 3.71222C23.8643 1.85622 23.4 0.928223 23.4 0.928223Z" fill="#00398C"/>
<path d="M67.3214 48.6274C67.3214 48.6274 66.95 49.4626 66.7643 50.9474C66.5786 52.4322 66.5786 53.917 67.6 53.8242C68.8072 53.7314 68.5286 52.2466 68.1572 50.9474C67.6929 49.4626 67.3214 48.6274 67.3214 48.6274Z" fill="#00398C"/>
<path d="M73.45 48.6274C73.45 48.6274 73.8214 49.4626 74.0071 50.9474C74.1928 52.4322 74.1928 53.917 73.1714 53.8242C71.9643 53.7314 72.2428 52.2466 72.6143 50.9474C73.0786 49.4626 73.45 48.6274 73.45 48.6274Z" fill="#00398C"/>
<path d="M67.3214 43.2449C67.3214 43.2449 66.95 42.4097 66.7643 40.9249C66.5786 39.4401 66.5786 37.9553 67.6 38.0481C68.8072 38.1409 68.5286 39.6257 68.1572 40.9249C67.6929 42.5025 67.3214 43.2449 67.3214 43.2449Z" fill="#00398C"/>
<path d="M73.45 43.2449C73.45 43.2449 73.8214 42.4097 74.0071 40.9249C74.1928 39.4401 74.1928 37.9553 73.1714 38.0481C71.9643 38.1409 72.2428 39.6257 72.6143 40.9249C73.0786 42.5025 73.45 43.2449 73.45 43.2449Z" fill="#00398C"/>
<path d="M70.3857 57.3508C66.1143 57.3508 62.5857 53.9172 62.5857 49.6484V42.1316C62.5857 37.8628 66.0214 34.4292 70.2929 34.4292C74.5643 34.4292 78.0929 37.8628 78.0929 42.1316V49.6484C78.0929 53.8244 74.5643 57.3508 70.3857 57.3508ZM70.3857 36.378C67.1357 36.378 64.4429 38.9764 64.4429 42.2244V49.7412C64.4429 52.9892 67.0429 55.5876 70.2929 55.5876H70.3857C73.6357 55.5876 76.2357 52.9892 76.2357 49.7412V42.2244C76.2357 38.9764 73.5429 36.378 70.3857 36.378Z" fill="#00398C"/>
<path d="M70.2 51.3184C67.9714 51.3184 66.0214 52.1536 64.9071 53.4528C66.1143 55.216 68.1571 56.4224 70.4786 56.4224H70.5714C72.7071 56.4224 74.6571 55.4016 75.8643 53.824C74.75 52.3392 72.6143 51.3184 70.2 51.3184Z" fill="#00398C"/>
<path d="M70.6643 39.626C72.8929 39.626 74.8429 38.7908 75.9571 37.4916C74.75 35.7284 72.7071 34.522 70.3857 34.522H70.2929C68.1571 34.522 66.2071 35.5428 65 37.1204C66.0214 38.6052 68.1571 39.626 70.6643 39.626Z" fill="#00398C"/>
<path d="M0.742859 104.4V81.5713H10.8643V85.4689H3.43571V90.6657H7.42857C8.91428 90.6657 10.0286 91.3153 10.8643 92.5217C11.7 93.728 12.1643 95.4912 12.1643 97.5328C12.1643 99.296 11.7929 100.966 11.1429 102.358C10.4 103.75 9.19286 104.4 7.52143 104.4H0.742859ZM3.52857 94.5632V100.595H6.40714C7.15 100.595 7.70714 100.502 8.07857 100.41C8.45 100.224 8.72857 99.9456 8.91428 99.4816C9.19286 99.0176 9.28571 98.368 9.28571 97.7184C9.28571 95.6768 8.35714 94.656 6.5 94.656H3.52857V94.5632Z" fill="#00398C"/>
<path d="M27.7643 104.4V81.5713H37.8857V85.4689H30.55V90.5729H37.3286V94.3776H30.55V100.595H38.1643V104.493H27.7643V104.4Z" fill="#00398C"/>
<path d="M56.9214 104.4V85.4689H52.9286V81.5713H63.7V85.4689H59.7071V104.4H56.9214Z" fill="#00398C"/>
<path d="M81.9 104.4V85.4689H77.9071V81.5713H88.6786V85.4689H84.6857V104.4H81.9Z" fill="#00398C"/>
<path d="M116.164 104.4H113.193L111.986 99.2032H106.507L105.393 104.4H102.514L107.807 81.5713H110.686L116.164 104.4ZM111.057 95.3984L109.2 86.9537L107.343 95.3984H111.057Z" fill="#00398C"/>
<path d="M1.85713 115.072V108.855H0.185699V108.02H4.36427V108.855H2.59999V115.072H1.85713Z" fill="#00398C"/>
<path d="M4.45715 115.072L6.50001 108.112H7.24287L9.37858 115.072H8.54287L7.89287 112.938H5.75715L5.20001 115.072H4.45715ZM5.94287 112.196H7.70715L7.15001 110.247C6.9643 109.69 6.87144 109.133 6.77858 108.762C6.68572 109.226 6.59287 109.69 6.50001 110.061L5.94287 112.196Z" fill="#00398C"/>
<path d="M9.9357 115.072V108.112H10.6786V110.989H13.3714V108.112H14.1143V115.072H13.3714V111.732H10.6786V115.072H9.9357Z" fill="#00398C"/>
<path d="M15.2286 108.112H15.9714V111.175C16.25 111.175 16.5286 111.082 16.6214 110.896C16.7143 110.711 16.9 110.34 17.0857 109.69C17.2714 109.226 17.3643 108.855 17.4571 108.669C17.55 108.484 17.7357 108.298 17.8286 108.205C18.0143 108.112 18.2 108.02 18.5714 108.02C18.6643 108.02 18.7571 108.02 18.85 108.02V108.855H18.6643H18.4786C18.2929 108.855 18.1071 108.948 18.0143 109.04C17.9214 109.133 17.7357 109.504 17.6429 109.968C17.4571 110.525 17.3643 110.896 17.1786 111.082C16.9929 111.268 16.9 111.36 16.7143 111.453C17.0857 111.546 17.3643 112.01 17.7357 112.66L18.85 114.98H18.0143L17.1786 113.124C16.9 112.567 16.7143 112.103 16.5286 112.01C16.3429 111.824 16.1571 111.732 16.0643 111.732C16.0643 111.732 16.0643 111.732 15.9714 111.732V114.98H15.2286V108.112Z" fill="#00398C"/>
<path d="M19.2214 113.031V112.195H21.1714V113.031H19.2214Z" fill="#00398C"/>
<path d="M22.0071 108.112H22.75V111.175C23.0286 111.175 23.3071 111.082 23.4 110.896C23.4929 110.711 23.6786 110.34 23.8643 109.69C24.05 109.226 24.1429 108.855 24.2357 108.669C24.3286 108.484 24.5143 108.298 24.6071 108.205C24.7929 108.112 24.9786 108.02 25.35 108.02C25.4429 108.02 25.5357 108.02 25.6286 108.02V108.855H25.4429H25.2571C25.0714 108.855 24.8857 108.948 24.7929 109.04C24.7 109.133 24.5143 109.504 24.4214 109.968C24.2357 110.525 24.1429 110.896 23.9571 111.082C23.7714 111.268 23.6786 111.36 23.4929 111.453C23.8643 111.546 24.1429 112.01 24.5143 112.66L25.6286 114.98H24.7929L23.9571 113.124C23.6786 112.567 23.4929 112.103 23.3071 112.01C23.1214 111.824 22.9357 111.732 22.8429 111.732C22.8429 111.732 22.8429 111.732 22.75 111.732V114.98H22.0071V108.112Z" fill="#00398C"/>
<path d="M26.0929 111.638C26.0929 110.432 26.3714 109.504 26.8357 108.854C27.3 108.205 27.95 107.926 28.6 107.926C29.0643 107.926 29.5286 108.112 29.9 108.39C30.2714 108.669 30.55 109.133 30.8286 109.597C31.1072 110.061 31.2 110.803 31.2 111.545C31.2 112.566 31.0143 113.401 30.55 114.051C30.0857 114.793 29.4357 115.165 28.6929 115.165C27.95 115.165 27.3 114.793 26.8357 114.051C26.2786 113.401 26.0929 112.659 26.0929 111.638ZM26.7429 111.731C26.7429 112.566 26.9286 113.309 27.3 113.773C27.6714 114.237 28.0429 114.515 28.6 114.515C29.1571 114.515 29.5286 114.237 29.9 113.773C30.2714 113.309 30.4571 112.566 30.4571 111.638C30.4571 111.081 30.3643 110.525 30.1786 110.061C30.0857 109.689 29.8071 109.411 29.5286 109.225C29.25 109.04 28.9714 108.854 28.6 108.854C28.0429 108.854 27.6714 109.133 27.3 109.597C26.9286 110.061 26.7429 110.71 26.7429 111.731Z" fill="#00398C"/>
<path d="M31.9429 115.072V108.112H32.6857V110.989H35.3786V108.112H36.1214V115.072H35.3786V111.732H32.6857V115.072H31.9429Z" fill="#00398C"/>
<path d="M38.6286 115.072V108.855H36.8643V108.02H41.0429V108.855H39.2786V115.072H38.6286Z" fill="#00398C"/>
<path d="M41.7857 115.072V108.112H45.5928V108.948H42.5286V111.082H45.4071V111.917H42.5286V114.33H45.7786V115.165H41.7857V115.072Z" fill="#00398C"/>
<path d="M46.7072 108.112H47.3572V113.68L50.1429 108.112H50.8857V115.072H50.2357V109.504L47.45 115.072H46.7072V108.112ZM49.4929 106.349H49.9572C49.9572 106.72 49.7714 107.092 49.5857 107.277C49.4 107.463 49.1214 107.556 48.8429 107.556C48.5643 107.556 48.2857 107.463 48.1 107.277C47.9143 107.092 47.8214 106.72 47.7286 106.349H48.1929C48.2857 106.813 48.4714 106.999 48.75 106.999C48.9357 106.999 49.1214 106.906 49.2143 106.813C49.4 106.72 49.4 106.628 49.4929 106.349Z" fill="#00398C"/>
<path d="M52 115.072V108.112H52.7429V110.989H55.4357V108.112H56.1786V115.072H55.4357V111.732H52.7429V115.072H52Z" fill="#00398C"/>
<path d="M57.2928 115.072V108.112H61.1V108.948H58.0357V111.082H60.9143V111.917H58.0357V114.33H61.2857V115.165H57.2928V115.072Z" fill="#00398C"/>
<path d="M62.2143 115.072V108.112H64.1643C64.6286 108.112 65 108.112 65.1857 108.205C65.4643 108.298 65.7429 108.576 65.9286 108.855C66.1143 109.226 66.2072 109.597 66.2072 110.061C66.2072 110.711 66.0214 111.175 65.7429 111.639C65.4643 112.01 64.9071 112.196 64.2571 112.196H62.8643V115.072H62.2143ZM62.8643 111.453H64.2571C64.7214 111.453 65 111.36 65.1857 111.175C65.3714 110.989 65.4643 110.618 65.4643 110.247C65.4643 109.968 65.3714 109.69 65.2786 109.504C65.1857 109.319 65.0929 109.133 64.9072 109.133C64.7214 109.133 64.5357 109.04 64.1643 109.04H62.7714V111.453H62.8643Z" fill="#00398C"/>
<path d="M67.0428 115.072V108.112H67.7857V110.989H70.4786V108.112H71.2214V115.072H70.4786V111.732H67.7857V115.072H67.0428Z" fill="#00398C"/>
<path d="M72.4286 108.112H73.1714V111.082H74.4714C74.9357 111.082 75.3072 111.175 75.5857 111.268C75.8643 111.36 76.05 111.639 76.2357 111.917C76.4214 112.196 76.5143 112.66 76.5143 113.031C76.5143 113.588 76.4214 114.052 76.1429 114.423C75.8643 114.794 75.3072 115.072 74.5643 115.072H72.4286V108.112ZM73.0786 114.33H74.3786C74.8429 114.33 75.1214 114.237 75.3072 114.052C75.4929 113.866 75.5857 113.495 75.5857 113.124C75.5857 112.845 75.4929 112.567 75.4 112.381C75.3072 112.196 75.1214 112.103 74.9357 112.01C74.75 111.917 74.4714 111.917 74.0072 111.917H73.0786V114.33ZM77.35 115.072V108.112H78.0929V115.072H77.35Z" fill="#00398C"/>
<path d="M79.3 108.112H79.8572V113.68L82.6429 108.112H83.3857V115.072H82.7357V109.504L79.95 115.072H79.2072V108.112H79.3ZM82.0857 106.349H82.55C82.55 106.72 82.3643 107.092 82.1786 107.277C81.9929 107.463 81.7143 107.556 81.4357 107.556C81.1571 107.556 80.8786 107.463 80.6929 107.277C80.5072 107.092 80.4143 106.72 80.3214 106.349H80.7857C80.8786 106.813 81.0643 106.999 81.3429 106.999C81.5286 106.999 81.7143 106.906 81.8071 106.813C81.9929 106.72 81.9929 106.628 82.0857 106.349Z" fill="#00398C"/>
<path d="M90.35 112.66L91.0929 112.938C90.9072 113.68 90.6286 114.33 90.2572 114.701C89.8857 115.072 89.4214 115.258 88.8643 115.258C88.4 115.258 87.9357 115.165 87.6572 114.887C87.3786 114.608 87.0072 114.237 86.8214 113.68C86.6357 113.124 86.45 112.474 86.45 111.639C86.45 110.896 86.5429 110.247 86.8214 109.69C87.0072 109.133 87.3786 108.762 87.75 108.484C88.1214 108.205 88.5857 108.112 89.05 108.112C89.5143 108.112 89.9786 108.298 90.35 108.669C90.7214 109.04 91 109.504 91.0929 110.154L90.4429 110.34C90.1643 109.412 89.7 108.855 89.05 108.855C88.6786 108.855 88.4 108.948 88.1214 109.133C87.8429 109.319 87.6572 109.597 87.4714 110.061C87.2857 110.432 87.2857 110.989 87.2857 111.639C87.2857 112.567 87.4714 113.309 87.75 113.773C88.0286 114.237 88.4929 114.516 88.9572 114.516C89.3286 114.516 89.7 114.33 89.9786 114.052C90.0714 113.68 90.2572 113.216 90.35 112.66Z" fill="#00398C"/>
<path d="M91.9286 115.072V108.112H95.7357V108.948H92.6714V111.082H95.55V111.917H92.6714V114.33H95.9214V115.165H91.9286V115.072Z" fill="#00398C"/>
<path d="M96.7571 115.072V108.112H98.7071C99.1714 108.112 99.5429 108.112 99.7286 108.205C100.007 108.298 100.286 108.576 100.471 108.855C100.657 109.226 100.75 109.597 100.75 110.061C100.75 110.711 100.564 111.175 100.286 111.639C100.007 112.01 99.45 112.196 98.8 112.196H97.5V115.072H96.7571ZM97.5 111.453H98.8929C99.3571 111.453 99.6357 111.36 99.8214 111.175C100.007 110.989 100.1 110.618 100.1 110.247C100.1 109.968 100.007 109.69 99.9143 109.504C99.8214 109.319 99.7286 109.133 99.5429 109.133C99.3571 109.133 99.1714 109.04 98.8 109.04H97.5V111.453Z" fill="#00398C"/>
<path d="M101.679 115.072V108.112H103.629C104 108.112 104.371 108.205 104.557 108.298C104.836 108.391 105.021 108.669 105.114 108.948C105.3 109.226 105.3 109.504 105.3 109.876C105.3 110.154 105.207 110.525 105.114 110.711C105.021 110.989 104.836 111.175 104.557 111.36C104.836 111.453 105.114 111.732 105.3 112.01C105.486 112.288 105.579 112.66 105.579 113.124C105.579 113.588 105.486 113.959 105.3 114.237C105.114 114.516 104.929 114.794 104.65 114.98C104.371 115.165 104 115.165 103.536 115.165H101.679V115.072ZM102.421 110.989H103.536C103.814 110.989 104 110.989 104.186 110.896C104.371 110.804 104.464 110.711 104.65 110.525C104.836 110.34 104.836 110.154 104.836 109.876C104.836 109.597 104.836 109.412 104.743 109.226C104.65 109.04 104.557 108.948 104.371 108.855C104.186 108.762 104 108.762 103.536 108.762H102.514V110.989H102.421ZM102.421 114.237H103.721C104 114.237 104.186 114.237 104.371 114.144C104.557 114.052 104.743 113.959 104.836 113.773C104.929 113.588 105.021 113.309 105.021 113.031C105.021 112.752 104.929 112.567 104.836 112.381C104.743 112.196 104.557 112.103 104.464 112.01C104.279 111.917 104 111.917 103.629 111.917H102.421V114.237Z" fill="#00398C"/>
<path d="M106.6 108.112H107.25V113.68L110.036 108.112H110.779V115.072H110.129V109.504L107.343 115.072H106.6V108.112Z" fill="#00398C"/>
<path d="M115.607 112.66L116.35 112.938C116.164 113.68 115.886 114.33 115.514 114.701C115.143 115.072 114.679 115.258 114.121 115.258C113.657 115.258 113.193 115.165 112.914 114.887C112.636 114.608 112.264 114.237 112.079 113.68C111.893 113.124 111.707 112.474 111.707 111.639C111.707 110.896 111.8 110.247 112.079 109.69C112.264 109.133 112.636 108.762 113.007 108.484C113.379 108.205 113.843 108.112 114.307 108.112C114.771 108.112 115.236 108.298 115.607 108.669C115.979 109.04 116.257 109.504 116.35 110.154L115.7 110.34C115.421 109.412 114.957 108.855 114.307 108.855C113.936 108.855 113.657 108.948 113.379 109.133C113.1 109.319 112.914 109.597 112.729 110.061C112.543 110.432 112.543 110.989 112.543 111.639C112.543 112.567 112.729 113.309 113.007 113.773C113.286 114.237 113.75 114.516 114.214 114.516C114.586 114.516 114.957 114.33 115.236 114.052C115.329 113.68 115.514 113.216 115.607 112.66Z" fill="#00398C"/>
</g>
<defs>
<clipPath id="clip0_11_1383">
<rect width="117" height="116" fill="white"/>
</clipPath>
</defs>
</svg>
