<svg width="64" height="49" viewBox="0 0 64 49" fill="none" xmlns="http://www.w3.org/2000/svg">
<path d="M0.146119 17.7917C0.0487062 17.0139 0 16.3333 0 15.75C0 15.1667 0 14.4861 0 13.7083C0 9.72222 1.21766 6.46527 3.65297 3.9375C6.08828 1.3125 9.4003 0 13.589 0C18.3623 0 22.0639 1.65278 24.6941 4.95833C27.3242 8.26389 28.6393 12.5903 28.6393 17.9375C28.6393 21.1458 28.1522 24.3056 27.1781 27.4167C26.204 30.5278 24.7915 33.4444 22.9406 36.1667C21.1872 38.8889 18.9954 41.3681 16.3653 43.6042C13.7352 45.8403 10.8128 47.6389 7.59817 49L1.46119 43.6042C4.18874 41.6597 6.2831 39.4236 7.74429 36.8958C9.30289 34.2708 10.0822 31.6944 10.0822 29.1667C10.0822 26.5417 9.20548 24.2083 7.45205 22.1667C5.79604 20.0278 3.36073 18.5694 0.146119 17.7917ZM35.5068 17.7917C35.4094 17.0139 35.3607 16.3333 35.3607 15.75C35.3607 15.1667 35.3607 14.4861 35.3607 13.7083C35.3607 9.72222 36.5784 6.46527 39.0137 3.9375C41.449 1.3125 44.761 0 48.9498 0C53.723 0 57.4247 1.65278 60.0548 4.95833C62.6849 8.26389 64 12.5903 64 17.9375C64 21.1458 63.5129 24.3056 62.5388 27.4167C61.5647 30.5278 60.1522 33.4444 58.3014 36.1667C56.5479 38.8889 54.3562 41.3681 51.726 43.6042C49.0959 45.8403 46.1735 47.6389 42.9589 49L36.8219 43.6042C39.5495 41.6597 41.6438 39.4236 43.105 36.8958C44.6636 34.2708 45.4429 31.6944 45.4429 29.1667C45.4429 26.5417 44.5662 24.2083 42.8128 22.1667C41.1568 20.0278 38.7215 18.5694 35.5068 17.7917Z" fill="#E31616"/>
</svg>
