<svg width="200" height="164" viewBox="0 0 200 164" fill="none" xmlns="http://www.w3.org/2000/svg">
<path d="M23.2701 163.359H0V0H100.635L23.2701 163.359Z" fill="#E31616"/>
<path d="M199.508 104.121V118.597H166.098V118.946L199.508 127.318V140.747L166.098 148.944V149.293H199.508V163.071H157.002V139.177L180.267 133.596V133.247L157.002 128.015V104.121H199.508Z" fill="#E31616"/>
<path d="M199.508 50.2293V67.3212L190.412 70.2862V83.0179L199.508 85.8084V102.028L157.002 87.2037V65.4028L199.508 50.2293ZM180.267 72.0302L166.973 76.3904V76.5648L180.267 80.925V72.0302Z" fill="#E31616"/>
<path d="M199.508 0V18.836L185.165 26.5099V26.6844L199.508 34.0095V51.6246L177.643 36.6256L157.002 49.8805V31.2189L169.596 25.1147V24.9403L157.002 18.1384V1.04645L177.643 15.1735L199.508 0Z" fill="#E31616"/>
<path d="M40.3265 163.42H143.532V120.844H60.4428L40.3265 163.42Z" fill="white"/>
<path d="M117.468 0.0338745L97.3516 42.61H143.532V0.0338745H117.468Z" fill="white"/>
<path d="M68.8396 103.104H143.532V60.35H88.9559L68.8396 103.104Z" fill="white"/>
</svg>
