<svg width="238" height="116" viewBox="0 0 238 116" fill="none" xmlns="http://www.w3.org/2000/svg">
<path d="M2.9616 69.7951C7.23042 81.2204 16.91 89.0293 27.9655 91.3622C28.0906 91.3894 28.2156 91.4112 28.3353 91.4383C28.3353 91.4383 28.6398 91.4383 28.7322 91.1284C28.8791 90.6281 28.5256 90.5248 28.5256 90.5248C18.2043 88.0233 10.292 81.2258 6.34947 70.6652C5.32169 67.9081 4.67457 65.1293 4.38091 62.3886C2.77671 60.4364 1.58579 58.5059 0.797276 56.6787C0.661327 61.0237 1.34652 65.4665 2.9616 69.7951Z" fill="#096000"/>
<path d="M1.01453 53.8238C1.81935 55.3682 2.89607 56.918 4.21207 58.4407C4.26101 55.651 4.6743 52.9211 5.43562 50.3054C4.38065 48.9187 3.50513 47.5212 2.83082 46.1182C1.93355 48.5979 1.31905 51.1864 1.01453 53.8238Z" fill="#096000"/>
<path d="M6.14227 39.3633C6.86553 40.5107 7.75736 41.6581 8.79601 42.7892C9.77485 41.2067 10.8951 39.7004 12.1621 38.2974C11.1561 37.0902 10.3458 35.8775 9.74222 34.6812C8.40992 36.144 7.19724 37.7101 6.14227 39.3633Z" fill="#096000"/>
<path d="M60.8704 36.1609C51.8705 25.2632 36.704 20.6898 22.8045 25.8776C19.0849 27.2698 15.7568 29.2492 12.8801 31.6745C13.5762 32.7948 14.4952 33.915 15.6046 35.0189C18.4595 32.6751 21.793 30.7338 25.567 29.3253C38.4496 24.5127 51.0766 27.4601 60.0166 36.5035C60.0166 36.5035 60.4571 37.069 60.8813 36.8569C61.1749 36.7156 60.8704 36.1609 60.8704 36.1609Z" fill="#096000"/>
<path d="M233.82 47.7786H232.988H215.124H205.069C203.248 47.7297 198.593 49.0511 197.309 53.9018L193.557 67.8666L192.605 71.4176C192.045 73.4133 192.551 74.9414 193.557 75.942C194.492 76.8719 195.863 77.3613 197.222 77.3613L215.124 77.4157L225.168 77.4483C227.713 77.4483 232.107 75.2786 232.961 71.3306L237.692 53.8529C238.649 50.3128 237.382 47.7786 233.82 47.7786ZM224.303 54.8535L220.165 70.2484C219.708 72.0865 218.039 73.4514 216.136 73.4025L215.124 73.397L208.327 73.3753C206.336 73.3753 205.488 72.0593 205.934 70.4116L210.023 55.0112C210.35 53.5592 211.818 51.8191 214.069 51.8463H215.124L221.943 51.8354C222.987 51.7973 224.923 52.7 224.303 54.8535Z" fill="#096000"/>
<path d="M149.51 53.8461C150.037 51.8993 149.695 50.257 148.683 49.1748C147.862 48.2939 146.595 47.7827 145.002 47.7827H144.806H128.03H117.649L117.638 47.8208L104.092 47.7936L95.119 47.7827C92.5795 47.7827 88.1801 49.9525 87.3318 53.9005L82.6334 71.2368L82.5953 71.3836C82.1875 72.8954 82.2038 74.2331 82.6334 75.2609C83.2098 76.6258 84.5204 77.4524 86.5487 77.4524H87.2992H104.086H105.353L104.456 80.7369H117.611L118.513 77.4252L128.024 77.4415L136.981 77.4578C139.526 77.4578 143.925 75.2881 144.773 71.3401L148.678 56.924L149.51 53.8461ZM106.474 73.3739L104.097 73.3793H98.3111C97.267 73.412 95.3311 72.5093 95.9565 70.3612L100.089 54.9554C100.546 53.1283 102.205 51.7633 104.097 51.8068H104.113L112.363 51.8123L106.474 73.3739ZM136.323 54.8521L132.179 70.2471C131.728 72.0851 130.058 73.45 128.155 73.4011H128.03L119.617 73.3902L125.507 51.834H128.03L133.968 51.8286C135.012 51.796 136.943 52.6987 136.323 54.8521Z" fill="#096000"/>
<path d="M82.7421 54.0861C83.0901 52.7864 83.0358 51.6281 82.6388 50.6764C81.959 49.0342 80.2896 48.0173 78.0383 48.0173C66.3303 48.0173 56.5799 47.9629 44.7904 47.9629L43.6756 52.0142H67.2928C68.3369 51.9816 70.2782 52.9386 69.6474 55.0921L68.1248 60.753H46.7861L45.6822 64.8043H67.0372L65.5091 70.4816C65.1557 71.9118 64.0735 73.0538 62.714 73.4671C62.3116 73.5432 61.8929 73.5813 61.4633 73.5813H37.7971L36.6606 77.6325L70.2184 77.6706C72.7525 77.6706 77.1519 75.5009 78.0056 71.5529L82.6334 54.4613L82.7421 54.0861Z" fill="#096000"/>
<path d="M193.563 48.5012L194.744 47.8215H193.563H186.059L165.677 59.4153C166.689 55.712 167.472 52.8027 167.57 52.4112C168.119 50.0184 167.499 47.6964 162.371 47.6964C161.501 47.6964 155.699 47.6855 155.699 47.6855L148.684 73.5704L147.629 77.464H148.684H160.756C160.756 77.464 162.349 71.6345 164.041 65.4351L168.87 62.7651L177.217 77.4857H191.225L179.43 56.6745L193.563 48.5012Z" fill="#096000"/>
<path d="M116.469 86.5884L116.306 87.4856H114.365L113.446 92.3255H112.364L113.446 86.5884H116.469Z" fill="#096000"/>
<path d="M120.711 90.3025H120.08L119.694 92.3255H118.596L119.71 86.5884H120.814H121.358C121.619 86.5884 121.858 86.6047 122.081 86.6536C122.761 86.8005 123.191 87.2301 123.191 87.9751C123.18 89.34 122.223 90.3025 120.711 90.3025ZM121.581 87.502C121.456 87.4585 121.304 87.4421 121.146 87.4421H120.635L120.249 89.4488H120.874C121.608 89.4488 122.011 88.8397 122.011 88.1436C122.005 87.8228 121.875 87.589 121.581 87.502Z" fill="#096000"/>
<path d="M131.021 86.5884C130.325 87.9424 129.575 89.2747 128.694 90.6669C127.829 92.0644 127.443 92.4233 126.491 92.4233C126.268 92.4233 126.007 92.3907 125.795 92.3418L125.953 91.4934H126.497C126.926 91.4934 127.106 91.3684 127.41 90.879C126.964 89.563 126.589 88.1165 126.274 86.5884H127.432C127.606 87.5998 127.845 88.6766 128.112 89.5629L128.155 89.8022H128.166L128.291 89.5629C128.824 88.6494 129.384 87.589 129.868 86.5884H131.021V86.5884Z" fill="#096000"/>
<path d="M136.351 92.3255L137.264 87.5346H135.035L134.132 92.3255H133.05L134.132 86.5884H138.521L137.428 92.3255H136.351Z" fill="#096000"/>
<path d="M144.469 92.3255L145.383 87.5346H143.159L142.256 92.3255H141.174L142.256 86.5884H146.645L145.552 92.3255H144.469Z" fill="#096000"/>
<path d="M152.844 92.3255C152.811 91.9067 152.762 91.4282 152.713 90.9877H150.543C150.315 91.439 150.097 91.9013 149.902 92.3255H148.803C149.766 90.3515 150.761 88.4862 151.87 86.5884H153.137C153.523 88.5134 153.828 90.4602 154.018 92.3255H152.844ZM152.642 90.1394C152.561 89.5793 152.468 88.9974 152.381 88.421C152.349 88.1654 152.316 87.9044 152.283 87.6379H152.273C152.126 87.9098 151.984 88.1871 151.843 88.4427C151.538 89.0028 151.234 89.5793 150.94 90.1339H152.642V90.1394Z" fill="#096000"/>
<path d="M165.02 92.3255L163.938 89.6282L163.454 90.0796L163.024 92.3255H161.937L163.04 86.5884H164.117L163.688 88.8397C164.46 88.1001 165.227 87.3334 165.999 86.5884H167.369L164.824 88.905L166.26 92.3255H165.02Z" fill="#096000"/>
<path d="M172.002 92.4396C170.474 92.4396 169.691 91.7272 169.691 90.3351C169.691 88.6928 170.555 86.4741 173.019 86.4741C174.525 86.4741 175.33 87.2246 175.33 88.5786C175.33 90.21 174.525 92.4396 172.002 92.4396ZM172.872 87.3877C171.382 87.3877 170.86 89.0735 170.86 90.2481C170.86 91.0203 171.186 91.5314 172.149 91.5314C173.47 91.5314 174.161 90.1176 174.161 88.6983C174.161 87.8771 173.829 87.3877 172.872 87.3877Z" fill="#096000"/>
<path d="M183.465 92.3255C183.754 90.7539 183.998 89.1606 184.113 87.7467H184.102L181.774 92.3255H180.746L180.23 87.7467H180.214C179.811 89.1442 179.409 90.7647 179.093 92.3255H178.093C178.462 90.5037 178.995 88.4699 179.588 86.5884H181.143L181.611 90.6995H181.622L183.699 86.5884H185.303C185.146 88.4862 184.89 90.4493 184.548 92.3255H183.465Z" fill="#096000"/>
<path d="M191.513 92.3255L192.427 87.5346H190.197L189.294 92.3255H188.212L189.294 86.5884H193.683L192.59 92.3255H191.513Z" fill="#096000"/>
<path d="M199.888 92.3255C199.856 91.9067 199.807 91.4282 199.758 90.9877H197.588C197.36 91.439 197.142 91.9013 196.946 92.3255H195.848C196.811 90.3515 197.806 88.4862 198.915 86.5884H200.182C200.568 88.5134 200.873 90.4602 201.063 92.3255H199.888ZM199.693 90.1394C199.611 89.5793 199.519 88.9974 199.432 88.421C199.399 88.1654 199.366 87.9044 199.334 87.6379H199.323C199.176 87.9098 199.035 88.1871 198.893 88.4427C198.589 89.0028 198.284 89.5793 197.991 90.1339H199.693V90.1394Z" fill="#096000"/>
<path d="M208.67 92.3255H207.588L208.066 89.8294H205.875L205.396 92.3255H204.298L205.413 86.5884H206.517L206.065 88.8832H208.257L208.708 86.5884H209.79L208.67 92.3255Z" fill="#096000"/>
<path d="M215.87 92.3255L216.452 89.2421L216.626 88.421L215.968 89.2258L213.352 92.3255H212.406L213.488 86.5884H214.554L213.962 89.6717L213.788 90.4929L214.445 89.688L217.067 86.5884H218.002L216.92 92.3255H215.87Z" fill="#096000"/>
<path d="M224.12 92.3262L224.702 89.2429L224.876 88.4217L224.218 89.2265L221.602 92.3262H220.656L221.738 86.5891H222.804L222.211 89.6724L222.037 90.4936L222.695 89.6888L225.316 86.5891H226.252L225.17 92.3262H224.12ZM225.876 84.9033C225.762 85.7027 225.121 86.2846 224.093 86.2846C223.223 86.2846 222.761 85.8713 222.761 85.2514C222.761 85.1372 222.766 85.023 222.804 84.9088H223.69C223.598 85.3547 223.739 85.6048 224.191 85.6048C224.609 85.6048 224.881 85.3492 224.957 84.9088H225.876V84.9033Z" fill="#096000"/>
<path d="M2.60795 39.6303C2.91792 50.0114 14.8978 60.1478 29.8577 66.0698C30.3417 66.2601 30.0046 66.135 30.494 66.3199L37.7591 57.853C19.7268 52.9479 3.36927 40.4133 5.53903 30.7881C4.16866 33.5778 2.49376 35.8889 2.60795 39.6303Z" fill="#096000"/>
<path d="M14.0609 21C13.1582 21.5982 12.0815 22.3758 11.2495 23.4797C9.73774 25.3286 9.06887 27.8573 9.60723 30.5763C10.9885 37.5261 19.8035 45.3187 32.6643 50.5555L37.1724 45.6504C20.4778 40.5115 6.92086 28.102 14.0609 21Z" fill="#A3A3A3"/>
<path d="M22.0381 73.5641C22.9843 72.4384 24.8496 70.323 26.0296 68.9255C13.495 65.0264 -1.8564 51.2683 0.916971 44.3022C-3.28116 54.8683 7.50238 66.6633 21.7118 73.4064L22.0381 73.5641Z" fill="#A3A3A3"/>
</svg>
