<svg width="74" height="75" viewBox="0 0 74 75" fill="none" xmlns="http://www.w3.org/2000/svg">
<path d="M1.91504 32.9423C1.91504 23.7256 1.91504 14.5047 1.91504 5.28814C2.29318 4.12317 3.04086 3.34939 4.25261 3.05707C13.4654 3.05707 22.6825 3.05707 31.8953 3.05707C33.6485 3.62021 34.1727 4.90555 34.1255 6.62936C34.0653 8.78306 34.1126 10.9367 34.1126 13.0904C34.1126 19.4612 34.1126 25.8278 34.1169 32.1986C34.1169 32.9423 33.9751 33.6344 33.5067 34.2319C32.8922 35.0186 32.0414 35.2636 31.0961 35.2636C28.2729 35.2679 25.4541 35.2636 22.6309 35.2636C16.7483 35.2636 10.8614 35.2593 4.97881 35.2679C4.1323 35.2679 3.32016 35.1131 2.75725 34.4554C2.38771 34.0298 2.19005 33.4538 1.91504 32.9423Z" fill="white"/>
<path d="M1.91504 70.5223C1.91504 61.3057 1.91504 52.0848 1.91504 42.8682C2.48654 41.0799 3.81002 40.6285 5.55031 40.6371C14.0369 40.6758 22.5278 40.6543 31.0187 40.6543C33.0297 40.6543 34.1126 41.7333 34.1126 43.7537C34.1169 52.4674 34.1169 61.1853 34.1126 69.899C34.1126 71.7045 32.961 72.8609 31.1648 72.8609C22.3602 72.8652 13.5556 72.8652 4.75107 72.8609C4.51473 72.8609 4.2698 72.8308 4.03776 72.7749C2.84319 72.4826 2.22013 71.6486 1.91504 70.5223ZM14.6342 46.0149C15.7643 48.4308 15.5624 50.6576 13.7103 52.4932C11.8755 54.3116 9.66255 54.462 7.31638 53.3916C7.31638 55.6399 7.31638 57.8495 7.31638 60.1149C9.68834 59.0359 11.8841 59.1993 13.7232 61.0392C15.5795 62.892 15.7299 65.1058 14.6643 67.4401C16.9374 67.4401 19.1461 67.4401 21.3805 67.4401C20.4395 65.4368 20.4094 63.4852 21.7071 61.7442C23.5376 59.2853 25.9783 58.8984 28.7284 60.102C28.7284 57.8366 28.7284 55.6184 28.7284 53.383C26.3908 54.4491 24.1908 54.3159 22.3602 52.5276C20.461 50.6748 20.2891 48.4136 21.3977 46.0149C19.1332 46.0149 16.9288 46.0149 14.6342 46.0149Z" fill="white"/>
<path d="M69.46 3.05707C70.199 3.36658 70.9639 3.6589 71.2948 4.46707C71.4839 4.93564 71.6729 5.45149 71.6729 5.94585C71.6944 14.81 71.6944 23.6741 71.6858 32.5382C71.6858 34.1373 70.4741 35.255 68.7166 35.2636C65.7989 35.2765 62.8855 35.2679 59.9679 35.2679C54.1712 35.2679 48.3788 35.2679 42.5821 35.2679C40.6012 35.2679 39.4969 34.1889 39.4969 32.2158C39.4926 23.4634 39.4926 14.7111 39.4969 5.95875C39.4969 4.77228 39.9653 3.58582 41.8173 3.06137C51.0301 3.05707 60.2472 3.05707 69.46 3.05707ZM66.3274 29.8944C66.3274 29.6537 66.3274 29.4516 66.3274 29.2539C66.3274 22.5306 66.3231 15.8073 66.3403 9.07967C66.3403 8.52943 66.1684 8.40906 65.6485 8.40906C58.928 8.42626 52.2074 8.42196 45.4826 8.42196C45.285 8.42196 45.0873 8.43915 44.8724 8.44775C44.8724 15.6224 44.8724 22.7412 44.8724 29.8901C52.0098 29.8944 59.117 29.8944 66.3274 29.8944Z" fill="white"/>
<path d="M71.6902 56.8735C71.6902 61.2196 71.6902 65.5657 71.6902 69.9161C71.6902 71.6786 70.5386 72.8607 68.7768 72.8607C59.9379 72.865 51.0989 72.865 42.26 72.8607C40.915 72.8607 39.845 71.9709 39.5786 70.6469C39.5271 70.3932 39.497 70.131 39.497 69.8731C39.4927 61.0864 39.4884 52.2996 39.5013 43.5129C39.5013 42.3522 39.9696 41.4065 41.0912 40.9379C41.5252 40.7574 42.0236 40.6628 42.492 40.6628C51.2579 40.6456 60.0195 40.6499 68.7854 40.6542C70.5343 40.6542 71.6859 41.8321 71.6859 43.6075C71.6902 48.0309 71.6902 52.4501 71.6902 56.8735ZM62.3571 46.0019C60.5523 46.0019 58.7562 45.9976 56.9557 46.0105C56.7925 46.0105 56.5991 46.1137 56.4788 46.2297C55.8901 46.7929 55.3143 47.3732 54.7385 47.9492C51.5286 51.1647 48.3187 54.3759 45.1218 57.6C44.9628 57.7591 44.8554 58.0428 44.8468 58.2706C44.8167 59.2336 44.8339 60.2008 44.8339 61.168C44.8339 61.959 44.8339 62.7457 44.8339 63.5324C50.6907 57.6774 56.5089 51.8525 62.3571 46.0019ZM48.8731 67.4615C48.8774 67.4615 48.9246 67.4958 48.9719 67.4958C50.6993 67.5001 52.4224 67.513 54.1498 67.4872C54.3732 67.483 54.6439 67.3282 54.8115 67.1605C58.5456 63.4464 62.2712 59.7193 65.9795 55.9794C66.1728 55.7816 66.3103 55.4377 66.3146 55.154C66.3447 53.5764 66.3318 51.9987 66.3275 50.4211C66.3275 50.2706 66.3018 50.1244 66.2932 50.0514C60.4793 55.859 54.674 61.6624 48.8731 67.4615ZM44.8511 50.0471C46.2003 48.7101 47.5625 47.3603 48.8902 46.0492C47.5883 46.0492 46.2261 46.0492 44.8511 46.0492C44.8511 47.4291 44.8511 48.766 44.8511 50.0471ZM62.1036 67.5001C63.4356 67.5001 64.6302 67.4872 65.8248 67.5087C66.2115 67.513 66.3404 67.3841 66.3361 66.9972C66.3146 65.9053 66.3318 64.8134 66.3275 63.7215C66.3275 63.6097 66.2889 63.498 66.2588 63.3475C64.8794 64.7231 63.5517 66.0515 62.1036 67.5001Z" fill="white"/>
<path d="M18.0162 51.4141C20.9725 51.4098 23.3574 53.8 23.3531 56.7532C23.3488 59.728 20.9725 62.1009 18.0162 62.0923C15.0513 62.0837 12.6879 59.7194 12.6836 56.7532C12.6793 53.7914 15.047 51.4184 18.0162 51.4141Z" fill="white"/>
<path fill-rule="evenodd" clip-rule="evenodd" d="M0.0478516 30.1425V2.4884C0.425989 1.32342 1.17367 0.549642 2.38543 0.257324H30.0281C31.7813 0.820466 32.3055 2.1058 32.2583 3.82962C32.2165 5.32523 32.2265 6.82085 32.2365 8.31646C32.241 8.97454 32.2454 9.63262 32.2454 10.2907V10.3076C32.2454 16.6728 32.2454 23.0337 32.2497 29.3988C32.2497 30.1425 32.1079 30.8346 31.6395 31.4321C31.025 32.2188 30.1742 32.4639 29.2289 32.4639C27.3469 32.4667 25.4669 32.4658 23.5863 32.4648C22.6457 32.4643 21.705 32.4639 20.7638 32.4639C19.293 32.4639 17.822 32.4636 16.3508 32.4633H16.3504H16.35H16.3496C11.9369 32.4625 7.52306 32.4617 3.11162 32.4682C2.26511 32.4682 1.45297 32.3134 0.890066 31.6557C0.634102 31.3609 0.4606 30.9939 0.286739 30.6262C0.209593 30.4631 0.132375 30.2997 0.0478516 30.1425ZM0.047872 67.7224V40.0683C0.619375 38.28 1.94285 37.8287 3.68315 37.8373C9.93612 37.8658 16.1914 37.8616 22.4473 37.8574H22.4476H22.4478H22.448C24.6825 37.8559 26.917 37.8545 29.1515 37.8545C31.1625 37.8545 32.2454 38.9334 32.2454 40.9539C32.2497 49.6675 32.2497 58.3855 32.2454 67.0991C32.2454 68.9046 31.0938 70.061 29.2976 70.061C20.4931 70.0653 11.6885 70.0653 2.8839 70.061C2.64756 70.061 2.40264 70.0309 2.1706 69.975C0.976027 69.6827 0.35296 68.8487 0.047872 67.7224ZM12.767 43.215C13.8971 45.631 13.6952 47.8577 11.8432 49.6933C10.0083 51.5117 7.79539 51.6622 5.44922 50.5918V57.3151C7.82117 56.2361 10.0169 56.3994 11.8561 58.2393C13.7124 60.0921 13.8628 62.306 12.7971 64.6402H19.5133C18.5723 62.637 18.5422 60.6853 19.8399 58.9443C21.6704 56.4854 24.1111 56.0985 26.8612 57.3022V50.5832C24.5237 51.6493 22.3236 51.516 20.4931 49.7277C18.5938 47.8749 18.4219 45.6138 19.5305 43.215H12.767ZM67.6782 0.293203L67.5926 0.25744C58.3798 0.25744 49.1627 0.25744 39.9499 0.261739C38.0979 0.786191 37.6295 1.97266 37.6295 3.15912C37.6252 11.9115 37.6252 20.6638 37.6295 29.4161C37.6295 31.3893 38.7338 32.4683 40.7147 32.4683H58.1005C58.9344 32.4683 59.768 32.469 60.6014 32.4697C62.6839 32.4714 64.7654 32.4732 66.8492 32.464C68.6067 32.4554 69.8184 31.3377 69.8184 29.7385C69.827 20.8744 69.827 12.0103 69.8055 3.14623C69.8055 2.65187 69.6165 2.13601 69.4274 1.66744C69.1093 0.890438 68.39 0.590267 67.6782 0.293203ZM64.46 26.4543V27.0948H64.4505C57.2434 27.0948 50.1392 27.0948 43.005 27.0905V5.64812C43.0818 5.64505 43.1564 5.64088 43.2295 5.63679L43.2296 5.63679C43.3612 5.62943 43.4882 5.62233 43.6152 5.62233L46.9773 5.62257H46.9776C52.5805 5.62317 58.1808 5.62376 63.7811 5.60943C64.3011 5.60943 64.4729 5.7298 64.4729 6.28004C64.4586 11.8867 64.4592 17.4904 64.4598 23.0936L64.46 26.4543ZM69.8228 54.0738V67.1163C69.8228 68.8788 68.6712 70.061 66.9094 70.061C58.0704 70.0653 49.2315 70.0653 40.3925 70.061C39.0476 70.061 37.9776 69.1711 37.7112 67.8471C37.6596 67.5935 37.6295 67.3312 37.6295 67.0733C37.6252 58.2866 37.6209 49.4999 37.6338 40.7131C37.6338 39.5525 38.1022 38.6067 39.2237 38.1382C39.6577 37.9576 40.1562 37.863 40.6246 37.863C49.3888 37.8458 58.1487 37.8501 66.9128 37.8544H66.9154H66.918C68.6669 37.8544 69.8185 39.0323 69.8185 40.8077C69.8228 45.2312 69.8228 49.6503 69.8228 54.0738ZM60.4897 43.2021C60.1287 43.2021 59.768 43.202 59.4076 43.2018H59.4069C57.9657 43.2011 56.5284 43.2004 55.0883 43.2107C54.925 43.2107 54.7317 43.3139 54.6113 43.43C54.0962 43.9227 53.591 44.4287 53.087 44.9333L52.8711 45.1495L51.4977 46.525C48.7459 49.2812 45.9954 52.036 43.2543 54.8003C43.0953 54.9593 42.9879 55.243 42.9793 55.4709C42.9573 56.1769 42.9606 56.8851 42.964 57.5941V57.5943L42.964 57.5964C42.9652 57.8537 42.9664 58.111 42.9664 58.3683V60.7326C46.8706 56.8297 50.7575 52.9402 54.6477 49.0475C56.5934 47.1005 58.5398 45.1528 60.4897 43.2021ZM47.0056 64.6617C47.0066 64.6617 47.0099 64.6635 47.015 64.6664C47.0318 64.6758 47.0681 64.6961 47.1045 64.6961C47.4189 64.6969 47.7333 64.6979 48.0475 64.699C49.4594 64.7038 50.8694 64.7086 52.2824 64.6875C52.5058 64.6832 52.7765 64.5284 52.9441 64.3608C56.6782 60.6466 60.4037 56.9196 64.112 53.1796C64.3054 52.9819 64.4429 52.638 64.4472 52.3543C64.4723 51.0396 64.4675 49.725 64.4627 48.4104V48.4094C64.4618 48.1467 64.4608 47.884 64.4601 47.6213C64.4601 47.5028 64.4441 47.387 64.4331 47.3074L64.4331 47.3073L64.433 47.3066C64.4301 47.2854 64.4275 47.2669 64.4257 47.2516C58.6292 53.0419 52.8412 58.828 47.0575 64.6098L47.0056 64.6617ZM42.9836 47.2473L43.0936 47.1384L43.0947 47.1372C44.4076 45.8363 45.7315 44.5246 47.0228 43.2494H42.9836V47.2473ZM61.3186 64.6984H61.3202C62.2337 64.6959 63.0955 64.6935 63.9574 64.709C64.3441 64.7133 64.473 64.5843 64.4687 64.1974C64.4549 63.4959 64.4571 62.7945 64.4592 62.093V62.092C64.4604 61.7019 64.4616 61.3118 64.4601 60.9217C64.4601 60.8452 64.442 60.7686 64.4209 60.6796L64.4208 60.6796C64.4111 60.6386 64.4008 60.5951 64.3913 60.5477C63.0179 61.9175 61.6955 63.2404 60.2546 64.6819L60.2402 64.6964L60.2361 64.7004C60.6066 64.7004 60.9664 64.6994 61.3186 64.6984ZM21.4857 53.9534C21.49 51.0002 19.1051 48.61 16.1488 48.6143C13.1795 48.6186 10.8119 50.9916 10.8162 53.9534C10.8205 56.9196 13.1838 59.2839 16.1488 59.2925C19.1051 59.3011 21.4814 56.9282 21.4857 53.9534Z" fill="url(#paint0_linear)"/>
<defs>
<linearGradient id="paint0_linear" x1="34.9358" y1="0.257324" x2="34.9358" y2="70.0643" gradientUnits="userSpaceOnUse">
<stop stop-color="#C6A95E"/>
<stop offset="1" stop-color="#A08643"/>
</linearGradient>
</defs>
</svg>
