<svg width="379" height="379" viewBox="0 0 379 379" fill="none" xmlns="http://www.w3.org/2000/svg">
<rect width="318" height="379" transform="translate(61)" fill="#262930"/>
<path d="M210.563 336.043C213.536 337.863 216.209 338.492 218.58 337.929C220.957 337.358 222.857 335.91 224.28 333.587C225.698 331.271 226.123 328.921 225.557 326.536C224.991 324.151 223.221 322.048 220.248 320.227L219.173 319.57C216.2 317.749 213.523 317.129 211.141 317.708C208.759 318.288 206.859 319.736 205.441 322.051C204.019 324.374 203.593 326.725 204.164 329.101C204.741 331.47 206.516 333.564 209.489 335.385L210.563 336.043ZM213.818 332.299L211.357 330.792C209.558 329.69 208.446 328.551 208.021 327.375C207.588 326.194 207.723 325.028 208.427 323.879C209.126 322.738 210.102 322.088 211.356 321.928C212.607 321.755 214.132 322.22 215.931 323.321L218.392 324.828C220.191 325.93 221.302 327.08 221.725 328.278C222.153 329.467 222.018 330.633 221.319 331.774C220.615 332.923 219.639 333.573 218.39 333.724C217.141 333.875 215.617 333.4 213.818 332.299Z" fill="white"/>
<path d="M220.045 318.145L222.386 314.323L232.018 320.221L234.412 316.311L224.781 310.413L227.114 306.603L224.19 304.813L217.122 316.355L220.045 318.145Z" fill="white"/>
<path d="M237.839 310.714L242.284 303.456C243.227 301.915 243.624 300.584 243.475 299.462C243.323 298.327 242.706 297.428 241.623 296.765C240.757 296.234 239.909 296.076 239.08 296.29C238.251 296.503 237.489 297.027 236.795 297.862L236.757 297.839C237.07 296.954 237.122 296.139 236.915 295.393C236.707 294.648 236.199 294.028 235.392 293.533C234.359 292.901 233.351 292.799 232.367 293.227C231.388 293.647 230.415 294.648 229.446 296.23L225.284 303.026L237.839 310.714ZM232.66 302.286L229.911 300.603L231.158 298.567C231.505 298.001 231.87 297.657 232.253 297.537C232.641 297.408 233.047 297.474 233.472 297.734C233.947 298.024 234.226 298.373 234.309 298.779C234.393 299.185 234.258 299.675 233.906 300.25L232.66 302.286ZM237.881 305.484L234.871 303.64L236.301 301.304C236.673 300.696 237.078 300.326 237.515 300.192C237.951 300.059 238.404 300.142 238.874 300.441C239.365 300.741 239.653 301.123 239.735 301.586C239.815 302.036 239.674 302.556 239.312 303.148L237.881 305.484Z" fill="white"/>
<path d="M239.951 293.577C241.908 294.775 243.838 295.138 245.742 294.667C247.637 294.19 249.233 292.893 250.528 290.778C251.415 289.329 251.881 287.96 251.927 286.67C251.977 285.373 251.686 284.25 251.053 283.301L247.82 285.41C248.077 285.945 248.215 286.533 248.234 287.175C248.253 287.816 248.064 288.462 247.666 289.112C247.11 290.019 246.379 290.522 245.472 290.619C244.562 290.703 243.565 290.414 242.483 289.751L241.646 289.238C240.646 288.626 239.971 287.915 239.62 287.105C239.266 286.281 239.346 285.448 239.861 284.607C240.315 283.866 240.88 283.439 241.556 283.326C242.237 283.205 242.898 283.341 243.539 283.733L243.752 283.863L239.881 290.184L242.117 291.554L248.336 281.397L247.075 280.625C245.134 279.437 243.281 279.04 241.516 279.437C239.755 279.824 238.286 280.98 237.108 282.904C235.93 284.828 235.558 286.753 235.993 288.68C236.425 290.593 237.611 292.144 239.551 293.332L239.951 293.577Z" fill="white"/>
<path d="M244.738 277.82L247.079 273.997L256.711 279.895L259.105 275.985L249.474 270.087L251.807 266.277L248.884 264.487L241.815 276.03L244.738 277.82Z" fill="white"/>
<path d="M256.043 267.325C258.017 268.534 259.95 268.893 261.842 268.403C263.734 267.912 265.284 266.68 266.493 264.706C267.671 262.783 268.12 261.02 267.842 259.418C267.563 257.816 266.742 256.586 265.378 255.727L265.178 255.605L262.853 259.403L263.002 259.495C263.569 259.841 263.941 260.309 264.118 260.899C264.3 261.48 264.152 262.162 263.672 262.945C263.137 263.819 262.431 264.28 261.554 264.328C260.678 264.375 259.715 264.077 258.666 263.435L257.904 262.968C256.838 262.315 256.138 261.589 255.803 260.789C255.465 259.975 255.557 259.143 256.077 258.294C256.526 257.561 257.054 257.129 257.661 256.997C258.266 256.852 258.868 256.963 259.467 257.33L259.63 257.429L261.955 253.631L261.698 253.491C260.266 252.706 258.789 252.546 257.268 253.011C255.738 253.472 254.384 254.664 253.206 256.587C251.992 258.569 251.599 260.51 252.028 262.41C252.448 264.305 253.649 265.859 255.631 267.073L256.043 267.325Z" fill="white"/>
<path d="M260.772 251.636L263.113 247.813L272.745 253.711L275.139 249.801L265.507 243.903L267.84 240.093L264.917 238.303L257.849 249.846L260.772 251.636Z" fill="white"/>
<path d="M278.566 244.205L283.01 236.947C283.954 235.406 284.351 234.075 284.202 232.953C284.05 231.817 283.433 230.918 282.35 230.255C281.484 229.725 280.636 229.567 279.807 229.78C278.977 229.994 278.216 230.518 277.521 231.352L277.484 231.329C277.797 230.445 277.849 229.629 277.642 228.884C277.434 228.138 276.926 227.518 276.118 227.024C275.086 226.391 274.078 226.289 273.094 226.717C272.115 227.137 271.142 228.138 270.173 229.721L266.011 236.517L278.566 244.205ZM273.386 235.777L270.638 234.094L271.885 232.058C272.232 231.491 272.597 231.148 272.98 231.027C273.368 230.899 273.774 230.964 274.199 231.224C274.673 231.515 274.953 231.863 275.036 232.27C275.119 232.676 274.985 233.166 274.633 233.741L273.386 235.777ZM278.608 238.974L275.598 237.131L277.028 234.795C277.4 234.187 277.805 233.816 278.241 233.683C278.678 233.549 279.131 233.632 279.601 233.931C280.092 234.232 280.379 234.614 280.462 235.077C280.542 235.527 280.401 236.047 280.039 236.638L278.608 238.974Z" fill="white"/>
<path d="M280.678 227.067C282.635 228.266 284.565 228.629 286.469 228.157C288.364 227.68 289.959 226.384 291.255 224.269C292.142 222.82 292.608 221.45 292.653 220.161C292.704 218.864 292.412 217.74 291.779 216.792L288.547 218.901C288.804 219.435 288.942 220.024 288.961 220.665C288.98 221.307 288.791 221.953 288.393 222.602C287.837 223.51 287.106 224.013 286.199 224.11C285.289 224.194 284.292 223.904 283.21 223.241L282.373 222.729C281.373 222.117 280.698 221.406 280.347 220.595C279.993 219.771 280.073 218.939 280.588 218.098C281.042 217.356 281.607 216.929 282.283 216.817C282.964 216.695 283.625 216.831 284.266 217.224L284.479 217.354L280.608 223.675L282.844 225.044L289.063 214.888L287.802 214.115C285.861 212.927 284.008 212.531 282.243 212.927C280.482 213.315 279.013 214.471 277.835 216.395C276.657 218.318 276.285 220.244 276.72 222.17C277.152 224.083 278.338 225.634 280.278 226.822L280.678 227.067Z" fill="white"/>
<path d="M283.177 208.484L295.732 216.172L298.126 212.262L293.179 209.232L295.704 205.11L300.651 208.139L303.053 204.217L290.498 196.529L288.096 200.451L292.83 203.35L290.306 207.473L285.571 204.574L283.177 208.484Z" fill="white"/>
<path d="M292.219 193.718L304.774 201.406L307.168 197.496L302.221 194.466L304.745 190.344L309.692 193.373L312.094 189.451L299.54 181.763L297.138 185.685L301.872 188.584L299.348 192.707L294.613 189.808L292.219 193.718Z" fill="white"/>
<path d="M307.326 183.576C309.284 184.775 311.222 185.115 313.143 184.596C315.064 184.078 316.639 182.815 317.868 180.808C319.092 178.809 319.498 176.836 319.087 174.89C318.676 172.943 317.492 171.371 315.535 170.172L315.122 169.92C313.173 168.726 311.239 168.389 309.318 168.908C307.389 169.421 305.812 170.677 304.588 172.676C303.365 174.675 302.96 176.654 303.374 178.614C303.785 180.561 304.965 182.131 306.914 183.324L307.326 183.576ZM309.187 179.219C308.113 178.562 307.427 177.821 307.13 176.998C306.837 176.166 306.956 175.317 307.487 174.451C308.012 173.593 308.711 173.105 309.585 172.987C310.459 172.87 311.433 173.14 312.507 173.798L313.257 174.257C314.339 174.92 315.034 175.665 315.339 176.494C315.645 177.322 315.53 178.174 314.995 179.048C314.459 179.923 313.753 180.412 312.876 180.516C311.999 180.621 311.024 180.344 309.949 179.686L309.187 179.219Z" fill="white"/>
<path d="M316.46 168.661C318.434 169.869 320.367 170.228 322.259 169.738C324.151 169.248 325.701 168.015 326.91 166.042C328.088 164.118 328.538 162.355 328.259 160.753C327.98 159.151 327.159 157.921 325.795 157.063L325.595 156.94L323.27 160.738L323.42 160.83C323.986 161.177 324.358 161.645 324.535 162.234C324.717 162.815 324.569 163.497 324.089 164.28C323.554 165.155 322.848 165.616 321.972 165.663C321.095 165.71 320.132 165.413 319.083 164.77L318.321 164.303C317.255 163.651 316.555 162.924 316.22 162.124C315.883 161.31 315.974 160.479 316.494 159.629C316.943 158.896 317.471 158.464 318.078 158.332C318.683 158.187 319.285 158.298 319.884 158.665L320.047 158.764L322.372 154.967L322.115 154.826C320.683 154.041 319.206 153.881 317.685 154.347C316.155 154.807 314.801 155.999 313.623 157.923C312.409 159.905 312.016 161.846 312.445 163.745C312.865 165.64 314.066 167.194 316.048 168.408L316.46 168.661Z" fill="white"/>
<path d="M321.189 152.971L323.53 149.149L333.162 155.047L335.556 151.136L325.924 145.239L328.258 141.428L325.334 139.638L318.266 151.181L321.189 152.971Z" fill="white"/>
<path d="M328.823 133.942L326.428 137.852L338.983 145.54L343.099 138.819C344.078 137.22 344.453 135.784 344.225 134.511C343.994 133.224 343.187 132.157 341.805 131.311C340.447 130.479 339.126 130.243 337.842 130.602C336.562 130.952 335.433 131.926 334.454 133.525L332.733 136.336L328.823 133.942ZM336.527 135.946C336.925 135.296 337.365 134.924 337.846 134.83C338.328 134.735 338.831 134.849 339.356 135.17C339.922 135.517 340.272 135.926 340.407 136.398C340.534 136.865 340.398 137.423 340 138.072L338.791 140.046L335.319 137.92L336.527 135.946Z" fill="white"/>
<path d="M141.178 379H0V0H379L141.178 379Z" fill="white"/>
<g clip-path="url(#clip0_6_526)">
<path d="M148.707 262C146.597 260.901 146.047 259.435 147.331 257.328C148.432 255.587 149.808 254.029 151.092 252.472C151.55 251.922 151.917 251.373 152.284 250.823C153.018 249.54 152.926 248.441 152.009 247.708C151.275 247.158 149.899 247.525 149.074 248.441C146.964 251.006 144.855 253.571 142.653 256.045C141.828 256.961 140.727 257.602 139.718 258.152C138.617 258.793 137.517 258.702 136.508 257.877C135.407 257.053 134.857 255.862 135.04 254.488C135.224 252.93 135.958 251.647 136.966 250.456C138.526 248.624 140.268 246.883 141.736 245.051C142.562 244.043 143.295 242.852 143.937 241.57C144.121 241.203 144.029 240.379 143.754 240.012C143.387 239.646 142.562 239.371 142.103 239.554C141.369 239.829 140.635 240.379 140.177 240.928C138.617 242.761 137.333 244.776 135.682 246.517C134.215 248.074 132.472 249.449 130.821 250.915C130.362 251.281 129.812 251.464 129.262 251.647C127.886 252.106 126.51 251.831 125.409 250.823C124.309 249.815 124.309 248.441 124.767 247.158C125.134 246.242 125.593 245.326 126.235 244.501C128.987 241.112 131.83 237.813 134.673 234.515C135.04 234.149 135.407 233.691 135.499 233.141C135.774 232.316 135.682 231.492 134.949 231.034C134.49 230.759 133.664 230.759 133.206 231.034C132.197 231.675 131.28 232.408 130.546 233.324C128.895 235.34 127.519 237.447 125.868 239.462C125.043 240.47 124.034 241.386 123.025 242.028C120.548 243.494 116.971 242.028 116.604 239.462C116.512 238.546 116.604 237.539 117.063 236.714C117.796 235.248 118.622 233.782 119.631 232.5C127.06 222.88 134.398 213.26 141.369 203.182C142.562 201.533 142.011 199.701 140.085 199.243C138.251 198.785 136.324 198.693 134.398 198.418C133.389 198.327 132.38 198.235 131.188 198.052C133.481 194.662 135.591 191.181 139.902 190.356C144.213 189.532 148.615 188.799 153.018 188.157C156.595 187.608 160.264 187.241 163.841 186.875C166.593 186.6 168.978 185.317 170.904 183.393C172.463 181.836 173.931 180.187 175.49 178.446C175.582 178.721 175.765 178.996 175.949 179.271C180.26 188.707 184.662 198.144 188.973 207.58C189.157 207.946 189.248 208.588 189.065 208.954C185.213 216.833 181.268 224.621 177.416 232.5C174.756 237.813 171.087 242.303 166.868 246.334C162.19 250.823 157.696 255.495 153.018 260.076C152.376 260.717 151.55 261.176 150.817 261.725C150.083 262 149.441 262 148.707 262Z" fill="#262930"/>
<path d="M168.244 180.736C167.51 178.904 166.868 177.255 166.134 175.697C165.125 173.407 165.034 171.117 165.859 168.826C168.244 162.505 170.629 156.275 173.013 149.953C173.289 149.22 173.656 148.487 173.931 147.755C175.215 144.548 175.307 141.433 174.114 138.043C171.821 131.722 169.711 125.4 167.51 118.987C168.519 118.895 169.711 118.804 170.904 118.621C179.893 117.796 188.973 116.971 198.054 117.246C198.604 117.246 199.063 117.155 199.246 117.979C202.09 128.515 207.226 137.86 213.371 146.747C216.031 150.503 218.6 154.351 221.26 158.107C224.286 162.505 225.846 167.544 227.313 172.583C228.964 178.354 230.707 184.126 232.358 189.898C232.725 191.364 232.908 192.83 232.908 194.387C232.908 195.578 232.175 196.494 230.982 196.861C229.79 197.227 228.873 196.769 228.23 195.853C227.405 194.662 226.579 193.471 226.029 192.188C225.295 190.631 224.653 188.982 224.011 187.333C223.553 186.142 222.635 186.233 221.718 186.325C220.709 186.417 220.434 187.149 220.526 187.974C220.617 189.073 220.893 190.173 221.26 191.181C222.177 193.471 223.186 195.67 224.103 197.96C224.562 199.151 224.745 200.525 224.837 201.808C224.928 203.366 223.919 204.373 222.544 205.015C221.168 205.564 219.884 205.29 218.966 204.19C217.866 202.724 216.765 201.258 216.031 199.609C214.747 196.861 213.738 193.929 212.546 191.089C212.179 190.264 211.812 189.532 210.711 189.898C209.702 190.173 209.336 190.997 209.427 191.914C209.611 193.105 209.886 194.387 210.345 195.578C211.353 198.235 212.638 200.8 213.555 203.457C214.013 204.923 214.197 206.572 214.105 208.13C214.013 209.87 212.454 211.245 210.803 211.428C209.06 211.611 207.409 210.512 206.767 208.863C205.025 204.282 203.19 199.793 201.356 195.212C201.081 194.387 200.805 193.471 199.521 193.471C198.421 193.471 197.595 193.929 197.687 195.028C197.687 195.945 197.87 196.861 198.237 197.685C199.063 199.793 200.163 201.9 200.989 204.007C201.631 205.564 202.181 207.213 202.456 208.863C202.915 210.878 201.906 212.619 200.163 213.352C197.87 214.268 196.036 213.901 194.66 212.069C194.018 211.245 193.559 210.237 193.192 209.321C187.964 197.777 182.644 186.142 177.416 174.598C176.958 173.59 176.224 173.682 175.49 173.774C174.114 173.957 173.105 174.69 172.28 175.789C171.271 177.072 170.354 178.446 169.345 179.729C169.069 179.912 168.702 180.278 168.244 180.736Z" fill="#E31616"/>
<path d="M121.19 104.42C122.566 100.847 123.942 97.274 125.318 93.7926C127.978 87.3795 130.638 80.9663 133.389 74.5532C133.573 74.1867 134.031 73.7286 134.398 73.7286C141.002 73.7286 147.423 72.3544 153.752 70.5221C159.163 68.9646 164.667 67.7736 170.262 67.3155C174.206 66.949 178.058 67.5904 182.002 68.0484C186.405 68.5981 190.716 69.0562 195.119 69.5143C197.045 69.6975 199.063 69.8808 200.989 70.1556C202.548 70.3388 203.924 70.9802 204.383 72.7209C204.841 74.2783 204.291 75.561 202.732 75.9274C201.081 76.2939 199.43 76.3855 197.687 76.4771C196.128 76.5687 194.477 76.4771 192.917 76.4771C192 76.4771 191.174 77.3933 191.083 78.2178C190.991 79.2256 191.358 79.9585 192.367 80.1418C194.11 80.4166 195.761 80.5999 197.503 80.6915C199.98 80.7831 202.548 80.6915 205.025 80.9663C207.134 81.1496 208.235 82.4322 208.602 84.3561C208.877 86.0968 208.327 87.4711 206.584 88.0208C205.025 88.4789 203.374 88.6621 201.723 88.7537C199.43 88.8453 197.136 88.6621 194.935 88.6621C193.834 88.6621 192.734 88.5705 191.725 88.7537C191.266 88.8453 190.441 89.3034 190.441 89.7615C190.349 90.3112 190.624 91.1357 191.083 91.5022C191.541 91.8687 192.367 92.0519 193.101 92.0519C196.861 92.3267 200.622 92.4184 204.291 92.6932C205.483 92.7848 206.676 93.1513 207.776 93.6094C209.244 94.2507 209.886 95.6249 210.161 97.1824C210.345 98.5566 209.611 99.9309 208.143 100.389C206.951 100.755 205.758 100.939 204.566 100.939C200.53 100.939 196.403 100.755 192.367 100.664C191.633 100.664 190.899 100.664 190.257 100.847C189.34 101.122 188.881 101.672 189.065 102.679C189.248 103.687 189.799 103.962 190.716 104.054C194.935 104.237 199.246 104.512 203.465 104.787C206.034 104.97 207.409 106.161 207.593 108.634C207.776 111.016 206.309 113.307 204.016 113.582C201.814 113.857 199.521 113.765 197.32 113.765C189.248 113.673 181.085 113.307 173.013 114.406C170.812 114.681 168.611 114.589 166.409 114.681C162.374 114.864 161.456 116.33 163.107 119.995C163.841 121.644 164.667 123.201 165.4 124.759C165.584 125.125 165.767 125.492 165.951 126.133C162.924 126.133 160.081 126.408 157.237 125.583C156.962 125.492 156.779 125.4 156.595 125.217C152.284 121.644 147.973 118.163 143.754 114.498C142.195 113.215 140.911 111.658 139.718 110.009C135.682 104.42 130.271 102.863 123.758 103.962C123.025 104.054 122.291 104.145 121.649 104.237C121.465 104.512 121.465 104.42 121.19 104.42Z" fill="#262930"/>
<path d="M127.427 108.268C127.152 109.001 126.877 109.459 126.785 110.009C125.776 114.315 122.933 116.971 118.897 118.529C113.485 120.728 108.166 123.11 102.57 124.85C97.3423 126.5 93.7651 129.523 91.3803 134.287C90.0962 136.761 88.9038 139.234 87.6197 141.708C87.4363 141.525 87.2528 141.341 87.1611 141.158C81.7494 132.455 76.3378 123.659 70.8345 114.956C69.3669 112.666 69.1835 110.558 69.8255 107.901C71.9351 99.5644 73.7696 91.2273 75.6958 82.8902C76.7964 78.3094 78.906 74.2783 81.2908 70.3388C84.0425 65.6664 86.7942 60.994 89.5459 56.2299C90.7383 54.1227 92.1141 52.1988 94.0403 50.6413C95.0492 49.8168 95.9664 50 96.9754 50.4581C97.9843 50.9162 98.3512 51.8323 98.1678 52.7485C98.0761 53.8479 97.8009 54.8557 97.434 55.8635C96.6085 57.9706 95.6913 59.9862 94.8658 62.0017C94.3154 63.376 95.141 64.6586 96.6085 64.6586C97.0671 64.6586 97.6175 64.3838 97.8926 64.0173C98.6264 63.0095 99.1767 61.9101 99.8188 60.7191C101.011 58.3371 102.112 55.9551 103.304 53.6647C103.671 52.9317 104.221 52.382 104.772 51.8323C105.964 50.5497 107.248 50.2749 108.624 50.9162C110.183 51.6491 111.101 52.8401 110.826 54.5808C110.55 56.0467 110.092 57.6042 109.541 58.9784C108.532 61.2688 107.248 63.376 106.239 65.6664C105.781 66.5826 105.506 67.5903 105.23 68.5065C105.047 69.2394 105.322 69.8807 106.056 70.064C106.606 70.1556 107.34 70.1556 107.707 69.7891C108.349 69.2394 108.808 68.4149 109.175 67.6819C110.275 65.3915 111.284 63.0095 112.477 60.8107C113.302 59.3449 114.311 57.9706 115.228 56.5964C115.412 56.3215 115.595 56.1383 115.87 55.9551C117.613 54.306 119.447 54.0311 121.098 55.1305C122.749 56.3215 123.3 58.2455 122.199 60.4443C120.732 63.376 119.081 66.1245 117.705 69.0562C116.879 70.7969 116.237 72.7208 115.595 74.5532C115.228 75.5609 115.87 76.1106 116.696 76.4771C117.521 76.8436 118.163 76.5687 118.622 75.8358C118.989 75.2861 119.264 74.6448 119.539 74.0035C121.19 70.4304 122.566 66.8574 125.043 63.7425C125.226 63.4676 125.409 63.1928 125.685 63.0095C126.877 61.8185 128.161 60.8107 129.904 61.6353C131.647 62.4598 132.931 63.9257 132.747 65.9412C132.655 67.2239 132.38 68.5981 131.83 69.7891C127.886 79.2256 123.942 88.5705 119.998 98.0069C119.172 100.022 118.347 101.946 117.521 103.962C117.338 104.512 117.154 105.061 117.063 105.611C116.696 107.718 117.43 108.726 119.539 108.726C121.19 108.726 122.841 108.36 124.492 108.268C125.409 108.176 126.327 108.268 127.427 108.268Z" fill="#262930"/>
<path d="M93.9485 137.494C95.2327 139.967 96.4251 142.074 97.434 144.365C97.8926 145.373 97.8009 146.655 97.6175 147.846C96.7002 155.45 95.1409 162.871 92.5727 170.017C91.1969 174.048 91.3803 177.805 93.4899 181.469C94.2237 182.752 94.8658 184.218 95.4161 185.592C95.5996 186.05 95.6913 186.508 95.9664 187.333C92.1141 187.333 88.4452 187.333 84.868 187.333C77.4385 187.333 70.1007 187.424 62.6711 187.333C62.2125 187.333 61.6622 187.15 61.387 186.875C55.7002 180.462 50.1051 174.048 44.4183 167.635C41.7584 164.52 39.5571 161.131 37.9978 157.283C35.1544 150.595 32.2192 143.907 29.3758 137.127C28.8255 135.753 28.3669 134.379 28.1835 132.913C27.9083 131.447 28.6421 130.439 29.9262 129.889C31.1186 129.34 32.2192 129.523 33.2282 130.714C33.962 131.63 34.604 132.638 35.2461 133.646C35.9799 134.928 36.6219 136.303 37.4474 137.585C38.4564 139.234 39.5571 139.692 40.6577 139.051C41.7584 138.41 42.0336 137.219 41.1163 135.57C40.2908 134.012 39.2819 132.455 38.3647 130.897C37.1723 128.882 35.9799 126.774 35.613 124.392C35.3378 122.835 35.7047 121.552 37.0805 120.636C38.5481 119.72 40.1074 119.72 41.3915 121.003C42.7673 122.377 43.9597 124.026 44.9687 125.675C46.0694 127.507 46.8949 129.615 47.9038 131.539C48.179 132.18 48.5459 132.821 48.9128 133.279C49.5548 134.104 50.472 134.287 51.2975 133.829C52.0313 133.371 52.2148 132.363 51.8479 131.539C51.0224 129.798 50.1052 128.149 49.2796 126.408C48.0873 124.118 46.8949 121.827 45.7942 119.445C44.877 117.43 45.0604 115.597 46.4362 113.857C47.8121 112.116 50.3803 112.024 51.7562 113.765C52.3065 114.406 52.6734 115.048 53.0403 115.781C54.783 118.987 56.434 122.285 58.2685 125.492C59.0022 126.683 60.0112 127.782 60.9284 128.882C61.2036 129.157 61.8456 129.34 62.1208 129.157C62.6711 128.882 63.4966 128.515 63.1298 127.599C62.4877 126.042 61.9374 124.392 61.1119 122.835C60.1029 120.819 58.8188 118.987 57.7181 117.063C57.3512 116.422 57.0761 115.781 56.8926 115.048C56.1588 112.299 57.6264 109.551 60.3781 108.909C61.2036 108.726 62.396 109.001 63.1298 109.551C64.1387 110.284 65.0559 111.2 65.698 112.299C70.5593 120.27 75.3289 128.24 80.0984 136.211C81.4743 138.501 82.7584 140.883 84.226 143.082C84.9597 144.273 85.9687 145.281 86.9776 146.38C87.6197 147.022 88.3535 146.93 89.179 146.289C91.2886 144.273 92.481 141.8 93.5817 139.143C93.4899 138.685 93.5817 138.227 93.9485 137.494Z" fill="#262930"/>
<path d="M96.5168 178.904C99.3602 178.904 102.02 178.721 104.68 179.545C105.139 179.637 105.597 179.912 106.056 180.187C112.385 184.951 118.347 190.173 123.208 196.403C126.327 200.342 130.271 202.175 135.224 202.266C136.049 202.266 136.966 202.358 137.884 202.449C137.609 202.908 137.425 203.182 137.242 203.457C130.087 213.077 122.933 222.788 115.779 232.408C115.228 233.233 114.586 233.599 113.577 233.782C107.89 234.698 102.295 235.889 96.6085 236.714C91.0134 237.538 85.5101 237.447 79.915 236.622C73.7696 235.706 67.5324 234.882 61.387 234.057C60.5615 233.965 59.736 233.874 59.094 233.599C58.3602 233.324 57.6264 232.866 57.2595 232.225C55.7002 230.026 56.434 228.377 59.0022 228.01C60.9284 227.736 62.9463 227.827 64.9642 227.736C66.1566 227.644 67.349 227.552 68.5414 227.369C69.4586 227.186 70.1924 226.819 70.1924 225.72C70.1924 224.712 69.5503 223.888 68.4497 223.704C66.8904 223.43 65.3311 223.338 63.8635 223.246C61.4788 223.155 59.094 223.063 56.7092 222.971C56.2506 222.971 55.7002 222.788 55.2416 222.605C53.5906 222.055 52.7651 221.139 52.6734 219.765C52.5817 217.933 53.3154 216.375 54.8747 215.825C56.2506 215.367 57.8098 215.092 59.2774 215.092C61.5705 215.092 63.7718 215.367 66.0649 215.459C67.349 215.551 68.6331 215.459 69.9172 215.459C70.651 215.459 71.1096 214.909 71.1096 214.36C71.1096 213.901 70.9262 213.077 70.5593 212.894C69.2752 212.344 67.8076 211.886 66.4318 211.794C63.4049 211.519 60.3781 211.519 57.3512 211.336C56.0671 211.245 54.783 210.878 53.5906 210.42C52.0313 209.779 51.2975 208.588 51.3893 206.939C51.481 205.015 52.3065 203.915 53.9575 203.366C56.434 202.633 58.9105 202.999 61.387 203.274C64.047 203.457 66.7069 203.732 69.3669 203.824C70.2841 203.824 71.2013 203.549 72.0268 203.182C72.3937 202.999 72.8524 202.449 72.7606 202.083C72.6689 201.533 72.3937 200.892 71.9351 200.617C71.3848 200.251 70.5593 200.251 69.8255 200.251C66.2483 199.976 62.6711 199.793 59.0022 199.609C58.5436 199.609 58.1767 199.518 57.7181 199.334C55.6085 198.785 54.3244 197.502 54.1409 195.67C53.9575 193.746 55.1499 191.73 56.9843 190.906C57.3512 190.723 57.9016 190.631 58.3602 190.631C71.3848 190.448 84.5011 190.356 97.5257 190.264C99.3602 190.264 100.553 188.89 100.094 187.058C99.7271 185.775 99.085 184.584 98.443 183.302C97.8926 182.202 97.1588 181.194 96.6085 180.095C96.6085 179.82 96.6085 179.362 96.5168 178.904Z" fill="#262930"/>
</g>
<defs>
<clipPath id="clip0_6_526">
<rect width="205" height="212" fill="white" transform="translate(28 50)"/>
</clipPath>
</defs>
</svg>
