<svg width="281" height="116" viewBox="0 0 281 116" fill="none" xmlns="http://www.w3.org/2000/svg">
<path d="M239.237 68.174C243.991 68.174 246.083 65.4663 247.514 62.8155L245.223 61.1908C243.877 63.6991 242.445 65.1527 239.066 65.0672C234.74 64.9817 233.221 61.2763 233.165 61.1338L230.701 62.3879C230.787 62.616 232.934 68.06 239.036 68.174C239.066 68.174 239.151 68.174 239.237 68.174ZM246.884 70.1691H246.827H246.454V70.1976C245.652 70.3686 244.621 71.2808 239.036 76.7533C236.487 79.233 232.448 83.1663 229.67 85.5891L230.643 76.4682C230.672 76.1547 230.9 73.1904 229.04 71.1383C228.294 70.3117 226.891 69.3141 224.542 69.3141V72.9624C225.745 72.9624 226.174 73.4184 226.319 73.561C227.006 74.302 227.063 75.6702 227.006 76.0977L225.286 91.8312H228.982L229.126 90.5486C231.074 89.3229 234.424 86.2447 241.528 79.3185C243.075 77.8078 244.736 76.1832 245.968 75.0432L244.307 91.8312H248.059L250.064 70.1976L246.884 70.1691ZM99.1951 69.2855C90.1434 69.2855 87.7373 73.3615 87.7373 75.7842H91.3179C91.3464 75.2142 92.7787 72.8769 99.1951 72.8769C106.872 72.8769 106.872 75.7842 106.872 77.1809C106.872 77.9788 106.843 78.8055 106.757 79.575H94.6692L94.3255 83.1379H106.098L106.012 83.3089C105.955 83.4229 105.898 83.5939 105.812 83.7934C105.239 85.2756 103.864 88.6959 96.1873 88.6959C90.0862 88.6959 88.2243 87.4133 88.1669 87.3847L85.5603 89.836C85.9614 90.235 88.2815 92.2587 96.1873 92.2587C106.327 92.2587 108.476 86.8716 109.163 85.0761L109.278 84.8194C110.223 82.8813 110.452 78.9195 110.452 77.1238C110.452 71.9363 106.642 69.2855 99.1951 69.2855ZM217.581 88.4678C217.954 88.8954 218.585 89.0949 219.414 89.0949V92.7148C217.037 92.7148 215.633 91.7172 214.889 90.8621C214.431 90.349 214.087 89.8074 213.859 89.2945C210.507 91.8027 205.609 92.9427 203.231 92.9998H202.974C200.997 92.9998 197.674 92.6577 195.525 90.52C194.293 89.2945 193.664 87.6697 193.664 85.7885C193.664 83.9644 194.266 82.4253 195.497 81.2281C198.705 78.0644 205.35 78.1783 210.679 78.2924C212.053 78.3209 213.371 78.3495 214.402 78.2924C214.431 78.0928 214.46 77.9219 214.487 77.7794C214.745 75.9837 214.688 75.0716 214.23 74.587C212.541 72.7058 204.377 72.991 198.418 73.3615L198.189 69.7416C209.734 69.029 214.632 69.6562 216.894 72.1358C218.47 73.8744 218.384 76.1261 218.04 78.3495C217.696 80.4586 216.951 86.6721 216.923 86.7292C216.894 87.0712 216.951 87.7552 217.581 88.4678ZM203.202 89.3514C206.382 89.2945 212.799 87.0428 213.658 83.9644C213.743 83.3374 213.829 82.6248 213.915 81.9122C212.941 81.9408 211.825 81.9122 210.62 81.8837C206.21 81.8267 200.165 81.6843 198.018 83.7934C197.502 84.3065 197.272 84.9335 197.272 85.7601C197.272 86.6721 197.531 87.3562 198.074 87.8978C199.021 88.8669 200.854 89.4084 203.202 89.3514ZM150.898 92.4296C159.205 92.4296 163.759 87.5842 163.759 78.7769C163.759 75.2142 162.326 69.2286 152.702 69.2286C146.286 69.2286 138.609 71.7083 138.609 83.5084C138.581 91.3751 144.797 92.4296 150.898 92.4296ZM152.673 72.8484C157.858 72.8484 160.15 74.6725 160.15 78.7769C160.15 85.6461 157.2 88.8383 150.869 88.8383C143.508 88.8383 142.161 87.0428 142.161 83.537C142.19 78.948 143.278 72.8484 152.673 72.8484ZM138.065 70.1691H133.568L124.488 79.746H120.048L120.42 76.2402C120.449 75.9266 120.678 73.1049 118.874 71.1098C118.129 70.2831 116.725 69.2855 114.348 69.2855V72.8484C115.207 72.8484 115.809 73.0479 116.181 73.4755C116.84 74.188 116.869 75.4421 116.84 75.8411L115.15 91.8027H118.759L119.704 82.9668H124.087L131.105 91.8027H135.258L127.152 81.6272L138.065 70.1691ZM277.42 69.9981L276.473 79.4895H260.777L261.093 76.4397C261.12 76.0977 261.35 73.162 259.488 71.0812C258.743 70.2547 257.339 69.2571 254.991 69.2571V72.9053C256.193 72.9053 256.624 73.3615 256.767 73.5039C257.454 74.2451 257.511 75.6132 257.454 76.0407L255.793 91.8312H259.459L260.406 83.0808H276.13L275.243 91.8312H278.823L280.971 69.9981H277.42ZM190.885 70.1976L188.507 91.8312H184.87L186.846 73.7889H175.532C175.188 83.1094 172.123 92.4582 164.389 92.4582V88.8669C169.832 88.8669 171.636 80.0881 171.923 73.7889H170.347V70.1976H190.885Z" fill="#3A3C42"/>
<path d="M58.1763 51.6709C48.7238 51.6709 44.6276 57.9699 40.9897 63.4995C37.7817 68.4304 35.0031 72.6774 28.9591 72.6774H28.2718V76.6108H58.1763C66.34 76.6108 70.1497 70.7962 73.5297 65.6372C76.9097 60.4783 80.0892 55.6043 87.3935 55.6043H134.828V51.6709H58.1763ZM70.2069 63.4995C66.9988 68.4304 64.1916 72.6774 58.1763 72.6774H38.8415C41.0184 70.6252 42.7085 68.0599 44.3125 65.6372C47.6925 60.4783 50.8721 55.6043 58.1763 55.6043H76.5087C73.902 57.8561 71.9829 60.7633 70.2069 63.4995Z" fill="#1069A9"/>
<path d="M115.866 43.0064C108.562 43.0064 105.382 38.1325 102.002 32.9735C98.6508 27.8145 94.8411 22 86.6774 22H56.601V25.9334H57.489C63.5329 25.9334 66.3115 30.1802 69.5195 35.1112C71.2955 37.8475 73.2146 40.7547 75.8214 43.0064H59.1504C51.8461 43.0064 48.6666 38.1325 45.2866 32.9735C41.9066 27.8145 38.0969 22 29.9045 22H0V25.9334H0.716106C6.76004 25.9334 9.53854 30.1802 12.7467 35.1112C16.3845 40.6692 20.4807 46.9398 29.9045 46.9398H148.091V43.0064H115.866ZM29.9045 43.0064C22.6003 43.0064 19.4207 38.1325 16.0407 32.9735C14.4653 30.5508 12.7753 27.9855 10.5984 25.9334H29.9332C35.9772 25.9334 38.7557 30.1802 41.9638 35.1112C43.7398 37.8475 45.6589 40.7547 48.2656 43.0064H29.9045ZM86.6774 43.0064C79.3732 43.0064 76.1937 38.1325 72.8136 32.9735C71.2382 30.5508 69.5482 27.9855 67.3426 25.9334H86.6774C92.7214 25.9334 95.5 30.1802 98.708 35.1112C100.484 37.8475 102.403 40.7547 105.01 43.0064H86.6774Z" fill="#1696CD"/>
</svg>
