<svg width="742" height="150" viewBox="0 0 742 150" fill="none" xmlns="http://www.w3.org/2000/svg">
<g clip-path="url(#clip0_3418_2)">
<path d="M292.742 146.909C292.342 154.147 285.646 157.689 278.45 160.846C278.35 160.923 278.25 160.923 278.15 160.923H302.737C299.738 158.998 299.738 158.844 300.938 153.069C302.137 146.832 301.338 146.293 292.742 146.909Z" fill="white"/>
<path d="M295.041 136.975C294.041 138.823 292.442 140.44 291.143 142.057C295.041 143.674 298.839 144.907 301.837 146.755C303.536 147.833 304.836 150.143 304.836 151.837C304.736 155.071 303.636 158.228 303.037 161H740.9C740.601 158.459 741.6 155.687 742 152.761C740.401 151.914 738.302 150.836 736.303 149.681C729.007 145.6 728.907 145.215 735.104 140.286C735.304 140.132 735.204 139.824 735.204 140.132C729.407 137.591 723.91 135.127 717.813 132.432C717.213 132.817 715.614 133.664 713.515 134.819C711.816 132.971 710.217 131.277 708.318 129.352C715.714 127.581 712.316 123.808 711.816 120.651C710.717 123.038 709.617 125.425 708.118 128.505C705.919 125.733 704.02 123.808 702.721 121.575C702.021 120.343 701.722 117.725 702.521 117.34C706.919 115.03 705.52 112.181 704.22 108.792C706.019 109.562 707.319 110.102 708.618 110.718C708.318 98.7052 709.317 97.3961 718.912 95.0091C716.414 84.8448 713.615 74.9115 711.716 64.8242C711.216 62.1291 713.315 59.049 714.515 56.2769C715.314 54.3519 716.714 52.5808 718.313 50.0397C706.419 50.7328 695.225 47.0367 685.53 54.9679C686.83 49.7317 694.326 48.2687 691.927 42.1855C689.828 36.7183 682.532 37.0264 678.634 32.4832C683.132 33.1762 686.33 33.7153 689.828 34.2543C690.028 33.6383 690.328 33.1762 690.428 32.6372C690.927 28.8641 691.727 25.399 698.623 26.477C699.423 26.6311 700.722 26.169 701.322 25.63C704.62 22.8579 707.718 19.9319 712.016 16.1587C699.423 15.6197 695.925 9.84456 695.825 1.91333C687.629 5.68644 680.633 8.92054 677.335 15.6197C680.633 15.9277 683.232 16.2357 685.83 16.5438C685.83 16.8518 685.73 17.1598 685.73 17.5448C684.031 17.6988 682.132 18.0838 680.533 17.8528C674.536 17.0058 669.939 17.6988 664.941 21.3179C659.844 24.937 652.448 26.554 646.451 29.4031C642.553 31.2512 638.656 33.4843 635.857 36.1793C631.16 40.7225 627.362 45.8816 623.164 50.7328C627.761 52.1958 632.359 53.6588 636.857 55.1219C636.757 55.5069 636.657 55.8919 636.557 56.2769C632.459 57.2009 628.261 58.125 623.664 59.203C623.664 56.7389 623.664 54.8909 623.664 53.0428C623.064 52.9658 622.564 52.8118 621.965 52.7348C621.465 54.6599 620.865 56.5079 620.365 58.433C619.866 60.127 619.866 62.0521 618.766 63.4381C615.968 67.0572 612.47 70.4453 609.471 74.0644C606.373 77.7606 604.674 78.0686 599.976 75.5275C594.479 72.5244 588.783 72.8324 584.085 76.6825C582.286 78.1456 580.387 79.8396 579.587 81.6877C577.189 86.6928 572.391 87.9248 566.195 87.5398C564.596 87.4628 562.896 87.5398 561.397 87.5398C560.698 86.3078 560.198 85.3068 559.598 84.2287C550.903 87.2318 542.607 90.1579 534.312 92.93C529.115 94.701 527.416 96.8571 530.014 100.784C532.413 104.48 531.413 107.637 529.015 110.333C525.617 110.795 521.119 111.026 519.72 112.72C517.421 115.569 515.422 115.261 512.524 114.106C511.724 113.798 510.825 113.798 509.625 113.567C510.225 117.34 510.825 120.728 511.524 124.578C505.727 123.5 501.729 121.806 499.83 117.879C499.531 117.34 498.031 117.109 496.732 116.57C495.133 106.636 488.037 103.941 472.945 108.407C473.844 110.487 474.644 112.643 475.643 114.799C474.444 115.261 473.545 115.569 472.645 115.877C467.248 117.417 461.851 119.111 457.453 114.183C456.954 113.644 454.755 113.644 453.455 113.875C449.158 114.645 444.96 115.646 440.462 116.647C440.163 113.49 439.863 110.795 439.463 107.406C436.964 108.869 435.365 109.794 433.366 111.026C436.465 112.181 439.963 112.72 437.964 116.185C435.665 115.184 433.466 114.26 430.668 113.105C431.767 121.344 422.372 121.498 417.275 124.886C422.572 119.111 427.669 113.259 434.166 108.484C439.963 104.172 438.064 100.014 436.165 95.5481C434.865 92.468 424.871 89.5419 421.173 91.0819C419.674 91.698 418.874 93.315 417.775 94.47C417.375 94.162 416.875 93.854 416.475 93.546C417.075 92.391 417.575 91.2359 418.174 90.0809C417.775 90.3119 417.475 90.4659 417.075 90.6969C414.177 88.1559 411.178 85.6148 407.98 82.7657C404.682 86.6158 397.286 88.7719 401.284 94.393C397.885 95.3941 394.787 96.3181 391.689 97.0881C389.89 97.5501 387.891 97.9351 385.992 98.2432C379.096 99.4752 371.899 100.091 365.403 102.016C355.208 105.096 355.408 105.481 356.408 113.798C356.508 114.414 356.408 115.03 356.408 115.877C345.813 115.8 334.42 108.946 325.424 118.495C324.325 117.417 323.526 116.647 322.426 115.569C323.226 118.572 323.226 118.572 330.222 119.111C331.921 123.885 334.819 128.659 335.219 133.587C335.619 138.592 333.52 143.674 332.421 149.681C329.023 143.674 329.023 138.669 331.721 133.51C332.421 132.201 332.82 129.814 331.921 129.044C327.224 125.117 322.126 121.575 317.029 117.879C317.529 119.65 318.028 121.498 318.528 123.269C315.13 123.269 312.232 123.269 308.733 123.269C310.532 120.497 312.132 118.11 313.731 115.646C310.732 116.57 308.134 117.571 306.435 119.188C303.836 121.575 301.537 124.193 299.938 126.965C297.739 130.199 296.74 133.741 295.041 136.975Z" fill="white"/>
<path d="M4.69741 150.605C3.79789 151.067 2.79843 151.529 1.49913 152.222C4.49752 155.302 4.39757 158.074 0.999402 161H266.456C264.257 159.691 262.558 157.612 261.459 154.609C263.758 156.072 265.357 157.304 267.156 158.305C268.055 158.844 269.155 159.46 270.154 159.46C273.253 159.46 287.145 149.912 287.845 147.525C287.945 147.294 287.845 146.986 287.845 146.755C286.246 141.672 289.344 137.591 292.043 133.279C293.242 131.354 295.041 129.275 294.941 127.273C294.741 123.654 297.04 121.421 299.638 118.803C301.437 116.955 301.737 114.183 302.037 111.796C302.337 109.716 301.737 107.637 301.437 104.942C298.639 106.328 295.041 107.945 291.743 109.87C288.344 111.873 285.546 114.491 282.048 116.493C278.65 118.341 274.152 119.265 275.052 123.654C275.152 124.27 273.952 125.348 273.053 125.733C269.755 127.273 269.755 129.429 270.554 131.97C271.753 135.589 271.853 139.208 269.055 142.288C261.259 131.739 253.463 121.19 245.667 110.717C245.268 110.794 244.768 110.948 244.368 111.025C244.768 113.49 245.268 115.954 245.568 118.495C246.167 124.501 243.968 126.272 235.673 126.041C237.072 124.501 238.371 123.115 239.171 122.268C231.375 120.728 223.479 119.111 214.584 117.34C218.082 115.415 220.281 114.106 222.58 112.797C222.48 112.412 222.48 112.104 222.38 111.719C208.188 110.717 194.095 109.639 179.603 108.561C180.303 106.328 181.002 103.941 181.802 101.4C185.3 101.939 188.298 102.478 191.497 102.94C191.896 101.785 192.096 100.861 192.396 100.014C193.296 97.3961 193.695 94.47 189.798 93.623C188.099 93.238 185.1 95.163 183.301 96.4721C178.304 99.9372 173.706 103.633 168.009 107.945C167.71 105.404 167.909 103.787 167.31 102.401C166.91 101.4 165.611 99.8602 164.611 99.7832C157.115 99.1671 149.12 97.7811 144.622 104.711C144.322 105.096 143.722 105.327 142.423 106.174C141.124 101.323 140.024 96.9341 138.925 92.5449C138.425 92.3909 137.926 92.2369 137.426 92.0829C135.027 95.548 132.628 99.0131 130.13 102.709C125.432 93.854 126.931 90.1579 136.326 84.6907C138.525 83.4587 139.925 81.2256 141.024 79.2236C142.523 76.4515 143.423 73.5254 144.622 70.6763C145.821 74.6034 145.621 78.3765 146.821 81.9186C148.12 85.7687 149.919 89.7729 152.718 93.084C155.316 96.1641 160.014 96.8571 164.811 96.01C168.709 95.317 172.107 93.546 172.107 90.4659C172.107 82.3036 171.308 74.2184 170.808 66.0562C170.608 63.4381 170.608 60.82 170.408 58.2019C170.308 57.1239 170.208 55.5069 169.409 55.0448C166.41 53.4278 163.212 52.0418 159.814 51.0407C155.216 49.5777 150.619 51.1177 148.72 54.6598C147.021 57.8939 144.022 59.434 140.024 60.358C138.325 60.743 136.426 61.205 135.027 61.975C126.832 66.7492 118.536 71.4463 110.54 76.5285C108.242 77.9915 106.443 80.3786 105.543 82.6116C104.244 85.7687 102.245 87.5398 97.8472 87.3088C95.7483 87.1548 93.5495 87.0778 91.4506 86.8468C85.154 85.9997 78.8574 85.0757 71.6613 84.0747C71.6613 87.8478 71.6613 91.1589 71.6613 94.316C71.3615 94.085 70.6618 93.777 70.0622 93.315C61.3668 87.3088 60.3674 87.3088 50.4727 92.2369C49.8731 92.5449 49.4733 92.93 48.7736 93.084C46.275 93.623 43.7763 94.162 41.2777 94.701C41.0778 94.393 40.9778 94.008 40.778 93.7C39.7785 94.316 38.779 95.009 37.6796 95.625C29.9838 100.091 25.2863 105.25 29.8838 112.951C31.1831 115.107 29.8838 116.647 27.685 117.879C22.088 121.113 18.39 125.04 18.49 130.738C18.49 132.124 17.3906 133.587 16.6909 134.973C15.8914 135.435 15.0918 135.897 14.2922 136.282C12.2933 134.049 10.2944 131.739 8.09558 129.275C5.29709 131.585 2.59854 133.741 -0.199951 135.974C2.09881 137.899 3.99779 139.516 5.89676 141.133C11.094 145.522 10.7941 147.371 4.69741 150.605Z" fill="white"/>
</g>
<defs>
<clipPath id="clip0_3418_2">
<rect width="742" height="150" fill="white"/>
</clipPath>
</defs>
</svg>
