<svg width="214" height="125" viewBox="0 0 214 125" fill="none" xmlns="http://www.w3.org/2000/svg">
<path d="M71.6973 85.0587V88.5112C71.6973 90.1466 71.6973 91.782 72.0612 93.054C71.6973 92.5089 70.4235 91.6003 62.2347 85.0587H56.5935V95.2346H60.5969V91.782C60.5969 89.9649 60.5969 88.3295 60.415 86.8758C60.7789 87.2392 61.6888 87.9661 70.4235 95.0529H75.7007V84.877H71.6973V85.0587ZM82.7976 85.0587V86.5124H89.7126V95.0529H94.0799V86.5124H100.995V85.0587H82.7976V85.0587ZM113.005 86.5124C113.551 87.421 114.825 88.8747 116.463 91.0552H109.73C111.185 89.2381 112.459 87.6027 113.005 86.5124ZM110.457 85.0587C109.548 86.149 103.543 94.1443 102.815 95.2346H107.182L109.184 92.6906H117.736L119.738 95.2346H124.287L116.281 85.0587H110.457V85.0587ZM130.838 95.2346H135.206V85.0587H130.838V95.2346ZM159.954 85.0587V88.5112C159.954 90.1466 159.954 91.782 160.318 93.054C159.954 92.5089 158.68 91.6003 150.491 85.0587H144.85V95.2346H148.854V91.782C148.854 89.9649 148.854 88.3295 148.672 86.8758C149.036 87.2392 149.946 87.9661 158.68 95.0529H163.957V84.877H159.954V85.0587ZM173.238 85.0587V95.2346H188.888L189.434 93.7809H177.423V90.6918H188.342V89.2381H177.423V86.6941H188.706V85.2404H173.238V85.0587ZM201.08 86.5124H205.811C208.177 86.5124 209.815 86.8758 209.815 87.9661C209.815 89.2381 207.813 89.4198 205.083 89.4198H201.08V86.5124ZM196.895 85.0587V95.2346H201.262V90.8735H204.901C208.359 90.8735 209.451 91.4186 209.451 92.5089V92.6906C209.451 93.7809 209.633 94.6894 209.815 95.0529H214C213.818 94.5077 213.636 93.5992 213.636 92.6906V92.5089C213.636 91.2369 212.726 90.3283 210.179 89.9649C212.18 89.6015 214 89.0564 214 87.6027C214 85.7856 210.724 84.877 206.175 84.877H196.895V85.0587ZM0 90.1466C0 93.054 2.72959 95.4163 10.3724 95.4163C16.5595 95.4163 19.2891 93.7809 20.017 92.1455H15.6497C15.1037 93.054 13.8299 93.9626 10.5544 93.9626C6.0051 93.9626 4.54932 92.1455 4.54932 90.1466C4.54932 88.1478 6.18708 86.5124 10.5544 86.5124C14.0119 86.5124 15.1037 87.421 15.6497 88.3295H20.017C19.6531 86.6941 17.1054 85.0587 10.7364 85.0587C3.45748 84.877 0 87.2392 0 90.1466ZM31.2993 89.9649C31.2993 87.9661 33.119 86.3307 37.6684 86.3307C42.2177 86.3307 44.0374 87.9661 44.0374 89.9649C44.0374 92.1455 42.2177 93.7809 37.6684 93.7809C33.301 93.9626 31.2993 92.1455 31.2993 89.9649ZM26.75 90.1466C26.75 93.054 30.0255 95.4163 37.4864 95.4163C45.1293 95.4163 48.4048 93.054 48.4048 90.1466C48.4048 87.421 44.9473 85.0587 37.6684 85.0587C30.0255 84.877 26.75 87.6027 26.75 90.1466ZM117.372 46.7175L123.014 54.7128H112.095L117.372 46.7175ZM186.158 30L177.787 39.8124L169.417 30H143.031L164.867 54.3494L153.403 66.7058L127.381 30H119.192H115.917H107.728L82.9796 64.8887V30H56.2296L41.4898 56.3482V57.0751V56.3482L26.932 30H0.181973V77.7902H19.6531V53.986L34.0289 77.9719H40.034H43.3095H49.1327L63.5085 53.986V77.9719H78.2483H82.9796H95.1718L101.359 70.1583H115.735H119.01H133.386L139.573 77.9719H142.667H156.497H169.235L177.787 69.9766L186.158 77.9719H213.818L191.071 54.5311L213.818 30H186.158Z" fill="#076AB3"/>
</svg>
