<svg width="26" height="25" viewBox="0 0 26 25" fill="none" xmlns="http://www.w3.org/2000/svg">
<path d="M0 12.6008C0 12.5319 0 12.463 0 12.3977C0.0144486 12.3071 0.0325092 12.2164 0.0397335 12.1257C0.0794671 11.6941 0.0975277 11.2588 0.15171 10.8308C0.437069 8.65825 1.28231 6.71779 2.62602 5.0022C6.06117 0.617114 11.8442 -0.996916 17.0132 0.606233C21.8282 2.10057 25.4873 6.29705 25.946 11.364C26.1772 13.9175 25.6679 16.3186 24.3856 18.5347C21.6295 23.3042 16.2293 25.6618 10.9448 24.8385C8.04784 24.3851 5.54463 23.1192 3.50016 20.9974C1.546 18.9699 0.393723 16.5579 0.0975278 13.7434C0.0577942 13.3625 0.0325093 12.9817 0 12.6008ZM14.929 13.406C14.8242 13.6926 14.7231 13.9247 14.6544 14.1677C14.6039 14.3527 14.5063 14.389 14.3294 14.389C12.2271 14.3817 10.1284 14.3853 8.02617 14.3853C7.91781 14.3853 7.80222 14.3853 7.70108 14.4144C7.31097 14.5232 7.12675 14.8605 7.19538 15.3175C7.24956 15.6838 7.52409 15.9196 7.92503 15.9196C10.3235 15.9232 12.722 15.9196 15.1168 15.9196C15.5792 15.9196 15.7598 15.789 15.9223 15.3393C16.7712 13.0252 17.62 10.7075 18.4653 8.38985C18.5303 8.21213 18.6134 8.14684 18.8084 8.15047C19.5019 8.16498 20.1991 8.15772 20.8926 8.15409C21.3622 8.15047 21.6584 7.86756 21.6656 7.42869C21.6728 6.88826 21.4164 6.57633 20.9215 6.57271C19.9462 6.56183 18.971 6.56545 17.9993 6.57271C17.5911 6.57633 17.3744 6.74318 17.2371 7.12039C16.9987 7.77326 16.7495 8.42249 16.5255 9.07899C16.4569 9.28573 16.3594 9.34376 16.1463 9.34376C12.8267 9.33651 9.50354 9.34013 6.18398 9.34013C6.05756 9.34013 5.92752 9.34376 5.80471 9.36915C5.47239 9.43444 5.28095 9.67382 5.25927 10.0402C5.23399 10.4428 5.39292 10.7438 5.70718 10.8381C5.85889 10.8853 6.02505 10.8889 6.18398 10.8889C9.28681 10.8925 12.386 10.8925 15.4889 10.8925C15.5972 10.8925 15.702 10.8925 15.8501 10.8925C15.7598 11.1464 15.6695 11.3568 15.6153 11.5744C15.5575 11.7956 15.4383 11.85 15.2179 11.85C12.4547 11.8428 9.69498 11.8428 6.93169 11.8464C6.80527 11.8464 6.67523 11.85 6.55242 11.8754C6.25261 11.9335 6.04311 12.1729 6.0106 12.4703C5.94558 13.0651 6.23816 13.3952 6.83417 13.3988C9.41685 13.3988 12.0031 13.3988 14.5858 13.3988C14.6761 13.406 14.7773 13.406 14.929 13.406ZM15.5828 19.1513C16.3522 19.1513 16.9409 18.5782 16.9373 17.8383C16.9337 17.1092 16.3233 16.5253 15.5647 16.5325C14.8206 16.5398 14.2246 17.1201 14.221 17.8419C14.2246 18.5854 14.8134 19.1549 15.5828 19.1513ZM9.48548 18.8865C10.0345 18.8865 10.4752 18.473 10.4788 17.9471C10.4824 17.4175 10.049 16.9932 9.50715 16.9896C8.95088 16.9859 8.49214 17.4175 8.49575 17.9398C8.49214 18.4585 8.94366 18.8865 9.48548 18.8865Z" fill="white"/>
</svg>
