<svg width="379" height="379" viewBox="0 0 379 379" fill="none" xmlns="http://www.w3.org/2000/svg">
<rect width="318" height="379" transform="translate(61)" fill="#262930"/>
<path d="M254.128 270.461C257.081 272.314 259.746 272.973 262.124 272.436C264.507 271.891 266.422 270.464 267.871 268.157C269.314 265.857 269.766 263.512 269.226 261.121C268.686 258.73 266.94 256.607 263.987 254.754L262.92 254.084C259.967 252.231 257.297 251.581 254.909 252.134C252.521 252.687 250.605 254.114 249.161 256.413C247.713 258.721 247.261 261.066 247.806 263.449C248.357 265.824 250.108 267.938 253.061 269.791L254.128 270.461ZM257.424 266.753L254.98 265.219C253.193 264.097 252.094 262.946 251.682 261.765C251.262 260.579 251.41 259.416 252.127 258.274C252.838 257.141 253.822 256.502 255.078 256.356C256.33 256.197 257.85 256.678 259.637 257.8L262.081 259.334C263.867 260.455 264.965 261.617 265.375 262.82C265.79 264.014 265.642 265.178 264.931 266.311C264.214 267.452 263.23 268.092 261.98 268.229C260.729 268.367 259.21 267.874 257.424 266.753Z" fill="white"/>
<path d="M261.551 249.818L274.02 257.644L276.457 253.761L266.892 247.757L269.361 243.824L278.926 249.828L281.364 245.945L268.895 238.118L261.551 249.818Z" fill="white"/>
<path d="M273.1 231.418L270.663 235.302L283.132 243.128L287.321 236.453C288.318 234.865 288.71 233.433 288.496 232.158C288.279 230.869 287.484 229.793 286.111 228.931C284.763 228.085 283.444 227.834 282.156 228.178C280.873 228.514 279.733 229.476 278.736 231.064L276.984 233.856L273.1 231.418ZM280.782 233.508C281.187 232.862 281.631 232.495 282.113 232.406C282.596 232.317 283.098 232.436 283.619 232.763C284.181 233.116 284.527 233.529 284.657 234.003C284.778 234.471 284.636 235.027 284.231 235.673L283.001 237.633L279.552 235.468L280.782 233.508ZM291.106 230.424L293.575 226.491L281.106 218.664L278.637 222.597L291.106 230.424Z" fill="white"/>
<path d="M285.115 218.725L287.498 214.928L297.064 220.932L299.501 217.049L289.936 211.045L292.311 207.261L289.408 205.438L282.212 216.902L285.115 218.725Z" fill="white"/>
<path d="M141.178 379H0V0H379L141.178 379Z" fill="white"/>
<g clip-path="url(#clip0_6_499)">
<path d="M142.99 49C143.646 49.9374 144.303 50.781 144.959 51.7184C145.335 52.2808 145.71 52.562 146.46 52.562C149.086 52.562 151.713 52.6557 154.339 52.6557C155.464 52.6557 156.308 52.2808 156.965 51.4371C156.965 51.3434 157.059 51.3434 157.153 51.2497C159.404 48.6251 159.497 48.5313 162.593 50.2186C164.469 51.2497 166.344 52.3745 168.033 53.6868C169.721 54.9991 169.815 56.0302 168.689 57.9049C168.033 59.0298 168.126 60.0609 168.689 61.092C169.721 62.873 170.753 64.654 171.784 66.5287C172.722 68.2159 174.035 69.0596 176.005 69.1533C177.412 69.1533 178.069 69.622 178.162 71.028C178.256 73.8401 178.35 76.7459 178.162 79.6518C178.069 81.4328 177.131 82.0889 175.255 82.0889C173.567 82.0889 172.441 82.7451 171.691 84.2449C170.753 86.0258 169.721 87.8068 168.595 89.4941C167.845 90.7127 167.751 91.8375 168.502 93.0561C169.815 95.4932 169.909 95.8682 167.564 97.3679C165.313 98.8677 162.874 100.086 160.435 101.305C159.404 101.867 158.56 101.586 157.809 100.649C157.528 100.274 157.153 99.9926 156.965 99.6176C156.308 98.1178 155.183 97.8366 153.588 97.9304C151.244 98.0241 148.899 97.9304 146.46 97.9304C145.71 97.9304 145.335 98.1178 144.959 98.774C144.49 99.5239 143.834 100.274 143.271 100.93C142.708 101.586 142.052 101.68 141.301 101.492C138.112 100.461 135.299 98.774 132.766 96.5243C131.828 95.6807 131.735 94.6496 132.391 93.7122C133.892 91.7438 133.423 90.0565 132.016 88.2755C131.078 87.1507 130.515 85.7446 129.859 84.3386C129.014 82.5576 127.701 81.714 125.732 81.714C124.137 81.714 123.481 81.2453 123.387 79.6518C123.293 76.8397 123.199 74.0276 123.387 71.1218C123.481 69.3408 124.231 68.7784 126.013 68.7784C127.983 68.8721 129.108 68.0285 129.952 66.3412C130.703 64.7477 131.735 63.1542 132.672 61.6544C133.517 60.2484 133.704 58.936 132.86 57.4363C131.828 55.6553 132.11 54.7179 133.798 53.4056C136.143 51.5309 138.769 50.2186 141.583 49.0937C142.146 49 142.615 49 142.99 49ZM151.056 87.9006C157.246 88.3693 163.718 81.8077 163.624 75.1524C163.531 68.3097 157.528 62.498 150.587 62.498C143.646 62.5918 138.112 68.2159 138.112 75.1524C138.206 82.5576 143.646 87.9943 151.056 87.9006Z" fill="#E31616"/>
<path d="M108.192 263C93.4666 263 79.8666 262.344 66.1727 260.75C55.9491 259.532 45.8194 257.751 36.0649 254.189C35.0331 253.814 34.0014 253.345 32.8759 252.97C31.3752 252.502 30.9062 251.47 30.9062 250.064C31 248.002 31 245.846 31.3752 243.784C32.5007 235.348 35.2207 227.474 39.8166 220.256C43.287 214.819 47.8829 210.695 53.6043 207.789C62.2333 203.384 71.1437 199.728 80.1479 196.072C80.8983 195.791 81.3673 196.072 81.8362 196.635C84.1811 199.447 86.6197 202.259 89.6211 204.415C94.5922 207.977 100.032 210.32 106.129 210.508C111.85 210.695 116.915 208.82 121.699 206.008C125.263 203.946 128.358 201.134 130.89 197.853C132.485 195.791 132.579 195.697 134.923 196.728C142.802 200.103 150.775 203.384 158.466 207.039C167.001 211.07 173.098 217.632 177.037 226.255C180.226 233.098 182.102 240.222 182.665 247.721C182.946 251.939 182.571 252.501 178.631 254.001C170.565 256.907 162.217 258.782 153.776 260C138.394 262.25 122.824 262.906 108.192 263Z" fill="#262930"/>
<path d="M117.665 112.553C117.665 113.772 117.759 114.897 117.665 116.115C117.572 117.428 117.947 118.646 118.791 119.677C119.916 120.989 119.541 122.302 118.697 123.614C118.51 123.989 117.853 124.364 117.478 124.364C112.225 124.27 110.068 127.738 109.505 131.675C109.13 134.206 109.13 136.831 109.412 139.362C109.693 142.361 111.663 144.33 114.664 144.986C115.79 145.173 116.727 145.642 117.196 146.767C117.572 147.798 117.572 148.735 116.727 149.579C116.352 149.954 115.977 150.423 115.696 150.798C114.383 152.579 114.007 154.547 114.852 156.609C116.352 160.452 118.791 163.64 122.449 165.702C124.981 167.108 127.514 167.108 130.046 165.514C132.11 164.108 134.267 165.233 134.455 167.764C134.548 170.014 135.299 172.076 137.175 173.482C137.831 173.951 138.675 174.325 139.613 174.794C138.488 176.388 137.456 178.075 136.143 179.575C134.548 181.449 133.517 183.512 132.672 185.761C130.328 192.135 126.388 197.291 120.854 201.228C111.85 207.602 101.908 207.602 92.8101 201.228C86.7135 196.916 82.7742 190.917 80.3355 183.887C79.8665 182.574 79.0224 181.356 78.0845 180.325C74.7079 176.2 72.0817 171.701 71.0499 166.358C70.3934 163.265 70.3934 160.078 70.8624 156.89C71.0499 155.391 71.7065 154.078 72.9258 153.047C73.5824 152.485 73.77 151.922 73.77 151.079C73.8637 147.048 74.0513 143.018 74.1451 138.987C74.3327 133.55 76.6776 128.77 79.21 124.083C82.6804 117.896 88.2142 114.803 94.686 113.022C102.096 110.866 109.505 110.96 117.009 112.459C117.29 112.459 117.478 112.459 117.665 112.553C117.759 112.647 117.665 112.553 117.665 112.553Z" fill="#262930"/>
<path d="M118.51 128.488C120.198 129.051 121.136 128.113 121.886 126.52C122.543 124.926 123.293 123.427 124.043 121.927C124.512 120.989 124.419 120.146 123.574 119.396C122.918 118.646 122.449 117.802 121.886 117.053C121.323 116.303 121.417 115.553 121.886 114.803C123.668 112.085 126.107 110.022 128.921 108.71C129.39 108.523 130.328 108.616 130.703 108.898C131.828 109.835 132.86 110.96 133.986 111.897C134.267 112.178 134.736 112.366 135.111 112.272C137.268 111.616 139.426 110.866 141.489 110.116C142.521 109.741 142.99 109.085 143.084 108.054C143.177 107.21 143.365 106.367 143.553 105.523C143.834 104.211 144.584 103.461 145.897 103.273C148.617 102.805 151.337 102.992 153.964 103.929C155.652 104.492 156.215 105.336 156.027 107.21C155.746 110.866 155.183 110.304 158.841 112.272C160.154 113.022 161.561 113.772 162.968 114.334C163.343 114.522 164 114.428 164.469 114.147C165.594 113.491 166.72 112.647 167.751 111.897C168.502 111.428 169.252 111.428 170.002 111.991C172.535 113.772 174.504 116.021 175.911 118.74C176.38 119.49 176.287 120.24 175.63 120.989C174.598 122.114 173.567 123.145 172.629 124.27C172.441 124.551 172.16 125.02 172.253 125.301C172.91 127.364 173.754 129.426 174.504 131.582C174.88 132.8 175.724 133.269 176.943 133.363C177.131 133.363 177.412 133.363 177.6 133.363C180.695 133.456 181.258 133.925 181.258 137.112C181.258 139.174 181.07 141.33 180.882 143.392C180.695 144.986 180.132 145.455 178.538 145.642C177.224 145.83 175.818 145.83 174.504 146.017C174.129 146.111 173.567 146.298 173.473 146.673C172.347 148.642 171.409 150.61 170.284 152.672C170.002 153.235 170.002 153.703 170.378 154.266C171.222 155.391 171.972 156.516 172.722 157.734C173.191 158.484 173.098 159.234 172.629 159.89C170.847 162.515 168.595 164.483 165.594 165.795C164.281 166.358 163.062 165.983 162.405 164.858C160.811 162.233 158.653 162.233 156.121 163.265C155.089 163.733 154.057 164.014 153.119 164.483C151.806 165.046 151.15 166.077 151.15 167.483C151.244 171.045 149.837 171.326 147.117 171.326C144.959 171.326 142.802 171.045 140.645 170.67C139.144 170.389 138.769 169.732 138.675 168.233C138.581 166.92 138.581 165.608 138.394 164.296C138.394 163.921 138.112 163.546 137.831 163.358C135.861 162.327 133.892 161.484 131.922 160.452C131.172 160.078 130.421 160.171 129.765 160.64C128.827 161.296 127.795 161.952 126.857 162.702C126.013 163.358 125.357 163.265 124.606 162.702C122.355 161.015 120.479 159.046 119.072 156.609C118.228 155.11 118.322 154.078 119.448 152.766C120.104 152.016 120.761 151.266 121.417 150.61C121.886 150.048 122.074 149.392 121.792 148.642C121.136 146.767 120.573 144.799 120.01 142.924C119.823 142.174 119.354 141.799 118.603 141.705C117.478 141.518 116.259 141.33 115.133 141.143C113.914 140.862 113.257 140.205 113.163 138.987C113.07 136.831 112.976 134.581 113.257 132.425C113.726 129.051 114.945 128.301 118.51 128.488ZM132.672 137.018C132.203 144.142 138.112 151.454 146.46 151.829C153.964 152.204 161.373 146.017 161.842 139.268C162.686 127.832 154.526 122.958 148.148 122.489C140.176 122.021 132.297 128.676 132.672 137.018Z" fill="#E31616"/>
<path d="M232 156.047C231.812 157.453 231.719 159.234 231.437 161.015C231.156 162.421 230.781 162.608 229.374 162.702C228.623 162.796 227.779 162.89 227.029 163.077C226.091 163.358 225.434 163.921 225.153 164.952C224.778 166.077 224.028 167.108 223.371 168.139C222.902 168.889 222.433 169.639 221.87 170.482C221.214 171.513 221.214 172.451 221.776 173.576C222.902 175.919 222.714 176.669 220.651 178.169C218.4 179.856 215.961 181.262 213.241 181.918C211.834 182.293 211.365 182.106 210.709 180.793C209.958 179.2 208.833 178.262 206.957 178.356C204.425 178.356 201.892 178.262 199.36 178.356C198.985 178.356 198.609 178.637 198.328 178.919C197.671 179.668 197.203 180.512 196.546 181.262C196.077 181.824 195.42 182.012 194.67 181.731C191.762 180.606 189.136 179.2 186.791 177.138C185.291 175.825 185.197 174.794 186.229 173.201C187.167 171.795 186.885 170.576 186.135 169.264C185.103 167.576 184.165 165.889 183.321 164.108C182.571 162.608 181.539 161.765 179.757 161.859C177.881 161.859 177.224 161.39 177.131 159.609C177.037 156.797 177.037 153.985 177.224 151.079C177.318 149.485 177.975 148.923 179.569 149.017C181.82 149.11 183.04 148.079 183.978 146.205C184.822 144.517 185.853 143.018 186.885 141.518C187.636 140.393 187.729 139.362 187.073 138.237C185.76 135.8 185.666 135.05 188.574 133.175C190.825 131.769 193.263 130.738 195.608 129.52C196.265 129.238 196.734 129.332 197.109 129.894C197.672 130.551 198.234 131.113 198.703 131.769C199.36 132.707 200.298 133.175 201.517 133.269C203.768 133.269 206.113 133.363 208.364 133.269C209.865 133.269 210.99 132.707 211.553 131.113C211.834 130.176 212.678 129.707 213.616 129.988C217.087 130.926 220.088 132.613 222.621 135.144C223.277 135.8 223.371 136.55 222.996 137.393C222.808 137.956 222.621 138.518 222.339 138.987C221.589 140.205 221.683 141.237 222.527 142.455C223.652 144.049 224.497 145.83 225.341 147.611C226.091 149.017 227.029 150.048 228.717 149.954C228.999 149.954 229.374 149.954 229.655 150.048C230.968 150.142 231.437 150.61 231.625 151.923C231.812 153.047 231.906 154.36 232 156.047ZM204.331 143.299C198.14 142.643 191.669 148.642 191.762 155.484C191.762 162.983 196.921 168.326 204.331 168.514C210.709 168.701 216.899 163.265 217.087 156.234C217.368 148.923 211.084 142.83 204.331 143.299Z" fill="#E31616"/>
</g>
<defs>
<clipPath id="clip0_6_499">
<rect width="201" height="214" fill="white" transform="translate(31 49)"/>
</clipPath>
</defs>
</svg>
