<svg width="673" height="131" viewBox="0 0 673 131" fill="none" xmlns="http://www.w3.org/2000/svg">
<path d="M0.0175781 128H63.8262C76.5996 128 86.7949 124.865 94.4121 118.596C102.029 112.268 105.838 103.42 105.838 92.0527C105.838 82.9121 103.758 75.793 99.5977 70.6953C95.4961 65.5391 90.2227 62.2871 83.7773 60.9395V60.5879C88.7578 58.8887 92.7715 55.6074 95.8184 50.7441C98.8652 45.8223 100.389 39.6992 100.389 32.375C100.389 22.2383 97.2539 14.3281 90.9844 8.64453C84.7148 2.90234 75.0469 0.03125 61.9805 0.03125H0.0175781V128ZM34.4707 104.357V72.6289H55.125C59.7539 72.6289 63.3867 74.0059 66.0234 76.7598C68.7188 79.5137 70.0664 83.3516 70.0664 88.2734C70.0664 93.4883 68.7188 97.4727 66.0234 100.227C63.3867 102.98 59.7539 104.357 55.125 104.357H34.4707ZM34.4707 53.8203V24.7285H53.6309C58.0254 24.7285 61.3066 25.959 63.4746 28.4199C65.7012 30.8223 66.8145 34.3672 66.8145 39.0547C66.8145 43.8008 65.7012 47.4629 63.4746 50.041C61.3066 52.5605 58.0254 53.8203 53.6309 53.8203H34.4707Z" fill="#DDDDDD"/>
<path d="M119.897 128H150.131V93.3711C150.131 90.8516 150.073 88.4785 149.955 86.252C149.897 84.0254 149.838 81.8867 149.78 79.8359H150.219C150.805 82.0625 151.45 84.3184 152.153 86.6035C152.914 88.8301 153.705 91.0273 154.526 93.1953L168.149 128H195.483L208.93 93.1074C209.926 90.6465 210.776 88.3613 211.479 86.252C212.182 84.084 212.827 81.9453 213.413 79.8359H214.028C213.911 82.0039 213.793 84.2305 213.676 86.5156C213.559 88.8008 213.5 91.1152 213.5 93.459V128H247.163V47.668H198.998L187.924 75.1777C187.104 77.4043 186.371 79.25 185.727 80.7148C185.082 82.1211 184.409 83.6152 183.705 85.1973H183.53C182.944 83.5566 182.416 82.0918 181.948 80.8027C181.479 79.5137 180.776 77.668 179.838 75.2656L168.852 47.668H119.897V128Z" fill="#DDDDDD"/>
<path d="M261.573 88.5371C261.573 101.545 266.202 111.77 275.46 119.211C284.776 126.594 297.257 130.285 312.901 130.285C326.026 130.285 336.368 128.293 343.927 124.309C351.485 120.324 356.759 114.201 359.747 105.939L331.27 98.2051C329.864 100.432 327.667 102.336 324.679 103.918C321.749 105.5 317.823 106.291 312.901 106.291C307.979 106.291 303.761 104.826 300.245 101.896C296.788 98.9668 295.059 94.6309 295.059 88.8887V83.1758C295.059 79.25 296.583 75.8516 299.63 72.9805C302.735 70.0508 306.895 68.5859 312.11 68.5859C317.794 68.5859 321.837 69.4648 324.239 71.2227C326.7 72.9219 327.93 75.3242 327.93 78.4297V78.166H280.03V94.3379H360.626V85.1973C360.684 72.834 356.436 63.0195 347.882 55.7539C339.386 48.4883 327.667 44.8555 312.725 44.8555C297.491 44.8555 285.157 48.6055 275.723 56.1055C266.29 63.5469 261.573 73.625 261.573 86.3398V88.5371Z" fill="#DDDDDD"/>
<path d="M369.587 88.625C369.587 101.926 374.216 112.209 383.474 119.475C392.79 126.682 405.007 130.285 420.124 130.285C434.948 130.285 446.579 127.355 455.017 121.496C463.513 115.637 467.937 107.199 468.288 96.1836L468.376 93.5469H435.769L435.681 95.3047C435.564 98.8203 434.157 101.486 431.462 103.303C428.825 105.061 425.31 105.939 420.915 105.939C415.876 105.939 411.833 104.592 408.786 101.896C405.739 99.1426 404.216 94.9824 404.216 89.416V85.7246C404.216 80.041 405.769 75.9395 408.874 73.4199C412.038 70.8418 416.111 69.5527 421.091 69.5527C425.193 69.5527 428.503 70.4609 431.023 72.2773C433.601 74.0352 435.066 76.7305 435.417 80.3633L435.505 82.1211H468.376L468.2 79.0449C467.263 67.7363 462.634 59.2109 454.314 53.4688C446.052 47.668 434.568 44.7676 419.861 44.7676C404.861 44.7676 392.732 48.4004 383.474 55.666C374.216 62.873 369.587 73.0684 369.587 86.252V88.625Z" fill="#DDDDDD"/>
<path d="M476.898 73.6836H503.529V128H537.63V73.6836H564.261V47.668H476.898V73.6836Z" fill="#DDDDDD"/>
<path d="M573.838 88.5371C573.838 101.545 578.467 111.77 587.725 119.211C597.041 126.594 609.521 130.285 625.166 130.285C638.291 130.285 648.633 128.293 656.191 124.309C663.75 120.324 669.023 114.201 672.012 105.939L643.535 98.2051C642.129 100.432 639.932 102.336 636.943 103.918C634.014 105.5 630.088 106.291 625.166 106.291C620.244 106.291 616.025 104.826 612.51 101.896C609.053 98.9668 607.324 94.6309 607.324 88.8887V83.1758C607.324 79.25 608.848 75.8516 611.895 72.9805C615 70.0508 619.16 68.5859 624.375 68.5859C630.059 68.5859 634.102 69.4648 636.504 71.2227C638.965 72.9219 640.195 75.3242 640.195 78.4297V78.166H592.295V94.3379H672.891V85.1973C672.949 72.834 668.701 63.0195 660.146 55.7539C651.65 48.4883 639.932 44.8555 624.99 44.8555C609.756 44.8555 597.422 48.6055 587.988 56.1055C578.555 63.5469 573.838 73.625 573.838 86.3398V88.5371Z" fill="#DDDDDD"/>
</svg>
