<svg width="75" height="76" viewBox="0 0 75 76" fill="none" xmlns="http://www.w3.org/2000/svg">
<g clip-path="url(#clip0)">
<path d="M19.1694 10.2486C19.6954 9.92947 20.1783 9.63187 20.6698 9.3472C23.1402 7.91954 25.7443 6.79812 28.4863 6.00018C29.9953 5.56024 31.5258 5.19793 33.0822 4.99952C34.4274 4.83131 35.7812 4.7278 37.1392 4.65016C38.0446 4.5984 38.9587 4.60271 39.8684 4.65447C41.0152 4.72348 42.1577 4.83994 43.2959 4.97796C45.1498 5.20224 46.9649 5.63787 48.7498 6.18996C52.6861 7.41058 56.2947 9.27387 59.58 11.7583C61.7098 13.3714 63.6327 15.2088 65.3486 17.2619C67.4397 19.7549 69.1513 22.4851 70.4878 25.4482C71.6821 28.0965 72.5443 30.8483 73.0315 33.7123C73.2471 34.976 73.3549 36.2614 73.4842 37.5381C73.6308 38.983 73.6092 40.4365 73.5273 41.8814C73.4368 43.5118 73.2298 45.1249 72.9194 46.7294C72.2943 49.9557 71.2251 53.0309 69.7376 55.9553C68.6124 58.1679 67.2629 60.2339 65.6979 62.1619C64.3743 63.7923 62.9213 65.2976 61.3347 66.6649C59.5541 68.2004 57.6399 69.5504 55.5877 70.702C53.3587 71.9528 51.0305 72.9578 48.586 73.7083C46.952 74.2086 45.2921 74.5882 43.6063 74.8426C41.5282 75.1575 39.4329 75.2955 37.3289 75.2308C33.5996 75.1187 29.9651 74.4631 26.4513 73.2036C22.8987 71.9356 19.6307 70.1413 16.6472 67.8294C14.9744 66.5312 13.4353 65.0949 12.0211 63.5249C10.2405 61.5495 8.70566 59.3929 7.41225 57.0681C6.08003 54.6699 5.04099 52.1511 4.29512 49.5114C3.82518 47.8422 3.48026 46.1514 3.26038 44.4305C3.04913 42.7785 2.9241 41.1137 2.98877 39.4445C3.03619 38.047 3.13535 36.6409 3.29919 35.2434C3.70877 31.7713 4.70039 28.4588 6.14901 25.28C7.1665 23.0458 8.40818 20.941 9.86543 18.9656C9.93441 18.875 9.95596 18.7283 9.95596 18.6076C9.96028 14.9716 9.96028 11.3356 9.96028 7.70388C9.96028 5.52573 11.5426 3.62794 13.6853 3.23544C16.0997 2.79118 18.3761 4.21453 19.0056 6.59108C19.1133 7.00515 19.1478 7.44509 19.1608 7.87641C19.1823 8.64846 19.1694 9.42052 19.1694 10.2486ZM18.195 18.793C18.1821 18.7672 18.1692 18.7413 18.1562 18.7154C18.2511 18.6421 18.3416 18.5687 18.4365 18.4911C19.3893 17.7104 20.3076 16.8909 21.2949 16.162C24.0025 14.1736 26.9902 12.746 30.2152 11.8143C32.5562 11.1372 34.9448 10.7619 37.3764 10.6929C39.5364 10.6325 41.6791 10.8007 43.8046 11.2105C46.0897 11.6504 48.2885 12.3535 50.3968 13.3239C53.1216 14.5748 55.5963 16.2094 57.821 18.2237C59.6145 19.8454 61.1838 21.6613 62.5247 23.6712C64.1673 26.134 65.4133 28.7866 66.2497 31.629C66.987 34.122 67.3836 36.6711 67.4224 39.2676C67.4397 40.3847 67.3965 41.5105 67.2801 42.619C67.1465 43.8913 66.9568 45.168 66.6809 46.4146C66.0902 49.0887 65.0986 51.6205 63.7577 54.0143C61.8693 57.3916 59.4119 60.2814 56.3939 62.6924C54.5486 64.1675 52.5481 65.3925 50.4011 66.3802C47.0209 67.9372 43.464 68.7999 39.7519 68.9897C37.8636 69.0846 35.9752 69.0026 34.0954 68.7222C32.4269 68.4764 30.7929 68.1012 29.1934 67.5749C25.6667 66.4104 22.4762 64.6334 19.6178 62.2525C17.7035 60.6566 16.0178 58.8494 14.5691 56.8265C12.5816 54.0575 11.12 51.034 10.1974 47.7516C9.65417 45.815 9.31788 43.8439 9.17991 41.834C9.08075 40.402 9.0592 38.9657 9.20578 37.5381C9.33944 36.2398 9.52914 34.9415 9.7792 33.6605C10.1845 31.5859 10.857 29.5889 11.7236 27.6609C11.9047 27.2555 12.0944 26.8543 12.2884 26.436C11.3658 25.9745 10.4647 25.5216 9.53776 25.0557C9.20147 25.8062 8.86087 26.5309 8.55476 27.2727C7.47692 29.8779 6.71811 32.5693 6.3732 35.3685C6.20506 36.7142 6.09728 38.0729 6.04985 39.4315C5.9938 41.0878 6.13177 42.744 6.36458 44.3874C6.60171 46.0738 6.97249 47.7301 7.47261 49.3561C8.14087 51.5213 9.03333 53.5917 10.1414 55.5714C11.4563 57.9178 13.0429 60.0657 14.8925 62.0153C16.1212 63.3135 17.4578 64.504 18.8848 65.5823C21.019 67.1954 23.3213 68.5282 25.7831 69.5633C27.8223 70.4216 29.9306 71.0643 32.1079 71.4827C33.591 71.7717 35.0913 71.9614 36.596 72.0348C38.6482 72.134 40.6961 72.052 42.7354 71.763C44.4815 71.5129 46.1975 71.1333 47.8832 70.6071C51.009 69.628 53.9192 68.2004 56.6051 66.3284C59.5886 64.2495 62.1539 61.7435 64.301 58.8063C66.073 56.3823 67.4741 53.7599 68.5132 50.9434C69.5091 48.2433 70.117 45.4527 70.3714 42.5888C70.5137 40.9843 70.5309 39.3711 70.4188 37.758C70.3067 36.0975 70.0739 34.4541 69.7118 32.8281C68.9012 29.1921 67.5 25.8019 65.5168 22.6576C63.775 19.8972 61.6581 17.4559 59.1747 15.3339C57.5278 13.9278 55.7601 12.6899 53.8674 11.6418C51.8368 10.5118 49.7069 9.61461 47.4823 8.95039C44.904 8.17833 42.2655 7.73407 39.5795 7.63056C36.9927 7.53135 34.4231 7.72545 31.8837 8.24303C29.3313 8.76492 26.8738 9.56717 24.5198 10.6843C21.7002 12.017 19.122 13.7251 16.8068 15.8169C16.5783 16.024 16.3497 16.231 16.0911 16.4639C16.0911 16.3259 16.0911 16.2396 16.0911 16.1491C16.0911 13.4576 16.0911 10.7662 16.0911 8.07481C16.0911 7.87641 16.0738 7.67369 16.048 7.47528C15.9315 6.66009 15.0822 6.07782 14.2717 6.24172C13.6077 6.37542 13.017 6.93614 13.017 7.88935C13.03 12.4527 13.0214 17.0117 13.0257 21.575C13.0257 21.6613 13.0343 21.7476 13.0386 21.8511C13.155 21.8511 13.2499 21.8511 13.3447 21.8511C17.8501 21.8511 22.3512 21.8511 26.8566 21.8511C27.0247 21.8511 27.1929 21.8338 27.361 21.8122C28.4087 21.6527 28.9692 20.432 28.413 19.5306C28.081 18.9957 27.5895 18.7844 26.9687 18.7844C24.1318 18.793 21.2949 18.7887 18.4623 18.7887C18.3804 18.793 18.2899 18.793 18.195 18.793ZM27.1498 53.2854C27.1929 53.225 27.236 53.1345 27.3007 53.0698C30.6247 49.74 33.9531 46.4102 37.2772 43.0805C37.4109 42.9468 37.5273 42.8993 37.7342 42.9252C38.1136 42.9726 38.5103 42.9942 38.881 42.9295C40.0581 42.7225 41.0712 41.7175 41.2782 40.54C41.5024 39.259 41.0799 38.2109 40.0279 37.4432C39.8597 37.3224 39.7907 37.2059 39.7907 36.9946C39.7951 29.8951 39.7951 22.7913 39.7951 15.6919C39.7951 15.5927 39.7951 15.4891 39.7951 15.3943C38.756 15.3943 37.7558 15.3943 36.7426 15.3943C36.7426 15.515 36.7426 15.6185 36.7426 15.7221C36.7426 22.8215 36.7426 29.9253 36.7426 37.0248C36.7426 37.1801 36.7254 37.2879 36.5701 37.4C35.5095 38.1721 35.0353 39.2029 35.2854 40.5185C35.3155 40.6867 35.2552 40.7816 35.1431 40.8937C31.8018 44.2321 28.4647 47.5705 25.1234 50.9089C25.0587 50.9736 24.9596 51.0081 24.8992 51.0426C25.6796 51.8189 26.391 52.5263 27.1498 53.2854Z" fill="white"/>
</g>
<path d="M16.3603 7.43929C16.8863 7.12012 17.3692 6.82251 17.8607 6.53784C20.3311 5.11018 22.9352 3.98876 25.6772 3.19082C27.1862 2.75088 28.7167 2.38857 30.2732 2.19017C31.6183 2.02195 32.9721 1.91844 34.3302 1.8408C35.2356 1.78904 36.1496 1.79336 37.0593 1.84511C38.2061 1.91413 39.3486 2.03058 40.4868 2.1686C42.3407 2.39289 44.1558 2.82852 45.9407 3.3806C49.877 4.60123 53.4856 6.46452 56.7709 8.9489C58.9007 10.562 60.8236 12.3994 62.5395 14.4525C64.6306 16.9455 66.3422 19.6757 67.6787 22.6389C68.873 25.2872 69.7353 28.039 70.2224 30.9029C70.438 32.1667 70.5458 33.452 70.6751 34.7287C70.8217 36.1736 70.8002 37.6271 70.7182 39.0721C70.6277 40.7024 70.4208 42.3156 70.1103 43.9201C69.4852 47.1463 68.416 50.2216 66.9285 53.1459C65.8033 55.3586 64.4538 57.4246 62.8888 59.3526C61.5652 60.9829 60.1122 62.4882 58.5257 63.8555C56.745 65.391 54.8308 66.741 52.7786 67.8926C50.5496 69.1435 48.2214 70.1484 45.7769 70.8989C44.1429 71.3992 42.483 71.7788 40.7972 72.0333C38.7192 72.3481 36.6238 72.4862 34.5199 72.4215C30.7905 72.3093 27.156 71.6537 23.6422 70.3943C20.0897 69.1262 16.8216 67.3319 13.8382 65.0201C12.1653 63.7218 10.6262 62.2855 9.21204 60.7155C7.43143 58.7401 5.89658 56.5835 4.60317 54.2587C3.27095 51.8606 2.2319 49.3417 1.48603 46.702C1.01609 45.0329 0.671183 43.3421 0.451302 41.6211C0.240044 39.9692 0.115014 38.3043 0.179685 36.6351C0.22711 35.2377 0.326272 33.8316 0.490104 32.4341C0.899686 28.962 1.8913 25.6495 3.33993 22.4707C4.35742 20.2365 5.59909 18.1316 7.05634 16.1562C7.12532 16.0656 7.14688 15.919 7.14688 15.7982C7.15119 12.1622 7.15119 8.52621 7.15119 4.89452C7.15119 2.71637 8.73347 0.818581 10.8762 0.426083C13.2906 -0.0181733 15.567 1.40517 16.1965 3.78173C16.3043 4.19579 16.3388 4.63573 16.3517 5.06705C16.3732 5.83911 16.3603 6.61116 16.3603 7.43929ZM15.3859 15.9837C15.373 15.9578 15.3601 15.9319 15.3471 15.906C15.442 15.8327 15.5325 15.7594 15.6274 15.6818C16.5802 14.9011 17.4985 14.0816 18.4858 13.3526C21.1934 11.3643 24.1812 9.93662 27.4061 9.00497C29.7472 8.3278 32.1357 7.95256 34.5673 7.88355C36.7273 7.82316 38.87 7.99138 40.9956 8.40113C43.2806 8.84107 45.4794 9.54412 47.5877 10.5146C50.3125 11.7654 52.7872 13.4001 55.0119 15.4143C56.8054 17.0361 58.3747 18.8519 59.7156 20.8619C61.3582 23.3247 62.6042 25.9773 63.4406 28.8197C64.1779 31.3127 64.5745 33.8618 64.6133 36.4583C64.6306 37.5754 64.5875 38.7011 64.471 39.8096C64.3374 41.082 64.1477 42.3587 63.8718 43.6052C63.2811 46.2794 62.2895 48.8112 60.9486 51.205C59.0603 54.5822 56.6028 57.472 53.5848 59.8831C51.7395 61.3582 49.7391 62.5831 47.592 63.5708C44.2119 65.1279 40.655 65.9905 36.9429 66.1803C35.0545 66.2752 33.1661 66.1932 31.2863 65.9129C29.6178 65.667 27.9838 65.2918 26.3843 64.7656C22.8576 63.601 19.6671 61.824 16.8087 59.4431C14.8944 57.8473 13.2087 56.0401 11.7601 54.0172C9.77252 51.2481 8.31096 48.2246 7.38832 44.9423C6.84509 43.0057 6.5088 41.0345 6.37083 39.0246C6.27167 37.5926 6.25011 36.1564 6.3967 34.7287C6.53035 33.4304 6.72006 32.1322 6.97012 30.8512C7.37539 28.7765 8.04796 26.7795 8.91455 24.8515C9.09563 24.4461 9.28533 24.045 9.47934 23.6266C8.5567 23.1651 7.65563 22.7122 6.72868 22.2464C6.39239 22.9969 6.05179 23.7215 5.74568 24.4634C4.66784 27.0685 3.90903 29.7599 3.56412 32.5592C3.39598 33.9049 3.28819 35.2635 3.24077 36.6222C3.18472 38.2784 3.32268 39.9347 3.5555 41.578C3.79262 43.2645 4.1634 44.9207 4.66352 46.5468C5.33179 48.712 6.22425 50.7823 7.33227 52.762C8.64724 55.1084 10.2338 57.2564 12.0834 59.2059C13.3122 60.5042 14.6487 61.6946 16.0758 62.7729C18.2099 64.386 20.5122 65.7188 22.974 66.754C25.0133 67.6123 27.1215 68.2549 29.2988 68.6733C30.7819 68.9623 32.2823 69.1521 33.7869 69.2254C35.8391 69.3246 37.8871 69.2427 39.9263 68.9537C41.6725 68.7035 43.3884 68.324 45.0741 67.7978C48.1999 66.8187 51.1101 65.391 53.7961 63.5191C56.7795 61.4401 59.3448 58.9342 61.4919 55.9969C63.2639 53.5729 64.6651 50.9505 65.7041 48.134C66.7 45.434 67.3079 42.6434 67.5623 39.7794C67.7046 38.1749 67.7218 36.5618 67.6097 34.9487C67.4976 33.2881 67.2648 31.6448 66.9027 30.0187C66.0921 26.3827 64.6909 22.9926 62.7077 19.8483C60.9659 17.0878 58.849 14.6466 56.3656 12.5245C54.7187 11.1184 52.951 9.88054 51.0583 8.83245C49.0277 7.7024 46.8978 6.80526 44.6732 6.14103C42.095 5.36897 39.4564 4.92472 36.7704 4.8212C34.1836 4.722 31.614 4.91609 29.0746 5.43367C26.5222 5.95556 24.0648 6.75781 21.7107 7.87492C18.8911 9.20769 16.3129 10.9157 13.9977 13.0076C13.7692 13.2146 13.5407 13.4217 13.282 13.6546C13.282 13.5165 13.282 13.4303 13.282 13.3397C13.282 10.6483 13.282 7.95687 13.282 5.26546C13.282 5.06705 13.2647 4.86433 13.2389 4.66593C13.1225 3.85074 12.2731 3.26846 11.4626 3.43236C10.7986 3.56607 10.208 4.12678 10.208 5.07999C10.2209 9.64332 10.2123 14.2023 10.2166 18.7657C10.2166 18.8519 10.2252 18.9382 10.2295 19.0417C10.3459 19.0417 10.4408 19.0417 10.5356 19.0417C15.041 19.0417 19.5421 19.0417 24.0475 19.0417C24.2157 19.0417 24.3838 19.0245 24.5519 19.0029C25.5996 18.8433 26.1601 17.6227 25.6039 16.7212C25.2719 16.1864 24.7804 15.975 24.1596 15.975C21.3227 15.9837 18.4858 15.9794 15.6532 15.9794C15.5713 15.9837 15.4808 15.9837 15.3859 15.9837ZM24.3407 50.4761C24.3838 50.4157 24.4269 50.3251 24.4916 50.2604C27.8157 46.9306 31.144 43.6009 34.4681 40.2711C34.6018 40.1374 34.7182 40.09 34.9251 40.1158C35.3045 40.1633 35.7012 40.1849 36.072 40.1202C37.249 39.9131 38.2621 38.9082 38.4691 37.7307C38.6933 36.4496 38.2708 35.4016 37.2188 34.6338C37.0506 34.513 36.9817 34.3966 36.9817 34.1852C36.986 27.0858 36.986 19.982 36.986 12.8825C36.986 12.7833 36.986 12.6798 36.986 12.5849C35.9469 12.5849 34.9467 12.5849 33.9335 12.5849C33.9335 12.7057 33.9335 12.8092 33.9335 12.9127C33.9335 20.0122 33.9335 27.116 33.9335 34.2154C33.9335 34.3707 33.9163 34.4785 33.7611 34.5907C32.7005 35.3627 32.2262 36.3936 32.4763 37.7091C32.5064 37.8773 32.4461 37.9722 32.334 38.0843C28.9927 41.4227 25.6557 44.7611 22.3143 48.0995C22.2497 48.1642 22.1505 48.1987 22.0901 48.2332C22.8705 49.0096 23.5819 49.717 24.3407 50.4761Z" fill="url(#paint0_linear)"/>
<defs>
<linearGradient id="paint0_linear" x1="35.4726" y1="0.345215" x2="35.4726" y2="72.4371" gradientUnits="userSpaceOnUse">
<stop stop-color="#96474D"/>
<stop offset="1" stop-color="#6C2E33"/>
</linearGradient>
<clipPath id="clip0">
<rect width="73.0435" height="73.0435" fill="white" transform="translate(1.75586 2.67902)"/>
</clipPath>
</defs>
</svg>
