<svg width="214" height="125" viewBox="0 0 214 125" fill="none" xmlns="http://www.w3.org/2000/svg">
<g clip-path="url(#clip0_18_395)">
<path d="M21.7823 70.331C21.0122 70.331 20.4072 69.5826 20.4072 68.6301V49.8526L12.4312 59.8195C12.1838 60.1598 11.7987 60.3979 11.4687 60.3299C11.1111 60.3299 10.7536 60.1258 10.4786 59.8195L2.75029 49.9206V68.6301C2.75029 69.5826 2.14522 70.331 1.37514 70.331C0.605063 70.331 0 69.5826 0 68.6301V45.7025C0 45.0221 0.330035 44.3758 0.85259 44.1377C1.37514 43.8656 1.98021 44.0356 2.36525 44.5119L11.4687 56.1798L20.8198 44.5119C21.2047 44.0356 21.8098 43.8656 22.3324 44.1377C22.8274 44.4098 23.1574 45.0221 23.1574 45.7025V68.6301C23.1574 69.5826 22.5523 70.331 21.7823 70.331ZM66.5571 69.4805C67.0796 68.8002 67.0246 67.7115 66.4745 67.0653L50.3578 48.9001C49.8077 48.2538 48.9277 48.3218 48.4051 49.0022C47.8825 49.6825 47.9375 50.771 48.4876 51.4174L64.6043 69.5826C64.8793 69.8888 65.2094 70.0248 65.5394 70.0248C65.897 70.0248 66.282 69.8547 66.5571 69.4805ZM50.3578 69.5826L66.4745 51.4174C67.0246 50.771 67.0796 49.7165 66.5571 49.0022C66.0344 48.3218 65.1818 48.2538 64.6043 48.9001L48.4876 67.0653C47.9375 67.7115 47.8825 68.766 48.4051 69.4805C48.6802 69.8547 49.0377 70.0248 49.4228 70.0248C49.7527 70.0248 50.0828 69.8888 50.3578 69.5826ZM103.63 79.5837C104.154 78.9033 104.098 77.8147 103.549 77.1683L87.4317 59.0032C86.8816 58.3569 86.0015 58.4249 85.479 59.1053C84.9565 59.7856 85.0114 60.8742 85.5615 61.5205L101.678 79.6857C101.953 79.9918 102.283 80.1278 102.613 80.1278C102.998 80.1278 103.384 79.9577 103.63 79.5837ZM87.4317 79.6857L103.549 61.5205C104.098 60.8742 104.154 59.8195 103.63 59.1053C103.108 58.4249 102.256 58.3569 101.678 59.0032L85.5615 77.1683C85.0114 77.8147 84.9565 78.8692 85.479 79.5837C85.754 79.9577 86.1116 80.1278 86.4966 80.1278C86.8542 80.1278 87.1841 79.9918 87.4317 79.6857ZM109.214 78.427V71.0452H121.893C121.975 71.0452 122.086 71.0452 122.168 71.0113C123.377 70.7051 125.688 69.1743 125.688 65.6705C125.688 61.4524 123.24 59.8195 121.701 59.4794H107.839C107.069 59.4794 106.464 60.2278 106.464 61.1803C106.464 62.1328 107.069 62.8812 107.839 62.8812L121.453 62.847C121.508 62.847 122.938 63.2214 122.938 65.6366C122.938 66.9973 122.086 67.4734 121.701 67.6096H107.839C107.069 67.6096 106.464 68.358 106.464 69.3104V78.393C106.464 79.3455 107.069 80.0938 107.839 80.0938C108.609 80.0938 109.214 79.3455 109.214 78.427ZM130.941 78.427V71.0452H143.62C143.702 71.0452 143.813 71.0452 143.895 71.0113C145.106 70.7051 147.415 69.1743 147.415 65.6705C147.415 61.4524 144.968 59.8195 143.427 59.4794H129.566C128.796 59.4794 128.191 60.2278 128.191 61.1803C128.191 62.1328 128.796 62.8812 129.566 62.8812L143.18 62.847C143.235 62.847 144.665 63.2214 144.665 65.6366C144.665 66.9973 143.813 67.4734 143.427 67.6096H129.566C128.796 67.6096 128.191 68.358 128.191 69.3104V78.393C128.191 79.3455 128.796 80.0938 129.566 80.0938C130.336 80.0938 130.941 79.3455 130.941 78.427ZM147.415 78.427V74.413C147.389 74.0388 147.196 72.0658 146.481 70.8751C145.106 68.5959 142.685 67.7796 142.411 67.7115C141.667 67.4734 140.924 68.0518 140.732 68.9362C140.539 69.8547 140.98 70.7732 141.722 71.0113C142.218 71.1814 143.62 71.8277 144.28 72.9163C144.445 73.1884 144.638 74.1408 144.692 74.583V78.427C144.692 79.3795 145.298 80.1278 146.068 80.1278C146.838 80.1278 147.415 79.3455 147.415 78.427ZM169.775 78.427C169.775 77.4745 169.171 76.7261 168.4 76.7261H153.329V71.0452H168.4C169.171 71.0452 169.775 70.2969 169.775 69.3444C169.775 68.3919 169.171 67.6435 168.4 67.6435H151.954C151.183 67.6435 150.578 68.3919 150.578 69.3444V78.427C150.578 79.3795 151.183 80.1278 151.954 80.1278H168.4C169.171 80.1278 169.775 79.3455 169.775 78.427ZM169.775 61.2143C169.775 60.2618 169.171 59.5135 168.4 59.5135H151.954C151.183 59.5135 150.578 60.2618 150.578 61.2143C150.578 62.1669 151.183 62.9152 151.954 62.9152H168.4C169.171 62.9152 169.775 62.1328 169.775 61.2143ZM87.9818 64.6501C87.9818 63.6975 87.3767 62.9492 86.6066 62.9492H65.7044C64.9344 62.9492 64.3293 63.6975 64.3293 64.6501C64.3293 65.6025 64.9344 66.3509 65.7044 66.3509H86.6066C87.3767 66.3509 87.9818 65.6025 87.9818 64.6501ZM87.9818 75.3654C87.9818 74.413 87.3767 73.6647 86.6066 73.6647H1.37514C0.605063 73.6647 0 74.413 0 75.3654C0 76.3178 0.605063 77.0663 1.37514 77.0663H86.6066C87.3767 77.0663 87.9818 76.3178 87.9818 75.3654ZM213.587 54.2067C213.587 53.2543 212.983 52.5059 212.213 52.5059H66.5571C65.787 52.5059 65.1818 53.2543 65.1818 54.2067C65.1818 55.1593 65.787 55.9076 66.5571 55.9076H212.213C212.983 55.9076 213.587 55.1593 213.587 54.2067ZM27.6954 69.6165L31.0232 63.8676H41.0068C41.7769 63.8676 42.3819 63.1193 42.3819 62.1669C42.3819 61.2143 41.7769 60.466 41.0068 60.466H30.3358C29.8957 60.466 29.4831 60.738 29.2081 61.1803L25.4677 67.6435C25.0277 68.3919 25.1651 69.4805 25.7977 70.0248C26.0453 70.2289 26.3203 70.331 26.5952 70.331C27.0078 70.331 27.4479 70.0928 27.6954 69.6165ZM45.8748 70.0588C46.5074 69.5486 46.6724 68.494 46.2598 67.7115L36.8539 50.1247C36.4414 49.3423 35.5887 49.1382 34.9563 49.6485C34.3236 50.1587 34.1586 51.2133 34.5712 51.9957L43.9771 69.5486C44.2521 70.0588 44.6922 70.2969 45.1322 70.2969C45.3798 70.331 45.6273 70.2289 45.8748 70.0588ZM188.037 80.0259C189.357 79.5155 191.585 77.8147 191.722 74.481C191.86 70.9433 190.1 68.9703 189.055 68.358C188.863 68.2559 188.67 68.1879 188.478 68.1879H175.881C175.441 67.9837 174.424 67.3714 174.479 65.8406C174.561 63.8676 175.414 63.2894 175.744 63.1193H188.587C188.67 63.1873 188.808 63.2894 188.863 63.4254C188.917 63.6295 188.945 64.2759 188.917 64.7521C188.835 65.6705 189.385 66.521 190.128 66.623C190.87 66.7251 191.558 66.0788 191.641 65.1262C191.696 64.6501 191.805 63.0172 191.338 61.8607C190.65 60.1939 189.302 59.7515 189.138 59.7176C189.027 59.6835 188.945 59.6835 188.835 59.6835L175.303 59.7176C174.149 59.9896 171.893 61.5885 171.755 65.6366C171.618 69.3444 174.065 71.0793 175.359 71.4874C175.469 71.5216 175.578 71.5555 175.689 71.5555H188.092C188.45 71.8957 189.054 72.6781 189 74.277C188.945 75.7396 187.845 76.454 187.404 76.6581H175.441C175.441 76.6581 174.754 76.5901 174.534 76.0118C174.368 75.5696 174.368 74.8552 174.396 74.5149C174.479 73.5966 173.956 72.7462 173.213 72.61C172.47 72.508 171.783 73.1543 171.673 74.0728C171.646 74.2429 171.507 75.9098 172.003 77.3384C172.718 79.3795 174.424 79.9578 175.359 80.0259H187.625C187.79 80.1278 187.927 80.0938 188.037 80.0259ZM210.315 80.0259C211.635 79.5155 213.862 77.8147 214 74.481C214.138 70.9433 212.377 68.9703 211.331 68.358C211.139 68.2559 210.948 68.1879 210.755 68.1879H198.159C197.773 68.0177 196.701 67.4054 196.756 65.8406C196.838 63.8676 197.691 63.2894 198.021 63.1193H210.864C210.948 63.1873 211.085 63.2894 211.139 63.4254C211.194 63.6295 211.223 64.2759 211.194 64.7521C211.112 65.6705 211.661 66.521 212.405 66.623C213.175 66.7251 213.836 66.0788 213.917 65.1262C213.973 64.6501 214.083 63.0172 213.587 61.8946C212.899 60.2278 211.553 59.7856 211.387 59.7515C211.278 59.7176 211.194 59.7176 211.085 59.7176L197.554 59.7515C196.398 60.0238 194.143 61.6225 194.006 65.6705C193.869 69.3784 196.316 71.1133 197.609 71.5216C197.718 71.5555 197.828 71.5895 197.939 71.5895H210.342C210.7 71.9296 211.305 72.7121 211.25 74.3109C211.194 75.7737 210.095 76.488 209.655 76.6922H197.691C197.691 76.6922 197.002 76.6241 196.783 76.0458C196.646 75.6377 196.646 74.9232 196.672 74.583C196.756 73.6647 196.233 72.8142 195.463 72.6781C194.748 72.5761 194.033 73.2223 193.923 74.1748C193.895 74.3448 193.758 76.0118 194.253 77.4406C194.968 79.4815 196.672 80.0598 197.609 80.1278H209.874C210.04 80.1278 210.177 80.0938 210.315 80.0259Z" fill="#101011"/>
</g>
<defs>
<clipPath id="clip0_18_395">
<rect width="214" height="125" fill="white"/>
</clipPath>
</defs>
</svg>
