<svg width="200" height="164" viewBox="0 0 200 164" fill="none" xmlns="http://www.w3.org/2000/svg">
<path d="M23.7618 163.359H0.491699V0H101.127L23.7618 163.359Z" fill="#E31616"/>
<path d="M200 104.121V118.597H166.59V118.946L200 127.318V140.747L166.59 148.944V149.293H200V163.071H157.494V139.177L180.759 133.596V133.247L157.494 128.015V104.121H200Z" fill="#E31616"/>
<path d="M200 50.2293V67.3212L190.904 70.2862V83.0179L200 85.8084V102.028L157.494 87.2037V65.4028L200 50.2293ZM180.759 72.0302L167.464 76.3904V76.5648L180.759 80.925V72.0302Z" fill="#E31616"/>
<path d="M200 0V18.836L185.656 26.5099V26.6844L200 34.0095V51.6246L178.135 36.6256L157.494 49.8805V31.2189L170.088 25.1147V24.9403L157.494 18.1384V1.04645L178.135 15.1735L200 0Z" fill="#E31616"/>
<path d="M40.8184 163.42H144.024V120.844H60.9347L40.8184 163.42Z" fill="#262930"/>
<path d="M117.96 0.0338745L97.8433 42.61H144.023V0.0338745H117.96Z" fill="#262930"/>
<path d="M69.3313 103.104H144.024V60.35H89.4476L69.3313 103.104Z" fill="#262930"/>
</svg>
