<svg width="236" height="116" viewBox="0 0 236 116" fill="none" xmlns="http://www.w3.org/2000/svg">
<g clip-path="url(#clip0_11_1374)">
<path d="M24.0216 66.1772C23.1723 66.1772 22.5051 65.3479 22.5051 64.2924V43.4849L13.7092 54.5294C13.4363 54.9064 13.0117 55.1703 12.6477 55.0949C12.2534 55.0949 11.8591 54.8688 11.5558 54.5294L3.03303 43.5603V64.2924C3.03303 65.3479 2.36576 66.1772 1.51651 66.1772C0.667266 66.1772 0 65.3479 0 64.2924V38.8862C0 38.1323 0.363964 37.4161 0.940239 37.1522C1.51651 36.8507 2.18378 37.0391 2.60841 37.5669L12.6477 50.4962L22.9601 37.5669C23.3846 37.0391 24.0519 36.8507 24.6282 37.1522C25.1741 37.4538 25.5381 38.1323 25.5381 38.8862V64.2924C25.5381 65.3479 24.8708 66.1772 24.0216 66.1772ZM73.3994 65.2348C73.9756 64.4809 73.915 63.2746 73.3083 62.5585L55.5348 42.4295C54.9281 41.7133 53.9576 41.7887 53.3813 42.5426C52.805 43.2965 52.8657 44.5027 53.4723 45.2189L71.2459 65.3479C71.5491 65.6872 71.9132 65.8379 72.2771 65.8379C72.6714 65.8379 73.096 65.6494 73.3994 65.2348ZM55.5348 65.3479L73.3083 45.2189C73.915 44.5027 73.9756 43.3342 73.3994 42.5426C72.823 41.7887 71.8827 41.7133 71.2459 42.4295L53.4723 62.5585C52.8657 63.2746 52.805 64.4431 53.3813 65.2348C53.6847 65.6494 54.0789 65.8379 54.5036 65.8379C54.8675 65.8379 55.2315 65.6872 55.5348 65.3479ZM114.284 76.4302C114.861 75.6763 114.8 74.47 114.194 73.7537L96.42 53.6248C95.8134 52.9086 94.8428 52.984 94.2666 53.7379C93.6903 54.4918 93.7509 55.6981 94.3575 56.4142L112.131 76.5432C112.434 76.8824 112.798 77.0332 113.162 77.0332C113.587 77.0332 114.012 76.8447 114.284 76.4302ZM96.42 76.5432L114.194 56.4142C114.8 55.6981 114.861 54.5294 114.284 53.7379C113.708 52.984 112.768 52.9086 112.131 53.6248L94.3575 73.7537C93.7509 74.47 93.6903 75.6385 94.2666 76.4302C94.5698 76.8447 94.9642 77.0332 95.3888 77.0332C95.7831 77.0332 96.147 76.8824 96.42 76.5432ZM120.442 75.1485V66.9687H134.424C134.515 66.9687 134.637 66.9687 134.727 66.9311C136.061 66.5918 138.609 64.8955 138.609 61.0129C138.609 56.3388 135.91 54.5294 134.212 54.1525H118.925C118.076 54.1525 117.409 54.9818 117.409 56.0373C117.409 57.0927 118.076 57.922 118.925 57.922L133.939 57.8842C134 57.8842 135.577 58.299 135.577 60.9753C135.577 62.4831 134.637 63.0107 134.212 63.1616H118.925C118.076 63.1616 117.409 63.9909 117.409 65.0463V75.1108C117.409 76.1663 118.076 76.9955 118.925 76.9955C119.774 76.9955 120.442 76.1663 120.442 75.1485ZM144.402 75.1485V66.9687H158.385C158.475 66.9687 158.597 66.9687 158.688 66.9311C160.023 66.5918 162.57 64.8955 162.57 61.0129C162.57 56.3388 159.871 54.5294 158.172 54.1525H142.886C142.037 54.1525 141.369 54.9818 141.369 56.0373C141.369 57.0927 142.037 57.922 142.886 57.922L157.899 57.8842C157.96 57.8842 159.537 58.299 159.537 60.9753C159.537 62.4831 158.597 63.0107 158.172 63.1616H142.886C142.037 63.1616 141.369 63.9909 141.369 65.0463V75.1108C141.369 76.1663 142.037 76.9955 142.886 76.9955C143.735 76.9955 144.402 76.1663 144.402 75.1485ZM162.57 75.1485V70.7005C162.541 70.2859 162.328 68.0996 161.54 66.7802C160.023 64.2546 157.354 63.35 157.051 63.2746C156.231 63.0107 155.412 63.6516 155.2 64.6316C154.987 65.6494 155.473 66.6672 156.292 66.9311C156.838 67.1196 158.385 67.8357 159.112 69.042C159.295 69.3435 159.507 70.3989 159.567 70.8889V75.1485C159.567 76.2039 160.235 77.0332 161.084 77.0332C161.933 77.0332 162.57 76.1663 162.57 75.1485ZM187.229 75.1485C187.229 74.093 186.562 73.2637 185.712 73.2637H169.092V66.9687H185.712C186.562 66.9687 187.229 66.1394 187.229 65.084C187.229 64.0285 186.562 63.1992 185.712 63.1992H167.575C166.725 63.1992 166.058 64.0285 166.058 65.084V75.1485C166.058 76.2039 166.725 77.0332 167.575 77.0332H185.712C186.562 77.0332 187.229 76.1663 187.229 75.1485ZM187.229 56.0749C187.229 55.0195 186.562 54.1903 185.712 54.1903H167.575C166.725 54.1903 166.058 55.0195 166.058 56.0749C166.058 57.1305 166.725 57.9597 167.575 57.9597H185.712C186.562 57.9597 187.229 57.0927 187.229 56.0749ZM97.0266 59.8822C97.0266 58.8266 96.3593 57.9974 95.5101 57.9974H72.4591C71.6099 57.9974 70.9426 58.8266 70.9426 59.8822C70.9426 60.9376 71.6099 61.7668 72.4591 61.7668H95.5101C96.3593 61.7668 97.0266 60.9376 97.0266 59.8822ZM97.0266 71.7559C97.0266 70.7005 96.3593 69.8713 95.5101 69.8713H1.51651C0.667266 69.8713 0 70.7005 0 71.7559C0 72.8113 0.667266 73.6407 1.51651 73.6407H95.5101C96.3593 73.6407 97.0266 72.8113 97.0266 71.7559ZM235.545 48.3098C235.545 47.2544 234.878 46.4251 234.029 46.4251H73.3994C72.5501 46.4251 71.8827 47.2544 71.8827 48.3098C71.8827 49.3653 72.5501 50.1946 73.3994 50.1946H234.029C234.878 50.1946 235.545 49.3653 235.545 48.3098ZM30.5426 65.3855L34.2125 59.0151H45.2224C46.0717 59.0151 46.7389 58.1859 46.7389 57.1305C46.7389 56.0749 46.0717 55.2457 45.2224 55.2457H33.4544C32.9691 55.2457 32.5141 55.5472 32.2108 56.0373L28.0859 63.1992C27.6006 64.0285 27.7522 65.2348 28.4498 65.8379C28.7228 66.0641 29.0261 66.1772 29.3293 66.1772C29.7843 66.1772 30.2696 65.9133 30.5426 65.3855ZM50.5909 65.8756C51.2885 65.3102 51.4705 64.1416 51.0155 63.2746L40.6426 43.7865C40.1877 42.9195 39.2474 42.6933 38.5499 43.2588C37.8522 43.8242 37.6702 44.9927 38.1252 45.8597L48.4981 65.3102C48.8014 65.8756 49.2867 66.1394 49.772 66.1394C50.045 66.1772 50.3179 66.0641 50.5909 65.8756ZM207.368 76.9202C208.824 76.3547 211.281 74.47 211.432 70.7759C211.584 66.8557 209.643 64.6694 208.49 63.9909C208.279 63.8778 208.066 63.8024 207.854 63.8024H193.962C193.477 63.5762 192.355 62.8977 192.416 61.2014C192.506 59.0151 193.447 58.3744 193.811 58.1859H207.974C208.066 58.2612 208.218 58.3744 208.279 58.5251C208.338 58.7513 208.369 59.4675 208.338 59.9952C208.248 61.0129 208.854 61.9553 209.674 62.0684C210.492 62.1815 211.251 61.4653 211.342 60.4098C211.403 59.8822 211.523 58.0727 211.008 56.7912C210.25 54.9442 208.763 54.454 208.582 54.4164C208.46 54.3787 208.369 54.3787 208.248 54.3787L193.325 54.4164C192.052 54.7179 189.564 56.4896 189.412 60.9753C189.261 65.084 191.96 67.0064 193.386 67.4587C193.508 67.4965 193.628 67.5341 193.75 67.5341H207.429C207.823 67.9111 208.49 68.7781 208.43 70.5498C208.369 72.1706 207.156 72.9622 206.67 73.1883H193.477C193.477 73.1883 192.719 73.113 192.477 72.4722C192.294 71.9822 192.294 71.1905 192.324 70.8135C192.416 69.7959 191.839 68.8535 191.02 68.7026C190.201 68.5896 189.443 69.3058 189.322 70.3235C189.292 70.512 189.139 72.3591 189.686 73.9422C190.474 76.2039 192.355 76.8448 193.386 76.9202H206.914C207.095 77.0332 207.247 76.9955 207.368 76.9202ZM231.936 76.9202C233.392 76.3547 235.848 74.47 236 70.7759C236.152 66.8557 234.21 64.6694 233.057 63.9909C232.845 63.8778 232.634 63.8024 232.421 63.8024H218.53C218.105 63.6139 216.923 62.9354 216.983 61.2014C217.074 59.0151 218.014 58.3744 218.378 58.1859H232.542C232.634 58.2612 232.785 58.3744 232.845 58.5251C232.906 58.7513 232.937 59.4675 232.906 59.9952C232.815 61.0129 233.421 61.9553 234.241 62.0684C235.09 62.1815 235.819 61.4653 235.909 60.4098C235.97 59.8822 236.091 58.0727 235.545 56.8288C234.786 54.9818 233.301 54.4918 233.118 54.454C232.998 54.4164 232.906 54.4164 232.785 54.4164L217.863 54.454C216.588 54.7557 214.102 56.5273 213.95 61.0129C213.799 65.1217 216.498 67.0441 217.924 67.4965C218.044 67.5341 218.166 67.5718 218.288 67.5718H231.966C232.361 67.9487 233.028 68.8157 232.967 70.5874C232.906 72.2083 231.694 72.9998 231.208 73.2261H218.014C218.014 73.2261 217.255 73.1507 217.013 72.5098C216.862 72.0576 216.862 71.2659 216.891 70.8889C216.983 69.8713 216.407 68.9289 215.557 68.7781C214.769 68.665 213.98 69.3811 213.859 70.4366C213.828 70.625 213.677 72.4722 214.223 74.0554C215.011 76.317 216.891 76.9578 217.924 77.0332H231.45C231.633 77.0332 231.784 76.9955 231.936 76.9202Z" fill="#101011"/>
</g>
<defs>
<clipPath id="clip0_11_1374">
<rect width="236" height="116" fill="white"/>
</clipPath>
</defs>
</svg>
