<svg width="352" height="116" viewBox="0 0 352 116" fill="none" xmlns="http://www.w3.org/2000/svg">
<path d="M82.0216 66.1772C81.1723 66.1772 80.5051 65.3479 80.5051 64.2924V43.4849L71.7092 54.5294C71.4363 54.9064 71.0117 55.1703 70.6477 55.0949C70.2534 55.0949 69.8591 54.8688 69.5558 54.5294L61.033 43.5603V64.2924C61.033 65.3479 60.3658 66.1772 59.5165 66.1772C58.6673 66.1772 58 65.3479 58 64.2924V38.8862C58 38.1323 58.364 37.4161 58.9402 37.1522C59.5165 36.8507 60.1838 37.0391 60.6084 37.5669L70.6477 50.4962L80.9601 37.5669C81.3846 37.0391 82.0519 36.8507 82.6282 37.1522C83.1741 37.4538 83.5381 38.1323 83.5381 38.8862V64.2924C83.5381 65.3479 82.8708 66.1772 82.0216 66.1772ZM131.399 65.2348C131.976 64.4809 131.915 63.2746 131.308 62.5585L113.535 42.4295C112.928 41.7133 111.958 41.7887 111.381 42.5426C110.805 43.2965 110.866 44.5027 111.472 45.2189L129.246 65.3479C129.549 65.6872 129.913 65.8379 130.277 65.8379C130.671 65.8379 131.096 65.6494 131.399 65.2348ZM113.535 65.3479L131.308 45.2189C131.915 44.5027 131.976 43.3342 131.399 42.5426C130.823 41.7887 129.883 41.7133 129.246 42.4295L111.472 62.5585C110.866 63.2746 110.805 64.4431 111.381 65.2348C111.685 65.6494 112.079 65.8379 112.504 65.8379C112.868 65.8379 113.232 65.6872 113.535 65.3479ZM172.284 76.4302C172.861 75.6763 172.8 74.47 172.194 73.7537L154.42 53.6248C153.813 52.9086 152.843 52.984 152.267 53.7379C151.69 54.4918 151.751 55.6981 152.357 56.4142L170.131 76.5432C170.434 76.8824 170.798 77.0332 171.162 77.0332C171.587 77.0332 172.012 76.8447 172.284 76.4302ZM154.42 76.5432L172.194 56.4142C172.8 55.6981 172.861 54.5294 172.284 53.7379C171.708 52.984 170.768 52.9086 170.131 53.6248L152.357 73.7537C151.751 74.47 151.69 75.6385 152.267 76.4302C152.57 76.8447 152.964 77.0332 153.389 77.0332C153.783 77.0332 154.147 76.8824 154.42 76.5432ZM178.442 75.1485V66.9687H192.424C192.515 66.9687 192.637 66.9687 192.727 66.9311C194.061 66.5918 196.609 64.8955 196.609 61.0129C196.609 56.3388 193.91 54.5294 192.212 54.1525H176.925C176.076 54.1525 175.409 54.9818 175.409 56.0373C175.409 57.0927 176.076 57.922 176.925 57.922L191.939 57.8842C192 57.8842 193.577 58.299 193.577 60.9753C193.577 62.4831 192.637 63.0107 192.212 63.1616H176.925C176.076 63.1616 175.409 63.9909 175.409 65.0463V75.1108C175.409 76.1663 176.076 76.9955 176.925 76.9955C177.774 76.9955 178.442 76.1663 178.442 75.1485ZM202.402 75.1485V66.9687H216.385C216.475 66.9687 216.597 66.9687 216.688 66.9311C218.023 66.5918 220.57 64.8955 220.57 61.0129C220.57 56.3388 217.871 54.5294 216.172 54.1525H200.886C200.037 54.1525 199.369 54.9818 199.369 56.0373C199.369 57.0927 200.037 57.922 200.886 57.922L215.899 57.8842C215.96 57.8842 217.537 58.299 217.537 60.9753C217.537 62.4831 216.597 63.0107 216.172 63.1616H200.886C200.037 63.1616 199.369 63.9909 199.369 65.0463V75.1108C199.369 76.1663 200.037 76.9955 200.886 76.9955C201.735 76.9955 202.402 76.1663 202.402 75.1485ZM220.57 75.1485V70.7005C220.541 70.2859 220.328 68.0996 219.54 66.7802C218.023 64.2546 215.354 63.35 215.051 63.2746C214.231 63.0107 213.412 63.6516 213.2 64.6316C212.987 65.6494 213.473 66.6672 214.292 66.9311C214.838 67.1196 216.385 67.8357 217.112 69.042C217.295 69.3435 217.507 70.3989 217.567 70.8889V75.1485C217.567 76.2039 218.235 77.0332 219.084 77.0332C219.933 77.0332 220.57 76.1663 220.57 75.1485ZM245.229 75.1485C245.229 74.093 244.562 73.2637 243.712 73.2637H227.092V66.9687H243.712C244.562 66.9687 245.229 66.1394 245.229 65.084C245.229 64.0285 244.562 63.1992 243.712 63.1992H225.575C224.725 63.1992 224.058 64.0285 224.058 65.084V75.1485C224.058 76.2039 224.725 77.0332 225.575 77.0332H243.712C244.562 77.0332 245.229 76.1663 245.229 75.1485ZM245.229 56.0749C245.229 55.0195 244.562 54.1903 243.712 54.1903H225.575C224.725 54.1903 224.058 55.0195 224.058 56.0749C224.058 57.1305 224.725 57.9597 225.575 57.9597H243.712C244.562 57.9597 245.229 57.0927 245.229 56.0749ZM155.027 59.8822C155.027 58.8266 154.359 57.9974 153.51 57.9974H130.459C129.61 57.9974 128.943 58.8266 128.943 59.8822C128.943 60.9376 129.61 61.7668 130.459 61.7668H153.51C154.359 61.7668 155.027 60.9376 155.027 59.8822ZM155.027 71.7559C155.027 70.7005 154.359 69.8713 153.51 69.8713H59.5165C58.6673 69.8713 58 70.7005 58 71.7559C58 72.8113 58.6673 73.6407 59.5165 73.6407H153.51C154.359 73.6407 155.027 72.8113 155.027 71.7559ZM293.545 48.3098C293.545 47.2544 292.878 46.4251 292.029 46.4251H131.399C130.55 46.4251 129.883 47.2544 129.883 48.3098C129.883 49.3653 130.55 50.1946 131.399 50.1946H292.029C292.878 50.1946 293.545 49.3653 293.545 48.3098ZM88.5426 65.3855L92.2125 59.0151H103.222C104.072 59.0151 104.739 58.1859 104.739 57.1305C104.739 56.0749 104.072 55.2457 103.222 55.2457H91.4544C90.9691 55.2457 90.5141 55.5472 90.2108 56.0373L86.0859 63.1992C85.6006 64.0285 85.7522 65.2348 86.4498 65.8379C86.7228 66.0641 87.0261 66.1772 87.3293 66.1772C87.7843 66.1772 88.2696 65.9133 88.5426 65.3855ZM108.591 65.8756C109.289 65.3102 109.471 64.1416 109.015 63.2746L98.6426 43.7865C98.1877 42.9195 97.2474 42.6933 96.5499 43.2588C95.8522 43.8242 95.6702 44.9927 96.1252 45.8597L106.498 65.3102C106.801 65.8756 107.287 66.1394 107.772 66.1394C108.045 66.1772 108.318 66.0641 108.591 65.8756ZM265.368 76.9202C266.824 76.3547 269.281 74.47 269.432 70.7759C269.584 66.8557 267.643 64.6694 266.49 63.9909C266.279 63.8778 266.066 63.8024 265.854 63.8024H251.962C251.477 63.5762 250.355 62.8977 250.416 61.2014C250.506 59.0151 251.447 58.3744 251.811 58.1859H265.974C266.066 58.2612 266.218 58.3744 266.279 58.5251C266.338 58.7513 266.369 59.4675 266.338 59.9952C266.248 61.0129 266.854 61.9553 267.674 62.0684C268.492 62.1815 269.251 61.4653 269.342 60.4098C269.403 59.8822 269.523 58.0727 269.008 56.7912C268.25 54.9442 266.763 54.454 266.582 54.4164C266.46 54.3787 266.369 54.3787 266.248 54.3787L251.325 54.4164C250.052 54.7179 247.564 56.4896 247.412 60.9753C247.261 65.084 249.96 67.0064 251.386 67.4587C251.508 67.4965 251.628 67.5341 251.75 67.5341H265.429C265.823 67.9111 266.49 68.7781 266.43 70.5498C266.369 72.1706 265.156 72.9622 264.67 73.1883H251.477C251.477 73.1883 250.719 73.113 250.477 72.4722C250.294 71.9822 250.294 71.1905 250.324 70.8135C250.416 69.7959 249.839 68.8535 249.02 68.7026C248.201 68.5896 247.443 69.3058 247.322 70.3235C247.292 70.512 247.139 72.3591 247.686 73.9422C248.474 76.2039 250.355 76.8448 251.386 76.9202H264.914C265.095 77.0332 265.247 76.9955 265.368 76.9202ZM289.936 76.9202C291.392 76.3547 293.848 74.47 294 70.7759C294.152 66.8557 292.21 64.6694 291.057 63.9909C290.845 63.8778 290.634 63.8024 290.421 63.8024H276.53C276.105 63.6139 274.923 62.9354 274.983 61.2014C275.074 59.0151 276.014 58.3744 276.378 58.1859H290.542C290.634 58.2612 290.785 58.3744 290.845 58.5251C290.906 58.7513 290.937 59.4675 290.906 59.9952C290.815 61.0129 291.421 61.9553 292.241 62.0684C293.09 62.1815 293.819 61.4653 293.909 60.4098C293.97 59.8822 294.091 58.0727 293.545 56.8288C292.786 54.9818 291.301 54.4918 291.118 54.454C290.998 54.4164 290.906 54.4164 290.785 54.4164L275.863 54.454C274.588 54.7557 272.102 56.5273 271.95 61.0129C271.799 65.1217 274.498 67.0441 275.924 67.4965C276.044 67.5341 276.166 67.5718 276.288 67.5718H289.966C290.361 67.9487 291.028 68.8157 290.967 70.5874C290.906 72.2083 289.694 72.9998 289.208 73.2261H276.014C276.014 73.2261 275.255 73.1507 275.013 72.5098C274.862 72.0576 274.862 71.2659 274.891 70.8889C274.983 69.8713 274.407 68.9289 273.557 68.7781C272.769 68.665 271.98 69.3811 271.859 70.4366C271.828 70.625 271.677 72.4722 272.223 74.0554C273.011 76.317 274.891 76.9578 275.924 77.0332H289.45C289.633 77.0332 289.784 76.9955 289.936 76.9202Z" fill="#101011"/>
</svg>
