<svg width="379" height="379" viewBox="0 0 379 379" fill="none" xmlns="http://www.w3.org/2000/svg">
<rect width="318" height="379" transform="translate(61)" fill="white"/>
<path d="M250.245 284.225L253.332 279.471L238.145 280.213L238.204 284.722L250.245 284.225ZM234.015 285.687L237.123 287.705L240.17 283.012L235.004 268.533L232.268 272.747L235.929 282.738L234.015 285.687ZM243.394 294.78L245.978 290.799L228.089 279.186L225.505 283.166L243.394 294.78Z" fill="#262930"/>
<path d="M249.939 276.814C251.201 277.633 252.409 277.853 253.564 277.473C254.724 277.085 255.71 276.264 256.524 275.011C257.205 273.963 257.587 272.971 257.67 272.035C257.75 271.086 257.64 270.333 257.338 269.776C257.654 269.935 257.983 270.073 258.326 270.19C258.66 270.303 258.961 270.37 259.226 270.391L261.691 266.594L261.507 266.475C261.073 266.426 260.601 266.3 260.092 266.098C259.575 265.89 259.067 265.624 258.567 265.3L252.989 261.679C251.498 260.711 250.1 260.479 248.795 260.982C247.482 261.48 246.252 262.614 245.103 264.383C243.965 266.136 243.411 267.779 243.44 269.312C243.47 270.845 244.054 271.98 245.193 272.72L245.414 272.863L247.819 269.185L247.61 269.05C247.176 268.768 246.922 268.388 246.848 267.909C246.767 267.425 246.946 266.843 247.388 266.163C247.834 265.475 248.312 265.099 248.82 265.033C249.329 264.967 249.862 265.115 250.419 265.476L251.143 265.947L249.421 268.601C248.368 270.223 247.856 271.782 247.885 273.28C247.92 274.769 248.604 275.947 249.939 276.814ZM252.109 272.773C251.552 272.412 251.271 271.938 251.266 271.353C251.267 270.76 251.547 270.034 252.105 269.173L253.294 267.343L254.387 268.053C255.001 268.451 255.377 269.039 255.514 269.814C255.651 270.59 255.496 271.322 255.049 272.01C254.634 272.649 254.174 273.026 253.669 273.14C253.161 273.241 252.641 273.119 252.109 272.773Z" fill="#262930"/>
<path d="M256.399 254.811L253.156 252.705L250.659 256.551L254.296 258.912C255.877 259.938 257.281 260.268 258.509 259.901C259.734 259.52 260.871 258.523 261.918 256.909C262.588 255.877 263.113 254.943 263.493 254.107C263.864 253.265 264.168 252.484 264.403 251.764L261.663 249.985C261.428 250.706 261.18 251.383 260.92 252.017C260.659 252.652 260.306 253.313 259.859 254.001C259.338 254.804 258.818 255.264 258.3 255.381C257.786 255.49 257.153 255.3 256.399 254.811ZM258.172 244.977L255.676 248.823L268.024 256.839L270.52 252.993L258.172 244.977Z" fill="#262930"/>
<path d="M265.904 246.975C267.829 248.225 269.749 248.639 271.665 248.217C273.572 247.79 275.201 246.537 276.551 244.456C277.477 243.031 277.979 241.674 278.058 240.387C278.142 239.091 277.881 237.961 277.273 236.996L273.986 239.019C274.229 239.56 274.351 240.152 274.353 240.794C274.356 241.436 274.15 242.076 273.735 242.715C273.155 243.608 272.411 244.091 271.502 244.164C270.589 244.224 269.601 243.908 268.536 243.217L267.713 242.683C266.73 242.045 266.074 241.316 265.744 240.497C265.412 239.664 265.514 238.834 266.051 238.006C266.524 237.277 267.1 236.865 267.779 236.77C268.463 236.667 269.12 236.82 269.751 237.23L269.96 237.365L265.924 243.582L268.123 245.01L274.608 235.021L273.367 234.215C271.458 232.977 269.616 232.532 267.841 232.881C266.071 233.222 264.572 234.339 263.344 236.231C262.115 238.123 261.693 240.038 262.077 241.976C262.458 243.9 263.603 245.481 265.511 246.72L265.904 246.975Z" fill="#262930"/>
<path d="M274.834 233.247C276.775 234.507 278.698 234.917 280.602 234.477C282.507 234.036 284.089 232.845 285.349 230.904C286.577 229.012 287.073 227.261 286.837 225.653C286.601 224.044 285.812 222.793 284.471 221.899L284.275 221.771L281.85 225.506L281.997 225.602C282.554 225.964 282.914 226.441 283.075 227.035C283.242 227.621 283.076 228.299 282.576 229.069C282.018 229.929 281.3 230.371 280.422 230.395C279.545 230.42 278.59 230.097 277.558 229.427L276.809 228.94C275.76 228.26 275.08 227.515 274.766 226.706C274.45 225.884 274.563 225.055 275.106 224.219C275.574 223.499 276.113 223.08 276.724 222.965C277.332 222.835 277.93 222.962 278.52 223.345L278.68 223.449L281.105 219.713L280.851 219.566C279.441 218.744 277.969 218.545 276.435 218.97C274.894 219.39 273.509 220.546 272.28 222.438C271.015 224.387 270.571 226.317 270.949 228.228C271.319 230.133 272.479 231.718 274.429 232.984L274.834 233.247Z" fill="#262930"/>
<path d="M279.975 217.688L282.415 213.928L291.888 220.077L294.385 216.232L284.912 210.082L287.345 206.335L284.47 204.468L277.1 215.821L279.975 217.688Z" fill="#262930"/>
<path d="M297.958 210.727L302.592 203.589C303.576 202.074 304.008 200.753 303.889 199.628C303.767 198.489 303.173 197.574 302.108 196.883C301.256 196.33 300.413 196.149 299.578 196.341C298.744 196.532 297.968 197.036 297.252 197.852L297.216 197.828C297.552 196.952 297.626 196.138 297.438 195.388C297.25 194.637 296.759 194.004 295.964 193.488C294.948 192.828 293.943 192.7 292.949 193.102C291.959 193.496 290.959 194.471 289.949 196.028L285.61 202.711L297.958 210.727ZM293.002 202.166L290.299 200.411L291.599 198.409C291.961 197.852 292.335 197.518 292.721 197.408C293.112 197.289 293.517 197.365 293.934 197.637C294.401 197.94 294.671 198.295 294.744 198.703C294.816 199.112 294.669 199.598 294.302 200.163L293.002 202.166ZM298.138 205.5L295.177 203.578L296.669 201.28C297.057 200.682 297.471 200.322 297.911 200.201C298.351 200.079 298.802 200.173 299.263 200.485C299.747 200.798 300.024 201.188 300.094 201.653C300.162 202.104 300.007 202.621 299.63 203.203L298.138 205.5Z" fill="#262930"/>
<path d="M300.533 193.66C302.458 194.909 304.387 195.3 306.321 194.832C308.255 194.364 309.862 193.143 311.144 191.169C312.42 189.204 312.878 187.242 312.518 185.286C312.159 183.329 311.016 181.726 309.091 180.476L308.686 180.213C306.769 178.969 304.844 178.58 302.91 179.048C300.968 179.511 299.359 180.725 298.083 182.691C296.807 184.657 296.35 186.625 296.713 188.595C297.073 190.552 298.211 192.152 300.127 193.396L300.533 193.66ZM302.508 189.353C301.451 188.667 300.785 187.909 300.509 187.078C300.239 186.239 300.381 185.393 300.934 184.541C301.481 183.698 302.193 183.228 303.07 183.134C303.946 183.039 304.913 183.335 305.969 184.021L306.707 184.499C307.771 185.19 308.446 185.954 308.73 186.79C309.013 187.627 308.876 188.475 308.318 189.335C307.759 190.195 307.041 190.666 306.161 190.747C305.282 190.828 304.314 190.525 303.257 189.84L302.508 189.353Z" fill="#262930"/>
<path d="M141.178 379H0V0H379L141.178 379Z" fill="#262930"/>
<g clip-path="url(#clip0_6_523)">
<path d="M62.5 163.486C60.3 163.186 58.3 162.886 56.3 162.686C52.5 162.286 50.2 160.186 49.1 156.686C48.4 154.586 48.5 152.586 49.9 150.886C51.4 148.986 53.2 147.286 54.9 145.486C55.4 144.986 55.9 144.586 56.5 143.986C55.8 143.686 55.2 143.386 54.6 143.186C53.2 142.586 51.7 141.986 50.4 141.286C45.8 138.986 44.3 133.686 47.1 129.386C47.7 128.386 48.7 127.586 49.7 126.986C51.5 125.986 53.4 125.286 55.3 124.386C55.7 124.186 56.1 123.986 56.5 123.786C54.7 122.086 53 120.586 51.4 118.986C50 117.586 49 115.986 48.8 113.986C48.5 109.986 50.7 106.686 54.7 105.686C56.6 105.186 58.6 105.086 60.6 104.786C62.4 104.586 62.5 104.286 61.7 102.686C60.9 101.186 60 99.686 59.2 98.186C57.7 95.186 57.9 92.186 60 89.586C62.1 86.986 64.9 85.986 68.3 86.686C70.3 87.086 72.3 87.486 74.6 87.986C74.2 85.786 73.9 83.886 73.4 82.086C71.7 75.486 77.5 71.186 81.8 71.786C83.4 71.986 84.9 72.886 86.4 73.586C87.9 74.286 89.4 75.186 90.9 76.086C91.4 73.186 91.7 70.486 92.3 67.886C93.5 62.686 100.5 60.486 104.6 63.986C106.2 65.386 107.6 66.986 109.1 68.486C109.5 68.886 109.9 69.386 110.4 69.886C111.3 67.786 112.1 65.886 113 64.086C114.2 61.486 116.1 59.786 118.9 59.186C122.1 58.486 125.4 59.786 127.1 62.686C128.2 64.486 128.9 66.386 129.9 68.286C130.1 68.686 130.3 69.086 130.5 69.686C131.1 69.186 131.6 68.786 132.1 68.286C133.4 67.086 134.6 65.886 135.8 64.586C140.6 59.486 148.3 63.286 149.1 69.186C149.4 71.486 149.7 73.686 150 76.186C150.5 75.986 150.8 75.786 151.2 75.586C152.7 74.686 154.2 73.786 155.7 72.886C158.7 71.186 161.8 71.286 164.6 73.286C167.3 75.186 168.4 77.986 167.8 81.286C167.5 82.886 167.2 84.586 166.9 86.186C166.8 86.686 166.8 87.186 166.7 87.886C168.9 87.486 170.9 87.086 173 86.686C177.5 85.786 181.8 88.386 182.7 92.886C183 94.186 182.8 95.686 182.3 96.886C181.6 98.886 180.4 100.786 179.5 102.686C178.8 104.186 178.9 104.386 180.6 104.586C182.6 104.886 184.6 104.986 186.5 105.486C190.6 106.586 193.2 110.486 192.3 114.386C192 115.586 191.4 116.686 190.6 117.686C189.3 119.186 187.8 120.586 186.5 121.986C186 122.486 185.6 122.986 185 123.686C186.3 124.286 187.5 124.786 188.6 125.386C189.8 125.986 191 126.586 192.2 127.186C197.1 129.986 196.6 137.886 192 140.486C190.2 141.486 188.2 142.286 186.3 143.086C185.8 143.286 185.4 143.486 185 143.586C186.1 144.786 187.2 145.986 188.4 147.186C189.1 147.886 189.7 148.586 190.4 149.186C194.5 153.186 191.7 161.086 186.4 161.886C183.8 162.286 181.3 162.686 178.6 163.186C178.8 163.686 179.1 164.286 179.4 164.786C180.3 166.386 181.2 167.886 182 169.486C183.4 172.386 183.2 175.286 181.1 177.786C178.9 180.386 176.2 181.586 172.8 180.786C170.8 180.286 168.8 179.986 166.6 179.486C167.1 181.886 167.5 183.986 167.9 186.086C168.5 189.386 167.4 192.086 164.9 194.086C162.5 196.086 159.7 196.486 156.8 195.086C155.3 194.386 153.8 193.386 152.3 192.586C151.7 192.286 151 191.986 150.1 191.586C149.9 193.286 149.8 194.786 149.5 196.186C149.3 197.486 149.1 198.786 148.7 199.986C146.9 205.186 141.1 207.086 136.7 203.686C134.8 202.286 133.3 200.386 131.7 198.686C131.4 198.386 131.2 198.086 130.7 197.586C130 199.286 129.3 200.886 128.6 202.486C127.7 204.486 126.8 206.286 124.8 207.386C121.4 209.386 115.3 208.786 113.3 204.086C112.4 201.986 111.4 199.986 110.1 197.486C109.9 197.886 109.7 198.486 109.4 198.786C107.9 200.386 106.4 201.886 104.8 203.386C100.1 207.786 92.8 204.486 92 198.986C91.7 196.686 91.4 194.286 91 191.786C90.3 192.086 89.8 192.286 89.2 192.586C87.4 193.486 85.6 194.486 83.7 195.286C80.9 196.586 78.3 195.786 76 193.986C73.7 192.086 72.6 189.686 73.1 186.686C73.5 184.386 74 182.086 74.5 179.586C72.7 179.986 71.1 180.186 69.5 180.586C66.8 181.286 64.2 181.386 61.7 179.586C58.4 177.186 57.3 173.586 58.9 169.886C59.6 168.386 60.4 166.886 61.2 165.386C61.7 165.086 62 164.386 62.5 163.486ZM120.8 81.586C93.3 80.986 68.5 103.386 68.3 133.486C68.2 162.286 91.7 185.886 120.4 185.886C149.1 185.886 172.8 162.486 172.8 133.986C172.8 104.086 148.5 81.186 120.8 81.586Z" fill="white"/>
<path d="M20 234.686C27.8 226.886 35.4 219.286 43.2 211.586C42.5 210.986 41.9 210.486 41.3 209.886C39.7 208.386 38.7 206.686 38.5 204.486C37.6 194.886 36.7 185.386 35.8 175.786C35.7 174.486 35.8 173.086 35.9 171.786C36.2 168.986 37.9 167.186 40.4 166.286C41.6 165.786 42.8 165.486 44 165.286C45.2 164.986 46.3 165.286 47.3 166.086C48.4 166.886 49.7 167.486 50.9 168.286C51.3 168.586 51.8 169.186 51.8 169.586C51.4 172.986 51.7 176.286 52.8 179.586C52.8 179.686 52.8 179.886 52.8 180.186C49.5 180.486 46.2 180.886 42.7 181.186C42.9 183.586 42.9 185.886 43.1 188.086C43.3 190.286 43.6 192.486 43.8 194.686C43.9 195.886 44.3 196.286 45.5 196.186C52.5 195.686 59.6 195.286 66.6 194.786C67.5 194.686 67.9 194.986 68.4 195.686C72.1 201.086 77.2 203.386 83.7 202.686C85.6 202.486 85.6 202.486 86.5 204.186C88 206.986 90.3 209.186 93 210.686C93.8 211.086 94.6 211.486 95.6 211.986C79.1 228.186 62.8 244.286 46.2 260.686C46 259.086 45.9 257.786 45.8 256.486C45.3 250.286 44.7 244.086 44.3 237.886C44.2 236.886 43.9 236.586 42.9 236.486C35.7 235.986 28.5 235.386 21.3 234.786C20.9 234.886 20.6 234.786 20 234.686ZM50.3 238.686C51 237.986 51.5 237.586 51.9 237.186C56.9 232.286 61.9 227.386 66.9 222.386C71 218.286 75.1 214.086 79.1 209.986C79.7 209.386 80.2 208.586 81 207.686C80.3 207.686 80 207.686 79.8 207.686C74.4 208.386 69.1 209.186 63.7 209.986C62.8 210.086 61.8 210.386 61.2 210.986C55.7 216.386 50.2 221.986 44.7 227.486C43.7 228.486 42.8 229.486 41.7 230.586C42.4 230.686 42.8 230.786 43.2 230.886C44.8 231.086 46.4 231.286 48.1 231.286C49.2 231.286 49.6 231.886 49.7 232.886C49.9 234.686 50.1 236.486 50.3 238.686Z" fill="#E31616"/>
<path d="M220.4 234.786C218.1 234.986 216.2 235.186 214.3 235.386C209.1 235.786 203.8 236.286 198.6 236.686C196.4 236.886 196.4 236.886 196.2 239.186C195.6 245.886 195 252.686 194.5 259.386C194.5 259.786 194.4 260.286 194.3 260.686C194.2 260.786 194.1 260.786 193.9 260.886C177.8 244.686 161.7 228.486 145.5 212.186C146 211.886 146.5 211.586 147 211.386C150.3 209.886 152.9 207.486 154.6 204.186C155.2 202.986 155.9 202.586 157.3 202.786C163.9 203.486 169.2 201.186 172.9 195.586C173.4 194.886 173.9 194.786 174.6 194.886C181.3 195.286 188.1 195.686 194.8 196.186C196.1 196.286 196.6 195.886 196.7 194.586C197 190.686 197.4 186.786 197.7 182.886C197.8 181.186 197.8 181.186 196 180.986C193.8 180.786 191.5 180.486 189.3 180.286C189.1 180.286 188.8 180.186 188.5 180.186C188.5 179.786 188.5 179.486 188.6 179.186C189.5 176.386 189.6 173.586 189.4 170.786C189.3 169.386 189.6 168.386 191.1 167.886C191.9 167.586 192.7 167.086 193.3 166.486C194.5 165.486 195.8 165.086 197.3 165.586C198.8 166.086 200.3 166.486 201.7 167.286C203.7 168.486 204.9 170.286 204.8 172.686C204.6 177.486 204.4 182.386 204 187.186C203.6 192.486 202.9 197.786 202.3 203.086C202.2 204.086 202 205.086 201.8 206.086C201.4 207.886 200.6 209.486 198.9 210.386C198.4 210.686 198.1 210.986 197.4 211.486C204.9 219.186 212.5 226.886 220.4 234.786ZM159.6 207.586C159.5 207.686 159.4 207.786 159.4 207.886C169.2 218.486 179.6 228.486 190.1 238.886C190.3 237.386 190.4 236.286 190.6 235.086C191.1 230.686 190.2 231.486 194.7 231.086C196 230.986 197.2 230.786 198.7 230.686C198.4 230.286 198.3 230.086 198.2 229.986C191.8 223.586 185.5 217.086 179.1 210.686C178.8 210.386 178.2 210.186 177.8 210.086C173.9 209.486 170 208.986 166.2 208.386C163.9 208.086 161.7 207.886 159.6 207.586Z" fill="#E31616"/>
<path d="M127.4 121.186C129.5 121.186 131.6 121.086 133.6 121.186C137.1 121.386 140.7 121.586 144.2 121.886C146.2 122.086 147.9 122.886 148.5 124.986C149.2 127.186 148.4 128.986 146.8 130.386C146 131.086 146.1 131.586 146.5 132.286C147 133.286 147.5 134.286 147.7 135.386C147.9 136.086 147.8 136.986 147.5 137.586C146.3 139.486 146.5 141.586 146.5 143.686C146.5 144.686 145.9 145.686 145.7 146.786C145.6 147.386 145.3 148.186 145.6 148.786C146.9 152.286 146.3 154.286 142.8 155.786C138.3 157.786 133.7 159.286 128.7 159.086C125.9 158.886 123 158.986 120.2 158.686C118.4 158.486 116.6 157.786 114.8 157.186C113.3 156.686 111.9 156.686 110.4 157.086C107.2 157.886 104 158.686 100.7 159.486C100.6 158.986 100.4 158.586 100.4 158.086C100.3 150.886 100.3 143.686 100.3 136.386C100.3 135.986 100.6 135.386 100.9 135.286C102.7 134.586 104 133.286 105.1 131.886C107.8 128.586 109.7 124.786 111.3 120.786C111.8 119.686 112.2 118.586 112.8 117.586C113.4 116.786 114 115.786 114.9 115.386C121.4 112.386 124 106.686 125.9 100.386C126.3 99.1859 126.6 97.9859 127 96.7859C127.3 95.9859 127.9 95.5859 128.8 95.9859C129.9 96.4859 131.2 96.6859 132.1 97.3859C133 97.9859 133.8 98.8859 134.2 99.8859C135.5 103.386 135 106.986 133.8 110.386C132.6 113.986 130.6 117.186 128 119.986C127.7 120.286 127.5 120.586 127.3 120.886C127.4 120.786 127.4 120.986 127.4 121.186Z" fill="white"/>
<path d="M97.6 133.886C97.6 142.886 97.6 151.686 97.6 160.686C94.8 160.686 92 160.686 89 160.686C89 160.286 89 159.886 89 159.486C89 151.386 89 143.386 89 135.286C89 134.186 89.2 133.786 90.4 133.886C92.7 133.986 95 133.886 97.6 133.886Z" fill="white"/>
</g>
<defs>
<clipPath id="clip0_6_523">
<rect width="200.4" height="201.9" fill="white" transform="translate(20 59)"/>
</clipPath>
</defs>
</svg>
