<svg width="168" height="38" viewBox="0 0 168 38" fill="none" xmlns="http://www.w3.org/2000/svg">
<rect x="1" y="1" width="166" height="36" rx="2" stroke="#BB0101"/>
<path d="M63.5639 19.2832C63.5639 20.2585 63.3953 21.1152 63.058 21.8535C62.7208 22.5872 62.2377 23.1523 61.6088 23.5488C60.9845 23.9408 60.2644 24.1367 59.4487 24.1367C58.642 24.1367 57.922 23.9408 57.2885 23.5488C56.6596 23.1523 56.172 22.5895 55.8256 21.8604C55.4838 21.1312 55.3106 20.2904 55.3061 19.3379V18.7773C55.3061 17.8066 55.477 16.9499 55.8188 16.207C56.1651 15.4642 56.6505 14.8968 57.2748 14.5049C57.9037 14.1084 58.6238 13.9102 59.435 13.9102C60.2462 13.9102 60.964 14.1061 61.5883 14.498C62.2172 14.8854 62.7026 15.446 63.0444 16.1797C63.3862 16.9089 63.5593 17.7588 63.5639 18.7295V19.2832ZM61.8344 18.7637C61.8344 17.6608 61.6248 16.8154 61.2055 16.2275C60.7908 15.6396 60.2006 15.3457 59.435 15.3457C58.6876 15.3457 58.102 15.6396 57.6781 16.2275C57.2589 16.8109 57.0447 17.638 57.0356 18.709V19.2832C57.0356 20.377 57.2475 21.2223 57.6713 21.8193C58.0997 22.4163 58.6921 22.7148 59.4487 22.7148C60.2143 22.7148 60.8022 22.4232 61.2123 21.8398C61.627 21.2565 61.8344 20.4043 61.8344 19.2832V18.7637ZM72.0501 15.4414H68.9465V24H67.2307V15.4414H64.1546V14.0469H72.0501V15.4414ZM75.7647 14.0469L78.6358 21.6758L81.5001 14.0469H83.7355V24H82.0128V20.7188L82.1837 16.3301L79.2442 24H78.0069L75.0743 16.3369L75.2452 20.7188V24H73.5226V14.0469H75.7647ZM91.7636 19.5566H87.6757V22.6191H92.454V24H85.9462V14.0469H92.4062V15.4414H87.6757V18.1895H91.7636V19.5566ZM101.925 24H100.202V19.5771H95.7517V24H94.0222V14.0469H95.7517V18.1895H100.202V14.0469H101.925V24ZM109.83 21.6826H105.974L105.168 24H103.37L107.13 14.0469H108.681L112.448 24H110.643L109.83 21.6826ZM106.46 20.2881H109.344L107.902 16.1592L106.46 20.2881Z" fill="#BB0101"/>
</svg>
