<svg width="290" height="74" viewBox="0 0 290 74" fill="none" xmlns="http://www.w3.org/2000/svg">
<rect width="290" height="74" fill="#0971AB"/>
<rect x="18" y="9" width="258" height="56" rx="4" fill="white"/>
<path d="M101.319 42H99.5966V33.4414H95.2148V42H93.4921V32.0469H101.319V42ZM111.514 37.2832C111.514 38.2585 111.346 39.1152 111.009 39.8535C110.671 40.5872 110.188 41.1523 109.559 41.5488C108.935 41.9408 108.215 42.1367 107.399 42.1367C106.593 42.1367 105.873 41.9408 105.239 41.5488C104.61 41.1523 104.123 40.5895 103.776 39.8604C103.434 39.1312 103.261 38.2904 103.257 37.3379V36.7773C103.257 35.8066 103.428 34.9499 103.769 34.207C104.116 33.4642 104.601 32.8968 105.225 32.5049C105.854 32.1084 106.574 31.9102 107.386 31.9102C108.197 31.9102 108.915 32.1061 109.539 32.498C110.168 32.8854 110.653 33.446 110.995 34.1797C111.337 34.9089 111.51 35.7588 111.514 36.7295V37.2832ZM109.785 36.7637C109.785 35.6608 109.575 34.8154 109.156 34.2275C108.741 33.6396 108.151 33.3457 107.386 33.3457C106.638 33.3457 106.053 33.6396 105.629 34.2275C105.209 34.8109 104.995 35.638 104.986 36.709V37.2832C104.986 38.377 105.198 39.2223 105.622 39.8193C106.05 40.4163 106.643 40.7148 107.399 40.7148C108.165 40.7148 108.753 40.4232 109.163 39.8398C109.578 39.2565 109.785 38.4043 109.785 37.2832V36.7637ZM121.006 32.0469V42H119.283V33.4414H116.234L116.056 37.29C115.988 38.4932 115.84 39.4274 115.612 40.0928C115.389 40.7536 115.063 41.2367 114.634 41.542C114.206 41.8473 113.632 42 112.912 42H112.474V40.6191L112.748 40.5986C113.144 40.5622 113.45 40.4232 113.664 40.1816C113.882 39.9401 114.047 39.5755 114.156 39.0879C114.27 38.5957 114.35 37.8734 114.395 36.9209L114.587 32.0469H121.006ZM126.833 37.249L128.829 32.0469H130.749L127.284 40.3047L126.969 40.9268C126.513 41.738 125.775 42.1436 124.754 42.1436L124.043 42.1025L124.057 40.7354C124.166 40.7536 124.36 40.7627 124.638 40.7627C125.13 40.7627 125.477 40.5531 125.677 40.1338L126.033 39.293L122.628 32.0469H124.515L126.833 37.249ZM139.844 32.0469V42H138.121V38.083C137.383 38.2699 136.613 38.3633 135.811 38.3633C134.621 38.3633 133.721 38.1012 133.111 37.5771C132.5 37.0531 132.192 36.2624 132.188 35.2051V32.0469H133.91V35.2188C133.915 35.8522 134.061 36.3034 134.348 36.5723C134.635 36.8411 135.123 36.9756 135.811 36.9756C136.604 36.9756 137.374 36.8799 138.121 36.6885V32.0469H139.844ZM148.18 32.0469H149.909V42H148.18V34.9111L143.812 42H142.082V32.0469H143.812V39.1426L148.18 32.0469ZM159.127 33.4414H156.023V42H154.308V33.4414H151.231V32.0469H159.127V33.4414ZM162.411 35.8545H164.448C165.177 35.8545 165.813 35.9798 166.355 36.2305C166.898 36.4811 167.31 36.8366 167.593 37.2969C167.875 37.7572 168.016 38.2904 168.016 38.8965C168.016 39.8262 167.7 40.5736 167.066 41.1387C166.437 41.7038 165.578 41.9909 164.489 42H160.681V32.0469H162.411V35.8545ZM162.411 37.2422V40.6191H164.441C165.025 40.6191 165.478 40.4619 165.802 40.1475C166.13 39.8285 166.294 39.4069 166.294 38.8828C166.294 38.3815 166.134 37.985 165.815 37.6934C165.496 37.4017 165.054 37.2513 164.489 37.2422H162.411ZM176.266 37.7344H175.09V42H173.368V32.0469H175.09V36.2305H176.041L178.966 32.0469H181.085L177.668 36.8115L181.386 42H179.308L176.266 37.7344ZM190.228 37.2832C190.228 38.2585 190.059 39.1152 189.722 39.8535C189.385 40.5872 188.902 41.1523 188.273 41.5488C187.648 41.9408 186.928 42.1367 186.113 42.1367C185.306 42.1367 184.586 41.9408 183.952 41.5488C183.324 41.1523 182.836 40.5895 182.49 39.8604C182.148 39.1312 181.975 38.2904 181.97 37.3379V36.7773C181.97 35.8066 182.141 34.9499 182.483 34.207C182.829 33.4642 183.314 32.8968 183.939 32.5049C184.568 32.1084 185.288 31.9102 186.099 31.9102C186.91 31.9102 187.628 32.1061 188.252 32.498C188.881 32.8854 189.367 33.446 189.708 34.1797C190.05 34.9089 190.223 35.7588 190.228 36.7295V37.2832ZM188.498 36.7637C188.498 35.6608 188.289 34.8154 187.869 34.2275C187.455 33.6396 186.865 33.3457 186.099 33.3457C185.352 33.3457 184.766 33.6396 184.342 34.2275C183.923 34.8109 183.709 35.638 183.7 36.709V37.2832C183.7 38.377 183.911 39.2223 184.335 39.8193C184.764 40.4163 185.356 40.7148 186.113 40.7148C186.878 40.7148 187.466 40.4232 187.876 39.8398C188.291 39.2565 188.498 38.4043 188.498 37.2832V36.7637ZM201.031 44.4473H199.391V42H192.835V44.4473H191.167L191.113 40.6191H191.912C192.309 40.2363 192.626 39.6803 192.863 38.9512C193.099 38.2174 193.252 37.388 193.321 36.4629L193.58 32.0469H199.856V40.6191H201.12L201.031 44.4473ZM193.867 40.6191H198.133V33.4414H195.228L195.064 36.2441C194.941 38.1172 194.542 39.5755 193.867 40.6191Z" fill="#0F85C8"/>
</svg>
