<svg width="68" height="68" viewBox="0 0 68 68" fill="none" xmlns="http://www.w3.org/2000/svg">
<path d="M52.875 0H14.625C6.54784 0 0 6.55808 0 14.6479V52.9577C0 61.0476 6.54784 67.6056 14.625 67.6056H52.875C60.9522 67.6056 67.5 61.0476 67.5 52.9577V14.6479C67.5 6.55808 60.9522 0 52.875 0Z" fill="url(#paint0_linear_3440_2)"/>
<path d="M35.4421 17.6371C35.9779 17.9751 36.5058 18.3106 37.0356 18.6416C38.7287 19.7002 40.422 20.7582 42.1154 21.8156C43.9361 22.9539 45.7565 24.0923 47.5765 25.2306C48.9651 26.0995 50.3542 26.9668 51.7373 27.8422C51.9436 27.9819 52.1878 28.0548 52.4369 28.0511C53.5081 28.039 54.5793 28.0461 55.651 28.0466C55.9905 28.0466 56.0026 28.0571 56.0026 28.4016C56.0026 33.2721 56.0026 38.1426 56.0026 43.0131C56.0026 46.2273 56.001 49.4414 55.998 52.6556C55.998 52.9936 55.998 52.9966 55.6465 52.9966C52.131 52.9966 48.6156 52.9975 45.1001 52.9991C40.757 52.9991 36.4137 53.0005 32.0702 53.0032C25.2151 53.0015 18.3607 52.9993 11.5073 52.9966C10.9297 52.9966 11.0076 53.0368 11.005 52.5035C11.002 51.5578 11.005 50.6121 11.005 49.6664C11.005 44.2114 11.005 38.7561 11.005 33.3007V32.9783C11.0774 32.9713 11.1401 32.9597 11.2029 32.9597C17.3369 32.9597 23.4709 32.9597 29.6049 32.9597C35.0622 32.9597 40.5184 32.9597 45.9734 32.9597C46.439 32.9597 46.7046 32.7589 46.7207 32.3993C46.7348 32.0979 46.561 31.8619 46.2647 31.7966C46.1583 31.7753 46.0498 31.7656 45.9413 31.7675C40.2161 31.7675 34.4919 31.7675 28.7687 31.7675H11.3702H11.005V31.4882C11.005 30.4421 11.0106 29.396 11.001 28.3499C10.9985 28.1159 11.0864 28.0405 11.3094 28.0415C12.4641 28.0479 13.6192 28.0479 14.7746 28.0415C14.8808 28.0399 14.9847 28.0104 15.076 27.9562C16.7031 26.9517 18.3283 25.9428 19.9514 24.9293C21.4882 23.9676 23.0149 22.9928 24.5527 22.0295C26.605 20.7442 28.6591 19.4598 30.7148 18.1765C30.997 17.9997 31.2788 17.8215 31.5851 17.6286C31.5017 17.5638 31.438 17.5171 31.3772 17.4669C30.6369 16.8507 30.2291 16.0642 30.191 15.0984C30.1709 14.5847 30.4923 14.2165 30.9578 14.1889C31.4234 14.1613 31.7925 14.5058 31.8237 15.0332C31.8648 15.7247 32.2169 16.1882 32.8436 16.4484C33.8712 16.8763 35.0725 16.2083 35.1779 15.1562C35.2462 14.4782 34.8369 13.8298 34.1569 13.5687C33.6045 13.3553 33.1661 13.0037 32.9069 12.4714C32.7875 12.2328 32.7191 11.9719 32.706 11.7055C32.6824 10.7432 32.6905 9.78098 32.6965 8.81823C32.6995 8.32104 33.0119 8.00866 33.4885 8.00113C33.957 7.99309 34.296 8.30246 34.3056 8.78961C34.3217 9.65141 34.3126 10.5137 34.3141 11.3755C34.3141 11.7723 34.3915 11.9028 34.752 12.0445C36.0036 12.5356 36.8834 13.7661 36.8051 15.1858C36.7549 16.0868 36.3641 16.818 35.6867 17.4036C35.6168 17.4639 35.5465 17.5231 35.4767 17.5829C35.4642 17.6003 35.4527 17.6185 35.4421 17.6371ZM18.0425 28.0265H48.9616C48.5427 27.7653 48.1892 27.5469 47.8371 27.3264L39.9524 22.3901C37.8565 21.0783 35.7613 19.766 33.6668 18.4532C33.5367 18.3714 33.4463 18.3885 33.3283 18.4628C31.7102 19.4786 30.0897 20.4926 28.4669 21.5047C27.7944 21.9251 27.1205 22.3424 26.448 22.7628C24.6153 23.9098 22.7822 25.0574 20.9488 26.2054L18.0425 28.0265ZM15.9523 42.1719H15.9739V48.6002C15.9739 49.0151 16.2094 49.2953 16.5625 49.2993C16.9301 49.3038 17.1757 49.0221 17.1757 48.5962V35.9459C17.1757 35.8455 17.1807 35.745 17.1717 35.6446C17.1416 35.2975 16.897 35.058 16.5761 35.054C16.2637 35.0505 16.0071 35.3006 15.9824 35.6476C15.9644 35.8987 15.9553 36.1498 15.9548 36.4009C15.9518 38.3244 15.951 40.2481 15.9523 42.1719ZM49.8259 42.1719C49.8259 44.23 49.8259 46.289 49.8259 48.3491C49.8203 48.5158 49.8318 48.6825 49.86 48.8468C49.8781 48.9307 49.9148 49.0094 49.9674 49.0772C50.02 49.145 50.0872 49.2001 50.1639 49.2384C50.2407 49.2768 50.3251 49.2974 50.4109 49.2987C50.4967 49.3 50.5816 49.282 50.6595 49.2461C50.9433 49.12 51.0176 48.8775 51.0171 48.5892C51.0171 45.7276 51.0171 42.8663 51.0171 40.0053C51.0171 38.575 51.0171 37.1449 51.0171 35.7149C51.0171 35.4432 50.9167 35.2242 50.659 35.1057C50.43 35.0002 50.188 35.0253 50.0398 35.2157C49.9152 35.3769 49.8433 35.5726 49.8339 35.7762C49.8204 37.9081 49.8259 40.0395 49.8259 42.1739V42.1719ZM23.9425 42.1719H23.947C23.947 41.7283 23.947 41.2848 23.947 40.8415C23.947 39.136 23.947 37.4301 23.947 35.7239C23.947 35.4367 23.7823 35.1715 23.5523 35.0851C23.3222 34.9987 23.0285 35.069 22.8994 35.2755C22.8076 35.4225 22.7557 35.5909 22.7487 35.7641C22.7392 37.0272 22.7487 38.2903 22.7487 39.5533C22.7487 42.5737 22.7487 45.594 22.7487 48.6143C22.7512 48.7631 22.7916 48.9089 22.8662 49.0377C22.9988 49.2627 23.2841 49.348 23.5272 49.2737C23.7627 49.2014 23.937 48.9437 23.937 48.6474C23.9416 46.4889 23.9435 44.3304 23.9425 42.1719ZM30.7088 42.1719C30.7088 40.0221 30.7088 37.8721 30.7088 35.7219C30.7088 35.3166 30.4732 35.058 30.1202 35.0565C29.7671 35.055 29.5281 35.3186 29.5281 35.7204C29.5281 40.0201 29.5281 44.3199 29.5281 48.6198C29.5281 49.0331 29.75 49.2923 30.1036 49.2978C30.4692 49.3038 30.7062 49.0387 30.7062 48.6233C30.7083 46.4718 30.7091 44.3214 30.7088 42.1719ZM37.4655 42.1814H37.4715V40.273C37.4715 38.7429 37.4715 37.2125 37.4715 35.6817C37.4715 35.2724 37.2114 35.0213 36.8332 35.0545C36.5028 35.0831 36.2999 35.3443 36.2999 35.747C36.2999 39.7698 36.2999 43.7925 36.2999 47.8153C36.2999 48.0995 36.2999 48.3838 36.3079 48.669C36.3209 49.0427 36.5761 49.2978 36.9151 49.2903C37.2541 49.2827 37.4675 49.0392 37.4675 48.654L37.4655 42.1814ZM43.0707 42.1458C43.0707 44.2199 43.0707 46.2944 43.0707 48.3692C43.0707 48.5199 43.034 48.6906 43.0927 48.8152C43.1716 48.9829 43.3007 49.1597 43.4563 49.2511C43.6407 49.3591 43.8581 49.3048 44.0379 49.1547C44.2313 48.9905 44.2508 48.7735 44.2508 48.541C44.2488 44.2912 44.2488 40.0418 44.2508 35.7927C44.2508 35.7259 44.2539 35.6586 44.2473 35.5918C44.2321 35.4452 44.163 35.3094 44.0534 35.2107C43.9439 35.112 43.8017 35.0574 43.6542 35.0575C43.2946 35.0575 43.0722 35.3171 43.0722 35.7465C43.0705 37.8796 43.07 40.0127 43.0707 42.1458Z" fill="white"/>
<defs>
<linearGradient id="paint0_linear_3440_2" x1="33.75" y1="0" x2="33.75" y2="67.6056" gradientUnits="userSpaceOnUse">
<stop stop-color="#006DAA"/>
<stop offset="1" stop-color="#0F85C8"/>
</linearGradient>
</defs>
</svg>
