<svg width="258" height="44" viewBox="0 0 258 44" fill="none" xmlns="http://www.w3.org/2000/svg">
<g clip-path="url(#clip0_1_1959)">
<path d="M26.2609 31.3122C25.3325 31.3122 24.603 30.4222 24.603 29.2895V6.95951L14.9872 18.8122C14.6889 19.2167 14.2246 19.4999 13.8268 19.419C13.3957 19.419 12.9647 19.1763 12.6331 18.8122L3.31578 7.04041V29.2895C3.31578 30.4222 2.5863 31.3122 1.65788 31.3122C0.729469 31.3122 0 30.4222 0 29.2895V2.02425C0 1.2152 0.397893 0.446591 1.02789 0.16342C1.65788 -0.160202 2.38736 0.0420624 2.85157 0.608402L13.8268 14.4838L25.1004 0.608402C25.5645 0.0420624 26.294 -0.160202 26.9241 0.16342C27.5209 0.487043 27.9187 1.2152 27.9187 2.02425V29.2895C27.9187 30.4222 27.1893 31.3122 26.2609 31.3122ZM80.2417 30.3008C80.8716 29.4918 80.8053 28.1972 80.1421 27.4287L60.7118 5.82683C60.0486 5.05821 58.9875 5.13912 58.3576 5.94819C57.7275 6.75724 57.7939 8.05173 58.457 8.82033L77.8875 30.4222C78.2189 30.7863 78.617 30.948 79.0148 30.948C79.4458 30.948 79.9101 30.7458 80.2417 30.3008ZM60.7118 30.4222L80.1421 8.82033C80.8053 8.05173 80.8716 6.79769 80.2417 5.94819C79.6116 5.13912 78.5837 5.05821 77.8875 5.82683L58.457 27.4287C57.7939 28.1972 57.7275 29.4512 58.3576 30.3008C58.6892 30.7458 59.1202 30.948 59.5844 30.948C59.9823 30.948 60.3801 30.7863 60.7118 30.4222ZM124.938 42.3154C125.568 41.5063 125.502 40.2118 124.839 39.4431L105.408 17.8414C104.745 17.0727 103.684 17.1536 103.054 17.9627C102.424 18.7718 102.49 20.0663 103.154 20.8348L122.584 42.4367C122.916 42.8007 123.313 42.9626 123.711 42.9626C124.176 42.9626 124.64 42.7603 124.938 42.3154ZM105.408 42.4367L124.839 20.8348C125.502 20.0663 125.568 18.8122 124.938 17.9627C124.308 17.1536 123.28 17.0727 122.584 17.8414L103.154 39.4431C102.49 40.2118 102.424 41.4658 103.054 42.3154C103.386 42.7603 103.817 42.9626 104.281 42.9626C104.712 42.9626 105.11 42.8007 105.408 42.4367ZM131.669 40.9399V32.1616H146.955C147.055 32.1616 147.188 32.1616 147.287 32.1212C148.745 31.7571 151.53 29.9367 151.53 25.77C151.53 20.7539 148.579 18.8122 146.723 18.4076H130.011C129.083 18.4076 128.353 19.2976 128.353 20.4303C128.353 21.563 129.083 22.453 130.011 22.453L146.425 22.4124C146.491 22.4124 148.216 22.8575 148.216 25.7296C148.216 27.3478 147.188 27.914 146.723 28.0759H130.011C129.083 28.0759 128.353 28.9659 128.353 30.0986V40.8995C128.353 42.0322 129.083 42.922 130.011 42.922C130.94 42.922 131.669 42.0322 131.669 40.9399ZM157.863 40.9399V32.1616H173.149C173.248 32.1616 173.381 32.1616 173.481 32.1212C174.94 31.7571 177.725 29.9367 177.725 25.77C177.725 20.7539 174.775 18.8122 172.917 18.4076H156.205C155.278 18.4076 154.547 19.2976 154.547 20.4303C154.547 21.563 155.278 22.453 156.205 22.453L172.618 22.4124C172.685 22.4124 174.409 22.8575 174.409 25.7296C174.409 27.3478 173.381 27.914 172.917 28.0759H156.205C155.278 28.0759 154.547 28.9659 154.547 30.0986V40.8995C154.547 42.0322 155.278 42.922 156.205 42.922C157.134 42.922 157.863 42.0322 157.863 40.9399ZM177.725 40.9399V36.1664C177.693 35.7215 177.461 33.3752 176.598 31.9594C174.94 29.249 172.022 28.2782 171.691 28.1972C170.795 27.914 169.9 28.6018 169.668 29.6535C169.435 30.7458 169.966 31.838 170.861 32.1212C171.459 32.3235 173.149 33.092 173.945 34.3866C174.145 34.7102 174.377 35.8428 174.442 36.3687V40.9399C174.442 42.0726 175.173 42.9626 176.1 42.9626C177.029 42.9626 177.725 42.0322 177.725 40.9399ZM204.682 40.9399C204.682 39.8072 203.953 38.9172 203.024 38.9172H184.854V32.1616H203.024C203.953 32.1616 204.682 31.2716 204.682 30.139C204.682 29.0063 203.953 28.1163 203.024 28.1163H183.196C182.268 28.1163 181.538 29.0063 181.538 30.139V40.9399C181.538 42.0726 182.268 42.9626 183.196 42.9626H203.024C203.953 42.9626 204.682 42.0322 204.682 40.9399ZM204.682 20.4707C204.682 19.338 203.953 18.4482 203.024 18.4482H183.196C182.268 18.4482 181.538 19.338 181.538 20.4707C181.538 21.6035 182.268 22.4934 183.196 22.4934H203.024C203.953 22.4934 204.682 21.563 204.682 20.4707ZM106.071 24.5566C106.071 23.4238 105.342 22.5339 104.414 22.5339H79.2137C78.2854 22.5339 77.5559 23.4238 77.5559 24.5566C77.5559 25.6892 78.2854 26.5791 79.2137 26.5791H104.414C105.342 26.5791 106.071 25.6892 106.071 24.5566ZM106.071 37.2991C106.071 36.1664 105.342 35.2766 104.414 35.2766H1.65788C0.729469 35.2766 0 36.1664 0 37.2991C0 38.4318 0.729469 39.3218 1.65788 39.3218H104.414C105.342 39.3218 106.071 38.4318 106.071 37.2991ZM257.503 12.1375C257.503 11.0048 256.774 10.1148 255.845 10.1148H80.2417C79.3133 10.1148 78.5837 11.0048 78.5837 12.1375C78.5837 13.2701 79.3133 14.1602 80.2417 14.1602H255.845C256.774 14.1602 257.503 13.2701 257.503 12.1375ZM33.3898 30.4626L37.4019 23.626H49.4381C50.3665 23.626 51.096 22.7362 51.096 21.6035C51.096 20.4707 50.3665 19.5808 49.4381 19.5808H36.573C36.0425 19.5808 35.5451 19.9044 35.2135 20.4303L30.704 28.1163C30.1735 29.0063 30.3393 30.3008 31.1019 30.948C31.4004 31.1908 31.732 31.3122 32.0634 31.3122C32.5608 31.3122 33.0914 31.029 33.3898 30.4626ZM55.3071 30.9886C56.0696 30.3818 56.2686 29.1276 55.7712 28.1972L44.4313 7.28312C43.934 6.35271 42.9061 6.10999 42.1435 6.71679C41.3808 7.32357 41.1818 8.57761 41.6792 9.50803L53.0191 30.3818C53.3507 30.9886 53.8813 31.2716 54.4118 31.2716C54.7103 31.3122 55.0086 31.1908 55.3071 30.9886ZM226.699 42.8412C228.291 42.2344 230.977 40.2118 231.142 36.2474C231.308 32.0403 229.185 29.694 227.925 28.9659C227.695 28.8446 227.462 28.7636 227.23 28.7636H212.043C211.512 28.5208 210.286 27.7927 210.353 25.9723C210.452 23.626 211.48 22.9384 211.878 22.7362H227.362C227.462 22.817 227.628 22.9384 227.695 23.1002C227.76 23.343 227.794 24.1115 227.76 24.6779C227.661 25.77 228.323 26.7814 229.219 26.9027C230.114 27.0242 230.944 26.2555 231.043 25.1228C231.11 24.5566 231.241 22.6147 230.678 21.2394C229.849 19.2572 228.224 18.7312 228.026 18.6908C227.893 18.6504 227.794 18.6504 227.661 18.6504L211.347 18.6908C209.955 19.0144 207.235 20.9158 207.069 25.7296C206.904 30.139 209.854 32.202 211.413 32.6875C211.546 32.728 211.678 32.7684 211.811 32.7684H226.766C227.196 33.173 227.925 34.1034 227.86 36.0047C227.794 37.7442 226.467 38.5936 225.936 38.8363H211.512C211.512 38.8363 210.684 38.7555 210.419 38.0678C210.22 37.5419 210.22 36.6923 210.252 36.2878C210.353 35.1956 209.723 34.1843 208.827 34.0224C207.932 33.9011 207.103 34.6698 206.97 35.7619C206.938 35.9642 206.771 37.9464 207.368 39.6454C208.23 42.0726 210.286 42.7603 211.413 42.8412H226.202C226.4 42.9626 226.566 42.922 226.699 42.8412ZM253.557 42.8412C255.148 42.2344 257.834 40.2118 258 36.2474C258.166 32.0403 256.043 29.694 254.783 28.9659C254.551 28.8446 254.32 28.7636 254.088 28.7636H238.901C238.437 28.5614 237.144 27.8332 237.211 25.9723C237.31 23.626 238.338 22.9384 238.736 22.7362H254.22C254.32 22.817 254.486 22.9384 254.551 23.1002C254.618 23.343 254.651 24.1115 254.617 24.6779C254.518 25.77 255.181 26.7814 256.077 26.9027C257.005 27.0242 257.802 26.2555 257.901 25.1228C257.967 24.5566 258.099 22.6147 257.503 21.2798C256.673 19.2976 255.049 18.7718 254.85 18.7312C254.718 18.6908 254.617 18.6908 254.486 18.6908L238.172 18.7312C236.779 19.055 234.06 20.9562 233.895 25.77C233.729 30.1795 236.68 32.2426 238.239 32.728C238.37 32.7684 238.503 32.8088 238.636 32.8088H253.59C254.021 33.2134 254.751 34.1438 254.684 36.0451C254.617 37.7846 253.292 38.634 252.761 38.8768H238.338C238.338 38.8768 237.508 38.7959 237.243 38.1082C237.078 37.6228 237.078 36.7732 237.11 36.3687C237.211 35.2766 236.581 34.2652 235.652 34.1034C234.79 33.982 233.927 34.7506 233.796 35.8832C233.762 36.0855 233.596 38.0678 234.193 39.7668C235.054 42.1939 237.11 42.8816 238.239 42.9626H253.026C253.226 42.9626 253.391 42.922 253.557 42.8412Z" fill="white"/>
</g>
<defs>
<clipPath id="clip0_1_1959">
<rect width="258" height="44" fill="white"/>
</clipPath>
</defs>
</svg>
