<svg width="360" height="55" viewBox="0 0 360 55" fill="none" xmlns="http://www.w3.org/2000/svg">
<path fill-rule="evenodd" clip-rule="evenodd" d="M0 0H360V48H0V0Z" fill="#A5AFB8"/>
<path fill-rule="evenodd" clip-rule="evenodd" d="M0 0H180V48H0V0Z" fill="#7E8C99"/>
<path d="M62.7451 22.2031V23.5635H57.4609V22.2031H62.7451ZM57.8848 18.0469V28H56.1689V18.0469H57.8848ZM64.0645 18.0469V28H62.3555V18.0469H64.0645ZM74.0449 22.75V23.2969C74.0449 24.0488 73.9469 24.7233 73.751 25.3203C73.555 25.9173 73.2747 26.4255 72.9102 26.8447C72.5501 27.264 72.1172 27.5853 71.6113 27.8086C71.1055 28.0273 70.5449 28.1367 69.9297 28.1367C69.319 28.1367 68.7607 28.0273 68.2549 27.8086C67.7536 27.5853 67.3184 27.264 66.9492 26.8447C66.5801 26.4255 66.293 25.9173 66.0879 25.3203C65.8874 24.7233 65.7871 24.0488 65.7871 23.2969V22.75C65.7871 21.998 65.8874 21.3258 66.0879 20.7334C66.2884 20.1364 66.571 19.6283 66.9355 19.209C67.3047 18.7852 67.7399 18.4639 68.2412 18.2451C68.7471 18.0218 69.3053 17.9102 69.916 17.9102C70.5312 17.9102 71.0918 18.0218 71.5977 18.2451C72.1035 18.4639 72.5387 18.7852 72.9033 19.209C73.2679 19.6283 73.5482 20.1364 73.7441 20.7334C73.9447 21.3258 74.0449 21.998 74.0449 22.75ZM72.3291 23.2969V22.7363C72.3291 22.1803 72.2744 21.6904 72.165 21.2666C72.0602 20.8382 71.903 20.4805 71.6934 20.1934C71.4883 19.9017 71.2354 19.6829 70.9346 19.5371C70.6338 19.3867 70.2943 19.3115 69.916 19.3115C69.5378 19.3115 69.2005 19.3867 68.9043 19.5371C68.6081 19.6829 68.3551 19.9017 68.1455 20.1934C67.9404 20.4805 67.7832 20.8382 67.6738 21.2666C67.5645 21.6904 67.5098 22.1803 67.5098 22.7363V23.2969C67.5098 23.8529 67.5645 24.3451 67.6738 24.7734C67.7832 25.2018 67.9427 25.5641 68.1523 25.8604C68.3665 26.152 68.6217 26.373 68.918 26.5234C69.2142 26.6693 69.5514 26.7422 69.9297 26.7422C70.3125 26.7422 70.652 26.6693 70.9482 26.5234C71.2445 26.373 71.4951 26.152 71.7002 25.8604C71.9053 25.5641 72.0602 25.2018 72.165 24.7734C72.2744 24.3451 72.3291 23.8529 72.3291 23.2969ZM79.4932 23.502H76.957L76.9434 22.251H79.1582C79.5319 22.251 79.8486 22.1963 80.1084 22.0869C80.3727 21.973 80.5732 21.8112 80.71 21.6016C80.8467 21.3874 80.915 21.1299 80.915 20.8291C80.915 20.4964 80.8512 20.2253 80.7236 20.0156C80.596 19.806 80.4001 19.6533 80.1357 19.5576C79.876 19.4619 79.5433 19.4141 79.1377 19.4141H77.4766V28H75.7607V18.0469H79.1377C79.6846 18.0469 80.1722 18.0993 80.6006 18.2041C81.0335 18.3089 81.4004 18.473 81.7012 18.6963C82.0065 18.915 82.2367 19.193 82.3916 19.5303C82.5511 19.8675 82.6309 20.2686 82.6309 20.7334C82.6309 21.1436 82.5329 21.5195 82.3369 21.8613C82.141 22.1986 81.8516 22.4743 81.4688 22.6885C81.0859 22.9027 80.6097 23.0303 80.04 23.0713L79.4932 23.502ZM79.418 28H76.417L77.1895 26.6396H79.418C79.8053 26.6396 80.1289 26.5758 80.3887 26.4482C80.6484 26.3161 80.8421 26.1361 80.9697 25.9082C81.1019 25.6758 81.168 25.4046 81.168 25.0947C81.168 24.7712 81.111 24.4909 80.9971 24.2539C80.8831 24.0124 80.7031 23.8278 80.457 23.7002C80.2109 23.568 79.8896 23.502 79.4932 23.502H77.5654L77.5791 22.251H80.0879L80.4775 22.7227C81.0244 22.7409 81.4733 22.8617 81.8242 23.085C82.1797 23.3083 82.444 23.5977 82.6172 23.9531C82.7904 24.3086 82.877 24.6914 82.877 25.1016C82.877 25.735 82.738 26.266 82.46 26.6943C82.1865 27.1227 81.7923 27.4486 81.2773 27.6719C80.7624 27.8906 80.1426 28 79.418 28ZM85.8232 21.8682H88.332C89.0885 21.8682 89.7334 21.9958 90.2666 22.251C90.8044 22.5016 91.2145 22.8548 91.4971 23.3105C91.7842 23.7663 91.9277 24.2972 91.9277 24.9033C91.9277 25.359 91.8457 25.776 91.6816 26.1543C91.5221 26.5326 91.2874 26.8607 90.9775 27.1387C90.6676 27.4121 90.2894 27.624 89.8428 27.7744C89.4007 27.9248 88.8971 28 88.332 28H84.6406V18.0469H86.3564V26.6396H88.332C88.765 26.6396 89.1204 26.5599 89.3984 26.4004C89.6764 26.2363 89.8815 26.0221 90.0137 25.7578C90.1504 25.4935 90.2188 25.2041 90.2188 24.8896C90.2188 24.5843 90.1504 24.3063 90.0137 24.0557C89.8815 23.805 89.6764 23.6045 89.3984 23.4541C89.1204 23.3037 88.765 23.2285 88.332 23.2285H85.8232V21.8682ZM94.6689 18.0469V28H92.9531V18.0469H94.6689ZM103.262 26.6396V28H97.9775V26.6396H103.262ZM98.4629 18.0469V28H96.7471V18.0469H98.4629ZM102.571 22.2031V23.543H97.9775V22.2031H102.571ZM103.228 18.0469V19.4141H97.9775V18.0469H103.228ZM108.02 24.0693V23.9531C108.02 22.9779 108.124 22.0938 108.334 21.3008C108.548 20.5033 108.826 19.806 109.168 19.209C109.51 18.6074 109.874 18.1107 110.262 17.7188C110.654 17.3223 111.03 17.0374 111.39 16.8643L111.718 17.8076C111.453 18.0036 111.189 18.2747 110.925 18.6211C110.665 18.9674 110.426 19.3936 110.207 19.8994C109.993 20.4007 109.82 20.9886 109.688 21.6631C109.56 22.333 109.496 23.0918 109.496 23.9395V24.083C109.496 24.9307 109.56 25.6917 109.688 26.3662C109.82 27.0361 109.993 27.624 110.207 28.1299C110.426 28.6357 110.665 29.0641 110.925 29.415C111.189 29.7705 111.453 30.0531 111.718 30.2627L111.39 31.165C111.03 30.9873 110.654 30.7002 110.262 30.3037C109.874 29.9118 109.51 29.415 109.168 28.8135C108.826 28.2165 108.548 27.5215 108.334 26.7285C108.124 25.931 108.02 25.0446 108.02 24.0693ZM117.241 18.0127V28H115.594V19.9678L113.153 20.7949V19.4346L117.043 18.0127H117.241ZM123.975 23.9531V24.0693C123.975 25.0309 123.865 25.9082 123.646 26.7012C123.432 27.4941 123.152 28.1914 122.806 28.793C122.464 29.3945 122.092 29.8958 121.691 30.2969C121.295 30.6979 120.914 30.9873 120.55 31.165L120.215 30.2627C120.479 30.0622 120.741 29.7865 121.001 29.4355C121.265 29.0892 121.505 28.6585 121.719 28.1436C121.938 27.6331 122.111 27.0407 122.238 26.3662C122.37 25.6917 122.437 24.9307 122.437 24.083V23.9395C122.437 23.0918 122.368 22.3307 122.231 21.6562C122.099 20.9772 121.922 20.3848 121.698 19.8789C121.475 19.3685 121.233 18.9378 120.974 18.5869C120.714 18.236 120.461 17.9626 120.215 17.7666L120.55 16.8643C120.914 17.0374 121.295 17.3245 121.691 17.7256C122.092 18.1266 122.464 18.6302 122.806 19.2363C123.152 19.8379 123.432 20.5352 123.646 21.3281C123.865 22.1211 123.975 22.9961 123.975 23.9531Z" fill="white"/>
<path opacity="0.7" d="M244.22 18.0469H245.751L248.629 25.7236L251.5 18.0469H253.031L249.23 28H248.014L244.22 18.0469ZM243.522 18.0469H244.979L245.231 24.6914V28H243.522V18.0469ZM252.272 18.0469H253.735V28H252.02V24.6914L252.272 18.0469ZM263.709 22.75V23.2969C263.709 24.0488 263.611 24.7233 263.415 25.3203C263.219 25.9173 262.939 26.4255 262.574 26.8447C262.214 27.264 261.781 27.5853 261.275 27.8086C260.77 28.0273 260.209 28.1367 259.594 28.1367C258.983 28.1367 258.425 28.0273 257.919 27.8086C257.418 27.5853 256.982 27.264 256.613 26.8447C256.244 26.4255 255.957 25.9173 255.752 25.3203C255.551 24.7233 255.451 24.0488 255.451 23.2969V22.75C255.451 21.998 255.551 21.3258 255.752 20.7334C255.952 20.1364 256.235 19.6283 256.6 19.209C256.969 18.7852 257.404 18.4639 257.905 18.2451C258.411 18.0218 258.969 17.9102 259.58 17.9102C260.195 17.9102 260.756 18.0218 261.262 18.2451C261.768 18.4639 262.203 18.7852 262.567 19.209C262.932 19.6283 263.212 20.1364 263.408 20.7334C263.609 21.3258 263.709 21.998 263.709 22.75ZM261.993 23.2969V22.7363C261.993 22.1803 261.938 21.6904 261.829 21.2666C261.724 20.8382 261.567 20.4805 261.357 20.1934C261.152 19.9017 260.899 19.6829 260.599 19.5371C260.298 19.3867 259.958 19.3115 259.58 19.3115C259.202 19.3115 258.865 19.3867 258.568 19.5371C258.272 19.6829 258.019 19.9017 257.81 20.1934C257.604 20.4805 257.447 20.8382 257.338 21.2666C257.229 21.6904 257.174 22.1803 257.174 22.7363V23.2969C257.174 23.8529 257.229 24.3451 257.338 24.7734C257.447 25.2018 257.607 25.5641 257.816 25.8604C258.031 26.152 258.286 26.373 258.582 26.5234C258.878 26.6693 259.215 26.7422 259.594 26.7422C259.977 26.7422 260.316 26.6693 260.612 26.5234C260.909 26.373 261.159 26.152 261.364 25.8604C261.569 25.5641 261.724 25.2018 261.829 24.7734C261.938 24.3451 261.993 23.8529 261.993 23.2969ZM267.12 25.2041L271.536 18.0469H273.252V28H271.536V20.8359L267.12 28H265.411V18.0469H267.12V25.2041ZM278.666 24.0693V23.9531C278.666 22.9779 278.771 22.0938 278.98 21.3008C279.195 20.5033 279.473 19.806 279.814 19.209C280.156 18.6074 280.521 18.1107 280.908 17.7188C281.3 17.3223 281.676 17.0374 282.036 16.8643L282.364 17.8076C282.1 18.0036 281.836 18.2747 281.571 18.6211C281.312 18.9674 281.072 19.3936 280.854 19.8994C280.639 20.4007 280.466 20.9886 280.334 21.6631C280.206 22.333 280.143 23.0918 280.143 23.9395V24.083C280.143 24.9307 280.206 25.6917 280.334 26.3662C280.466 27.0361 280.639 27.624 280.854 28.1299C281.072 28.6357 281.312 29.0641 281.571 29.415C281.836 29.7705 282.1 30.0531 282.364 30.2627L282.036 31.165C281.676 30.9873 281.3 30.7002 280.908 30.3037C280.521 29.9118 280.156 29.415 279.814 28.8135C279.473 28.2165 279.195 27.5215 278.98 26.7285C278.771 25.931 278.666 25.0446 278.666 24.0693ZM289.877 22.1895V23.8164C289.877 24.5957 289.799 25.2611 289.645 25.8125C289.494 26.3594 289.275 26.8037 288.988 27.1455C288.701 27.4873 288.357 27.738 287.956 27.8975C287.56 28.057 287.115 28.1367 286.623 28.1367C286.231 28.1367 285.867 28.0866 285.529 27.9863C285.197 27.8861 284.896 27.7288 284.627 27.5146C284.358 27.3005 284.128 27.0247 283.937 26.6875C283.75 26.3457 283.604 25.9378 283.499 25.4639C283.399 24.9899 283.349 24.4408 283.349 23.8164V22.1895C283.349 21.4056 283.426 20.7448 283.581 20.207C283.736 19.6647 283.957 19.2249 284.244 18.8877C284.531 18.5459 284.873 18.2975 285.27 18.1426C285.671 17.9876 286.117 17.9102 286.609 17.9102C287.006 17.9102 287.37 17.9603 287.703 18.0605C288.04 18.1562 288.341 18.3089 288.605 18.5186C288.874 18.7282 289.102 19.0016 289.289 19.3389C289.48 19.6715 289.626 20.0749 289.727 20.5488C289.827 21.0182 289.877 21.5651 289.877 22.1895ZM288.229 24.0488V21.9434C288.229 21.5469 288.207 21.1982 288.161 20.8975C288.116 20.5921 288.047 20.3346 287.956 20.125C287.869 19.9108 287.76 19.7376 287.628 19.6055C287.496 19.4688 287.345 19.3708 287.177 19.3115C287.008 19.2477 286.819 19.2158 286.609 19.2158C286.354 19.2158 286.126 19.266 285.926 19.3662C285.725 19.4619 285.557 19.6169 285.42 19.8311C285.283 20.0452 285.178 20.3278 285.105 20.6787C285.037 21.0251 285.003 21.4466 285.003 21.9434V24.0488C285.003 24.4499 285.026 24.8031 285.071 25.1084C285.117 25.4137 285.185 25.6758 285.276 25.8945C285.368 26.1087 285.477 26.2865 285.604 26.4277C285.737 26.5645 285.887 26.6647 286.056 26.7285C286.229 26.7923 286.418 26.8242 286.623 26.8242C286.883 26.8242 287.113 26.7741 287.313 26.6738C287.514 26.5736 287.683 26.4141 287.819 26.1953C287.956 25.972 288.059 25.6826 288.127 25.3271C288.195 24.9717 288.229 24.5456 288.229 24.0488ZM294.621 23.9531V24.0693C294.621 25.0309 294.512 25.9082 294.293 26.7012C294.079 27.4941 293.799 28.1914 293.452 28.793C293.11 29.3945 292.739 29.8958 292.338 30.2969C291.941 30.6979 291.561 30.9873 291.196 31.165L290.861 30.2627C291.126 30.0622 291.388 29.7865 291.647 29.4355C291.912 29.0892 292.151 28.6585 292.365 28.1436C292.584 27.6331 292.757 27.0407 292.885 26.3662C293.017 25.6917 293.083 24.9307 293.083 24.083V23.9395C293.083 23.0918 293.015 22.3307 292.878 21.6562C292.746 20.9772 292.568 20.3848 292.345 19.8789C292.121 19.3685 291.88 18.9378 291.62 18.5869C291.36 18.236 291.107 17.9626 290.861 17.7666L291.196 16.8643C291.561 17.0374 291.941 17.3245 292.338 17.7256C292.739 18.1266 293.11 18.6302 293.452 19.2363C293.799 19.8379 294.079 20.5352 294.293 21.3281C294.512 22.1211 294.621 22.9961 294.621 23.9531Z" fill="white"/>
<path d="M94 42L103.526 51.75H84.4737L94 42Z" fill="white"/>
</svg>
