<svg width="360" height="338" viewBox="0 0 360 338" fill="none" xmlns="http://www.w3.org/2000/svg">
<rect width="360" height="338" fill="black" fill-opacity="0.5"/>
<g clip-path="url(#clip0_3458_35)">
<rect width="280" height="248" transform="translate(40 44)" fill="white"/>
<path d="M52.1475 62H50.876V53.5713L48.3262 54.5078V53.3594L51.9492 51.999H52.1475V62ZM60.0088 62H58.7373V53.5713L56.1875 54.5078V53.3594L59.8105 51.999H60.0088V62ZM63.8027 61.3369C63.8027 61.1182 63.8665 60.9359 63.9941 60.79C64.1263 60.6442 64.3223 60.5713 64.582 60.5713C64.8418 60.5713 65.0378 60.6442 65.1699 60.79C65.3066 60.9359 65.375 61.1182 65.375 61.3369C65.375 61.5465 65.3066 61.722 65.1699 61.8633C65.0378 62.0046 64.8418 62.0752 64.582 62.0752C64.3223 62.0752 64.1263 62.0046 63.9941 61.8633C63.8665 61.722 63.8027 61.5465 63.8027 61.3369ZM63.8096 55.3008C63.8096 55.082 63.8734 54.8997 64.001 54.7539C64.1331 54.6081 64.3291 54.5352 64.5889 54.5352C64.8486 54.5352 65.0446 54.6081 65.1768 54.7539C65.3135 54.8997 65.3818 55.082 65.3818 55.3008C65.3818 55.5104 65.3135 55.6859 65.1768 55.8271C65.0446 55.9684 64.8486 56.0391 64.5889 56.0391C64.3291 56.0391 64.1331 55.9684 64.001 55.8271C63.8734 55.6859 63.8096 55.5104 63.8096 55.3008ZM71.2607 62H69.9893V53.5713L67.4395 54.5078V53.3594L71.0625 51.999H71.2607V62ZM79.1221 62H77.8506V53.5713L75.3008 54.5078V53.3594L78.9238 51.999H79.1221V62Z" fill="white"/>
<path d="M64.9132 60.8969V61.5488H55.434L59.7726 63.4112L58.6788 63.8769L52.4445 61.2228L58.6788 58.5688L59.7726 59.0344L55.434 60.8969H64.9132Z" fill="white"/>
<g filter="url(#filter0_ddd_3458_35)">
<rect x="40" y="44" width="280" height="248" fill="white"/>
</g>
<path d="M127.796 79H125.827V69.2188H120.819V79H118.851V67.625H127.796V79ZM129.807 74.6953C129.807 73.8672 129.972 73.1224 130.3 72.4609C130.628 71.7943 131.089 71.2839 131.682 70.9297C132.276 70.5703 132.959 70.3906 133.729 70.3906C134.87 70.3906 135.794 70.7578 136.503 71.4922C137.216 72.2266 137.602 73.2005 137.659 74.4141L137.667 74.8594C137.667 75.6927 137.505 76.4375 137.182 77.0938C136.865 77.75 136.406 78.2578 135.807 78.6172C135.214 78.9766 134.526 79.1562 133.745 79.1562C132.552 79.1562 131.597 78.7604 130.878 77.9688C130.164 77.1719 129.807 76.112 129.807 74.7891V74.6953ZM131.706 74.8594C131.706 75.7292 131.886 76.4115 132.245 76.9062C132.604 77.3958 133.104 77.6406 133.745 77.6406C134.386 77.6406 134.883 77.3906 135.237 76.8906C135.597 76.3906 135.776 75.6589 135.776 74.6953C135.776 73.8411 135.591 73.1641 135.222 72.6641C134.857 72.1641 134.36 71.9141 133.729 71.9141C133.11 71.9141 132.617 72.1615 132.253 72.6562C131.888 73.1458 131.706 73.8802 131.706 74.8594ZM138.905 77.4844C139.431 76.8958 139.783 76.3385 139.96 75.8125C140.142 75.2812 140.251 74.6042 140.288 73.7812L140.397 70.5469H146.264V77.4844H147.436V81.5156H145.546V79H140.124V81.5156H138.202L138.21 77.4844H138.905ZM141.132 77.4844H144.374V72.1797H142.241L142.186 73.7969C142.113 75.349 141.762 76.5781 141.132 77.4844ZM155.448 72.0547H152.706V79H150.807V72.0547H148.096V70.5469H155.448V72.0547ZM157.022 79V70.5469H160.452C161.608 70.5469 162.488 70.75 163.092 71.1562C163.696 71.5573 163.998 72.1354 163.998 72.8906C163.998 73.2812 163.876 73.6328 163.631 73.9453C163.392 74.2526 163.035 74.4896 162.561 74.6562C163.113 74.7708 163.551 75.0026 163.873 75.3516C164.196 75.7005 164.358 76.112 164.358 76.5859C164.358 77.3724 164.066 77.9714 163.483 78.3828C162.905 78.7943 162.071 79 160.983 79H157.022ZM158.92 75.3984V77.5H160.998C161.972 77.5 162.459 77.151 162.459 76.4531C162.459 75.75 161.965 75.3984 160.975 75.3984H158.92ZM158.92 74.0391H160.483C161.561 74.0391 162.1 73.7214 162.1 73.0859C162.1 72.4193 161.59 72.0755 160.569 72.0547H158.92V74.0391ZM169.885 79.1562C168.682 79.1562 167.705 78.7786 166.955 78.0234C166.211 77.263 165.838 76.2526 165.838 74.9922V74.7578C165.838 73.9141 166 73.1615 166.322 72.5C166.651 71.8333 167.109 71.3151 167.697 70.9453C168.286 70.5755 168.942 70.3906 169.666 70.3906C170.817 70.3906 171.705 70.7578 172.33 71.4922C172.961 72.2266 173.276 73.2656 173.276 74.6094V75.375H167.752C167.809 76.0729 168.041 76.625 168.447 77.0312C168.859 77.4375 169.375 77.6406 169.994 77.6406C170.864 77.6406 171.572 77.2891 172.119 76.5859L173.143 77.5625C172.804 78.0677 172.351 78.4609 171.783 78.7422C171.221 79.0182 170.588 79.1562 169.885 79.1562ZM169.658 71.9141C169.138 71.9141 168.716 72.0964 168.393 72.4609C168.075 72.8255 167.872 73.3333 167.783 73.9844H171.401V73.8438C171.359 73.2083 171.19 72.7292 170.893 72.4062C170.596 72.0781 170.184 71.9141 169.658 71.9141ZM182.318 74.8594C182.318 76.1667 182.022 77.2109 181.428 77.9922C180.834 78.7682 180.037 79.1562 179.037 79.1562C178.11 79.1562 177.368 78.8516 176.811 78.2422V82.25H174.912V70.5469H176.662L176.74 71.4062C177.298 70.7292 178.055 70.3906 179.014 70.3906C180.045 70.3906 180.852 70.776 181.436 71.5469C182.024 72.3125 182.318 73.3776 182.318 74.7422V74.8594ZM180.428 74.6953C180.428 73.8516 180.259 73.1823 179.92 72.6875C179.587 72.1927 179.107 71.9453 178.482 71.9453C177.706 71.9453 177.149 72.2656 176.811 72.9062V76.6562C177.154 77.3125 177.717 77.6406 178.498 77.6406C179.102 77.6406 179.574 77.3984 179.912 76.9141C180.256 76.4245 180.428 75.6849 180.428 74.6953ZM191.408 75.6016H190.4V79H188.502V75.6016H187.502L185.557 79H183.228L186.033 74.6016L183.377 70.5469H185.697L187.611 73.8672H188.502V70.5469H190.4V73.8672H191.299L193.221 70.5469H195.541L192.893 74.5781L195.713 79H193.353L191.408 75.6016ZM197.084 77.4844C197.61 76.8958 197.961 76.3385 198.138 75.8125C198.321 75.2812 198.43 74.6042 198.467 73.7812L198.576 70.5469H204.443V77.4844H205.615V81.5156H203.724V79H198.302V81.5156H196.381L196.388 77.4844H197.084ZM199.31 77.4844H202.552V72.1797H200.42L200.365 73.7969C200.292 75.349 199.941 76.5781 199.31 77.4844ZM210.853 79.1562C209.65 79.1562 208.673 78.7786 207.923 78.0234C207.179 77.263 206.806 76.2526 206.806 74.9922V74.7578C206.806 73.9141 206.968 73.1615 207.291 72.5C207.619 71.8333 208.077 71.3151 208.666 70.9453C209.254 70.5755 209.91 70.3906 210.634 70.3906C211.785 70.3906 212.673 70.7578 213.298 71.4922C213.929 72.2266 214.244 73.2656 214.244 74.6094V75.375H208.72C208.778 76.0729 209.009 76.625 209.416 77.0312C209.827 77.4375 210.343 77.6406 210.962 77.6406C211.832 77.6406 212.541 77.2891 213.087 76.5859L214.111 77.5625C213.772 78.0677 213.319 78.4609 212.752 78.7422C212.189 79.0182 211.556 79.1562 210.853 79.1562ZM210.627 71.9141C210.106 71.9141 209.684 72.0964 209.361 72.4609C209.043 72.8255 208.84 73.3333 208.752 73.9844H212.369V73.8438C212.327 73.2083 212.158 72.7292 211.861 72.4062C211.564 72.0781 211.153 71.9141 210.627 71.9141ZM223.044 79H221.146V75.5859H217.857V79H215.958V70.5469H217.857V74.0703H221.146V70.5469H223.044V79ZM230.509 70.5469H232.4V79H230.509V73.3594L227.197 79H225.306V70.5469H227.197V76.1875L230.509 70.5469ZM238.302 79.1562C237.099 79.1562 236.122 78.7786 235.372 78.0234C234.627 77.263 234.255 76.2526 234.255 74.9922V74.7578C234.255 73.9141 234.416 73.1615 234.739 72.5C235.068 71.8333 235.526 71.3151 236.114 70.9453C236.703 70.5755 237.359 70.3906 238.083 70.3906C239.234 70.3906 240.122 70.7578 240.747 71.4922C241.377 72.2266 241.693 73.2656 241.693 74.6094V75.375H236.169C236.226 76.0729 236.458 76.625 236.864 77.0312C237.276 77.4375 237.791 77.6406 238.411 77.6406C239.281 77.6406 239.989 77.2891 240.536 76.5859L241.56 77.5625C241.221 78.0677 240.768 78.4609 240.2 78.7422C239.638 79.0182 239.005 79.1562 238.302 79.1562ZM238.075 71.9141C237.554 71.9141 237.133 72.0964 236.81 72.4609C236.492 72.8255 236.289 73.3333 236.2 73.9844H239.818V73.8438C239.776 73.2083 239.607 72.7292 239.31 72.4062C239.013 72.0781 238.601 71.9141 238.075 71.9141Z" fill="black" fill-opacity="0.87"/>
<path d="M139.731 126V116.047H143.143C144.268 116.047 145.125 116.272 145.713 116.724C146.301 117.175 146.595 117.847 146.595 118.74C146.595 119.196 146.472 119.606 146.226 119.971C145.979 120.335 145.619 120.618 145.146 120.818C145.683 120.964 146.098 121.24 146.39 121.646C146.686 122.047 146.834 122.53 146.834 123.095C146.834 124.029 146.533 124.747 145.932 125.248C145.335 125.749 144.478 126 143.361 126H139.731ZM141.461 121.509V124.619H143.382C143.924 124.619 144.348 124.485 144.653 124.216C144.959 123.947 145.111 123.573 145.111 123.095C145.111 122.06 144.583 121.532 143.525 121.509H141.461ZM141.461 120.237H143.156C143.694 120.237 144.113 120.117 144.414 119.875C144.719 119.629 144.872 119.283 144.872 118.836C144.872 118.344 144.731 117.988 144.448 117.77C144.17 117.551 143.735 117.441 143.143 117.441H141.461V120.237ZM150.34 120.955H151.967C152.574 120.955 153.102 121.06 153.553 121.27C154.004 121.479 154.346 121.773 154.579 122.151C154.816 122.53 154.934 122.969 154.934 123.471C154.934 124.232 154.665 124.842 154.128 125.303C153.59 125.763 152.874 125.995 151.981 126H148.679V118.604H150.34V120.955ZM157.826 126H156.165V118.604H157.826V126ZM150.34 122.288V124.674H151.961C152.366 124.674 152.685 124.574 152.918 124.373C153.155 124.168 153.273 123.879 153.273 123.505C153.273 123.131 153.157 122.837 152.924 122.623C152.697 122.404 152.387 122.293 151.995 122.288H150.34ZM163.731 126V118.604H166.732C167.744 118.604 168.514 118.781 169.043 119.137C169.571 119.488 169.836 119.993 169.836 120.654C169.836 120.996 169.729 121.304 169.514 121.577C169.305 121.846 168.993 122.053 168.578 122.199C169.061 122.299 169.444 122.502 169.726 122.808C170.009 123.113 170.15 123.473 170.15 123.888C170.15 124.576 169.895 125.1 169.385 125.46C168.879 125.82 168.15 126 167.197 126H163.731ZM165.392 122.849V124.688H167.211C168.063 124.688 168.489 124.382 168.489 123.771C168.489 123.156 168.056 122.849 167.19 122.849H165.392ZM165.392 121.659H166.76C167.703 121.659 168.175 121.381 168.175 120.825C168.175 120.242 167.728 119.941 166.835 119.923H165.392V121.659ZM173.527 120.955H175.154C175.76 120.955 176.288 121.06 176.74 121.27C177.191 121.479 177.533 121.773 177.765 122.151C178.002 122.53 178.121 122.969 178.121 123.471C178.121 124.232 177.852 124.842 177.314 125.303C176.776 125.763 176.061 125.995 175.167 126H171.866V118.604H173.527V120.955ZM181.012 126H179.351V118.604H181.012V126ZM173.527 122.288V124.674H175.147C175.552 124.674 175.871 124.574 176.104 124.373C176.341 124.168 176.459 123.879 176.459 123.505C176.459 123.131 176.343 122.837 176.111 122.623C175.883 122.404 175.573 122.293 175.181 122.288H173.527ZM186.412 126.137C185.359 126.137 184.505 125.806 183.849 125.146C183.197 124.48 182.871 123.596 182.871 122.493V122.288C182.871 121.55 183.012 120.891 183.295 120.312C183.582 119.729 183.983 119.276 184.498 118.952C185.013 118.629 185.587 118.467 186.221 118.467C187.228 118.467 188.005 118.788 188.552 119.431C189.103 120.073 189.379 120.982 189.379 122.158V122.828H184.546C184.596 123.439 184.799 123.922 185.154 124.277C185.514 124.633 185.965 124.811 186.508 124.811C187.269 124.811 187.889 124.503 188.367 123.888L189.263 124.742C188.966 125.184 188.57 125.528 188.073 125.774C187.581 126.016 187.027 126.137 186.412 126.137ZM186.214 119.8C185.758 119.8 185.389 119.959 185.106 120.278C184.828 120.597 184.651 121.042 184.573 121.611H187.738V121.488C187.702 120.932 187.554 120.513 187.294 120.23C187.034 119.943 186.674 119.8 186.214 119.8ZM193.48 121.037L194.888 118.604H196.734L194.471 122.247L196.809 126H194.977L193.501 123.471L192.031 126H190.185L192.523 122.247L190.267 118.604H192.099L193.48 121.037ZM202.435 126C202.362 125.859 202.298 125.629 202.243 125.31C201.715 125.861 201.068 126.137 200.302 126.137C199.559 126.137 198.953 125.925 198.484 125.501C198.014 125.077 197.779 124.553 197.779 123.929C197.779 123.14 198.071 122.536 198.654 122.117C199.242 121.693 200.081 121.481 201.17 121.481H202.189V120.996C202.189 120.613 202.082 120.308 201.867 120.08C201.653 119.848 201.327 119.731 200.89 119.731C200.512 119.731 200.202 119.827 199.96 120.019C199.719 120.205 199.598 120.445 199.598 120.736H197.937C197.937 120.331 198.071 119.952 198.34 119.602C198.609 119.246 198.974 118.968 199.434 118.768C199.899 118.567 200.416 118.467 200.986 118.467C201.851 118.467 202.542 118.686 203.057 119.123C203.572 119.556 203.836 120.167 203.85 120.955V124.291C203.85 124.956 203.943 125.487 204.13 125.884V126H202.435ZM200.61 124.804C200.938 124.804 201.245 124.724 201.532 124.564C201.824 124.405 202.043 124.191 202.189 123.922V122.527H201.293C200.678 122.527 200.215 122.634 199.905 122.849C199.596 123.063 199.441 123.366 199.441 123.758C199.441 124.077 199.545 124.332 199.755 124.523C199.969 124.71 200.254 124.804 200.61 124.804ZM212.025 118.604V126H210.364V119.943H208.272L208.136 122.521C208.049 123.76 207.81 124.651 207.418 125.193C207.03 125.731 206.436 126 205.634 126H205.121L205.114 124.619L205.456 124.585C205.82 124.535 206.085 124.314 206.249 123.922C206.417 123.525 206.525 122.805 206.57 121.762L206.707 118.604H212.025ZM218.56 118.604H220.214V126H218.56V121.064L215.662 126H214.007V118.604H215.662V123.539L218.56 118.604ZM103.346 174H101.685V171.013H98.807V174H97.1459V166.604H98.807V169.687H101.685V166.604H103.346V174ZM109.689 174C109.617 173.859 109.553 173.629 109.498 173.31C108.969 173.861 108.322 174.137 107.557 174.137C106.814 174.137 106.208 173.925 105.738 173.501C105.269 173.077 105.034 172.553 105.034 171.929C105.034 171.14 105.326 170.536 105.909 170.117C106.497 169.693 107.336 169.481 108.425 169.481H109.443V168.996C109.443 168.613 109.336 168.308 109.122 168.08C108.908 167.848 108.582 167.731 108.145 167.731C107.766 167.731 107.456 167.827 107.215 168.019C106.973 168.205 106.853 168.445 106.853 168.736H105.191C105.191 168.331 105.326 167.952 105.595 167.602C105.864 167.246 106.228 166.968 106.688 166.768C107.153 166.567 107.671 166.467 108.24 166.467C109.106 166.467 109.797 166.686 110.312 167.123C110.826 167.556 111.091 168.167 111.104 168.955V172.291C111.104 172.956 111.198 173.487 111.385 173.884V174H109.689ZM107.864 172.804C108.192 172.804 108.5 172.724 108.787 172.564C109.079 172.405 109.298 172.191 109.443 171.922V170.527H108.548C107.933 170.527 107.47 170.634 107.16 170.849C106.85 171.063 106.695 171.366 106.695 171.758C106.695 172.077 106.8 172.332 107.01 172.523C107.224 172.71 107.509 172.804 107.864 172.804ZM122.451 167.923H120.052V174H118.391V167.923H116.019V166.604H122.451V167.923ZM126.532 174.137C125.479 174.137 124.625 173.806 123.969 173.146C123.317 172.48 122.991 171.596 122.991 170.493V170.288C122.991 169.55 123.132 168.891 123.415 168.312C123.702 167.729 124.103 167.276 124.618 166.952C125.133 166.629 125.707 166.467 126.341 166.467C127.348 166.467 128.125 166.788 128.672 167.431C129.223 168.073 129.499 168.982 129.499 170.158V170.828H124.666C124.716 171.439 124.919 171.922 125.274 172.277C125.634 172.633 126.085 172.811 126.628 172.811C127.389 172.811 128.009 172.503 128.487 171.888L129.383 172.742C129.086 173.184 128.69 173.528 128.193 173.774C127.701 174.016 127.147 174.137 126.532 174.137ZM126.334 167.8C125.878 167.8 125.509 167.959 125.226 168.278C124.948 168.597 124.771 169.042 124.693 169.611H127.858V169.488C127.822 168.932 127.674 168.513 127.414 168.23C127.154 167.943 126.794 167.8 126.334 167.8ZM137.421 170.377C137.421 171.521 137.162 172.435 136.642 173.118C136.122 173.797 135.425 174.137 134.55 174.137C133.739 174.137 133.09 173.87 132.602 173.337V176.844H130.941V166.604H132.472L132.54 167.355C133.028 166.763 133.691 166.467 134.53 166.467C135.432 166.467 136.138 166.804 136.649 167.479C137.164 168.148 137.421 169.08 137.421 170.274V170.377ZM135.767 170.233C135.767 169.495 135.619 168.91 135.323 168.477C135.031 168.044 134.612 167.827 134.065 167.827C133.386 167.827 132.898 168.107 132.602 168.668V171.949C132.903 172.523 133.395 172.811 134.079 172.811C134.607 172.811 135.02 172.599 135.316 172.175C135.617 171.746 135.767 171.099 135.767 170.233ZM143.375 171.956L145.562 166.604H147.641V174H145.979V169.105L143.942 174H142.814L140.771 169.078V174H139.109V166.604H141.201L143.375 171.956ZM154.278 166.604H155.932V174H154.278V169.064L151.379 174H149.725V166.604H151.379V171.539L154.278 166.604ZM164.114 174H162.453V171.013H159.575V174H157.914V166.604H159.575V169.687H162.453V166.604H164.114V174ZM170.458 174C170.385 173.859 170.321 173.629 170.266 173.31C169.738 173.861 169.091 174.137 168.325 174.137C167.582 174.137 166.976 173.925 166.507 173.501C166.037 173.077 165.803 172.553 165.803 171.929C165.803 171.14 166.094 170.536 166.678 170.117C167.265 169.693 168.104 169.481 169.193 169.481H170.212V168.996C170.212 168.613 170.105 168.308 169.89 168.08C169.676 167.848 169.35 167.731 168.913 167.731C168.535 167.731 168.225 167.827 167.983 168.019C167.742 168.205 167.621 168.445 167.621 168.736H165.96C165.96 168.331 166.094 167.952 166.363 167.602C166.632 167.246 166.997 166.968 167.457 166.768C167.922 166.567 168.439 166.467 169.009 166.467C169.874 166.467 170.565 166.686 171.08 167.123C171.595 167.556 171.859 168.167 171.873 168.955V172.291C171.873 172.956 171.966 173.487 172.153 173.884V174H170.458ZM168.633 172.804C168.961 172.804 169.268 172.724 169.555 172.564C169.847 172.405 170.066 172.191 170.212 171.922V170.527H169.316C168.701 170.527 168.238 170.634 167.929 170.849C167.619 171.063 167.464 171.366 167.464 171.758C167.464 172.077 167.568 172.332 167.778 172.523C167.992 172.71 168.277 172.804 168.633 172.804ZM180.048 166.604V174H178.387V167.943H176.295L176.159 170.521C176.072 171.76 175.833 172.651 175.441 173.193C175.053 173.731 174.459 174 173.657 174H173.144L173.137 172.619L173.479 172.585C173.843 172.535 174.108 172.314 174.272 171.922C174.44 171.525 174.548 170.805 174.593 169.762L174.73 166.604H180.048ZM191.874 174H190.213V167.943H187.328V174H185.667V166.604H191.874V174ZM193.48 170.233C193.48 169.509 193.623 168.857 193.91 168.278C194.197 167.695 194.601 167.248 195.12 166.938C195.64 166.624 196.237 166.467 196.911 166.467C197.909 166.467 198.718 166.788 199.338 167.431C199.962 168.073 200.3 168.925 200.35 169.987L200.357 170.377C200.357 171.106 200.215 171.758 199.933 172.332C199.655 172.906 199.254 173.351 198.73 173.665C198.21 173.979 197.609 174.137 196.925 174.137C195.881 174.137 195.045 173.79 194.416 173.098C193.792 172.4 193.48 171.473 193.48 170.315V170.233ZM195.141 170.377C195.141 171.138 195.298 171.735 195.612 172.168C195.927 172.596 196.364 172.811 196.925 172.811C197.486 172.811 197.921 172.592 198.231 172.154C198.545 171.717 198.702 171.076 198.702 170.233C198.702 169.486 198.541 168.894 198.217 168.456C197.898 168.019 197.463 167.8 196.911 167.8C196.369 167.8 195.938 168.016 195.619 168.449C195.3 168.878 195.141 169.52 195.141 170.377ZM204.95 172.811C205.365 172.811 205.709 172.69 205.982 172.448C206.256 172.207 206.401 171.908 206.42 171.553H207.985C207.967 172.013 207.823 172.444 207.554 172.845C207.286 173.241 206.921 173.556 206.461 173.788C206 174.021 205.504 174.137 204.971 174.137C203.936 174.137 203.116 173.802 202.51 173.132C201.903 172.462 201.6 171.537 201.6 170.356V170.186C201.6 169.06 201.901 168.16 202.503 167.485C203.104 166.806 203.925 166.467 204.964 166.467C205.843 166.467 206.559 166.724 207.11 167.239C207.666 167.75 207.958 168.422 207.985 169.256H206.42C206.401 168.832 206.256 168.483 205.982 168.21C205.713 167.937 205.369 167.8 204.95 167.8C204.412 167.8 203.998 167.996 203.706 168.388C203.414 168.775 203.266 169.365 203.262 170.158V170.425C203.262 171.227 203.405 171.826 203.692 172.223C203.984 172.615 204.403 172.811 204.95 172.811ZM215.21 167.923H212.811V174H211.15V167.923H208.778V166.604H215.21V167.923ZM220.781 174C220.708 173.859 220.645 173.629 220.59 173.31C220.061 173.861 219.414 174.137 218.648 174.137C217.906 174.137 217.299 173.925 216.83 173.501C216.361 173.077 216.126 172.553 216.126 171.929C216.126 171.14 216.418 170.536 217.001 170.117C217.589 169.693 218.427 169.481 219.517 169.481H220.535V168.996C220.535 168.613 220.428 168.308 220.214 168.08C220 167.848 219.674 167.731 219.236 167.731C218.858 167.731 218.548 167.827 218.307 168.019C218.065 168.205 217.944 168.445 217.944 168.736H216.283C216.283 168.331 216.418 167.952 216.687 167.602C216.955 167.246 217.32 166.968 217.78 166.768C218.245 166.567 218.762 166.467 219.332 166.467C220.198 166.467 220.888 166.686 221.403 167.123C221.918 167.556 222.183 168.167 222.196 168.955V172.291C222.196 172.956 222.29 173.487 222.477 173.884V174H220.781ZM218.956 172.804C219.284 172.804 219.592 172.724 219.879 172.564C220.171 172.405 220.389 172.191 220.535 171.922V170.527H219.64C219.024 170.527 218.562 170.634 218.252 170.849C217.942 171.063 217.787 171.366 217.787 171.758C217.787 172.077 217.892 172.332 218.102 172.523C218.316 172.71 218.601 172.804 218.956 172.804ZM230.351 174H228.69V171.013H225.812V174H224.151V166.604H225.812V169.687H228.69V166.604H230.351V174ZM231.964 170.233C231.964 169.509 232.108 168.857 232.395 168.278C232.682 167.695 233.085 167.248 233.605 166.938C234.124 166.624 234.721 166.467 235.396 166.467C236.394 166.467 237.203 166.788 237.822 167.431C238.447 168.073 238.784 168.925 238.834 169.987L238.841 170.377C238.841 171.106 238.7 171.758 238.417 172.332C238.139 172.906 237.738 173.351 237.214 173.665C236.695 173.979 236.093 174.137 235.409 174.137C234.366 174.137 233.529 173.79 232.901 173.098C232.276 172.4 231.964 171.473 231.964 170.315V170.233ZM233.625 170.377C233.625 171.138 233.782 171.735 234.097 172.168C234.411 172.596 234.849 172.811 235.409 172.811C235.97 172.811 236.405 172.592 236.715 172.154C237.029 171.717 237.187 171.076 237.187 170.233C237.187 169.486 237.025 168.894 236.701 168.456C236.382 168.019 235.947 167.8 235.396 167.8C234.853 167.8 234.423 168.016 234.104 168.449C233.785 168.878 233.625 169.52 233.625 170.377ZM240.522 174V166.604H243.523C244.535 166.604 245.305 166.781 245.834 167.137C246.362 167.488 246.627 167.993 246.627 168.654C246.627 168.996 246.52 169.304 246.305 169.577C246.096 169.846 245.784 170.053 245.369 170.199C245.852 170.299 246.235 170.502 246.517 170.808C246.8 171.113 246.941 171.473 246.941 171.888C246.941 172.576 246.686 173.1 246.176 173.46C245.67 173.82 244.941 174 243.988 174H240.522ZM242.183 170.849V172.688H244.002C244.854 172.688 245.28 172.382 245.28 171.771C245.28 171.156 244.847 170.849 243.981 170.849H242.183ZM242.183 169.659H243.551C244.494 169.659 244.966 169.381 244.966 168.825C244.966 168.242 244.519 167.941 243.626 167.923H242.183V169.659ZM251.159 171.074H250.318V174H248.657V166.604H250.318V169.557H251.049L253.093 166.604H255.144L252.471 170.145L255.37 174H253.209L251.159 171.074ZM261.05 166.604H262.704V174H261.05V169.064L258.151 174H256.497V166.604H258.151V171.539L261.05 166.604ZM141.03 195.074H140.19V198H138.529V190.604H140.19V193.557H140.921L142.965 190.604H145.016L142.343 194.145L145.241 198H143.081L141.03 195.074ZM145.596 194.233C145.596 193.509 145.74 192.857 146.027 192.278C146.314 191.695 146.718 191.248 147.237 190.938C147.757 190.624 148.354 190.467 149.028 190.467C150.026 190.467 150.835 190.788 151.455 191.431C152.079 192.073 152.416 192.925 152.467 193.987L152.473 194.377C152.473 195.106 152.332 195.758 152.05 196.332C151.772 196.906 151.371 197.351 150.846 197.665C150.327 197.979 149.725 198.137 149.042 198.137C147.998 198.137 147.162 197.79 146.533 197.098C145.909 196.4 145.596 195.473 145.596 194.315V194.233ZM147.258 194.377C147.258 195.138 147.415 195.735 147.729 196.168C148.044 196.596 148.481 196.811 149.042 196.811C149.602 196.811 150.038 196.592 150.347 196.154C150.662 195.717 150.819 195.076 150.819 194.233C150.819 193.486 150.657 192.894 150.334 192.456C150.015 192.019 149.58 191.8 149.028 191.8C148.486 191.8 148.055 192.016 147.736 192.449C147.417 192.878 147.258 193.52 147.258 194.377ZM160.293 198H158.632V195.013H155.754V198H154.093V190.604H155.754V193.687H158.632V190.604H160.293V198ZM168.038 191.923H165.639V198H163.978V191.923H161.605V190.604H168.038V191.923ZM172.119 198.137C171.066 198.137 170.212 197.806 169.555 197.146C168.904 196.48 168.578 195.596 168.578 194.493V194.288C168.578 193.55 168.719 192.891 169.002 192.312C169.289 191.729 169.69 191.276 170.205 190.952C170.72 190.629 171.294 190.467 171.927 190.467C172.935 190.467 173.712 190.788 174.258 191.431C174.81 192.073 175.086 192.982 175.086 194.158V194.828H170.253C170.303 195.439 170.505 195.922 170.861 196.277C171.221 196.633 171.672 196.811 172.214 196.811C172.976 196.811 173.595 196.503 174.074 195.888L174.969 196.742C174.673 197.184 174.277 197.528 173.78 197.774C173.288 198.016 172.734 198.137 172.119 198.137ZM171.921 191.8C171.465 191.8 171.096 191.959 170.813 192.278C170.535 192.597 170.357 193.042 170.28 193.611H173.445V193.488C173.408 192.932 173.26 192.513 173.001 192.23C172.741 191.943 172.381 191.8 171.921 191.8ZM181.149 190.604H182.803V198H181.149V193.064L178.25 198H176.596V190.604H178.25V195.539L181.149 190.604ZM181.928 187.767C181.928 188.341 181.727 188.806 181.326 189.161C180.925 189.517 180.39 189.694 179.72 189.694C179.05 189.694 178.515 189.517 178.113 189.161C177.712 188.806 177.512 188.341 177.512 187.767H178.756C178.756 188.067 178.84 188.302 179.009 188.471C179.182 188.635 179.419 188.717 179.72 188.717C180.021 188.717 180.255 188.635 180.424 188.471C180.593 188.302 180.677 188.067 180.677 187.767H181.928ZM190.985 198H189.324V195.013H186.446V198H184.785V190.604H186.446V193.687H189.324V190.604H190.985V198ZM196.166 198.137C195.114 198.137 194.259 197.806 193.603 197.146C192.951 196.48 192.625 195.596 192.625 194.493V194.288C192.625 193.55 192.767 192.891 193.049 192.312C193.336 191.729 193.737 191.276 194.252 190.952C194.767 190.629 195.342 190.467 195.975 190.467C196.982 190.467 197.759 190.788 198.306 191.431C198.857 192.073 199.133 192.982 199.133 194.158V194.828H194.3C194.35 195.439 194.553 195.922 194.909 196.277C195.269 196.633 195.72 196.811 196.262 196.811C197.023 196.811 197.643 196.503 198.121 195.888L199.017 196.742C198.721 197.184 198.324 197.528 197.828 197.774C197.335 198.016 196.782 198.137 196.166 198.137ZM195.968 191.8C195.512 191.8 195.143 191.959 194.861 192.278C194.583 192.597 194.405 193.042 194.328 193.611H197.493V193.488C197.456 192.932 197.308 192.513 197.048 192.23C196.788 191.943 196.428 191.8 195.968 191.8ZM207.056 194.377C207.056 195.521 206.796 196.435 206.276 197.118C205.757 197.797 205.06 198.137 204.185 198.137C203.373 198.137 202.724 197.87 202.236 197.337V200.844H200.575V190.604H202.106L202.175 191.355C202.662 190.763 203.326 190.467 204.164 190.467C205.066 190.467 205.773 190.804 206.283 191.479C206.798 192.148 207.056 193.08 207.056 194.274V194.377ZM205.401 194.233C205.401 193.495 205.253 192.91 204.957 192.477C204.665 192.044 204.246 191.827 203.699 191.827C203.02 191.827 202.533 192.107 202.236 192.668V195.949C202.537 196.523 203.029 196.811 203.713 196.811C204.242 196.811 204.654 196.599 204.95 196.175C205.251 195.746 205.401 195.099 205.401 194.233ZM213.037 198C212.964 197.859 212.9 197.629 212.845 197.31C212.317 197.861 211.67 198.137 210.904 198.137C210.161 198.137 209.555 197.925 209.086 197.501C208.616 197.077 208.381 196.553 208.381 195.929C208.381 195.14 208.673 194.536 209.256 194.117C209.844 193.693 210.683 193.481 211.772 193.481H212.791V192.996C212.791 192.613 212.684 192.308 212.469 192.08C212.255 191.848 211.929 191.731 211.492 191.731C211.114 191.731 210.804 191.827 210.562 192.019C210.321 192.205 210.2 192.445 210.2 192.736H208.539C208.539 192.331 208.673 191.952 208.942 191.602C209.211 191.246 209.575 190.968 210.036 190.768C210.501 190.567 211.018 190.467 211.587 190.467C212.453 190.467 213.144 190.686 213.659 191.123C214.174 191.556 214.438 192.167 214.452 192.955V196.291C214.452 196.956 214.545 197.487 214.732 197.884V198H213.037ZM211.212 196.804C211.54 196.804 211.847 196.724 212.134 196.564C212.426 196.405 212.645 196.191 212.791 195.922V194.527H211.895C211.28 194.527 210.817 194.634 210.507 194.849C210.198 195.063 210.043 195.366 210.043 195.758C210.043 196.077 210.147 196.332 210.357 196.523C210.571 196.71 210.856 196.804 211.212 196.804ZM217.883 195.074C217.883 194.468 217.958 193.985 218.109 193.625C218.259 193.265 218.555 192.871 218.997 192.442C219.444 192.009 219.726 191.702 219.845 191.52C220.027 191.242 220.118 190.941 220.118 190.617C220.118 190.189 220.011 189.863 219.797 189.64C219.587 189.412 219.278 189.298 218.867 189.298C218.475 189.298 218.159 189.41 217.917 189.633C217.68 189.852 217.562 190.15 217.562 190.528H215.901C215.91 189.722 216.183 189.084 216.721 188.614C217.263 188.145 217.979 187.91 218.867 187.91C219.783 187.91 220.497 188.143 221.007 188.607C221.522 189.072 221.779 189.722 221.779 190.556C221.779 191.299 221.433 192.03 220.74 192.75L219.9 193.577C219.599 193.919 219.444 194.418 219.435 195.074H217.883ZM217.767 197.2C217.767 196.931 217.851 196.715 218.02 196.551C218.188 196.382 218.416 196.298 218.703 196.298C218.995 196.298 219.225 196.384 219.394 196.558C219.562 196.726 219.647 196.94 219.647 197.2C219.647 197.451 219.565 197.66 219.401 197.829C219.237 197.998 219.004 198.082 218.703 198.082C218.403 198.082 218.17 197.998 218.006 197.829C217.847 197.66 217.767 197.451 217.767 197.2Z" fill="black" fill-opacity="0.66"/>
<rect x="185.003" y="244" width="114.997" height="36" rx="2" fill="#0F85C8"/>
<path d="M242.632 262.283C242.632 263.258 242.463 264.115 242.126 264.854C241.788 265.587 241.305 266.152 240.676 266.549C240.052 266.941 239.332 267.137 238.516 267.137C237.71 267.137 236.99 266.941 236.356 266.549C235.727 266.152 235.24 265.59 234.893 264.86C234.551 264.131 234.378 263.29 234.374 262.338V261.777C234.374 260.807 234.545 259.95 234.886 259.207C235.233 258.464 235.718 257.897 236.343 257.505C236.971 257.108 237.691 256.91 238.503 256.91C239.314 256.91 240.032 257.106 240.656 257.498C241.285 257.885 241.77 258.446 242.112 259.18C242.454 259.909 242.627 260.759 242.632 261.729V262.283ZM240.902 261.764C240.902 260.661 240.692 259.815 240.273 259.228C239.858 258.64 239.268 258.346 238.503 258.346C237.755 258.346 237.17 258.64 236.746 259.228C236.327 259.811 236.112 260.638 236.103 261.709V262.283C236.103 263.377 236.315 264.222 236.739 264.819C237.167 265.416 237.76 265.715 238.516 265.715C239.282 265.715 239.87 265.423 240.28 264.84C240.695 264.257 240.902 263.404 240.902 262.283V261.764ZM247.461 262.734H246.285V267H244.562V257.047H246.285V261.23H247.235L250.161 257.047H252.28L248.862 261.812L252.581 267H250.503L247.461 262.734Z" fill="white"/>
<rect x="61" y="244" width="114.997" height="36" rx="2" stroke="#BB0101"/>
<path d="M98.1638 262.283C98.1638 263.258 97.9952 264.115 97.658 264.854C97.3207 265.587 96.8376 266.152 96.2087 266.549C95.5844 266.941 94.8643 267.137 94.0486 267.137C93.2419 267.137 92.5219 266.941 91.8884 266.549C91.2595 266.152 90.7719 265.59 90.4255 264.86C90.0837 264.131 89.9106 263.29 89.906 262.338V261.777C89.906 260.807 90.0769 259.95 90.4187 259.207C90.7651 258.464 91.2504 257.897 91.8748 257.505C92.5037 257.108 93.2237 256.91 94.0349 256.91C94.8461 256.91 95.5639 257.106 96.1882 257.498C96.8171 257.885 97.3025 258.446 97.6443 259.18C97.9861 259.909 98.1593 260.759 98.1638 261.729V262.283ZM96.4343 261.764C96.4343 260.661 96.2247 259.815 95.8054 259.228C95.3907 258.64 94.8005 258.346 94.0349 258.346C93.2875 258.346 92.7019 258.64 92.2781 259.228C91.8588 259.811 91.6446 260.638 91.6355 261.709V262.283C91.6355 263.377 91.8474 264.222 92.2712 264.819C92.6996 265.416 93.2921 265.715 94.0486 265.715C94.8142 265.715 95.4021 265.423 95.8123 264.84C96.227 264.257 96.4343 263.404 96.4343 262.283V261.764ZM106.65 258.441H103.546V267H101.831V258.441H98.7545V257.047H106.65V258.441ZM110.365 257.047L113.236 264.676L116.1 257.047H118.335V267H116.613V263.719L116.784 259.33L113.844 267H112.607L109.674 259.337L109.845 263.719V267H108.122V257.047H110.365ZM126.364 262.557H122.276V265.619H127.054V267H120.546V257.047H127.006V258.441H122.276V261.189H126.364V262.557ZM136.525 267H134.802V262.577H130.352V267H128.622V257.047H130.352V261.189H134.802V257.047H136.525V267ZM144.43 264.683H140.574L139.768 267H137.97L141.729 257.047H143.281L147.048 267H145.243L144.43 264.683ZM141.06 263.288H143.944L142.502 259.159L141.06 263.288Z" fill="#BB0101"/>
</g>
<defs>
<filter id="filter0_ddd_3458_35" x="35" y="40" width="290" height="259" filterUnits="userSpaceOnUse" color-interpolation-filters="sRGB">
<feFlood flood-opacity="0" result="BackgroundImageFix"/>
<feColorMatrix in="SourceAlpha" type="matrix" values="0 0 0 0 0 0 0 0 0 0 0 0 0 0 0 0 0 0 127 0" result="hardAlpha"/>
<feOffset dy="1"/>
<feGaussianBlur stdDeviation="2.5"/>
<feColorMatrix type="matrix" values="0 0 0 0 0 0 0 0 0 0 0 0 0 0 0 0 0 0 0.2 0"/>
<feBlend mode="normal" in2="BackgroundImageFix" result="effect1_dropShadow_3458_35"/>
<feColorMatrix in="SourceAlpha" type="matrix" values="0 0 0 0 0 0 0 0 0 0 0 0 0 0 0 0 0 0 127 0" result="hardAlpha"/>
<feOffset dy="3"/>
<feGaussianBlur stdDeviation="2"/>
<feColorMatrix type="matrix" values="0 0 0 0 0 0 0 0 0 0 0 0 0 0 0 0 0 0 0.12 0"/>
<feBlend mode="normal" in2="effect1_dropShadow_3458_35" result="effect2_dropShadow_3458_35"/>
<feColorMatrix in="SourceAlpha" type="matrix" values="0 0 0 0 0 0 0 0 0 0 0 0 0 0 0 0 0 0 127 0" result="hardAlpha"/>
<feOffset dy="2"/>
<feGaussianBlur stdDeviation="2"/>
<feColorMatrix type="matrix" values="0 0 0 0 0 0 0 0 0 0 0 0 0 0 0 0 0 0 0.14 0"/>
<feBlend mode="normal" in2="effect2_dropShadow_3458_35" result="effect3_dropShadow_3458_35"/>
<feBlend mode="normal" in="SourceGraphic" in2="effect3_dropShadow_3458_35" result="shape"/>
</filter>
<clipPath id="clip0_3458_35">
<rect width="280" height="248" fill="white" transform="translate(40 44)"/>
</clipPath>
</defs>
</svg>
