<svg width="31" height="30" viewBox="0 0 31 30" fill="none" xmlns="http://www.w3.org/2000/svg">
<path d="M30.3138 9.4C30.2138 9.9 30.2138 10.4 30.1138 11C29.9138 12.6 29.8138 14.4 29.7138 16C29.7138 16.1 29.6138 16.2 29.5138 16.3C28.8138 16.8 28.1138 17.3 27.4138 17.8C26.2138 18.7 24.9138 19.5 23.7138 20.4C22.4138 21.3 21.0138 22.3 19.7138 23.2C19.3138 23.5 18.9138 23.8 18.6138 24C18.3138 23.5 18.1138 23.2 17.7138 22.8C18.3138 22.4 18.9138 21.9 19.6138 21.5C20.8138 20.6 22.1138 19.8 23.3138 18.9C24.7138 18 26.8138 16.4 27.0138 16.2C27.1138 16.1 27.1138 16 27.2138 15.9C27.4138 14.5 27.5138 12.8 27.6138 11.4C27.6138 11.4 27.6138 11.4 27.6138 11.3C27.3138 11.5 27.3138 11.5 27.0138 11.7C26.8138 11.8 26.8138 11.9 26.8138 12.1C26.7138 13.2 26.6138 14.2 26.5138 15.3C26.5138 15.6 26.3138 15.8 26.1138 16C23.9138 17.5 21.7138 19 19.5138 20.6C18.8138 21.1 18.1138 21.5 17.5138 22C17.4138 22.1 17.3138 22.1 17.1138 22C16.8138 21.8 16.4138 21.6 15.7138 21.4C16.0138 21.2 16.4138 20.9 16.7138 20.7C18.4138 19.5 20.0138 18.4 21.7138 17.2C22.5138 16.6 23.3138 16.1 24.1138 15.5C24.3138 15.4 24.2138 15.3 24.2138 15.2C22.3138 12.5 20.5138 9.8 18.6138 7.1C18.5138 6.9 18.3138 6.7 18.2138 6.5C15.1138 8.6 11.9138 10.8 8.91384 12.9C10.9138 15.8 12.8138 18.5 14.8138 21.4C14.2138 21.4 13.7138 21.4 13.1138 21.6C13.0138 21.6 13.0138 21.6 12.9138 21.5C12.2138 20.5 11.5138 19.5 10.8138 18.5C9.91384 17.1 8.91384 15.7 8.01384 14.3C7.61384 13.7 7.41384 13.4 7.01384 12.9C6.81384 12.6 7.11384 12.1 7.11384 11.8C7.41384 10.5 7.81384 9.3 8.11384 8C8.21384 7.8 8.11384 7.6 8.01384 7.4C8.01384 7.3 8.01384 7.2 7.81384 7C7.81384 7.1 6.61384 11 6.21384 12.9C6.31384 13.1 6.41384 13.2 6.51384 13.3C7.61384 14.9 8.71384 16.6 9.91384 18.2C10.7138 19.4 11.6138 20.6 12.4138 21.8C12.4138 21.8 12.4138 21.9 12.5138 21.9C12.1138 22.2 11.7138 22.5 11.3138 22.8C11.2138 22.6 11.0138 22.4 10.9138 22.3C9.71384 20.5 8.51384 18.7 7.21384 16.9C6.61384 16.1 6.11384 15.3 5.51384 14.4C5.41384 14.2 5.31384 14.2 5.21384 14.3C3.91384 15.2 2.51384 16.2 1.21384 17.1C0.813844 17.4 0.413844 17.4 0.213844 17.1C-0.0861561 16.8 -0.0861561 16.2 0.313844 15.9C0.813844 15.6 1.21384 15.3 1.71384 14.9C2.81384 14.2 3.61384 13.6 4.71384 12.8C4.81384 12.8 4.81384 12.7 4.81384 12.6C5.21384 10.8 6.41384 6.8 6.41384 6.6C6.11384 7 5.81384 7.2 5.61384 7.3C5.01384 7.7 4.51384 8.1 3.91384 8.5C3.61384 8.8 3.11384 8.7 2.91384 8.4C2.71384 8.1 2.71384 7.6 3.01384 7.4C3.71384 6.9 4.41384 6.4 5.11384 5.9C5.71384 5.5 6.31384 5.1 6.91384 4.7C7.41384 4.3 7.91384 4.4 8.21384 5C8.61384 5.6 9.01384 6.1 9.31384 6.7L9.41384 6.8C12.7138 4.5 15.9138 2.3 19.2138 0C21.6138 3.5 23.9138 6.9 26.3138 10.4C26.7138 10.1 27.1138 9.9 27.4138 9.6C27.9138 9.3 28.4138 8.9 28.8138 8.6C29.4138 8.2 29.8138 8.3 30.1138 8.9C30.3138 9 30.3138 9.2 30.3138 9.4ZM14.5138 22.4C16.5138 22.4 18.1138 24 18.1138 26.1C18.1138 28.1 16.5138 29.7 14.5138 29.7C12.6138 29.7 10.8138 28.2 10.9138 25.9C11.0138 23.9 12.6138 22.4 14.5138 22.4ZM12.7138 26.1C12.7138 27.1 13.5138 27.9 14.5138 27.9C15.5138 27.9 16.3138 27 16.3138 26.1C16.3138 25.1 15.5138 24.3 14.5138 24.3C13.5138 24.2 12.7138 25.1 12.7138 26.1ZM14.9138 14.5C15.3138 15.1 15.7138 15.7 16.2138 16.3C16.4138 16.6 16.9138 16.7 17.2138 16.5C17.6138 16.2 18.0138 15.9 18.5138 15.6C18.8138 15.4 18.9138 14.9 18.7138 14.6C18.6138 14.3 18.4138 14.1 18.2138 13.9C17.9138 13.5 17.7138 13.1 17.4138 12.7C17.7138 12.5 18.0138 12.3 18.3138 12.1C18.4138 12 18.5138 11.9 18.5138 11.8C18.5138 11.6 18.1138 11.5 18.1138 11.5C17.1138 11.3 16.0138 11.1 15.0138 10.9C14.5138 10.8 14.1138 11 14.0138 11.6C13.9138 12.4 13.7138 13.1 13.6138 13.9C13.5138 14.3 13.5138 14.6 13.4138 15C13.4138 15.2 13.5138 15.3 13.7138 15.2C13.9138 15.1 14.1138 15 14.2138 14.9C14.4138 14.8 14.6138 14.7 14.7138 14.5C14.8138 14.4 14.9138 14.5 14.9138 14.5ZM21.6138 15.2C21.3138 14.7 20.7138 14.6 20.1138 15C18.7138 15.9 17.4138 16.9 16.0138 17.9C15.5138 18.2 15.4138 18.8 15.7138 19.3C16.0138 19.8 16.6138 19.9 17.1138 19.6C18.5138 18.6 19.9138 17.7 21.2138 16.7C21.5138 16.5 21.7138 16.2 21.7138 15.8C21.8138 15.5 21.7138 15.3 21.6138 15.2Z" fill="white"/>
</svg>
