<svg width="100" height="100" viewBox="0 0 100 100" fill="none" xmlns="http://www.w3.org/2000/svg">
<circle cx="50" cy="50" r="49" fill="#1980BE" fill-opacity="0.7" stroke="white" stroke-width="2"/>
<g clip-path="url(#clip0)">
<path d="M50.5 23.6001C52.7 23.6001 54.4 25.4001 54.4 27.5001C54.4 29.6001 52.6 31.4001 50.5 31.4001C48.4 31.4001 46.6 29.6001 46.6 27.5001" stroke="white" stroke-miterlimit="10"/>
<path d="M50 24.1V21.5" stroke="white" stroke-miterlimit="10"/>
<path d="M79.6 77.1001H21.5V45.6001H32.6H79.6V77.1001Z" stroke="white" stroke-miterlimit="10"/>
<path d="M50.3 30.2998L69.2 45.5998H32L50.3 30.2998Z" stroke="white" stroke-miterlimit="10"/>
<path d="M27.8 52.3999V70.9999" stroke="white" stroke-miterlimit="10" stroke-linecap="round" stroke-linejoin="round"/>
<path d="M33.5 52.3999V70.9999" stroke="white" stroke-miterlimit="10" stroke-linecap="round" stroke-linejoin="round"/>
<path d="M39.2 52.3999V70.9999" stroke="white" stroke-miterlimit="10" stroke-linecap="round" stroke-linejoin="round"/>
<path d="M44.9 52.3999V70.9999" stroke="white" stroke-miterlimit="10" stroke-linecap="round" stroke-linejoin="round"/>
<path d="M50.6 52.3999V70.9999" stroke="white" stroke-miterlimit="10" stroke-linecap="round" stroke-linejoin="round"/>
<path d="M56.3 52.3999V70.9999" stroke="white" stroke-miterlimit="10" stroke-linecap="round" stroke-linejoin="round"/>
<path d="M62 52.3999V70.9999" stroke="white" stroke-miterlimit="10" stroke-linecap="round" stroke-linejoin="round"/>
<path d="M67.7 52.3999V70.9999" stroke="white" stroke-miterlimit="10" stroke-linecap="round" stroke-linejoin="round"/>
<path d="M73.4 52.3999V70.9999" stroke="white" stroke-miterlimit="10" stroke-linecap="round" stroke-linejoin="round"/>
<path d="M52.4 21.3H47.7L44.7 12.5H55.4L52.4 21.3Z" stroke="white" stroke-miterlimit="10"/>
</g>
<defs>
<clipPath id="clip0">
<rect width="59.1" height="65.6" fill="white" transform="translate(21 12)"/>
</clipPath>
</defs>
</svg>
