<svg width="236" height="125" viewBox="0 0 236 125" fill="none" xmlns="http://www.w3.org/2000/svg">
<g clip-path="url(#clip0_332_1297)">
<path d="M24.0216 71.1772C23.1723 71.1772 22.5051 70.3479 22.5051 69.2924V48.4849L13.7092 59.5294C13.4363 59.9064 13.0117 60.1703 12.6477 60.0949C12.2534 60.0949 11.8591 59.8688 11.5558 59.5294L3.03303 48.5603V69.2924C3.03303 70.3479 2.36576 71.1772 1.51651 71.1772C0.667266 71.1772 0 70.3479 0 69.2924V43.8862C0 43.1323 0.363964 42.4161 0.940239 42.1522C1.51651 41.8507 2.18378 42.0391 2.60841 42.5669L12.6477 55.4962L22.9601 42.5669C23.3846 42.0391 24.0519 41.8507 24.6282 42.1522C25.1741 42.4538 25.5381 43.1323 25.5381 43.8862V69.2924C25.5381 70.3479 24.8708 71.1772 24.0216 71.1772ZM73.3994 70.2348C73.9756 69.4809 73.915 68.2746 73.3083 67.5585L55.5348 47.4295C54.9281 46.7133 53.9576 46.7887 53.3813 47.5426C52.805 48.2965 52.8657 49.5027 53.4723 50.2189L71.2459 70.3479C71.5491 70.6872 71.9132 70.8379 72.2771 70.8379C72.6714 70.8379 73.096 70.6494 73.3994 70.2348ZM55.5348 70.3479L73.3083 50.2189C73.915 49.5027 73.9756 48.3342 73.3994 47.5426C72.823 46.7887 71.8827 46.7133 71.2459 47.4295L53.4723 67.5585C52.8657 68.2746 52.805 69.4431 53.3813 70.2348C53.6847 70.6494 54.0789 70.8379 54.5036 70.8379C54.8675 70.8379 55.2315 70.6872 55.5348 70.3479ZM114.284 81.4302C114.861 80.6763 114.8 79.47 114.194 78.7537L96.42 58.6248C95.8134 57.9086 94.8428 57.984 94.2666 58.7379C93.6903 59.4918 93.7509 60.6981 94.3575 61.4142L112.131 81.5432C112.434 81.8824 112.798 82.0332 113.162 82.0332C113.587 82.0332 114.012 81.8447 114.284 81.4302ZM96.42 81.5432L114.194 61.4142C114.8 60.6981 114.861 59.5294 114.284 58.7379C113.708 57.984 112.768 57.9086 112.131 58.6248L94.3575 78.7537C93.7509 79.47 93.6903 80.6385 94.2666 81.4302C94.5698 81.8447 94.9642 82.0332 95.3888 82.0332C95.7831 82.0332 96.147 81.8824 96.42 81.5432ZM120.442 80.1485V71.9687H134.424C134.515 71.9687 134.637 71.9687 134.727 71.9311C136.061 71.5918 138.609 69.8955 138.609 66.0129C138.609 61.3388 135.91 59.5294 134.212 59.1525H118.925C118.076 59.1525 117.409 59.9818 117.409 61.0373C117.409 62.0927 118.076 62.922 118.925 62.922L133.939 62.8842C134 62.8842 135.577 63.299 135.577 65.9753C135.577 67.4831 134.637 68.0107 134.212 68.1616H118.925C118.076 68.1616 117.409 68.9909 117.409 70.0463V80.1108C117.409 81.1663 118.076 81.9955 118.925 81.9955C119.774 81.9955 120.442 81.1663 120.442 80.1485ZM144.402 80.1485V71.9687H158.385C158.475 71.9687 158.597 71.9687 158.688 71.9311C160.023 71.5918 162.57 69.8955 162.57 66.0129C162.57 61.3388 159.871 59.5294 158.172 59.1525H142.886C142.037 59.1525 141.369 59.9818 141.369 61.0373C141.369 62.0927 142.037 62.922 142.886 62.922L157.899 62.8842C157.96 62.8842 159.537 63.299 159.537 65.9753C159.537 67.4831 158.597 68.0107 158.172 68.1616H142.886C142.037 68.1616 141.369 68.9909 141.369 70.0463V80.1108C141.369 81.1663 142.037 81.9955 142.886 81.9955C143.735 81.9955 144.402 81.1663 144.402 80.1485ZM162.57 80.1485V75.7005C162.541 75.2859 162.328 73.0996 161.54 71.7802C160.023 69.2546 157.354 68.35 157.051 68.2746C156.231 68.0107 155.412 68.6516 155.2 69.6316C154.987 70.6494 155.473 71.6672 156.292 71.9311C156.838 72.1196 158.385 72.8357 159.112 74.042C159.295 74.3435 159.507 75.3989 159.567 75.8889V80.1485C159.567 81.2039 160.235 82.0332 161.084 82.0332C161.933 82.0332 162.57 81.1663 162.57 80.1485ZM187.229 80.1485C187.229 79.093 186.562 78.2637 185.712 78.2637H169.092V71.9687H185.712C186.562 71.9687 187.229 71.1394 187.229 70.084C187.229 69.0285 186.562 68.1992 185.712 68.1992H167.575C166.725 68.1992 166.058 69.0285 166.058 70.084V80.1485C166.058 81.2039 166.725 82.0332 167.575 82.0332H185.712C186.562 82.0332 187.229 81.1663 187.229 80.1485ZM187.229 61.0749C187.229 60.0195 186.562 59.1903 185.712 59.1903H167.575C166.725 59.1903 166.058 60.0195 166.058 61.0749C166.058 62.1305 166.725 62.9597 167.575 62.9597H185.712C186.562 62.9597 187.229 62.0927 187.229 61.0749ZM97.0266 64.8822C97.0266 63.8266 96.3593 62.9974 95.5101 62.9974H72.4591C71.6099 62.9974 70.9426 63.8266 70.9426 64.8822C70.9426 65.9376 71.6099 66.7668 72.4591 66.7668H95.5101C96.3593 66.7668 97.0266 65.9376 97.0266 64.8822ZM97.0266 76.7559C97.0266 75.7005 96.3593 74.8713 95.5101 74.8713H1.51651C0.667266 74.8713 0 75.7005 0 76.7559C0 77.8113 0.667266 78.6407 1.51651 78.6407H95.5101C96.3593 78.6407 97.0266 77.8113 97.0266 76.7559ZM235.545 53.3098C235.545 52.2544 234.878 51.4251 234.029 51.4251H73.3994C72.5501 51.4251 71.8827 52.2544 71.8827 53.3098C71.8827 54.3653 72.5501 55.1946 73.3994 55.1946H234.029C234.878 55.1946 235.545 54.3653 235.545 53.3098ZM30.5426 70.3855L34.2125 64.0151H45.2224C46.0717 64.0151 46.7389 63.1859 46.7389 62.1305C46.7389 61.0749 46.0717 60.2457 45.2224 60.2457H33.4544C32.9691 60.2457 32.5141 60.5472 32.2108 61.0373L28.0859 68.1992C27.6006 69.0285 27.7522 70.2348 28.4498 70.8379C28.7228 71.0641 29.0261 71.1772 29.3293 71.1772C29.7843 71.1772 30.2696 70.9133 30.5426 70.3855ZM50.5909 70.8756C51.2885 70.3102 51.4705 69.1416 51.0155 68.2746L40.6426 48.7865C40.1877 47.9195 39.2474 47.6933 38.5499 48.2588C37.8522 48.8242 37.6702 49.9927 38.1252 50.8597L48.4981 70.3102C48.8014 70.8756 49.2867 71.1394 49.772 71.1394C50.045 71.1772 50.3179 71.0641 50.5909 70.8756ZM207.368 81.9202C208.824 81.3547 211.281 79.47 211.432 75.7759C211.584 71.8557 209.643 69.6694 208.49 68.9909C208.279 68.8778 208.066 68.8024 207.854 68.8024H193.962C193.477 68.5762 192.355 67.8977 192.416 66.2014C192.506 64.0151 193.447 63.3744 193.811 63.1859H207.974C208.066 63.2612 208.218 63.3744 208.279 63.5251C208.338 63.7513 208.369 64.4675 208.338 64.9952C208.248 66.0129 208.854 66.9553 209.674 67.0684C210.492 67.1815 211.251 66.4653 211.342 65.4098C211.403 64.8822 211.523 63.0727 211.008 61.7912C210.25 59.9442 208.763 59.454 208.582 59.4164C208.46 59.3787 208.369 59.3787 208.248 59.3787L193.325 59.4164C192.052 59.7179 189.564 61.4896 189.412 65.9753C189.261 70.084 191.96 72.0064 193.386 72.4587C193.508 72.4965 193.628 72.5341 193.75 72.5341H207.429C207.823 72.9111 208.49 73.7781 208.43 75.5498C208.369 77.1706 207.156 77.9622 206.67 78.1883H193.477C193.477 78.1883 192.719 78.113 192.477 77.4722C192.294 76.9822 192.294 76.1905 192.324 75.8135C192.416 74.7959 191.839 73.8535 191.02 73.7026C190.201 73.5896 189.443 74.3058 189.322 75.3235C189.292 75.512 189.139 77.3591 189.686 78.9422C190.474 81.2039 192.355 81.8448 193.386 81.9202H206.914C207.095 82.0332 207.247 81.9955 207.368 81.9202ZM231.936 81.9202C233.392 81.3547 235.848 79.47 236 75.7759C236.152 71.8557 234.21 69.6694 233.057 68.9909C232.845 68.8778 232.634 68.8024 232.421 68.8024H218.53C218.105 68.6139 216.923 67.9354 216.983 66.2014C217.074 64.0151 218.014 63.3744 218.378 63.1859H232.542C232.634 63.2612 232.785 63.3744 232.845 63.5251C232.906 63.7513 232.937 64.4675 232.906 64.9952C232.815 66.0129 233.421 66.9553 234.241 67.0684C235.09 67.1815 235.819 66.4653 235.909 65.4098C235.97 64.8822 236.091 63.0727 235.545 61.8288C234.786 59.9818 233.301 59.4918 233.118 59.454C232.998 59.4164 232.906 59.4164 232.785 59.4164L217.863 59.454C216.588 59.7557 214.102 61.5273 213.95 66.0129C213.799 70.1217 216.498 72.0441 217.924 72.4965C218.044 72.5341 218.166 72.5718 218.288 72.5718H231.966C232.361 72.9487 233.028 73.8157 232.967 75.5874C232.906 77.2083 231.694 77.9998 231.208 78.2261H218.014C218.014 78.2261 217.255 78.1507 217.013 77.5098C216.862 77.0576 216.862 76.2659 216.891 75.8889C216.983 74.8713 216.407 73.9289 215.557 73.7781C214.769 73.665 213.98 74.3811 213.859 75.4366C213.828 75.625 213.677 77.4722 214.223 79.0554C215.011 81.317 216.891 81.9578 217.924 82.0332H231.45C231.633 82.0332 231.784 81.9955 231.936 81.9202Z" fill="#101011"/>
</g>
<defs>
<clipPath id="clip0_332_1297">
<rect width="236" height="125" fill="white"/>
</clipPath>
</defs>
</svg>
