<svg width="475" height="141" viewBox="0 0 475 141" fill="none" xmlns="http://www.w3.org/2000/svg">
<path d="M64.5838 58.0821C64.5838 58.9927 64.313 59.8828 63.8055 60.64C63.2981 61.3971 62.5768 61.9872 61.7329 62.3357C60.8891 62.6841 59.9605 62.7753 59.0646 62.5977C58.1688 62.42 57.3459 61.9815 56.7001 61.3376C56.0542 60.6937 55.6143 59.8734 55.4362 58.9803C55.258 58.0872 55.3494 57.1615 55.699 56.3202C56.0485 55.4789 56.6404 54.7598 57.3999 54.2539C58.1593 53.7481 59.0522 53.478 59.9656 53.478C61.1904 53.478 62.3651 53.9631 63.2312 54.8265C64.0972 55.6899 64.5838 56.861 64.5838 58.0821Z" fill="white"/>
<path d="M59.9657 83.5458C59.9656 84.4579 59.6939 85.3495 59.1848 86.1073C58.6758 86.8652 57.9524 87.4553 57.1065 87.8027C56.2605 88.1501 55.3301 88.2392 54.4333 88.0586C53.5365 87.8781 52.7137 87.4361 52.0693 86.7886C51.4249 86.1412 50.9879 85.3175 50.8137 84.4221C50.6395 83.5267 50.7361 82.5999 51.0911 81.7593C51.4461 80.9186 52.0435 80.202 52.8076 79.7004C53.5718 79.1988 54.4681 78.9348 55.383 78.9418C55.9878 78.9418 56.5866 79.0611 57.1449 79.2929C57.7033 79.5247 58.21 79.8644 58.6361 80.2924C59.0621 80.7204 59.3989 81.2282 59.6271 81.7866C59.8553 82.345 59.9704 82.9429 59.9657 83.5458Z" fill="white"/>
<path d="M53.6422 112.126C53.6492 113.04 53.3834 113.935 52.8787 114.698C52.3739 115.46 51.653 116.056 50.8077 116.409C49.9624 116.761 49.0309 116.856 48.1318 116.679C47.2327 116.502 46.4065 116.063 45.7585 115.417C45.1105 114.771 44.67 113.948 44.4929 113.051C44.3158 112.155 44.4103 111.226 44.7642 110.383C45.1182 109.541 45.7156 108.822 46.4805 108.319C47.2453 107.816 48.1431 107.551 49.0595 107.558C50.272 107.567 51.4322 108.051 52.2897 108.906C53.1471 109.761 53.6329 110.918 53.6422 112.126Z" fill="white"/>
<path d="M41.5993 88.1144C41.6063 89.028 41.3406 89.923 40.8358 90.6855C40.3311 91.4481 39.6102 92.0437 38.7649 92.3965C37.9196 92.7494 36.9881 92.8435 36.089 92.667C35.1898 92.4905 34.3637 92.0513 33.7157 91.4053C33.0677 90.7592 32.6271 89.9356 32.4501 89.0393C32.273 88.1429 32.3674 87.2142 32.7214 86.3715C33.0753 85.5288 33.6727 84.8101 34.4376 84.3069C35.2025 83.8037 36.1002 83.5388 37.0166 83.5458C38.2292 83.5551 39.3894 84.0394 40.2468 84.8941C41.1042 85.7489 41.59 86.9056 41.5993 88.1144Z" fill="white"/>
<path d="M37.0167 77.9151C37.0237 78.8272 36.7588 79.7208 36.2557 80.4825C35.7525 81.2443 35.0337 81.8399 34.1905 82.1938C33.3473 82.5477 32.4176 82.644 31.5195 82.4704C30.6213 82.2967 29.7951 81.8611 29.1457 81.2186C28.4962 80.5761 28.0529 79.7559 27.8718 78.8618C27.6907 77.9678 27.78 77.0402 28.1285 76.1969C28.477 75.3535 29.0689 74.6324 29.8291 74.1249C30.5893 73.6174 31.4836 73.3465 32.3985 73.3464C33.6172 73.3464 34.7865 73.8266 35.6515 74.6824C36.5166 75.5382 37.0073 76.7002 37.0167 77.9151Z" fill="white"/>
<path d="M84.8328 78.3753C84.8399 79.2874 84.575 80.181 84.0718 80.9427C83.5687 81.7045 82.8499 82.3001 82.0067 82.6541C81.1635 83.008 80.2338 83.1042 79.3356 82.9306C78.4375 82.7569 77.6113 82.3213 76.9618 81.6788C76.3124 81.0364 75.869 80.2161 75.6879 79.322C75.5068 78.428 75.5962 77.5004 75.9447 76.6571C76.2931 75.8137 76.885 75.0926 77.6452 74.5851C78.4054 74.0776 79.2997 73.8067 80.2146 73.8066C81.4333 73.8066 82.6026 74.2868 83.4677 75.1426C84.3328 75.9984 84.8234 77.1604 84.8328 78.3753Z" fill="white"/>
<path d="M18.5794 93.3916C18.5865 94.3037 18.3216 95.1973 17.8184 95.9591C17.3153 96.7209 16.5965 97.3165 15.7533 97.6704C14.9101 98.0243 13.9804 98.1205 13.0822 97.9469C12.184 97.7733 11.3578 97.3376 10.7084 96.6952C10.059 96.0527 9.61561 95.2324 9.43451 94.3384C9.25342 93.4443 9.34278 92.5168 9.69125 91.6734C10.0397 90.8301 10.6316 90.1089 11.3918 89.6014C12.152 89.094 13.0463 88.823 13.9612 88.823C15.1799 88.823 16.3492 89.3032 17.2143 90.1589C18.0793 91.0147 18.57 92.1767 18.5794 93.3916Z" fill="white"/>
<path d="M23.1621 49.5822C23.162 50.4943 22.8903 51.3859 22.3812 52.1437C21.8722 52.9016 21.1488 53.4917 20.3029 53.8391C19.4569 54.1865 18.5266 54.2756 17.6298 54.095C16.733 53.9145 15.9101 53.4725 15.2657 52.825C14.6213 52.1776 14.1843 51.3539 14.0101 50.4585C13.8359 49.5631 13.9325 48.6363 14.2875 47.7956C14.6425 46.955 15.2399 46.2384 16.004 45.7368C16.7682 45.2352 17.6645 44.9711 18.5794 44.9782C19.1842 44.9781 19.783 45.0975 20.3413 45.3293C20.8997 45.5611 21.4064 45.9008 21.8325 46.3288C22.2585 46.7568 22.5953 47.2646 22.8235 47.823C23.0517 48.3814 23.1668 48.9793 23.1621 49.5822Z" fill="white"/>
<path d="M77.9056 45.6864C77.9126 46.6 77.6468 47.495 77.1421 48.2576C76.6374 49.0201 75.9165 49.6157 75.0712 49.9685C74.2259 50.3214 73.2944 50.4155 72.3952 50.239C71.4961 50.0625 70.67 49.6233 70.022 48.9773C69.374 48.3313 68.9334 47.5077 68.7563 46.6113C68.5793 45.7149 68.6737 44.7863 69.0277 43.9435C69.3816 43.1008 69.979 42.3822 70.7439 41.879C71.5088 41.3758 72.4065 41.1108 73.3229 41.1178C74.5354 41.1271 75.6957 41.6114 76.5531 42.4662C77.4105 43.321 77.8963 44.4776 77.9056 45.6864Z" fill="white"/>
<path d="M10.4087 94.6312L72.7544 45.0137L73.8557 46.3949L17.5136 91.2313L78.4384 77.7379L59.3616 58.6842L60.605 57.4446L81.9908 78.7649L10.4087 94.6312Z" fill="white"/>
<path d="M49.9122 114.889L48.1715 114.535L59.1131 57.9048L60.8538 58.2235L49.9122 114.889Z" fill="white"/>
<path d="M48.2424 115.066L18.6504 49.7239L20.2845 49.0156L49.8766 114.358L48.2424 115.066Z" fill="white"/>
<path d="M73.2308 44.8141L19.3958 48.5012L19.5175 50.2679L73.3525 46.5807L73.2308 44.8141Z" fill="white"/>
<path d="M80.1081 79.1189L73.536 45.8634L75.2412 45.5093L81.8488 78.7647L80.1081 79.1189Z" fill="white"/>
<path d="M18.7414 48.6788L18.3945 50.4155L61.3184 58.9353L61.6652 57.1986L18.7414 48.6788Z" fill="white"/>
<path d="M32.1082 75.6158L31.6642 77.3335L55.1996 83.3807L55.6437 81.6631L32.1082 75.6158Z" fill="white"/>
<path d="M80.3097 78.3433L48.3779 114.111L49.7047 115.288L81.6365 79.5205L80.3097 78.3433Z" fill="white"/>
<path d="M13.8237 92.6296L12.9423 94.167L50.3542 115.484L51.2356 113.947L13.8237 92.6296Z" fill="white"/>
<path d="M17.093 48.4734L12.5029 93.2893L14.27 93.4692L18.86 48.6533L17.093 48.4734Z" fill="white"/>
<path d="M119.114 82.3063V103.733L61.1379 137.095L3.19722 103.733V37.0449L61.1379 3.68324L119.114 37.0449V60.1006L122.311 64.9526V35.2033L61.1379 0L0 35.2033V105.574L61.1379 140.778L122.311 105.574V86.627L119.114 82.3063Z" fill="white"/>
<path d="M144.585 91.2309V58.8255L128.173 83.1561H124.621L108.208 58.8255V91.2309H104.158V50.8569H107.711L126.361 78.6583L145.047 50.8569H148.6V91.2309H144.585Z" fill="white"/>
<path d="M192.508 81.9166H166.184L161.424 91.2309H156.877L177.623 50.8569H181.176L201.993 91.2309H197.339L192.508 81.9166ZM167.996 78.375H190.696L179.364 56.2047L167.996 78.375Z" fill="white"/>
<path d="M210.128 91.2309V50.8569H214.213V69.0961H224.374L240.928 50.8569H246.044L227.962 70.9731L245.724 90.8414V91.1955L241.567 91.8684L224.516 73.0626H214.213V91.2309H210.128Z" fill="white"/>
<path d="M280.041 91.6562C277.376 91.8686 274.961 91.9749 272.936 91.9749C270.223 91.9795 267.515 91.7664 264.836 91.3374C262.285 90.9585 259.854 90.0014 257.731 88.5396C255.534 86.9261 253.835 84.7295 252.829 82.2001C251.448 78.6359 250.819 74.8261 250.982 71.0087C250.826 67.1917 251.454 63.3832 252.829 59.8173C253.836 57.2981 255.535 55.1131 257.731 53.5133C259.846 52.0366 262.28 51.078 264.836 50.7155C267.511 50.2572 270.222 50.032 272.936 50.0426C275.067 50.0426 277.483 50.0426 280.041 50.3967C282.599 50.7509 285.334 50.928 287.927 51.2821L287.75 55.2133C286.471 54.9654 285.192 54.7883 283.913 54.6112C282.634 54.4341 281.32 54.2925 280.041 54.2217L276.488 54.0092H273.327C271.764 54.0092 270.236 54.0092 268.744 54.0092C267.302 54.1357 265.874 54.3965 264.481 54.7883C263.221 55.1815 262.024 55.7541 260.929 56.4883C259.742 57.2707 258.736 58.2971 257.98 59.4986C256.96 60.9584 256.214 62.5902 255.777 64.3152C255.304 66.5144 255.077 68.7595 255.102 71.0087C255.064 73.3288 255.291 75.6458 255.777 77.9148C256.149 79.5862 256.81 81.1801 257.731 82.6251C258.498 83.8188 259.501 84.8433 260.68 85.6355C261.785 86.3453 262.979 86.9051 264.232 87.3C265.618 87.7256 267.049 87.9871 268.495 88.0792C269.987 88.0792 271.515 88.2562 273.078 88.2562H276.24L279.792 88.0792L283.664 87.6542C284.943 87.6542 286.222 87.3 287.501 87.0875L287.821 90.9833C285.334 91.1249 282.705 91.4082 280.041 91.6562Z" fill="white"/>
<path d="M331.303 81.9166H304.979L300.219 91.2309H295.672L316.453 50.8569H320.006L340.823 91.2309H336.134L331.303 81.9166ZM306.791 78.375H329.491L318.159 56.2047L306.791 78.375Z" fill="white"/>
<path d="M348.923 91.2309V50.8569H384.661V91.2309H380.575V54.8235H353.008V91.2309H348.923Z" fill="white"/>
<path d="M410.025 91.2309V54.8235H392.618V50.8569H430.949L430.594 54.8235H414.075V91.2309H410.025Z" fill="white"/>
<path d="M465.373 81.9166H439.049L434.289 91.2309H429.848L450.63 50.8569H454.183L475 91.2309H470.453L465.373 81.9166ZM440.861 78.375H463.561L452.229 56.2047L440.861 78.375Z" fill="white"/>
</svg>
