<svg width="166" height="36" viewBox="0 0 166 36" fill="none" xmlns="http://www.w3.org/2000/svg">
<rect width="166" height="36" rx="2" fill="#0F85C8"/>
<path d="M55.9249 23V13.0469H59.3361C60.4617 13.0469 61.3185 13.2725 61.9064 13.7236C62.4943 14.1748 62.7882 14.847 62.7882 15.7402C62.7882 16.196 62.6652 16.6061 62.4191 16.9707C62.173 17.3353 61.8129 17.6178 61.339 17.8184C61.8767 17.9642 62.2915 18.2399 62.5831 18.6455C62.8793 19.0465 63.0275 19.5296 63.0275 20.0947C63.0275 21.029 62.7267 21.7467 62.1251 22.248C61.5281 22.7493 60.6713 23 59.5548 23H55.9249ZM57.6544 18.5088V21.6191H59.5753C60.1176 21.6191 60.5415 21.4847 60.8468 21.2158C61.1521 20.9469 61.3048 20.5732 61.3048 20.0947C61.3048 19.0602 60.7762 18.5316 59.7189 18.5088H57.6544ZM57.6544 17.2373H59.3497C59.8875 17.2373 60.3068 17.1165 60.6075 16.875C60.9129 16.6289 61.0655 16.2826 61.0655 15.8359C61.0655 15.3438 60.9243 14.9883 60.6417 14.7695C60.3637 14.5508 59.9285 14.4414 59.3361 14.4414H57.6544V17.2373ZM66.6943 16.8545H68.7314C69.4606 16.8545 70.0963 16.9798 70.6386 17.2305C71.1809 17.4811 71.5934 17.8366 71.8759 18.2969C72.1585 18.7572 72.2998 19.2904 72.2998 19.8965C72.2998 20.8262 71.983 21.5736 71.3496 22.1387C70.7207 22.7038 69.8616 22.9909 68.7724 23H64.9648V13.0469H66.6943V16.8545ZM75.0068 23H73.2841V13.0469H75.0068V23ZM66.6943 18.2422V21.6191H68.7246C69.3079 21.6191 69.7614 21.4619 70.0849 21.1475C70.413 20.8285 70.5771 20.4069 70.5771 19.8828C70.5771 19.3815 70.4176 18.985 70.0986 18.6934C69.7796 18.4017 69.3375 18.2513 68.7724 18.2422H66.6943ZM83.1033 18.5566H79.0154V21.6191H83.7937V23H77.2859V13.0469H83.7459V14.4414H79.0154V17.1895H83.1033V18.5566ZM88.7868 16.6426L90.8786 13.0469H92.8746L89.8668 17.9824L92.943 23H90.9264L88.7868 19.3496L86.6403 23H84.6305L87.7135 17.9824L84.6989 13.0469H86.695L88.7868 16.6426ZM99.9526 20.6826H96.0971L95.2905 23H93.4927L97.2524 13.0469H98.8042L102.571 23H100.766L99.9526 20.6826ZM96.5825 19.2881H99.4673L98.0249 15.1592L96.5825 19.2881ZM111.816 13.0469V23H110.093V14.4414H107.044L106.867 18.29C106.798 19.4932 106.65 20.4274 106.422 21.0928C106.199 21.7536 105.873 22.2367 105.445 22.542C105.016 22.8473 104.442 23 103.722 23H103.284V21.6191L103.558 21.5986C103.954 21.5622 104.26 21.4232 104.474 21.1816C104.693 20.9401 104.857 20.5755 104.966 20.0879C105.08 19.5957 105.16 18.8734 105.205 17.9209L105.397 13.0469H111.816Z" fill="white"/>
</svg>
