<svg width="29" height="30" viewBox="0 0 29 30" fill="none" xmlns="http://www.w3.org/2000/svg">
<path d="M12.085 13.884L12.096 13.8958L12.1078 13.9068C12.9167 14.6646 13.8892 15.048 15 15.048C16.1114 15.048 17.0679 14.6638 17.8367 13.8956C18.6434 13.0894 19.057 12.1139 19.057 10.9933C19.057 9.87717 18.6461 8.9216 17.8368 8.15791C17.0726 7.34912 16.1166 6.93863 15 6.93863C13.879 6.93863 12.9029 7.35192 12.0962 8.15806C11.3275 8.92631 10.943 9.88239 10.943 10.9933C10.943 12.1037 11.3266 13.0756 12.085 13.884ZM21.6895 4.30063L21.6894 4.30072L21.6976 4.30875C23.5692 6.13653 24.5 8.35464 24.5 10.9933C24.5 12.2961 24.1628 13.8186 23.462 15.5694L23.4619 15.5694L23.458 15.5795C22.7984 17.3375 21.9855 18.9837 21.0197 20.5192C20.0399 22.0769 19.0608 23.5446 18.0823 24.9224L18.0804 24.9251C17.1495 26.2541 16.3562 27.3109 15.6994 28.0995L15.0142 28.8271C14.8088 28.5947 14.5718 28.3309 14.3034 28.0358C13.8624 27.5064 13.066 26.4896 11.9092 24.9779C10.7557 23.4259 9.73666 21.9426 8.85154 20.5279C8.01743 19.0791 7.24643 17.4505 6.53957 15.6404C5.83757 13.8427 5.5 12.2969 5.5 10.9933C5.5 8.35091 6.41125 6.13158 8.23934 4.30471C10.1146 2.4307 12.359 1.5 15 1.5C17.6407 1.5 19.8605 2.43033 21.6895 4.30063Z" stroke="#BB0101"/>
</svg>
