<svg width="29" height="29" viewBox="0 0 29 29" fill="none" xmlns="http://www.w3.org/2000/svg">
<path d="M12.9062 12.3906C13.5 11.7969 14.2031 11.5 15.0156 11.5C15.8281 11.5 16.5312 11.7969 17.125 12.3906C17.7188 12.9844 18.0156 13.6875 18.0156 14.5C18.0156 15.3125 17.7188 16.0156 17.125 16.6094C16.5312 17.2031 15.8281 17.5 15.0156 17.5C14.2031 17.5 13.5 17.2031 12.9062 16.6094C12.3125 16.0156 12.0156 15.3125 12.0156 14.5C12.0156 13.6875 12.3125 12.9844 12.9062 12.3906ZM11.4531 18.0625C12.4531 19.0312 13.6406 19.5156 15.0156 19.5156C16.3906 19.5156 17.5625 19.0312 18.5312 18.0625C19.5312 17.0625 20.0312 15.875 20.0312 14.5C20.0312 13.125 19.5312 11.9531 18.5312 10.9844C17.5625 9.98438 16.3906 9.48438 15.0156 9.48438C13.6406 9.48438 12.4531 9.98438 11.4531 10.9844C10.4844 11.9531 10 13.125 10 14.5C10 15.875 10.4844 17.0625 11.4531 18.0625ZM8.3125 9.0625C10.3125 7.6875 12.5469 7 15.0156 7C17.4844 7 19.7188 7.6875 21.7188 9.0625C23.7188 10.4375 25.1562 12.25 26.0312 14.5C25.1562 16.75 23.7188 18.5625 21.7188 19.9375C19.7188 21.3125 17.4844 22 15.0156 22C12.5469 22 10.3125 21.3125 8.3125 19.9375C6.3125 18.5625 4.875 16.75 4 14.5C4.875 12.25 6.3125 10.4375 8.3125 9.0625Z" fill="#0F85C8"/>
</svg>
