<svg width="29" height="29" viewBox="0 0 29 29" fill="none" xmlns="http://www.w3.org/2000/svg">
<path d="M14 27C13.9 27 13.8 27 13.6 27C12.8 26.9 12.2 26.7 11.6 26.3C11.3 26.1 11.1 25.9 10.8 25.6L10.6 25.4C10.4 25.2 10.3 25.1 10.1 24.9H10C9.8 24.7 9.6 24.6 9.4 24.4L8.3 23.4C8.2 23.2 8 23 7.8 22.9C7.6 22.7 7.4 22.5 7.2 22.4L4.5 19.9C4.2 19.6 3.9 19.4 3.6 19.1C3.3 18.8 3 18.5 2.7 18.2C2.4 17.9 2.2 17.5 2.1 17C2.1 16.8 2 16.7 2 16.5V15.7V15.5C2.1 15.1 2.1 14.8 2.3 14.5C2.5 14.1 2.7 13.8 3 13.5C3.2 13.3 3.3 13.2 3.5 13C4.1 12.5 4.9 12.2 5.8 12.2C6.6 12.1 7.4 12.3 8.2 12.8C8.5 13 8.8 13.2 9 13.4L9.2 13.5C9.6 13.9 10 14.2 10.3 14.6L10.7 14.9C10.9 15.1 11.2 15.3 11.4 15.6C11.7 15.8 11.9 16.1 12.2 16.3L13.1 17.2C13.3 16.9 13.5 16.6 13.7 16.3L13.9 16C14 15.8 14.1 15.6 14.3 15.4L14.7 15.7L14.3 15.4C14.5 15.1 14.7 14.8 14.8 14.5L15 14C15.1 13.8 15.2 13.6 15.3 13.4L16.1 12.1C16.2 11.9 16.3 11.7 16.5 11.5C16.6 11.3 16.7 11.2 16.8 11C16.9 10.8 17 10.7 17.1 10.5L17.3 10.2C17.4 10 17.5 9.8 17.6 9.6L18.2 8.7C18.3 8.5 18.5 8.3 18.6 8.1L19.6 6.5C19.7 6.3 19.8 6.1 19.9 6L20.5 5C20.8 4.5 21.1 4.1 21.6 3.8C22 3.5 22.5 3.3 23 3.1C23.1 3.1 23.3 3 23.4 3H24.2H24.3C24.9 3 25.5 3.2 26.1 3.5C26.5 3.8 26.9 4.1 27.2 4.5C27.5 4.8 27.7 5.2 27.8 5.6C27.9 5.8 27.9 6.1 28 6.4C28 7 28 7.5 27.7 8C27.5 8.4 27.3 8.7 27.1 9.1C26.9 9.5 26.7 9.8 26.5 10L26 10.9C25.9 11.1 25.8 11.2 25.7 11.4C25.6 11.6 25.5 11.8 25.4 11.9L25.2 12.3C25.1 12.5 25 12.7 24.9 12.8L22.7 16.6C22.5 17 22.3 17.3 22.1 17.6L20.8 19.8C20.7 20 20.6 20.2 20.5 20.3L18.5 23.6C18.4 23.8 18.3 24 18.2 24.1L17.5 25C17.3 25.3 17.2 25.5 17 25.7C16.7 26 16.4 26.2 16.1 26.4C15.4 26.8 14.7 27 14 27ZM10.7 24.2C10.9 24.4 11.1 24.6 11.3 24.7L11.5 24.8C11.8 25 12 25.2 12.2 25.4C12.6 25.7 13.1 25.9 13.7 25.9C14.3 25.9 15 25.8 15.5 25.5C15.7 25.4 15.9 25.2 16.2 25C16.3 24.9 16.5 24.7 16.6 24.5L17.2 23.6C17.3 23.4 17.4 23.3 17.5 23.1L19.5 19.8C19.6 19.6 19.7 19.4 19.8 19.3L21.1 17.1C21.3 16.8 21.5 16.5 21.7 16.2L24 12.3C24.1 12.1 24.2 11.9 24.3 11.8L24.5 11.4C24.6 11.2 24.7 11.1 24.8 10.9C25 10.7 25 10.6 25.1 10.4L25.6 9.5C25.8 9.2 26 8.9 26.1 8.6C26.3 8.2 26.5 7.9 26.7 7.5C27 7.3 27 6.9 27 6.5C27 6.3 26.9 6.1 26.9 5.9C26.8 5.6 26.7 5.3 26.5 5.1C26.3 4.8 26 4.6 25.6 4.4C25.2 4.2 24.7 4 24.3 4H24.2H23.6C23.4 4 23.3 4 23.2 4.1C22.8 4.2 22.4 4.4 22.1 4.6C21.8 4.8 21.5 5.1 21.3 5.5L20.7 6.5C20.6 6.7 20.5 6.9 20.4 7L19.4 8.6C19.2 8.9 19.1 9.1 19 9.3L18.4 10.3C18.3 10.5 18.2 10.7 18.1 10.8L17.9 11.2C17.8 11.4 17.7 11.5 17.6 11.7C17.5 11.9 17.4 12 17.3 12.2C17.2 12.4 17.1 12.5 17 12.7L16.2 14C16.1 14.2 16 14.3 15.9 14.5L15.6 15C15.4 15.3 15.2 15.6 15 15.9C14.9 16.1 14.8 16.2 14.7 16.4L14.5 16.8C14.3 17.1 14.1 17.4 13.9 17.7L13.2 18.7L11.5 17.1C11.2 16.8 10.9 16.6 10.7 16.3C10.5 16.1 10.2 15.9 10 15.6L9.6 15.3C9.2 14.9 8.9 14.6 8.5 14.3L8.4 14.2C8.1 13.9 7.9 13.7 7.7 13.6C7.1 13.3 6.5 13.1 5.9 13.2C5.2 13.2 4.7 13.4 4.2 13.8C4.1 13.9 3.9 14.1 3.8 14.2C3.6 14.4 3.5 14.5 3.3 14.9C3.1 15.1 3 15.3 3 15.6V15.7V16.3C3 16.5 3 16.6 3.1 16.7C3.2 17 3.3 17.2 3.5 17.4C3.8 17.7 4.1 18 4.4 18.2C4.7 18.5 5 18.8 5.3 19L8 21.6C8.2 21.7 8.3 21.9 8.5 22.1C8.7 22.3 8.9 22.5 9.1 22.6L10.3 23.7C10.4 23.8 10.6 24 10.7 24.2Z" fill="#BB0101"/>
</svg>
