<svg width="114" height="135" viewBox="0 0 114 135" fill="none" xmlns="http://www.w3.org/2000/svg">
<path d="M110.376 133.5H111.876V132V101.414V99.9141H110.376H56.0701C59.6498 97.6604 64.4762 94.8961 70.5693 91.6168L70.5727 91.6149C79.4142 86.827 86.5382 82.5958 91.9286 78.9232C97.422 75.1805 102.095 70.4592 105.947 64.7722C109.916 58.9563 111.876 52.1206 111.876 44.3291C111.876 34.7273 109.479 26.6409 104.585 20.1766C99.7418 13.7805 93.304 9.11811 85.3208 6.18418C77.4302 3.24438 68.7992 1.78418 59.4434 1.78418C50.9497 1.78418 43.3023 2.77882 36.517 4.79038L36.5153 4.7909C29.7342 6.81016 23.8955 9.97193 19.0287 14.2912L19.0287 14.2912L19.0253 14.2943C14.1597 18.6396 10.4583 24.2904 7.89549 31.1948L7.89351 31.2002C5.35692 38.1155 4.11035 46.2824 4.11035 55.667V57.167H5.61035H39.2725H40.7725V55.667C40.7725 48.8619 42.1389 43.3532 44.7691 39.0502C47.2749 34.9966 51.4391 32.8652 57.6416 32.8652C61.3402 32.8652 64.5628 33.9373 67.3673 36.074L67.3736 36.0788L67.38 36.0836C70.1063 38.1154 71.4346 40.7607 71.4346 44.1533C71.4346 48.6171 69.9444 52.6295 66.9086 56.2397L66.9043 56.2448C63.7968 59.9739 59.4013 63.8109 53.6726 67.7457C47.9041 71.6988 41.5641 76.0181 34.6526 80.7039C27.7045 85.405 21.9201 90.1577 17.3187 94.9675C12.0066 100.43 8.06969 106.069 5.55242 111.892C3.02357 117.712 1.78125 124.426 1.78125 132V133.5H3.28125H110.376Z" fill="#1669A6" stroke="white" stroke-width="3"/>
</svg>
