<svg width="256" height="116" viewBox="0 0 256 116" fill="none" xmlns="http://www.w3.org/2000/svg">
<path d="M10.7109 60.1641H2.44922V72H0.0273438V43.5625H9.26562C12.2995 43.5625 14.6693 44.2982 16.375 45.7695C18.0807 47.2409 18.9336 49.2982 18.9336 51.9414C18.9336 53.7643 18.3997 55.3724 17.332 56.7656C16.2643 58.1589 14.832 59.1224 13.0352 59.6562L20.1445 71.7461V72H17.5859L10.7109 60.1641ZM2.44922 58.1133H9.8125C11.8307 58.1133 13.4518 57.5404 14.6758 56.3945C15.8997 55.2487 16.5117 53.7643 16.5117 51.9414C16.5117 49.9362 15.8737 48.3802 14.5977 47.2734C13.3216 46.1667 11.5312 45.6133 9.22656 45.6133H2.44922V58.1133ZM40.8281 64.0312H27.918L24.9883 72H22.4688L33.2305 43.5625H35.5156L46.2773 72H43.7773L40.8281 64.0312ZM28.6602 61.9805H40.0664L34.3633 46.4922L28.6602 61.9805ZM53.4062 72H51.0039V43.5625H53.4062V72ZM63.5625 69.9688H77.6055V72H61.1406V43.5625H63.5625V69.9688ZM94.3828 69.9688H108.426V72H91.9609V43.5625H94.3828V69.9688ZM132.781 59.3242C132.781 61.9414 132.326 64.2396 131.414 66.2188C130.516 68.1979 129.227 69.7214 127.547 70.7891C125.867 71.8568 123.927 72.3906 121.727 72.3906C118.406 72.3906 115.724 71.2057 113.68 68.8359C111.635 66.4531 110.613 63.2435 110.613 59.207V56.2773C110.613 53.6862 111.069 51.3945 111.98 49.4023C112.905 47.3971 114.207 45.8607 115.887 44.793C117.566 43.7122 119.5 43.1719 121.688 43.1719C123.875 43.1719 125.802 43.6992 127.469 44.7539C129.148 45.8086 130.444 47.2995 131.355 49.2266C132.267 51.1537 132.742 53.3867 132.781 55.9258V59.3242ZM130.379 56.2383C130.379 52.8138 129.604 50.1315 128.055 48.1914C126.505 46.2513 124.383 45.2812 121.688 45.2812C119.044 45.2812 116.935 46.2578 115.359 48.2109C113.797 50.151 113.016 52.8659 113.016 56.3555V59.3242C113.016 62.6966 113.797 65.3724 115.359 67.3516C116.922 69.3177 119.044 70.3008 121.727 70.3008C124.448 70.3008 126.57 69.3307 128.094 67.3906C129.617 65.4375 130.379 62.7227 130.379 59.2461V56.2383ZM159.363 68.6211C158.53 69.806 157.221 70.7305 155.438 71.3945C153.667 72.0586 151.681 72.3906 149.48 72.3906C147.254 72.3906 145.275 71.8568 143.543 70.7891C141.811 69.7214 140.47 68.2109 139.52 66.2578C138.569 64.3047 138.087 62.0651 138.074 59.5391V55.9453C138.074 52 139.07 48.888 141.062 46.6094C143.055 44.3177 145.73 43.1719 149.09 43.1719C152.02 43.1719 154.376 43.9206 156.16 45.418C157.944 46.9023 159.005 48.9531 159.344 51.5703H156.941C156.59 49.487 155.737 47.9115 154.383 46.8438C153.042 45.763 151.284 45.2227 149.109 45.2227C146.453 45.2227 144.35 46.1667 142.801 48.0547C141.251 49.9427 140.477 52.6055 140.477 56.043V59.4023C140.477 61.5638 140.841 63.4779 141.57 65.1445C142.312 66.7982 143.367 68.0807 144.734 68.9922C146.115 69.9036 147.697 70.3594 149.48 70.3594C151.551 70.3594 153.328 70.0339 154.812 69.3828C155.776 68.9531 156.492 68.4518 156.961 67.8789V60.5352H149.324V58.5039H159.363V68.6211ZM169.109 72H166.707V43.5625H169.109V72ZM192.938 65.0078C192.938 63.4323 192.384 62.1888 191.277 61.2773C190.171 60.3529 188.146 59.4805 185.203 58.6602C182.26 57.8268 180.112 56.9219 178.758 55.9453C176.831 54.5651 175.867 52.7552 175.867 50.5156C175.867 48.3412 176.759 46.5768 178.543 45.2227C180.34 43.8555 182.632 43.1719 185.418 43.1719C187.306 43.1719 188.992 43.5365 190.477 44.2656C191.974 44.9948 193.133 46.0104 193.953 47.3125C194.773 48.6146 195.184 50.0664 195.184 51.668H192.762C192.762 49.7279 192.098 48.1719 190.77 47C189.441 45.8151 187.658 45.2227 185.418 45.2227C183.243 45.2227 181.512 45.7109 180.223 46.6875C178.934 47.651 178.289 48.9141 178.289 50.4766C178.289 51.9219 178.868 53.1003 180.027 54.0117C181.186 54.9232 183.042 55.7305 185.594 56.4336C188.146 57.1237 190.079 57.8464 191.395 58.6016C192.71 59.3438 193.699 60.2357 194.363 61.2773C195.027 62.319 195.359 63.5495 195.359 64.9688C195.359 67.2083 194.461 69.0052 192.664 70.3594C190.88 71.7135 188.523 72.3906 185.594 72.3906C183.589 72.3906 181.746 72.0326 180.066 71.3164C178.4 70.6003 177.13 69.5977 176.258 68.3086C175.398 67.0195 174.969 65.5417 174.969 63.875H177.371C177.371 65.8802 178.12 67.4622 179.617 68.6211C181.115 69.7799 183.107 70.3594 185.594 70.3594C187.807 70.3594 189.585 69.8711 190.926 68.8945C192.267 67.918 192.938 66.6224 192.938 65.0078ZM219.852 45.6133H210.105V72H207.703V45.6133H197.977V43.5625H219.852V45.6133ZM227.391 72H224.988V43.5625H227.391V72ZM255.262 63.1328C254.936 66.1276 253.862 68.4193 252.039 70.0078C250.229 71.5964 247.814 72.3906 244.793 72.3906C242.684 72.3906 240.815 71.8633 239.188 70.8086C237.573 69.7539 236.323 68.263 235.438 66.3359C234.552 64.3958 234.103 62.1823 234.09 59.6953V56.0039C234.09 53.4779 234.533 51.2383 235.418 49.2852C236.303 47.332 237.573 45.8281 239.227 44.7734C240.893 43.7057 242.807 43.1719 244.969 43.1719C248.016 43.1719 250.418 43.9987 252.176 45.6523C253.947 47.293 254.975 49.5651 255.262 52.4688H252.84C252.241 47.638 249.617 45.2227 244.969 45.2227C242.391 45.2227 240.333 46.1862 238.797 48.1133C237.273 50.0404 236.512 52.7031 236.512 56.1016V59.5781C236.512 62.8594 237.254 65.4766 238.738 67.4297C240.236 69.3828 242.254 70.3594 244.793 70.3594C247.306 70.3594 249.201 69.7604 250.477 68.5625C251.753 67.3516 252.54 65.5417 252.84 63.1328H255.262Z" fill="black"/>
</svg>
