<svg width="352" height="116" viewBox="0 0 352 116" fill="none" xmlns="http://www.w3.org/2000/svg">
<path d="M125.629 24.5884C125.629 24.5884 118.664 23.1964 110.679 25.8876C102.693 28.5788 96.4714 31.9196 94.9857 34.054C93.5 36.1884 96.5643 37.2092 97.3071 38.9724C97.9571 40.7356 96.5643 40.9212 95.45 45.7468C94.4286 50.6652 93.6857 52.7068 95.2643 57.9036C96.75 63.1004 98.6071 68.4828 98.6071 68.4828C98.6071 68.4828 98.7 72.6588 100.371 73.958C102.043 75.2572 103.343 76.4636 105.479 76.1852C107.614 75.9068 111.05 74.0508 111.05 74.0508C111.05 74.0508 107.243 78.6908 106.5 79.99C105.757 81.382 104.457 83.0524 104.457 83.0524C104.457 83.0524 101.021 81.7532 96.5643 78.6908C92.1071 75.6284 84.9571 70.6172 81.8929 68.39C78.8286 66.1628 75.5786 64.3996 75.0214 62.0796C74.4643 59.7596 73.2571 55.5836 74.7429 50.4796C76.2286 45.2828 80.1286 35.2604 80.1286 35.2604C80.1286 35.2604 76.7857 32.198 75.5786 30.7132C74.3714 29.2284 72.4214 27.3724 74 24.6812C75.5786 21.99 76.5071 21.8972 79.0143 22.1756C81.5214 22.454 86.7214 23.1964 86.7214 23.1964C86.7214 23.1964 88.3929 21.6188 90.8071 21.3404C93.0357 21.062 101.95 20.7836 109.193 20.8764C116.436 20.9692 119.314 20.4124 121.729 21.7116C124.05 23.0108 125.629 24.5884 125.629 24.5884Z" fill="#F7B655"/>
<path d="M150.607 75.9066H118.293C118.293 75.9066 115.507 78.505 112.35 80.361C109.193 82.217 109.75 83.5162 106.221 83.145C102.693 82.8666 101.857 82.0314 97.4 79.5258C92.9428 77.0202 91.7357 75.9066 91.7357 75.9066H57.2857C57.2857 75.9066 52.7357 76.3706 50.7857 74.1434C48.8357 71.9162 47.0714 70.5242 47.0714 67.1834C47.0714 63.8426 47.0714 56.0474 47.0714 56.0474H35.3714V67.7402C35.3714 67.7402 35.0929 75.9066 42.0571 81.4746C49.0214 87.0426 54.4071 88.1562 56.6357 88.1562C58.8643 88.1562 150.607 88.1562 150.607 88.1562V75.9066Z" fill="#F7B655"/>
<path d="M41.5929 42.0345C41.5929 35.5385 46.2357 30.0633 52.4572 28.9498C51.6214 28.7642 50.7857 28.6714 49.95 28.6714C42.5214 28.6714 36.5786 34.6105 36.5786 42.0345C36.5786 49.4585 42.5214 55.3977 49.95 55.3977C50.7857 55.3977 51.6214 55.3049 52.4572 55.1193C46.3286 53.9129 41.5929 48.5305 41.5929 42.0345Z" fill="#F7B655"/>
<path d="M106.314 84.166H104.643C103.157 83.9804 101.393 83.1452 99.7214 82.2172C97.6786 81.1036 78.55 67.7404 76.0429 65.4204C73.35 62.9148 73.0714 60.4092 73.1643 55.6764C73.2571 51.5004 73.8143 49.7372 74.7429 46.6748C74.9286 46.0252 75.2071 45.2828 75.3929 44.4476C76.9714 38.9724 80.9643 30.2492 81.8 28.5788C83.8429 24.2172 85.7929 22.5468 87.5571 21.526C89.5071 20.3196 93.3143 20.134 96.6571 20.0412C99.4429 19.9484 102.693 20.0412 102.693 20.0412H109.564C109.564 20.0412 111.421 19.9484 114.207 20.0412C117.55 20.134 121.357 20.3196 123.307 21.526C124.979 22.5468 127.021 24.2172 129.064 28.5788C129.807 30.2492 133.8 39.0652 135.471 44.4476C135.75 45.2828 135.936 46.0252 136.121 46.6748C137.05 49.7372 137.7 51.5932 137.7 55.6764C137.793 60.4092 137.514 62.9148 134.821 65.4204C132.314 67.7404 113.186 81.1036 111.143 82.2172C109.564 83.1452 107.893 83.9804 106.314 84.166ZM105.014 82.31H105.85C107.057 82.31 108.729 81.4748 110.307 80.5468C112.257 79.4332 131.293 66.1628 133.614 64.0284C135.657 62.0796 135.936 60.4092 135.843 55.6764C135.75 51.7788 135.286 50.2012 134.357 47.2316C134.171 46.582 133.893 45.8396 133.707 45.0044C132.5 40.9212 129.529 33.9612 127.393 29.3212C125.629 25.4236 123.864 23.9388 122.379 23.1036C120.707 22.0828 116.25 21.8972 114.207 21.8972C111.514 21.8044 109.657 21.8972 109.657 21.8972H102.693C102.6 21.8972 99.4429 21.8044 96.75 21.8972C94.6143 21.99 90.25 22.0828 88.5786 23.1036C87.0929 24.0316 85.3286 25.4236 83.5643 29.3212C81.4286 33.9612 78.55 40.8284 77.25 45.0044C76.9714 45.8396 76.7857 46.582 76.6 47.2316C75.6714 50.2012 75.1143 51.8716 75.1143 55.6764C75.0214 60.4092 75.3 62.0796 77.3429 64.0284C79.6643 66.1628 98.7 79.526 100.65 80.5468C102.136 81.4748 103.9 82.31 105.014 82.31Z" fill="#00398C"/>
<path d="M99.2112 36.5395C99.3584 35.3699 98.0339 34.2402 96.253 34.0164C94.4721 33.7925 92.9091 34.5592 92.7619 35.7288C92.6146 36.8984 93.939 38.028 95.7199 38.2519C97.5008 38.4757 99.0639 37.7091 99.2112 36.5395Z" fill="#00398C"/>
<path d="M114.477 38.3036C116.258 38.0798 117.582 36.9501 117.435 35.7806C117.288 34.6109 115.725 33.8443 113.944 34.0681C112.163 34.292 110.838 35.4216 110.986 36.5913C111.133 37.7608 112.696 38.5275 114.477 38.3036Z" fill="#00398C"/>
<path d="M104.829 56.8831C104.829 56.8831 104.829 54.8415 103.993 53.6351C103.436 52.7071 100.186 51.5007 100.279 49.6447C100.371 47.7887 102.6 47.2319 105.479 47.3247C108.357 47.4175 110.679 47.6031 110.679 49.6447C110.679 51.6863 107.893 52.6143 107.429 53.5423C106.5 55.3983 106.779 56.8831 106.779 56.8831H104.829Z" fill="#00398C"/>
<path d="M97.5857 68.4824C97.4 68.1112 93.5929 58.46 93.4071 52.9848C93.2214 46.7672 94.5214 43.0552 97.5857 40.9208C100.464 38.8792 104.179 38.972 107.521 39.2504C111.05 39.5288 113.836 41.292 115.879 44.3544C117.55 46.86 118.014 50.8504 117.086 55.0264C116.343 58.6456 113.186 68.204 113 68.5752L111.236 68.0184C111.236 67.9256 114.486 58.0888 115.229 54.6552C115.971 51.036 115.6 47.5096 114.3 45.3752C112.629 42.7768 110.4 41.3848 107.429 41.1064C104.457 40.828 101.114 40.828 98.7 42.4984C96.1929 44.2616 95.0786 47.5096 95.2643 52.9848C95.45 58.1816 99.2571 67.8328 99.2571 67.9256L97.5857 68.4824Z" fill="#00398C"/>
<path d="M78.9214 36.3739C78.9214 36.3739 76.6929 33.5899 74.7429 31.5483C72.3286 29.0427 72.3286 27.0011 72.5143 25.7019C72.8857 22.7323 75.5786 21.3403 77.9929 21.3403C80.4071 21.3403 86.5357 22.3611 86.7214 22.3611L86.4429 24.2171C86.35 24.2171 80.2214 23.1963 77.9929 23.1963C76.3214 23.1963 74.65 24.0315 74.3714 25.8875C74.2786 26.9083 74.2786 28.3003 76.1357 30.1563C78.1786 32.2907 80.3143 34.9819 80.4071 35.1675L78.9214 36.3739Z" fill="#00398C"/>
<path d="M132.314 36.3739L130.829 35.2603C130.921 35.1675 133.15 32.3835 135.1 30.2491C136.864 28.3931 136.957 27.0011 136.864 25.9803C136.586 24.1243 134.821 23.2891 133.243 23.2891C131.014 23.2891 124.793 24.3099 124.793 24.3099L124.514 22.4539C124.793 22.4539 130.829 21.4331 133.243 21.4331C135.657 21.4331 138.35 22.7323 138.721 25.7947C138.907 27.0939 138.814 29.1355 136.493 31.6411C134.543 33.4971 132.407 36.2811 132.314 36.3739Z" fill="#00398C"/>
<path d="M151.35 94.4669H59.6071V58.1821H74.0929V60.9661H62.3929V91.6829H148.564V60.9661H136.864V58.1821H151.35V94.4669Z" fill="#00398C"/>
<path d="M80.9643 67.2764H79.1071V93.0748H80.9643V67.2764Z" fill="#00398C"/>
<path d="M131.386 67.2764H129.529V93.0748H131.386V67.2764Z" fill="#00398C"/>
<path d="M98.1428 79.5259H96.2857V93.1675H98.1428V79.5259Z" fill="#00398C"/>
<path d="M114.764 79.5259H112.907V93.1675H114.764V79.5259Z" fill="#00398C"/>
<path d="M149.361 78.792L134.538 92.4332L135.796 93.7985L150.619 80.1573L149.361 78.792Z" fill="#00398C"/>
<path d="M61.6064 78.8472L60.3484 80.2124L75.1707 93.8537L76.4288 92.4884L61.6064 78.8472Z" fill="#00398C"/>
<path d="M62.3929 84.4443H59.6071V96.6939H62.3929V84.4443Z" fill="#00398C"/>
<path d="M151.35 84.4443H148.564V96.6939H151.35V84.4443Z" fill="#00398C"/>
<path d="M64.6214 57.0681H35V27.3721H64.6214V57.0681ZM36.8571 55.2121H62.7643V29.2281H36.8571V55.2121Z" fill="#00398C"/>
<path d="M49.8571 56.326C42.0571 56.326 35.7429 50.0155 35.7429 42.2203C35.7429 34.4251 42.0571 28.1147 49.8571 28.1147C57.6571 28.1147 63.8786 34.4251 63.8786 42.2203C63.8786 50.0155 57.5643 56.326 49.8571 56.326ZM49.8571 29.9707C43.0786 29.9707 37.6 35.4459 37.6 42.2203C37.6 48.9947 43.0786 54.47 49.8571 54.47C56.6357 54.47 62.1143 48.9947 62.1143 42.2203C62.1143 35.4459 56.5429 29.9707 49.8571 29.9707Z" fill="#00398C"/>
<path d="M36.5944 27.6895L35.2494 28.9694L44.1502 38.3109L45.4952 37.031L36.5944 27.6895Z" fill="#00398C"/>
<path d="M62.901 27.7368L54.0002 37.0784L55.3451 38.3583L64.2459 29.0167L62.901 27.7368Z" fill="#00398C"/>
<path d="M44.1508 46.3169L35.2501 55.6585L36.595 56.9384L45.4957 47.5968L44.1508 46.3169Z" fill="#00398C"/>
<path d="M55.3443 46.2324L53.9993 47.5123L62.9001 56.8539L64.245 55.574L55.3443 46.2324Z" fill="#00398C"/>
<path d="M40.7571 20.8765C40.7571 20.8765 40.0143 21.8045 39.4571 23.5677C38.9 25.3309 38.6214 27.0013 40.3857 27.0013C42.5214 27.0013 42.15 25.2381 41.6857 23.6605C41.3143 21.8045 40.7571 20.8765 40.7571 20.8765Z" fill="#00398C"/>
<path d="M45.1214 20.8765C45.1214 20.8765 44.3786 21.8045 43.8214 23.5677C43.2643 25.3309 42.9857 27.0013 44.8428 27.0013C46.9786 27.0013 46.6071 25.2381 46.1428 23.6605C45.6786 21.8045 45.1214 20.8765 45.1214 20.8765Z" fill="#00398C"/>
<path d="M49.5786 20.8765C49.5786 20.8765 48.8357 21.8045 48.2786 23.5677C47.7214 25.3309 47.4429 27.0013 49.3 27.0013C51.4357 27.0013 51.0643 25.2381 50.6 23.6605C50.1357 21.8045 49.5786 20.8765 49.5786 20.8765Z" fill="#00398C"/>
<path d="M53.9429 20.8765C53.9429 20.8765 53.2 21.8045 52.6429 23.5677C52.0857 25.3309 51.8071 27.0013 53.6643 27.0013C55.8 27.0013 55.4286 25.2381 54.9643 23.6605C54.5 21.8045 53.9429 20.8765 53.9429 20.8765Z" fill="#00398C"/>
<path d="M58.4 20.8765C58.4 20.8765 57.6571 21.8045 57.1 23.5677C56.5428 25.3309 56.2643 27.0013 58.1214 27.0013C60.2571 27.0013 59.8857 25.2381 59.4214 23.6605C58.8643 21.8045 58.4 20.8765 58.4 20.8765Z" fill="#00398C"/>
<path d="M102.321 68.5757C102.321 68.5757 101.95 69.4109 101.764 70.8957C101.579 72.3805 101.579 73.8653 102.6 73.7725C103.807 73.6797 103.529 72.1949 103.157 70.8957C102.693 69.4109 102.321 68.5757 102.321 68.5757Z" fill="#00398C"/>
<path d="M108.45 68.5757C108.45 68.5757 108.821 69.4109 109.007 70.8957C109.193 72.3805 109.193 73.8653 108.171 73.7725C106.964 73.6797 107.243 72.1949 107.614 70.8957C108.079 69.4109 108.45 68.5757 108.45 68.5757Z" fill="#00398C"/>
<path d="M102.321 63.1931C102.321 63.1931 101.95 62.3579 101.764 60.8731C101.579 59.3883 101.579 57.9035 102.6 57.9963C103.807 58.0891 103.529 59.5739 103.157 60.8731C102.693 62.4507 102.321 63.1931 102.321 63.1931Z" fill="#00398C"/>
<path d="M108.45 63.1931C108.45 63.1931 108.821 62.3579 109.007 60.8731C109.193 59.3883 109.193 57.9035 108.171 57.9963C106.964 58.0891 107.243 59.5739 107.614 60.8731C108.079 62.4507 108.45 63.1931 108.45 63.1931Z" fill="#00398C"/>
<path d="M105.386 77.2985C101.114 77.2985 97.5857 73.865 97.5857 69.5962V62.0794C97.5857 57.8106 101.021 54.377 105.293 54.377C109.564 54.377 113.093 57.8106 113.093 62.0794V69.5962C113.093 73.7722 109.564 77.2985 105.386 77.2985ZM105.386 56.3258C102.136 56.3258 99.4429 58.9242 99.4429 62.1722V69.689C99.4429 72.937 102.043 75.5354 105.293 75.5354H105.386C108.636 75.5354 111.236 72.937 111.236 69.689V62.1722C111.236 58.9242 108.543 56.3258 105.386 56.3258Z" fill="#00398C"/>
<path d="M105.2 71.2666C102.971 71.2666 101.021 72.1018 99.9071 73.401C101.114 75.1642 103.157 76.3706 105.479 76.3706H105.571C107.707 76.3706 109.657 75.3498 110.864 73.7722C109.75 72.2874 107.614 71.2666 105.2 71.2666Z" fill="#00398C"/>
<path d="M105.664 59.5742C107.893 59.5742 109.843 58.739 110.957 57.4398C109.75 55.6766 107.707 54.4702 105.386 54.4702H105.293C103.157 54.4702 101.207 55.491 100 57.0686C101.021 58.5534 103.157 59.5742 105.664 59.5742Z" fill="#00398C"/>
<path d="M158.761 79.1219V47.9482H172.582V53.2706H162.438V60.3671H167.89C169.919 60.3671 171.441 61.2541 172.582 62.9015C173.723 64.5488 174.357 66.9565 174.357 69.7444C174.357 72.1522 173.85 74.4332 172.962 76.334C171.948 78.2349 170.3 79.1219 168.017 79.1219H158.761ZM162.565 65.6893V73.9263H166.496C167.51 73.9263 168.271 73.7996 168.778 73.6728C169.285 73.4194 169.666 73.0392 169.919 72.4056C170.3 71.772 170.426 70.8849 170.426 69.9979C170.426 67.21 169.158 65.816 166.622 65.816H162.565V65.6893Z" fill="#00398C"/>
<path d="M195.66 79.1219V47.9482H209.481V53.2706H199.464V60.2403H208.72V65.4359H199.464V73.9263H209.862V79.2486H195.66V79.1219Z" fill="#00398C"/>
<path d="M235.475 79.1219V53.2706H230.023V47.9482H244.732V53.2706H239.279V79.1219H235.475Z" fill="#00398C"/>
<path d="M269.585 79.1219V53.2706H264.132V47.9482H278.841V53.2706H273.389V79.1219H269.585Z" fill="#00398C"/>
<path d="M316.374 79.1219H312.317L310.668 72.0255H303.187L301.665 79.1219H297.735L304.962 47.9482H308.893L316.374 79.1219ZM309.4 66.8298L306.864 55.2982L304.328 66.8298H309.4Z" fill="#00398C"/>
<path d="M160.282 93.6949V85.2045H158V84.064H163.706V85.2045H161.297V93.6949H160.282Z" fill="#00398C"/>
<path d="M163.833 93.6946L166.622 84.1904H167.637L170.553 93.6946H169.412L168.524 90.78H165.608L164.847 93.6946H163.833ZM165.862 89.7662H168.271L167.51 87.1051C167.256 86.3447 167.13 85.5844 167.003 85.0775C166.876 85.7111 166.749 86.3447 166.622 86.8516L165.862 89.7662Z" fill="#00398C"/>
<path d="M171.314 93.6946V84.1904H172.328V88.1188H176.006V84.1904H177.02V93.6946H176.006V89.1326H172.328V93.6946H171.314Z" fill="#00398C"/>
<path d="M178.542 84.1907H179.556V88.3725C179.937 88.3725 180.317 88.2458 180.444 87.9924C180.571 87.7389 180.824 87.232 181.078 86.345C181.331 85.7114 181.458 85.2045 181.585 84.951C181.712 84.6976 181.965 84.4441 182.092 84.3174C182.346 84.1907 182.599 84.064 183.107 84.064C183.233 84.064 183.36 84.064 183.487 84.064V85.2045H183.233H182.98C182.726 85.2045 182.473 85.3312 182.346 85.4579C182.219 85.5846 181.965 86.0915 181.839 86.7251C181.585 87.4855 181.458 87.9924 181.205 88.2458C180.951 88.4993 180.824 88.626 180.571 88.7527C181.078 88.8794 181.458 89.513 181.965 90.4001L183.487 93.5682H182.346L181.205 91.0337C180.824 90.2734 180.571 89.6398 180.317 89.513C180.063 89.2596 179.81 89.1329 179.683 89.1329C179.683 89.1329 179.683 89.1329 179.556 89.1329V93.5682H178.542V84.1907Z" fill="#00398C"/>
<path d="M183.994 90.9071V89.7666H186.657V90.9071H183.994Z" fill="#00398C"/>
<path d="M187.798 84.1907H188.813V88.3725C189.193 88.3725 189.573 88.2458 189.7 87.9924C189.827 87.7389 190.081 87.232 190.334 86.345C190.588 85.7114 190.715 85.2045 190.841 84.951C190.968 84.6976 191.222 84.4441 191.349 84.3174C191.602 84.1907 191.856 84.064 192.363 84.064C192.49 84.064 192.617 84.064 192.743 84.064V85.2045H192.49H192.236C191.983 85.2045 191.729 85.3312 191.602 85.4579C191.475 85.5846 191.222 86.0915 191.095 86.7251C190.841 87.4855 190.715 87.9924 190.461 88.2458C190.207 88.4993 190.081 88.626 189.827 88.7527C190.334 88.8794 190.715 89.513 191.222 90.4001L192.743 93.5682H191.602L190.461 91.0337C190.081 90.2734 189.827 89.6398 189.573 89.513C189.32 89.2596 189.066 89.1329 188.939 89.1329C188.939 89.1329 188.939 89.1329 188.813 89.1329V93.5682H187.798V84.1907Z" fill="#00398C"/>
<path d="M193.377 89.0059C193.377 87.3585 193.758 86.0913 194.392 85.2042C195.026 84.3172 195.913 83.937 196.801 83.937C197.435 83.937 198.069 84.1905 198.576 84.5706C199.083 84.9508 199.464 85.5844 199.844 86.218C200.225 86.8516 200.351 87.8654 200.351 88.8792C200.351 90.2731 200.098 91.4137 199.464 92.3007C198.83 93.3145 197.942 93.8214 196.928 93.8214C195.913 93.8214 195.026 93.3145 194.392 92.3007C193.631 91.4137 193.377 90.3999 193.377 89.0059ZM194.265 89.1326C194.265 90.2731 194.519 91.2869 195.026 91.9205C195.533 92.5542 196.04 92.9343 196.801 92.9343C197.562 92.9343 198.069 92.5542 198.576 91.9205C199.083 91.2869 199.337 90.2732 199.337 89.0059C199.337 88.2456 199.21 87.4852 198.957 86.8516C198.83 86.3447 198.449 85.9646 198.069 85.7111C197.689 85.4577 197.308 85.2042 196.801 85.2042C196.04 85.2042 195.533 85.5844 195.026 86.218C194.519 86.8516 194.265 87.7387 194.265 89.1326Z" fill="#00398C"/>
<path d="M201.366 93.6946V84.1904H202.38V88.1188H206.058V84.1904H207.072V93.6946H206.058V89.1326H202.38V93.6946H201.366Z" fill="#00398C"/>
<path d="M210.496 93.6949V85.2045H208.086V84.064H213.792V85.2045H211.383V93.6949H210.496Z" fill="#00398C"/>
<path d="M214.807 93.6946V84.1904H220.006V85.3309H215.821V88.2456H219.752V89.3861H215.821V92.6809H220.259V93.8214H214.807V93.6946Z" fill="#00398C"/>
<path d="M221.527 84.1905H222.415V91.7938L226.219 84.1905H227.233V93.6947H226.346V86.0913L222.542 93.6947H221.527V84.1905ZM225.331 81.7827H225.965C225.965 82.2896 225.712 82.7965 225.458 83.0499C225.204 83.3034 224.824 83.4301 224.444 83.4301C224.063 83.4301 223.683 83.3034 223.429 83.0499C223.176 82.7965 223.049 82.2896 222.922 81.7827H223.556C223.683 82.4163 223.936 82.6698 224.317 82.6698C224.57 82.6698 224.824 82.5431 224.951 82.4163C225.204 82.2896 225.204 82.1629 225.331 81.7827Z" fill="#00398C"/>
<path d="M228.755 93.6946V84.1904H229.769V88.1188H233.446V84.1904H234.461V93.6946H233.446V89.1326H229.769V93.6946H228.755Z" fill="#00398C"/>
<path d="M235.983 93.6946V84.1904H241.181V85.3309H236.997V88.2456H240.928V89.3861H236.997V92.6809H241.435V93.8214H235.983V93.6946Z" fill="#00398C"/>
<path d="M242.703 93.6946V84.1904H245.366C246 84.1904 246.507 84.1904 246.761 84.3172C247.141 84.4439 247.521 84.824 247.775 85.2042C248.029 85.7111 248.155 86.218 248.155 86.8516C248.155 87.7387 247.902 88.3723 247.521 89.0059C247.141 89.5128 246.38 89.7662 245.493 89.7662H243.591V93.6946H242.703ZM243.591 88.7524H245.493C246.127 88.7524 246.507 88.6257 246.761 88.3723C247.014 88.1188 247.141 87.6119 247.141 87.1051C247.141 86.7249 247.014 86.3447 246.887 86.0913C246.761 85.8378 246.634 85.5844 246.38 85.5844C246.127 85.5844 245.873 85.4577 245.366 85.4577H243.464V88.7524H243.591Z" fill="#00398C"/>
<path d="M249.297 93.6946V84.1904H250.311V88.1188H253.988V84.1904H255.003V93.6946H253.988V89.1326H250.311V93.6946H249.297Z" fill="#00398C"/>
<path d="M256.651 84.1904H257.665V88.2456H259.441C260.075 88.2456 260.582 88.3723 260.962 88.499C261.343 88.6257 261.596 89.0059 261.85 89.3861C262.103 89.7662 262.23 90.3999 262.23 90.9067C262.23 91.6671 262.103 92.3007 261.723 92.8076C261.343 93.3145 260.582 93.6946 259.567 93.6946H256.651V84.1904ZM257.539 92.6809H259.314C259.948 92.6809 260.328 92.5541 260.582 92.3007C260.835 92.0472 260.962 91.5404 260.962 91.0335C260.962 90.6533 260.835 90.2731 260.709 90.0197C260.582 89.7662 260.328 89.6395 260.075 89.5128C259.821 89.3861 259.441 89.3861 258.807 89.3861H257.539V92.6809ZM263.372 93.6946V84.1904H264.386V93.6946H263.372Z" fill="#00398C"/>
<path d="M266.034 84.1905H266.795V91.7938L270.599 84.1905H271.614V93.6947H270.726V86.0913L266.922 93.6947H265.908V84.1905H266.034ZM269.838 81.7827H270.472C270.472 82.2896 270.219 82.7965 269.965 83.0499C269.712 83.3034 269.331 83.4301 268.951 83.4301C268.57 83.4301 268.19 83.3034 267.936 83.0499C267.683 82.7965 267.556 82.2896 267.429 81.7827H268.063C268.19 82.4163 268.444 82.6698 268.824 82.6698C269.078 82.6698 269.331 82.5431 269.458 82.4163C269.712 82.2896 269.712 82.1629 269.838 81.7827Z" fill="#00398C"/>
<path d="M281.124 90.3998L282.138 90.78C281.884 91.7938 281.504 92.6809 280.997 93.1877C280.49 93.6946 279.856 93.9481 279.095 93.9481C278.461 93.9481 277.827 93.8214 277.446 93.4412C277.066 93.061 276.559 92.5541 276.305 91.7938C276.052 91.0335 275.798 90.1464 275.798 89.0059C275.798 87.9921 275.925 87.1051 276.305 86.3447C276.559 85.5844 277.066 85.0775 277.573 84.6973C278.08 84.3172 278.714 84.1904 279.348 84.1904C279.982 84.1904 280.616 84.4439 281.124 84.9508C281.631 85.4577 282.011 86.0913 282.138 86.9783L281.25 87.2318C280.87 85.9646 280.236 85.2042 279.348 85.2042C278.841 85.2042 278.461 85.3309 278.08 85.5844C277.7 85.8378 277.446 86.218 277.193 86.8516C276.939 87.3585 276.939 88.1188 276.939 89.0059C276.939 90.2731 277.193 91.2869 277.573 91.9205C277.954 92.5541 278.588 92.9343 279.222 92.9343C279.729 92.9343 280.236 92.6809 280.616 92.3007C280.743 91.7938 280.997 91.1602 281.124 90.3998Z" fill="#00398C"/>
<path d="M283.279 93.6946V84.1904H288.478V85.3309H284.294V88.2456H288.224V89.3861H284.294V92.6809H288.732V93.8214H283.279V93.6946Z" fill="#00398C"/>
<path d="M289.873 93.6946V84.1904H292.536C293.17 84.1904 293.677 84.1904 293.93 84.3172C294.311 84.4439 294.691 84.824 294.945 85.2042C295.198 85.7111 295.325 86.218 295.325 86.8516C295.325 87.7387 295.072 88.3723 294.691 89.0059C294.311 89.5128 293.55 89.7662 292.662 89.7662H290.887V93.6946H289.873ZM290.887 88.7524H292.789C293.423 88.7524 293.804 88.6257 294.057 88.3723C294.311 88.1188 294.438 87.6119 294.438 87.1051C294.438 86.7249 294.311 86.3447 294.184 86.0913C294.057 85.8378 293.93 85.5844 293.677 85.5844C293.423 85.5844 293.17 85.4577 292.662 85.4577H290.887V88.7524Z" fill="#00398C"/>
<path d="M296.593 93.6946V84.1904H299.256C299.763 84.1904 300.271 84.3171 300.524 84.4439C300.905 84.5706 301.158 84.9508 301.285 85.3309C301.539 85.7111 301.539 86.0913 301.539 86.5982C301.539 86.9783 301.412 87.4852 301.285 87.7387C301.158 88.1188 300.905 88.3723 300.524 88.6257C300.905 88.7525 301.285 89.1326 301.539 89.5128C301.792 89.893 301.919 90.3998 301.919 91.0335C301.919 91.6671 301.792 92.174 301.539 92.5541C301.285 92.9343 301.031 93.3145 300.651 93.5679C300.271 93.8214 299.763 93.8214 299.129 93.8214H296.593V93.6946ZM297.608 88.1188H299.129C299.51 88.1188 299.763 88.1188 300.017 87.9921C300.271 87.8654 300.397 87.7387 300.651 87.4852C300.905 87.2318 300.905 86.9783 300.905 86.5982C300.905 86.218 300.905 85.9645 300.778 85.7111C300.651 85.4577 300.524 85.3309 300.271 85.2042C300.017 85.0775 299.763 85.0775 299.129 85.0775H297.735V88.1188H297.608ZM297.608 92.5541H299.383C299.763 92.5541 300.017 92.5541 300.271 92.4274C300.524 92.3007 300.778 92.174 300.905 91.9205C301.031 91.6671 301.158 91.2869 301.158 90.9067C301.158 90.5266 301.031 90.2731 300.905 90.0197C300.778 89.7662 300.524 89.6395 300.397 89.5128C300.144 89.3861 299.763 89.3861 299.256 89.3861H297.608V92.5541Z" fill="#00398C"/>
<path d="M303.314 84.1904H304.201V91.7938L308.005 84.1904H309.02V93.6946H308.132V86.0913L304.328 93.6946H303.314V84.1904Z" fill="#00398C"/>
<path d="M315.613 90.3998L316.628 90.78C316.374 91.7938 315.994 92.6809 315.487 93.1877C314.979 93.6946 314.345 93.9481 313.585 93.9481C312.951 93.9481 312.317 93.8214 311.936 93.4412C311.556 93.061 311.049 92.5541 310.795 91.7938C310.541 91.0335 310.288 90.1464 310.288 89.0059C310.288 87.9921 310.415 87.1051 310.795 86.3447C311.049 85.5844 311.556 85.0775 312.063 84.6973C312.57 84.3172 313.204 84.1904 313.838 84.1904C314.472 84.1904 315.106 84.4439 315.613 84.9508C316.121 85.4577 316.501 86.0913 316.628 86.9783L315.74 87.2318C315.36 85.9646 314.726 85.2042 313.838 85.2042C313.331 85.2042 312.951 85.3309 312.57 85.5844C312.19 85.8378 311.936 86.218 311.683 86.8516C311.429 87.3585 311.429 88.1188 311.429 89.0059C311.429 90.2731 311.683 91.2869 312.063 91.9205C312.443 92.5541 313.077 92.9343 313.711 92.9343C314.219 92.9343 314.726 92.6809 315.106 92.3007C315.233 91.7938 315.487 91.1602 315.613 90.3998Z" fill="#00398C"/>
</svg>
