<svg width="220" height="378" viewBox="0 0 220 378" fill="none" xmlns="http://www.w3.org/2000/svg">
<path d="M28.9465 35.0001C28.3131 33.3001 27.7131 31.6667 27.1465 30.1C26.5798 28.5334 26.0298 27.0001 25.4965 25.5001H8.64646C8.07979 27.0001 7.51313 28.5334 6.94646 30.1C6.37979 31.6667 5.79646 33.3001 5.19646 35.0001H1.64646C2.97979 31.4001 4.22979 28.0501 5.39646 24.9501C6.56313 21.8167 7.69646 18.8667 8.79646 16.1C9.92979 13.3001 11.0465 10.6167 12.1465 8.05005C13.2465 5.48338 14.4131 2.91672 15.6465 0.350051H18.6465C19.8798 2.91672 21.0465 5.48338 22.1465 8.05005C23.2465 10.6167 24.3465 13.3001 25.4465 16.1C26.5798 18.8667 27.7298 21.8167 28.8965 24.9501C30.0631 28.0501 31.3298 31.4001 32.6965 35.0001H28.9465ZM17.0465 4.25005C15.7798 7.11672 14.5465 10.0334 13.3465 13C12.1798 15.9667 10.9631 19.1667 9.69646 22.6H24.4465C23.1798 19.1667 21.9465 15.9667 20.7465 13C19.5465 10.0334 18.3131 7.11672 17.0465 4.25005Z" fill="#91BFE1"/>
<path d="M57.5777 16.7001V32.0001C58.211 32.0667 58.961 32.1501 59.8277 32.2501C60.7277 32.3167 61.811 32.3501 63.0777 32.3501C64.5777 32.3501 66.011 32.2334 67.3777 32.0001C68.7444 31.7667 69.9277 31.3501 70.9277 30.7501C71.961 30.1501 72.7777 29.35 73.3777 28.35C74.011 27.35 74.3277 26.0834 74.3277 24.5501C74.3277 22.9501 74.0277 21.6501 73.4277 20.6501C72.861 19.6167 72.0277 18.8167 70.9277 18.2501C69.861 17.6501 68.561 17.2501 67.0277 17.0501C65.4944 16.8167 63.7777 16.7001 61.8777 16.7001H57.5777ZM62.3277 13.8001C64.7944 13.8001 66.9944 14 68.9277 14.4C70.861 14.8001 72.4777 15.4334 73.7777 16.3001C75.111 17.1334 76.1277 18.2334 76.8277 19.6C77.5277 20.9667 77.8777 22.6001 77.8777 24.5001C77.8777 28.1334 76.611 30.8501 74.0777 32.6501C71.5444 34.4167 67.8277 35.3 62.9277 35.3C61.5277 35.3 60.011 35.2167 58.3777 35.05C56.7777 34.9167 55.3777 34.6834 54.1777 34.3501V0.350051H74.7777V3.30005H57.5777V13.8001H62.3277Z" fill="#91BFE1"/>
<path d="M109.593 35.3C109.026 35.3 108.36 35.2667 107.593 35.2001C106.86 35.1667 106.093 35.1001 105.293 35.0001C104.526 34.9334 103.793 34.8501 103.093 34.7501C102.393 34.6167 101.793 34.4834 101.293 34.3501V1.00005C101.893 0.833383 102.56 0.700049 103.293 0.60005C104.026 0.466716 104.776 0.366717 105.543 0.300051C106.343 0.20005 107.11 0.133384 107.843 0.100051C108.61 0.066716 109.31 0.0500488 109.943 0.0500488C111.81 0.0500488 113.576 0.200049 115.243 0.500049C116.943 0.800049 118.426 1.30005 119.693 2.00005C120.96 2.70005 121.96 3.63338 122.693 4.80005C123.46 5.93338 123.843 7.35005 123.843 9.05005C123.843 10.9167 123.36 12.5167 122.393 13.8501C121.46 15.1501 120.193 16.0501 118.593 16.5501C119.593 16.7834 120.51 17.1167 121.343 17.5501C122.176 17.9834 122.91 18.55 123.543 19.25C124.176 19.9167 124.66 20.7501 124.993 21.7501C125.36 22.7167 125.543 23.8834 125.543 25.2501C125.543 28.5167 124.243 31.0167 121.643 32.7501C119.043 34.4501 115.026 35.3 109.593 35.3ZM104.693 18.4001V32.05C105.193 32.1167 105.943 32.2 106.943 32.3C107.943 32.3667 108.96 32.4001 109.993 32.4001C111.526 32.4001 113.01 32.3001 114.443 32.1001C115.91 31.9001 117.193 31.5334 118.293 31.0001C119.393 30.4667 120.276 29.7334 120.943 28.8001C121.61 27.8667 121.943 26.6667 121.943 25.2001C121.943 23.8667 121.71 22.7667 121.243 21.9C120.776 21 120.11 20.3001 119.243 19.8001C118.376 19.2667 117.31 18.9 116.043 18.7001C114.81 18.5 113.426 18.4001 111.893 18.4001H104.693ZM104.693 15.5001H111.293C112.526 15.5001 113.693 15.4167 114.793 15.2501C115.893 15.0501 116.843 14.7167 117.643 14.25C118.476 13.7501 119.126 13.1001 119.593 12.3001C120.06 11.4667 120.293 10.4167 120.293 9.15005C120.293 8.01672 120.043 7.06672 119.543 6.30005C119.043 5.50005 118.326 4.85005 117.393 4.35005C116.493 3.85005 115.41 3.50005 114.143 3.30005C112.876 3.06672 111.476 2.95005 109.943 2.95005C108.71 2.95005 107.66 2.98338 106.793 3.05005C105.96 3.11672 105.26 3.20005 104.693 3.30005V15.5001Z" fill="#91BFE1"/>
<path d="M167.987 0.350051V3.30005H152.687V35.0001H149.287V0.350051H167.987Z" fill="#91BFE1"/>
<path d="M186.97 35.0001V44.2501H183.72V32.05H186.82C188.52 30.35 189.837 28.3334 190.77 26.0001C191.737 23.6667 192.454 21.1667 192.92 18.5001C193.42 15.8001 193.72 13.0001 193.82 10.1C193.92 7.20005 193.97 4.31672 193.97 1.45005V0.350051H211.97V32.05H215.22V44.2501H211.97V35.0001H186.97ZM197.32 3.30005V3.70005C197.32 6.03338 197.254 8.48338 197.12 11.0501C197.02 13.6167 196.754 16.1667 196.32 18.7001C195.92 21.2 195.287 23.6 194.42 25.9C193.587 28.2 192.437 30.25 190.97 32.05H208.57V3.30005H197.32Z" fill="#91BFE1"/>
<path d="M3.00681 92.0001V57.3501H23.0068V60.3001H6.40681V72.3501H21.2068V75.2501H6.40681V89.0501H24.3068V92.0001H3.00681Z" fill="#91BFE1"/>
<path d="M45.7412 92.0001V57.3501H65.7412V60.3001H49.1412V72.3501H63.9412V75.2501H49.1412V89.0501H67.0412V92.0001H45.7412ZM53.7412 50.55C53.7412 51.2834 53.5245 51.8667 53.0912 52.3C52.6579 52.7334 52.1079 52.9501 51.4412 52.9501C50.7745 52.9501 50.2245 52.7334 49.7912 52.3C49.3579 51.8667 49.1412 51.2834 49.1412 50.55C49.1412 49.8167 49.3579 49.2334 49.7912 48.8C50.2245 48.3667 50.7745 48.15 51.4412 48.15C52.1079 48.15 52.6579 48.3667 53.0912 48.8C53.5245 49.2334 53.7412 49.8167 53.7412 50.55ZM62.3412 50.55C62.3412 51.2834 62.1245 51.8667 61.6912 52.3C61.2579 52.7334 60.7079 52.9501 60.0412 52.9501C59.3745 52.9501 58.8245 52.7334 58.3912 52.3C57.9579 51.8667 57.7412 51.2834 57.7412 50.55C57.7412 49.8167 57.9579 49.2334 58.3912 48.8C58.8245 48.3667 59.3745 48.15 60.0412 48.15C60.7079 48.15 61.2579 48.3667 61.6912 48.8C62.1245 49.2334 62.3412 49.8167 62.3412 50.55Z" fill="#91BFE1"/>
<path d="M85.0756 92.0001C85.9089 90.4667 86.8922 88.8667 88.0256 87.2001C89.1922 85.5334 90.4422 83.9001 91.7756 82.3001C93.1089 80.7001 94.4589 79.1667 95.8256 77.7001C97.2256 76.2 98.5756 74.8667 99.8756 73.7001C99.0089 72.7001 97.9422 71.4834 96.6756 70.0501C95.4089 68.5834 94.1089 67.0834 92.7756 65.55C91.4422 63.9834 90.1422 62.4834 88.8756 61.05C87.6422 59.5834 86.6256 58.3501 85.8256 57.3501H89.7756C90.4089 58.1501 91.2756 59.2167 92.3756 60.5501C93.4756 61.8834 94.6756 63.3167 95.9756 64.8501C97.2756 66.3501 98.5756 67.8834 99.8756 69.4501C101.209 70.9834 102.426 72.3667 103.526 73.6001V57.3501H106.726V73.6001C107.826 72.3667 109.026 70.9834 110.326 69.4501C111.659 67.8834 112.976 66.3501 114.276 64.8501C115.576 63.3167 116.776 61.8834 117.876 60.5501C118.976 59.2167 119.842 58.1501 120.476 57.3501H124.376C123.576 58.3501 122.559 59.5834 121.326 61.05C120.092 62.4834 118.809 63.9667 117.476 65.5001C116.142 67.0334 114.842 68.5334 113.576 70.0001C112.309 71.4334 111.242 72.6501 110.376 73.6501C111.676 74.8167 113.026 76.1501 114.426 77.6501C115.826 79.1167 117.176 80.6667 118.476 82.3001C119.809 83.9001 121.059 85.5334 122.226 87.2001C123.392 88.8667 124.392 90.4667 125.226 92.0001H121.426C120.592 90.5001 119.542 88.9167 118.276 87.2501C117.042 85.5501 115.742 83.9167 114.376 82.3501C113.009 80.7834 111.642 79.3334 110.276 78.0001C108.942 76.6667 107.759 75.5834 106.726 74.7501V92.0001H103.526V74.7501C102.459 75.5834 101.259 76.6667 99.9256 78.0001C98.5922 79.3334 97.2422 80.7834 95.8756 82.3501C94.5089 83.9167 93.1922 85.5501 91.9256 87.2501C90.6922 88.9167 89.6589 90.5001 88.8256 92.0001H85.0756Z" fill="#91BFE1"/>
<path d="M153.21 59.55C151.61 59.55 150.11 59.7501 148.71 60.1501C147.31 60.5501 146.126 61.0834 145.16 61.7501L143.96 58.9C144.826 58.3334 146.093 57.8167 147.76 57.3501C149.426 56.8501 151.26 56.6001 153.26 56.6001C154.96 56.6001 156.51 56.7834 157.91 57.1501C159.31 57.4834 160.51 58.0167 161.51 58.7501C162.51 59.4501 163.293 60.35 163.86 61.4501C164.426 62.5501 164.71 63.8501 164.71 65.3501C164.71 66.2501 164.56 67.1167 164.26 67.9501C163.96 68.7834 163.526 69.5501 162.96 70.2501C162.393 70.9501 161.676 71.5667 160.81 72.1001C159.943 72.6001 158.943 72.9667 157.81 73.2001C158.91 73.4001 159.976 73.7334 161.01 74.2001C162.043 74.6667 162.943 75.2834 163.71 76.0501C164.476 76.7834 165.093 77.7001 165.56 78.8001C166.026 79.8667 166.26 81.1167 166.26 82.5501C166.26 84.4167 165.926 86.0001 165.26 87.3001C164.593 88.5667 163.66 89.6167 162.46 90.4501C161.293 91.2501 159.876 91.8334 158.21 92.2001C156.576 92.5667 154.776 92.7501 152.81 92.7501C151.543 92.7501 150.376 92.6667 149.31 92.5001C148.243 92.3334 147.276 92.1334 146.41 91.9001C145.576 91.6334 144.86 91.3834 144.26 91.1501C143.66 90.8834 143.193 90.6501 142.86 90.4501L143.96 87.5001C144.293 87.7001 144.743 87.9334 145.31 88.2001C145.876 88.4334 146.526 88.6834 147.26 88.9501C148.026 89.1834 148.876 89.3834 149.81 89.5501C150.743 89.7167 151.76 89.8001 152.86 89.8001C154.293 89.8001 155.61 89.6834 156.81 89.4501C158.01 89.1834 159.043 88.7667 159.91 88.2001C160.776 87.6001 161.443 86.8501 161.91 85.9501C162.41 85.0167 162.66 83.8834 162.66 82.5501C162.66 81.0167 162.36 79.7667 161.76 78.8001C161.16 77.8334 160.326 77.0834 159.26 76.5501C158.226 75.9834 156.993 75.6001 155.56 75.4001C154.126 75.1667 152.593 75.05 150.96 75.05H148.66V72.1501H151.61C152.71 72.1501 153.826 72.0501 154.96 71.8501C156.093 71.6167 157.11 71.2501 158.01 70.7501C158.943 70.2501 159.693 69.5667 160.26 68.7001C160.86 67.8334 161.16 66.7501 161.16 65.4501C161.16 63.7501 160.493 62.3501 159.16 61.2501C157.826 60.1167 155.843 59.55 153.21 59.55Z" fill="#91BFE1"/>
<path d="M188.544 92.0001V57.3501H191.894V85.5501C192.927 83.7167 194.244 81.5667 195.844 79.1001C197.477 76.6334 199.227 74.1167 201.094 71.5501C202.961 68.9501 204.861 66.4167 206.794 63.9501C208.761 61.4501 210.594 59.2501 212.294 57.3501H214.994V92.0001H211.644V62.8C210.644 63.9334 209.544 65.2834 208.344 66.8501C207.144 68.4167 205.894 70.1001 204.594 71.9001C203.327 73.6667 202.044 75.5001 200.744 77.4001C199.444 79.2667 198.211 81.1001 197.044 82.9001C195.877 84.6667 194.794 86.3334 193.794 87.9001C192.827 89.4667 192.027 90.8334 191.394 92.0001H188.544Z" fill="#91BFE1"/>
<path d="M4.24216 149V114.35H7.59216V142.55C8.6255 140.717 9.94216 138.567 11.5422 136.1C13.1755 133.633 14.9255 131.117 16.7922 128.55C18.6588 125.95 20.5588 123.417 22.4922 120.95C24.4588 118.45 26.2922 116.25 27.9922 114.35H30.6922V149H27.3422V119.8C26.3422 120.933 25.2422 122.283 24.0422 123.85C22.8422 125.417 21.5922 127.1 20.2922 128.9C19.0255 130.667 17.7422 132.5 16.4422 134.4C15.1422 136.267 13.9088 138.1 12.7422 139.9C11.5755 141.667 10.4922 143.333 9.49216 144.9C8.5255 146.467 7.7255 147.833 7.09216 149H4.24216ZM17.4422 110.95C15.5755 110.95 14.0422 110.433 12.8422 109.4C11.6422 108.367 10.8755 106.9 10.5422 105L13.1922 104.3C13.3922 105.433 13.8255 106.367 14.4922 107.1C15.1922 107.8 16.1755 108.15 17.4422 108.15C18.7088 108.15 19.6755 107.8 20.3422 107.1C21.0422 106.367 21.4922 105.433 21.6922 104.3L24.3422 105C24.0088 106.9 23.2422 108.367 22.0422 109.4C20.8422 110.433 19.3088 110.95 17.4422 110.95Z" fill="#91BFE1"/>
<path d="M70.8414 149C69.7081 147.267 68.4247 145.55 66.9914 143.85C65.5914 142.15 64.108 140.55 62.5414 139.05C60.9747 137.55 59.3747 136.183 57.7414 134.95C56.1414 133.717 54.5914 132.683 53.0914 131.85V149H49.6914V114.35H53.0914V130.5C54.3581 129.367 55.7581 128.067 57.2914 126.6C58.8581 125.1 60.3914 123.6 61.8914 122.1C63.4247 120.6 64.8581 119.167 66.1914 117.8C67.5247 116.433 68.5914 115.283 69.3914 114.35H73.4914C72.5247 115.383 71.3581 116.617 69.9914 118.05C68.6247 119.45 67.1747 120.9 65.6414 122.4C64.108 123.9 62.5747 125.383 61.0414 126.85C59.5414 128.283 58.1914 129.55 56.9914 130.65C57.958 131.25 58.9914 132 60.0914 132.9C61.2247 133.767 62.3581 134.733 63.4914 135.8C64.6581 136.833 65.7914 137.933 66.8914 139.1C68.0247 140.233 69.0747 141.383 70.0414 142.55C71.0414 143.717 71.9247 144.85 72.6914 145.95C73.4914 147.05 74.1414 148.067 74.6414 149H70.8414Z" fill="#91BFE1"/>
<path d="M101.193 117.3V118.3C101.193 121.967 101.059 125.5 100.793 128.9C100.559 132.3 99.9759 135.55 99.0426 138.65C98.6092 140.083 98.0592 141.433 97.3926 142.7C96.7592 143.967 95.9759 145.083 95.0426 146.05C94.1092 147.017 93.0092 147.8 91.7426 148.4C90.5092 149 89.0759 149.333 87.4426 149.4L87.0926 146.5C88.2259 146.367 89.2259 146.1 90.0926 145.7C90.9926 145.267 91.7759 144.7 92.4426 144C93.1426 143.3 93.7426 142.467 94.2426 141.5C94.7759 140.5 95.2592 139.35 95.6926 138.05C96.5592 135.35 97.1259 132.3 97.3926 128.9C97.6926 125.5 97.8426 121.683 97.8426 117.45V114.35H115.893V149H112.493V117.3H101.193Z" fill="#91BFE1"/>
<path d="M150.427 144C150.094 143.167 149.61 142.067 148.977 140.7C148.377 139.333 147.694 137.85 146.927 136.25C146.16 134.617 145.377 132.95 144.577 131.25C143.777 129.517 143.01 127.9 142.277 126.4C141.544 124.9 140.894 123.583 140.327 122.45C139.76 121.317 139.344 120.517 139.077 120.05C138.644 124.217 138.294 128.75 138.027 133.65C137.794 138.517 137.577 143.633 137.377 149H134.027C134.327 142.7 134.66 136.667 135.027 130.9C135.427 125.133 135.91 119.617 136.477 114.35H139.477C140.477 116.017 141.544 117.95 142.677 120.15C143.81 122.317 144.927 124.583 146.027 126.95C147.16 129.283 148.244 131.6 149.277 133.9C150.344 136.167 151.277 138.217 152.077 140.05C152.877 138.217 153.794 136.167 154.827 133.9C155.894 131.6 156.977 129.283 158.077 126.95C159.21 124.583 160.344 122.317 161.477 120.15C162.61 117.95 163.677 116.017 164.677 114.35H167.527C168.094 119.617 168.56 125.133 168.927 130.9C169.327 136.667 169.677 142.7 169.977 149H166.527C166.327 143.633 166.094 138.517 165.827 133.65C165.594 128.75 165.26 124.217 164.827 120.05C164.56 120.517 164.144 121.317 163.577 122.45C163.01 123.583 162.36 124.9 161.627 126.4C160.894 127.9 160.127 129.517 159.327 131.25C158.527 132.95 157.744 134.617 156.977 136.25C156.21 137.85 155.51 139.333 154.877 140.7C154.277 142.067 153.81 143.167 153.477 144H150.427Z" fill="#91BFE1"/>
<path d="M210.339 114.35H213.739V149H210.339V132.35H191.539V149H188.139V114.35H191.539V129.4H210.339V114.35Z" fill="#91BFE1"/>
<path d="M32.9847 188.65C32.9847 191.617 32.5514 194.233 31.6847 196.5C30.8181 198.767 29.6347 200.667 28.1347 202.2C26.6681 203.7 24.9514 204.833 22.9847 205.6C21.0181 206.367 18.9347 206.75 16.7347 206.75C14.5347 206.75 12.4514 206.367 10.4847 205.6C8.51807 204.833 6.78474 203.7 5.28474 202.2C3.81807 200.667 2.65141 198.767 1.78474 196.5C0.918075 194.233 0.484741 191.617 0.484741 188.65C0.484741 185.683 0.918075 183.083 1.78474 180.85C2.65141 178.583 3.81807 176.7 5.28474 175.2C6.78474 173.667 8.51807 172.517 10.4847 171.75C12.4514 170.983 14.5347 170.6 16.7347 170.6C18.9347 170.6 21.0181 170.983 22.9847 171.75C24.9514 172.517 26.6681 173.667 28.1347 175.2C29.6347 176.7 30.8181 178.583 31.6847 180.85C32.5514 183.083 32.9847 185.683 32.9847 188.65ZM29.3847 188.65C29.3847 186.317 29.0847 184.233 28.4847 182.4C27.8847 180.533 27.0347 178.95 25.9347 177.65C24.8347 176.35 23.5014 175.367 21.9347 174.7C20.4014 174 18.6681 173.65 16.7347 173.65C14.8014 173.65 13.0514 174 11.4847 174.7C9.95141 175.367 8.63474 176.35 7.53474 177.65C6.43474 178.95 5.58474 180.533 4.98474 182.4C4.38474 184.233 4.08474 186.317 4.08474 188.65C4.08474 190.983 4.38474 193.083 4.98474 194.95C5.58474 196.783 6.43474 198.35 7.53474 199.65C8.63474 200.95 9.95141 201.95 11.4847 202.65C13.0514 203.35 14.8014 203.7 16.7347 203.7C18.6681 203.7 20.4014 203.35 21.9347 202.65C23.5014 201.95 24.8347 200.95 25.9347 199.65C27.0347 198.35 27.8847 196.783 28.4847 194.95C29.0847 193.083 29.3847 190.983 29.3847 188.65Z" fill="#91BFE1"/>
<path d="M81.3554 171.35V206H77.9554V174.3H59.5054V206H56.1054V171.35H81.3554Z" fill="#91BFE1"/>
<path d="M114.584 171.05C119.484 171.05 123.134 171.983 125.534 173.85C127.934 175.717 129.134 178.367 129.134 181.8C129.134 183.767 128.784 185.45 128.084 186.85C127.384 188.217 126.384 189.333 125.084 190.2C123.784 191.033 122.184 191.65 120.284 192.05C118.417 192.417 116.301 192.6 113.934 192.6H109.234V206H105.834V172C107.034 171.667 108.434 171.433 110.034 171.3C111.667 171.133 113.184 171.05 114.584 171.05ZM114.734 174C113.467 174 112.384 174.05 111.484 174.15C110.617 174.217 109.867 174.283 109.234 174.35V189.65H113.534C115.367 189.65 117.017 189.55 118.484 189.35C119.984 189.117 121.251 188.717 122.284 188.15C123.351 187.55 124.167 186.733 124.734 185.7C125.301 184.667 125.584 183.35 125.584 181.75C125.584 180.217 125.267 178.95 124.634 177.95C124.034 176.95 123.217 176.167 122.184 175.6C121.184 175 120.034 174.583 118.734 174.35C117.434 174.117 116.101 174 114.734 174Z" fill="#91BFE1"/>
<path d="M165.324 206.75C163.09 206.75 161.007 206.35 159.074 205.55C157.174 204.75 155.507 203.583 154.074 202.05C152.674 200.517 151.557 198.633 150.724 196.4C149.924 194.133 149.524 191.55 149.524 188.65C149.524 185.75 149.957 183.183 150.824 180.95C151.724 178.683 152.907 176.783 154.374 175.25C155.84 173.717 157.54 172.567 159.474 171.8C161.407 171 163.424 170.6 165.524 170.6C166.824 170.6 168.007 170.683 169.074 170.85C170.14 171.017 171.074 171.233 171.874 171.5C172.674 171.733 173.357 171.983 173.924 172.25C174.49 172.483 174.924 172.7 175.224 172.9L174.124 175.85C173.29 175.35 172.224 174.867 170.924 174.4C169.657 173.9 168.074 173.65 166.174 173.65C164.007 173.65 162.107 174.017 160.474 174.75C158.874 175.483 157.524 176.517 156.424 177.85C155.324 179.183 154.49 180.767 153.924 182.6C153.39 184.433 153.124 186.467 153.124 188.7C153.124 191 153.39 193.083 153.924 194.95C154.49 196.783 155.307 198.35 156.374 199.65C157.44 200.95 158.74 201.95 160.274 202.65C161.84 203.35 163.624 203.7 165.624 203.7C167.824 203.7 169.657 203.5 171.124 203.1C172.624 202.667 173.757 202.233 174.524 201.8L175.474 204.7C175.24 204.867 174.84 205.067 174.274 205.3C173.707 205.5 172.99 205.717 172.124 205.95C171.257 206.183 170.257 206.367 169.124 206.5C167.99 206.667 166.724 206.75 165.324 206.75Z" fill="#91BFE1"/>
<path d="M219.723 171.35V174.3H208.623V206H205.223V174.3H194.123V171.35H219.723Z" fill="#91BFE1"/>
<path d="M15.4211 250.85C16.1211 249.283 16.8377 247.583 17.5711 245.75C18.3044 243.883 19.0211 241.967 19.7211 240C20.4211 238 21.0711 236.017 21.6711 234.05C22.3044 232.05 22.8544 230.15 23.3211 228.35H26.9211C26.2544 230.65 25.5711 232.833 24.8711 234.9C24.2044 236.933 23.5044 238.917 22.7711 240.85C22.0711 242.75 21.3377 244.633 20.5711 246.5C19.8044 248.333 19.0044 250.183 18.1711 252.05C17.6377 253.25 17.0544 254.517 16.4211 255.85C15.7877 257.183 15.0044 258.417 14.0711 259.55C13.1377 260.65 11.9877 261.567 10.6211 262.3C9.28774 263 7.63774 263.35 5.67107 263.35C4.8044 263.35 4.03774 263.25 3.37107 263.05C2.73774 262.883 2.27107 262.717 1.97107 262.55L2.62107 259.75C2.8544 259.883 3.23774 260.05 3.77107 260.25C4.3044 260.417 5.0044 260.5 5.87107 260.5C7.0044 260.5 7.98774 260.333 8.82107 260C9.68774 259.633 10.4211 259.167 11.0211 258.6C11.6544 258.033 12.2044 257.367 12.6711 256.6C13.1377 255.833 13.5544 255.033 13.9211 254.2C12.3877 251.867 10.9544 249.517 9.62107 247.15C8.32107 244.783 7.12107 242.483 6.02107 240.25C4.9544 238.017 3.97107 235.9 3.07107 233.9C2.2044 231.867 1.43774 230.017 0.771069 228.35H4.57107C5.7044 231.417 7.17107 234.917 8.97107 238.85C10.8044 242.783 12.9544 246.783 15.4211 250.85Z" fill="#91BFE1"/>
<path d="M63.6207 255.9C65.4207 255.9 67.1207 255.683 68.7207 255.25C70.3207 254.783 71.704 254.083 72.8707 253.15C74.0707 252.217 75.0207 251.033 75.7207 249.6C76.4207 248.133 76.7707 246.417 76.7707 244.45C76.7707 242.483 76.4207 240.783 75.7207 239.35C75.0207 237.883 74.0707 236.683 72.8707 235.75C71.704 234.817 70.3207 234.133 68.7207 233.7C67.1207 233.233 65.4207 233 63.6207 233V255.9ZM60.3207 258.7C58.4207 258.7 56.4707 258.45 54.4707 257.95C52.504 257.417 50.704 256.583 49.0707 255.45C47.4707 254.317 46.154 252.85 45.1207 251.05C44.0873 249.217 43.5707 247.017 43.5707 244.45C43.5707 241.883 44.0873 239.7 45.1207 237.9C46.154 236.067 47.4707 234.583 49.0707 233.45C50.704 232.317 52.504 231.5 54.4707 231C56.4707 230.467 58.4207 230.2 60.3207 230.2V226.1H63.6207V230.2C65.5207 230.2 67.454 230.467 69.4207 231C71.4207 231.5 73.2207 232.317 74.8207 233.45C76.454 234.583 77.7873 236.067 78.8207 237.9C79.854 239.7 80.3707 241.883 80.3707 244.45C80.3707 247.017 79.854 249.217 78.8207 251.05C77.7873 252.85 76.454 254.317 74.8207 255.45C73.2207 256.583 71.4207 257.417 69.4207 257.95C67.454 258.45 65.5207 258.7 63.6207 258.7V263H60.3207V258.7ZM60.3207 233C58.5207 233 56.8207 233.233 55.2207 233.7C53.6207 234.133 52.2207 234.817 51.0207 235.75C49.854 236.683 48.9207 237.883 48.2207 239.35C47.5207 240.783 47.1707 242.483 47.1707 244.45C47.1707 246.417 47.5207 248.133 48.2207 249.6C48.9207 251.033 49.854 252.217 51.0207 253.15C52.2207 254.083 53.6207 254.783 55.2207 255.25C56.8207 255.683 58.5207 255.9 60.3207 255.9V233Z" fill="#91BFE1"/>
<path d="M120.853 228.35H124.653L113.503 244.6C115.67 247.667 117.787 250.75 119.853 253.85C121.92 256.917 123.72 259.967 125.253 263H121.553C121.053 262 120.403 260.85 119.603 259.55C118.837 258.25 117.987 256.883 117.053 255.45C116.153 254.017 115.203 252.583 114.203 251.15C113.237 249.717 112.303 248.367 111.403 247.1C110.503 248.367 109.553 249.717 108.553 251.15C107.587 252.583 106.637 254.017 105.703 255.45C104.803 256.883 103.953 258.25 103.153 259.55C102.387 260.85 101.753 262 101.253 263H97.7035C99.2368 259.967 101.037 256.917 103.103 253.85C105.17 250.783 107.27 247.733 109.403 244.7L98.2535 228.35H102.153L111.503 242.3L120.853 228.35Z" fill="#91BFE1"/>
<path d="M170.023 263H144.773V228.35H148.173V260.05H166.623V228.35H170.023V260.05H173.273V272.25H170.023V263Z" fill="#91BFE1"/>
<path d="M194.46 228.35V238.05C194.46 239.55 194.56 240.883 194.76 242.05C194.96 243.217 195.36 244.2 195.96 245C196.56 245.8 197.427 246.4 198.56 246.8C199.693 247.2 201.193 247.4 203.06 247.4C203.893 247.4 204.693 247.367 205.46 247.3C206.227 247.2 206.927 247.1 207.56 247C208.227 246.9 208.777 246.8 209.21 246.7C209.677 246.567 210.01 246.467 210.21 246.4V228.35H213.61V263H210.21V249.35C209.71 249.517 208.777 249.733 207.41 250C206.077 250.267 204.527 250.4 202.76 250.4C199.993 250.4 197.827 250.067 196.26 249.4C194.693 248.733 193.527 247.833 192.76 246.7C191.993 245.567 191.51 244.267 191.31 242.8C191.143 241.3 191.06 239.717 191.06 238.05V228.35H194.46Z" fill="#91BFE1"/>
<path d="M42.0812 320H2.78123V285.35H6.18123V317.05H20.7312V285.35H24.1312V317.05H38.6812V285.35H42.0812V320Z" fill="#91BFE1"/>
<path d="M106.372 320H67.0722V285.35H70.4722V317.05H85.0222V285.35H88.4222V317.05H102.972V285.35H106.372V317.05H109.622V329.25H106.372V320Z" fill="#91BFE1"/>
<path d="M146.154 301.25C144.954 301.25 143.887 301.283 142.954 301.35C142.021 301.417 141.271 301.483 140.704 301.55V317C141.337 317.067 142.087 317.15 142.954 317.25C143.854 317.317 144.937 317.35 146.204 317.35C147.704 317.35 149.121 317.233 150.454 317C151.821 316.767 153.004 316.35 154.004 315.75C155.004 315.15 155.787 314.333 156.354 313.3C156.954 312.233 157.254 310.883 157.254 309.25C157.254 307.683 156.971 306.383 156.404 305.35C155.871 304.317 155.104 303.5 154.104 302.9C153.137 302.3 151.971 301.883 150.604 301.65C149.237 301.383 147.754 301.25 146.154 301.25ZM140.704 285.35V298.6C141.271 298.533 142.071 298.467 143.104 298.4C144.171 298.333 145.121 298.3 145.954 298.3C150.954 298.3 154.671 299.217 157.104 301.05C159.571 302.883 160.804 305.617 160.804 309.25C160.804 312.75 159.621 315.467 157.254 317.4C154.921 319.333 151.187 320.3 146.054 320.3C144.654 320.3 143.137 320.217 141.504 320.05C139.904 319.917 138.504 319.683 137.304 319.35V288.3H128.154V285.35H140.704Z" fill="#91BFE1"/>
<path d="M211.805 285.35H215.205V320H211.805V285.35ZM191.755 301.25C190.655 301.25 189.639 301.283 188.705 301.35C187.805 301.417 187.072 301.483 186.505 301.55V317C187.139 317.067 187.889 317.15 188.755 317.25C189.622 317.317 190.639 317.35 191.805 317.35C193.239 317.35 194.605 317.233 195.905 317C197.239 316.767 198.389 316.35 199.355 315.75C200.355 315.15 201.139 314.333 201.705 313.3C202.305 312.233 202.605 310.883 202.605 309.25C202.605 307.683 202.322 306.383 201.755 305.35C201.189 304.317 200.422 303.5 199.455 302.9C198.489 302.3 197.339 301.883 196.005 301.65C194.705 301.383 193.289 301.25 191.755 301.25ZM191.555 298.3C196.422 298.3 200.072 299.217 202.505 301.05C204.939 302.883 206.155 305.617 206.155 309.25C206.155 312.75 204.972 315.467 202.605 317.4C200.272 319.333 196.622 320.3 191.655 320.3C190.355 320.3 188.905 320.217 187.305 320.05C185.705 319.917 184.305 319.683 183.105 319.35V285.35H186.505V298.6C186.772 298.567 187.122 298.533 187.555 298.5C187.989 298.467 188.439 298.433 188.905 298.4C189.372 298.367 189.839 298.35 190.305 298.35C190.772 298.317 191.189 298.3 191.555 298.3Z" fill="#91BFE1"/>
<path d="M11.9701 358.25C10.7701 358.25 9.70343 358.283 8.77009 358.35C7.83676 358.417 7.08676 358.483 6.52009 358.55V374C7.15343 374.067 7.90343 374.15 8.77009 374.25C9.67009 374.317 10.7534 374.35 12.0201 374.35C13.5201 374.35 14.9368 374.233 16.2701 374C17.6368 373.767 18.8201 373.35 19.8201 372.75C20.8201 372.15 21.6034 371.333 22.1701 370.3C22.7701 369.233 23.0701 367.883 23.0701 366.25C23.0701 364.683 22.7868 363.383 22.2201 362.35C21.6868 361.317 20.9201 360.5 19.9201 359.9C18.9534 359.3 17.7868 358.883 16.4201 358.65C15.0534 358.383 13.5701 358.25 11.9701 358.25ZM11.7701 355.3C16.7701 355.3 20.4868 356.217 22.9201 358.05C25.3868 359.883 26.6201 362.617 26.6201 366.25C26.6201 369.75 25.4368 372.467 23.0701 374.4C20.7368 376.333 17.0034 377.3 11.8701 377.3C10.4701 377.3 8.95343 377.217 7.32009 377.05C5.72009 376.917 4.32009 376.683 3.12009 376.35V342.35H6.52009V355.6C7.08676 355.533 7.88676 355.467 8.92009 355.4C9.98676 355.333 10.9368 355.3 11.7701 355.3Z" fill="#91BFE1"/>
<path d="M65.5553 374.7C67.6886 374.7 69.5386 374.367 71.1052 373.7C72.6719 373 73.9719 372.05 75.0052 370.85C76.0719 369.617 76.8719 368.15 77.4053 366.45C77.9719 364.717 78.2886 362.8 78.3552 360.7H62.7053V357.8H78.3053C78.1719 355.8 77.7886 353.983 77.1553 352.35C76.5553 350.717 75.7219 349.333 74.6553 348.2C73.6219 347.067 72.3719 346.2 70.9053 345.6C69.4386 344.967 67.7719 344.65 65.9053 344.65C63.8386 344.65 62.0886 344.867 60.6553 345.3C59.2219 345.7 58.1219 346.117 57.3553 346.55L56.4552 343.7C56.7219 343.533 57.1386 343.333 57.7052 343.1C58.2719 342.833 58.9719 342.6 59.8053 342.4C60.6719 342.167 61.6386 341.983 62.7053 341.85C63.8053 341.683 65.0053 341.6 66.3053 341.6C68.5386 341.6 70.6052 342 72.5052 342.8C74.4386 343.6 76.1052 344.767 77.5052 346.3C78.9052 347.833 80.0053 349.733 80.8053 352C81.6053 354.233 82.0053 356.8 82.0053 359.7C82.0053 362.6 81.6053 365.183 80.8053 367.45C80.0053 369.683 78.8886 371.567 77.4553 373.1C76.0553 374.633 74.3552 375.8 72.3552 376.6C70.3886 377.367 68.2219 377.75 65.8552 377.75C64.6886 377.75 63.5886 377.667 62.5553 377.5C61.5553 377.367 60.6386 377.2 59.8053 377C58.9719 376.767 58.2553 376.533 57.6553 376.3C57.0886 376.067 56.6553 375.867 56.3553 375.7L57.3053 372.8C58.0719 373.233 59.1386 373.667 60.5052 374.1C61.8719 374.5 63.5553 374.7 65.5553 374.7Z" fill="#91BFE1"/>
<path d="M143.481 341.6C145.581 341.6 147.564 341.983 149.431 342.75C151.331 343.517 152.998 344.667 154.431 346.2C155.864 347.7 156.998 349.583 157.831 351.85C158.664 354.083 159.081 356.683 159.081 359.65C159.081 362.617 158.664 365.233 157.831 367.5C156.998 369.767 155.864 371.667 154.431 373.2C152.998 374.7 151.331 375.833 149.431 376.6C147.564 377.367 145.581 377.75 143.481 377.75C141.414 377.75 139.448 377.383 137.581 376.65C135.748 375.917 134.114 374.817 132.681 373.35C131.281 371.883 130.148 370.067 129.281 367.9C128.414 365.733 127.948 363.217 127.881 360.35H119.481V377H116.081V342.35H119.481V357.4H127.981C128.181 354.8 128.731 352.517 129.631 350.55C130.564 348.583 131.714 346.933 133.081 345.6C134.481 344.267 136.064 343.267 137.831 342.6C139.631 341.933 141.514 341.6 143.481 341.6ZM143.481 374.7C145.314 374.7 146.964 374.35 148.431 373.65C149.931 372.95 151.198 371.95 152.231 370.65C153.298 369.35 154.098 367.783 154.631 365.95C155.198 364.083 155.481 361.983 155.481 359.65C155.481 357.317 155.198 355.233 154.631 353.4C154.098 351.533 153.298 349.95 152.231 348.65C151.198 347.35 149.931 346.367 148.431 345.7C146.964 345 145.314 344.65 143.481 344.65C141.614 344.65 139.948 345 138.481 345.7C137.014 346.367 135.748 347.35 134.681 348.65C133.648 349.95 132.848 351.533 132.281 353.4C131.748 355.233 131.481 357.317 131.481 359.65C131.481 361.983 131.748 364.083 132.281 365.95C132.848 367.783 133.648 369.35 134.681 370.65C135.748 371.95 137.014 372.95 138.481 373.65C139.948 374.35 141.614 374.7 143.481 374.7Z" fill="#91BFE1"/>
<path d="M211.467 345.35C210.834 345.283 210.034 345.217 209.067 345.15C208.134 345.05 207.034 345 205.767 345C204.4 345 203.067 345.117 201.767 345.35C200.5 345.583 199.367 346 198.367 346.6C197.367 347.167 196.567 347.95 195.967 348.95C195.367 349.917 195.067 351.15 195.067 352.65C195.067 354.283 195.35 355.6 195.917 356.6C196.517 357.567 197.334 358.317 198.367 358.85C199.4 359.35 200.634 359.683 202.067 359.85C203.534 360.017 205.117 360.1 206.817 360.1H211.467V345.35ZM214.867 377H211.467V363H205.967C205.467 363 204.867 362.983 204.167 362.95C203.467 362.917 202.867 362.867 202.367 362.8C201.767 363.6 201.1 364.55 200.367 365.65C199.667 366.75 198.95 367.933 198.217 369.2C197.517 370.433 196.817 371.717 196.117 373.05C195.45 374.383 194.817 375.7 194.217 377H190.617C191.15 375.733 191.8 374.383 192.567 372.95C193.334 371.483 194.117 370.067 194.917 368.7C195.717 367.333 196.467 366.1 197.167 365C197.9 363.867 198.484 362.983 198.917 362.35C198.284 362.183 197.534 361.917 196.667 361.55C195.834 361.183 195.034 360.65 194.267 359.95C193.5 359.217 192.85 358.283 192.317 357.15C191.784 356.017 191.517 354.567 191.517 352.8C191.517 349.3 192.817 346.633 195.417 344.8C198.017 342.967 201.6 342.05 206.167 342.05C207.534 342.05 209.017 342.133 210.617 342.3C212.25 342.433 213.667 342.667 214.867 343V377Z" fill="#91BFE1"/>
</svg>
