<svg width="1690" height="158" viewBox="0 0 1690 158" fill="none" xmlns="http://www.w3.org/2000/svg">
<path d="M116.105 152H2.41333V5.84595H50.3384V117.902H116.105V152Z" fill="#1669A6"/>
<path d="M216.366 102.241L200.953 49.9053L186.134 102.241H216.366ZM171.514 152H124.63L177.015 5.84595H225.733L278.119 152H230.392L224.692 132.721H177.015L171.514 152Z" fill="#1669A6"/>
<path d="M339.276 5.84595L391.464 85.6384L389.63 52.3337V5.84595H435.473V152H390.621L338.434 72.4058L340.268 105.71V152H294.424V5.84595H339.276Z" fill="#1669A6"/>
<path d="M510.607 39.9436V117.902H520.767C543.763 117.902 555.261 104.769 555.261 78.5017C555.261 68.3914 554.088 60.5608 551.742 55.01C549.397 49.4592 545.68 45.5605 540.591 43.3137C535.503 41.067 528.548 39.9436 519.726 39.9436H510.607ZM525.624 152H462.682V5.84595H526.863C538.89 5.84595 549.562 7.25016 558.879 10.0586C568.197 12.834 576.159 17.1127 582.767 22.8948C589.408 28.6438 594.464 35.9457 597.933 44.8005C601.435 53.6554 603.186 64.0135 603.186 75.875C603.186 126.625 577.332 152 525.624 152Z" fill="#1669A6"/>
<path d="M670.836 152H622.911V5.84595H670.836V152Z" fill="#1669A6"/>
<path d="M745.276 5.84595L797.464 85.6384L795.63 52.3337V5.84595H841.473V152H796.621L744.434 72.4058L746.268 105.71V152H700.424V5.84595H745.276Z" fill="#1669A6"/>
<path d="M1011.02 71.6128V152.396H980.144L978.31 137.974C975.436 141.411 971.999 144.45 968.001 147.094C964.037 149.737 959.229 151.851 953.579 153.437C947.929 155.056 941.487 155.866 934.251 155.866C924.834 155.866 915.864 154.329 907.339 151.257C898.815 148.151 891.249 143.459 884.641 137.181C878.033 130.871 872.845 122.974 869.079 113.491C865.312 103.976 863.429 93.056 863.429 80.7319C863.429 69.1348 865.196 58.4958 868.732 48.8149C872.267 39.1011 877.372 30.7584 884.046 23.7869C890.72 16.7823 898.782 11.3967 908.231 7.63013C917.681 3.86353 928.254 1.98022 939.95 1.98022C951.746 1.98022 962.533 4.02873 972.313 8.12573C982.126 12.2227 990.238 18.3517 996.647 26.5127C1003.09 34.6737 1007.27 44.5693 1009.19 56.1995H963.69C962.005 50.2522 959.031 45.6926 954.769 42.5208C950.54 39.3158 945.336 37.7134 939.157 37.7134C929.972 37.7134 923.034 41.5295 918.342 49.1619C913.65 56.7611 911.304 67.2184 911.304 80.5337C911.304 106.933 921.53 120.133 941.982 120.133C947.136 120.133 952.225 118.53 957.247 115.325C962.269 112.087 965.375 108.073 966.564 103.282H945.451V71.6128H1011.02Z" fill="#1669A6"/>
<path d="M1151.67 72.4058H1171.6C1184.45 72.4058 1190.88 66.7228 1190.88 55.3569C1190.88 45.0814 1182.35 39.9436 1165.3 39.9436H1151.67V72.4058ZM1151.67 152H1103.75V5.84595H1174.22C1187.9 5.84595 1199.4 7.84489 1208.72 11.8428C1218.07 15.8076 1225.04 21.5071 1229.63 28.9412C1234.22 36.3422 1236.52 45.0814 1236.52 55.1587C1236.52 71.3815 1231.51 84.0029 1221.5 93.0229C1211.53 102.01 1196.31 106.503 1175.86 106.503H1151.67V152Z" fill="#1669A6"/>
<path d="M1317.21 102.241L1301.79 49.9053L1286.97 102.241H1317.21ZM1272.35 152H1225.47L1277.85 5.84595H1326.57L1378.96 152H1331.23L1325.53 132.721H1277.85L1272.35 152Z" fill="#1669A6"/>
<path d="M1536.76 71.6128V152.396H1505.88L1504.05 137.974C1501.17 141.411 1497.74 144.45 1493.74 147.094C1489.77 149.737 1484.97 151.851 1479.32 153.437C1473.67 155.056 1467.22 155.866 1459.99 155.866C1450.57 155.866 1441.6 154.329 1433.08 151.257C1424.55 148.151 1416.99 143.459 1410.38 137.181C1403.77 130.871 1398.58 122.974 1394.82 113.491C1391.05 103.976 1389.17 93.056 1389.17 80.7319C1389.17 69.1348 1390.93 58.4958 1394.47 48.8149C1398.01 39.1011 1403.11 30.7584 1409.78 23.7869C1416.46 16.7823 1424.52 11.3967 1433.97 7.63013C1443.42 3.86353 1453.99 1.98022 1465.69 1.98022C1477.48 1.98022 1488.27 4.02873 1498.05 8.12573C1507.86 12.2227 1515.98 18.3517 1522.39 26.5127C1528.83 34.6737 1533.01 44.5693 1534.92 56.1995H1489.43C1487.74 50.2522 1484.77 45.6926 1480.51 42.5208C1476.28 39.3158 1471.07 37.7134 1464.9 37.7134C1455.71 37.7134 1448.77 41.5295 1444.08 49.1619C1439.39 56.7611 1437.04 67.2184 1437.04 80.5337C1437.04 106.933 1447.27 120.133 1467.72 120.133C1472.87 120.133 1477.96 118.53 1482.99 115.325C1488.01 112.087 1491.11 108.073 1492.3 103.282H1471.19V71.6128H1536.76Z" fill="#1669A6"/>
<path d="M1687.77 152H1565.75V5.84595H1684.94V39.9436H1613.68V60.8582H1673.94V94.9558H1613.68V117.902H1687.77V152Z" fill="#1669A6"/>
<path d="M116.105 152H2.41333V5.84595H50.3384V117.902H116.105V152Z" stroke="white" stroke-width="3"/>
<path d="M216.366 102.241L200.953 49.9053L186.134 102.241H216.366ZM171.514 152H124.63L177.015 5.84595H225.733L278.119 152H230.392L224.692 132.721H177.015L171.514 152Z" stroke="white" stroke-width="3"/>
<path d="M339.276 5.84595L391.464 85.6384L389.63 52.3337V5.84595H435.473V152H390.621L338.434 72.4058L340.268 105.71V152H294.424V5.84595H339.276Z" stroke="white" stroke-width="3"/>
<path d="M510.607 39.9436V117.902H520.767C543.763 117.902 555.261 104.769 555.261 78.5017C555.261 68.3914 554.088 60.5608 551.742 55.01C549.397 49.4592 545.68 45.5605 540.591 43.3137C535.503 41.067 528.548 39.9436 519.726 39.9436H510.607ZM525.624 152H462.682V5.84595H526.863C538.89 5.84595 549.562 7.25016 558.879 10.0586C568.197 12.834 576.159 17.1127 582.767 22.8948C589.408 28.6438 594.464 35.9457 597.933 44.8005C601.435 53.6554 603.186 64.0135 603.186 75.875C603.186 126.625 577.332 152 525.624 152Z" stroke="white" stroke-width="3"/>
<path d="M670.836 152H622.911V5.84595H670.836V152Z" stroke="white" stroke-width="3"/>
<path d="M745.276 5.84595L797.464 85.6384L795.63 52.3337V5.84595H841.473V152H796.621L744.434 72.4058L746.268 105.71V152H700.424V5.84595H745.276Z" stroke="white" stroke-width="3"/>
<path d="M1011.02 71.6128V152.396H980.144L978.31 137.974C975.436 141.411 971.999 144.45 968.001 147.094C964.037 149.737 959.229 151.851 953.579 153.437C947.929 155.056 941.487 155.866 934.251 155.866C924.834 155.866 915.864 154.329 907.339 151.257C898.815 148.151 891.249 143.459 884.641 137.181C878.033 130.871 872.845 122.974 869.079 113.491C865.312 103.976 863.429 93.056 863.429 80.7319C863.429 69.1348 865.196 58.4958 868.732 48.8149C872.267 39.1011 877.372 30.7584 884.046 23.7869C890.72 16.7823 898.782 11.3967 908.231 7.63013C917.681 3.86353 928.254 1.98022 939.95 1.98022C951.746 1.98022 962.533 4.02873 972.313 8.12573C982.126 12.2227 990.238 18.3517 996.647 26.5127C1003.09 34.6737 1007.27 44.5693 1009.19 56.1995H963.69C962.005 50.2522 959.031 45.6926 954.769 42.5208C950.54 39.3158 945.336 37.7134 939.157 37.7134C929.972 37.7134 923.034 41.5295 918.342 49.1619C913.65 56.7611 911.304 67.2184 911.304 80.5337C911.304 106.933 921.53 120.133 941.982 120.133C947.136 120.133 952.225 118.53 957.247 115.325C962.269 112.087 965.375 108.073 966.564 103.282H945.451V71.6128H1011.02Z" stroke="white" stroke-width="3"/>
<path d="M1151.67 72.4058H1171.6C1184.45 72.4058 1190.88 66.7228 1190.88 55.3569C1190.88 45.0814 1182.35 39.9436 1165.3 39.9436H1151.67V72.4058ZM1151.67 152H1103.75V5.84595H1174.22C1187.9 5.84595 1199.4 7.84489 1208.72 11.8428C1218.07 15.8076 1225.04 21.5071 1229.63 28.9412C1234.22 36.3422 1236.52 45.0814 1236.52 55.1587C1236.52 71.3815 1231.51 84.0029 1221.5 93.0229C1211.53 102.01 1196.31 106.503 1175.86 106.503H1151.67V152Z" stroke="white" stroke-width="3"/>
<path d="M1317.21 102.241L1301.79 49.9053L1286.97 102.241H1317.21ZM1272.35 152H1225.47L1277.85 5.84595H1326.57L1378.96 152H1331.23L1325.53 132.721H1277.85L1272.35 152Z" stroke="white" stroke-width="3"/>
<path d="M1536.76 71.6128V152.396H1505.88L1504.05 137.974C1501.17 141.411 1497.74 144.45 1493.74 147.094C1489.77 149.737 1484.97 151.851 1479.32 153.437C1473.67 155.056 1467.22 155.866 1459.99 155.866C1450.57 155.866 1441.6 154.329 1433.08 151.257C1424.55 148.151 1416.99 143.459 1410.38 137.181C1403.77 130.871 1398.58 122.974 1394.82 113.491C1391.05 103.976 1389.17 93.056 1389.17 80.7319C1389.17 69.1348 1390.93 58.4958 1394.47 48.8149C1398.01 39.1011 1403.11 30.7584 1409.78 23.7869C1416.46 16.7823 1424.52 11.3967 1433.97 7.63013C1443.42 3.86353 1453.99 1.98022 1465.69 1.98022C1477.48 1.98022 1488.27 4.02873 1498.05 8.12573C1507.86 12.2227 1515.98 18.3517 1522.39 26.5127C1528.83 34.6737 1533.01 44.5693 1534.92 56.1995H1489.43C1487.74 50.2522 1484.77 45.6926 1480.51 42.5208C1476.28 39.3158 1471.07 37.7134 1464.9 37.7134C1455.71 37.7134 1448.77 41.5295 1444.08 49.1619C1439.39 56.7611 1437.04 67.2184 1437.04 80.5337C1437.04 106.933 1447.27 120.133 1467.72 120.133C1472.87 120.133 1477.96 118.53 1482.99 115.325C1488.01 112.087 1491.11 108.073 1492.3 103.282H1471.19V71.6128H1536.76Z" stroke="white" stroke-width="3"/>
<path d="M1687.77 152H1565.75V5.84595H1684.94V39.9436H1613.68V60.8582H1673.94V94.9558H1613.68V117.902H1687.77V152Z" stroke="white" stroke-width="3"/>
</svg>
