<svg width="109" height="133" viewBox="0 0 109 133" fill="none" xmlns="http://www.w3.org/2000/svg">
<path fill-rule="evenodd" clip-rule="evenodd" d="M25.282 127C26.6412 114.538 29.2064 102.867 32.9775 91.9873C37.0498 80.2393 42.1035 69.6191 48.1387 60.127C53.4378 51.7925 59.3693 43.9888 65.9332 36.7158C66.845 35.7056 67.7689 34.7056 68.7051 33.7158H3.53418V3.08594H105.619V31.5186C99.9648 36.0889 94.6621 41.7725 89.7109 48.5693C84.7891 55.3369 80.4238 63.0859 76.6152 71.8164C72.8066 80.5469 69.8037 89.834 67.6064 99.6777C65.4092 109.521 64.1641 119.629 63.8711 130H24.9795C25.0726 128.995 25.1735 127.995 25.282 127ZM92.1366 50.3345C87.3592 56.9037 83.0981 64.4584 79.365 73.016C75.6375 81.5606 72.6923 90.6639 70.5344 100.331C68.38 109.983 67.1576 119.9 66.8699 130.085L66.7875 133H21.6886L21.9923 129.723C23.2722 115.912 25.9843 103.002 30.143 91.0048C34.2836 79.0595 39.4346 68.2255 45.607 58.5173C50.5109 50.8045 55.9486 43.5369 61.9195 36.7158H0.53418V0.0859375H108.619V32.9511L107.505 33.8517C102.084 38.2337 96.9568 43.7179 92.1366 50.3345Z" fill="#015B9E"/>
</svg>
