<svg width="117" height="138" viewBox="0 0 117 138" fill="none" xmlns="http://www.w3.org/2000/svg">
<path fill-rule="evenodd" clip-rule="evenodd" d="M114.251 39.5523L73.4562 42.0667L72.7966 39.743C72.0081 36.965 70.6483 35.0955 68.8127 33.8735C66.9305 32.6206 64.2629 31.8604 60.5654 31.8604C56.7342 31.8604 53.7758 32.9099 51.4703 34.8442C49.0893 36.8666 47.2419 39.7492 46.0296 43.676C45.2312 46.262 44.6778 49.1634 44.3852 52.3922C47.7705 50.4185 51.0575 48.9315 54.2435 47.9628C58.943 46.5339 64.4986 45.8555 70.8486 45.8555C78.3102 45.8555 85.0026 47.1453 90.8536 49.8153C96.5866 52.4024 101.41 55.8646 105.262 60.2254C109.049 64.4823 111.898 69.2305 113.789 74.4588C115.685 79.6207 116.651 84.7726 116.651 89.9004C116.651 100.327 114.37 109.281 109.618 116.585L109.615 116.59C104.909 123.792 98.4105 129.136 90.2123 132.609L90.2071 132.611C82.1319 136.015 73.0093 137.681 62.8945 137.681C43.2968 137.681 27.7452 132.091 16.6935 120.539C5.60366 108.946 0.348633 91.4376 0.348633 68.6309C0.348633 55.2638 2.57164 43.3969 7.10708 33.1003L7.10876 33.0964C11.6892 22.7366 18.4133 14.6299 27.2965 8.8944C36.2318 3.11492 46.7634 0.28418 58.7637 0.28418C65.2408 0.28418 71.3745 0.871372 77.1572 2.05777C83.0009 3.22725 88.403 5.17262 93.3448 7.90685C98.3904 10.6688 102.683 14.4295 106.211 19.1553C109.792 23.9513 112.223 29.6468 113.558 36.1687L114.251 39.5523ZM91.8984 10.5352C87.2402 7.95703 82.1279 6.11133 76.5615 4.99805C70.9951 3.85547 65.0625 3.28418 58.7637 3.28418C47.25 3.28418 37.3037 5.99414 28.9248 11.4141C20.5752 16.8047 14.2178 24.4365 9.85254 34.3096C5.5166 44.1533 3.34863 55.5938 3.34863 68.6309C3.34863 91.043 8.51953 107.654 18.8613 118.465C29.2031 129.275 43.8809 134.681 62.8945 134.681C72.6797 134.681 81.3955 133.069 89.042 129.847C96.7178 126.595 102.738 121.629 107.104 114.949C111.469 108.24 113.651 99.8906 113.651 89.9004C113.651 85.1543 112.758 80.3496 110.971 75.4863C109.213 70.623 106.562 66.1992 103.017 62.2148C99.4717 58.2012 95.0039 54.9785 89.6133 52.5469C84.2227 50.0859 77.9678 48.8555 70.8486 48.8555C64.6963 48.8555 59.4521 49.5146 55.1162 50.833C51.6711 51.8805 48.0226 53.6123 44.1707 56.0284C43.1746 56.6532 42.1649 57.3237 41.1416 58.04C41.1416 56.7752 41.1736 55.5445 41.2377 54.348C41.4675 50.0568 42.1093 46.2044 43.1631 42.791C44.5107 38.4258 46.6348 35.0127 49.5352 32.5518C52.4648 30.0908 56.1416 28.8604 60.5654 28.8604C68.7393 28.8604 73.7783 32.2148 75.6826 38.9238L110.619 36.7705C110.412 35.7593 110.178 34.7719 109.916 33.8082C108.586 28.9084 106.55 24.6224 103.808 20.9502C100.526 16.5557 96.5566 13.084 91.8984 10.5352ZM49.3187 80.3266C47.0295 83.0436 45.7676 86.6731 45.7676 91.4824C45.7676 95.2192 47.0922 98.3178 49.8409 100.95C52.6585 103.592 55.8932 104.874 59.6865 104.874C64.4842 104.874 67.6716 103.513 69.7626 101.207C71.9424 98.7751 73.21 95.2498 73.21 90.252C73.21 85.8666 71.9479 82.5706 69.6236 80.0836C67.3171 77.6156 64.3318 76.333 60.3896 76.333C54.9017 76.333 51.4335 77.8491 49.3187 80.3266ZM71.9912 103.216C69.1787 106.321 65.0771 107.874 59.6865 107.874C55.1162 107.874 51.1465 106.292 47.7773 103.128C44.4375 99.9346 42.7676 96.0527 42.7676 91.4824C42.7676 86.1211 44.1885 81.7559 47.0303 78.3867C49.9014 75.0176 54.3545 73.333 60.3896 73.333C65.0771 73.333 68.8857 74.9004 71.8154 78.0352C74.7451 81.1699 76.21 85.2422 76.21 90.252C76.21 95.7598 74.8037 100.081 71.9912 103.216Z" fill="#1669A6"/>
</svg>
