<svg width="100" height="100" viewBox="0 0 100 100" fill="none" xmlns="http://www.w3.org/2000/svg">
<circle cx="50" cy="50" r="49" fill="#1980BE" fill-opacity="0.7" stroke="white" stroke-width="2"/>
<g clip-path="url(#clip0)">
<path d="M24.5 73.0997L25.8 55.0997C25.8 55.0997 26.1 52.5997 26.9 51.4997C27.8 50.3997 28.5 49.7997 29.1 49.3997C30 48.7997 31 48.3997 33.2 47.6997C35.4 46.9997 39.8 46.1997 39.8 46.1997L46.2 50.9997L42.1 55.7997L38.6 51.1997" stroke="white" stroke-miterlimit="10" stroke-linecap="round" stroke-linejoin="round"/>
<path d="M71.3 57.2998L71.2 55.1998C71.2 55.1998 70.9 52.6998 70.1 51.5998C69.2 50.4998 68.5 49.8998 67.9 49.4998C67 48.8998 66 48.4998 63.8 47.7998C61.5 47.0998 57.2 46.2998 57.2 46.2998L50.6 50.9998L54.7 55.7998L58.2 51.1998" stroke="white" stroke-miterlimit="10" stroke-linecap="round" stroke-linejoin="round"/>
<path d="M80.8 60.6001H51V80.9001H80.8V60.6001Z" stroke="white" stroke-miterlimit="10"/>
<path d="M69.1 60.6001H62.4V68.2001H69.1V60.6001Z" stroke="white" stroke-miterlimit="10"/>
<path d="M39.1 34.0997C39.1 34.0997 40.4 37.6997 41.6 39.5997C42.8 41.2997 45.4 44.0997 48.4 44.0997C51.4 44.0997 54.2 41.2997 55.2 39.7997C56.2 38.2997 57.2 36.1997 57.6 34.5997C58 32.9997 58.4 30.6997 58.4 30.6997" stroke="white" stroke-miterlimit="10" stroke-linecap="round" stroke-linejoin="round"/>
<path d="M59.8 26.2999C59.8 26.2999 59.2 23.1999 59.2 20.7999C59.2 18.3999 59 17.3999 57.7 15.9999C56.8 15.0999 54.4 13.9999 52.8 13.6999C51.2 13.3999 50 13.3999 49.7 13.0999C49.4 12.7999 49.6 12.3999 49.3 11.8999C49 11.3999 48.3 11.4999 48.3 11.4999H48.7C48.7 11.4999 48 11.3999 47.7 11.8999C47.4 12.3999 47.6 12.6999 47.3 13.0999C47 13.4999 45.7 13.4999 44.2 13.6999C42.7 13.8999 40.3 14.9999 39.4 15.9999C38.1 17.3999 38 18.3999 37.9 20.7999C37.8 23.1999 37.1 26.7999 37.1 26.7999" stroke="white" stroke-miterlimit="10"/>
<path d="M48.8 27.3C48.8 27.3 50.2 27.3 51.9 27.6C53.5 27.9 54.4 29.7 55.9 30.2C57.6 30.8 59.5 30.4 60.2 29.2C60.8 28.2 60.4 26.8 59.5 25.8C58.8 25 56.4 23.1 53 22.4C50.5 22 49.3 22 49.3 22H48.2C48.2 22 46.7 22.1 44.2 22.6C40.8 23.3 38.4 25.2 37.7 26C36.9 26.9 36.5 28.3 37 29.4C37.7 30.6 39.6 31 41.3 30.4C42.7 29.9 43.6 28.1 45.3 27.8C46.9 27.5 48.2 27.5 48.2 27.5H48.8V27.3Z" stroke="white" stroke-miterlimit="10" stroke-linecap="round" stroke-linejoin="round"/>
</g>
<defs>
<clipPath id="clip0">
<rect width="57.2" height="70.4" fill="white" transform="translate(24 11)"/>
</clipPath>
</defs>
</svg>
