<svg width="581" height="172" viewBox="0 0 581 172" fill="none" xmlns="http://www.w3.org/2000/svg">
<path d="M78.9074 70.9635C78.9074 72.0761 78.5765 73.1636 77.9565 74.0887C77.3365 75.0138 76.4553 75.7347 75.4243 76.1605C74.3932 76.5862 73.2587 76.6976 72.1642 76.4806C71.0697 76.2635 70.0643 75.7278 69.2752 74.9411C68.4861 74.1544 67.9487 73.1521 67.731 72.0609C67.5133 70.9698 67.625 69.8387 68.0521 68.8109C68.4791 67.783 69.2023 66.9045 70.1302 66.2864C71.0581 65.6683 72.149 65.3384 73.265 65.3384C74.7615 65.3384 76.1966 65.931 77.2548 66.9859C78.313 68.0409 78.9074 69.4716 78.9074 70.9635Z" fill="white"/>
<path d="M73.265 102.075C73.265 103.189 72.9329 104.279 72.311 105.205C71.689 106.131 70.8052 106.852 69.7717 107.276C68.7381 107.7 67.6014 107.809 66.5057 107.589C65.41 107.368 64.4047 106.828 63.6174 106.037C62.83 105.246 62.2961 104.24 62.0833 103.146C61.8705 102.052 61.9884 100.919 62.4222 99.8922C62.8559 98.8651 63.5859 97.9896 64.5194 97.3768C65.453 96.7639 66.5482 96.4413 67.666 96.4499C68.4049 96.4499 69.1365 96.5956 69.8187 96.8789C70.5009 97.1621 71.12 97.5771 71.6405 98.1C72.161 98.6229 72.5725 99.2434 72.8513 99.9256C73.1301 100.608 73.2707 101.338 73.265 102.075Z" fill="white"/>
<path d="M65.5391 136.994C65.5477 138.11 65.223 139.204 64.6063 140.136C63.9896 141.067 63.1088 141.795 62.0761 142.226C61.0433 142.657 59.9052 142.772 58.8067 142.556C57.7081 142.341 56.6987 141.804 55.907 141.015C55.1153 140.226 54.577 139.219 54.3607 138.124C54.1444 137.029 54.2598 135.894 54.6922 134.865C55.1246 133.835 55.8546 132.957 56.7891 132.342C57.7236 131.727 58.8205 131.404 59.9401 131.412C61.4215 131.424 62.8391 132.015 63.8867 133.06C64.9342 134.104 65.5278 135.517 65.5391 136.994Z" fill="white"/>
<path d="M50.8254 107.657C50.834 108.773 50.5092 109.866 49.8926 110.798C49.2759 111.73 48.3951 112.457 47.3623 112.889C46.3295 113.32 45.1915 113.435 44.0929 113.219C42.9944 113.003 41.985 112.467 41.1933 111.677C40.4016 110.888 39.8633 109.882 39.647 108.787C39.4306 107.692 39.546 106.557 39.9785 105.527C40.4109 104.498 41.1408 103.62 42.0753 103.005C43.0099 102.39 44.1067 102.066 45.2263 102.075C46.7078 102.086 48.1253 102.678 49.1729 103.722C50.2205 104.767 50.814 106.18 50.8254 107.657Z" fill="white"/>
<path d="M45.2264 95.1952C45.235 96.3095 44.9114 97.4013 44.2966 98.332C43.6819 99.2628 42.8037 99.9905 41.7734 100.423C40.7432 100.855 39.6074 100.973 38.51 100.761C37.4126 100.549 36.4032 100.016 35.6097 99.2314C34.8163 98.4464 34.2745 97.4442 34.0533 96.3519C33.832 95.2595 33.9412 94.1263 34.367 93.0959C34.7927 92.0655 35.5159 91.1844 36.4447 90.5644C37.3735 89.9444 38.4661 89.6133 39.5839 89.6133C41.0729 89.6132 42.5015 90.1999 43.5585 91.2455C44.6154 92.2911 45.2149 93.7108 45.2264 95.1952Z" fill="white"/>
<path d="M103.647 95.7577C103.656 96.872 103.332 97.9638 102.718 98.8946C102.103 99.8253 101.225 100.553 100.194 100.985C99.1642 101.418 98.0284 101.535 96.931 101.323C95.8336 101.111 94.8242 100.579 94.0307 99.7939C93.2373 99.0089 92.6956 98.0067 92.4743 96.9144C92.2531 95.822 92.3622 94.6888 92.788 93.6584C93.2137 92.628 93.9369 91.7469 94.8657 91.1269C95.7945 90.5068 96.8871 90.1758 98.0049 90.1758C99.4939 90.1757 100.923 90.7624 101.979 91.808C103.036 92.8536 103.636 94.2733 103.647 95.7577Z" fill="white"/>
<path d="M22.7 114.104C22.7086 115.219 22.385 116.31 21.7703 117.241C21.1555 118.172 20.2773 118.9 19.2471 119.332C18.2168 119.764 17.081 119.882 15.9836 119.67C14.8863 119.458 13.8768 118.925 13.0834 118.141C12.2899 117.356 11.7482 116.353 11.5269 115.261C11.3057 114.169 11.4148 113.035 11.8406 112.005C12.2664 110.975 12.9895 110.094 13.9183 109.474C14.8471 108.854 15.9398 108.522 17.0576 108.522C18.5465 108.522 19.9752 109.109 21.0321 110.155C22.089 111.2 22.6886 112.62 22.7 114.104Z" fill="white"/>
<path d="M28.2991 60.5784C28.299 61.6928 27.967 62.7821 27.345 63.7081C26.7231 64.634 25.8393 65.355 24.8057 65.7794C23.7722 66.2039 22.6355 66.3127 21.5398 66.0921C20.4441 65.8716 19.4388 65.3315 18.6514 64.5405C17.8641 63.7495 17.3301 62.7431 17.1173 61.6491C16.9046 60.5551 17.0225 59.4227 17.4562 58.3956C17.89 57.3686 18.6199 56.4931 19.5535 55.8802C20.4871 55.2673 21.5822 54.9447 22.7 54.9533C23.439 54.9533 24.1706 55.0991 24.8527 55.3823C25.5349 55.6655 26.1541 56.0805 26.6746 56.6035C27.195 57.1264 27.6066 57.7468 27.8854 58.4291C28.1642 59.1113 28.3048 59.8418 28.2991 60.5784Z" fill="white"/>
<path d="M95.1838 55.8189C95.1924 56.9351 94.8676 58.0286 94.251 58.9602C93.6343 59.8919 92.7535 60.6195 91.7207 61.0506C90.6879 61.4818 89.5499 61.5968 88.4513 61.3811C87.3528 61.1655 86.3434 60.6288 85.5517 59.8396C84.76 59.0503 84.2217 58.044 84.0054 56.9488C83.789 55.8536 83.9044 54.719 84.3369 53.6894C84.7693 52.6598 85.4992 51.7817 86.4337 51.1669C87.3683 50.5522 88.4651 50.2284 89.5847 50.237C91.0662 50.2483 92.4837 50.84 93.5313 51.8844C94.5789 52.9287 95.1724 54.342 95.1838 55.8189Z" fill="white"/>
<path d="M12.7172 115.619L88.8902 54.9971L90.2357 56.6846L21.3978 111.465L95.8347 94.979L72.5271 71.6995L74.0462 70.185L100.175 96.2338L12.7172 115.619Z" fill="white"/>
<path d="M60.9819 140.369L58.8551 139.937L72.2234 70.7471L74.3501 71.1365L60.9819 140.369Z" fill="white"/>
<path d="M58.9418 140.586L22.7867 60.7516L24.7833 59.8862L60.9384 139.72L58.9418 140.586Z" fill="white"/>
<path d="M89.4722 54.7535L23.6974 59.2583L23.8461 61.4167L89.6209 56.9119L89.4722 54.7535Z" fill="white"/>
<path d="M97.8747 96.6662L89.8451 56.0352L91.9285 55.6025L100.001 96.2335L97.8747 96.6662Z" fill="white"/>
<path d="M22.8979 59.4753L22.4741 61.5972L74.9178 72.0064L75.3416 69.8846L22.8979 59.4753Z" fill="white"/>
<path d="M39.2293 92.3862L38.6868 94.4849L67.442 101.873L67.9845 99.7747L39.2293 92.3862Z" fill="white"/>
<path d="M98.121 95.7185L59.1073 139.418L60.7284 140.857L99.7421 97.1569L98.121 95.7185Z" fill="white"/>
<path d="M16.8895 113.173L15.8126 115.052L61.5219 141.097L62.5988 139.218L16.8895 113.173Z" fill="white"/>
<path d="M20.8839 59.2242L15.2759 113.979L17.4348 114.199L23.0428 59.4439L20.8839 59.2242Z" fill="white"/>
<path d="M145.532 100.561V126.739L74.6973 167.5L3.90631 126.739V45.2609L74.6973 4.50013L145.532 45.2609V73.4299L149.438 79.358V43.0108L74.6973 0L0 43.0108V128.989L74.6973 172L149.438 128.989V105.839L145.532 100.561Z" fill="white"/>
<path d="M176.652 111.465V71.8721L156.6 101.599H152.259L132.207 71.8721V111.465H127.259V62.1362H131.599L154.386 96.1035L177.216 62.1362H181.557V111.465H176.652Z" fill="white"/>
<path d="M235.203 100.084H203.041L197.225 111.465H191.67L217.017 62.1362H221.358L246.792 111.465H241.106L235.203 100.084ZM205.255 95.7574H232.99L219.144 68.6701L205.255 95.7574Z" fill="white"/>
<path d="M256.731 111.465V62.1362H261.723V84.4205H274.136L294.362 62.1362H300.612L278.52 86.7138L300.221 110.989V111.421L295.143 112.243L274.31 89.2668H261.723V111.465H256.731Z" fill="white"/>
<path d="M342.149 111.984C338.894 112.243 335.943 112.373 333.469 112.373C330.154 112.379 326.845 112.118 323.573 111.594C320.455 111.131 317.485 109.962 314.892 108.176C312.207 106.205 310.131 103.521 308.902 100.431C307.215 96.0758 306.447 91.4212 306.645 86.7572C306.455 82.0936 307.223 77.4404 308.902 73.0837C310.132 70.0057 312.208 67.3361 314.892 65.3816C317.476 63.5773 320.45 62.4061 323.573 61.9632C326.841 61.4033 330.152 61.1282 333.469 61.1411C336.073 61.1411 339.024 61.1411 342.149 61.5738C345.274 62.0065 348.616 62.2228 351.785 62.6555L351.568 67.4585C350.005 67.1556 348.443 66.9393 346.88 66.7229C345.318 66.5066 343.712 66.3335 342.149 66.247L337.809 65.9873H333.946C332.036 65.9873 330.17 65.9873 328.347 65.9873C326.585 66.1419 324.841 66.4606 323.139 66.9393C321.599 67.4197 320.137 68.1192 318.798 69.0163C317.348 69.9723 316.12 71.2263 315.196 72.6943C313.95 74.4778 313.038 76.4716 312.505 78.579C311.926 81.266 311.649 84.009 311.68 86.7572C311.633 89.5918 311.91 92.4226 312.505 95.1949C312.959 97.2369 313.767 99.1844 314.892 100.95C315.828 102.408 317.054 103.66 318.494 104.628C319.844 105.495 321.304 106.179 322.835 106.662C324.527 107.182 326.276 107.501 328.043 107.614C329.866 107.614 331.732 107.83 333.642 107.83H337.505L341.845 107.614L346.576 107.094C348.139 107.094 349.701 106.662 351.264 106.402L351.655 111.162C348.616 111.335 345.405 111.681 342.149 111.984Z" fill="white"/>
<path d="M404.78 100.084H372.618L366.802 111.465H361.247L386.638 62.1362H390.978L416.412 111.465H410.683L404.78 100.084ZM374.832 95.7574H402.567L388.721 68.6701L374.832 95.7574Z" fill="white"/>
<path d="M426.308 111.465V62.1362H469.972V111.465H464.981V66.9825H431.3V111.465H426.308Z" fill="white"/>
<path d="M500.962 111.465V66.9825H479.695V62.1362H526.527L526.093 66.9825H505.91V111.465H500.962Z" fill="white"/>
<path d="M568.585 100.084H536.423L530.607 111.465H525.182L550.572 62.1362H554.913L580.347 111.465H574.792L568.585 100.084ZM538.637 95.7574H566.371L552.526 68.6701L538.637 95.7574Z" fill="white"/>
</svg>
