<svg width="281" height="125" viewBox="0 0 281 125" fill="none" xmlns="http://www.w3.org/2000/svg">
<path d="M239.237 73.1742C243.991 73.1742 246.083 70.4665 247.514 67.8157L245.223 66.191C243.877 68.6993 242.445 70.1529 239.066 70.0674C234.74 69.9819 233.221 66.2765 233.165 66.134L230.701 67.3881C230.787 67.6162 232.934 73.0602 239.036 73.1742C239.066 73.1742 239.151 73.1742 239.237 73.1742ZM246.884 75.1693H246.827H246.454V75.1978C245.652 75.3688 244.621 76.281 239.036 81.7535C236.487 84.2332 232.448 88.1665 229.67 90.5893L230.643 81.4684C230.672 81.1549 230.9 78.1906 229.04 76.1385C228.294 75.3119 226.891 74.3143 224.542 74.3143V77.9626C225.745 77.9626 226.174 78.4186 226.319 78.5612C227.006 79.3022 227.063 80.6704 227.006 81.0979L225.286 96.8314H228.982L229.126 95.5488C231.074 94.3231 234.424 91.2449 241.528 84.3187C243.075 82.808 244.736 81.1834 245.968 80.0434L244.307 96.8314H248.059L250.064 75.1978L246.884 75.1693ZM99.1951 74.2857C90.1434 74.2857 87.7373 78.3617 87.7373 80.7844H91.3179C91.3464 80.2144 92.7787 77.8771 99.1951 77.8771C106.872 77.8771 106.872 80.7844 106.872 82.1811C106.872 82.979 106.843 83.8057 106.757 84.5752H94.6692L94.3255 88.1381H106.098L106.012 88.3091C105.955 88.4231 105.898 88.5941 105.812 88.7936C105.239 90.2758 103.864 93.6961 96.1873 93.6961C90.0862 93.6961 88.2243 92.4135 88.1669 92.3849L85.5603 94.8362C85.9614 95.2352 88.2815 97.2589 96.1873 97.2589C106.327 97.2589 108.476 91.8718 109.163 90.0763L109.278 89.8196C110.223 87.8815 110.452 83.9197 110.452 82.124C110.452 76.9365 106.642 74.2857 99.1951 74.2857ZM217.581 93.468C217.954 93.8956 218.585 94.0951 219.414 94.0951V97.715C217.037 97.715 215.633 96.7174 214.889 95.8623C214.431 95.3492 214.087 94.8076 213.859 94.2947C210.507 96.8029 205.609 97.9429 203.231 98H202.974C200.997 98 197.674 97.6579 195.525 95.5202C194.293 94.2947 193.664 92.6699 193.664 90.7887C193.664 88.9646 194.266 87.4255 195.497 86.2283C198.705 83.0646 205.35 83.1785 210.679 83.2926C212.053 83.3211 213.371 83.3497 214.402 83.2926C214.431 83.093 214.46 82.9221 214.487 82.7796C214.745 80.9839 214.688 80.0718 214.23 79.5872C212.541 77.706 204.377 77.9912 198.418 78.3617L198.189 74.7418C209.734 74.0292 214.632 74.6564 216.894 77.136C218.47 78.8746 218.384 81.1263 218.04 83.3497C217.696 85.4588 216.951 91.6723 216.923 91.7294C216.894 92.0714 216.951 92.7554 217.581 93.468ZM203.202 94.3516C206.382 94.2947 212.799 92.043 213.658 88.9646C213.743 88.3376 213.829 87.625 213.915 86.9124C212.941 86.941 211.825 86.9124 210.62 86.8839C206.21 86.8269 200.165 86.6845 198.018 88.7936C197.502 89.3067 197.272 89.9337 197.272 90.7603C197.272 91.6723 197.531 92.3564 198.074 92.898C199.021 93.8671 200.854 94.4086 203.202 94.3516ZM150.898 97.4298C159.205 97.4298 163.759 92.5844 163.759 83.7771C163.759 80.2144 162.326 74.2288 152.702 74.2288C146.286 74.2288 138.609 76.7085 138.609 88.5086C138.581 96.3753 144.797 97.4298 150.898 97.4298ZM152.673 77.8486C157.858 77.8486 160.15 79.6727 160.15 83.7771C160.15 90.6463 157.2 93.8385 150.869 93.8385C143.508 93.8385 142.161 92.043 142.161 88.5372C142.19 83.9482 143.278 77.8486 152.673 77.8486ZM138.065 75.1693H133.568L124.488 84.7462H120.048L120.42 81.2404C120.449 80.9268 120.678 78.1051 118.874 76.11C118.129 75.2833 116.725 74.2857 114.348 74.2857V77.8486C115.207 77.8486 115.809 78.0481 116.181 78.4757C116.84 79.1882 116.869 80.4423 116.84 80.8413L115.15 96.8029H118.759L119.704 87.967H124.087L131.105 96.8029H135.258L127.152 86.6274L138.065 75.1693ZM277.42 74.9983L276.473 84.4897H260.777L261.093 81.4399C261.12 81.0979 261.35 78.1622 259.488 76.0814C258.743 75.2549 257.339 74.2573 254.991 74.2573V77.9055C256.193 77.9055 256.624 78.3617 256.767 78.5041C257.454 79.2453 257.511 80.6134 257.454 81.0409L255.793 96.8314H259.459L260.406 88.081H276.13L275.243 96.8314H278.823L280.971 74.9983H277.42ZM190.885 75.1978L188.507 96.8314H184.87L186.846 78.7891H175.532C175.188 88.1096 172.123 97.4584 164.389 97.4584V93.8671C169.832 93.8671 171.636 85.0883 171.923 78.7891H170.347V75.1978H190.885Z" fill="#3A3C42"/>
<path d="M58.1762 56.6711C48.7237 56.6711 44.6275 62.9701 40.9897 68.4997C37.7816 73.4306 35.0031 77.6776 28.9591 77.6776H28.2717V81.611H58.1762C66.34 81.611 70.1496 75.7964 73.5296 70.6374C76.9096 65.4785 80.0891 60.6045 87.3934 60.6045H134.828V56.6711H58.1762ZM70.2068 68.4997C66.9988 73.4306 64.1915 77.6776 58.1762 77.6776H38.8414C41.0184 75.6254 42.7084 73.0601 44.3125 70.6374C47.6925 65.4785 50.872 60.6045 58.1762 60.6045H76.5087C73.9019 62.8563 71.9828 65.7635 70.2068 68.4997Z" fill="#1069A9"/>
<path d="M115.866 48.0064C108.562 48.0064 105.382 43.1325 102.002 37.9735C98.6508 32.8145 94.8411 27 86.6774 27H56.601V30.9334H57.489C63.5329 30.9334 66.3115 35.1802 69.5195 40.1112C71.2955 42.8475 73.2146 45.7547 75.8214 48.0064H59.1504C51.8461 48.0064 48.6666 43.1325 45.2866 37.9735C41.9066 32.8145 38.0969 27 29.9045 27H0V30.9334H0.716106C6.76004 30.9334 9.53854 35.1802 12.7467 40.1112C16.3845 45.6692 20.4807 51.9398 29.9045 51.9398H148.091V48.0064H115.866ZM29.9045 48.0064C22.6003 48.0064 19.4207 43.1325 16.0407 37.9735C14.4653 35.5508 12.7753 32.9855 10.5984 30.9334H29.9332C35.9772 30.9334 38.7557 35.1802 41.9638 40.1112C43.7398 42.8475 45.6589 45.7547 48.2656 48.0064H29.9045ZM86.6774 48.0064C79.3732 48.0064 76.1937 43.1325 72.8136 37.9735C71.2382 35.5508 69.5482 32.9855 67.3426 30.9334H86.6774C92.7214 30.9334 95.5 35.1802 98.708 40.1112C100.484 42.8475 102.403 45.7547 105.01 48.0064H86.6774Z" fill="#1696CD"/>
</svg>
