<svg width="352" height="116" viewBox="0 0 352 116" fill="none" xmlns="http://www.w3.org/2000/svg">
<path d="M121.764 21.9493C121.764 21.9493 114.251 20.4477 105.637 23.3508C97.0224 26.2539 90.3111 29.8577 88.7085 32.1602C87.1058 34.4626 90.4113 35.5638 91.2127 37.4658C91.9138 39.3678 90.4113 39.568 89.2093 44.7735C88.1075 50.0792 87.3061 52.2815 89.009 57.8875C90.6117 63.4934 92.615 69.2996 92.615 69.2996C92.615 69.2996 92.7152 73.8043 94.5182 75.2058C96.3212 76.6073 97.7236 77.9087 100.027 77.6084C102.331 77.3081 106.038 75.3059 106.038 75.3059C106.038 75.3059 101.931 80.3113 101.129 81.7127C100.328 83.2143 98.9256 85.0162 98.9256 85.0162C98.9256 85.0162 95.2194 83.6148 90.4113 80.3113C85.6033 77.0077 77.8903 71.602 74.5848 69.1995C71.2793 66.7969 67.7734 64.8949 67.1724 62.3922C66.5714 59.8896 65.2692 55.3848 66.8719 49.879C68.4746 44.273 72.6816 33.4615 72.6816 33.4615C72.6816 33.4615 69.0756 30.158 67.7734 28.5563C66.4712 26.9546 64.3677 24.9525 66.0705 22.0494C67.7734 19.1463 68.7751 19.0462 71.4796 19.3466C74.1841 19.6469 79.7935 20.4477 79.7935 20.4477C79.7935 20.4477 81.5965 18.7459 84.2009 18.4456C86.6049 18.1453 96.2211 17.845 104.034 17.9451C111.847 18.0452 114.952 17.4445 117.557 18.846C120.061 20.2475 121.764 21.9493 121.764 21.9493Z" fill="#F7B655"/>
<path d="M148.709 77.3085H113.851C113.851 77.3085 110.846 80.1114 107.44 82.1136C104.034 84.1157 104.635 85.5172 100.829 85.1168C97.0224 84.8164 96.1209 83.9155 91.3128 81.2126C86.5047 78.5098 85.2026 77.3085 85.2026 77.3085H48.0403C48.0403 77.3085 43.1321 77.809 41.0285 75.4065C38.925 73.0039 37.0218 71.5023 37.0218 67.8985C37.0218 64.2947 37.0218 55.8857 37.0218 55.8857H24.4007V68.4991C24.4007 68.4991 24.1002 77.3085 31.6128 83.3149C39.1253 89.3212 44.9351 90.5225 47.3391 90.5225C49.7431 90.5225 148.709 90.5225 148.709 90.5225V77.3085Z" fill="#F7B655"/>
<path d="M31.1119 40.7693C31.1119 33.7618 36.1203 27.8555 42.8316 26.6543C41.9301 26.4541 41.0286 26.354 40.1271 26.354C32.1136 26.354 25.7029 32.7608 25.7029 40.7693C25.7029 48.7777 32.1136 55.1845 40.1271 55.1845C41.0286 55.1845 41.9301 55.0844 42.8316 54.8842C36.2205 53.5828 31.1119 47.7767 31.1119 40.7693Z" fill="#F7B655"/>
<path d="M100.929 86.2179H99.1259C97.5232 86.0177 95.62 85.1167 93.817 84.1157C91.6133 82.9144 70.9787 68.4991 68.2742 65.9964C65.3693 63.2936 65.0688 60.5907 65.169 55.4853C65.2692 50.9805 65.8702 49.0785 66.8719 45.775C67.0722 45.0742 67.3727 44.2734 67.573 43.3724C69.2759 37.4662 73.5831 28.0562 74.4846 26.2543C76.6883 21.5493 78.7918 19.7474 80.695 18.6462C82.7985 17.3448 86.9054 17.1446 90.5115 17.0445C93.5165 16.9444 97.0224 17.0445 97.0224 17.0445H104.435C104.435 17.0445 106.438 16.9444 109.443 17.0445C113.049 17.1446 117.156 17.3448 119.26 18.6462C121.063 19.7474 123.266 21.5493 125.47 26.2543C126.271 28.0562 130.579 37.5663 132.382 43.3724C132.682 44.2734 132.882 45.0742 133.083 45.775C134.085 49.0785 134.786 51.0806 134.786 55.4853C134.886 60.5907 134.585 63.2936 131.68 65.9964C128.976 68.4991 108.341 82.9144 106.138 84.1157C104.435 85.1167 102.632 86.0177 100.929 86.2179ZM99.5266 84.2158H100.428C101.73 84.2158 103.533 83.3148 105.236 82.3137C107.34 81.1125 127.874 66.7973 130.378 64.4948C132.582 62.3926 132.882 60.5907 132.782 55.4853C132.682 51.2808 132.181 49.579 131.18 46.3756C130.979 45.6749 130.679 44.874 130.478 43.9731C129.176 39.5684 125.971 32.0604 123.667 27.0551C121.764 22.8507 119.861 21.249 118.258 20.348C116.455 19.2468 111.647 19.0466 109.443 19.0466C106.538 18.9465 104.535 19.0466 104.535 19.0466H97.0224C96.9222 19.0466 93.5165 18.9465 90.6116 19.0466C88.3078 19.1467 83.5999 19.2468 81.7969 20.348C80.1942 21.3491 78.291 22.8507 76.3878 27.0551C74.0839 32.0604 70.9787 39.4683 69.5764 43.9731C69.2759 44.874 69.0755 45.6749 68.8752 46.3756C67.8735 49.579 67.2725 51.3809 67.2725 55.4853C67.1724 60.5907 67.4729 62.3926 69.6766 64.4948C72.1808 66.7973 92.7152 81.2126 94.8187 82.3137C96.4214 83.3148 98.3246 84.2158 99.5266 84.2158Z" fill="#00398C"/>
<path d="M93.2666 34.8413C93.4254 33.5796 91.9967 32.361 90.0755 32.1195C88.1544 31.8781 86.4683 32.705 86.3095 33.9668C86.1507 35.2284 87.5794 36.447 89.5005 36.6885C91.4216 36.9299 93.1077 36.103 93.2666 34.8413Z" fill="#00398C"/>
<path d="M109.734 36.7446C111.655 36.5032 113.084 35.2846 112.925 34.0229C112.766 32.7612 111.08 31.9342 109.159 32.1757C107.238 32.4171 105.809 33.6357 105.968 34.8975C106.127 36.1591 107.813 36.9862 109.734 36.7446Z" fill="#00398C"/>
<path d="M99.3263 56.7868C99.3263 56.7868 99.3263 54.5844 98.4248 53.283C97.8238 52.282 94.3179 50.9806 94.418 48.9785C94.5182 46.9763 96.9222 46.3757 100.027 46.4758C103.133 46.5759 105.637 46.7761 105.637 48.9785C105.637 51.1808 102.632 52.1819 102.131 53.1829C101.129 55.1851 101.43 56.7868 101.43 56.7868H99.3263Z" fill="#00398C"/>
<path d="M91.5132 69.2995C91.3128 68.899 87.2059 58.488 87.0056 52.5817C86.8053 45.8746 88.2076 41.8703 91.5132 39.5679C94.6184 37.3656 98.6251 37.4657 102.231 37.766C106.037 38.0663 109.043 39.9683 111.246 43.2718C113.049 45.9747 113.55 50.2793 112.548 54.784C111.747 58.6882 108.341 68.9991 108.141 69.3996L106.238 68.7989C106.238 68.6988 109.744 58.0876 110.545 54.3836C111.346 50.4795 110.946 46.6754 109.543 44.373C107.74 41.57 105.336 40.0684 102.131 39.7681C98.9256 39.4678 95.3195 39.4678 92.7152 41.2697C90.0106 43.1717 88.8086 46.6754 89.009 52.5817C89.2093 58.1877 93.3162 68.5987 93.3162 68.6988L91.5132 69.2995Z" fill="#00398C"/>
<path d="M71.3794 34.663C71.3794 34.663 68.9754 31.6598 66.8719 29.4575C64.2675 26.7546 64.2675 24.5523 64.4678 23.1508C64.8685 19.9474 67.7734 18.4458 70.3777 18.4458C72.9821 18.4458 79.5932 19.547 79.7935 19.547L79.493 21.5491C79.3928 21.5491 72.7818 20.4479 70.3777 20.4479C68.5747 20.4479 66.7717 21.3489 66.4712 23.351C66.371 24.4522 66.371 25.9538 68.3744 27.9559C70.5781 30.2583 72.8819 33.1614 72.9821 33.3616L71.3794 34.663Z" fill="#00398C"/>
<path d="M128.976 34.663L127.373 33.4617C127.473 33.3616 129.877 30.3584 131.981 28.056C133.884 26.0539 133.984 24.5523 133.884 23.4511C133.584 21.449 131.68 20.548 129.978 20.548C127.574 20.548 120.862 21.6492 120.862 21.6492L120.562 19.6471C120.862 19.6471 127.373 18.5459 129.978 18.5459C132.582 18.5459 135.487 19.9474 135.888 23.2509C136.088 24.6524 135.988 26.8547 133.483 29.5576C131.38 31.5597 129.076 34.5629 128.976 34.663Z" fill="#00398C"/>
<path d="M149.51 97.3295H50.5445V58.188H66.1707V61.1912H53.5495V94.3263H146.505V61.1912H133.884V58.188H149.51V97.3295Z" fill="#00398C"/>
<path d="M73.5831 67.9985H71.5797V95.8281H73.5831V67.9985Z" fill="#00398C"/>
<path d="M127.974 67.9985H125.971V95.8281H127.974V67.9985Z" fill="#00398C"/>
<path d="M92.1141 81.2119H90.1108V95.9275H92.1141V81.2119Z" fill="#00398C"/>
<path d="M110.044 81.2119H108.041V95.9275H110.044V81.2119Z" fill="#00398C"/>
<path d="M147.365 80.4209L131.375 95.1361L132.732 96.6089L148.722 81.8937L147.365 80.4209Z" fill="#00398C"/>
<path d="M52.7012 80.4805L51.3441 81.9532L67.3334 96.6685L68.6905 95.1957L52.7012 80.4805Z" fill="#00398C"/>
<path d="M53.5495 86.5181H50.5445V99.7321H53.5495V86.5181Z" fill="#00398C"/>
<path d="M149.51 86.5181H146.505V99.7321H149.51V86.5181Z" fill="#00398C"/>
<path d="M55.9536 56.9861H24V24.9521H55.9536V56.9861ZM26.0034 54.984H53.9502V26.9543H26.0034V54.984Z" fill="#00398C"/>
<path d="M40.0269 56.1858C31.6128 56.1858 24.8014 49.3784 24.8014 40.9695C24.8014 32.5606 31.6128 25.7534 40.0269 25.7534C48.441 25.7534 55.1522 32.5606 55.1522 40.9695C55.1522 49.3784 48.3408 56.1858 40.0269 56.1858ZM40.0269 27.7555C32.7146 27.7555 26.8047 33.6618 26.8047 40.9695C26.8047 48.2773 32.7146 54.1836 40.0269 54.1836C47.3391 54.1836 53.249 48.2773 53.249 40.9695C53.249 33.6618 47.239 27.7555 40.0269 27.7555Z" fill="#00398C"/>
<path d="M25.7199 25.2949L24.2691 26.6756L33.8706 36.7526L35.3215 35.372L25.7199 25.2949Z" fill="#00398C"/>
<path d="M54.0977 25.3462L44.4961 35.4233L45.9469 36.804L55.5485 26.7269L54.0977 25.3462Z" fill="#00398C"/>
<path d="M33.8713 45.3887L24.2697 55.4658L25.7206 56.8464L35.3221 46.7693L33.8713 45.3887Z" fill="#00398C"/>
<path d="M45.946 45.2979L44.4951 46.6785L54.0966 56.7556L55.5475 55.3749L45.946 45.2979Z" fill="#00398C"/>
<path d="M30.2104 17.9453C30.2104 17.9453 29.409 18.9464 28.808 20.8484C28.207 22.7504 27.9065 24.5523 29.8097 24.5523C32.1136 24.5523 31.7129 22.6503 31.2121 20.9485C30.8114 18.9464 30.2104 17.9453 30.2104 17.9453Z" fill="#00398C"/>
<path d="M34.9183 17.9453C34.9183 17.9453 34.117 18.9464 33.516 20.8484C32.915 22.7504 32.6145 24.5523 34.6178 24.5523C36.9217 24.5523 36.521 22.6503 36.0202 20.9485C35.5193 18.9464 34.9183 17.9453 34.9183 17.9453Z" fill="#00398C"/>
<path d="M39.7264 17.9453C39.7264 17.9453 38.925 18.9464 38.324 20.8484C37.723 22.7504 37.4225 24.5523 39.4259 24.5523C41.7297 24.5523 41.3291 22.6503 40.8282 20.9485C40.3274 18.9464 39.7264 17.9453 39.7264 17.9453Z" fill="#00398C"/>
<path d="M44.4342 17.9453C44.4342 17.9453 43.6329 18.9464 43.0319 20.8484C42.4309 22.7504 42.1304 24.5523 44.1337 24.5523C46.4376 24.5523 46.0369 22.6503 45.5361 20.9485C45.0353 18.9464 44.4342 17.9453 44.4342 17.9453Z" fill="#00398C"/>
<path d="M49.2423 17.9453C49.2423 17.9453 48.4409 18.9464 47.8399 20.8484C47.2389 22.7504 46.9384 24.5523 48.9418 24.5523C51.2456 24.5523 50.845 22.6503 50.3441 20.9485C49.7431 18.9464 49.2423 17.9453 49.2423 17.9453Z" fill="#00398C"/>
<path d="M96.6217 69.3999C96.6217 69.3999 96.221 70.3009 96.0207 71.9026C95.8204 73.5043 95.8204 75.106 96.9222 75.0058C98.2244 74.9057 97.9239 73.304 97.5232 71.9026C97.0224 70.3009 96.6217 69.3999 96.6217 69.3999Z" fill="#00398C"/>
<path d="M103.233 69.3999C103.233 69.3999 103.633 70.3009 103.834 71.9026C104.034 73.5043 104.034 75.106 102.932 75.0058C101.63 74.9057 101.931 73.304 102.331 71.9026C102.832 70.3009 103.233 69.3999 103.233 69.3999Z" fill="#00398C"/>
<path d="M96.6217 63.5938C96.6217 63.5938 96.221 62.6929 96.0207 61.0912C95.8204 59.4895 95.8204 57.8878 96.9222 57.9879C98.2244 58.088 97.9239 59.6897 97.5232 61.0912C97.0224 62.793 96.6217 63.5938 96.6217 63.5938Z" fill="#00398C"/>
<path d="M103.233 63.5938C103.233 63.5938 103.633 62.6929 103.834 61.0912C104.034 59.4895 104.034 57.8878 102.932 57.9879C101.63 58.088 101.931 59.6897 102.331 61.0912C102.832 62.793 103.233 63.5938 103.233 63.5938Z" fill="#00398C"/>
<path d="M99.9273 78.8097C95.3195 78.8097 91.5132 75.1058 91.5132 70.5009V62.3923C91.5132 57.7874 95.2194 54.0835 99.8271 54.0835C104.435 54.0835 108.241 57.7874 108.241 62.3923V70.5009C108.241 75.0057 104.435 78.8097 99.9273 78.8097ZM99.9273 56.1857C96.4214 56.1857 93.5165 58.9887 93.5165 62.4924V70.601C93.5165 74.1047 96.3212 76.9077 99.8271 76.9077H99.9273C103.433 76.9077 106.238 74.1047 106.238 70.601V62.4924C106.238 58.9887 103.333 56.1857 99.9273 56.1857Z" fill="#00398C"/>
<path d="M99.7269 72.3027C97.3229 72.3027 95.2193 73.2037 94.0173 74.6052C95.3195 76.5072 97.5232 77.8086 100.027 77.8086H100.128C102.431 77.8086 104.535 76.7074 105.837 75.0056C104.635 73.4039 102.331 72.3027 99.7269 72.3027Z" fill="#00398C"/>
<path d="M100.228 59.6899C102.632 59.6899 104.735 58.789 105.937 57.3875C104.635 55.4855 102.431 54.1841 99.9272 54.1841H99.8271C97.5232 54.1841 95.4197 55.2852 94.1175 56.9871C95.2193 58.5888 97.5232 59.6899 100.228 59.6899Z" fill="#00398C"/>
<path d="M157.505 80.7765V47.1484H172.414V52.8898H161.471V60.545H167.353C169.542 60.545 171.183 61.5019 172.414 63.279C173.645 65.056 174.329 67.6533 174.329 70.6607C174.329 73.258 173.782 75.7186 172.824 77.7691C171.73 79.8196 169.952 80.7765 167.49 80.7765H157.505ZM161.608 66.2863V75.1718H165.848C166.943 75.1718 167.763 75.0351 168.311 74.8984C168.858 74.625 169.268 74.2149 169.542 73.5314C169.952 72.8479 170.089 71.891 170.089 70.9341C170.089 67.9267 168.721 66.423 165.985 66.423H161.608V66.2863Z" fill="#00398C"/>
<path d="M197.309 80.7764V47.1484H212.218V52.8898H201.412V60.4083H211.397V66.0129H201.412V75.1718H212.629V80.9131H197.309V80.7764Z" fill="#00398C"/>
<path d="M240.259 80.7765V52.8898H234.377V47.1484H250.244V52.8898H244.362V80.7765H240.259Z" fill="#00398C"/>
<path d="M277.054 80.7765V52.8898H271.172V47.1484H287.039V52.8898H281.157V80.7765H277.054Z" fill="#00398C"/>
<path d="M327.527 80.7765H323.15L321.372 73.1213H313.302L311.66 80.7765H307.42L315.217 47.1484H319.457L327.527 80.7765ZM320.004 67.5166L317.268 55.077L314.533 67.5166H320.004Z" fill="#00398C"/>
<path d="M159.146 96.4966V87.3377H156.684V86.1074H162.839V87.3377H160.24V96.4966H159.146Z" fill="#00398C"/>
<path d="M162.976 96.4971L165.985 86.2446H167.08L170.226 96.4971H168.994L168.037 93.353H164.891L164.07 96.4971H162.976ZM165.165 92.2594H167.763L166.943 89.3887C166.669 88.5685 166.532 87.7483 166.396 87.2015C166.259 87.885 166.122 88.5685 165.985 89.1153L165.165 92.2594Z" fill="#00398C"/>
<path d="M171.046 96.4971V86.2446H172.14V90.4823H176.107V86.2446H177.201V96.4971H176.107V91.5759H172.14V96.4971H171.046Z" fill="#00398C"/>
<path d="M178.843 86.2441H179.937V90.7552C180.348 90.7552 180.758 90.6185 180.895 90.3451C181.031 90.0717 181.305 89.5249 181.579 88.568C181.852 87.8845 181.989 87.3377 182.126 87.0643C182.263 86.7909 182.536 86.5175 182.673 86.3808C182.946 86.2441 183.22 86.1074 183.767 86.1074C183.904 86.1074 184.041 86.1074 184.178 86.1074V87.3377H183.904H183.63C183.357 87.3377 183.083 87.4744 182.946 87.6111C182.81 87.7478 182.536 88.2946 182.399 88.9781C182.126 89.7983 181.989 90.3451 181.715 90.6185C181.442 90.8919 181.305 91.0286 181.031 91.1653C181.579 91.302 181.989 91.9855 182.536 92.9424L184.178 96.3599H182.946L181.715 93.6259C181.305 92.8057 181.031 92.1222 180.758 91.9855C180.484 91.7121 180.211 91.5754 180.074 91.5754C180.074 91.5754 180.074 91.5754 179.937 91.5754V96.3599H178.843V86.2441Z" fill="#00398C"/>
<path d="M184.725 93.4896V92.2593H187.597V93.4896H184.725Z" fill="#00398C"/>
<path d="M188.828 86.2441H189.922V90.7552C190.333 90.7552 190.743 90.6185 190.88 90.3451C191.017 90.0717 191.29 89.5249 191.564 88.568C191.837 87.8845 191.974 87.3377 192.111 87.0643C192.248 86.7909 192.521 86.5175 192.658 86.3808C192.932 86.2441 193.205 86.1074 193.752 86.1074C193.889 86.1074 194.026 86.1074 194.163 86.1074V87.3377H193.889H193.616C193.342 87.3377 193.068 87.4744 192.932 87.6111C192.795 87.7478 192.521 88.2946 192.385 88.9781C192.111 89.7983 191.974 90.3451 191.701 90.6185C191.427 90.8919 191.29 91.0286 191.017 91.1653C191.564 91.302 191.974 91.9855 192.521 92.9424L194.163 96.3599H192.932L191.701 93.6259C191.29 92.8057 191.017 92.1222 190.743 91.9855C190.47 91.7121 190.196 91.5754 190.059 91.5754C190.059 91.5754 190.059 91.5754 189.922 91.5754V96.3599H188.828V86.2441Z" fill="#00398C"/>
<path d="M194.847 91.4387C194.847 89.6616 195.257 88.2946 195.941 87.3377C196.625 86.3808 197.582 85.9707 198.54 85.9707C199.224 85.9707 199.908 86.2441 200.455 86.6542C201.002 87.0643 201.412 87.7478 201.823 88.4313C202.233 89.1148 202.37 90.2084 202.37 91.302C202.37 92.8057 202.096 94.036 201.412 94.9929C200.728 96.0865 199.771 96.6333 198.677 96.6333C197.582 96.6333 196.625 96.0865 195.941 94.9929C195.12 94.036 194.847 92.9424 194.847 91.4387ZM195.804 91.5754C195.804 92.8057 196.078 93.8993 196.625 94.5828C197.172 95.2663 197.719 95.6764 198.54 95.6764C199.361 95.6764 199.908 95.2663 200.455 94.5828C201.002 93.8993 201.275 92.8057 201.275 91.4387C201.275 90.6185 201.139 89.7983 200.865 89.1148C200.728 88.568 200.318 88.1579 199.908 87.8845C199.497 87.6111 199.087 87.3377 198.54 87.3377C197.719 87.3377 197.172 87.7478 196.625 88.4313C196.078 89.1148 195.804 90.0717 195.804 91.5754Z" fill="#00398C"/>
<path d="M203.464 96.4971V86.2446H204.558V90.4823H208.525V86.2446H209.619V96.4971H208.525V91.5759H204.558V96.4971H203.464Z" fill="#00398C"/>
<path d="M213.312 96.4966V87.3377H210.714V86.1074H216.869V87.3377H214.27V96.4966H213.312Z" fill="#00398C"/>
<path d="M217.963 96.4971V86.2446H223.571V87.4749H219.057V90.619H223.298V91.8493H219.057V95.4035H223.845V96.6338H217.963V96.4971Z" fill="#00398C"/>
<path d="M225.213 86.2443H226.17V94.4463L230.274 86.2443H231.368V96.4968H230.41V88.2948L226.307 96.4968H225.213V86.2443ZM229.316 83.647H230C230 84.1938 229.727 84.7406 229.453 85.014C229.179 85.2874 228.769 85.4241 228.359 85.4241C227.948 85.4241 227.538 85.2874 227.264 85.014C226.991 84.7406 226.854 84.1938 226.717 83.647H227.401C227.538 84.3305 227.812 84.6039 228.222 84.6039C228.495 84.6039 228.769 84.4672 228.906 84.3305C229.179 84.1938 229.179 84.0571 229.316 83.647Z" fill="#00398C"/>
<path d="M233.009 96.4971V86.2446H234.104V90.4823H238.07V86.2446H239.165V96.4971H238.07V91.5759H234.104V96.4971H233.009Z" fill="#00398C"/>
<path d="M240.806 96.4971V86.2446H246.414V87.4749H241.9V90.619H246.141V91.8493H241.9V95.4035H246.688V96.6338H240.806V96.4971Z" fill="#00398C"/>
<path d="M248.056 96.4971V86.2446H250.928C251.612 86.2446 252.159 86.2446 252.433 86.3813C252.843 86.518 253.253 86.9281 253.527 87.3382C253.801 87.885 253.937 88.4318 253.937 89.1153C253.937 90.0722 253.664 90.7557 253.253 91.4392C252.843 91.986 252.022 92.2594 251.065 92.2594H249.013V96.4971H248.056ZM249.013 91.1658H251.065C251.749 91.1658 252.159 91.0291 252.433 90.7557C252.706 90.4823 252.843 89.9355 252.843 89.3887C252.843 88.9786 252.706 88.5685 252.569 88.2951C252.433 88.0217 252.296 87.7483 252.022 87.7483C251.749 87.7483 251.475 87.6116 250.928 87.6116H248.876V91.1658H249.013Z" fill="#00398C"/>
<path d="M255.168 96.4971V86.2446H256.263V90.4823H260.229V86.2446H261.324V96.4971H260.229V91.5759H256.263V96.4971H255.168Z" fill="#00398C"/>
<path d="M263.102 86.2446H264.196V90.619H266.111C266.795 90.619 267.342 90.7557 267.753 90.8924C268.163 91.0291 268.436 91.4392 268.71 91.8493C268.984 92.2594 269.12 92.9429 269.12 93.4897C269.12 94.3099 268.984 94.9934 268.573 95.5402C268.163 96.087 267.342 96.4971 266.248 96.4971H263.102V86.2446ZM264.059 95.4035H265.974C266.658 95.4035 267.069 95.2668 267.342 94.9934C267.616 94.72 267.753 94.1732 267.753 93.6264C267.753 93.2163 267.616 92.8062 267.479 92.5328C267.342 92.2594 267.069 92.1227 266.795 91.986C266.521 91.8493 266.111 91.8493 265.427 91.8493H264.059V95.4035ZM270.351 96.4971V86.2446H271.446V96.4971H270.351Z" fill="#00398C"/>
<path d="M273.224 86.2443H274.045V94.4463L278.148 86.2443H279.242V96.4968H278.285V88.2948L274.181 96.4968H273.087V86.2443H273.224ZM277.327 83.647H278.011C278.011 84.1938 277.738 84.7406 277.464 85.014C277.191 85.2874 276.78 85.4241 276.37 85.4241C275.96 85.4241 275.549 85.2874 275.276 85.014C275.002 84.7406 274.865 84.1938 274.729 83.647H275.412C275.549 84.3305 275.823 84.6039 276.233 84.6039C276.507 84.6039 276.78 84.4672 276.917 84.3305C277.191 84.1938 277.191 84.0571 277.327 83.647Z" fill="#00398C"/>
<path d="M289.501 92.9429L290.595 93.353C290.322 94.4466 289.911 95.4035 289.364 95.9503C288.817 96.4971 288.133 96.7705 287.313 96.7705C286.629 96.7705 285.945 96.6338 285.534 96.2237C285.124 95.8136 284.577 95.2668 284.303 94.4466C284.03 93.6264 283.756 92.6695 283.756 91.4392C283.756 90.3456 283.893 89.3887 284.303 88.5685C284.577 87.7483 285.124 87.2015 285.671 86.7914C286.218 86.3813 286.902 86.2446 287.586 86.2446C288.27 86.2446 288.954 86.518 289.501 87.0648C290.048 87.6116 290.459 88.2951 290.595 89.252L289.638 89.5254C289.228 88.1584 288.544 87.3382 287.586 87.3382C287.039 87.3382 286.629 87.4749 286.218 87.7483C285.808 88.0217 285.534 88.4318 285.261 89.1153C284.987 89.6621 284.987 90.4823 284.987 91.4392C284.987 92.8062 285.261 93.8998 285.671 94.5833C286.082 95.2668 286.765 95.6769 287.449 95.6769C287.997 95.6769 288.544 95.4035 288.954 94.9934C289.091 94.4466 289.364 93.7631 289.501 92.9429Z" fill="#00398C"/>
<path d="M291.826 96.4971V86.2446H297.435V87.4749H292.921V90.619H297.161V91.8493H292.921V95.4035H297.708V96.6338H291.826V96.4971Z" fill="#00398C"/>
<path d="M298.939 96.4971V86.2446H301.812C302.496 86.2446 303.043 86.2446 303.316 86.3813C303.727 86.518 304.137 86.9281 304.411 87.3382C304.684 87.885 304.821 88.4318 304.821 89.1153C304.821 90.0722 304.547 90.7557 304.137 91.4392C303.727 91.986 302.906 92.2594 301.948 92.2594H300.034V96.4971H298.939ZM300.034 91.1658H302.085C302.769 91.1658 303.18 91.0291 303.453 90.7557C303.727 90.4823 303.863 89.9355 303.863 89.3887C303.863 88.9786 303.727 88.5685 303.59 88.2951C303.453 88.0217 303.316 87.7483 303.043 87.7483C302.769 87.7483 302.496 87.6116 301.948 87.6116H300.034V91.1658Z" fill="#00398C"/>
<path d="M306.189 96.4971V86.2446H309.061C309.608 86.2446 310.156 86.3813 310.429 86.518C310.839 86.6547 311.113 87.0648 311.25 87.4749C311.523 87.885 311.523 88.2951 311.523 88.8419C311.523 89.252 311.387 89.7988 311.25 90.0722C311.113 90.4823 310.839 90.7557 310.429 91.0291C310.839 91.1658 311.25 91.5759 311.523 91.986C311.797 92.3961 311.934 92.9429 311.934 93.6264C311.934 94.3099 311.797 94.8567 311.523 95.2668C311.25 95.6769 310.976 96.087 310.566 96.3604C310.156 96.6338 309.608 96.6338 308.924 96.6338H306.189V96.4971ZM307.283 90.4823H308.924C309.335 90.4823 309.608 90.4823 309.882 90.3456C310.156 90.2089 310.292 90.0722 310.566 89.7988C310.839 89.5254 310.839 89.252 310.839 88.8419C310.839 88.4318 310.839 88.1584 310.703 87.885C310.566 87.6116 310.429 87.4749 310.156 87.3382C309.882 87.2015 309.608 87.2015 308.924 87.2015H307.42V90.4823H307.283ZM307.283 95.2668H309.198C309.608 95.2668 309.882 95.2668 310.156 95.1301C310.429 94.9934 310.703 94.8567 310.839 94.5833C310.976 94.3099 311.113 93.8998 311.113 93.4897C311.113 93.0796 310.976 92.8062 310.839 92.5328C310.703 92.2594 310.429 92.1227 310.292 91.986C310.019 91.8493 309.608 91.8493 309.061 91.8493H307.283V95.2668Z" fill="#00398C"/>
<path d="M313.438 86.2446H314.396V94.4466L318.499 86.2446H319.594V96.4971H318.636V88.2951L314.533 96.4971H313.438V86.2446Z" fill="#00398C"/>
<path d="M326.706 92.9429L327.801 93.353C327.527 94.4466 327.117 95.4035 326.57 95.9503C326.022 96.4971 325.339 96.7705 324.518 96.7705C323.834 96.7705 323.15 96.6338 322.74 96.2237C322.329 95.8136 321.782 95.2668 321.509 94.4466C321.235 93.6264 320.961 92.6695 320.961 91.4392C320.961 90.3456 321.098 89.3887 321.509 88.5685C321.782 87.7483 322.329 87.2015 322.876 86.7914C323.424 86.3813 324.107 86.2446 324.791 86.2446C325.475 86.2446 326.159 86.518 326.706 87.0648C327.254 87.6116 327.664 88.2951 327.801 89.252L326.843 89.5254C326.433 88.1584 325.749 87.3382 324.791 87.3382C324.244 87.3382 323.834 87.4749 323.424 87.7483C323.013 88.0217 322.74 88.4318 322.466 89.1153C322.193 89.6621 322.193 90.4823 322.193 91.4392C322.193 92.8062 322.466 93.8998 322.876 94.5833C323.287 95.2668 323.971 95.6769 324.655 95.6769C325.202 95.6769 325.749 95.4035 326.159 94.9934C326.296 94.4466 326.57 93.7631 326.706 92.9429Z" fill="#00398C"/>
</svg>
