<svg width="114" height="133" viewBox="0 0 114 133" fill="none" xmlns="http://www.w3.org/2000/svg">
<g clip-path="url(#clip0_48_22)">
<path d="M54.9 132.6C26.4 132.6 8.1 120.2 0.6 95.7L0 94L41.1 89.9V91.5C41.1 91.6 41.1 91.6 41.2 91.7C41.3 92 41.4 92.3 41.5 92.5C42.5 95.3 44.2 97.4 46.9 99.1C49.7 100.8 52.9 101.6 56.2 101.6C61.3 101.6 65.2 100.2 68.3 97.2C71.4 94.3 72.9 90.7 72.9 86.4C72.9 81.2 71.6 77.1 69.1 74C66.6 71 63 69.5 58 69.5C50.9 69.5 46.4 71.5 44.2 75.7L43.8 76.5L5.8 75.2L18.9 0H103V33.6H47.7L44.5 48C50.7 44.6 58.8 42.8 68.6 42.8C76.9 42.8 84.6 44.5 91.3 47.8C98.1 51.1 103.5 56 107.4 62.2C111.3 68.5 113.3 76 113.3 84.4C113.3 95.8 110.6 105.2 105.1 112.4C99.7 119.5 92.5 124.8 83.7 127.9C75.1 131 65.4 132.6 54.9 132.6ZM4 96.6C11.5 118.8 28.2 129.6 54.9 129.6C65.1 129.6 74.5 128.1 82.8 125.2C91 122.3 97.7 117.4 102.8 110.7C107.8 104 110.4 95.2 110.4 84.5C110.4 76.6 108.6 69.6 105 63.8C101.4 58 96.4 53.5 90.1 50.5C83.8 47.4 76.6 45.8 68.7 45.8C57.8 45.8 49.3 48 43.3 52.4L40 54.7L45.2 30.6H100V3H21.4L9.3 72.3L42 73.4C44.8 68.8 50.2 66.4 58 66.4C63.9 66.4 68.4 68.3 71.4 72C74.4 75.6 75.9 80.4 75.9 86.3C75.9 91.5 74 95.8 70.4 99.3C66.8 102.7 62 104.5 56.2 104.5C52.3 104.5 48.7 103.5 45.4 101.6C42 99.6 39.8 96.8 38.6 93.3V93.2L4 96.6Z" fill="#1669A6"/>
</g>
<defs>
<clipPath id="clip0_48_22">
<rect width="113.3" height="132.6" fill="white"/>
</clipPath>
</defs>
</svg>
