<svg width="114" height="138" viewBox="0 0 114 138" fill="none" xmlns="http://www.w3.org/2000/svg">
<path fill-rule="evenodd" clip-rule="evenodd" d="M0.326172 84.8789H41.5703V87.8789C41.5703 93.336 42.949 97.0656 45.2772 99.5294L45.2855 99.5382L45.2937 99.547C47.6777 102.111 51.2762 103.6 56.5879 103.6C61.191 103.6 64.4551 102.33 66.7537 100.102C69.1952 97.7058 70.3311 95.0099 70.3311 91.8779C70.3311 88.2032 68.9009 85.6828 65.94 83.9018C62.7354 81.9743 57.5423 80.8154 49.9521 80.8154H46.9521V52.667H49.9521C56.2952 52.667 61.2212 51.8549 64.8678 50.3808L64.8746 50.378C66.4122 49.7609 67.4279 48.8777 68.0961 47.7578C68.7862 46.6011 69.2324 44.9751 69.2324 42.7031C69.2324 39.6835 68.1935 37.8563 66.3357 36.6497C64.0775 35.1831 61.1895 34.3652 57.5107 34.3652C53.4942 34.3652 50.4574 35.3795 48.1644 37.191L48.1571 37.1967L48.1498 37.2024C45.974 38.8995 44.5509 41.4566 44.098 45.2555L43.7828 47.9004H4.15365L4.28385 44.7755C4.59227 37.3734 6.23359 30.7548 9.28916 24.9937L9.29199 24.9884C12.3408 19.2679 16.4198 14.547 21.5236 10.8697C26.5515 7.24713 32.2436 4.57954 38.5708 2.85115L38.5744 2.85018C44.8861 1.13436 51.5537 0.28418 58.5654 0.28418C66.1668 0.28418 73.1448 1.12842 79.4772 2.84959C85.8286 4.56799 91.3463 7.09581 95.9687 10.4813C100.623 13.8395 104.216 17.9272 106.675 22.7468C109.142 27.5517 110.345 32.9068 110.345 38.748C110.345 45.0968 109.026 50.703 106.238 55.4326C104.374 58.5944 101.903 61.2805 98.8701 63.5022C102.767 65.7856 105.993 68.739 108.496 72.3768C112.045 77.5059 113.772 83.5073 113.772 90.252C113.772 100.323 111.364 109.071 106.393 116.336C101.445 123.567 94.435 128.927 85.5127 132.459C76.6721 135.971 66.3478 137.681 54.6104 137.681C44.2385 137.681 34.926 135.86 26.7381 132.138L26.7342 132.137C18.501 128.38 12.0062 122.697 7.32233 115.121C2.60767 107.495 0.326172 98.3672 0.326172 87.8789V84.8789ZM106.026 74.0801C103.52 70.4367 100.187 67.5286 96.0261 65.3558C94.9341 64.7855 93.7851 64.2659 92.5791 63.7969C93.7431 63.2252 94.8384 62.6045 95.8648 61.9345C103.518 56.939 107.345 49.2102 107.345 38.748C107.345 33.3281 106.231 28.4502 104.005 24.1143C101.778 19.749 98.5117 16.0137 94.2051 12.9082C89.9277 9.77344 84.7568 7.38574 78.6924 5.74512C72.6572 4.10449 65.9482 3.28418 58.5654 3.28418C51.7979 3.28418 45.3965 4.10449 39.3613 5.74512C33.3555 7.38574 27.9941 9.90527 23.2773 13.3037C18.5605 16.7021 14.7812 21.0674 11.9395 26.3994C9.5342 30.9343 8.0503 36.1013 7.48776 41.9004C7.39251 42.8823 7.32367 43.8823 7.28125 44.9004H41.1191C41.6465 40.4766 43.375 37.1221 46.3047 34.8369C49.2344 32.5225 52.9697 31.3652 57.5107 31.3652C61.6416 31.3652 65.1279 32.2881 67.9697 34.1338C70.8115 35.9795 72.2324 38.8359 72.2324 42.7031C72.2324 48.0059 70.1523 51.4922 65.9922 53.1621C61.8613 54.832 56.5146 55.667 49.9521 55.667V77.8154C65.5381 77.8154 73.3311 82.5029 73.3311 91.8779C73.3311 95.8623 71.8369 99.3193 68.8486 102.249C65.8604 105.149 61.7734 106.6 56.5879 106.6C50.6992 106.6 46.2021 104.93 43.0967 101.59C40.0791 98.3965 38.5703 93.8262 38.5703 87.8789H3.32617C3.32617 88.8942 3.34845 89.8942 3.39301 90.8789C3.78948 99.6411 5.94982 107.196 9.87402 113.543C14.2393 120.604 20.2744 125.892 27.9795 129.407C35.7139 132.923 44.5908 134.681 54.6104 134.681C66.0654 134.681 75.9971 133.011 84.4053 129.671C92.8428 126.331 99.3467 121.321 103.917 114.642C108.487 107.962 110.772 99.832 110.772 90.252C110.772 84.041 109.19 78.6504 106.026 74.0801Z" fill="white"/>
</svg>
