<svg width="352" height="116" viewBox="0 0 352 116" fill="none" xmlns="http://www.w3.org/2000/svg">
<g clip-path="url(#clip0_11_1367)">
<path d="M82.8 50.3999H1V52.6999H82.8V50.3999Z" fill="#097337"/>
<path d="M95 64.2998H13.2V66.5998H95V64.2998Z" fill="#097337"/>
<path d="M44.8 50.3999L69.2 66.5999H102.6L103.7 64.2999L84.2 50.3999H44.8Z" fill="#097337"/>
<path d="M80.9 41.9C75.5 31.6 64.7 24.5 52.3 24.5C39.9 24.5 29 31.6 23.6 41.9H80.9Z" fill="#0F529E"/>
<path d="M23.6 74.6001C29 84.9001 39.8 92.0001 52.3 92.0001C64.8 92.0001 75.5 84.9001 80.9 74.6001H23.6Z" fill="#0F529E"/>
<path d="M127.2 49V69.2H120.9V49H111.4V45H136.7V49H127.2Z" fill="#0F529E"/>
<path d="M159.9 65.8998V69.1998H153.6V65.8998C143.7 65.8998 136.3 65.8998 136.3 56.6998C136.3 50.1998 140.2 46.4998 149.2 46.4998H153.6V44.7998H159.9V46.4998C170.4 46.4998 177.2 46.6998 177.2 56.1998C177.2 65.7998 170.4 65.8998 159.9 65.8998ZM153.7 50.5998H148.5C143 50.5998 142.4 52.6998 142.4 56.2998C142.4 60.1998 143.4 61.9998 149.1 61.9998H153.7V50.5998ZM165.2 50.5998H160V61.9998H164.7C170.4 61.9998 171.3 60.1998 171.3 56.2998C171.2 52.6998 170.6 50.5998 165.2 50.5998Z" fill="#0F529E"/>
<path d="M214.3 69.2V48.8L204.1 69.3H198.5L188.3 49V69.3H182.1V45H192.3L201.1 63H201.3L209.9 45H220.4V69.3H214.3V69.2Z" fill="#0F529E"/>
<path d="M234.6 61.8998H223V58.7998H234.6V61.8998Z" fill="#0F529E"/>
<path d="M251.4 49V69.2H245.1V49H235.6V45H261V49H251.4Z" fill="#0F529E"/>
<path d="M268.4 69.4999C265.2 69.4999 262.9 69.0999 261.2 66.8999V76.3999H255.8V52.1999H261L260.7 54.5999H260.9C262.6 52.5999 264.8 51.8999 267.9 51.8999C276.1 51.8999 276.9 55.2999 276.9 60.5999C277 65.4999 276.4 69.4999 268.4 69.4999ZM266.6 55.0999C261.6 55.0999 261.2 56.7999 261.2 60.1999C261.2 63.5999 260.9 66.2999 266.5 66.2999C271.8 66.2999 271.5 63.3999 271.5 60.3999C271.4 57.0999 271.6 55.0999 266.6 55.0999Z" fill="#0F529E"/>
<path d="M296.7 69.1996L296.9 67.0996H296.8C295.1 69.2996 292.4 69.4996 289.3 69.4996C284.4 69.4996 281 68.4996 281 64.3996C281 59.3996 285.2 58.9996 290.9 58.9996C293.7 58.9996 295.2 59.1996 296.5 60.9996V58.0996C296.5 55.1996 295.2 54.6996 291.5 54.6996C288.9 54.6996 287.1 54.8996 287.2 57.1996H281.7C281.7 52.3996 285.9 52.0996 291.2 52.0996C297.5 52.0996 301.8 52.6996 301.8 58.1996V69.3996H296.7V69.1996ZM291.1 61.5996C288.5 61.5996 286.4 61.5996 286.4 63.8996C286.4 66.3996 288.1 66.5996 291 66.5996C293.5 66.5996 296.5 66.4996 296.5 64.0996C296.5 61.5996 293.8 61.5996 291.1 61.5996Z" fill="#0F529E"/>
<path d="M321.1 69.1997V61.7997H311.5V69.1997H306.1V52.1997H311.5V58.7997H321.1V52.1997H326.6V69.1997H321.1Z" fill="#0F529E"/>
<path d="M340.8 69.4999C331.8 69.4999 330.3 67.1999 330.3 60.6999C330.3 54.2999 331.9 51.8999 340.8 51.8999C346.2 51.8999 350.8 52.6999 350.8 57.4999C350.8 57.6999 350.8 57.8999 350.6 58.0999H345.6C344.7 57.2999 346.9 54.9999 340.8 54.9999C335.5 54.9999 335.9 57.1999 335.9 60.5999C335.9 64.0999 335.4 66.1999 340.8 66.1999C344.9 66.1999 345.8 65.5999 345.7 62.5999H351C351 68.2999 347.7 69.4999 340.8 69.4999Z" fill="#0F529E"/>
</g>
<defs>
<clipPath id="clip0_11_1367">
<rect width="350" height="67.5" fill="white" transform="translate(1 24.5)"/>
</clipPath>
</defs>
</svg>
