<svg width="30" height="20" viewBox="0 0 30 20" fill="none" xmlns="http://www.w3.org/2000/svg">
<path d="M17.1004 3.60005C16.8004 3.40005 16.5004 3.30005 16.1004 3.30005C15.4004 3.30005 14.6004 3.30005 13.9004 3.30005C13.9004 4.30005 13.9004 5.30005 13.9004 6.40005C14.6004 6.40005 15.3004 6.40005 16.0004 6.40005C16.2004 6.40005 16.3004 6.40005 16.5004 6.40005C17.0004 6.30005 17.3004 6.00005 17.5004 5.60005C17.6004 5.30005 17.6004 5.00005 17.6004 4.70005C17.6004 4.20005 17.4004 3.80005 17.1004 3.60005Z" fill="white"/>
<path d="M21.2 15.7C20.2 15.7 19.5 16.5 19.5 17.5C19.5 18.5 20.3 19.3 21.2 19.3C22.2 19.3 22.9 18.5 22.9 17.5C23 16.5 22.1 15.7 21.2 15.7Z" fill="white"/>
<path d="M27.2 15.7C26.3 15.7 25.5 16.5 25.5 17.4C25.5 18.3 26.3 19.2 27.2 19.2C28.2 19.2 29 18.4 29 17.5C29 16.5 28.2 15.7 27.2 15.7Z" fill="white"/>
<path d="M28.5 0C19.3 0 10.2 0 1 0C1 4.5 1 8.9 1 13.4C10.2 13.4 19.3 13.4 28.5 13.4C28.5 8.9 28.5 4.5 28.5 0ZM4.2 11.5C3.7 11.5 3.1 11.5 2.5 11.5C2.5 8.3 2.5 5.1 2.5 1.8C3.1 1.8 3.6 1.8 4.2 1.8C4.2 5.1 4.2 8.3 4.2 11.5ZM8 11.6C7.4 11.6 6.9 11.6 6.3 11.6C6.3 8.4 6.3 5.1 6.3 1.9C6.9 1.9 7.4 1.9 8 1.9C8 5.1 8 8.3 8 11.6ZM19.1 6C18.8 6.8 18.2 7.3 17.4 7.6C17 7.8 16.6 7.8 16.1 7.8C15.4 7.8 14.6 7.8 13.9 7.8C13.9 7.8 13.9 7.8 13.8 7.8C13.8 8.1 13.8 8.3 13.8 8.6C13.8 8.6 13.8 8.6 13.9 8.6C15 8.6 16.1 8.6 17.2 8.6H17.3C17.4 8.6 17.4 8.7 17.4 8.8C17.4 9.1 17.4 9.4 17.4 9.7C17.4 9.8 17.3 9.9 17.2 9.9C17.1 9.9 16.9 9.9 16.8 9.9C15.8 9.9 14.8 9.9 13.9 9.9C13.9 9.9 13.9 9.9 13.8 9.9C13.8 9.9 13.8 9.9 13.8 10C13.8 10.4 13.8 10.8 13.8 11.2C13.8 11.4 13.7 11.5 13.5 11.5C13.1 11.5 12.8 11.5 12.4 11.5C12.2 11.5 12.2 11.4 12.2 11.3C12.2 10.9 12.2 10.5 12.2 10.1C12.2 10.1 12.2 10.1 12.2 10C12.2 10 12.2 10 12.1 10C11.6 10 11.1 10 10.6 10C10.5 10 10.5 10 10.4 9.9C10.4 9.9 10.3 9.8 10.3 9.7C10.3 9.4 10.3 9.1 10.3 8.8C10.3 8.7 10.4 8.6 10.5 8.6C10.6 8.6 10.8 8.6 10.9 8.6C11.3 8.6 11.6 8.6 12 8.6C12 8.6 12 8.6 12.1 8.6C12.1 8.3 12.1 8.1 12.1 7.8C12.1 7.8 12.1 7.8 12 7.8C11.5 7.8 11 7.8 10.5 7.8C10.4 7.8 10.3 7.7 10.3 7.7V7.6C10.3 7.3 10.3 6.9 10.3 6.6C10.3 6.5 10.3 6.5 10.3 6.4C10.3 6.3 10.4 6.3 10.5 6.3C11 6.3 11.5 6.3 12 6.3C12 6.3 12 6.3 12.1 6.3C12.1 6.3 12.1 6.3 12.1 6.2C12.1 4.8 12.1 3.4 12.1 2V1.9C12.1 1.8 12.2 1.8 12.3 1.8C12.3 1.8 12.3 1.8 12.4 1.8C13.6 1.8 14.9 1.8 16.1 1.8C16.7 1.8 17.3 2 17.9 2.3C18.5 2.7 18.9 3.3 19.1 4.1C19.3 4.8 19.3 5.4 19.1 6ZM23.2 11.6C22.6 11.6 22.1 11.6 21.5 11.6C21.5 8.4 21.5 5.2 21.5 1.9C22.1 1.9 22.6 1.9 23.2 1.9C23.2 5.1 23.2 8.3 23.2 11.6ZM27.1 11.6C26.5 11.6 26 11.6 25.4 11.6C25.4 8.4 25.4 5.2 25.4 1.9C26 1.9 26.5 1.9 27.1 1.9C27.1 5.1 27.1 8.3 27.1 11.6Z" fill="white"/>
<path d="M29.2 13.8999C29.1 13.7999 28.9 13.8999 28.7 13.8999C28.5 13.8999 28.4 13.8999 28.2 13.8999C25.5 13.8999 22.9 13.8999 20.3 13.8999C18.5 13.8999 16.6 13.8999 14.8 13.8999C11.7 13.8999 8.6 13.8999 5.5 13.8999C4.5 13.8999 3.4 13.8999 2.4 13.8999C2.1 13.8999 1.7 13.8999 1.4 13.8999C1.2 13.8999 0.9 13.8999 0.7 13.8999C0.4 13.7999 0 13.9999 0 14.3999C0 14.7999 0.3 14.9999 0.5 14.9999C1.7 14.9999 2.9 14.9999 4.1 14.9999C4.3 15.8999 4.5 16.7999 4.7 17.5999C5.1 17.5999 5.4 17.5999 5.8 17.5999C6 16.6999 6.2 15.8999 6.4 14.9999C12 14.9999 17.6 14.9999 23.1 14.9999C23.3 15.8999 23.5 16.7999 23.7 17.5999C24.1 17.5999 24.4 17.5999 24.8 17.5999C25 16.6999 25.2 15.8999 25.4 14.9999C26.5 14.9999 27.6 14.9999 28.7 14.9999C28.9 14.9999 29.1 14.9999 29.3 14.9999C29.5 14.8999 29.7 14.6999 29.7 14.4999C29.5 14.1999 29.3 13.9999 29.2 13.8999Z" fill="white"/>
<path d="M8.3 15.7C7.4 15.7 6.5 16.5 6.5 17.5C6.5 18.5 7.3 19.3 8.2 19.3C9.2 19.3 10 18.5 10 17.6C10 16.5 9.3 15.7 8.3 15.7Z" fill="white"/>
<path d="M2.3 15.7C1.4 15.7 0.5 16.5 0.5 17.5C0.5 18.5 1.3 19.3 2.2 19.3C3.2 19.3 4 18.5 4 17.5C4 16.5 3.2 15.7 2.3 15.7Z" fill="white"/>
</svg>
