<svg width="154" height="54" viewBox="0 0 154 54" fill="none" xmlns="http://www.w3.org/2000/svg">
<path d="M7.58141 53.2226H0V0H32.7869L7.58141 53.2226Z" fill="#E31616"/>
<path d="M89.848 52.8487L81.0451 52.8487L81.0451 32.5315L80.833 32.5315L75.7421 52.8487L67.5756 52.8487L62.5908 32.5315L62.3787 32.5315L62.3787 52.8487L54 52.8487L54 27.0001L68.5301 27.0001L71.924 41.1477L72.1361 41.1477L75.3179 27.0001L89.848 27.0001L89.848 52.8487Z" fill="#E31616"/>
<path d="M122.62 52.8487L112.226 52.8487L110.423 47.3173L102.681 47.3173L100.984 52.8487L91.1207 52.8487L100.136 27.0001L113.393 27.0001L122.62 52.8487ZM109.363 41.1477L106.711 33.0633L106.605 33.0633L103.954 41.1477L109.363 41.1477Z" fill="#E31616"/>
<path d="M153.165 52.8487L141.711 52.8487L137.044 44.1261L136.938 44.1261L132.484 52.8487L121.772 52.8487L130.893 39.552L122.832 27L134.181 27L137.893 34.6589L137.999 34.6589L142.135 27L152.529 27L143.938 39.552L153.165 52.8487Z" fill="#E31616"/>
<path d="M13.1384 53.2423H46.7628V39.371H19.6923L13.1384 53.2423Z" fill="white"/>
<path d="M38.2711 0.0110474L31.7172 13.8824H46.7627V0.0110474H38.2711Z" fill="white"/>
<path d="M22.428 33.5912H46.7629V19.6621H28.9819L22.428 33.5912Z" fill="white"/>
</svg>
