<svg width="26" height="26" viewBox="0 0 26 26" fill="none" xmlns="http://www.w3.org/2000/svg">
<path d="M25.9458 12.3621C25.4871 7.29536 21.828 3.09907 17.0131 1.6048C11.8441 0.00172383 6.06113 1.61568 2.62601 5.99694C1.2823 7.71245 0.437066 9.65282 0.151709 11.8253C0.093915 12.2533 0.0758544 12.6885 0.0397333 13.1201C0.032509 13.2108 0.0144485 13.3014 0 13.3921C0 13.461 0 13.5299 0 13.5952C0.032509 13.976 0.0577938 14.3532 0.0975271 14.7341C0.39372 17.5485 1.54598 19.964 3.50014 21.9878C5.5446 24.1095 8.04779 25.3789 10.9447 25.8287C16.2292 26.652 21.6293 24.2945 24.3854 19.5288C25.6677 17.32 26.177 14.919 25.9458 12.3621ZM18.7505 19.1008C14.8819 19.1008 11.0169 19.1008 7.14837 19.1008C6.87385 18.9884 6.68241 18.7962 6.57044 18.5205C6.57044 15.648 6.57044 12.7792 6.57044 9.9067C6.74382 9.45334 7.07974 9.3119 7.54932 9.31915C8.81717 9.33728 10.0814 9.3264 11.3493 9.3264C11.4215 9.3264 11.4937 9.3264 11.6057 9.3264C11.2553 9.63831 10.9339 9.91758 10.6196 10.2005C10.5474 10.2658 10.4607 10.3202 10.4137 10.4C10.1717 10.788 9.82134 10.8678 9.38789 10.8352C8.96166 10.7989 8.53181 10.8279 8.09114 10.8279C8.09114 13.0911 8.09114 15.3325 8.09114 17.5884C11.3384 17.5884 14.5785 17.5884 17.8547 17.5884C17.8547 17.3635 17.8475 17.1423 17.8583 16.9247C17.8619 16.8522 17.88 16.7506 17.9305 16.7107C18.3712 16.3371 18.8227 15.9745 19.2706 15.6081C19.2815 15.6009 19.2959 15.6045 19.3393 15.5936C19.3393 15.677 19.3393 15.7532 19.3393 15.8294C19.3393 16.6019 19.3248 17.378 19.3465 18.1506C19.3537 18.6112 19.1912 18.934 18.7505 19.1008ZM21.5968 11.1543C21.232 11.43 20.8636 11.6984 20.5024 11.9776C19.2706 12.9424 18.0425 13.9071 16.8108 14.8719C16.7602 14.9118 16.706 14.948 16.6193 15.0097C16.6193 14.1139 16.6193 13.2507 16.6193 12.4092C16.1209 12.4092 15.6477 12.3839 15.1817 12.4129C14.1775 12.4782 13.2203 12.7066 12.4148 13.3631C11.8802 13.7983 11.4576 14.3315 11.0711 14.8973C10.9122 15.1294 10.7641 15.3688 10.6088 15.6045C10.3487 14.774 11.3131 12.3149 12.2956 11.3212C13.4768 10.1279 14.9614 9.72898 16.6049 9.71085C16.6049 8.93833 16.6049 8.17669 16.6049 7.36064C16.7096 7.43318 16.771 7.4767 16.8325 7.52385C18.3784 8.68807 19.9208 9.8523 21.4668 11.0165C21.5065 11.0455 21.5535 11.0709 21.5968 11.0963C21.5968 11.1253 21.5968 11.1398 21.5968 11.1543Z" fill="white"/>
</svg>
