<svg width="25" height="25" viewBox="0 0 25 25" fill="none" xmlns="http://www.w3.org/2000/svg">
<g clip-path="url(#clip0)">
<path d="M14.5094 12.4991L24.5828 2.42577C24.7148 2.29359 24.8195 2.1367 24.8909 1.96407C24.9622 1.79144 24.9989 1.60644 24.9988 1.41963C24.9986 1.23283 24.9617 1.04788 24.8901 0.875346C24.8185 0.70281 24.7136 0.546068 24.5815 0.414067C24.4493 0.282066 24.2924 0.177394 24.1198 0.106024C23.9471 0.0346533 23.7621 -0.00201748 23.5753 -0.00189177C23.3885 -0.00176606 23.2036 0.0351522 23.031 0.106755C22.8585 0.178358 22.7018 0.283243 22.5698 0.415422L12.4964 10.4888L2.42572 0.415422C2.29372 0.283421 2.13702 0.17871 1.96455 0.107271C1.79208 0.0358329 1.60723 -0.000933287 1.42055 -0.000933291C1.23387 -0.000933294 1.04902 0.0358329 0.876557 0.107271C0.704089 0.17871 0.547381 0.283421 0.41538 0.415422C0.283379 0.547423 0.178671 0.70413 0.107232 0.876598C0.0357938 1.04907 -0.000976566 1.23391 -0.000976562 1.42059C-0.000976559 1.60727 0.0357938 1.79212 0.107232 1.96459C0.178671 2.13706 0.283379 2.29376 0.41538 2.42577L10.4888 12.4991L0.41538 22.5698C0.283379 22.7018 0.178671 22.8585 0.107232 23.031C0.0357938 23.2034 -0.000976562 23.3883 -0.000976562 23.575C-0.000976562 23.7617 0.0357938 23.9465 0.107232 24.119C0.178671 24.2914 0.283379 24.4481 0.41538 24.5801C0.547381 24.7121 0.704089 24.8169 0.876557 24.8883C1.04902 24.9597 1.23387 24.9965 1.42055 24.9965C1.60723 24.9965 1.79208 24.9597 1.96455 24.8883C2.13702 24.8169 2.29372 24.7121 2.42572 24.5801L12.4991 14.5068L22.5698 24.5829C22.7019 24.715 22.8589 24.8199 23.0316 24.8914C23.2043 24.963 23.3894 24.9998 23.5763 24.9998C23.7632 24.9998 23.9483 24.963 24.121 24.8914C24.2937 24.8199 24.4506 24.715 24.5828 24.5829C24.715 24.4507 24.8198 24.2938 24.8914 24.1211C24.9629 23.9484 24.9997 23.7633 24.9997 23.5763C24.9997 23.3894 24.9629 23.2043 24.8914 23.0316C24.8198 22.8589 24.715 22.702 24.5828 22.5698L14.5094 12.4991Z" fill="#797979"/>
</g>
<defs>
<clipPath id="clip0">
<rect width="25" height="25" fill="white"/>
</clipPath>
</defs>
</svg>
