<svg width="100" height="100" viewBox="0 0 100 100" fill="none" xmlns="http://www.w3.org/2000/svg">
<circle cx="50" cy="50" r="49" fill="#1980BE" fill-opacity="0.7" stroke="white" stroke-width="2"/>
<g clip-path="url(#clip0)">
<path d="M69.5 27.5H28.6V55.2H69.5V27.5Z" stroke="white" stroke-miterlimit="10"/>
<path d="M65.5 70.4999H32.6L28.6 64.6999V58.8999H69.5V64.6999L65.5 70.4999Z" stroke="white" stroke-miterlimit="10"/>
<path d="M49.1 31.7002H32.8V38.6002H49.1V31.7002Z" stroke="white" stroke-miterlimit="10"/>
<path d="M65.4 31.7002H49.1V38.6002H65.4V31.7002Z" stroke="white" stroke-miterlimit="10"/>
<path d="M38.6 51.5002C40.2016 51.5002 41.5 50.2018 41.5 48.6002C41.5 46.9986 40.2016 45.7002 38.6 45.7002C36.9984 45.7002 35.7 46.9986 35.7 48.6002C35.7 50.2018 36.9984 51.5002 38.6 51.5002Z" stroke="white" stroke-miterlimit="10"/>
<path d="M60.7 51.5002C62.3016 51.5002 63.6 50.2018 63.6 48.6002C63.6 46.9986 62.3016 45.7002 60.7 45.7002C59.0984 45.7002 57.8 46.9986 57.8 48.6002C57.8 50.2018 59.0984 51.5002 60.7 51.5002Z" stroke="white" stroke-miterlimit="10"/>
<path d="M68.9 24C66.7 18 58.6 13.5 49.1 13.5C39.6 13.5 31.5 18 29.3 24H68.9Z" stroke="white" stroke-miterlimit="10"/>
<path d="M30.6 74.2002L19.5 88.9002" stroke="white" stroke-miterlimit="10" stroke-linecap="round" stroke-linejoin="round"/>
<path d="M67.8 74.2002L78.9 88.8002" stroke="white" stroke-miterlimit="10" stroke-linecap="round" stroke-linejoin="round"/>
<path d="M35.7 64.7002V70.5002" stroke="white" stroke-miterlimit="10"/>
<path d="M40.2 64.7002V70.5002" stroke="white" stroke-miterlimit="10"/>
<path d="M44.8 64.7002V70.5002" stroke="white" stroke-miterlimit="10"/>
<path d="M49.4 64.7002V70.5002" stroke="white" stroke-miterlimit="10"/>
<path d="M53.9 64.7002V70.5002" stroke="white" stroke-miterlimit="10"/>
<path d="M58.5 64.7002V70.5002" stroke="white" stroke-miterlimit="10"/>
<path d="M63 64.7002V70.5002" stroke="white" stroke-miterlimit="10"/>
</g>
<defs>
<clipPath id="clip0">
<rect width="60.4" height="76.4" fill="white" transform="translate(19 13)"/>
</clipPath>
</defs>
</svg>
