<svg width="216" height="64" viewBox="0 0 216 64" fill="none" xmlns="http://www.w3.org/2000/svg">
<g clip-path="url(#clip0)">
<path d="M29.3862 26.4051C29.3862 26.8191 29.263 27.2237 29.0321 27.5679C28.8012 27.9122 28.473 28.1804 28.0891 28.3389C27.7051 28.4973 27.2826 28.5387 26.875 28.458C26.4674 28.3772 26.0929 28.1778 25.7991 27.8851C25.5052 27.5924 25.3051 27.2195 25.224 26.8134C25.1429 26.4074 25.1845 25.9866 25.3435 25.6041C25.5026 25.2216 25.7719 24.8948 26.1175 24.6648C26.463 24.4348 26.8693 24.312 27.2849 24.312C27.8422 24.312 28.3767 24.5325 28.7708 24.9251C29.1649 25.3176 29.3862 25.85 29.3862 26.4051Z" fill="#3E4351"/>
<path d="M27.2849 37.9813C27.2849 38.396 27.1613 38.8013 26.9296 39.1458C26.698 39.4904 26.3689 39.7586 25.984 39.9166C25.5991 40.0745 25.1757 40.115 24.7677 40.0329C24.3596 39.9508 23.9852 39.7499 23.692 39.4556C23.3988 39.1612 23.1999 38.7868 23.1207 38.3797C23.0415 37.9726 23.0854 37.5513 23.2469 37.1691C23.4084 36.7869 23.6803 36.4612 24.028 36.2331C24.3756 36.0051 24.7835 35.8851 25.1998 35.8882C25.475 35.8882 25.7474 35.9425 26.0015 36.0479C26.2555 36.1533 26.4861 36.3077 26.6799 36.5023C26.8738 36.6968 27.027 36.9277 27.1309 37.1816C27.2347 37.4354 27.2871 37.7072 27.2849 37.9813Z" fill="#3E4351"/>
<path d="M24.4077 50.9745C24.4109 51.3898 24.2899 51.7967 24.0603 52.1434C23.8306 52.4901 23.5026 52.7608 23.118 52.9212C22.7334 53.0816 22.3095 53.1244 21.9004 53.0442C21.4913 52.964 21.1154 52.7643 20.8205 52.4706C20.5257 52.1769 20.3252 51.8025 20.2447 51.395C20.1641 50.9874 20.2071 50.5653 20.3681 50.1822C20.5292 49.799 20.801 49.4723 21.149 49.2436C21.4971 49.0148 21.9055 48.8943 22.3225 48.8975C22.8742 48.9017 23.4021 49.1219 23.7923 49.5105C24.1824 49.8991 24.4034 50.425 24.4077 50.9745Z" fill="#3E4351"/>
<path d="M18.9282 40.0585C18.9314 40.4738 18.8104 40.8807 18.5808 41.2274C18.3511 41.574 18.0231 41.8448 17.6385 42.0052C17.2539 42.1656 16.83 42.2084 16.4209 42.1282C16.0118 42.0479 15.6359 41.8482 15.341 41.5546C15.0462 41.2609 14.8457 40.8864 14.7652 40.4789C14.6846 40.0714 14.7276 39.6492 14.8886 39.2661C15.0497 38.883 15.3215 38.5563 15.6695 38.3275C16.0176 38.0988 16.4261 37.9783 16.843 37.9815C17.3947 37.9857 17.9226 38.2059 18.3128 38.5945C18.7029 38.9831 18.9239 39.5089 18.9282 40.0585Z" fill="#3E4351"/>
<path d="M16.843 35.4212C16.8462 35.8359 16.7257 36.2421 16.4967 36.5884C16.2678 36.9348 15.9407 37.2055 15.557 37.3664C15.1734 37.5273 14.7504 37.5711 14.3417 37.4921C13.933 37.4132 13.5571 37.2151 13.2616 36.9231C12.9661 36.631 12.7644 36.2581 12.682 35.8516C12.5996 35.4452 12.6402 35.0235 12.7988 34.6401C12.9573 34.2567 13.2266 33.9288 13.5725 33.6981C13.9185 33.4674 14.3254 33.3443 14.7416 33.3442C15.2962 33.3442 15.8282 33.5625 16.2218 33.9516C16.6154 34.3406 16.8387 34.8689 16.843 35.4212Z" fill="#3E4351"/>
<path d="M38.5998 35.6307C38.603 36.0453 38.4825 36.4516 38.2535 36.7979C38.0246 37.1442 37.6976 37.415 37.3139 37.5759C36.9302 37.7368 36.5072 37.7805 36.0985 37.7016C35.6899 37.6227 35.3139 37.4246 35.0184 37.1325C34.7229 36.8405 34.5212 36.4675 34.4388 36.0611C34.3564 35.6546 34.3971 35.233 34.5556 34.8496C34.7142 34.4662 34.9835 34.1383 35.3294 33.9076C35.6753 33.6769 36.0822 33.5537 36.4985 33.5537C37.053 33.5537 37.585 33.772 37.9787 34.1611C38.3723 34.5501 38.5955 35.0784 38.5998 35.6307Z" fill="#3E4351"/>
<path d="M8.45381 42.4574C8.45701 42.872 8.3365 43.2782 8.10756 43.6246C7.87862 43.9709 7.55156 44.2417 7.16789 44.4025C6.78422 44.5634 6.36121 44.6072 5.95253 44.5283C5.54386 44.4493 5.16793 44.2513 4.87243 43.9592C4.57694 43.6671 4.3752 43.2942 4.2928 42.8877C4.2104 42.4813 4.25106 42.0596 4.40961 41.6762C4.56817 41.2928 4.83749 40.965 5.18339 40.7343C5.52929 40.5036 5.9362 40.3804 6.35248 40.3804C6.907 40.3804 7.43905 40.5987 7.83266 40.9877C8.22627 41.3768 8.44954 41.905 8.45381 42.4574Z" fill="#3E4351"/>
<path d="M10.5388 22.5409C10.5388 22.9556 10.4152 23.3609 10.1835 23.7054C9.95192 24.05 9.62278 24.3182 9.23787 24.4761C8.85296 24.6341 8.42963 24.6746 8.02158 24.5925C7.61353 24.5104 7.23914 24.3095 6.94592 24.0151C6.6527 23.7208 6.45385 23.3464 6.37461 22.9393C6.29536 22.5322 6.33929 22.1109 6.50081 21.7287C6.66234 21.3465 6.93419 21.0208 7.28187 20.7927C7.62955 20.5647 8.03739 20.4446 8.45367 20.4478C8.72886 20.4478 9.00134 20.5021 9.25538 20.6074C9.50942 20.7128 9.74001 20.8673 9.93385 21.0618C10.1277 21.2564 10.2809 21.4873 10.3848 21.7411C10.4886 21.995 10.541 22.2668 10.5388 22.5409Z" fill="#3E4351"/>
<path d="M35.4477 20.7699C35.4509 21.1852 35.33 21.5921 35.1003 21.9388C34.8707 22.2854 34.5426 22.5562 34.158 22.7166C33.7734 22.877 33.3496 22.9198 32.9404 22.8396C32.5313 22.7593 32.1554 22.5597 31.8606 22.266C31.5657 21.9723 31.3653 21.5979 31.2847 21.1904C31.2041 20.7828 31.2471 20.3607 31.4082 19.9776C31.5692 19.5945 31.841 19.2677 32.1891 19.039C32.5371 18.8102 32.9456 18.6897 33.3625 18.6929C33.9143 18.6971 34.4422 18.9173 34.8323 19.3059C35.2224 19.6945 35.4435 20.2204 35.4477 20.7699Z" fill="#3E4351"/>
<path d="M4.73608 43.0208L33.104 20.4639L33.6051 21.0918L7.96889 41.4752L35.6902 35.3408L27.0101 26.6787L27.5759 26.1152L37.3066 35.8078L4.73608 43.0208Z" fill="#3E4351"/>
<path d="M22.7105 52.2306L21.9185 52.0696L26.897 26.3247L27.689 26.4696L22.7105 52.2306Z" fill="#3E4351"/>
<path d="M21.9507 52.3109L8.48608 22.6052L9.22963 22.2832L22.6943 51.9889L21.9507 52.3109Z" fill="#3E4351"/>
<path d="M33.3206 20.3731L8.8252 22.0493L8.88059 22.8525L33.376 21.1762L33.3206 20.3731Z" fill="#3E4351"/>
<path d="M36.4498 35.9685L33.4595 20.85L34.2353 20.689L37.2419 35.8074L36.4498 35.9685Z" fill="#3E4351"/>
<path d="M8.52744 22.1304L8.36963 22.9199L27.9004 26.7931L28.0582 26.0036L8.52744 22.1304Z" fill="#3E4351"/>
<path d="M14.6095 34.3763L14.4075 35.1572L25.1163 37.9064L25.3184 37.1255L14.6095 34.3763Z" fill="#3E4351"/>
<path d="M36.5417 35.616L22.0125 51.8765L22.6162 52.4117L37.1454 36.1512L36.5417 35.616Z" fill="#3E4351"/>
<path d="M6.28996 42.1111L5.88892 42.8101L22.9117 52.5012L23.3127 51.8023L6.28996 42.1111Z" fill="#3E4351"/>
<path d="M7.77746 22.0366L5.68896 42.4106L6.49299 42.4924L8.58148 22.1184L7.77746 22.0366Z" fill="#3E4351"/>
<path d="M54.198 37.4179V47.1587L27.8183 62.3255L1.45476 47.1587V16.8413L27.8183 1.67447L54.198 16.8413V27.3228L55.6528 29.5286V16.004L27.8183 0L0 16.004V47.996L27.8183 64L55.6528 47.996V39.3821L54.198 37.4179Z" fill="#3E4351"/>
<path d="M65.7875 41.4753V26.7432L58.3197 37.8044H56.7033L49.2355 26.7432V41.4753H47.3928V23.1206H49.0092L57.4953 35.7596L65.9976 23.1206H67.614V41.4753H65.7875Z" fill="#3E4351"/>
<path d="M87.5929 37.2409H75.6153L73.4494 41.4753H71.3804L80.8202 23.1206H82.4366L91.9087 41.4753H89.7912L87.5929 37.2409ZM76.4397 35.6308H86.7685L81.6122 25.5518L76.4397 35.6308Z" fill="#3E4351"/>
<path d="M95.6104 41.4753V23.1206H97.4692V31.4124H102.092L109.625 23.1206H111.952L103.725 32.2658L111.807 41.2982V41.4592L109.916 41.7651L102.157 33.2157H97.4692V41.4753H95.6104Z" fill="#3E4351"/>
<path d="M127.421 41.6684C126.209 41.765 125.11 41.8133 124.188 41.8133C122.954 41.8154 121.722 41.7185 120.503 41.5235C119.342 41.3512 118.236 40.9161 117.27 40.2515C116.27 39.518 115.497 38.5194 115.039 37.3695C114.411 35.7491 114.125 34.0172 114.199 32.2817C114.128 30.5465 114.414 28.815 115.039 27.1939C115.497 26.0486 116.271 25.0553 117.27 24.328C118.232 23.6567 119.34 23.2209 120.503 23.0561C121.72 22.8477 122.953 22.7454 124.188 22.7502C125.158 22.7502 126.257 22.7502 127.421 22.9112C128.585 23.0722 129.83 23.1527 131.009 23.3137L130.929 25.1009C130.347 24.9881 129.765 24.9076 129.183 24.8271C128.601 24.7466 128.003 24.6822 127.421 24.65L125.805 24.5534H124.366C123.655 24.5534 122.96 24.5534 122.281 24.5534C121.625 24.611 120.975 24.7295 120.341 24.9076C119.768 25.0864 119.223 25.3467 118.725 25.6805C118.185 26.0362 117.727 26.5028 117.383 27.049C116.919 27.7127 116.58 28.4545 116.381 29.2387C116.165 30.2385 116.062 31.2592 116.074 32.2817C116.056 33.3365 116.159 34.3898 116.381 35.4214C116.55 36.1812 116.851 36.9058 117.27 37.5627C117.619 38.1054 118.075 38.5712 118.612 38.9313C119.114 39.254 119.658 39.5085 120.228 39.688C120.858 39.8815 121.509 40.0004 122.168 40.0422C122.847 40.0422 123.542 40.1227 124.253 40.1227H125.692L127.308 40.0422L129.07 39.849C129.652 39.849 130.234 39.688 130.816 39.5914L130.961 41.3625C129.829 41.4269 128.633 41.5557 127.421 41.6684Z" fill="#3E4351"/>
<path d="M150.746 37.2409H138.768L136.602 41.4753H134.533L143.989 23.1206H145.606L155.078 41.4753H152.944L150.746 37.2409ZM139.593 35.6308H149.921L144.765 25.5518L139.593 35.6308Z" fill="#3E4351"/>
<path d="M158.763 41.4753V23.1206H175.024V41.4753H173.165V24.9239H160.622V41.4753H158.763Z" fill="#3E4351"/>
<path d="M186.565 41.4753V24.9239H178.645V23.1206H196.086L195.924 24.9239H188.408V41.4753H186.565Z" fill="#3E4351"/>
<path d="M211.749 37.2409H199.771L197.605 41.4753H195.585L205.041 23.1206H206.657L216.129 41.4753H214.06L211.749 37.2409ZM200.596 35.6308H210.925L205.768 25.5518L200.596 35.6308Z" fill="#3E4351"/>
</g>
<defs>
<clipPath id="clip0">
<rect width="216" height="64" fill="white"/>
</clipPath>
</defs>
</svg>
