<svg width="173" height="87" viewBox="0 0 173 87" fill="none" xmlns="http://www.w3.org/2000/svg">
<g clip-path="url(#clip0)">
<path d="M134.961 86.9199C134.482 86.8676 133.993 86.7676 133.491 86.627C133.258 86.5398 133.107 86.4619 133.046 86.3864C132.987 86.3166 132.967 86.1923 133.013 86.0237L133.42 83.9142C133.456 83.7038 133.527 83.5934 133.632 83.5679C133.713 83.5446 133.877 83.5446 134.075 83.5679C134.205 83.5865 135.45 83.7271 135.767 83.7038C136.886 83.6202 137.855 83.7492 138.58 81.7582C138.299 81.055 137.308 78.7328 137.063 78.1481L131.601 64.7936C131.474 64.4588 131.601 64.288 131.974 64.288H134.928C135.231 64.288 135.417 64.331 135.51 64.4123C135.604 64.4937 135.686 64.6343 135.744 64.8238L138.264 71.4325L140.213 76.765H140.435L142.115 71.866L144.656 64.7413C144.75 64.5286 144.833 64.3949 144.915 64.331C145.022 64.2717 145.182 64.2357 145.416 64.2357H148.299C148.472 64.2357 148.577 64.2833 148.636 64.3763C148.694 64.4693 148.694 64.5762 148.661 64.7052L141.929 82.9344C141.637 83.7376 141.322 84.3942 140.961 84.9207C140.599 85.4426 140.192 85.8645 139.713 86.1621C139.257 86.4666 138.721 86.6839 138.125 86.8153C137.543 86.9385 136.887 87.0001 136.153 87.0001C135.835 87.0001 135.441 86.9768 134.961 86.9199ZM66.3305 83.9421C64.7094 82.0918 63.8924 79.3069 63.8924 75.5818C63.8924 73.8407 64.1366 72.2531 64.6157 70.8235C65.1063 69.3939 65.7716 68.1746 66.6349 67.1669C67.4865 66.1593 68.5245 65.3724 69.7371 64.8133C70.9521 64.2601 72.306 63.98 73.786 63.98C74.7313 63.98 75.6999 64.066 76.6927 64.2368C77.6832 64.4019 78.6864 64.7587 79.7267 65.3108C79.8899 65.3852 79.9917 65.4898 80.053 65.6095C80.0993 65.7269 80.0646 65.9245 79.935 66.2232L79.0486 68.0526C78.9676 68.2641 78.8959 68.3978 78.8149 68.4547C78.7211 68.5256 78.5707 68.5024 78.3381 68.3978C77.6496 68.1281 76.9357 67.905 76.2125 67.7516C75.4881 67.5947 74.7418 67.5168 73.9352 67.5168C72.8984 67.5168 71.9878 67.7353 71.2298 68.1746C70.4615 68.614 69.8297 69.2056 69.3391 69.9541C68.8496 70.7049 68.4886 71.5604 68.2444 72.5448C67.9991 73.5176 67.8811 74.5311 67.8811 75.5865C67.8811 76.6337 67.9864 77.6193 68.1854 78.534C68.3833 79.4487 68.7108 80.2449 69.1875 80.9318C69.6561 81.6152 70.2984 82.1487 71.1026 82.5543C71.9079 82.9542 72.8996 83.1506 74.1019 83.1506C75.0461 83.1506 75.9105 83.0402 76.7147 82.824C77.4969 82.602 78.2432 82.3544 78.9317 82.0801C79.2233 81.9569 79.4351 81.9325 79.5508 82.0151C79.6677 82.0964 79.7487 82.2254 79.8181 82.3893L80.6362 84.1943C80.7751 84.4872 80.8352 84.6871 80.7866 84.8045C80.7404 84.9207 80.6362 85.0323 80.4719 85.1369C79.4096 85.7715 78.2664 86.1853 77.0526 86.4026C75.8399 86.6095 74.6619 86.7141 73.5291 86.7141C70.3574 86.7141 67.954 85.7878 66.3305 83.9421ZM84.3807 85.8808C84.125 85.5542 83.9965 85.0846 83.9965 84.4756V64.7982C83.9965 64.5693 84.0417 64.424 84.1365 64.3635C84.2291 64.2938 84.3807 64.2589 84.5901 64.2589H87.2053C87.4274 64.2589 87.5894 64.2938 87.6716 64.3635C87.7526 64.424 87.8 64.5693 87.8 64.7982V80.761H87.9273L90.5297 76.3408L96.8755 65.6537C97.1809 65.1016 97.4725 64.7401 97.7283 64.5518C97.9724 64.3635 98.3693 64.2589 98.9178 64.2589H100.038C100.728 64.2589 101.203 64.4123 101.474 64.7203C101.73 65.0272 101.858 65.513 101.858 66.186V85.8343C101.858 86.0633 101.812 86.2085 101.718 86.2725C101.624 86.3399 101.474 86.3724 101.262 86.3724H98.6598C98.426 86.3724 98.2744 86.3399 98.1819 86.2725C98.1009 86.2085 98.065 86.0633 98.065 85.8343V69.8158H97.9377L95.1722 74.6009L88.9873 85.0161C88.6598 85.5426 88.3913 85.8947 88.1472 86.0807C87.8903 86.2736 87.4818 86.3736 86.9218 86.3736H85.8132C85.1051 86.3736 84.626 86.2097 84.3807 85.8808ZM106.771 86.2574C106.643 86.1853 106.572 85.9993 106.572 85.7123V66.186C106.572 65.5374 106.7 65.0562 106.956 64.7401C107.203 64.424 107.692 64.2589 108.405 64.2589H109.687C110.236 64.2589 110.633 64.3635 110.912 64.5518C111.18 64.7401 111.424 65.1155 111.659 65.6885L115.393 74.917L117.353 79.8114H117.47L119.407 74.8891L123.13 65.6885C123.351 65.1167 123.609 64.7413 123.912 64.5518C124.205 64.3635 124.613 64.2589 125.171 64.2589H126.363C127.026 64.2589 127.493 64.4123 127.773 64.7052C128.043 64.9981 128.183 65.477 128.183 66.1221V85.7123C128.183 85.9993 128.125 86.1853 128.019 86.2574C127.914 86.3283 127.727 86.3736 127.459 86.3736H125.229C124.997 86.3736 124.821 86.3283 124.718 86.2574C124.598 86.1853 124.543 85.9993 124.543 85.7123V71.1396H124.356L122.69 75.4273L119.889 82.4009C119.668 82.946 119.433 83.311 119.211 83.5039C119 83.6899 118.627 83.784 118.104 83.784H116.69C116.165 83.784 115.793 83.6899 115.57 83.5039C115.36 83.311 115.139 82.946 114.929 82.4009L112.162 75.7446L110.471 71.5139H110.284V85.7123C110.284 85.9993 110.225 86.1853 110.12 86.2574C110.014 86.3283 109.827 86.3736 109.561 86.3736H107.299C107.074 86.3736 106.888 86.3283 106.771 86.2574ZM151.529 86.2574C151.411 86.1853 151.343 85.9993 151.343 85.7123V66.186C151.343 65.5374 151.47 65.0562 151.726 64.7401C151.971 64.424 152.45 64.2589 153.163 64.2589H154.457C154.995 64.2589 155.402 64.3635 155.683 64.5518C155.939 64.7401 156.197 65.1155 156.431 65.6885L160.164 74.917L162.113 79.8114H162.239L164.191 74.8891L167.888 65.6885C168.122 65.1167 168.378 64.7413 168.682 64.5518C168.974 64.3635 169.382 64.2589 169.931 64.2589H171.13C171.797 64.2589 172.263 64.4123 172.544 64.7052C172.811 64.9981 172.94 65.477 172.94 66.1221V85.7123C172.94 85.9993 172.892 86.1853 172.802 86.2574C172.684 86.3283 172.499 86.3736 172.229 86.3736H170.001C169.768 86.3736 169.592 86.3283 169.477 86.2574C169.372 86.1853 169.312 85.9993 169.312 85.7123V71.1396H169.113L167.456 75.4273L164.655 82.4009C164.423 82.946 164.201 83.311 163.978 83.5039C163.757 83.6899 163.396 83.784 162.87 83.784H161.458C160.933 83.784 160.56 83.6899 160.34 83.5039C160.116 83.311 159.907 82.946 159.695 82.4009L156.93 75.7446L155.239 71.5139H155.04V85.7123C155.04 85.9993 154.994 86.1853 154.876 86.2574C154.783 86.3283 154.597 86.3736 154.328 86.3736H152.063C151.832 86.3736 151.658 86.3283 151.529 86.2574ZM0.185142 86.2574C0.0578568 86.1865 0 86.0005 0 85.7064V66.1813C0 65.5386 0.114556 65.0504 0.372598 64.7285C0.617911 64.417 1.09465 64.2601 1.80629 64.2601H3.10113C3.65077 64.2601 4.05808 64.3531 4.32653 64.5472C4.60772 64.7285 4.85303 65.1167 5.08561 65.6781L8.81969 74.9182L10.7683 79.8125H10.8956L12.8454 74.8903L16.5436 65.6781C16.7646 65.1178 17.0342 64.7296 17.3258 64.5472C17.6162 64.3531 18.0374 64.2601 18.5871 64.2601H19.7755C20.4397 64.2601 20.9199 64.4077 21.1872 64.7064C21.4568 64.9993 21.5968 65.4665 21.5968 66.1232V85.7076C21.5968 86.0017 21.5505 86.1876 21.4325 86.2597C21.3411 86.3306 21.1409 86.3643 20.8736 86.3643H18.6449C18.4112 86.3643 18.2492 86.3306 18.1323 86.2597C18.0155 86.1876 17.9564 86.0017 17.9564 85.7076V71.1396H17.7713L16.1016 75.4273L13.314 82.3893C13.0814 82.9391 12.8569 83.304 12.6371 83.5039C12.4161 83.6899 12.0539 83.784 11.5181 83.784H10.1064C9.57993 83.784 9.20733 83.6899 8.99789 83.5039C8.77457 83.304 8.5524 82.9391 8.35221 82.3893L5.58781 75.7446L3.89724 71.5139H3.69821V85.7053C3.69821 85.9993 3.65077 86.1853 3.54547 86.2574C3.44017 86.3283 3.25387 86.362 2.97384 86.362H0.722053C0.488312 86.362 0.313584 86.3283 0.185142 86.2574ZM24.4549 86.1621C24.3971 86.0238 24.3971 85.8692 24.4549 85.7053L31.2334 65.7466C31.3387 65.4317 31.444 65.1725 31.5378 64.9842C31.6535 64.7982 31.7819 64.6506 31.9462 64.546C32.099 64.4402 32.2841 64.3635 32.4947 64.3124C32.7053 64.2589 32.9599 64.2287 33.2422 64.2287H34.5822C35.2464 64.2287 35.7046 64.331 35.9707 64.5286C36.2496 64.7285 36.4845 65.1376 36.694 65.7478L43.5095 85.7064C43.5662 85.8703 43.5789 86.0238 43.5326 86.1632C43.4725 86.2992 43.3336 86.3631 43.101 86.3631H40.207C39.9849 86.3631 39.7985 86.341 39.6713 86.2876C39.5301 86.2364 39.4144 86.0935 39.3322 85.8657L37.9552 81.542H29.9756L28.5986 85.8366C28.5419 86.0179 28.4482 86.1528 28.3336 86.2364C28.2133 86.3294 28.0293 86.3631 27.7805 86.3631H24.9004C24.6644 86.362 24.5139 86.2992 24.4549 86.1621ZM46.5643 86.2353C46.437 86.1528 46.3653 85.9761 46.3653 85.7064V64.9505C46.3653 64.6808 46.437 64.4995 46.5643 64.4123C46.6939 64.3356 46.8675 64.2938 47.1001 64.2938H49.4595C49.7511 64.2938 49.9374 64.3298 50.0311 64.3996C50.1353 64.4693 50.1711 64.6576 50.1711 64.9505V74.7845L50.3111 74.6009L53.4366 70.6015L58.2097 64.7285C58.3359 64.5879 58.5013 64.4693 58.6865 64.4007C58.8624 64.331 59.1181 64.295 59.434 64.295H62.6312C62.8302 64.295 62.9471 64.3473 63.0177 64.4472C63.0755 64.553 63.0524 64.6808 62.9228 64.8343L54.3021 75.3273L62.9228 85.8308C63.0524 85.9761 63.0755 86.1039 63.0177 86.2097C62.9586 86.3166 62.8302 86.362 62.6439 86.362H59.4467C59.1193 86.362 58.8751 86.3283 58.6876 86.2574C58.5025 86.1807 58.337 86.0691 58.2109 85.9238L53.4377 80.0578L50.1723 75.8922V75.7446V85.7053C50.1723 85.9993 50.1364 86.1853 50.0323 86.2574C49.9385 86.3283 49.7522 86.362 49.4606 86.362H47.1012C46.8675 86.362 46.6951 86.3283 46.5643 86.2353ZM36.9508 78.2632L35.3193 72.9609L33.999 68.4885H33.8486L32.5514 72.8668L30.9187 78.2632H36.9508Z" fill="#1C7FBE"/>
<path d="M124.74 36.9522V8.35553C124.74 4.17132 128.124 0.768173 132.301 0.768173H163.184C167.352 0.768173 170.746 4.17132 170.746 8.35553V36.9522C170.746 41.1422 167.351 44.5349 163.184 44.5349H132.301C128.124 44.5361 124.74 41.1422 124.74 36.9522ZM163.383 34.6974V10.6138C163.383 8.93666 162.029 7.57912 160.362 7.57912H135.125C133.443 7.57912 132.091 8.93666 132.091 10.6138V34.6974C132.091 36.3734 133.443 37.7391 135.125 37.7391H160.362C162.029 37.7391 163.383 36.3722 163.383 34.6974ZM61.2773 56.4088V53.5263C61.2773 52.4477 62.1521 51.5667 63.2387 51.5667H109.839C110.912 51.5667 111.79 52.4477 111.79 53.5263V56.4088C111.79 57.485 110.912 58.366 109.839 58.366H63.2387C62.1521 58.3649 61.2773 57.4839 61.2773 56.4088ZM78.3717 40.3867L63.2387 14.662C58.7362 6.99798 62.2713 0.773984 71.1384 0.773984L101.929 0.768173C110.809 0.768173 114.332 6.99101 109.828 14.662L94.7081 40.3867C90.2023 48.0508 82.8753 48.0508 78.3717 40.3867ZM89.199 35.4401L102.816 12.4479C104.286 9.96179 103.14 7.94524 100.272 7.94524H72.8059C69.9246 7.94524 68.7802 9.96179 70.2521 12.4479L83.8692 35.4401C85.3377 37.932 87.7306 37.932 89.199 35.4401ZM0.0567017 56.4088V53.5263C0.0567017 52.4465 0.932654 51.5679 2.00532 51.5679H48.6182C49.7036 51.5679 50.5784 52.4465 50.5784 53.5263V56.4088C50.5784 57.4862 49.7025 58.366 48.6182 58.366H2.00416C0.932654 58.3649 0.0567017 57.485 0.0567017 56.4088ZM2.30733 36.9522V23.0479V22.7654C2.39065 16.9587 4.63086 11.1694 9.02798 6.74577C17.9912 -2.24794 32.5398 -2.24794 41.5019 6.74577C45.9001 11.1694 48.2456 16.9587 48.3139 22.7654V24.1497V36.9534C48.3139 41.1434 44.9316 44.5361 40.7543 44.5361H9.86922C5.69196 44.5361 2.30733 41.1422 2.30733 36.9522ZM40.9545 34.6974V23.0479C40.9545 19.0578 39.2616 15.0723 36.2392 12.0306C30.1839 5.95542 20.3494 5.95542 14.293 12.0306C11.2705 15.0665 9.67251 19.0462 9.67251 23.0305V34.6974C9.67251 36.3734 11.0252 37.7391 12.6938 37.7391H37.9309C39.5995 37.7391 40.9545 36.3722 40.9545 34.6974ZM122.477 56.4088C122.477 57.4862 123.352 58.3649 124.437 58.3649H171.049C172.123 58.3649 173 57.4862 173 56.4088V53.5263C173 52.4477 172.123 51.5667 171.049 51.5667H124.437C123.352 51.5667 122.477 52.4477 122.477 53.5263V56.4088Z" fill="#3D5059"/>
</g>
<defs>
<clipPath id="clip0">
<rect width="173" height="87" fill="white"/>
</clipPath>
</defs>
</svg>
