<svg width="127" height="125" viewBox="0 0 127 125" fill="none" xmlns="http://www.w3.org/2000/svg">
<g clip-path="url(#clip0_332_1528)">
<path d="M98.2287 5.03211C98.2287 5.03211 90.6804 3.52245 82.025 6.44113C73.3696 9.35981 66.6264 12.983 65.0161 15.2978C63.4058 17.6126 66.7271 18.7197 67.5322 20.632C68.2367 22.5442 66.7271 22.7455 65.5193 27.979C64.4123 33.3131 63.6071 35.5273 65.3181 41.1634C66.9284 46.7994 68.9412 52.6368 68.9412 52.6368C68.9412 52.6368 69.0419 57.1658 70.8535 58.5748C72.6651 59.9838 74.0741 61.2922 76.3889 60.9902C78.7037 60.6883 82.4276 58.6754 82.4276 58.6754C82.4276 58.6754 78.3011 63.7076 77.496 65.1166C76.6908 66.6263 75.2818 68.4379 75.2818 68.4379C75.2818 68.4379 71.558 67.0289 66.7271 63.7076C61.8962 60.3864 54.1466 54.9516 50.8253 52.5361C47.504 50.1207 43.9815 48.2084 43.3776 45.6923C42.7738 43.1762 41.4654 38.6473 43.0757 33.1118C44.686 27.4758 48.9131 16.6062 48.9131 16.6062C48.9131 16.6062 45.2899 13.2849 43.9815 11.6746C42.6731 10.0643 40.5596 8.05144 42.2705 5.13276C43.9815 2.21408 44.9879 2.11343 47.7053 2.41536C50.4227 2.7173 56.0588 3.52245 56.0588 3.52245C56.0588 3.52245 57.8704 1.8115 60.4871 1.50957C62.9026 1.20764 72.5644 0.905703 80.4147 1.00635C88.2649 1.10699 91.3849 0.503126 94.0016 1.91214C96.5177 3.32116 98.2287 5.03211 98.2287 5.03211Z" fill="#F7B655"/>
<path d="M125.302 60.6885H90.2777C90.2777 60.6885 87.2584 63.5065 83.8365 65.5194C80.4146 67.5323 81.0185 68.9413 77.194 68.5387C73.3695 68.2368 72.4637 67.331 67.6328 64.6136C62.8019 61.8962 61.4935 60.6885 61.4935 60.6885H24.1545C24.1545 60.6885 19.223 61.1917 17.1095 58.7762C14.9959 56.3608 13.0837 54.8511 13.0837 51.2279C13.0837 47.6047 13.0837 39.1506 13.0837 39.1506H0.402536V51.8318C0.402536 51.8318 0.100603 60.6885 7.64891 66.7271C15.1972 72.7658 21.0346 73.9735 23.45 73.9735C25.8655 73.9735 125.302 73.9735 125.302 73.9735V60.6885Z" fill="#F7B655"/>
<path d="M7.14572 23.9532C7.14572 16.9081 12.1779 10.9701 18.9211 9.76238C18.0153 9.56109 17.1095 9.46045 16.2037 9.46045C8.15216 9.46045 1.71094 15.9017 1.71094 23.9532C1.71094 32.0047 8.15216 38.446 16.2037 38.446C17.1095 38.446 18.0153 38.3453 18.9211 38.144C12.2786 36.8357 7.14572 30.9983 7.14572 23.9532Z" fill="#F7B655"/>
<path d="M77.2947 69.6457H75.4831C73.8728 69.4444 71.9606 68.5386 70.149 67.5322C67.9348 66.3245 47.2021 51.8317 44.4848 49.3156C41.5661 46.5982 41.2641 43.8808 41.3648 38.748C41.4654 34.219 42.0693 32.3068 43.0757 28.9855C43.277 28.281 43.579 27.4758 43.7802 26.57C45.4912 20.632 49.8189 11.1715 50.7247 9.3599C52.9389 4.62963 55.0524 2.81803 56.9646 1.71094C59.0781 0.402571 63.2046 0.201283 66.8277 0.100639C69.8471 -5.19927e-06 73.3696 0.100639 73.3696 0.100639H80.8173C80.8173 0.100639 82.8302 -5.19927e-06 85.8495 0.100639C89.4727 0.201283 93.5991 0.402571 95.7126 1.71094C97.5242 2.81803 99.7384 4.62963 101.953 9.3599C102.758 11.1715 107.085 20.7327 108.897 26.57C109.199 27.4758 109.4 28.281 109.602 28.9855C110.608 32.3068 111.312 34.3196 111.312 38.748C111.413 43.8808 111.111 46.5982 108.192 49.3156C105.475 51.8317 84.7424 66.3245 82.5282 67.5322C80.8173 68.5386 79.0057 69.4444 77.2947 69.6457ZM75.8857 67.6328H76.7915C78.0999 67.6328 79.9115 66.7271 81.6224 65.7206C83.736 64.5129 104.368 50.1208 106.884 47.806C109.098 45.6924 109.4 43.8808 109.3 38.748C109.199 34.5209 108.696 32.81 107.689 29.5894C107.488 28.8849 107.186 28.0797 106.985 27.1739C105.676 22.7456 102.456 15.1973 100.141 10.1651C98.2287 5.938 96.3165 4.32769 94.7062 3.4219C92.8946 2.31481 88.0637 2.11352 85.8495 2.11352C82.9308 2.01288 80.9179 2.11352 80.9179 2.11352H73.3696C73.269 2.11352 69.8471 2.01288 66.9284 2.11352C64.6136 2.21417 59.8833 2.31481 58.0717 3.4219C56.4614 4.42834 54.5492 5.938 52.6369 10.1651C50.3221 15.1973 47.2021 22.6449 45.7931 27.1739C45.4912 28.0797 45.2899 28.8849 45.0886 29.5894C44.0822 32.81 43.4783 34.6216 43.4783 38.748C43.3777 43.8808 43.6796 45.6924 45.8938 47.806C48.4099 50.1208 69.0419 64.6135 71.1554 65.7206C72.7657 66.7271 74.678 67.6328 75.8857 67.6328Z" fill="#00398C"/>
<path d="M69.5959 17.9936C69.7555 16.7251 68.32 15.5 66.3897 15.2572C64.4595 15.0144 62.7653 15.8459 62.6058 17.1144C62.4462 18.3828 63.8817 19.608 65.812 19.8507C67.7422 20.0935 69.4364 19.2621 69.5959 17.9936Z" fill="#00398C"/>
<path d="M86.1417 19.9068C88.072 19.664 89.5074 18.4389 89.3479 17.1705C89.1883 15.902 87.4942 15.0705 85.5639 15.3133C83.6336 15.5561 82.1982 16.7812 82.3577 18.0497C82.5173 19.3182 84.2114 20.1496 86.1417 19.9068Z" fill="#00398C"/>
<path d="M75.6844 40.0563C75.6844 40.0563 75.6844 37.8422 74.7786 36.5338C74.1747 35.5273 70.6522 34.219 70.7528 32.2061C70.8535 30.1932 73.2689 29.5893 76.3889 29.69C79.5089 29.7906 82.025 29.9919 82.025 32.2061C82.025 34.4203 79.0057 35.4267 78.5024 36.4331C77.496 38.446 77.7979 40.0563 77.7979 40.0563H75.6844Z" fill="#00398C"/>
<path d="M67.8342 52.637C67.6329 52.2344 63.5065 41.7674 63.3052 35.8294C63.1039 29.0863 64.5129 25.0605 67.8342 22.7457C70.9541 20.5315 74.9799 20.6321 78.6031 20.9341C82.4276 21.236 85.4469 23.1483 87.661 26.4695C89.4726 29.1869 89.9759 33.5146 88.9694 38.0436C88.1643 41.9687 84.7424 52.3351 84.5411 52.7376L82.6288 52.1338C82.6288 52.0331 86.1514 41.3648 86.9565 37.641C87.7617 33.7159 87.3591 29.8914 85.9501 27.5766C84.1385 24.7586 81.723 23.2489 78.5024 22.947C75.2818 22.645 71.6586 22.645 69.0419 24.4566C66.3245 26.3689 65.1168 29.8914 65.3181 35.8294C65.5193 41.4655 69.6457 51.9325 69.6457 52.0331L67.8342 52.637Z" fill="#00398C"/>
<path d="M47.6046 17.8141C47.6046 17.8141 45.1892 14.7948 43.0757 12.5806C40.4589 9.86323 40.4589 7.64906 40.6602 6.24004C41.0628 3.01943 43.9815 1.50977 46.5982 1.50977C49.2149 1.50977 55.8575 2.61685 56.0587 2.61685L55.7568 4.62973C55.6562 4.62973 49.0137 3.52265 46.5982 3.52265C44.7866 3.52265 42.975 4.42845 42.6731 6.44133C42.5724 7.54841 42.5724 9.05808 44.5853 11.071C46.7995 13.3858 49.1143 16.3045 49.2149 16.5057L47.6046 17.8141Z" fill="#00398C"/>
<path d="M105.475 17.8141L103.865 16.6063C103.965 16.5057 106.381 13.4864 108.494 11.1715C110.407 9.15866 110.507 7.649 110.407 6.54191C110.105 4.52903 108.192 3.62323 106.482 3.62323C104.066 3.62323 97.3229 4.73032 97.3229 4.73032L97.021 2.71744C97.3229 2.71744 103.865 1.61035 106.482 1.61035C109.098 1.61035 112.017 3.01937 112.42 6.34063C112.621 7.74964 112.52 9.96381 110.004 12.6812C107.891 14.6941 105.576 17.7134 105.475 17.8141Z" fill="#00398C"/>
<path d="M126.107 80.8172H26.6707V41.4653H42.3711V44.4847H29.69V77.7979H123.088V44.4847H110.407V41.4653H126.107V80.8172Z" fill="#00398C"/>
<path d="M49.8188 51.3286H47.8059V79.3077H49.8188V51.3286Z" fill="#00398C"/>
<path d="M104.469 51.3286H102.456V79.3077H104.469V51.3286Z" fill="#00398C"/>
<path d="M68.4379 64.6135H66.425V79.4082H68.4379V64.6135Z" fill="#00398C"/>
<path d="M86.4533 64.6135H84.4404V79.4082H86.4533V64.6135Z" fill="#00398C"/>
<path d="M123.951 63.8178L107.886 78.6121L109.25 80.0927L125.315 65.2985L123.951 63.8178Z" fill="#00398C"/>
<path d="M28.8376 63.8775L27.4741 65.3582L43.5395 80.1524L44.903 78.6717L28.8376 63.8775Z" fill="#00398C"/>
<path d="M29.69 69.9478H26.6707V83.2328H29.69V69.9478Z" fill="#00398C"/>
<path d="M126.107 69.9478H123.088V83.2328H126.107V69.9478Z" fill="#00398C"/>
<path d="M32.1055 40.2576H0V8.05151H32.1055V40.2576ZM2.01288 38.2448H30.0926V10.0644H2.01288V38.2448Z" fill="#00398C"/>
<path d="M16.1031 39.4525C7.64898 39.4525 0.805176 32.6087 0.805176 24.1546C0.805176 15.7005 7.64898 8.85669 16.1031 8.85669C24.5572 8.85669 31.3003 15.7005 31.3003 24.1546C31.3003 32.6087 24.4565 39.4525 16.1031 39.4525ZM16.1031 10.8696C8.75606 10.8696 2.81806 16.8076 2.81806 24.1546C2.81806 31.5016 8.75606 37.4396 16.1031 37.4396C23.4501 37.4396 29.3881 31.5016 29.3881 24.1546C29.3881 16.8076 23.3495 10.8696 16.1031 10.8696Z" fill="#00398C"/>
<path d="M1.72799 8.39536L0.270264 9.78345L9.91745 19.9147L11.3752 18.5266L1.72799 8.39536Z" fill="#00398C"/>
<path d="M30.2407 8.44715L20.5935 18.5784L22.0512 19.9665L31.6984 9.83523L30.2407 8.44715Z" fill="#00398C"/>
<path d="M9.91818 28.5973L0.270996 38.7285L1.72873 40.1166L11.3759 29.9854L9.91818 28.5973Z" fill="#00398C"/>
<path d="M22.0503 28.5057L20.5925 29.8938L30.2397 40.025L31.6974 38.6369L22.0503 28.5057Z" fill="#00398C"/>
<path d="M6.23988 1.00635C6.23988 1.00635 5.43473 2.01279 4.83086 3.92503C4.227 5.83727 3.92507 7.64886 5.83731 7.64886C8.15212 7.64886 7.74954 5.73662 7.24632 4.02567C6.84375 2.01279 6.23988 1.00635 6.23988 1.00635Z" fill="#00398C"/>
<path d="M10.9701 1.00635C10.9701 1.00635 10.165 2.01279 9.5611 3.92503C8.95724 5.83727 8.65531 7.64886 10.6682 7.64886C12.983 7.64886 12.5804 5.73662 12.0772 4.02567C11.574 2.01279 10.9701 1.00635 10.9701 1.00635Z" fill="#00398C"/>
<path d="M15.8012 1.00635C15.8012 1.00635 14.996 2.01279 14.3922 3.92503C13.7883 5.83727 13.4864 7.64886 15.4992 7.64886C17.8141 7.64886 17.4115 5.73662 16.9083 4.02567C16.405 2.01279 15.8012 1.00635 15.8012 1.00635Z" fill="#00398C"/>
<path d="M20.5314 1.00635C20.5314 1.00635 19.7262 2.01279 19.1224 3.92503C18.5185 5.83727 18.2166 7.64886 20.2295 7.64886C22.5443 7.64886 22.1417 5.73662 21.6385 4.02567C21.1353 2.01279 20.5314 1.00635 20.5314 1.00635Z" fill="#00398C"/>
<path d="M25.3622 1.00635C25.3622 1.00635 24.5571 2.01279 23.9532 3.92503C23.3493 5.83727 23.0474 7.64886 25.0603 7.64886C27.3751 7.64886 26.9725 5.73662 26.4693 4.02567C25.8654 2.01279 25.3622 1.00635 25.3622 1.00635Z" fill="#00398C"/>
<path d="M72.967 52.7375C72.967 52.7375 72.5644 53.6433 72.3631 55.2537C72.1618 56.864 72.1618 58.4743 73.2689 58.3736C74.5773 58.273 74.2753 56.6627 73.8728 55.2537C73.3695 53.6433 72.967 52.7375 72.967 52.7375Z" fill="#00398C"/>
<path d="M79.6095 52.7375C79.6095 52.7375 80.0121 53.6433 80.2134 55.2537C80.4146 56.864 80.4146 58.4743 79.3076 58.3736C77.9992 58.273 78.3011 56.6627 78.7037 55.2537C79.2069 53.6433 79.6095 52.7375 79.6095 52.7375Z" fill="#00398C"/>
<path d="M72.967 46.9001C72.967 46.9001 72.5644 45.9943 72.3631 44.384C72.1618 42.7737 72.1618 41.1634 73.2689 41.264C74.5773 41.3647 74.2753 42.975 73.8728 44.384C73.3695 46.0949 72.967 46.9001 72.967 46.9001Z" fill="#00398C"/>
<path d="M79.6095 46.9001C79.6095 46.9001 80.0121 45.9943 80.2134 44.384C80.4146 42.7737 80.4146 41.1634 79.3076 41.264C77.9992 41.3647 78.3011 42.975 78.7037 44.384C79.2069 46.0949 79.6095 46.9001 79.6095 46.9001Z" fill="#00398C"/>
<path d="M76.2883 62.198C71.6587 62.198 67.8342 58.4741 67.8342 53.8445V45.6923C67.8342 41.0627 71.5581 37.3389 76.1877 37.3389C80.8173 37.3389 84.6418 41.0627 84.6418 45.6923V53.8445C84.6418 58.3735 80.8173 62.198 76.2883 62.198ZM76.2883 39.4524C72.7658 39.4524 69.8471 42.2704 69.8471 45.793V53.9451C69.8471 57.4677 72.6651 60.2857 76.1877 60.2857H76.2883C79.8109 60.2857 82.6289 57.4677 82.6289 53.9451V45.793C82.6289 42.2704 79.7102 39.4524 76.2883 39.4524Z" fill="#00398C"/>
<path d="M76.0871 55.6562C73.6716 55.6562 71.5581 56.562 70.3503 57.9711C71.6587 59.8833 73.8729 61.1917 76.389 61.1917H76.4896C78.8044 61.1917 80.918 60.0846 82.2263 58.3736C81.0186 56.7633 78.7038 55.6562 76.0871 55.6562Z" fill="#00398C"/>
<path d="M76.5902 42.9751C79.0057 42.9751 81.1192 42.0693 82.3269 40.6603C81.0186 38.7481 78.8044 37.4397 76.2883 37.4397H76.1876C73.8728 37.4397 71.7593 38.5468 70.4509 40.2577C71.558 41.868 73.8728 42.9751 76.5902 42.9751Z" fill="#00398C"/>
<path d="M0.805176 113.225V88.4661H11.7754V92.6931H3.72386V98.3292H8.05155C9.66186 98.3292 10.8696 99.0337 11.7754 100.342C12.6812 101.65 13.1844 103.563 13.1844 105.777C13.1844 107.689 12.7818 109.501 12.0773 111.01C11.2722 112.52 9.96379 113.225 8.1522 113.225H0.805176V113.225ZM3.8245 102.556V109.098H6.94447C7.74962 109.098 8.35348 108.997 8.75606 108.897C9.15864 108.696 9.46057 108.394 9.66186 107.89C9.96379 107.387 10.0644 106.683 10.0644 105.978C10.0644 103.764 9.05799 102.657 7.04511 102.657H3.8245V102.556Z" fill="#00398C"/>
<path d="M30.0925 113.225V88.4661H41.0627V92.6931H33.1119V98.2285H40.4589V102.355H33.1119V109.098H41.3647V113.325H30.0925V113.225Z" fill="#00398C"/>
<path d="M61.6949 113.225V92.6931H57.3672V88.4661H69.0419V92.6931H64.7142V113.225H61.6949Z" fill="#00398C"/>
<path d="M88.7681 113.225V92.6931H84.4404V88.4661H96.1151V92.6931H91.7874V113.225H88.7681Z" fill="#00398C"/>
<path d="M125.906 113.225H122.685L121.377 107.588H115.439L114.231 113.225H111.111L116.848 88.4661H119.968L125.906 113.225ZM120.37 103.462L118.357 94.3034L116.345 103.462H120.37Z" fill="#00398C"/>
<path d="M2.01277 124.799V118.055H0.201172V117.15H4.73016V118.055H2.81792V124.799H2.01277Z" fill="#00398C"/>
<path d="M4.83081 124.799L7.04498 117.25H7.85013L10.1649 124.799H9.25915L8.55464 122.484H6.23983L5.63596 124.799H4.83081ZM6.44112 121.679H8.35335L7.74949 119.565C7.5482 118.961 7.44756 118.358 7.34691 117.955C7.24627 118.458 7.14563 118.961 7.04498 119.364L6.44112 121.679Z" fill="#00398C"/>
<path d="M10.769 124.799V117.25H11.5742V120.37H14.4929V117.25H15.298V124.799H14.4929V121.176H11.5742V124.799H10.769Z" fill="#00398C"/>
<path d="M16.5056 117.25H17.3108V120.572C17.6127 120.572 17.9146 120.471 18.0153 120.27C18.1159 120.068 18.3172 119.666 18.5185 118.961C18.7198 118.458 18.8204 118.055 18.9211 117.854C19.0217 117.653 19.223 117.452 19.3237 117.351C19.5249 117.25 19.7262 117.15 20.1288 117.15C20.2294 117.15 20.3301 117.15 20.4307 117.15V118.055H20.2294H20.0282C19.8269 118.055 19.6256 118.156 19.5249 118.257C19.4243 118.357 19.223 118.76 19.1224 119.263C18.9211 119.867 18.8204 120.27 18.6191 120.471C18.4179 120.672 18.3172 120.773 18.1159 120.873C18.5185 120.974 18.8204 121.477 19.223 122.182L20.4307 124.698H19.5249L18.6191 122.685C18.3172 122.081 18.1159 121.578 17.9146 121.477C17.7133 121.276 17.5121 121.175 17.4114 121.175C17.4114 121.175 17.4114 121.175 17.3108 121.175V124.698H16.5056V117.25V117.25Z" fill="#00398C"/>
<path d="M20.8333 122.585V121.679H22.9468V122.585H20.8333Z" fill="#00398C"/>
<path d="M23.8525 117.25H24.6577V120.572C24.9596 120.572 25.2616 120.471 25.3622 120.27C25.4628 120.068 25.6641 119.666 25.8654 118.961C26.0667 118.458 26.1674 118.055 26.268 117.854C26.3686 117.653 26.5699 117.452 26.6706 117.351C26.8719 117.25 27.0731 117.15 27.4757 117.15C27.5764 117.15 27.677 117.15 27.7777 117.15V118.055H27.5764H27.3751C27.1738 118.055 26.9725 118.156 26.8719 118.257C26.7712 118.357 26.5699 118.76 26.4693 119.263C26.268 119.867 26.1674 120.27 25.9661 120.471C25.7648 120.672 25.6641 120.773 25.4628 120.873C25.8654 120.974 26.1674 121.477 26.5699 122.182L27.7777 124.698H26.8719L25.9661 122.685C25.6641 122.081 25.4628 121.578 25.2616 121.477C25.0603 121.276 24.859 121.175 24.7583 121.175C24.7583 121.175 24.7583 121.175 24.6577 121.175V124.698H23.8525V117.25V117.25Z" fill="#00398C"/>
<path d="M28.281 121.075C28.281 119.766 28.5829 118.76 29.0862 118.056C29.5894 117.351 30.2939 117.049 30.9984 117.049C31.5016 117.049 32.0048 117.25 32.4074 117.552C32.81 117.854 33.1119 118.357 33.4139 118.861C33.7158 119.364 33.8164 120.169 33.8164 120.974C33.8164 122.081 33.6151 122.987 33.1119 123.692C32.6087 124.497 31.9042 124.899 31.099 124.899C30.2939 124.899 29.5894 124.497 29.0862 123.692C28.4823 122.987 28.281 122.182 28.281 121.075ZM28.9855 121.175C28.9855 122.081 29.1868 122.886 29.5894 123.39C29.992 123.893 30.3945 124.195 30.9984 124.195C31.6023 124.195 32.0048 123.893 32.4074 123.39C32.81 122.886 33.0113 122.081 33.0113 121.075C33.0113 120.471 32.9106 119.867 32.7093 119.364C32.6087 118.961 32.3068 118.659 32.0048 118.458C31.7029 118.257 31.401 118.056 30.9984 118.056C30.3945 118.056 29.992 118.357 29.5894 118.861C29.1868 119.364 28.9855 120.068 28.9855 121.175Z" fill="#00398C"/>
<path d="M34.6216 124.799V117.25H35.4267V120.37H38.3454V117.25H39.1506V124.799H38.3454V121.176H35.4267V124.799H34.6216Z" fill="#00398C"/>
<path d="M41.868 124.799V118.055H39.9558V117.15H44.4848V118.055H42.5726V124.799H41.868Z" fill="#00398C"/>
<path d="M45.2898 124.799V117.25H49.4162V118.156H46.0949V120.471H49.2149V121.377H46.0949V123.994H49.6175V124.899H45.2898V124.799Z" fill="#00398C"/>
<path d="M50.624 117.25H51.3285V123.289L54.3479 117.25H55.153V124.799H54.4485V118.76L51.4292 124.799H50.624V117.25ZM53.6433 115.338H54.1466C54.1466 115.741 53.9453 116.143 53.744 116.345C53.5427 116.546 53.2408 116.647 52.9388 116.647C52.6369 116.647 52.335 116.546 52.1337 116.345C51.9324 116.143 51.8318 115.741 51.7311 115.338H52.2343C52.335 115.841 52.5363 116.043 52.8382 116.043C53.0395 116.043 53.2408 115.942 53.3414 115.841C53.5427 115.741 53.5427 115.64 53.6433 115.338Z" fill="#00398C"/>
<path d="M56.3606 124.799V117.25H57.1657V120.37H60.0844V117.25H60.8896V124.799H60.0844V121.176H57.1657V124.799H56.3606Z" fill="#00398C"/>
<path d="M62.0974 124.799V117.25H66.2238V118.156H62.9026V120.471H66.0225V121.377H62.9026V123.994H66.4251V124.899H62.0974V124.799Z" fill="#00398C"/>
<path d="M67.4316 124.799V117.25H69.5452C70.0484 117.25 70.451 117.25 70.6522 117.351C70.9542 117.452 71.2561 117.754 71.4574 118.056C71.6587 118.458 71.7593 118.861 71.7593 119.364C71.7593 120.069 71.5581 120.572 71.2561 121.075C70.9542 121.478 70.3503 121.679 69.6458 121.679H68.1361V124.799H67.4316V124.799ZM68.1361 120.874H69.6458C70.149 120.874 70.451 120.773 70.6522 120.572C70.8535 120.37 70.9542 119.968 70.9542 119.565C70.9542 119.263 70.8535 118.961 70.7529 118.76C70.6523 118.559 70.5516 118.358 70.3503 118.358C70.149 118.358 69.9477 118.257 69.5452 118.257H68.0355V120.874H68.1361Z" fill="#00398C"/>
<path d="M72.665 124.799V117.25H73.4702V120.37H76.3889V117.25H77.194V124.799H76.3889V121.176H73.4702V124.799H72.665Z" fill="#00398C"/>
<path d="M78.5024 117.25H79.3076V120.471H80.7166C81.2198 120.471 81.6224 120.572 81.9243 120.672C82.2263 120.773 82.4276 121.075 82.6288 121.377C82.8301 121.679 82.9308 122.182 82.9308 122.585C82.9308 123.188 82.8301 123.692 82.5282 124.094C82.2263 124.497 81.6224 124.799 80.8173 124.799H78.5024V117.25ZM79.2069 123.994H80.616C81.1192 123.994 81.4211 123.893 81.6224 123.692C81.8237 123.49 81.9243 123.088 81.9243 122.685C81.9243 122.383 81.8237 122.081 81.7231 121.88C81.6224 121.679 81.4211 121.578 81.2198 121.478C81.0185 121.377 80.7166 121.377 80.2134 121.377H79.2069V123.994ZM83.8366 124.799V117.25H84.6417V124.799H83.8366Z" fill="#00398C"/>
<path d="M85.95 117.25H86.5539V123.289L89.5732 117.25H90.3784V124.799H89.6738V118.76L86.6545 124.799H85.8494V117.25H85.95ZM88.9693 115.338H89.4726C89.4726 115.741 89.2713 116.143 89.07 116.345C88.8687 116.546 88.5668 116.647 88.2648 116.647C87.9629 116.647 87.661 116.546 87.4597 116.345C87.2584 116.143 87.1577 115.741 87.0571 115.338H87.5603C87.661 115.841 87.8622 116.043 88.1642 116.043C88.3655 116.043 88.5668 115.942 88.6674 115.841C88.8687 115.741 88.8687 115.64 88.9693 115.338Z" fill="#00398C"/>
<path d="M97.9268 122.182L98.7319 122.484C98.5306 123.289 98.2287 123.994 97.8261 124.396C97.4235 124.799 96.9203 125 96.3165 125C95.8132 125 95.31 124.899 95.0081 124.598C94.7062 124.296 94.3036 123.893 94.1023 123.289C93.901 122.685 93.6997 121.981 93.6997 121.075C93.6997 120.27 93.8004 119.565 94.1023 118.961C94.3036 118.358 94.7061 117.955 95.1087 117.653C95.5113 117.351 96.0145 117.25 96.5177 117.25C97.021 117.25 97.5242 117.452 97.9268 117.854C98.3293 118.257 98.6313 118.76 98.7319 119.465L98.0274 119.666C97.7255 118.66 97.2223 118.056 96.5177 118.056C96.1152 118.056 95.8132 118.156 95.5113 118.358C95.2094 118.559 95.0081 118.861 94.8068 119.364C94.6055 119.767 94.6055 120.37 94.6055 121.075C94.6055 122.081 94.8068 122.887 95.1087 123.39C95.4107 123.893 95.9139 124.195 96.4171 124.195C96.8197 124.195 97.2223 123.994 97.5242 123.692C97.6248 123.289 97.8261 122.786 97.9268 122.182Z" fill="#00398C"/>
<path d="M99.6377 124.799V117.25H103.764V118.156H100.443V120.471H103.563V121.377H100.443V123.994H103.965V124.899H99.6377V124.799Z" fill="#00398C"/>
<path d="M104.871 124.799V117.25H106.985C107.488 117.25 107.89 117.25 108.092 117.351C108.394 117.452 108.696 117.754 108.897 118.056C109.098 118.458 109.199 118.861 109.199 119.364C109.199 120.069 108.998 120.572 108.696 121.075C108.394 121.478 107.79 121.679 107.085 121.679H105.676V124.799H104.871V124.799ZM105.676 120.874H107.186C107.689 120.874 107.991 120.773 108.192 120.572C108.394 120.37 108.494 119.968 108.494 119.565C108.494 119.263 108.394 118.961 108.293 118.76C108.192 118.559 108.092 118.358 107.89 118.358C107.689 118.358 107.488 118.257 107.085 118.257H105.676V120.874Z" fill="#00398C"/>
<path d="M110.205 124.799V117.25H112.319C112.721 117.25 113.124 117.351 113.325 117.452C113.627 117.552 113.829 117.854 113.929 118.156C114.13 118.458 114.13 118.76 114.13 119.163C114.13 119.465 114.03 119.867 113.929 120.069C113.829 120.37 113.627 120.572 113.325 120.773C113.627 120.874 113.929 121.176 114.13 121.478C114.332 121.779 114.432 122.182 114.432 122.685C114.432 123.188 114.332 123.591 114.13 123.893C113.929 124.195 113.728 124.497 113.426 124.698C113.124 124.899 112.721 124.899 112.218 124.899H110.205V124.799ZM111.01 120.37H112.218C112.52 120.37 112.721 120.37 112.923 120.27C113.124 120.169 113.225 120.069 113.426 119.867C113.627 119.666 113.627 119.465 113.627 119.163C113.627 118.861 113.627 118.66 113.527 118.458C113.426 118.257 113.325 118.156 113.124 118.056C112.923 117.955 112.721 117.955 112.218 117.955H111.111V120.37H111.01ZM111.01 123.893H112.419C112.721 123.893 112.923 123.893 113.124 123.792C113.325 123.692 113.527 123.591 113.627 123.39C113.728 123.188 113.829 122.887 113.829 122.585C113.829 122.283 113.728 122.081 113.627 121.88C113.527 121.679 113.325 121.578 113.225 121.478C113.023 121.377 112.721 121.377 112.319 121.377H111.01V123.893Z" fill="#00398C"/>
<path d="M115.54 117.25H116.244V123.289L119.263 117.25H120.069V124.799H119.364V118.76L116.345 124.799H115.54V117.25Z" fill="#00398C"/>
<path d="M125.302 122.182L126.107 122.484C125.906 123.289 125.604 123.994 125.201 124.396C124.799 124.799 124.296 125 123.692 125C123.188 125 122.685 124.899 122.383 124.598C122.081 124.296 121.679 123.893 121.478 123.289C121.276 122.685 121.075 121.981 121.075 121.075C121.075 120.27 121.176 119.565 121.478 118.961C121.679 118.358 122.081 117.955 122.484 117.653C122.887 117.351 123.39 117.25 123.893 117.25C124.396 117.25 124.899 117.452 125.302 117.854C125.705 118.257 126.007 118.76 126.107 119.465L125.403 119.666C125.101 118.66 124.597 118.056 123.893 118.056C123.49 118.056 123.188 118.156 122.887 118.358C122.585 118.559 122.383 118.861 122.182 119.364C121.981 119.767 121.981 120.37 121.981 121.075C121.981 122.081 122.182 122.887 122.484 123.39C122.786 123.893 123.289 124.195 123.792 124.195C124.195 124.195 124.597 123.994 124.899 123.692C125 123.289 125.201 122.786 125.302 122.182Z" fill="#00398C"/>
</g>
<defs>
<clipPath id="clip0_332_1528">
<rect width="126.107" height="125" fill="white"/>
</clipPath>
</defs>
</svg>
