<svg width="235" height="125" viewBox="0 0 235 125" fill="none" xmlns="http://www.w3.org/2000/svg">
<path d="M31.9161 56.8806C31.9161 57.3334 31.7822 57.776 31.5314 58.1525C31.2807 58.529 30.9242 58.8224 30.5072 58.9957C30.0902 59.1689 29.6313 59.2142 29.1886 59.1259C28.7459 59.0376 28.3392 58.8196 28.0201 58.4994C27.7009 58.1792 27.4835 57.7713 27.3955 57.3272C27.3074 56.8832 27.3526 56.4228 27.5254 56.0045C27.6981 55.5862 27.9906 55.2287 28.3659 54.9771C28.7412 54.7256 29.1824 54.5913 29.6338 54.5913C30.2391 54.5913 30.8196 54.8325 31.2476 55.2618C31.6756 55.6912 31.9161 56.2734 31.9161 56.8806Z" fill="#1696CD"/>
<path d="M29.6339 69.542C29.6339 69.9954 29.4995 70.439 29.248 70.8159C28.9964 71.1927 28.6389 71.4862 28.2209 71.6587C27.8028 71.8313 27.3431 71.8756 26.8999 71.7861C26.4567 71.6962 26.0501 71.4764 25.7316 71.1545C25.4132 70.8326 25.1972 70.4231 25.1111 69.9779C25.0251 69.5327 25.0728 69.0716 25.2482 68.6537C25.4236 68.2357 25.7189 67.8794 26.0965 67.63C26.4741 67.3805 26.9171 67.2493 27.3692 67.2528C27.6681 67.2528 27.964 67.3121 28.2399 67.4273C28.5158 67.5426 28.7663 67.7115 28.9768 67.9243C29.1873 68.1371 29.3538 68.3896 29.4665 68.6673C29.5793 68.945 29.6362 69.2421 29.6339 69.542Z" fill="#1696CD"/>
<path d="M26.509 83.7532C26.5124 84.2074 26.3811 84.6527 26.1317 85.032C25.8822 85.4109 25.526 85.7071 25.1083 85.8825C24.6905 86.058 24.2302 86.1048 23.7859 86.0169C23.3415 85.9294 22.9332 85.7108 22.613 85.3897C22.2928 85.0686 22.0751 84.6588 21.9876 84.2131C21.9001 83.7675 21.9468 83.3056 22.1217 82.8868C22.2966 82.4676 22.5918 82.1103 22.9698 81.86C23.3478 81.6097 23.7915 81.4782 24.2443 81.4815C24.8435 81.4864 25.4169 81.7269 25.8406 82.1522C26.2643 82.5771 26.5044 83.1521 26.509 83.7532Z" fill="#1696CD"/>
<path d="M20.5576 71.8138C20.5611 72.268 20.4297 72.7128 20.1803 73.0921C19.9309 73.4714 19.5746 73.7673 19.1569 73.9431C18.7392 74.1185 18.2789 74.1653 17.8345 74.0774C17.3902 73.9895 16.9819 73.7714 16.6617 73.4499C16.3415 73.1288 16.1237 72.7193 16.0362 72.2737C15.9487 71.8281 15.9954 71.3661 16.1703 70.947C16.3452 70.5282 16.6405 70.1708 17.0184 69.9206C17.3965 69.6703 17.8401 69.5384 18.2929 69.5421C18.8922 69.5465 19.4655 69.7875 19.8892 70.2124C20.313 70.6376 20.553 71.2127 20.5576 71.8138Z" fill="#1696CD"/>
<path d="M18.2929 66.7422C18.2964 67.1957 18.1655 67.64 17.9168 68.0188C17.6682 68.3976 17.313 68.6937 16.8963 68.8698C16.4796 69.0456 16.0202 69.0936 15.5763 69.0073C15.1324 68.921 14.7242 68.7041 14.4032 68.3848C14.0823 68.0653 13.8632 67.6575 13.7737 67.2129C13.6842 66.7683 13.7283 66.3071 13.9006 65.8878C14.0727 65.4684 14.3653 65.1099 14.7409 64.8575C15.1166 64.6052 15.5585 64.4705 16.0107 64.4705C16.6129 64.4704 17.1908 64.7092 17.6183 65.1347C18.0458 65.5603 18.2883 66.138 18.2929 66.7422Z" fill="#1696CD"/>
<path d="M41.9226 66.9712C41.9263 67.4247 41.7952 67.869 41.5469 68.2478C41.2981 68.6266 40.943 68.9227 40.526 69.0986C40.1094 69.2748 39.65 69.3224 39.2062 69.2361C38.7623 69.1498 38.354 68.9333 38.0331 68.6138C37.7122 68.2943 37.4931 67.8865 37.4035 67.4419C37.3141 66.9973 37.3582 66.5362 37.5304 66.1168C37.7026 65.6975 37.9951 65.3389 38.3708 65.0865C38.7465 64.8342 39.1884 64.6995 39.6405 64.6995C40.2428 64.6994 40.8208 64.9382 41.248 65.3637C41.6755 65.7893 41.9182 66.3671 41.9226 66.9712Z" fill="#1696CD"/>
<path d="M9.18157 74.4378C9.18505 74.8915 9.05416 75.3355 8.80553 75.7144C8.55686 76.0933 8.20165 76.3896 7.78496 76.5654C7.36823 76.7412 6.90883 76.7893 6.46496 76.703C6.02113 76.6167 5.61281 76.3998 5.2919 76.0807C4.97095 75.7612 4.75184 75.353 4.66233 74.9086C4.57286 74.4642 4.61699 74.0027 4.78922 73.5835C4.96144 73.1643 5.25392 72.8058 5.6296 72.5535C6.00527 72.3011 6.44724 72.166 6.89936 72.166C7.50159 72.166 8.07946 72.4049 8.50695 72.8306C8.93444 73.2559 9.17696 73.8338 9.18157 74.4378Z" fill="#1696CD"/>
<path d="M11.4463 52.6541C11.4463 53.1076 11.312 53.551 11.0604 53.9278C10.8089 54.3046 10.4514 54.5981 10.0333 54.7708C9.61529 54.9435 9.15552 54.9878 8.71234 54.898C8.26916 54.8083 7.86254 54.5885 7.54406 54.2666C7.22561 53.9447 7.00962 53.5351 6.92355 53.0898C6.83752 52.6446 6.88521 52.1838 7.06063 51.7657C7.23609 51.3478 7.53131 50.9915 7.90893 50.742C8.28655 50.4926 8.72949 50.3613 9.18161 50.3648C9.48052 50.3648 9.77643 50.4242 10.0523 50.5394C10.3283 50.6547 10.5787 50.8236 10.7892 51.0364C10.9997 51.2492 11.1662 51.5017 11.279 51.7794C11.3917 52.057 11.4486 52.3543 11.4463 52.6541Z" fill="#1696CD"/>
<path d="M38.4995 50.7171C38.5029 51.1714 38.3716 51.6164 38.1222 51.9955C37.8727 52.3747 37.5165 52.6708 37.0987 52.8463C36.681 53.0218 36.2207 53.0686 35.7763 52.9808C35.332 52.893 34.9237 52.6746 34.6035 52.3534C34.2833 52.0322 34.0656 51.6226 33.9781 51.1769C33.8906 50.7312 33.9372 50.2695 34.1122 49.8504C34.2871 49.4314 34.5823 49.074 34.9603 48.8238C35.3383 48.5737 35.7819 48.4419 36.2348 48.4454C36.834 48.45 37.4073 48.6908 37.8311 49.1158C38.2548 49.5408 38.4949 50.116 38.4995 50.7171Z" fill="#1696CD"/>
<path d="M5.1438 75.0543L35.9539 50.3826L36.4981 51.0693L8.65489 73.3637L38.7628 66.6543L29.3354 57.1801L29.9499 56.5637L40.5183 67.1649L5.1438 75.0543Z" fill="#1696CD"/>
<path d="M24.6657 85.127L23.8054 84.9512L29.2126 56.7925L30.0728 56.951L24.6657 85.127Z" fill="#1696CD"/>
<path d="M23.8405 85.2153L9.21667 52.7245L10.0243 52.3723L24.6481 84.8628L23.8405 85.2153Z" fill="#1696CD"/>
<path d="M36.1893 50.2834L9.58502 52.1168L9.64517 52.9952L36.2494 51.1619L36.1893 50.2834Z" fill="#1696CD"/>
<path d="M39.5879 67.3409L36.3401 50.805L37.1828 50.6289L40.4479 67.1648L39.5879 67.3409Z" fill="#1696CD"/>
<path d="M9.26163 52.2051L9.09021 53.0686L30.3024 57.3049L30.4738 56.4414L9.26163 52.2051Z" fill="#1696CD"/>
<path d="M15.8673 65.5991L15.6478 66.4532L27.2786 69.46L27.498 68.6061L15.8673 65.5991Z" fill="#1696CD"/>
<path d="M39.6875 66.9551L23.9074 84.7398L24.5631 85.3254L40.3432 67.5405L39.6875 66.9551Z" fill="#1696CD"/>
<path d="M6.83139 74.0588L6.39581 74.8235L24.8841 85.4233L25.3197 84.6585L6.83139 74.0588Z" fill="#1696CD"/>
<path d="M8.44701 52.1028L6.17871 74.3867L7.05193 74.4762L9.32023 52.1922L8.44701 52.1028Z" fill="#1696CD"/>
<path d="M58.8641 68.926V79.5798L30.2132 96.1686L1.58 79.5798V46.4201L30.2132 29.8314L58.8641 46.4201V57.8843L60.4439 60.2969V45.5044L30.2132 28L0 45.5044V80.4955L30.2132 98L60.4439 80.4955V71.074L58.8641 68.926Z" fill="#1696CD"/>
<path d="M71.4513 73.3638V57.2504L63.3408 69.3485H61.585L53.4744 57.2504V73.3638H51.4731V53.2881H53.2285L62.4453 67.112L71.6794 53.2881H73.4353V73.3638H71.4513Z" fill="#1696CD"/>
<path d="M95.1338 68.732H82.125L79.7726 73.3638H77.5258L87.778 53.2881H89.5338L99.8212 73.3638H97.5214L95.1338 68.732ZM83.0206 66.9711H94.2387L88.6383 55.9472L83.0206 66.9711Z" fill="#1696CD"/>
<path d="M103.841 73.3638V53.2881H105.86V62.3573H110.881L119.062 53.2881H121.59L112.654 63.2906L121.432 73.17V73.3459L119.378 73.6804L110.952 64.3296H105.86V73.3638H103.841Z" fill="#1696CD"/>
<path d="M138.391 73.5749C137.074 73.6803 135.881 73.7332 134.88 73.7332C133.539 73.7356 132.201 73.6294 130.877 73.4161C129.616 73.2277 128.415 72.752 127.366 72.0251C126.28 71.2229 125.44 70.1306 124.943 68.8731C124.261 67.1006 123.95 65.2063 124.03 63.3081C123.953 61.4102 124.264 59.5164 124.943 57.7433C125.441 56.4907 126.28 55.4042 127.366 54.6088C128.411 53.8745 129.614 53.3978 130.877 53.2176C132.199 52.9897 133.538 52.8777 134.88 52.883C135.933 52.883 137.127 52.883 138.391 53.0591C139.655 53.2352 141.007 53.3232 142.288 53.4993L142.201 55.454C141.568 55.3308 140.937 55.2427 140.304 55.1547C139.673 55.0666 139.023 54.9962 138.391 54.961L136.635 54.8553H135.073C134.3 54.8553 133.546 54.8553 132.808 54.8553C132.096 54.9182 131.39 55.0479 130.702 55.2427C130.079 55.4382 129.487 55.7229 128.946 56.088C128.359 56.4771 127.863 56.9874 127.489 57.5849C126.985 58.3107 126.616 59.1221 126.401 59.9798C126.166 61.0734 126.054 62.1897 126.067 63.3081C126.048 64.4618 126.16 65.6138 126.401 66.7421C126.584 67.5731 126.911 68.3657 127.366 69.0843C127.745 69.6777 128.24 70.1872 128.823 70.5811C129.369 70.934 129.959 71.2124 130.579 71.4089C131.263 71.6206 131.971 71.7504 132.685 71.7964C133.423 71.7964 134.177 71.8843 134.95 71.8843H136.512L138.268 71.7964L140.181 71.5848C140.814 71.5848 141.445 71.4089 142.078 71.3031L142.236 73.2403C141.007 73.3107 139.708 73.4516 138.391 73.5749Z" fill="#1696CD"/>
<path d="M163.723 68.732H150.715L148.362 73.3638H146.115L156.385 53.2881H158.141L168.428 73.3638H166.111L163.723 68.732ZM151.61 66.9711H162.828L157.228 55.9472L151.61 66.9711Z" fill="#1696CD"/>
<path d="M172.431 73.3638V53.2881H190.092V73.3638H188.073V55.2604H174.45V73.3638H172.431Z" fill="#1696CD"/>
<path d="M202.627 73.3638V55.2604H194.025V53.2881H212.967L212.791 55.2604H204.628V73.3638H202.627Z" fill="#1696CD"/>
<path d="M229.978 68.732H216.97L214.617 73.3638H212.423L222.693 53.2881H224.448L234.736 73.3638H232.489L229.978 68.732ZM217.865 66.9711H229.083L223.483 55.9472L217.865 66.9711Z" fill="#1696CD"/>
</svg>
