<svg width="352" height="116" viewBox="0 0 352 116" fill="none" xmlns="http://www.w3.org/2000/svg">
<path d="M58.7109 60.1641H50.4492V72H48.0273V43.5625H57.2656C60.2995 43.5625 62.6693 44.2982 64.375 45.7695C66.0807 47.2409 66.9336 49.2982 66.9336 51.9414C66.9336 53.7643 66.3997 55.3724 65.332 56.7656C64.2643 58.1589 62.832 59.1224 61.0352 59.6562L68.1445 71.7461V72H65.5859L58.7109 60.1641ZM50.4492 58.1133H57.8125C59.8307 58.1133 61.4518 57.5404 62.6758 56.3945C63.8997 55.2487 64.5117 53.7643 64.5117 51.9414C64.5117 49.9362 63.8737 48.3802 62.5977 47.2734C61.3216 46.1667 59.5312 45.6133 57.2266 45.6133H50.4492V58.1133ZM88.8281 64.0312H75.918L72.9883 72H70.4688L81.2305 43.5625H83.5156L94.2773 72H91.7773L88.8281 64.0312ZM76.6602 61.9805H88.0664L82.3633 46.4922L76.6602 61.9805ZM101.406 72H99.0039V43.5625H101.406V72ZM111.562 69.9688H125.605V72H109.141V43.5625H111.562V69.9688ZM142.383 69.9688H156.426V72H139.961V43.5625H142.383V69.9688ZM180.781 59.3242C180.781 61.9414 180.326 64.2396 179.414 66.2188C178.516 68.1979 177.227 69.7214 175.547 70.7891C173.867 71.8568 171.927 72.3906 169.727 72.3906C166.406 72.3906 163.724 71.2057 161.68 68.8359C159.635 66.4531 158.613 63.2435 158.613 59.207V56.2773C158.613 53.6862 159.069 51.3945 159.98 49.4023C160.905 47.3971 162.207 45.8607 163.887 44.793C165.566 43.7122 167.5 43.1719 169.688 43.1719C171.875 43.1719 173.802 43.6992 175.469 44.7539C177.148 45.8086 178.444 47.2995 179.355 49.2266C180.267 51.1537 180.742 53.3867 180.781 55.9258V59.3242ZM178.379 56.2383C178.379 52.8138 177.604 50.1315 176.055 48.1914C174.505 46.2513 172.383 45.2812 169.688 45.2812C167.044 45.2812 164.935 46.2578 163.359 48.2109C161.797 50.151 161.016 52.8659 161.016 56.3555V59.3242C161.016 62.6966 161.797 65.3724 163.359 67.3516C164.922 69.3177 167.044 70.3008 169.727 70.3008C172.448 70.3008 174.57 69.3307 176.094 67.3906C177.617 65.4375 178.379 62.7227 178.379 59.2461V56.2383ZM207.363 68.6211C206.53 69.806 205.221 70.7305 203.438 71.3945C201.667 72.0586 199.681 72.3906 197.48 72.3906C195.254 72.3906 193.275 71.8568 191.543 70.7891C189.811 69.7214 188.47 68.2109 187.52 66.2578C186.569 64.3047 186.087 62.0651 186.074 59.5391V55.9453C186.074 52 187.07 48.888 189.062 46.6094C191.055 44.3177 193.73 43.1719 197.09 43.1719C200.02 43.1719 202.376 43.9206 204.16 45.418C205.944 46.9023 207.005 48.9531 207.344 51.5703H204.941C204.59 49.487 203.737 47.9115 202.383 46.8438C201.042 45.763 199.284 45.2227 197.109 45.2227C194.453 45.2227 192.35 46.1667 190.801 48.0547C189.251 49.9427 188.477 52.6055 188.477 56.043V59.4023C188.477 61.5638 188.841 63.4779 189.57 65.1445C190.312 66.7982 191.367 68.0807 192.734 68.9922C194.115 69.9036 195.697 70.3594 197.48 70.3594C199.551 70.3594 201.328 70.0339 202.812 69.3828C203.776 68.9531 204.492 68.4518 204.961 67.8789V60.5352H197.324V58.5039H207.363V68.6211ZM217.109 72H214.707V43.5625H217.109V72ZM240.938 65.0078C240.938 63.4323 240.384 62.1888 239.277 61.2773C238.171 60.3529 236.146 59.4805 233.203 58.6602C230.26 57.8268 228.112 56.9219 226.758 55.9453C224.831 54.5651 223.867 52.7552 223.867 50.5156C223.867 48.3412 224.759 46.5768 226.543 45.2227C228.34 43.8555 230.632 43.1719 233.418 43.1719C235.306 43.1719 236.992 43.5365 238.477 44.2656C239.974 44.9948 241.133 46.0104 241.953 47.3125C242.773 48.6146 243.184 50.0664 243.184 51.668H240.762C240.762 49.7279 240.098 48.1719 238.77 47C237.441 45.8151 235.658 45.2227 233.418 45.2227C231.243 45.2227 229.512 45.7109 228.223 46.6875C226.934 47.651 226.289 48.9141 226.289 50.4766C226.289 51.9219 226.868 53.1003 228.027 54.0117C229.186 54.9232 231.042 55.7305 233.594 56.4336C236.146 57.1237 238.079 57.8464 239.395 58.6016C240.71 59.3438 241.699 60.2357 242.363 61.2773C243.027 62.319 243.359 63.5495 243.359 64.9688C243.359 67.2083 242.461 69.0052 240.664 70.3594C238.88 71.7135 236.523 72.3906 233.594 72.3906C231.589 72.3906 229.746 72.0326 228.066 71.3164C226.4 70.6003 225.13 69.5977 224.258 68.3086C223.398 67.0195 222.969 65.5417 222.969 63.875H225.371C225.371 65.8802 226.12 67.4622 227.617 68.6211C229.115 69.7799 231.107 70.3594 233.594 70.3594C235.807 70.3594 237.585 69.8711 238.926 68.8945C240.267 67.918 240.938 66.6224 240.938 65.0078ZM267.852 45.6133H258.105V72H255.703V45.6133H245.977V43.5625H267.852V45.6133ZM275.391 72H272.988V43.5625H275.391V72ZM303.262 63.1328C302.936 66.1276 301.862 68.4193 300.039 70.0078C298.229 71.5964 295.814 72.3906 292.793 72.3906C290.684 72.3906 288.815 71.8633 287.188 70.8086C285.573 69.7539 284.323 68.263 283.438 66.3359C282.552 64.3958 282.103 62.1823 282.09 59.6953V56.0039C282.09 53.4779 282.533 51.2383 283.418 49.2852C284.303 47.332 285.573 45.8281 287.227 44.7734C288.893 43.7057 290.807 43.1719 292.969 43.1719C296.016 43.1719 298.418 43.9987 300.176 45.6523C301.947 47.293 302.975 49.5651 303.262 52.4688H300.84C300.241 47.638 297.617 45.2227 292.969 45.2227C290.391 45.2227 288.333 46.1862 286.797 48.1133C285.273 50.0404 284.512 52.7031 284.512 56.1016V59.5781C284.512 62.8594 285.254 65.4766 286.738 67.4297C288.236 69.3828 290.254 70.3594 292.793 70.3594C295.306 70.3594 297.201 69.7604 298.477 68.5625C299.753 67.3516 300.54 65.5417 300.84 63.1328H303.262Z" fill="black"/>
</svg>
